<svg xmlns="http://www.w3.org/2000/svg" viewBox="0 0 1024 819">
  <path fill="#A4C6C9" d="M805.704 521.36c-6.5216 4.1688-13.8144 7.636-20.608 11.3904-15.9296 8.8032-32.1824 17.7688-48.5744 25.6712-4.8072 2.3176-9.304 3.9984-14.5128 2.1024-8.8672-3.2264-17.6656-8.5736-25.9968-13.0288-8.944-4.7824-18.0216-9.3048-27.0272-13.9696-6.7128-3.4768-13.6312-6.5352-20.3568-9.9808-16.2112-8.3056-32.2496-16.8816-48.2504-25.5584-3.1408-1.7032-6.4976-3.0328-9.5976-4.8-1.16-.6616-2.1536-1.2872-2.728-2.5336.0688-.1448.1176-.3016.2072-.4352 1.2768-1.9024 5.524-2.944 7.6288-3.6648.1904 1.5192.2 2.14 1.5576 3.1192 4.3576 3.144 10.488 5.5008 15.3104 7.976q16.5896 8.6856 33.3184 17.1032c27.1856 13.7328 53.8712 28.304 81.2272 41.7304 18.0016-8.1024 35.5312-18.3512 53.0056-27.584 6.672-3.5256 13.468-7.6232 20.4768-10.4088l4.92 2.8712Zm15.016 214.9408c2.832-5.4544-1.304-52.56 1.144-63.9216.104 9.1896 1.176 76.1512-.752 79.7368 3.984 1.2088 43.672 20.5352 45.92 22.7 6.84-1.8384 22.16-11.5896 29.472-15.44 19.76-10.412 39.824-20.2472 59.488-30.848 1.552-.836 3.104-1.524 4.336-2.8128 1.088-2.016.88-5.6136.32-7.792-.064-.2528-.152-.4992-.232-.7488 1.744.3672 3.288 1.1808 4.896 1.9256 3.248 1.508 10.976 4.3448 12.208 7.7288-1.328 1.512-3.512 2.4264-5.272 3.36-25.752 13.7-51.928 26.6048-77.752 40.1552-4.008 2.1024-22.888 13.228-25.272 13.6408-2.464.4264-6.408-1.1344-8.704-2.1056-10.216-4.3264-20.216-10.264-30.224-15.168l-20.552-10.0264c-4.24-2.048-8.712-3.876-12.6512-6.4608.4616-2.9672 19.7392-10.5752 23.1072-13.4584.176-.152.344-.3104.52-.4648Z"/>
  <path fill="#3C3C68" d="M287.988 82.4152c2.2224.2464 11.988 4.6256 13.9128 5.9368 2.7624 1.8824 4.3544 21.936 5.3744 26.5664 6.2848-4.2328 13.0536-7.8704 19.7528-11.4048 5.1976 1.5976 10.2888 4.2432 15.2064 6.5504 2.7552 14.3344 3.72 29.3296 5.5104 43.8272 1.8408 14.9048 4.4696 29.72 5.9592 44.6672.1872 1.876.6952 5.2528.056 7.0464-1.1784 3.3072-16.28 10.284-19.9368 12.0184-2.5432-.436-6.2024-2.2672-8.5968-1.5608-.7536 1.4696-.1456 2.7104.1944 4.2784.0296.8664-.0832 1.504-.2272 2.3552-3.3 4.3176-16.312 11.3064-21.7176 12.7832-4.3384 1.1848-10.6464 1.4824-14.6136-.7992-3.0176-3.812-4.7736-19.9056-5.8152-25.6744-1.568-.904-2.9096-1.6624-3.552-3.4576-1.1904-3.3272 1.0304-7.1712 2.3408-10.1464-1.1032-8.9552-2.9688-17.9016-4.5184-26.7912l-6.9552-40.02c-1.9728-10.8664-4.24-21.8792-5.2016-32.8896l.1648-.1248c6.6824-5.1544 15.2856-9.024 22.6624-13.1608Z"/>
  <path fill="#F3F4EF" d="M284.4568 197.1608c3.2872.432 6.6064.6696 9.9088.9656.7152 1.9432 2.5864 5.7272 1.784 7.6768l-1.268.1224c-4.32-.492-8.7272-.6784-13.0672-.996.66-2.6888 1.6288-5.1968 2.6424-7.7688Z"/>
  <path fill="#A4C6C9" d="M321.7312 192.9224c2.3464 1.0776 4.6088 2.0664 7.0976 2.772 1.66 1.2736 1.608 4.3648 1.8752 6.4064.4912 3.744 1.3104 8.0752 1.1368 11.8288-2.5328-.8088-4.9808-1.792-7.4464-2.7816-1.0136-6.056-1.5776-12.172-2.6632-18.2256Z"/>
  <path fill="#F3F4EF" d="m288.4752 85.9096 9.2584 4.1944q-8.824 4.8416-17.4648 10.0032-4.708-2.2504-9.5016-4.3136 8.9616-4.7496 17.708-9.884Zm30.3496 110.484c1.7216 8.2784 1.7056 16.844 3.452 25.144-2.6888 1.9048-5.4288 3.456-8.3544 4.9672-1.0672-2.9376 1.0304-5.688 1.228-8.4608.1024-1.4416-.8176-1.9352-1.7352-2.892-.3096-1.2376.5248-2.2816 1.0504-3.4296.18-.392.2912-.5944.436-.9928.576-1.5752.3368-4.0216-.4048-5.5048-.0136-1.6016-.2816-3.952.2424-5.4528.6056-1.732 2.5776-2.5224 4.0856-3.3784Zm-21.6632 1.2864c6.5984-3.808 12.8896-8.1872 19.236-12.3992 1.0872 2.2664 2.948 5.172 2.532 7.7024-4.0672 2.3184-8.0688 4.6264-11.9112 7.3104-1.9224 1.4336-4.2992 3.836-6.7952 3.7768-.6048-.6176-1.0936-1.1744-1.548-1.9112.088-1.5096-.9016-3.1248-1.5136-4.4792Zm29.7144-90.7448c3.3288.5064 7.2432 3.0432 10.2728 4.5744-5.8352 3.492-11.6664 6.9344-17.6712 10.1312-3.4664-.9376-6.8168-2.7864-10.0704-4.2984q8.8128-5.0728 17.4688-10.4072Z"/>
  <path fill="#F9827A" d="M285.6416 208.4624c4.0648.0248 7.988.3096 12.024.7456q2.3048 12.12 4.288 24.2968c-3.64.0832-7.2896-.3536-10.9128-.6744-2.22-7.9664-3.5848-16.2872-5.3992-24.368Zm24.0272-6.4424c1.0664-.7136 1.7528-1.5704 3.0472-1.348.3456 1.6816.5808 3.2424 1.7808 4.5528.7416 1.4832.9808 3.9296.4048 5.5048-.1448.3984-.256.6008-.436.9928-.5256 1.148-1.36 2.192-1.0504 3.4296.9176.9568 1.8376 1.4504 1.7352 2.892-.1976 2.7728-2.2952 5.5232-1.228 8.4608-3.1976 1.6168-6.1504 3.8656-9.1096 5.8816-.8496-7.7-2.6944-15.3344-4.2536-22.9176 2.3-3.0096 6.0424-5.264 9.1096-7.4488Z"/>
  <path fill="#A4C6C9" d="M333.4504 195.7968c5.0968-3.3768 9.6104-7.628 14.8296-10.784 1.036 6.4992 2.6672 13.4456 2.8768 20.0168-5.1264 2.776-10.556 5.2944-15.4952 8.3672-.3392-5.8864-2.2176-11.6656-2.2112-17.6Zm-25.3872-75.8528c3.6992 1.32 6.7208 3.8024 10.6608 4.588 2.9272 21.2208 6.4888 42.5528 9.9912 63.692-2.8488-1.4104-5.6728-2.5544-8.7792-3.2424-4.596-21.5408-8.0872-43.3416-11.8728-65.0376Z"/>
  <path fill="#F9827A" d="M268.484 98.3816c3.8512 1.5432 7.6104 3.1032 11.2928 5.0288 3.9424 13.828 5.4888 30.216 7.9544 44.48 2.712 15.6912 6.58 31.1136 8.3896 46.9608-3.7624.2008-7.4392-.1352-11.1832-.4544-1.6384-12.168-4.1256-24.3336-6.2008-36.4456L268.484 98.3816Z"/>
  <path fill="#A4C6C9" d="m338.2424 114.4656.2552.0128c.2512.1904.5848.3056.7528.572 1.7664 2.804 5.8472 49.86 7.4896 58.5304-3.1552 2.6664-11.6328 11.2848-15.1384 11.7752-3.7696-20.1072-5.7416-40.652-9.6696-60.7984 5.3352-3.4984 10.8776-6.7408 16.3104-10.092Z"/>
  <path fill="#F9827A" d="m299.3392 92.9688.7448.268c2.128 4.9088 2.2504 13.6712 3.2312 19.2136 4.0936 23.1448 8.0656 46.3704 12.508 69.4464-5.7928 2.6888-11.292 7.0976-16.556 10.7456-2.56-7.22-2.9368-16.3776-4.2888-23.9544-2.024-11.3384-4.4656-22.6008-6.484-33.9408-1.9008-10.6768-3.3272-21.5632-5.8536-32.1096q8.204-5.0856 16.6984-9.6688Z"/>
  <path fill="#3C3C68" d="M629.3456 703.4216c.1256-5.6448.64-11.6544.1688-17.2656-.3064-3.6448-1.5312-7.2368-1.756-10.872-.5064-8.168 4.6856-16.3064 10.372-21.716 17.3352-16.492 47.7144-22.5224 71.0208-21.776 22.2208.712 49.3352 6.2432 64.9672 23.1168 8.3952 9.0608 8.8664 16.7944 8.7256 28.6392-.0592 4.9552-.0208 9.948-.2616 14.8952-.3456 7.1008-3.7832 13.116-9.02 17.796-19.2224 17.1792-51.7112 20.3936-76.3576 18.8576-14.8624-.9272-30.3184-3.82-43.6488-10.6872-6.4888 2.3888-11.3448 6.564-18.4768 7.0352-.0656.0688-.1208.1488-.196.2072-5.4064 4.1848-20.1888 10.8624-27.0664 14.4872l-40.1632 20.9872c-6.836 3.568-13.6048 7.5016-20.608 10.7216-1.5792.7264-2.8064 1.008-4.5512.96q-.6432-.0216-1.2808-.1096t-1.2624-.2424q-.6256-.1544-1.2312-.3728-.6048-.2184-1.1848-.4992-.5792-.2808-1.1264-.62-.5464-.3392-1.0552-.7336-.5088-.3952-.9736-.8408-.464-.4456-.88-.9368c-2.1248-2.4864-3.3152-6.0688-2.94-9.336.2432-2.1176 1.1872-4.0368 2.7648-5.4696 5.7832-5.256 19.6168-11.3672 27.0104-15.2992q22.468-12.1904 45.1768-23.9256c5.3648-2.7296 14.7352-6.4552 19.1-10.0032l-.0696-.752c-.1304-1.5344-.3264-2.5424.5504-3.8656 1.324-1.0168 2.7536-1.6736 4.2528-2.38Z"/>
  <path fill="#A4C6C9" d="M632.6432 689.456c2.1024 1.3848 5.9496 4.2272 6.5072 6.6864l-1.3912 1.1424-5.2328 3.44c-.0776-3.7592.0256-7.5112.1168-11.2688Z"/>
  <path fill="#F3F4EF" d="M643.2464 697.2912c3.6464 1.0416 6.6304 3.9312 9.5344 6.2728q-5.68 2.9952-11.2456 6.196l-1.188.1648-7.568-6.0488 10.4672-6.5848Z"/>
  <path fill="#A4C6C9" d="M630.8592 706.0432c5.832 3.68 6.9008 5.472 9.34 11.9576 1.256-.9704.7536-1.9032 1.2824-3.2592.9928-2.5488 7.2976-5.7312 9.84-6.1296l.6016.5072.1504 1.8408.108 10.0744c-4.5704 2.512-9.2048 4.9496-13.7112 7.5728.2024-2.8008.5016-5.6456-.0288-8.424-.7088-3.716-2.124-7.8408-5.4456-9.9824-2.404-1.5496-4.0448-1.5576-6.784-.9848l4.6472-3.1728Zm133.6616-5.8208c1.3232 1.5152.6584 15.5704.5952 18.3872-4.6616 2.6488-9.5384 4.7992-14.4936 6.8264-1.5464-2.1912-.6744-14.248-.6224-17.6768 5.1152-1.9504 9.8064-4.7896 14.5208-7.5368Zm-109.464 3.7896c25.016 11.856 54.7488 13.2072 81.4424 7.2744l.0376 17.9784c-23.8 5.2976-59.7928 4.552-81.1576-8.172-.0088-5.7032-.0576-11.384-.3224-17.0808Z"/>
  <path fill="#F3F4EF" d="M694.7736 635.3576c.2072-.036.412-.084.6208-.1072 21.3432-2.36 54.4264 3.404 71.256 17.0648 6.164 5.004 11.8856 12.0448 12.6352 20.2336.572 6.2488-2.1048 11.9376-6.0408 16.6376-13.3136 15.8968-37.4904 20.1984-57.1224 21.8696-22.9896.7792-44.74-1.708-65.2024-13.0504-3.3696-1.868-6.9904-3.7464-10.0032-6.1552-4.9608-3.9672-9.3-9.3264-9.9096-15.86-.5512-5.9096 1.7936-11.4992 5.508-15.9856 13.388-16.168 38.0168-22.8608 58.2584-24.6472Z"/>
  <path fill="#3C3C68" d="M702.2784 639.8824c19.4936.4616 43.1408 3.2768 57.8504 17.3528 4.6776 4.4768 8.0888 10.224 8.1824 16.8408.0848 6.028-2.5288 11.6408-6.7264 15.8824-12.2296 12.3576-35.3584 16.0656-52.2024 16.28-19.9408.2832-43.9624-3.308-59.3168-17.056-4.376-3.9184-7.428-9.072-7.7256-15.032-.304-6.0952 2.2448-11.5704 6.3128-15.9928 12.7216-13.8296 35.6592-17.536 53.6256-18.2752Z"/>
  <path fill="#F3F4EF" d="M698.3656 643.8752c7.4776-.7728 15.2776.1776 22.7112 1.0024.0608 3.0856.968 6.6656-.0392 9.5784-1.324 1.0056-2.0336.6816-3.6592.6096-8.2976-.7728-16.5-.9496-24.832-.9192.0368-2.832-.8816-6.7328.5408-9.2064 1.764-1.1176 3.2328-.9352 5.2784-1.0648Zm45.8344 52.712c-15.6744 6.7864-35.3728 7.8136-52.1968 5.5792-12.296-1.6328-34.4968-7.4032-41.7912-17.5392-1.3568-1.8864-2.0104-4.032-1.552-6.3448.8712-4.4 5.2272-8.028 8.7832-10.3824 18.032-11.9344 46.7104-12.7848 67.4776-8.5904 13.9512 2.8184 30.8512 9.136 38.9376 21.412-1.2384 2.3056-2.6568 4.3792-4.1872 6.4984-4.8312 4.9816-8.9848 7.0144-15.4712 9.3672Z"/>
  <path fill="#F9827A" d="M689.4152 668.2592c6.4488-2.0912 12.5296-4.7312 18.6528-7.6208q14.3048 7.536 28.8808 14.5328c7.7048 3.7312 15.624 7.22 22.7224 12.0488-4.8312 4.9816-8.9848 7.0144-15.4712 9.3672-18.3912-8.7848-37.1624-18.0616-54.7848-28.328Z"/>
  <path fill="#3C3C68" d="M821.864 672.3792q.152-10.6296.032-21.2592c-.032-3.5544-.384-7.4216-.024-10.936.128-1.2432.216-1.984 1.12-2.844 4.592-4.3696 17.688-10.1312 23.696-13.3032 6.832-3.6112 66.864-36.0328 68.56-38.1448 3.912.9104 44.112 22.1008 44.984 23.428.464.9696.68 1.7016.72 2.776.608 15.0704-.208 30.4104-.224 45.5112-.008 9.6048 1.376 54.108-.312 59.5672.08.2496.168.496.232.7488.56 2.1784.768 5.776-.32 7.792-1.232 1.2888-2.784 1.9768-4.336 2.8128-19.664 10.6008-39.728 20.436-59.488 30.848-7.312 3.8504-22.632 13.6016-29.472 15.44-2.248-2.1648-41.936-21.4912-45.92-22.7 1.928-3.5856.856-70.5472.752-79.7368Z"/>
  <path fill="#A4C6C9" d="M954.84 616.3976c1.128-.1384 1.36-.3176 2.312.272l.2 1.8168c-.64 1.2712-1.496 1.9048-2.672 2.664-6.456 4.148-13.672 7.2768-20.384 11.0088l-59.04 32.1472c1.392 3.0232-.336 87.9512.528 101.18-.712 1.412-1.2 1.3616-2.616 1.96l-.672-.0048c-1.016-2.3984-.2-13.8624-.192-17.4096.048-10.92 1.552-84.2264-.92-88.852 3.824-1.0568 80.856-42.5408 83.456-44.7824Z"/>
  <path fill="#F3F4EF" d="M831.4 636.112c6.72-2.7888 13.352-6.9336 19.792-10.3592q24.464-13.0392 48.568-26.7328c4.688-2.6176 9.288-5.9064 14.096-8.2024 1.04-.496 1.8-.7424 2.944-.7816l1.12 1.084c2.808.0696 8.576 3.0984 10.68 5.0664.368.344.376.392.6.7592-.112.148-.224.3008-.344.4456-1.816 2.236-10.656 6.1464-13.656 7.8024l-52.56 28.8776c-4.768 2.6768-9.92 4.9152-14.552 7.784-1.32.8184-2.456 1.6632-3.2 3.0472l.304.8312c2.456.7016 5.256-.6856 7.392-1.86l60.624-33.6664c6.856-3.7568 14.768-7.0248 21.288-10.8568 2.576 1.356 6.896 2.9888 8.776 5.1576-.152.1392-.304.2808-.456.416-2.624 2.3056-13.504 6.7-17.208 8.5656-16.392 8.2464-32.448 17.3288-48.496 26.2032-6.352 3.5104-15.168 6.624-20.352 11.64l.024.8712c1.248.7696 1.552.7824 2.952.8496 8.392-3.7936 16.296-8.9808 24.416-13.3472q25.248-13.7504 50.864-26.8016c3.32-1.724 9.424-4.0112 11.856-6.6568 2.504.9656 7.928 3.064 9.392 5.2152-6.656 6.0968-31.896 16.4536-41.712 21.6752l-36.184 19.4712c-3.752 1.9792-7.992 4.9096-11.904 6.3096-3.128-2.4728-36.104-18.9376-40.448-20.3336 1.904-.6864 3.704-1.2976 5.384-2.4736Z"/>
  <path fill="#3C3C68" d="M833.792 637.5728c4.008-.7416 8.328-3.6288 11.904-5.5688 6.944-3.7712 14.088-7.4232 20.816-11.5696 4.368-2.6896 8.464-5.8248 12.904-8.3952 7.192-4.1608 14.72-7.756 21.936-11.8792 4.744-2.7072 11.232-7.616 16.504-8.4944l.88 1.0608c-.552 1.2528-1.856 1.9808-2.992 2.668-11.424 6.9192-23.616 12.6448-35.168 19.3632-10.544 6.1312-20.928 12.3656-31.6 18.2904-4.12 2.2832-8.376 5.112-12.72 6.8352-.728.288-1.28.3288-2.048.2912l-.864-1.0792c.08-.652.112-.944.448-1.5224Z"/>
  <path fill="#F9827A" d="M824.88 642.8408c.2-.0112.408-.0296.616-.0328 1.968-.0336 39.688 18.3144 42.08 20.6832 1.168 3.2248 1.328 103.04-.28 106.952-3.848-.4552-34.36-18.0992-42.328-20.9448 1.064-2.3968 1.392-101.9936-.088-106.6576Z"/>
  <path fill="#F3F4EF" d="M955.448 624.4008c.92.1552.472-.0096 1.336.548 1.176 8.524.176 24.1712.176 33.4544 0 20.7464.52 41.5632.176 62.2992-.016.9288-.256 1.6184-.576 2.4744-.968 1.4272-71.2 38.5216-77.496 40.192-.296-23.6896.248-47.4584.296-71.1552.008-6.3488.976-20.7736-.448-26.2936 2.904-.9488 6.008-3.2152 8.704-4.7176l18.056-9.9168 33.72-17.9504c5.248-2.8112 11.216-5.4968 16.056-8.9344Z"/>
  <path fill="#3C3C68" d="M946.864 637.9032c.728-.156 1.328-.1784 2.072-.1512.264.3624.32.3888.488.8848.192.5456.336 71.324.056 77.5792-.04 1.0216-.232 1.724-.592 2.668-1.384 1.4968-55.848 29.7256-61.544 31.868l-.112.0256c-.904-.5704-.776-.708-.904-1.7272-.768-6.0976-.208-12.9104-.216-19.0768l.008-41.9728c0-4.712.968-14.1472-.704-18.1736 3.88-1.272 7.656-3.6432 11.272-5.524l20.44-10.6464 19.672-10.2632c3.288-1.7216 7.056-3.3224 10.064-5.4904Z"/>
  <path fill="#A4C6C9" d="M944.264 642.904c.744-.0728 1.328.0152 2.056.16.888 10.5816.112 21.5152.192 32.1504.096 12.908 1.048 26.296.24 39.1568-.056.9056-.288 1.4616-.688 2.2552-2.184 2.4368-49.2 26.5144-55.968 29.184l-.688.2128c-1.264-3.5216-.344-10.144-.336-14.092.016-8.6512 1.08-56.7912-.584-60.1552 2.976-.9416 54.216-27.6016 55.776-28.872Z"/>
  <path fill="#3C3C68" d="M201.4832 94.4184c5.2328 1.6536 52.6496 25.8176 55.1144 28.5112 1.2384 1.3536 1.2168 5.032 1.3056 6.8384.3744 7.6584.1304 15.4448.1512 23.12l.2072 38.2696c.1536 29.4264.8592 59.112-.0992 88.5128-8.9456 6.6712-20.5824 11.4648-30.4064 16.832-15.0936 8.2456-30.2344 16.1736-45.4656 24.1424-8.7872 4.5976-17.6336 9.7808-26.8304 13.476-4.348-3.108-9.092-5.5432-13.7848-8.0792l-65.1664-33.5504c-.5935-43.9456.7298-87.9272-.0611-131.8768 7.7363-3.7496 15.1683-8.1504 22.7803-12.1504l47.1608-24.692c18.3136-9.7104 37.3032-18.7056 55.0944-29.3536Z"/>
  <path fill="#F3F4EF" d="M201.2032 105.0832c3.8512.2056 30.772 15.7728 37.2 19.0072q-5.016 2.5792-10.1008 5.0216c-9.0304-4.188-17.336-10.0296-26.4288-14.192-24.236 12.348-48.1744 25.3568-72.2112 38.0952q-14.0952 7.8056-28.4672 15.0904c-3.3312-1.9648-6.8-3.748-10.192-5.6088q55.4224-28.0872 110.2-57.4136Z"/>
  <path fill="#F3F4EF" d="M202.3112 118.5296c7.588 4.148 15.016 8.404 22.76 12.2832-25.216 12.5896-49.6288 26.9952-75.0664 39.16q.3176 12.4864.3576 24.9768l-14.6176-7.9888c-10.32-5.6792-20.5624-11.908-31.2208-16.9072 9.236-3.8088 17.7536-9.3416 26.5976-13.9584 23.7832-12.4168 47.332-25.2864 71.1896-37.5656ZM80.204 165.9184c16.0576 8.4016 31.864 17.3384 47.8 25.9728 7.3504 3.9824 14.864 8.696 22.6144 11.7992l.0056 122.8696c-10.02-5.3632-20.2296-10.3512-30.2968-15.624-13.2104-6.9184-26.352-14.0864-39.8752-20.3784-.2608-41.5144-.6394-83.1296-.248-124.6392Z"/>
  <path fill="#F3F4EF" d="M243.924 135.9608c.4032.0904.5872.3256.8912.592.5336 5.4296.1184 11.1752.128 16.6416l.1072 33.6328.2048 54.5568c.0344 11.1168.2936 22.2464-.128 33.3584-25.3456 13.3224-51.2024 25.828-76.1472 39.8984l-.4192.1352-.6456-.4192c-1.4072-5.0568-.4512-31.824-.4504-39.0872l-.1776-98.0992c25.024-14.5928 51.636-26.5672 76.6368-41.2096Z"/>
  <path fill="#3C3C68" d="M236.3536 211.5184c.3056.6856.38 1.5648.5248 2.3048-.1424.3944-.1808.8432-.4256 1.1824-1.8736 2.596-51.8528 27.3848-59.8088 32.1056-.7864-1.0432-.6248-1.5376-.6544-2.8184.2616-.4064.4384-.8832.7856-1.22 1.6192-1.5656 12.04-6.284 14.7664-7.7192l44.812-23.8352Z"/>
  <path fill="#F9827A" d="m236.2584 155.0008.4704.3888c.7336 2.9.1816 6.7688.1152 9.7832-19.2152 11.5072-40.4656 19.7968-59.644 31.4224l-.4128-.3096c-1.0128-2.6448-.3656-7.3528-.3472-10.2504 9.9576-4.888 19.7272-10.1464 29.5984-15.2056 10.1096-5.1808 20.3632-10.1792 30.22-15.8288ZM211.8632 238.6c2.888-.2256 5.6752-.0656 8.56.1296 2.6992 1.7816 4.7024 4.1696 5.9528 7.1544 2.8448 6.7928.9352 15.504-1.8672 22.0024-4.408 10.224-12.4632 17.8352-22.7704 21.9016-3.3632.512-6.5256.2304-9.5416-1.4464-2.82-1.5672-4.4832-4.272-5.3264-7.32-2.2944-8.292.8104-18.616 5.0448-25.7928 4.3952-7.4496 11.4056-14.3656 19.948-16.6288Z"/>
  <path fill="#F3F4EF" d="M211.592 243.6456c2.2392-.2448 4.252-.5256 6.3624.4816 2.4088 1.1496 4.0128 3.1224 4.7904 5.656 2.1112 6.8808-.512 14.7704-3.9456 20.7528-3.7848 6.5952-8.5688 11.092-15.9632 13.0624-1.8944.044-3.7632.0168-5.5408-.7232-2.4272-1.0104-4.4232-2.7536-5.3864-5.2312-1.8168-4.672-.4128-10.8536 1.4216-15.3296 3.6224-8.8344 9.4792-14.9984 18.2616-18.6688Z"/>
  <path fill="#3C3C68" d="M210.8912 250.116c.9256.0776 1.944.2304 2.832.5008 1.7944.5456 3.4544 2.08 4.1672 3.804 1.4576 3.5256-.1472 8.5992-1.7064 11.9032-2.4872 5.2696-6.1584 8.964-11.6704 10.9432-1.6032-.1208-3.224-.4016-4.6016-1.2896-1.7176-1.1064-2.8416-2.7624-3.2688-4.7568-.9176-4.2872 1.184-9.4328 3.4512-13.0104 2.6728-4.216 5.8608-6.9704 10.7968-8.0944Z"/>
  <path fill="#F9827A" d="m235.5136 173.9336.6784.1728c1.6992 2.524.7904 22.0576.7728 26.292-7.2568 4.312-15.2536 7.8416-22.7792 11.7176-12.3376 6.3536-24.4304 12.924-36.9984 18.844l-.4512-.0248c-1.38-2.044-.5808-21.8496-.5624-25.6384 18.936-11.7456 39.8776-20.4656 59.34-31.3632Z"/>
  <path fill="#3C3C68" d="M473.1584 483.7824c6.1832-.892 13.6512-.5544 19.5584 1.6544 6.9376 2.5936 13.6424 6.7016 20.1648 10.2208q17.0832 9.344 34.316 18.4088l75.8352 39.7456c13.884 7.2904 28.0816 14.1728 41.672 21.9928 3.5544 2.0456 7.8072 3.6088 8.8368 7.9376.8088 3.3976 1.1952 11.3376-.7768 14.2616-1.788 2.6504-5.0896 4.7232-7.8528 6.232-18.9464 10.3456-38.5608 19.484-57.664 29.5144q-90.2648 48.1264-181.2416 94.8904-36.7736 19.5928-73.9824 38.3456c-10.3736 5.316-20.9848 12.8632-32.38 15.5384-3.1656.1648-6.2528.3224-9.3944-.1832-7.8424-1.2632-53.1472-26.4616-63.0512-31.6416l-74.8928-38.6768c-15.668-8.0848-32.2128-15.2224-47.4792-23.9912-2.7568-1.5832-4.4088-3.2912-6.2496-5.8416-.0112-4.3312.06-8.6184.3096-12.944q.2504-.3776.5176-.744c2.0648-2.8088 5.0296-4.8688 8.0384-6.5544 9.9696-5.5872 20.3168-10.6352 30.448-15.9304l56.1536-29.3832 124.6976-65.5336 83.8856-44.316c12.1872-6.4024 24.256-13.5168 36.7664-19.24 4.436-2.0304 8.9616-3.036 13.7648-3.7624Z"/>
  <path fill="#F3F4EF" d="m670.4144 590.568.5056.5136c.2536 1.6208.444 3.972-.604 5.3616-1.588 2.1064-5.0408 4.0208-7.3392 5.2408L434.2384 720.4944l-70.4936 36.5448c-10.592 5.4888-34.832 19.7264-45.0008 21.7664-4.4416.892-9.1568-.292-13.2672-2-5.7648-2.3952-11.3104-5.5992-16.8384-8.5008l-29.1848-15.408c-22.3592-11.7752-45.0664-22.9152-67.4816-34.5976-13.1568-6.8568-26.32-13.7864-39.5872-20.424-9.9608-4.9832-20.6128-9.5024-29.9016-15.68-.4168-.8688-.6672-2.0712-.6616-3.0328.0072-1.1384.1-1.1824.8664-1.9432 3.7536.1048 138.3512 70.888 154.2472 79.0392 8.6728 4.4472 26.5128 15.6472 34.9 16.9768 5.452.864 10.1904-.4856 15.1312-2.7232 8.0744-3.6568 15.8904-8.3024 23.7456-12.4264l42.5128-22.1232 133.0296-69.3408 97.6736-51.3744 28.9048-14.9648c5.8536-3.0248 12.2688-5.8256 17.5816-9.7144Z"/>
  <path fill="#F3F4EF" d="M475.3272 486.8072c2.0984-.2688 4.4584-.2856 6.5704-.1856 4.8688.2312 9.2592 1.6656 13.6656 3.6792 7.5936 3.4712 14.8384 7.916 22.2248 11.8192l45.352 23.8432 60.7792 32.0848c13.0808 6.8216 26.4912 13.252 39.3352 20.496 2.7 1.5224 5.6288 3.1648 7.7136 5.4952-.036.6056-.0032.6928-.248 1.336-.7888 2.0736-4.196 4.0856-6.0632 5.2-10.7752 6.4312-22.6264 11.6512-33.7776 17.4656q-38.3312 19.5504-76.1976 39.988c-53.2224 28.4584-107.0608 55.8072-160.5696 83.7184q-23.516 12.5048-47.2592 24.5728c-9.0616 4.6792-18.5488 10.6696-28.3168 13.4952q-1.1416.088-2.2856.1112c-3.7728.0648-7.1-1.1136-10.4976-2.6448-8.5328-3.8472-16.8424-8.784-25.1392-13.1472l-42.2496-21.8752-80.652-41.6464c-6.7128-3.4544-31.0808-14.6992-35.5184-18.9736.1288-.76.2376-1.3984.7016-2.0368 2.3968-3.2952 11.9936-7.72 15.9168-9.8424 7.2392-3.9168 14.6984-7.4624 21.9976-11.2752l58.252-30.5192 124.4584-65.336 82.9504-44.1352c10.4456-5.492 20.8344-11.3424 31.4696-16.4504 5.7232-2.748 11.0808-4.5328 17.3872-5.2368Z"/>
  <path fill="#F9827A" d="M326.6688 684.1408c1.5544-1.2912 2.8984-1.9576 4.8248-2.5528 3.8272 2.3608 7.7968 5.0392 8.9296 9.72.744 3.0744-.0704 6.1856-1.7432 8.8088-3.132 4.9136-8.3584 7.6008-13.3192 10.2912-2.1496-.9448-3.56-2.0424-5.2816-3.5984 2.4072-2.8656 7.5584-4.5376 10.5216-8.1064 1.432-1.7256 2.6016-4.0888 2.272-6.3944-.4872-3.4144-3.592-6.2264-6.204-8.168Zm-13.2424 27.64c-5.5272 2.7984-14.964 2.0944-20.928 1.4112-9.6224-1.1008-20.6944-4.6424-26.8608-12.6104-1.9824-2.5616-2.188-5.8424-1.6872-8.9672.2424-1.512.6272-2.5816 1.896-3.5064l5.1416 1.6816c.2072 3.1248.2536 5.4776 2.2872 8.0424 4.8368 6.1 13.3016 8.9016 20.7776 9.7224 5.1032.56 13.7264.9416 18.004-2.4552l1.3696 6.6816Z"/>
  <path fill="#3C3C68" d="M266.4504 681.7976c.1136-.1312.2216-.268.3416-.3936 7.6936-8.0504 27.9952-11.312 38.7112-10.8896 6.468.2552 18.3256.7864 22.9832 5.836-2.3216 1.9592-4.8048 3.6288-7.3224 5.324-1.0168-1.7904-1.9264-2.1976-3.848-2.7328-10.8368-3.016-27.328-2.3664-37.2504 3.364-1.5744.9088-3.4024 2.2264-3.836 4.1032-.1216.5272-.1688 1.0664-.216 1.604-2.5768-2.6624-6.428-4.2344-9.5632-6.2152Z"/>
  <path fill="#F9827A" d="M566.7184 549.5816c4.1816 2.7224 8.9984 4.8072 13.4408 7.0856q11.508 5.8728 22.884 11.996c-10.4544 4.2936-21.1184 11.1352-31.1352 16.5392-11.788-6.4328-23.4376-13.4032-35.7128-18.8608q15.6016-7.7608 30.5232-16.76Zm-43.188 24.4816c4.1304.9456 29.8896 15.0504 35.6184 18.1288-10.3416 4.3688-20.5368 11.064-30.3936 16.528-.6328.372-1.0232.6552-1.7848.656-1.1768.0008-7.3224-4.0928-9.0616-5.032-4.632-2.5008-19.8608-8.8144-22.5024-11.8728-.7328-.848-.5824-1.1928-.5224-2.2464 3.0792-4.6328 22.8872-13.2264 28.6464-16.1616Z"/>
  <path fill="#3C3C68" d="M537.3856 534.0592c.6832-.0568 1.3512-.1144 2.0272.036 1.7368.3856 12.5048 5.8968 14.1288 6.9608.9024.5912 1.3816 1.2176 1.932 2.1304.0264.616.2304 1.3352-.14 1.8648-1.4152 2.0272-70.808 39.2352-77.0024 41.0136-.8584-.16-1.7184-.3592-2.5248-.7024-3.452-1.4696-15.1-6.576-16.392-9.772.7856-1.1728 1.812-1.7688 3.0152-2.4488 9.0704-5.124 18.804-9.404 28.0264-14.312 15.5728-8.2888 30.9784-17.2352 46.9296-24.7704Zm-45.0904 104.6736c.9856-.0256 1.9208.0288 2.8856.2568 5.128 1.2096 22.9832 9.6424 25.4632 14.0056.8456 1.4872.7264 2.432.2288 4.012-3.3056 4.0072-54.616 29.8072-63.092 33.28-1.9424.796-3.7992 1.2568-5.8784 1.5344-2.8712-.5144-5.3712-1.188-8.0248-2.3896-3.6928-1.672-20.784-9.9568-21.996-13.1424 3.8-5.0296 62.6704-35.1072 70.4136-37.5568Z"/>
  <path fill="#F3F4EF" d="M493.2728 641.208c5.2624 1.252 21.0688 9.3056 24.6168 13.3072l-.268 1.024c-1.2688 1.368-2.6664 2.3448-4.2704 3.268-8.3256 4.7928-17.3464 8.8536-25.8944 13.2776-9.6224 4.9792-19.208 10.5432-29.1144 14.9024-2.1736.9568-4.1544 1.612-6.5168 1.9-8.9168-.876-18.0608-7.9872-25.9808-12.012 10.3776-7.528 22.7248-13.188 34.076-19.1688 10.644-5.6088 22.076-12.3816 33.352-16.4984Z"/>
  <path fill="#F9827A" d="M402.9488 607.5552c.74.0536 1.4744.1456 2.192.3424 5.8056 1.5896 12.2936 6.1544 17.6984 8.9648q14.0936 7.22 28.0112 14.7744c2.6736 1.4536 5.556 2.6552 8.1568 4.2168.8656.5192 1.8472 1.1648 2.2896 2.1104.3336.712.1304.8016-.1016 1.492-6.4552 5.0896-26.1912 14.1976-34.5064 18.3688-8.6832 4.356-17.22 9.1912-26.1024 13.12-1.4376.0624-2.6072-.0344-3.9584-.5584-8.3504-3.2368-21.8096-11.3064-30.088-15.8008-8.3416-4.5296-17.2568-8.4384-25.0856-13.8312 9.1168-6.908 21.1216-11.7856 31.3072-17.064 10.1312-5.2504 20.0016-11.0008 30.1872-16.1352Z"/>
  <path fill="#3C3C68" d="M448.0208 217.632c2.7088-.0944 5.1968-.0784 7.8112.7648 3.776 1.2168 6.8496 3.396 8.6336 7.0296 1.0872 2.2144.88 5.6336.9392 8.0968.3776 15.544.0872 31.1512.0824 46.7016l.0152 83.6688c.0064 12.388 1.4088 95.612-.996 102.1208q-.3256.8928-.7216 1.7568-.396.864-.86 1.6928-.464.8296-.9936 1.6192-.5288.7888-1.1192 1.5336-.5904.7448-1.2392 1.4392-.648.6944-1.3504 1.3352-.7016.6408-1.4528 1.2224-.7512.5824-1.5464 1.1024c-3.8504 2.5672-8.3296 4.428-12.4352 6.5688l-26.5296 13.9672q-46.9072 25.156-94.0696 49.828l-130.4904 68.5816-47.2232 24.6888c-7.6584 3.952-15.2272 8.2136-23.0736 11.7752q-2.0776-.576-4.0632-1.4144c-4.2096-1.772-11.7368-4.6904-13.3024-9.3512-1.4408-4.2888-.2216-84.48-.2288-96.8064l-.248-93.0768c-.004-14.3464-.5824-28.9952.0856-43.3144q.056-1.328.2808-2.6384.2248-1.3104.6152-2.5816.3896-1.2704.9392-2.4816.5488-1.2104 1.2472-2.3416c2.3664-3.8792 5.272-6.9024 9.1976-9.184 7.1008-4.1288 14.6072-7.7216 21.904-11.4976l41.6896-21.492 124.912-65.2304q50.6064-26.8144 101.5088-53.0592c10.6624-5.5496 31.4656-18.4216 42.0816-21.024Z"/>
  <path fill="#F3F4EF" d="M452.4048 228.0016c.9216.204 1.3496.5144 1.832 1.36.944 1.6576.8032 4.6824.844 6.5544.316 14.4152-.064 28.9048-.1056 43.3312l-.0536 76.1464-.028 67.3064c.0136 11.4736.4208 23.0456.0664 34.5048-.096 3.112-.484 6.5184-1.616 9.4448-.9232 2.3856-16.0808 9.5816-18.9408 11.044q-72.4344 37.3208-144.0968 76.1072L213.304 594.104c-22.7224 11.9392-45.1616 24.496-68.0224 36.156-8.1032 4.1328-16.1744 8.8208-24.6048 12.2336-.5744.0312-.848-.1768-1.3536-.424-1.2112-2.976-.3672-42.3408-.36-49.0192l-.0272-143.2384c.012-8.2936-1.24-37.156.436-43.1904 1.056-3.8056 3.456-6.3816 6.7024-8.4208 8.5592-5.3784 18.2672-9.5984 27.2728-14.2392q30.4608-15.4632 60.7456-31.2688l238.312-124.6912Z"/>
  <path fill="#839BA2" d="M170.4032 454.8584c.7184-.792 1.1416-1.6176 2.2928-1.7032 2.7792-.2064 10.388 2.6416 12.2432 4.7016.0944.104.1632.2288.2448.3424l-1.5088 1.1336c-1.3352-.6912-2.7496-1.2976-4.14-1.872-2.42-.9992-5.1232-2.3656-7.6328-1.3176l-1.4992-1.2848Z"/>
  <path fill="#CF4543" d="M223.912 418.2656c3.4432.2432 4.8744 1.1888 7.12 3.7304 1.5072 1.7056 2.8584 3.5728 4.432 5.2136-.88.5048-1.8088.9744-2.6264 1.5744-2.5544-2.744-5.2904-6.6904-8.9768-7.5208l.0512-2.9976Z"/>
  <path fill="#A4C6C9" d="M171.9024 456.1432c-.692 2.5672-10.4168 16.5552-12.5104 18.3736l-.5944-.1416c.7112-5.5704 8.2336-14.8 11.6056-19.5168l1.4992 1.2848Z"/>
  <path fill="#F9827A" d="M237.7472 434.2672c1.0064-.5656 1.9792-1.1376 2.9304-1.7928 4.628 3.5376 7.6192 8.8192 12.4168 12.2056-.2656 1.576-.4576 1.8464-1.4016 3.0488-4.6016-4.2976-8.6376-10.1392-13.9456-13.4616Z"/>
  <path fill="#EFBCAA" d="m274.7304 439.3096.3712.2648c.9232 1.5664.8088 2.948 1.452 4.4208-1.4816 2.804-2.9464 5.6112-4.5832 8.3288-2.104 2.4824-4.5984 3.9544-7.44 5.4504l-.4216-.2608c-4.3952-2.6688-6.9408-5.9184-10.0648-9.9056l.7792-1.8608c2.9616 3.2808 5.7456 6.7376 9.352 9.3312 2.5688-1.3232 4.856-2.5112 6.6984-4.82 1.1704-3.828 3.2488-6.7888 3.8568-10.9488Z"/>
  <path fill="#F9827A" d="M292.9008 419.3248c2.5688.4648 5.9824 3.868 7.4072 6.0072.8744 1.3112 1.38 2.4096 1.4928 3.9808l-1.0088.5064c-2.8024-1.6104-5.9792-5.2656-7.8808-7.8992-2.2096 3.012-14.2568 18.0824-14.656 19.4352 1.204 5.2232 4.96 10.1056 7.524 14.768 2.7792-1.676 11.2848-7.8504 14.0512-7.3888-.7096 2.6392-11.6736 8.8168-14.7184 10.6376-2.8328-5.1328-5.6048-10.3136-8.5584-15.3768-.6432-1.4728-.5288-2.8544-1.452-4.4208.9104-.296 1.2104-.7816 1.7792-1.5224 3.8344-4.252 11.772-16.5608 16.02-18.7272Z"/>
  <defs>
    <linearGradient id="a" x1="197.6828" x2="208.1944" y1="651.6437" y2="653.0844" gradientUnits="userSpaceOnUse">
      <stop offset="0" stop-color="#AF484D"/>
      <stop offset="1" stop-color="#DC5D51"/>
    </linearGradient>
  </defs>
  <path fill="url(#a)" d="M213.603 618.799c.87-.916 1.306-2.091 1.828-3.225l.662 1.473c-2.03 5.455-2.878 11.272-4.022 16.961-2.793 13.896-6.139 26.898-13.39 39.281-1.697 2.898-3.378 6.446-5.904 8.669-.768-1.456-.987-1.583-.719-3.178 3.591-7.799 8.743-14.906 11.466-23.085 3.929-11.798 4.873-23.924 9.819-35.509-6.659 10.429-9.409 16.102-20.883 22.148l-.046-3.536c9.916-4.519 13.168-11.142 18.313-20.242 1.325.435 1.571.661 2.876.243Z" transform="scale(.8)"/>
  <path fill="#3C3C68" d="m298.6696 471.9736 1.404 1.0416c-.2928 1.6256-1.3136 3.0136-2.252 4.3448-3.5032 4.968-11.1968 16.236-17.3216 17.0392-5.7192.7504-8.8232-10.9168-13.1272-13.8576-1.8904-1.2928-4.0784-1.4456-6.2552-.8984-2.3.5792-3.7672 1.9376-5.1344 3.8112-5.3248 7.2968-8.84 21.8392-14.7568 30.9152l-.3352.5064-.4648.068-.4944-.524c.3456-1.8688 12.1992-28.9952 13.6832-31.1616 1.9616-2.8648 4.76-5.6328 8.3416-6.1224 10.3776-1.4184 10.5952 10.3704 16.1648 14.1056 1.1048.7416 2.1936.9648 3.4888.6112 5.2464-1.4296 13.9304-15.1328 17.0592-19.8792Z"/>
  <path fill="#F9827A" d="M260.444 394.0304c2.3112.2088 4.9928.2504 7.1456 1.1792 6.04 2.6072 19.404 15.8472 23.8808 21.2472q.6408.7736 1.248 1.5744l-.1056.9112c-1.0248.304-1.1976.296-2.1824-.2776-6.9944-4.076-19.8664-22.9312-28.1864-20.7168-1.1792.3136-1.7408 1.3016-2.396 2.276-6.944 10.34-12.2352 21.8008-19.6664 31.9088-1.4376.6808-1.5872.8816-2.4344 2.1344-1.984-1.3664-3.4248-3.604-4.9096-5.4832.8176-.6 1.7464-1.0696 2.6264-1.5744l3.1792 3.1856c7.2464-12.1088 14.2968-24.4264 21.8008-36.3648Zm-51.3688 30.4256c.884-1.6608 1.7632-3.3256 3.228-4.5536 3.1432-2.6344 7.8144-1.8504 11.6088-1.6368l-.0512 2.9976c-3.4816-.1488-8.0072-.908-10.856 1.5688-1.0272.892-1.6576 2.0256-2.28 3.2136-2.8968 5.712-6.0832 11.2904-8.876 17.0488-2.4752 5.1048-7.3272 18.1464-10.6984 21.9536-.384.7024-.8336 1.1216-1.424 1.656-2.0192-.2728-3.5768-2.1384-5.0472-3.4584q-2.5576 7.744-5.9448 15.1624c-2.2808 4.9912-7.2616 11.2-7.852 16.6312-1.044.3344-1.2408.1536-2.3008-.1944 4.892-9.916 9.168-20.4104 13.2232-30.7l1.8704-4.812 1.5088-1.1336 5.2384 5.0736c4.016-13.7552 11.0672-26.7232 18.6528-38.8168Z"/>
  <path fill="#3C3C68" d="M161.5208 574.0824c23.524-12.656 47.508-24.5864 70.8592-37.5352l42.7992-23.3016c5.7864-3.1008 11.344-6.8416 17.336-9.5008l.4088.1888c-3.4688 2.6856-7.8488 4.688-11.6984 6.8128-8.8352 4.8784-17.7576 9.556-26.6616 14.304-8.5544 4.5616-16.8696 9.536-25.3816 14.1656-14.4976 7.884-29.188 15.472-43.812 23.1224-6.7936 3.5536-13.6912 6.996-20.2992 10.8888-1.9112 1.1264-7.7736 5.576-9.3184 5.848-.3768.0656-.7648-.0184-1.1472-.028l-.416-.8568c4.904-4.904 9.1992-9.3016 12.7528-15.3472 4.6888-7.9792 10.1912-25.7856 14.4352-31.1512 1.2032-1.5216 2.9736-2.8768 5.0008-2.828 5.9264.144 9.8888 8.3536 16.2136 2.4424 3.0816-2.8808 4.7376-7.4128 6.5056-11.1736 1.308-2.4856 2.6264-5.3624 4.5808-7.412 1.2824-1.344 3.0544-2.5064 4.9856-2.408 5.4408.2784 9.4184 8.1304 12.6112 11.7536 2.1344-.1424 4.38-1.6976 6.2648-2.6728-.9208 1.3048-.9264 1.4536-.9688 2.9592-.8336 1.208-1.7608 1.8176-3.2832 2.0096-5.1712.6528-8.1264-8.1976-11.9528-10.7472-1.2488-.832-3.0328-1.2912-4.5096-.8744-2.192.6184-3.488 3.608-4.5704 5.4264-2.6192 5.3656-5.8832 14.5592-11.9688 16.8792-2.2096.8424-4.4816.5264-6.5624-.52-2.4328-1.224-5.5728-3.9024-8.452-3.116-1.884.5144-2.82 1.84-3.6616 3.5024-6.6448 13.1208-9.8504 27.996-20.0896 39.1696Z"/>
  <path fill="#F9827A" d="m359.0176 408.8592 6.7928-.3504q-.2424 10.0728-.2512 20.1488c-6.868 1.2232-11.884 2.1368-18.6064-.3768-3.4736-1.704-5.9576-3.1408-8.264-6.3376 4.664-2.736 16.8392-12.6032 20.3288-13.084Zm46.1424-46.748.6592.5208c2.7264 9.868-.9832 21.4248-5.4448 30.2l-10.252-3.9744-4.068-1.5296c.6264-4.9584.1752-9.884-.14-14.848 6.2336-3.7408 12.7792-7.052 19.2456-10.3688Z"/>
  <path fill="#3C3C68" d="M383.2568 345.7384c2.0616-.1928 4.1008-.2472 6.1536.076 6.8408 1.076 11.4272 5.7776 15.3216 11.1344-4.6552 2.8768-9.8768 5.1976-14.7608 7.6808-2.74 1.3568-5.384 2.9912-8.0416 4.5064-3.072-1.8568-4.572-2.1576-8.1288-1.6424l-.3072-19.564c3.2576-.9448 6.4048-1.7032 9.7632-2.1912Zm.3696 46.352c5.1664 1.5416 10.1088 3.6576 15.3688 4.924-4.9232 9.288-11.3968 17.1424-19.4048 23.9408-3.1136 2.3416-6.2048 4.3384-9.7136 6.0416.204-6.8872.2224-13.7896.328-20.68 5.5888-4.3648 9.5912-8.24 13.4216-14.2264Z"/>
  <path fill="#F9827A" d="M400.8656 442.0464c.92 3.304.0256 9.1528.0584 12.6856-23.6088 12.74-48.0064 24.2704-71.3336 37.4832-.9408-3.6728-.2232-8.8552-.1832-12.7016 24.1968-11.6112 47.6136-25.1192 71.4584-37.4672Zm-34.6312-91.004.784.1272c1.264 2.036.3968 14.828.3368 18.0464-1.5784 1.3184-3.2992 2.5008-4.9096 3.788-6.2112 4.9656-11.6584 11.8248-12.4936 19.9928q-.0504.4752-.0776.9512-.0272.4768-.0312.9544t.0144.9544q.0192.4776.0608.9528.0424.476.1072.9488t.1528.9424q.088.4696.1984.9336.1104.4648.2432.9232.1328.4592.2872.9104.1552.452.3312.8952.1768.444.3744.8784.1976.4344.416.8592.2184.4248.4576.8384.2384.4128.4976.8144.2584.4016.536.7896.2776.3888.5736.7632l-17.9112 10.7616-.6976.1496-.852-.6368c-3.9792-8.6384-3.812-18.2576-1.308-27.2776 4.9176-17.72 17.3432-30.3392 32.9096-39.2608Z"/>
  <path fill="#3C3C68" d="M416.8848 281.0552c1.4328 1.4912.6264 10.6048.6088 12.988-7.5504 3.1296-14.9984 7.54-22.2832 11.2736-21.6656 11.104-43.0328 23.3008-65.0552 33.6288l-.6424-12.0296c28.8808-15.7032 58.7224-29.7816 87.372-45.8608Zm-111.1616 49.1.3224 186.9616c-12.5128 6.2072-24.6992 13.1736-37.0488 19.708-4.6232 2.4464-9.5656 5.5728-14.436 7.4392-15.668 9.3024-32.476 17.3864-48.6584 25.7824l-7.3016 3.8496c-8.8608 5.3792-18.504 9.8464-27.72 14.5984-7.3344 3.7816-14.5496 8.0032-21.9928 11.544-1.6712 1.0608-3.8352 2.4656-5.8392 2.5584-1.6504-3.472-.6344-19.4864-.7248-24.2376l.1368-109.3664-.1336-33.932c-.0184-5.572-.5088-11.6832.168-17.196.184-1.4984 1.0752-1.8544 2.1904-2.7056.9624 17.0456.3176 34.444.3328 51.5272l.2368 76.5904c-.0368 7.3352-1.1192 52.152.0816 55.388.7096.0752 1.0104.0304 1.6504-.2864l6.1928-3.3c8.8408-4.9528 17.8056-9.596 26.8016-14.2584 5.216-2.704 10.4552-5.7632 15.8896-7.9928 3.3008-1.9504 6.6376-3.712 10.0688-5.412 4.4176-3.3768 10.4608-5.8584 15.4248-8.4416l30.9208-16.1376q15.8024-8.5928 31.7416-16.9304c6.5048-3.4432 13.272-6.7416 19.3448-10.9168l.0456-129.1208.0752-33.1056c-.024-6.176-.4416-12.5768.0248-18.7224.1248-1.6344.3384-2.2096 1.4272-3.4328l-.1896.4648.968-.9168Z"/>
  <path fill="#F3F4EF" d="M210.7248 426.0456c.6224-1.188 1.2528-2.3216 2.28-3.2136 2.8488-2.4768 7.3744-1.7176 10.856-1.5688 3.6864.8304 6.4224 4.7768 8.9768 7.5208 1.4848 1.8792 2.9256 4.1168 4.9096 5.4832 5.308 3.3224 9.344 9.164 13.9456 13.4616.944-1.2024 1.136-1.4728 1.4016-3.0488 1.644-3.9336 7.9656-19.2064 10.4112-21.5072.8016-.7544 1.0408-.6416 2.0624-.5632 4.0056 3.2448 7.7224 11.136 11.3128 15.4424-.5688.7408-.8688 1.2264-1.7792 1.5224l-.3712-.2648c-.608 4.16-2.6864 7.1208-3.8568 10.9488-1.8424 2.3088-4.1296 3.4968-6.6984 4.82-3.6064-2.5936-6.3904-6.0504-9.352-9.3312l-.7792 1.8608c-3.468 7.2224-12.576 30.3744-16.936 34.0168-4.0376 3.3728-9.6776 5.5144-14.232 9.1648-2.1968-3.8112-4.36-7.5616-6.9632-11.1168-5.1928 6.3536-17.4248 28.464-23.9088 30.3576-1.68-.416-2.3432-1.6696-3.2152-3.1088-3.7864-6.2536-5.8208-13.492-9.4088-19.8416-2.9984 1.8496-4.788 3.3768-6.5056 6.5576l-.5296-1.1784c-.4176.9072-.7664 1.8472-1.4624 2.58.5904-5.4312 5.5712-11.64 7.852-16.6312q3.3872-7.4184 5.9448-15.1624c1.4704 1.32 3.028 3.1856 5.0472 3.4584.5904-.5344 1.04-.9536 1.424-1.656 3.3712-3.8072 8.2232-16.8488 10.6984-21.9536 2.7928-5.7584 5.9792-11.3368 8.876-17.0488Z"/>
  <path fill="#A4C6C9" d="m196.6096 457.032 1.5408 2.28c-.8128 2.3912-7.0248 16.2464-8.192 18.0504-.404.624-1.3096.6392-2.0056.812l-.3992-.4792c.6768-5.6832 6.2704-15.372 9.056-20.6632Z"/>
  <path fill="#CF4543" d="m196.6096 457.032 1.2568-1.3096c2.9984.4944 15.42 17.128 17.6352 20.2192q.2928.408.58.82c-.624.6048-1.0096 1.0568-1.7944 1.4304-5.6384-5.9512-10.7392-12.6832-16.1368-18.88l-1.5408-2.28Z"/>
  <path fill="#3C3C68" d="M253.0944 444.68c1.644-3.9336 7.9656-19.2064 10.4112-21.5072.8016-.7544 1.0408-.6416 2.0624-.5632 4.0056 3.2448 7.7224 11.136 11.3128 15.4424-.5688.7408-.8688 1.2264-1.7792 1.5224l-.3712-.2648c-.608 4.16-2.6864 7.1208-3.8568 10.9488-1.8424 2.3088-4.1296 3.4968-6.6984 4.82-3.6064-2.5936-6.3904-6.0504-9.352-9.3312l-.7792 1.8608c-3.468 7.2224-12.576 30.3744-16.936 34.0168-4.0376 3.3728-9.6776 5.5144-14.232 9.1648-2.1968-3.8112-4.36-7.5616-6.9632-11.1168-5.1928 6.3536-17.4248 28.464-23.9088 30.3576-1.68-.416-2.3432-1.6696-3.2152-3.1088-3.7864-6.2536-5.8208-13.492-9.4088-19.8416-2.9984 1.8496-4.788 3.3768-6.5056 6.5576l-.5296-1.1784c1.392-4.2736 4.5096-6.1544 7.6624-9.068 2.9616 5.716 7.8384 21.088 12.54 24.2248 3.4648-.5904 17.5168-24.5992 21.3424-28.9744l.3976-.4496c.7848-.3736 1.1704-.8256 1.7944-1.4304l.1856-.416.2992-.6984c4.5032-10.2352 7.336-23.8528 10.076-34.784.9792-3.908 1.6568-8.032 3.108-11.7912l.9152-.2664 1.8352 1.2808c.18 1.2456.4152 2.2976 1.5088 3.0696.8056.5688 1.7752 1.0072 2.6568 1.4384l.144.7888c-.6856.7512-1.36 1.5-2.1104 2.1888l-3.7552-4.5624c-2.0776 9.3744-9.3704 37.8752-13.6216 45.0784 2.3104 2.948 4.6432 5.876 6.784 8.952l.5448-.4344c3.2592-2.5592 7.4992-3.4424 10.5784-5.9744 6.512-5.3544 11.8432-24.6136 16.4624-32.9024.944-1.2024 1.136-1.4728 1.4016-3.0488Z"/>
  <path fill="#F3F4EF" d="M264.784 425.156c3.7224 4.336 6.54 9.5424 9.9464 14.1536-.608 4.16-2.6864 7.1208-3.8568 10.9488-1.8424 2.3088-4.1296 3.4968-6.6984 4.82-3.6064-2.5936-6.3904-6.0504-9.352-9.3312 3.76-6.4912 6.3296-13.9312 9.9608-20.5912Z"/>
  <path fill="#3C3C68" d="M537.132 29.9972c22.0184 10.1713 43.4576 22.0857 65.0592 33.1258l151.08 78.1042q53.8808 27.7224 107.4808 55.992l33.92 17.7456c5.528 2.8648 11.608 5.4424 16.832 8.7616q.88.552 1.712 1.1744.832.6224 1.608 1.3104.784.688 1.504 1.4368.72.7496 1.376 1.5552.656.8056 1.248 1.6624.584.856 1.104 1.7576.512.9024.952 1.8432.448.9408.808 1.9144c1.072 2.92 1.168 5.984 1.208 9.0616.28 21.292-.048 42.6248-.04 63.9224l.192 145.704.176 67.832c.008 8.1624 1.08 23.7552-.64 30.9896-2.872 3.9504-18.672 12.2536-23.472 12.8256-2.688.32-6.024-1.0144-8.488-2.0408-10.2-4.2568-20.144-9.9864-29.968-15.0664-18.312-9.4736-36.608-19.0752-55.08-28.2488l-4.92-2.8712c-7.0088 2.7856-13.8048 6.8832-20.4768 10.4088-17.4744 9.2328-35.004 19.4816-53.0056 27.584-27.356-13.4264-54.0416-27.9976-81.2272-41.7304q-16.7288-8.4176-33.3184-17.1032c-4.8224-2.4752-10.9528-4.832-15.3104-7.976-1.3576-.9792-1.3672-1.6-1.5576-3.1192.0656-.1776.136-.3536.1952-.5328.2656-.7992.2192-1.5672.2264-2.3984.0112-1.4816.024-2.6128 1.1608-3.7112 3.3376-3.224 56.764-30.3232 63.2144-32.9288-15.2328-7.0304-30.0336-15.384-44.864-23.2328-14.336-7.5872-28.8832-14.7888-43.2864-22.2528-11.2224-5.8152-22.5848-11.3496-33.772-17.2288-5.7736-3.0336-11.8856-5.9056-17.0816-9.88-4.7672-3.6464-7.8232-8.4128-9.8696-14.072-1.036-2.8656-1.2392-5.4192-1.3072-8.4496-.4256-19.1208.0584-38.3496.084-57.4816l.3472-132.6392-.0224-74.924c-.0144-13.3324-.9-27.2413.392-40.4884.2064-2.1234 1.3096-3.1947 2.92-4.4794 6.0544-4.8304 15.8808-8.1637 22.9072-11.8558Z"/>
  <path fill="#F3F4EF" d="M663.8168 449.0816c10.4128 3.7944 20.3136 10.3128 30.2888 15.256 32.7408 16.224 64.9656 33.5048 97.6376 49.8696-8.9056 3.7512-17.2696 8.6504-25.8448 13.076-12.9032 6.6592-26.016 13.1648-38.6552 20.3088-19.4472-10.6408-39.5512-20.2704-59.2152-30.5224-11.884-6.1952-23.8952-12.0864-35.8112-18.2024-11.0592-5.676-21.776-11.6472-33.1848-16.6384 7.0792-4.124 14.7056-7.5856 21.9968-11.3448 14.2384-7.3408 28.4144-14.7176 42.788-21.8024ZM514.0664 327.8312c1.2024.8712 2.1264 2.0968 3.4032 2.9464 8.8872 5.9136 19.568 10.2664 29.1352 15.0904q25.8984 12.9032 51.6616 26.0752L852.232 501.9528c7.528 3.9344 52.208 26.356 54.928 29.1552 1.008 1.6936 1.144 24.7232.376 27.2776-.432 1.4432-1.512 1.7584-2.712 2.5008-.104.1784-.192.3728-.32.5352-1.056 1.324-3.528 1.996-5.144 2.0384-2.768.0728-5.96-1.236-8.424-2.4416-24.088-11.8112-47.768-24.6896-71.68-36.8856q-100.8448-50.9184-201.0296-103.1144c-12.292-6.3224-92.6752-46.2824-96.96-50.8712-10.2496-10.9768-7.564-28.4336-7.2-42.316Zm8.4464-286.31c.2392.0774.4824.1426.7176.232 5.9696 2.274 11.8448 6.2778 17.5568 9.2285l37.2936 18.9387 112.5816 57.9404 137.8336 71.7136q24.984 12.7824 49.792 25.9168c7.072 3.6704 14.968 6.7288 21.72 10.9112 2.68 1.6608 5.848 5.6688 6.936 8.652 1.472 4.0384.632 36.0216.648 42.9312l.056 110.8912.184 89.896c-.056 11.5824.168 23.2552-.232 34.828-.048 1.3648-.24 2.3864-.84 3.6264-1.168-1.508-3.336-2.1408-5.04-2.8448-1.952-2.2632-15.632-8.5064-19.52-10.5752q-86.7088-45.4232-174.172-89.3744l-120.8944-61.9296-45.4944-22.8544c-8.056-4.008-17.8848-7.7792-25.0504-13.1896-1.2576-2.6384-2.1816-5.0936-2.2936-8.064-.2496-6.6504.0696-13.412.0904-20.0704l.0432-38.904.0792-108.3784.0008-68.5088c.0016-11.9618-.8672-24.6888.5312-36.5394 2.2192-2.4172 4.4584-3.4156 7.4728-4.473Z"/>
  <path fill="#3C3C68" d="M858.904 300.5c-.432-2.8208-3.592-4.6024-4.416-7.2928-.304-.972-.192-1.5928.336-2.4184 2.768-.2336 6.368.8248 8.92 1.908 2.064.3456 5.536.5456 6.944 2.2248.32.3896.36.4208.232.8696-.8 2.7912-6.624 8.412-8.992 10.3424-.928-.376-1.264-.3784-1.696-1.3448-.672-1.5064-.2-2.8992-1.328-4.2888Z"/>
  <path fill="#A4C6C9" d="M860.4 299.064c.336-1.2.048-2.368-.096-3.5928l.616-.352c1.584.5336 2.24.6208 3.376 1.8864-.264.9584-.296 1.1032-1.256 1.584-.792.4-1.76.412-2.64.4744Z"/>
  <path fill="#3C3C68" d="M562.9152 269.0312c-.472-1.0264-.8792-1.452-.6256-2.5744 2.976-1.1272 11.7744-1.7504 14.6544-.5928 1.7376 2.5992.8168 5.74.2512 8.6184-.0184.0936-.0408.1856-.0608.2784.7152 2.8776 2.624 3.8968 4.304 6.148.8576 1.1488 1.128 1.696.96 3.0784-3.1032-.0608-8.4296-5.8016-10.844-7.8272-2.2616 2.2288-3.5456 4.5624-6.7304 5.636l-.3992-.6448c1.0424-2.8184 2.6616-4.6656 4.6096-6.9008q-3.0992-2.5632-6.1192-5.2192Z"/>
  <path fill="#F9827A" d="M708.0616 213.192c7.38 3.2024 53.9696 26.6296 56.952 29.6712 1.8656 1.9024 1.0784 6.428.9744 8.8544-4.4888-.6624-54.7688-26.3576-56.9784-28.6496-1.6928-1.756-1.0016-7.4736-.948-9.876Zm.28-20.4896c5.7816 2.008 11.3056 5.172 16.7376 7.968l26.3208 13.584 39.8904 20.3576c7.4 3.7944 15.1896 7.2688 22.1736 11.7808-.008 3.2576-.032 6.3592-.688 9.5592-5.856-1.7752-24.364-12.3632-30.7216-15.7032-24.5776-12.9112-49.112-26.1872-74.016-38.4456-.0944-3.0856-.0168-6.0304.3032-9.1008Zm-.3328-21.072c6.2752.9128 32.9904 16.072 40.6064 19.9776 21.6464 11.1024 43.356 21.8672 64.8728 33.2392.152 3.188.016 6.4272-.008 9.6208-7.344-2.4928-101.9144-50.868-104.4408-53.4512-1.88-1.9224-1.1328-6.8384-1.0304-9.3864Z"/>
  <path fill="#3C3C68" d="M676.8208 294.4088c8.168 9.3688 15.48 19.4744 23.8144 28.7 12.4904-4.4824 25.0024-8.9384 37.808-12.456l21.2376 24.4448c4.3184 4.936 8.5648 10.2024 13.3584 14.6712 6.3152-3.2008 51.3368-25.7512 54.0008-28.852 2.72 1.7848 13.968 12.0912 15.008 14.6784 5.224-3.084 24.28-26.956 27.64-26.5584.352 1.3272.992 3.3688.272 4.6912-.344.6392-.824.8752-1.392 1.2608-7.112 4.832-13.304 11.9688-19.184 18.2416-2.104 2.252-4.368 5.6144-6.96 7.1672-1.072-2.5344-12.272-13.1888-14.832-14.3824-.344-.1624-.944-.2864-1.28-.3704q-3.912 2.0064-7.744 4.152c-7.976 3.4008-15.688 7.9416-23.3304 12.0344-7.2416 3.8784-14.892 7.54-21.7136 12.1168-2.6336-.5176-5.7688-5.204-7.5472-7.2344-2.0512-2.5552-4.1848-4.9648-6.4456-7.336-2.0248-2.5984-4.3248-5.1008-6.6544-7.4272-5.2488-5.9456-10.144-12.1552-15.2664-18.2032L720.5 319.3896c-2.6336.9472-5.3544 1.8048-7.9328 2.8856-4.2816 1.7632-8.9176 3.1456-13.4152 4.2248-6.124-8.9168-15.7784-20.288-23.32-28.0904-3 .2504-5.956.5704-8.932 1.0328l-8.3376.7024c-11.1168.612-33.9776.8152-43.484 3.1496-2.888.4504-5.7.804-8.6224.9136-14.572 1.0496-29.2872 1.9528-43.7864 3.7272-.0272-1.4784-.2696-1.8824.7088-3.044 3.8432-1.3832 15.38-1.3568 20.0936-1.7512l57.204-4.9128c11.752-.9408 24.8-.4784 36.1448-3.8184Z"/>
  <path fill="#3C3C68" d="M678.8104 282.5152c-1.296-2.036-2.8328-3.9104-4.1576-5.928-.8376-1.2744-1.3768-1.9624-1.0712-3.4736 1.9768-1.1304 8.1512-.376 10.572-.1232 1.7584.1832 3.1592.376 4.3216 1.808.78 3.3616-2.428 7.1792-4.1528 9.9648 5.7992 8.3144 12.56 16.1816 19.0184 23.9912 11.172-4.092 22.5024-8.1536 34.0048-11.2296l4.2368-1.4352c6.2176 8.304 13.256 16.1192 20.0656 23.9408 3.972 4.5616 7.8872 9.672 12.3232 13.7728 7.4888-3.1768 47.9408-21.6216 51.8448-25.2336l.656-1.5424c.008-.1728.04-.3448.032-.5184-.056-1.5-1.064-2.344-2.04-3.3568-.088-.2144-.168-.4296-.256-.6424-.672-1.6112-2.32-2.632-2.384-4.4384l.456-.8208c4.328.1776 11.816.932 15.368 3.4056.608 1.04.736 1.0496.528 2.2176-1.464 1.8752-3.6 3.7384-5.776 4.7528l-.392 1.0016c2.656 1.9312 7.368 8.8512 7.928 12.0312l-.824.4232c-4.488-1.06-4.872-7.4424-8.376-9.1528-1.408-.6856-2.784-.4504-4.208.0464-4.48 1.5672-9.072 4.688-13.376 6.8096-13.1704 6.48-26.5728 13.4072-40.176 18.8856-10.456-12.8472-22.3544-24.6376-32.1552-38.0024-13.1336 3.508-26.188 8.2968-39.0336 12.7792-5.1328-8.5368-14.5752-18.96-21.0648-26.9248-25.24.9264-50.5712 3.112-75.7536 5.0616-12.168.9424-26.7416 2.8064-38.7896 2.4648-1.4272-.0408-2.4944-.0744-3.628-.952l.3096-.8472c1.3088-.86 2.6832-1.084 4.2168-1.2512 9.6712-1.0544 19.696-1.196 29.4336-1.8704 27.416-1.8984 54.9088-3.4488 82.2992-5.6136Z"/>
  <path fill="#F3F4EF" d="M825.976 301.1384c2.144.2688 4.176.4792 6.192 1.3136l.624.8368c-.544 1.0456-.824 1.1968-1.824 1.8576-.568.2488-1.216 0-1.824-.0904-.6-1.7536-1.768-2.768-3.168-3.9176Z"/>
  <path fill="#3C3C68" d="M869.4 483.5568c2.24 1.0488 4.6 2.1232 6.696 3.4352 1.12.704 2.176 1.624 2.496 2.9488l-.672.5048c-1.144-.0072-2.2-.148-3.296-.5064-6.04-1.9776-12.152-6.0744-17.88-8.9368q-25.512-12.5856-50.656-25.8792l-138.08-70.0184q-39.6632-19.5608-78.8152-40.1272c-5.6416-2.9008-11.264-5.9352-16.9632-8.7096-4.9624-2.4168-10.1576-4.62-14.936-7.372-1.3824-.796-2.6336-1.5808-3.3576-3.052.3456-.8888.3192-.824 1.1912-1.2216 2.6944.8728 5.2888 2.2112 7.8616 3.396l25.8064 12.9848c5.8344 3.0056 11.6064 6.3792 17.6056 9.0344l8.4032 4.3456c8.4144 4.6736 17.2152 8.7688 25.816 13.1008 6.0176 3.0312 12.004 6.524 18.1944 9.156l8.1088 4.1632c9.256 5.1504 19.0112 9.6024 28.4944 14.3336 5.6744 2.8312 11.3152 6.2184 17.1416 8.66 2.7456 1.392 5.4768 2.8296 8.2536 4.1568 13.5496 8.208 31.1792 16.2232 45.6144 23.3136q4.0224 2.3312 8.1304 4.5064 13.9312 6.7992 27.7624 13.7992c5.08 2.5872 10.552 6.0808 15.936 7.8736 2.168 1.3528 5.504 2.5472 7.256 4.296 6.552 2.2648 13.16 6.3888 19.376 9.4992 8.08 4.0448 16.736 7.7552 24.512 12.3152Z"/>
  <path fill="#F9827A" d="M562.6696 307.9352c14.4992-1.7744 29.2144-2.6776 43.7864-3.7272-.552 15.2464.104 30.5688-.0552 45.8296-5.9992-2.6552-11.7712-6.0288-17.6056-9.0344l-25.8064-12.9848q.0336-10.0448-.3192-20.0832Z"/>
  <path fill="#F9827A" d="M615.0784 303.2944c9.5064-2.3344 32.3672-2.5376 43.484-3.1496.2432 25.4776-.2704 51.0376.252 76.4952-6.1904-2.632-12.1768-6.1248-18.1944-9.156-8.6008-4.332-17.4016-8.4272-25.816-13.1008l-8.4032-4.3456c.1592-15.2608-.4968-30.5832.0552-45.8296 2.9224-.1096 5.7344-.4632 8.6224-.9136Z"/>
  <path fill="#3C3C68" d="M631.3016 319.004c-.8904.676-.92.66-2.0424.6488-1.1392-1.0968-1.1888-1.6984-1.3912-3.2784-.3424-2.684-.184-7.188 1.4696-9.3832l.7368-.0672c.964 1.2152.6304 2.2112 1.1384 3.6216.056.1552.1296.3048.1944.4568 1.0192-.5224 2.1376-.5672 3.2624-.7288 1.9888.5624 3.7184 1.0656 4.784 2.9784 1.4024 2.516 1.2568 5.264.3936 7.9192-.3216.9872-.5408 1.5816-1.396 2.22l-1.1088-.0848c-.8448-1.0784-.7776-1.3048-.8632-2.6216.1816-2.9208.76-5.7392-1.1048-8.1512-1.1568 1.8736-.9272 3.6496-.6904 5.7608-.2736 1.532-.1152 1.8056-1.3776 2.8056-.9848-.2016-1.3808-.2928-1.824-1.3328-.1016-.2408-.1208-.5088-.1808-.7632Z"/>
  <path fill="#F3F4EF" d="M606.456 304.208c2.9224-.1096 5.7344-.4632 8.6224-.9136l-.1208 34.4632c-.0344 5.5048-.364 11.136-.1536 16.6256l-8.4032-4.3456c.1592-15.2608-.4968-30.5832.0552-45.8296Z"/>
  <path fill="#F9827A" d="M666.9 299.4424c2.976-.4624 5.932-.7824 8.932-1.0328 7.5416 7.8024 17.196 19.1736 23.32 28.0904 4.4976-1.0792 9.1336-2.4616 13.4152-4.2248-.0616 27.1232-.7216 54.4104-.008 81.5216-5.8264-2.4416-11.4672-5.8288-17.1416-8.66-9.4832-4.7312-19.2384-9.1832-28.4944-14.3336l-8.1088-4.1632c-.5224-25.4576-.0088-51.0176-.252-76.4952l8.3376-.7024Z"/>
  <path fill="#3C3C68" d="m692.5704 328.28 1.724.5392c.9488 1.0248 1.2504 1.6392 1.592 3.008.2368.9512.4536 1.788.8704 2.6792.312.6664.184.6968.896.9584.5456-1.3616.7504-2.7736 2.0936-3.4456 1.5488.0912 1.5448.0064 2.6344 1.0896.9152 3.0664.228 7.3256-.432 10.456-6.2584-3.2448-4.0328 1.0128-8.6368-6.468l-.3264 1.6744c-.7752.8168-.7856.732-1.9232.816-.7736-1.0224-.9568-1.6664-.9688-2.964-.0288-3.1968.3112-5.9888 2.4768-8.3432Z"/>
  <path fill="#F3F4EF" d="m658.5624 300.1448 8.3376-.7024c.5688 27.088.1336 54.2632.0232 81.3608l-8.1088-4.1632c-.5224-25.4576-.0088-51.0176-.252-76.4952Z"/>
  <path fill="#F9827A" d="m720.5 319.3896 17.1104-5.6424c5.1224 6.048 10.0176 12.2576 15.2664 18.2032 2.3296 2.3264 4.6296 4.8288 6.6544 7.4272 2.2608 2.3712 4.3944 4.7808 6.4456 7.336 1.7784 2.0304 4.9136 6.7168 7.5472 7.2344.2752.372.66.684.8256 1.1168.748 1.9544.768 74.8712.208 80.7088q-4.1088-2.1752-8.1304-4.5064c-14.4352-7.0904-32.0648-15.1056-45.6144-23.3136-2.7768-1.3272-5.508-2.7648-8.2536-4.1568-.7136-27.1112-.0536-54.3984.008-81.5216 2.5784-1.0808 5.2992-1.9384 7.9328-2.8856Z"/>
  <path fill="#3C3C68" d="M751.7664 345.2736c-1.4312 1.1232-2.1824 1.6192-4.04 1.5232-2.9552-1.956-4.528-3.6632-5.3512-7.1696-.5016-2.1408-.924-4.3872.2848-6.3552 1.2664-.3584 1.288-.3016 2.5136.2072.7896 2.3296-.988 4.6632-.58 7.1304l.9192.264c1.5664-1.4384 1.5928-3.4664 1.936-5.5176l.212-1.8336 2.74.5776c1.484 1.0168 2.4856 2.0512 2.7504 3.9064.3784 2.6496-.9344 4.804-1.3848 7.2672Z"/>
  <path fill="#656787" d="M748.4072 345.0864c1.1008-3.3552.3072-6.7384.9432-10.1568l.8696-.4792c1.0776 2.752 1.7016 6.6064.4008 9.3928-.4288.9184-.68.9248-1.4904 1.4448l-.7232-.2016Z"/>
  <path fill="#F3F4EF" d="M765.9768 346.7136c1.7784 2.0304 4.9136 6.7168 7.5472 7.2344.2752.372.66.684.8256 1.1168.748 1.9544.768 74.8712.208 80.7088q-4.1088-2.1752-8.1304-4.5064l-.4504-84.5536ZM720.5 319.3896c1.1064 29.4592.1608 59.0808.3128 88.564-2.7768-1.3272-5.508-2.7648-8.2536-4.1568-.7136-27.1112-.0536-54.3984.008-81.5216 2.5784-1.0808 5.2992-1.9384 7.9328-2.8856Z"/>
  <path fill="#3C3C68" d="M576.9416 98.136c12.6112-.5968 23.5896 3.364 34.1664 10.116 19.1712 12.2384 35.4656 35.0792 40.2936 57.4704 2.9224 13.5568 2.8512 30.224-5.0384 42.2008-5.5904 8.4872-13.1336 12.4624-22.856 14.5368-12.5504 1.5336-24.8624-2.22-35.416-9.0024-19.5032-12.5336-35.1304-34.7528-40.0296-57.5592-3.0248-14.0784-2.2824-30.9056 5.8688-43.2464 5.3376-8.0816 13.6752-12.6352 23.0112-14.516Z"/>
  <path fill="#F3F4EF" d="M601.3768 160.2376c4.5856 1.4688 9.4504 4.7592 13.804 6.984q17.4344 8.7448 34.6416 17.9296c-.7744 8.4776-2.7704 15.3232-7.2888 22.572-2.8992 3.6736-5.9192 6.2872-9.9904 8.5904-6.6384-9.496-11.7552-21.0688-17.2976-31.3024-4.4976-8.3032-9.6896-16.3232-13.8688-24.7736Z"/>
  <path fill="#F9827A" d="M602.072 107.328c7.3552 3.5464 13.568 7.696 19.4864 13.3552 16.6544 15.9248 27.864 36.9296 28.3872 60.3168-5.7896-1.748-11.588-5.5496-16.9736-8.3432l-30.8976-15.824c-.3856-16.4656-.104-33.0336-.0024-49.5048Z"/>
  <path fill="#F3F4EF" d="M550.8544 131.5192c4.5328 1.7528 9.0248 4.7504 13.3072 7.0856 10.5656 5.7624 21.0848 11.78 31.8608 17.1296 3.9016 9.0536 9.2032 17.7152 14.0216 26.3056q9.9184 17.4952 19.2224 35.324l-.9216.8168c-6.1584 1.356-12.052 1.7984-18.2968.6936-18.7648-3.3216-34.136-16.636-44.6528-31.9544-10.9696-15.976-18.1624-35.9056-14.5408-55.4008Z"/>
  <path fill="#F9827A" d="M869.688 309.0368c.904 1.716.752 3.4792.776 5.368.464 32.0672-.368 64.1824-.216 96.26l.144 51.7664c-.008 4.9568.776 15.3728-.432 19.7136-.224.796-.192.64-.56 1.412-7.776-4.56-16.432-8.2704-24.512-12.3152-6.216-3.1104-12.824-7.2344-19.376-9.4992-1.752-1.7488-5.088-2.9432-7.256-4.296-5.384-1.7928-10.856-5.2864-15.936-7.8736q-13.8312-7-27.7624-13.7992c.56-5.8376.54-78.7544-.208-80.7088-.1656-.4328-.5504-.7448-.8256-1.1168 6.8216-4.5768 14.472-8.2384 21.7136-12.1168 7.6424-4.0928 15.3544-8.6336 23.3304-12.0344q3.832-2.1456 7.744-4.152c.336.084.936.208 1.28.3704 2.56 1.1936 13.76 11.848 14.832 14.3824 2.592-1.5528 4.856-4.9152 6.96-7.1672 5.88-6.2728 12.072-13.4096 19.184-18.2416.568-.3856 1.048-.6216 1.392-1.2608.72-1.3224.08-3.364-.272-4.6912Z"/>
  <path fill="#F3F4EF" d="M818.568 329.7968q3.832-2.1456 7.744-4.152c.472 1.1872.608 2.0648.648 3.3416.312 9.7064.016 19.4816 0 29.196l.024 51.4032-.048 33.4856c-.024 5.8104.32 11.9408-.344 17.6992-.344.3312-.68.7024-1.08.972-1.752-1.7488-5.088-2.9432-7.256-4.296-.656-15.8272 0-31.932.096-47.7856l.216-79.864Z"/>
  <path fill="#F9827A" d="m818.568 329.7968-.216 79.864c-.096 15.8536-.752 31.9584-.096 47.7856-5.384-1.7928-10.856-5.2864-15.936-7.8736q-13.8312-7-27.7624-13.7992c.56-5.8376.54-78.7544-.208-80.7088-.1656-.4328-.5504-.7448-.8256-1.1168 6.8216-4.5768 14.472-8.2384 21.7136-12.1168 7.6424-4.0928 15.3544-8.6336 23.3304-12.0344Z"/>
</svg>
