<svg id="visual" viewBox="0 0 900 600" width="900" height="600" xmlns="http://www.w3.org/2000/svg" xmlns:xlink="http://www.w3.org/1999/xlink" version="1.1"><g transform="translate(465.33833952794834 272.03226578532866)"><path d="M83.7 -120C108.6 -97.1 128.9 -72.8 141.7 -43.7C154.4 -14.5 159.5 19.5 151.8 51.3C144.2 83.1 123.8 112.7 96.4 153.8C69 194.9 34.5 247.5 -3.7 252.6C-41.9 257.7 -83.9 215.4 -111.8 174.5C-139.7 133.5 -153.5 94 -165.5 54.4C-177.5 14.8 -187.7 -24.7 -185.9 -69.8C-184.2 -114.9 -170.6 -165.4 -137.6 -185.7C-104.6 -206 -52.3 -196 -11.5 -180.2C29.4 -164.5 58.8 -142.9 83.7 -120" fill="#F9827A"></path></g></svg>