<svg id="visual" viewBox="0 0 900 600" width="900" height="600" xmlns="http://www.w3.org/2000/svg" xmlns:xlink="http://www.w3.org/1999/xlink" version="1.1"><g transform="translate(460.6196920972335 281.9202767591222)"><path d="M135.1 -190.5C171.9 -159.3 196.3 -115.5 216.5 -67.1C236.8 -18.6 253 34.4 230.9 66.6C208.8 98.8 148.5 110.1 103.6 145.5C58.8 180.9 29.4 240.5 -14.2 260C-57.8 279.6 -115.6 259.1 -160 223.5C-204.4 187.9 -235.3 137.2 -251.4 82.8C-267.6 28.4 -268.8 -29.7 -239.4 -64.7C-210 -99.8 -150 -111.8 -105 -140.3C-60 -168.9 -30 -213.9 9.6 -227.1C49.2 -240.4 98.4 -221.7 135.1 -190.5" fill="#F9827A"></path></g></svg>