<svg id="visual" viewBox="0 0 900 600" width="900" height="600" xmlns="http://www.w3.org/2000/svg" xmlns:xlink="http://www.w3.org/1999/xlink" version="1.1"><g transform="translate(432.1185965340522 311.68308609605634)"><path d="M142.3 -184.1C186.7 -163.7 226.5 -125.1 249.6 -75.9C272.6 -26.8 279 33 249.3 67.6C219.6 102.3 153.9 111.8 106.3 130C58.8 148.2 29.4 175.1 -3.3 179.7C-36.1 184.3 -72.1 166.6 -104.1 143.3C-136.1 120 -164.1 91.2 -190.6 52C-217.2 12.7 -242.2 -37.1 -230.6 -75.5C-218.9 -114 -170.6 -141.1 -126 -161.5C-81.5 -181.9 -40.8 -195.4 4.1 -201.1C49 -206.8 98 -204.5 142.3 -184.1" fill="#F9827A"></path></g></svg>