<svg xmlns="http://www.w3.org/2000/svg" viewBox="0 0 1024 819">
  <path fill="#A4C6C9" d="M64.661 661.0552c2.8996.9928 5.8519 2.7328 8.66 4.0432 11.0958 5.1768 25.0598 10.7432 32.8774 20.4368-1.2032 2.284-2.6736 4.2584-4.228 6.3096-.1216.1536-.2408.3088-.3656.46-1.112 1.3432-2.112 2.1528-3.8648 2.3392-6.1352-1.5928-29.1942-27.5512-33.079-33.5888ZM577.2928 763.632c2.768-.2248 38.908 19.6248 44.7496 22.548q7.7664 3.8216 15.7024 7.2776l-.2472.34c-5.768 2.1712-14.1824 1.644-20.4248 2.0464-15.3448.9896-30.5752 1.9248-45.948 2.3544-11.5424-.0784-23.1656.576-34.7248.6504-7.9784.052-16.92-.8016-24.7376.2576-.2136.0296-.4272.0632-.6408.0944l.5848-.3632c-.9872.0776-.5096.0848-1.4352-.0064 1.7608-2.1504 58.9696-30.5416 67.1216-35.1992ZM541.496 743.78c8.436 4.6448 16.7064 9.78 25.464 13.796-7.4496 3.3072-14.3424 7.6528-21.5824 11.372l-40.0872 20.148c-5.732 2.9096-12.0984 7.668-18.312 9.0544-5.204 1.16-12.3448-.2624-17.772-.508-8.6472-1.2704-17.616-1.5888-26.3336-2.2896 8.1896-4.7 17.1024-8.5048 25.496-12.8824L541.496 743.78Z"/>
  <path fill="#281E30" d="M240.4368 191.6536q.5232-.0464 1.0472-.0688c8.1776-.3312 16.2536 4.2224 22.0552 9.6376 8.7424 8.1592 16.4896 21.1624 16.8232 33.3896.3632 13.3216-12.5712 23.2472-20.98 32.0888-2.712 2.816-5.3696 5.652-8.4104 8.1208-7.5424-10.5256-20.3944-46.5208-23.3536-60.0504-1.112-5.084-1.5536-12.7496 1.536-17.2576 2.556-3.7296 7.1152-4.9664 11.2824-5.86Z"/>
  <path fill="#F3F4EF" d="M240.36 194.6232c8.4448-.3704 15.46 3.0736 21.644 8.704 7.9976 7.2816 14.9616 19.7896 15.3096 30.7696.3808 12.0216-10.7736 20.5584-18.3736 28.62l-7.1624 7.8c-6.8008-10.9248-15.7488-36.7528-20.0056-50.0656-1.7832-5.5768-4.092-14.2984-.9912-19.8096 2.0168-3.5856 5.8336-5.0176 9.5792-6.0184Z"/>
  <path fill="#3C3C68" d="M247.368 211.0136c2.5944.0072 4.5256.0952 6.7176 1.624 2.8416 1.9824 4.344 5.2624 4.8192 8.6144.76 5.3616-.0936 15.852-3.392 20.2864-.736.1648-1.5176.3576-2.2736.376-1.0464.0256-2.124-.5624-2.8608-1.2688-4.232-4.0544-5.7168-16.092-5.8496-21.8736-.0784-3.3864.48-5.2808 2.8392-7.7584Z"/>
  <path fill="#F9827A" d="M367.792 58.3112c9.672 3.658 24.3712 12.733 33.8768 17.8691 20.6632 11.1653 41.416 22.2813 61.8768 33.8005l28.58 15.992c4.1056 2.2936 8.104 4.8936 12.3096 6.9856l.072 133.9608q.0784 16.5032-.032 33.0064c-.0392 5.8232-.7608 12.4168.1688 18.1128q-4.2624 2.3528-8.5584 4.6432c-.6784-1.5048-.9056-2.8024-.9816-4.452-.9032-19.5856.0224-39.5008-.0144-59.1232l-.1328-121.2472c-11.5008-5.2528-22.2208-12.0392-33.2896-18.104L395.1968 83.356q-11.1328-6.1954-22.4712-12.0062c-2.8296-1.4728-5.472-3.4067-8.4512-4.5544l-1.0616.592c1.088 8.853.268 18.415.2696 27.3654l.0496 48.6976c-.0328 9.6128-.5368 19.4688-.0032 29.0552l-3.1552-.036c.8408-7.3008.1392-15.464.148-22.8536l.0768-54.432c.024-9.1152-.6-18.8138.3552-27.863-.1096-2.217-.1784-3.7215 1.42-5.399 1.4056-1.4751 3.6672-2.5678 5.4184-3.6108Z"/>
  <path fill="#A4C6C9" d="M503.7128 694.8112c7.892-.536 14.6392.2232 22.1352 2.8616 10.4504 3.6776 19.8008 10.4064 29.476 15.7416q31.3552 17.2336 62.952 34.0208c12.6464 6.8168 25.2912 14.5296 38.5088 20.148 7.0032 2.976 15.0392 5.608 22.5896 6.5576 9.1032 1.1448 19.6624.9192 28.5304-1.5032 13.8832-3.792 29.6016-12.8832 42.4136-19.6912l32.2096-16.9104c7.0584-3.7056 14.512-8.3144 22.08-10.7992 2.136-.7 3.584-.892 5.752-.1672 3.52 1.1768 5.952 4.1672 7.456 7.4456 2.264 4.9576 2.904 13.34.832 18.3992-1.12 2.732-2.968 3.532-5.496 4.6416-33.4304 13.1368-69.196 22.5744-104.4768 29.2-17.0208 3.1968-34.2552 5.3736-51.3552 8.1008-8.684-5.0512-17.8528-9.0208-26.6784-13.7888q-36.1512-19.9848-73.0728-38.5064c-25.0264-12.8128-50.2608-25.2064-74.7176-39.1104 6.308-3.2256 13.8736-5.628 20.8616-6.64Z"/>
  <path fill="#F9827A" d="M98.4824 42.9894c1.8784.2853 107.0264 57.0298 115.6696 62.8258l-.564 110.1928c-1.916 1.244-3.9112 2.392-5.8632 3.5824-.4008.1512-.5592.2264-1.0176.3168-.368.0728-1.4104.1592-1.7136.1088-.9064-.1512-29.0544-16.2912-32.488-18.2056-6.3712-3.552-12.9912-6.6424-19.4328-10.0624-12.0088-6.3744-23.8696-13.1256-35.8416-19.5888-8.2328-4.4448-16.7728-8.6312-24.6704-13.6504q-.2688-56.3944.4224-112.784l5.4992-2.7354Z"/>
  <path fill="#F3F4EF" d="M95.9688 50.6627c12.8112 6.423 25.3616 13.742 37.8568 20.7673l37.3792 20.7708c10.832 6.1048 22.6072 11.1024 33.0512 17.8192-.9496 34.6992-.12 69.5576-.3984 104.28-2.5048-.0672-96.2912-51.5-107.552-57.4608-.7872-13.1216-.3432-26.4912-.3536-39.6384l.0168-66.538Zm267.244 16.7247 1.0616-.592c2.9792 1.1477 5.6216 3.0816 8.4512 4.5544q11.3384 5.8108 22.4712 12.0062l66.4704 36.3992c11.0688 6.0648 21.7888 12.8512 33.2896 18.104l.1328 121.2472c.0368 19.6224-.8888 39.5376.0144 59.1232.076 1.6496.3032 2.9472.9816 4.452-4.6552 2.7112-9.4384 5.3264-13.9208 8.3144-1.0856-1.4712-2.1712-2.7912-3.484-4.0656 2.6968-5.0248 5.82-10.1208 8.0488-15.3608q-21.1288-11.8704-42.0888-24.0376c-6.9136-3.9544-14.6968-7.5376-21.048-12.2816-8.4616 13.8056-15.6608 29.268-23.452 43.5472-2.6376 4.8336-5.3232 11.8208-9.3896 15.524-1.4608-.3928-2.4024-1.1344-3.596-2.0408-1.7712-2.5184-13.5304-10.3088-16.9792-13.1352q-8.108-6.7384-15.6912-14.0632c1.6736-6.4768 4.316-12.412 7.116-18.4592 3.9096 3.3024 8.8952 5.9904 14.1384 6.0248q.572.0008 1.1408-.052.5696-.0528 1.1312-.1584.5616-.1064 1.1112-.264.5496-.1576 1.0816-.3664.532-.2088 1.0424-.4656.5112-.2576.9952-.5616t.9376-.652q.4536-.348.8728-.7368c2.612-1.8424 4.3504-4.2672 6.2968-6.7648-.012-.5432-.0992-1.132-.152-1.6752l-1.1056-.4376c-1.1848.0872-1.936.1864-3.0112-.4424-1.8936-4.3416-.496-10.8312-.216-15.5104.576-4.0408 1.2456-8.0912 1.5368-12.1648-1.1184.3272-1.7552.3632-2.8816.2344-3.1624 1.0008-6.3048 2.7736-9.4096 3.6232-5.4976 1.9104-11.12 2.8488-16.8824 3.5352l-2.2608-.0224c-11.5488.8432-24.5384.4688-35.4856-3.4432-.3736-1.2856-2.0928-1.5384-2.952-2.4112-.9272-.9424-1.4384-1.0904-2.6904-1.3392l-.956.0096c-5.5288-2.912-11.9608-7.5968-15.4728-12.8512-1.5752-2.3568-2.4608-5.0488-1.8296-7.8792.8224-3.6864 3.4152-5.5496 6.3912-7.4608 3.0048-12.5688 7.1904-24.1416 16.38-33.632 10.6072-10.9528 25.7064-18.1008 41.0224-18.2896l3.1552.036c-.5336-9.5864-.0296-19.4424.0032-29.0552l-.0496-48.6976c-.0016-8.9504.8184-18.5125-.2696-27.3654Z"/>
  <path fill="#A4C6C9" d="M388.9288 280.1416c2.0896.3136 18.2376 6.7544 18.8168 7.688.316.5088.0392.9288-.0944 1.4616-.6752.6256-.6512.92-1.636.8496-4.4032-.3128-11.6208-5.3376-15.6664-7.5144-.012-.5432-.0992-1.132-.152-1.6752l-1.1056-.4376-.1624-.372Zm9.1592-16.4112.5504-3.576c3.0664 2.8688 15.1872 15.56 15.6232 19.0624-1.1928.4856-1.7504.4312-2.9688-.1072-4.6256-2.0424-9.5784-11.344-13.2048-15.3792Zm38.0912-61.4256c9.0264 4.9704 17.784 10.408 26.7904 15.4088 5.2192 2.8984 10.744 5.276 15.8496 8.3632.3752 1.5848-.088 2.3824-.5672 3.9168-5.9488-2.3336-11.7608-6.3768-17.4088-9.4176-8.3376-4.4888-18.3872-8.4672-25.8576-14.2224-.204-1.5872.5432-2.628 1.1936-4.0488Zm-51.9144-103.24c7.9752 3.0096 21.9584 12 30.1496 16.5024 20.9528 11.5176 42.2816 22.6208 62.9312 34.6624.6672 1.172.3832 2.3872.3256 3.7128-8.2472-2.452-24.9208-13.0176-33.2112-17.5624q-21.0872-11.3184-41.9096-23.1176c-6.048-3.4328-12.3984-6.6232-18.1632-10.5128-.6648-1.512-.388-2.0856-.1224-3.6848Zm.1992 26.0744c4.7768 1.676 17.676 9.744 23.0288 12.6176 23.2568 12.4872 46.3184 25.46 69.796 37.5144.4576 1.3368-.4488 2.6016-.9968 3.8816-7.0728-2.6048-17.1592-9.5312-24.2792-13.2904-16.0104-8.4536-31.9832-16.8968-47.856-25.6152-6.7584-3.712-13.98-7.1144-20.4104-11.3432-.4016-1.5312.1712-2.3064.7176-3.7648Zm-1.1976 14.1536c3.1 1.2824 6.1808 3.3608 9.1384 4.9888 8.1808 4.5016 16.236 9.228 24.384 13.7888 20.1432 11.2752 40.7056 21.9416 60.6696 33.512.6304 1.0864.1528 2.0272-.0696 3.2312-1.1568-.0992-2.3136-.2128-3.3712-.7344-10.0784-4.9696-19.7696-11.1912-29.6232-16.6456L403.28 154.7664c-5.7544-3.1648-16.3688-7.2832-20.5816-11.9304-.2592-1.5352.0624-2.0976.568-3.5432Zm1.1752-27.6368c4.0856 1.5856 8.2104 4.4344 12.0512 6.6088l24.3032 13.6896q15.8416 8.8432 31.8304 17.4184c8.1872 4.3464 16.5664 8.4584 24.5648 13.1416.4576 1.4608-.2096 2.7632-.628 4.2112q-32.9992-17.232-65.3544-35.6456c-8.3112-4.6264-20.1528-10.0936-27.512-15.6192-.3848-1.5824.168-2.3096.7448-3.8048Z"/>
  <path fill="#281E30" d="m360.3736 172.4696 3.1552.036c15.028 1.8832 27.4904 9.116 36.8112 21.0648 3.5632 4.568 5.892 9.6208 8.0208 14.968 6.0664 7.4288 11.452 14.9784 15.2048 23.8688-6.7968 5.5968-14.9256 9.1544-22.3616 13.7632-.796 4.6656-1.4952 9.372-2.5656 13.984l-.5504 3.576c-1.5144 6.2224-3.8592 10.1968-9.3256 13.72 1.4032-2.408 3.12-4.676 4.336-7.1808 3.3784-6.956 3.968-15.4 5.1984-22.964-3.4992 1.4728-7.888 2.78-10.896 5.0904-1.1184.3272-1.7552.3632-2.8816.2344-3.1624 1.0008-6.3048 2.7736-9.4096 3.6232-5.4976 1.9104-11.12 2.8488-16.8824 3.5352l-2.2608-.0224c-11.5488.8432-24.5384.4688-35.4856-3.4432-.3736-1.2856-2.0928-1.5384-2.952-2.4112-.9272-.9424-1.4384-1.0904-2.6904-1.3392l-.956.0096c-5.5288-2.912-11.9608-7.5968-15.4728-12.8512-1.5752-2.3568-2.4608-5.0488-1.8296-7.8792.8224-3.6864 3.4152-5.5496 6.3912-7.4608 3.0048-12.5688 7.1904-24.1416 16.38-33.632 10.6072-10.9528 25.7064-18.1008 41.0224-18.2896Z"/>
  <path fill="#F3F4EF" d="M372.0528 188.176c8.8944-.916 17.3776.5056 24.8888 5.4584-15.8568-5.1816-24.6968-5.088-40.152 1.2416-6.1568 2.9664-11.1824 6.8296-16.4072 11.1544l.0936-.4776c8.8888-9.3376 18.9048-14.972 31.5768-17.3768Z"/>
  <path fill="#F9827A" d="M316.5184 251.2864c-5.3144-3.304-14.9832-9.6024-17.1128-15.6608-.5112-1.4544-.6288-3.104.0848-4.512 1.0208-2.016 3.1792-2.7128 5.1824-3.3408.8192-.256.7048-.2584.9808-1.0336 1.0224-2.8776 1.4112-6.2096 2.1632-9.192 1.9392-7.6864 5.6888-14.6384 10.556-20.8712q.836-1.068 1.7232-2.0944.8864-1.0264 1.8224-2.008t1.9192-1.9168q.9824-.9344 2.0096-1.82 1.0272-.8856 2.096-1.7208 1.0696-.8344 2.1784-1.616 1.108-.7816 2.2536-1.508t2.3248-1.396q1.1792-.6696 2.3904-1.2808 1.2104-.6112 2.4496-1.1624 1.2392-.552 2.5032-1.0416 1.2648-.4904 2.552-.9192 1.2864-.428 2.5928-.7928 1.3064-.3648 2.6288-.6648 1.3224-.3008 2.6584-.5368 1.3352-.2352 2.6808-.4056c12.7784-1.492 23.892 2.7264 33.812 10.5616-7.3896-1.7824-15.0968-2.0968-22.4976-.172-15.6808 4.0792-29.2688 15.0376-37.4328 28.9256-2.8592 4.8648-7.7784 13.616-6.0552 19.3248.7064 2.3392 2.7072 3.9504 4.7752 5.0808 12.1208 6.6216 35.392 4.8536 48.5024.5944 6.616-2.1496 26.7096-10.74 29.3376-16.8104.3616-.8352.184-.8192-.1032-1.6016-3.476-.1784-9.9656 6.32-13.4136 8.0448-12.228 6.1152-24.4704 10.4416-38.3304 10.9464-7.0176.2552-21.7536-.9816-27.1048-5.9104-.4776-1.4544-.1688-2.9872.236-4.4264 3.2832-11.6888 17.6832-25.328 27.9472-31.1512 10.4824-5.9456 23.0224-8.332 34.7512-4.9712 9.2072 2.6376 10.0952 6.332 14.4296 14.0184l.3104.4224c5.612 7.5176 12.16 13.6992 15.852 22.6184-25.3936 17.2856-58.304 30.4408-89.4184 24.484q-3.684-.6744-7.2568-1.7992-3.5728-1.1256-6.9784-2.6848Z"/>
  <path fill="#A4C6C9" d="M278.2528 538.8744c1.0856 9.2168 2.1736 18.388 3.6016 27.56 1.064 6.8288 3.5024 15.2528 3.176 22.048-.3552 7.4168-3.3608 15.2848-4.8944 22.5608-3.2272 15.3136-5.1776 30.1232-5.4424 45.8048q-.2032 14.2776 1.096 28.4968c1.0216 10.3496 3.1664 20.528 1.9888 30.9392l-.236 1.7456c-.1688 2.2184-.5688 4.86-.3368 7.0712.2448 2.3312 1.2424 4.3216 3.0952 5.7824 3.0688 2.42 6.9648 2.5336 10.6888 2.088 8.4616-1.0136 44.8832-19.2504 49.7112-25.4248.6576-2.072.4984-4.1336.084-6.2392-.7488-3.7992-2.3816-8.1704-5.8312-10.2824-6.0272-3.6896-15.304 1.9224-21.392 3.58-1.7448.4752-2.9312.5936-4.5112-.3248-1.4224-2.42.668-10.7808 1.12-13.7024.996-6.1976 2.2144-12.3024 3.5728-18.4296l.808-4.4016c1.7872-10.4928 4.1792-20.8816 6.3288-31.3032q7.4944-36.684 16.6824-72.9816c5.9848 12.0632 22.3152 42.4928 21.1568 54.9456-.588 6.316-2.0648 12.74-3.1 19.0088-1.3888 8.404-2.1104 16.6624-2.124 25.18.064 5.7544.2544 11.46.6488 17.2008 2.024 18.9576 5.9456 36.8384 12.8296 54.6176 2.6408 6.82 7.6312 15.6224 9.1808 22.5184.7952 3.5424.3848 7.2888 1.068 10.8904-1.048 2.3784-2.1928 4.4888-1.1496 7.1088.6128 1.5384 1.9296 2.5144 3.4472 3.0696 9.7888 3.5808 41.2032-10.1864 51.132-15.1792 2.0904-1.052 6.5448-3.1112 7.2096-5.5464 1.0528-3.86-.096-8.5-2.2824-11.7776-1.3536-2.0288-3.28-3.428-5.6952-3.8928-7.3592-1.416-20.7184 3.9216-28.4984 5.3848q-1.4656-33.488-1.7848-67.0064c5.3272 4.4512 29.544 15.3136 37.7184 19.5936l60.7744 32.2568c9.6 5.1224 21.9976 13.2176 32.2176 16.1128-7.8408 3.912-15.2704 8.4688-23.0184 12.5312q-32.3632 17.16-65.1272 33.5408c-6.772 3.388-13.448 8.476-20.6104 10.8392-8.3368 2.7496-38.8608-2.2256-48.8248-3.3936-46.2808-5.4232-93.0616-12.0848-137.5912-26.3056-9.332-2.98-18.3344-6.7712-27.4752-10.2696-11.192-4.2832-22.148-8.4688-32.9944-13.6224-10.54-5.0072-21.2544-10.4384-31.3664-16.26-6.572-3.7832-12.8112-8.0024-19.5768-11.4672 3.732-3.1128 8.2904-5.308 12.468-7.7704 12.1432-7.156 24.5032-13.6792 36.96-20.2552 4.7744-2.5208 9.2616-5.6024 13.9656-8.2568l36.6736-20.2776c14.4184-8.132 29.2864-15.6376 42.9224-25.0512-.7312-4.8872-1.0848-9.972-.8872-14.9096-2.3096 3.2584-4.464 6.3296-7.7504 8.6672-4.704 3.3472-10.132 6.02-15.1592 8.88-12.1344 6.9048-24.4088 13.4656-36.628 20.2016l-92.7696 52.1568c-2.824-1.5992-5.2696-3.2512-7.6336-5.4872 2.6824-3.0688 6.1472-5.4496 8.1128-9.1208q.3032-.5672.5496-1.1616.2464-.5944.4328-1.2096.1864-.616.312-1.2464.1256-.6312.1888-1.2712.0624-.64.0624-1.2832 0-.6432-.0632-1.2832-.064-.6408-.1896-1.2712-.1256-.6312-.3128-1.2464c-.9944-3.304-3.072-6.0048-5.592-8.3008-7.1456-6.5104-16.404-10.568-24.9304-14.8984L56.149 644.9312c-1.7776-.9112-3.4032-1.88-4.7312-3.4104-5.0448-5.8144-12.1073-22.5744-14.5637-30.1216 5.3262 2.972 10.9205 5.4464 16.3495 8.2256l31.7116 16.528c12.396 6.4688 35.1576 20.6592 47.5392 23.5472 9.2408 2.1544 21.924-.9472 30.688-3.9856 12.4848-4.328 23.8608-11.488 35.5304-17.5528 16.9824-8.8264 34.7896-17.1904 50.9368-27.4344 9.7992-6.216 13.992-11.78 16.476-23.3144 2.8608-13.2832-2.9784-24.5456-10.048-35.3168 6.528-5.4744 16.6112-7.8024 22.2152-13.2216Z"/>
  <path fill="#F3F4EF" d="M314.5512 657.7464c.9504.4824 1.956 1.016 3.0552.8728 2.712-.3544 6.2672-2.4312 8.8696-3.4696 6.4144-2.5608 19.1424-6.8424 25.8384-5.712 1.1288.9928.8592 1.6056.9536 3.0664l-.136 6.0776c-11.7048 1.4056-28.0496 5.6144-39.3888 3.5664l.808-4.4016Z"/>
  <path fill="#A4C6C9" d="M391.4216 404.9928c9.76 11.8328 19.9128 26.4936 34.1944 33.0432 10.884-4.244 16.1088-12.3576 23.3184-20.8584-.9536 57.0008 1.284 114.1152-.1008 171.0992-.0256 2.224-.3496 5.1376.4016 7.24.3592 1.0048.7368 1.4448 1.6352 1.9608 16.076 9.2328 32.7896 17.7144 49.1904 26.3744q24.288 12.9184 48.4048 26.1552l59.5168 32.5024c15.9576 8.8208 31.7904 17.9384 48.0248 26.244L873.824 590.2512l58.792-31.3584c5.864-3.1632 17.016-8.1952 21.8-12.1064 2.448-.98 5.64-2.1152 7.32-4.2008.096-.1792.2-.3544.288-.5368 1.056-2.1176.992-35.0128-.088-38.4448.696 1.0504.824 1.4384.896 2.6848.152 2.6064 13.776 24.9008 16.008 29.7288 3.168 6.8568 5.816 14.6832 7.064 22.1416.312 1.8816 1.168 5.1344.48 6.928l.272.4192c.72 1.1 1.424 2.0024 2.352 2.936 1.024 1.0328 2.048 2.2504 2.08 3.788.016.7152-.28 1.4648-.752 2.0136-.72.832-1.904 1.488-2.912 1.8528 4.752 14.2432-6.24 46.472-12.808 59.6224-3.992 8.008-17.528 31.7136-24.48 35.9056-2.112-2.0344-67.568-37.7944-69.808-38.0896-2.744 2.428-6.568 4.1184-9.912 5.5944 5.888 4.4008 13.696 7.568 20.208 11.0832l37.608 20.6256c3.272 1.7648 11.448 5.2208 13.464 7.6728-.632 3.0488-13.872 14.692-16.8 16.4656-.208.1264-.56.2808-.768.3752-2.96-2.396-6.664-4.2104-9.952-6.1408-8.8-5.1624-17.712-9.996-26.632-14.9352q-14.32-8.048-28.768-15.8752c-3.568-1.9432-7.152-4.2208-10.808-5.9672-.696-.3328-1.448-.3552-2.208-.4088-2.216 2.044-6.512 4.3016-9.4 5.1808 3.424 3.7432 14.648 8.5536 19.712 11.3112l44.192 24.3864c5.36 2.9856 11.384 5.6088 16.528 8.8704-2 2.5584-19.416 13.9536-23.2 15.5608-2.592-4.256-61.4-34.992-69.424-39.4488-4.488-2.4872-8.792-5.2768-13.248-7.812-3.552 2.0072-7.944 3.7352-11.0656 6.3152 2.8176 2.7552 12.5456 6.8832 16.3936 8.912 8.28 4.3632 66.816 35.4064 68.144 36.9176-2.856 4.5648-47.032 25.1856-54.712 27.4264 1.472-2.9544 1.544-8.5392 1.208-11.8064-.848-8.048-5.272-14.7808-11.52-19.7528-9.944-7.912-31.9144-13.7128-44.6016-11.9096-1.8752.2664-4.4112.9792-5.5216 2.6576q-.1304.1944-.2384.4024-.1088.2072-.1944.4256-.0856.2176-.1472.4432-.0624.2264-.0992.4576-.0376.2312-.0504.4648-.012.2336.0008.468.012.2336.0496.4648.0376.2312.1.4568c1.8952 6.7632 21.4456 2.6888 26.5504 5.1144l-.1616.8264c-3.5704 1.8096-7.3464 3.2392-10.9472 5.0152-13.4248 6.6192-26.8488 13.472-40.116 20.3984-10.1752 5.3128-19.7728 11.8632-30.3344 16.3816-10.5368 4.508-26.1208 5.936-37.2928 3.4352-14.7824-3.3088-27.896-11.5672-41.0864-18.6664l-75.4656-41.0672c-8.9848-4.8064-17.4576-10.8032-26.952-14.5672-24.288-9.6288-39.7664-3.0592-62.124 6.5752-5.9184-2.4648-11.6256-6.208-17.3072-9.2224l-39.3232-20.82c-4.4664-2.3808-9.8024-6.4256-14.6664-7.5752-1.8408-46.2984 1.5504-92.6632-4.056-138.808l11.8176-2.1064c-3.0712-13.5496-4.976-27.7376-8.5576-41.1088-3.0088-23.7968-6.1808-47.2264-7.2216-71.2288Z"/>
  <path fill="#3C3C68" d="M613.52 30.6906q93.7208 50.8182 186.4368 103.4486l38.2672 21.792c5.952 3.4208 13.408 6.7968 18.52 11.3496 4.928 4.3768 14.376 18.056 19.12 24.0456l46.52 58.256c4.12 5.1104 37.752 46.216 38.824 48.9008.096.2392.104.504.152.756.48 1.1808.584 2.0296.616 3.3032.424 15.6944.232 31.4656.304 47.1672l.168 100.4216c0 8.572 1.008 48.8816-.512 53.4728 1.08 3.432 1.144 36.3272.088 38.4448-.088.1824-.192.3576-.288.5368-1.68 2.0856-4.872 3.2208-7.32 4.2008-4.784 3.9112-15.936 8.9432-21.8 12.1064l-58.792 31.3584-217.8168 118.5024c-16.2344-8.3056-32.0672-17.4232-48.0248-26.244l-59.5168-32.5024q-24.116-13.2368-48.4048-26.1552c-16.4008-8.66-33.1144-17.1416-49.1904-26.3744-.8984-.516-1.276-.956-1.6352-1.9608-.7512-2.1024-.4272-5.016-.4016-7.24 1.3848-56.984-.8528-114.0984.1008-171.0992-7.2096 8.5008-12.4344 16.6144-23.3184 20.8584-14.2816-6.5496-24.4344-21.2104-34.1944-33.0432 1.0408 24.0024 4.2128 47.432 7.2216 71.2288 3.5816 13.3712 5.4864 27.5592 8.5576 41.1088l-11.8176 2.1064c5.6064 46.1448 2.2152 92.5096 4.056 138.808l.1616 11.7392q.3192 33.5184 1.7848 67.0064c7.78-1.4632 21.1392-6.8008 28.4984-5.3848 2.4152.4648 4.3416 1.864 5.6952 3.8928 2.1864 3.2776 3.3352 7.9176 2.2824 11.7776-.6648 2.4352-5.1192 4.4944-7.2096 5.5464-9.9288 4.9928-41.3432 18.76-51.132 15.1792-1.5176-.5552-2.8344-1.5312-3.4472-3.0696-1.0432-2.62.1016-4.7304 1.1496-7.1088-.6832-3.6016-.2728-7.348-1.068-10.8904-1.5496-6.896-6.54-15.6984-9.1808-22.5184-6.884-17.7792-10.8056-35.66-12.8296-54.6176-.3944-5.7408-.5848-11.4464-.6488-17.2008.0136-8.5176.7352-16.776 2.124-25.18 1.0352-6.2688 2.512-12.6928 3.1-19.0088 1.1584-12.4528-15.172-42.8824-21.1568-54.9456q-9.188 36.2976-16.6824 72.9816c-2.1496 10.4216-4.5416 20.8104-6.3288 31.3032l-.808 4.4016c-1.3584 6.1272-2.5768 12.232-3.5728 18.4296-.452 2.9216-2.5424 11.2824-1.12 13.7024 1.58.9184 2.7664.8 4.5112.3248 6.088-1.6576 15.3648-7.2696 21.392-3.58 3.4496 2.112 5.0824 6.4832 5.8312 10.2824.4144 2.1056.5736 4.1672-.084 6.2392-4.828 6.1744-41.2496 24.4112-49.7112 25.4248-3.724.4456-7.62.332-10.6888-2.088-1.8528-1.4608-2.8504-3.4512-3.0952-5.7824-.232-2.2112.168-4.8528.3368-7.0712l.236-1.7456c1.1776-10.4112-.9672-20.5896-1.9888-30.9392q-1.2992-14.2192-1.096-28.4968c.2648-15.6816 2.2152-30.4912 5.4424-45.8048 1.5336-7.276 4.5392-15.144 4.8944-22.5608.3264-6.7952-2.112-15.2192-3.176-22.048-1.428-9.172-2.516-18.3432-3.6016-27.56l-1.152-10.3384-12.9712 7.0112c-6.3072 4.1072-16.248 8.7712-20.1752 15.2152l.2432.704c1.4624 4.1336 4.0504 7.5488 6.2608 11.2944 5.228 8.86 6.9872 18.488 2.5968 28.1096q-.6752 1.4864-1.5232 2.8824-.848 1.3952-1.8568 2.68-1.008 1.284-2.1624 2.4384-1.1544 1.1552-2.4384 2.164c-8.2992 6.504-18.8816 11.2896-28.1792 16.3128-19.7536 10.6728-40.2056 22.5608-61.356 30.224-9.2392 3.3472-19.7104 4-28.7808-.2704-9.3288-4.3912-17.9736-10.4336-27.08-15.2816-14.0184-7.4624-28.519-14.0864-42.746-21.128-7.3106-3.6176-14.956-8.3744-22.7528-10.7704-3.1155-15.692-2.501-31.3144-.435-47.0608 1.3198-6.6 2.8112-13.8456 5.467-20.0392 2.3324-5.44 7.0774-10.3768 7.9749-16.312 1.3791-9.1192.4439-24.3064.392-34.1464l-.1703-55.388c-.0136-10.3736-.387-20.8936.1559-31.2504.037-.5016.0452-.2304-.1011-.9104-.3756-1.7448-6.353-4.0168-8.1088-5.1752l-.4024-.2712.076-13.6264q22.6318-12.2072 45.1258-24.6672.0592-17.9688-.4264-35.9304c4.9112-3.7848 11.0064-6.6528 16.3944-9.7312q13.3856-7.8216 26.892-15.4312c9.4416-5.668 19.1904-10.7992 28.6376-16.4624 11.8208 5.3792 22.8592 12.7824 34.5872 18.4704 9.7232-6.7776 20.8872-12.0768 31.3728-17.5856 7.6784 4.0192 15.4472 8.0576 22.832 12.5968 6.0264 3.2888 13.048 6.324 18.6184 10.2568 6.3416 2.7072 12.408 6.6672 18.576 9.8336 1.3016-3.072 2.508-6.2976 4.4824-9.0072 4.448-6.1056 10.944-7.0368 17.8936-8.0744-4.9272-3.4408-9.4416-7.8328-11.572-13.5832-1.5008-4.048-1.7288-8.6544.1792-12.6168 4.2656-8.8536 12.8792-8.4768 20.8384-11.2728.1416-.0496.2824-.1024.4232-.1544l.956-.0096c1.252.2488 1.7632.3968 2.6904 1.3392.8592.8728 2.5784 1.1256 2.952 2.4112 10.9472 3.912 23.9368 4.2864 35.4856 3.4432l2.2608.0224c5.7624-.6864 11.3848-1.6248 16.8824-3.5352 3.1048-.8496 6.2472-2.6224 9.4096-3.6232 1.1264.1288 1.7632.0928 2.8816-.2344-.2912 4.0736-.9608 8.124-1.5368 12.1648-.28 4.6792-1.6776 11.1688.216 15.5104 1.0752.6288 1.8264.5296 3.0112.4424l1.1056.4376c.0528.5432.14 1.132.152 1.6752-1.9464 2.4976-3.6848 4.9224-6.2968 6.7648q-.4192.3888-.8728.7368-.4536.348-.9376.652-.484.304-.9952.5616-.5104.2568-1.0424.4656-.532.2088-1.0816.3664-.5496.1576-1.1112.264-.5616.1056-1.1312.1584-.5688.0528-1.1408.052c-5.2432-.0344-10.2288-2.7224-14.1384-6.0248-2.8 6.0472-5.4424 11.9824-7.116 18.4592q7.5832 7.3248 15.6912 14.0632c3.4488 2.8264 15.208 10.6168 16.9792 13.1352 1.1936.9064 2.1352 1.648 3.596 2.0408 4.0664-3.7032 6.752-10.6904 9.3896-15.524 7.7912-14.2792 14.9904-29.7416 23.452-43.5472 6.3512 4.744 14.1344 8.3272 21.048 12.2816q20.96 12.1672 42.0888 24.0376c-2.2288 5.24-5.352 10.336-8.0488 15.3608 1.3128 1.2744 2.3984 2.5944 3.484 4.0656 4.4824-2.988 9.2656-5.6032 13.9208-8.3144q4.296-2.2904 8.5584-4.6432c55.5584-29.676 110.0384-61.3872 165.5648-91.136-14.6528-15.1744-29.6384-36.2088-42.836-53.036l-35.344-45.6168c-7.2464-9.3136-14.7632-18.4104-21.7664-27.9096-4.436-6.016-24.5104-12.9032-26.224-17.3944-.9288-2.4328-.7712-7.4778-.708-10.1142.0248-1.0213.1568-2.0388.3248-3.0453 6.7208-4.939 14.8712-8.6706 22.1392-12.7949C581.5128 48.0714 597.3 38.64 613.52 30.6906Z"/>
  <path fill="#F3F4EF" d="M384.0792 395.4328c2.4248 2.0232 3.848 4.896 5.1912 7.6904-1.3056.0984-2.1888.1272-3.4256-.332-1.7752-1.7944-1.5568-4.9608-1.7656-7.3584Zm183.3864-44.3184c1.3568 0 2.7048.1192 4.0536.26 1.94.2032 3.3088.3496 4.5952 1.9224.1072 1.5472-.2944 1.972-1.0152 3.3128l-1.796-.6304c-2.0688-.736-5.8928-1.6688-6.9072-3.7968l1.0696-1.068Z"/>
  <path fill="#281E30" d="M244.4432 287.2008c6.0264 3.2888 13.048 6.324 18.6184 10.2568l-.2624.6368c-3.5808-1.5376-6.912-3.4904-10.5488-4.9184 2.3376 1.2992 4.932 2.5144 7.068 4.1136l.296 1.0848c-5.536-2.4808-10.8624-5.916-16.1328-8.9368l.9616-2.2368Z"/>
  <path fill="#A4C6C9" d="M686.0512 413.1824c2.6336.012 6.5256.5696 8.4888 2.5744.7192.7344.608.9944.5272 1.9336-.8984.9272-1.5376 1.3944-2.7008 1.9544-2.616-.7648-7.752-1.92-9.192-4.276.6144-1.4192 1.5184-1.5192 2.8768-2.1864Zm-79.0384-48.0056c2.3064-.1728 4.3608-.2208 6.6304.4008 2.5704.7032 5.6752 1.5824 7.0904 4.02-.0768 1.3336-.1272 1.5656-.8552 2.6792-3.4208-.7792-7.0552-1.6672-10.288-3.0472-1.4008-.5984-2.6536-1.1608-3.2616-2.6376l.684-1.4152Z"/>
  <path fill="#281E30" d="M57.956 456.9904c-1.7106-2.6136-1.1045-34.0448-1.2126-39.2672-.9425 12.4144.037 25.1456-.4013 37.6208-.538-10.6848-.232-21.444-.1819-32.1416.0248-5.2728-.4044-10.74-.0735-15.9808.0907-1.4376.3513-2.7976 1.0337-4.0744.5622 3.2696.2916 6.8192.3082 10.1408.0492 9.8808-.7627 20.6344.3965 30.3824l.098.7656c.052 4.1688.2485 8.3912.0329 12.5544ZM658.608 271.092c-.0248-1.6376-.0176-3.1832.7752-4.6648 1.4224-2.6608 4.2312-3.408 6.9128-4.1696 1.0488.1888 1.7768.3112 2.7032.8752-.8768.1872-1.8936.2984-2.7152.6456-2.5192 1.1184-4.612 2.0656-5.7808 4.7472.0728 1.4288.2592 2.356 1.38 3.3704 1.3024 1.1776 3.6536 1.7152 5.308 2.2592-1.8984.3208-4.28-.1408-5.816.8648.1184 4.3248-1.1272 14.12.9104 17.484 2.5608 2.0296 6.1272 2.5296 9.32 2.1744 1.0632-.1176 2.8928-.4824 3.5688-1.4016 1.7224-2.344.7048-8.716.9008-11.668 1.5712.9296.6888 3.3744 1.8904 4.7752l-.3592-.8648.304.7408c0-1.196-.2264-3.18.3664-4.236.084-.1504.18-.2936.2704-.44l.2728 5.4872c.3776 2.7112 1.284 5.9464-.5792 8.2904-.5512.6936-1.3048 1.216-2.024 1.72-2.8664.8664-5.6248 1.3112-8.6272 1.2616-2.7112-.0456-5.4536-.6168-7.3272-2.7408-3.5136-3.9808-1.64-13.6392-1.3376-18.664.4576-1.9888.0384-3.8856-.3168-5.8464Z"/>
  <path fill="#F9827A" d="M661.3752 275.02c1.1408.6832 2.3136 1.1288 3.604 1.4512 4.188 1.0448 7.5032.1672 11.128-1.9656-.0512 2.3408-.2272 4.7728-.032 7.1032-.196 2.952.8216 9.324-.9008 11.668-.676.9192-2.5056 1.284-3.5688 1.4016-3.1928.3552-6.7592-.1448-9.32-2.1744-2.0376-3.364-.792-13.1592-.9104-17.484Z"/>
  <path fill="#A4C6C9" d="M58.4316 488.7552c2.4266 1.1336 4.7291 2.788 7.0014 4.2152.2072 15.7064.5426 31.5296.1932 47.2312-.043 1.9376.012 2.7736-1.4401 4.1536l-5.7455 2.488-.009-58.088Z"/>
  <path fill="#F3F4EF" d="M461.78 362.0016c2.5016-7.228 11.064-26.3896 15.5424-31.636 1.1184.604 1.4384 1.8312 1.9208 2.9392.9544.3584 1.3904.8048 2.0992 1.5064-.8632 2.6376-1.2176 5.152-1.5048 7.9064 1.504.7744 2.8128 1.3488 3.8072 2.7872.6232 2.0352.0624 3.9472-.1424 6.0128 2.316 1.4232 4.7296 2.78 6.968 4.3168-.1232-.004-.2472-.0048-.3704-.012-2.228-.1248-3.584-1.368-5.212-2.7624l-1.4512-.1888-.0872 1.2912c1.2832.6784 2.9768 1.0824 3.6696 2.3496l-.1248.2624c-1.4904-.6288-2.8672-1.5592-4.4704-1.2152-.7152.9976-1.2184 1.9568-1.7208 3.0752-.3984-1.6584.7768-2.74.1848-4.4728l-.1808-.036c-.0872.5376-.1008.752-.308 1.3112-.4912 1.3208-.956 1.9056-2.1976 2.4568q-3.0208 4.7568-5.9768 9.5544c-3.4848-3.02-5.972-4.276-10.4448-5.4464Z"/>
  <path fill="#281E30" d="M479.2432 333.3048c.9544.3584 1.3904.8048 2.0992 1.5064-.8632 2.6376-1.2176 5.152-1.5048 7.9064 1.504.7744 2.8128 1.3488 3.8072 2.7872.6232 2.0352.0624 3.9472-.1424 6.0128 2.316 1.4232 4.7296 2.78 6.968 4.3168-.1232-.004-.2472-.0048-.3704-.012-2.228-.1248-3.584-1.368-5.212-2.7624l-1.4512-.1888-.0872 1.2912c1.2832.6784 2.9768 1.0824 3.6696 2.3496l-.1248.2624c-1.4904-.6288-2.8672-1.5592-4.4704-1.2152-.7152.9976-1.2184 1.9568-1.7208 3.0752-.3984-1.6584.7768-2.74.1848-4.4728l-.1808-.036c-.0872.5376-.1008.752-.308 1.3112-.4912 1.3208-.956 1.9056-2.1976 2.4568 1.2304-2.7928 3.0328-6.08 3.1208-9.1808.0376-1.3096-.1608-1.7536-1.0632-2.6608-1.4136-.14-2.728-.0864-3.8248-1.1016-1.1512-3.5184 1.5192-8.3472 2.8088-11.6456Z"/>
  <path fill="#A4C6C9" d="m57.9932 399.46 7.957 4.3568c.063 20.708.252 41.4392.0488 62.1448-2.645 1.432-5.3316 2.8152-7.9357 4.3184-.0108-4.3936.175-8.912-.1073-13.2896.2156-4.1632.0191-8.3856-.0329-12.5544.4043-14.9656.0895-30.0032.0701-44.976Z"/>
  <path fill="#F3F4EF" d="M844.224 164.2872c.4-.0104.496-.0328.944.0728 2.112.4904 5.648 2.4272 6.88 4.2288-.896 1.2992-56.8768 32.472-63.6888 36.4824-2.4936-.9368-5.2656-3.0088-7.7096-4.2616l42.8544-24.4184c6.808-3.9112 14.328-7.5696 20.72-12.104ZM613.3392 34.4727c2.9624.7785 5.636 2.5807 8.2264 4.1508-14 8.4007-28.7904 15.8834-43.14 23.7165-7.024 3.8344-15.3608 7.4303-21.3856 12.696-2.5336-1.6963-5.1616-3.2534-7.7664-4.8377 7.3544-4.8011 15.2656-8.962 22.9024-13.2997 13.528-7.6841 27.2656-15.4302 41.1632-22.4259ZM375.1096 256.2536c.2256 1.0696.4936 2.132.5432 3.2272l-.0992.4448c-2.572 11.9152-1.5464 13.4304-7.9448 24.5912l-.784 1.4272c-2.772-2.9216-5.0376-6.368-7.5232-9.54l1.1312 6.3216c-2.864 6.9672-6.5256 13.24-8.5008 20.5952-6.1576-2.4216-12.4024-4.3744-18.7376-6.272 4.1456-1.8512 8.2048-3.6632 11.8376-6.4424 10.7792-8.248 11.6264-18.2256 13.1952-30.8176 5.7624-.6864 11.3848-1.6248 16.8824-3.5352Z"/>
  <path fill="#A4C6C9" d="M50.1176 395.4152c1.8837.816 3.6238 1.964 5.382 3.0184.4376 22.3376.0446 44.7288.0342 67.0736l.3546 80.0544-5.386-2.4792q.222-73.8344-.3848-147.6672Zm95.924 52.0736 4.8752 2.5808.2 88.0808c.096 21.7856.4656 43.6152-.0232 65.396-1.8856.1104-3.5824-1.2048-5.1352-2.1304-.4632-51.2536-.4656-102.6776.0832-153.9272ZM58.547 475.9624c9.73 5.2896 80.3914 44.3992 84.6794 44.812-.4264 3.2408-.176 6.732-.1768 10.0064-6.6448-2.996-12.9824-7.1552-19.44-10.58l-41.836-22.0936c-7.894-4.1896-15.678-8.6952-23.7405-12.5472.4228-3.1944.4545-6.3816.5139-9.5976Zm105.6018 38.8696c16.1464-9.4704 32.8824-18.032 49.2824-27.0592 17.4288-9.5944 34.6496-19.6432 52.0264-29.3496l-.136 8.8344-3.9224 2.2008c-9.776 4.3792-19.2232 10.0976-28.612 15.2664L190.9808 507.8c-9.044 5.0736-17.9664 10.4512-27.1456 15.268.0048-2.6512-.256-5.6568.3136-8.236ZM266.7016 388l.5064.0888c.9776 1.7648.344 6.3104.2904 8.44-34.5616 17.9736-68.3256 37.6696-102.6488 56.1296l-.5176-.236c-.8288-2.2224-.392-5.6408-.376-8.0448q16.6088-8.78 33.1008-17.7784c23.168-12.9408 46.0888-26.3696 69.6448-38.5992Zm-113.0512 63.836q3.7104 2.096 7.376 4.2696c-.4712 16.7768.9072 140.8648-.4544 144.1944-.3048.7448-.5696.6656-1.264.9808l-5.44 3.2984c.5088-50.912-.5288-101.8312-.2176-152.7432ZM42.1478 379.2152c8.2732 3.2808 16.3195 8.4496 24.1116 12.7448l38.3766 21.0528 37.4864 20.4432c6.2896 3.4768 12.7592 6.8 18.7488 10.7744.0888 3.0216.3592 5.9152.8136 8.904-4.4848-3.2136-9.772-5.656-14.6456-8.2536l-24.4704-13.0464-80.7118-43.7336c-.0284-2.9592.1616-5.9288.2908-8.8856Z"/>
  <path fill="#F3F4EF" d="M309.6256 293.6568c11.6456 2.6568 31.8832 7.0768 41.8584 13.4328 5.8416 3.7208 10.9584 8.8336 15.9232 13.624l-7.5488 2.344c-12.632 4.5776-23.9552 5.9456-36.5872.1264-6.4624-2.9768-12.5728-8.048-14.9856-14.9432-1.7608-5.0336-.9544-9.8952 1.34-14.584Zm480.748-73.1592c-3.3208-5.3272-10.0552-8.6088-11.1056-15.2416l.5648-.7688c.1936-.0024.388-.0152.5824-.008 3.2832.124 8.4688 4.5072 10.4504 6.9544 9.6784 13.6632 20.8544 26.5784 31.2864 39.6944l47.712 60.8088c1.48 1.8872 9.544 10.9944 9.952 12.5232.096.3664-.04.7568-.064 1.1352-4.144-2.9784-9.288-4.3704-12.784-8.2512-3.384-3.7488-7.528-12.308-12.016-14.2168.712 1.2216 1.328 2.2928 2.352 3.2792l-.096.4376c-1.328-1.4456-2.672-3.108-4.68-3.5128-1.096-2.9576-16.176-20.7728-18.992-22.74-2.752-1.9224-6.336-3.1456-9.376-4.628-3.552-1.7336-6.984-3.7176-10.432-5.6608l-.8-1.8832 1.08-.7624c5.064 2.5136 12.704 5.3528 16.72 9.3016-.656-5.372-36.656-45.456-42.6192-55.3424.2176-1.9384-1.7928-2.5488-1.9128-4.4248 1.0408 1.0624 2.1056 2.3072 3.4552 2.9728.2376.1176.4816.2224.7224.3336Z"/>
  <defs>
    <linearGradient id="a" x1="1015.4827" x2="1032.0515" y1="334.8684" y2="323.8137" gradientUnits="userSpaceOnUse">
      <stop offset="0" stop-color="#3B1C2C"/>
      <stop offset="1" stop-color="#2E2F49"/>
    </linearGradient>
  </defs>
  <path fill="url(#a)" d="M985.136 277.02c.272-2.423-2.241-3.186-2.391-5.531 1.301 1.328 2.632 2.884 4.319 3.716.297.147.602.278.903.417 3.186 3.043 5.773 7.155 8.484 10.664q6.789 8.706 13.749 17.273c18.57 23.064 37.88 45.964 55.46 69.785 1.38 1.868 2.77 3.238 3.03 5.565.89 1.527 1.66 2.866 2.94 4.099l-.12.547c-1.66-1.807-3.34-3.885-5.85-4.391-1.37-3.697-20.22-25.966-23.74-28.425-3.44-2.403-7.92-3.932-11.72-5.785-4.44-2.167-8.73-4.647-13.04-7.076l-1-2.354 1.35-.953c6.33 3.142 15.88 6.691 20.9 11.627-.82-6.715-45.82-56.82-53.274-69.178Z" transform="scale(.8)"/>
  <path fill="#F3F4EF" d="M68.7994 405.5504c5.875 2.7872 11.6054 6.4136 17.3526 9.516q18.3432 9.7392 36.4472 19.9152-9.8904 5.2144-19.7016 10.5744c-11.3232 6.2096-22.916 12.0968-34.0271 18.668-.1202-19.5312-.522-39.1488-.0711-58.6736Z"/>
  <path fill="#ECBBB2" d="M480.7032 358.6344c.5024-1.1184 1.0056-2.0776 1.7208-3.0752 1.6032-.344 2.98.5864 4.4704 1.2152 9.8872 6.4016 21.0992 11.5304 31.48 17.1504 3.2768 1.7736 7.3576 3.4888 10.228 5.8272 15.3536 7.0856 30.1272 16.0288 45.1352 23.8816q31.212 16.1616 61.9672 33.1768c6.728 3.7224 13.6104 7.2064 20.2272 11.1224-.0072 3.4584.16 7.0144-.096 10.4608l-.2744.1856c-9.0104-5.1384-18.3096-9.8736-27.4232-14.8392q-33.364-18.2472-67.0936-35.8088-17.4304-9.4816-35.0144-18.6744c-5.1736-1.6192-10.6808-5.7184-15.4968-8.3672L478.3648 363.54c.8992-1.6072 1.632-3.2056 2.3384-4.9056Z"/>
  <path fill="#F9827A" d="M480.7032 358.6344c.5024-1.1184 1.0056-2.0776 1.7208-3.0752 1.6032-.344 2.98.5864 4.4704 1.2152 9.8872 6.4016 21.0992 11.5304 31.48 17.1504 3.2768 1.7736 7.3576 3.4888 10.228 5.8272-3.156.5424-12.9616-6.4504-16.556-8.116-2.2992-1.0648-5.0088.0392-7.22-1.5896-.8504-.6264-1.5144-1.508-2.0656-2.3936-2.172-3.4912-15.2896-9.42-19.7272-11.5472-1.0576 2.3704-2.0776 4.7672-3.1968 7.1072 9.7784 5.476 19.7968 10.5368 29.6496 15.8792 5.5736 3.0216 10.992 6.3792 16.5984 9.3192l-.0544.8456c-5.1736-1.6192-10.6808-5.7184-15.4968-8.3672L478.3648 363.54c.8992-1.6072 1.632-3.2056 2.3384-4.9056Z"/>
  <path fill="#F3F4EF" d="M547.0744 72.2607c17.3376 11.2057 36.2952 20.5577 54.28 30.7521l113.1744 63.6336c20.5472 11.5224 41.4968 22.6464 61.6128 34.8984.0768 4.708.68 7.216 3.3712 11.056-5.316-2.2568-10.1344-5.9272-15.2384-8.6472q-28.832-15.4048-57.2064-31.6392l-160.004-90.296.0104-9.7577Z"/>
  <path fill="#F9827A" d="M476.668 366.3144c12.0936 6.0192 24.096 12.5072 35.9072 19.0624q-.1752 12.2248-.0056 24.4496-.2344 14.9544.036 29.908c-19.0848-11.0104-39.3816-20.0392-58.016-31.8328 7.8456-13.5208 13.1104-28.7584 22.0784-41.5872Z"/>
  <path fill="#F9827A" d="m515.0648 387.028 53.872 28.4072c1.744 1.2104 2.5536 1.54 2.9216 3.764.8288 5.004-.268 10.1968.1568 15.2568-.3992 12.2536-.1504 24.5152-.3208 36.772-13.7952-7.5336-27.8336-14.5672-41.6592-22.0192-2.9328-1.5816-13.0128-8.1648-15.58-8.684l-1.4424-.044-.4072-.7464q-.2704-14.9536-.036-29.908c.3024-3.9496.896-7.9144.7904-11.8792l-.0176-.5736c.4712 1.624.3408 3.2808.3176 4.9568l.472-5.5392q.1752 3.5184.4296 7.032c.5448-5.5512.4336-11.2176.5032-16.7952Z"/>
  <path fill="#281E30" d="M512.5696 409.8264c.3024-3.9496.896-7.9144.7904-11.8792l-.0176-.5736c.4712 1.624.3408 3.2808.3176 4.9568l.472-5.5392q.1752 3.5184.4296 7.032.072 18.3512-.1064 36.7016l-1.4424-.044-.4072-.7464q-.2704-14.9536-.036-29.908Z"/>
  <path fill="#F3F4EF" d="M574.7616 101.1592c5.8648 3.2568 12.9936 6.3992 18.108 10.6952 7.0264 5.9024 12.608 17.2504 19.008 24.42l.2992.3296c5.7696 8.1224 12.3368 15.796 18.4544 23.6712l37.1624 48.212c1.544 2.0328 3.0864 4.0584 4.72 6.0216l1.6248 1.1496q5.4216 2.7432 10.7264 5.7056l152.1432 84.9048c12.776 7.1448 25.64 14.1024 38.344 21.3888 4.256 2.444 10.312 5.0976 13.776 8.4488-1.744 1.8832-5.176 3.0008-7.6 3.7432-4.056-3.6024-13.648-7.704-18.784-10.4408l-46.592-24.8216q-71.1464-39.2152-141.876-79.1728c-1.4424-.7384-2.7704-1.9712-4.0528-2.9664-5.9448-6.2152-11.1176-13.2168-16.4864-19.9288-7.876-9.8464-15.7728-19.64-23.4648-29.6328q-27.972-35.696-55.5104-71.7272ZM125.5288 436.5416q8.672 4.8024 17.4648 9.3784.5976 22.348.4336 44.704c-.0152 7.6432-.6496 15.7872.0024 23.3688-.0824 1.2784-.044 2.3768-.8104 3.4656-5.8184-1.2152-40.4504-21.3632-48.3416-25.6008-11.6144-6.2376-24.1754-11.8192-35.2397-18.9416l45.4965-24.9888c6.9416-3.7984 14.2608-7.2608 20.9944-11.3856Z"/>
  <path fill="#A4C6C9" d="m247.432 328.552.3288.2952c1.2664 3.8288.2824 44.084.2464 51.2368q-24.6064 13.976-49.4856 27.4608c-7.5464 4.1072-15.02 8.6352-22.8208 12.2328-1.5656-2.3904-.7008-44.8336-.6888-50.9056 7.5504-5.5096 17.5176-9.82 25.7792-14.4072 15.5544-8.6344 30.824-17.756 46.6408-25.9128Z"/>
  <path fill="#F9827A" d="M650.8728 144.5032c5.3968 1.5224 15.7856 8.4392 21.0416 11.3816l59.2896 33.3848c13.4648 7.5208 27.0872 14.7504 40.5096 22.3536 5.0384 2.8544 11.164 5.5992 15.5656 9.3208.272.2304.5536.448.8296.672 5.9632 9.8864 41.9632 49.9704 42.6192 55.3424-4.016-3.9488-11.656-6.788-16.72-9.3016l-6.656-3.7168q-4.104-2.3688-8.2656-4.6224c-7.6976-4.8328-15.9464-9.0728-23.8872-13.5104-13.7576-7.6888-27.5784-15.4592-41.5992-22.6576-7.0792-4.42-14.6008-8.356-21.9776-12.2592-4.1856-2.4736-9.0888-4.196-12.7544-7.4248-5.0808-4.4736-11.5224-13.9776-16.072-19.632l-31.9232-39.3304ZM573.708 418.2856c7.4704 4.6264 15.5888 8.2944 23.3664 12.3856q19.3032 10.1504 38.428 20.6344c6.1336 3.304 13.3608 6.1848 18.9144 10.3624.6304 17.876.2344 35.9136.1816 53.8024-6.0976-2.8208-11.8848-6.2688-17.8216-9.4064-10.6672-5.6376-21.3936-11.1136-31.984-16.8984-10.2872-5.6192-21.136-10.7512-31.0256-17.0216-.5528-9.3664-.04-18.824-.2952-28.2128.3256-8.5328.2016-17.1064.236-25.6456Z"/>
  <path fill="#3C3C68" d="M601.3256 472.5872c1.0864-4.4312 1.9008-9.3072 4.4752-13.1552 1.5888-2.3768 4.0488-4.3616 6.9368-4.8032 2.7144-.416 6.7736.1872 9.0592 1.7448 2.6248 1.304 4.3856 3.2568 5.7288 5.8368 2.7576-.2448 5.3376.8744 7.404 2.6856 2.144 1.8784 3.4536 4.984 3.4808 7.8192.0216 2.2744-.808 4.6192-2.056 6.4928-1.3056 2.4168-2.9536 3.6032-5.588 4.4136-2.7384.8432-6.7896 1.0928-9.36-.4328-1.7304-1.0264-3.3672-3.8784-4.7208-5.4264-1.1128.5288-2.1424 1.088-3.1848 1.7472-1.092.696-2.1728 1.2832-3.4168 1.6736-1.384.4344-2.752.2944-4.008-.448-2.9104-1.7184-3.896-5.1104-4.7504-8.148Z"/>
  <path fill="#F3F4EF" d="M618.4712 457.6704c2.2648 1.5056 3.9256 2.6984 4.7584 5.368-.072 1.4072-.3032 2.2832-1.3696 3.2744-1.8448 1.7144-4.8256 2.5808-7.308 2.3048-1.4272-.1584-2.108-.668-2.996-1.7456-.2368-1.8896.404-2.5752 1.2424-4.2272 1.9144-1.0712 3.596-3.6376 5.6728-4.9744Zm6.7072 11.3808c.496-.0208.9928-.0376 1.4888-.0112 1.3528.0744 2.7008.6216 3.5856 1.6752.908 1.0808 1.1128 2.4352.888 3.7976-.564 3.42-2.5856 5.1136-5.28 6.904-.16-.0296-.3216-.0488-.4792-.0888-1.7328-.4424-3.5208-1.8304-4.3936-3.3872-.7128-1.272-.744-2.6848-.3704-4.068.6856-2.5384 2.4568-3.5472 4.5608-4.8216Z"/>
  <path fill="#281E30" d="M601.3256 472.5872c1.0864-4.4312 1.9008-9.3072 4.4752-13.1552 1.5888-2.3768 4.0488-4.3616 6.9368-4.8032 2.7144-.416 6.7736.1872 9.0592 1.7448l-1.0768.4344-1.112-.6128c-.2408.7792-.1944.3664-.0984 1.244l-1.0384.2312c-2.0768 1.3368-3.7584 3.9032-5.6728 4.9744l-2.7328 2.0176c.0264-.832.0448-.9144.3792-1.6088.6416-1.332 1.4568-2.5472 1.2488-4.076-1.1264.0504-1.824.0936-2.6416.968-.996 1.0656-2.3032 4.9408-1.9408 6.3728.2248.888.636 1.7544 1.036 2.576 1.7528 1.1304 3.5624 2.1048 4.7816 3.8392.1456.92.388 1.5216-.1416 2.3744-.568.916-2.0104 1.6976-2.9192 2.2976 1.9344.2584 2.6384-.3664 4.292-1.208l-.2192.4608.9592-.8112c.1776 1.7624-.712 2.1432-1.3992 3.6624-1.092.696-2.1728 1.2832-3.4168 1.6736-1.384.4344-2.752.2944-4.008-.448-2.9104-1.7184-3.896-5.1104-4.7504-8.148Z"/>
  <path fill="#F3F4EF" d="M608.1472 468.8944c1.7528 1.1304 3.5624 2.1048 4.7816 3.8392.1456.92.388 1.5216-.1416 2.3744-.568.916-2.0104 1.6976-2.9192 2.2976-.0768-.0184-.1536-.0384-.2312-.0552-1.5664-.3496-3.0232-.664-4.0008-2.068-.7224-1.0368-.9336-2.1216-.6144-3.348.392-1.5064 1.8976-2.2912 3.1256-3.04Z"/>
  <path fill="#A4C6C9" d="M85.4368 318.6184c6.492 2.8216 12.78 7.0912 18.9 10.6808 23.0904 13.3168 46.4808 26.1016 69.5224 39.5048-.8432 5.7616-.424 11.9768-.4152 17.8096.0176 11.4608.1968 22.9376.048 34.3968-1.7456-1.02-3.4776-2.0832-5.2528-3.0496q-41.6544-22.356-82.7128-45.7888l-.0896-53.5536Z"/>
  <path fill="#F3F4EF" d="M382.0912 407.0968c-4.0952 1.704-13.7728 6.1472-17.8688 4.7656-1.2536-6.5704-.432-14.3784-.284-21.0736.352-15.9624-.54-33.8824 4.0408-49.312 1.1768-3.9616 3.168-9.0848 7.1-11.0288 2.0824-1.0288 3.6976-.8232 5.8376-.124 1.9736 1.5496 3.82 3.14 5.6264 4.8816 16.5912 21.8816 29.82 46.6008 42.0272 71.1064l-.1104-.2016 1.9392.9944c.4536-2.136.2592-3.6928-.6208-5.6696-.104-.2352-.2-.4728-.3064-.7064-.064-.1408-.1368-.2768-.2048-.4152 11.912-9.9104 22.068-23.6784 31.0208-36.2232 2.7968 1.1024 7.9208 2.4656 9.2856 5.3304.5472 1.1496.076 2.336-.3816 3.4416-2.3056 5.5616-5.5832 11.0016-8.3752 16.352-6.4016 12.2672-19.372 39.0304-32.6256 43.9616-1.9328.7192-3.8656.3056-5.6736-.58-9.0144-4.4192-20.7064-19.6808-26.8824-27.6256-2.2168-2.852-4.5352-6.804-7.2472-9.1288-4.7672-1.7712-7.1256-9.9216-11.0992-13.1776l-.7448.6072.9216.1712c2.3384 3.6408 5.3432 8.4088 4.2496 12.9224-.0624.2584-.148.5104-.2224.7648-.208 3.2256.3336 6.7424.5984 9.9672Z"/>
  <path fill="#281E30" d="M366.1776 363.5944c7.7512 9.72 14.564 21.9256 22.2104 32.2472-4.7672-1.7712-7.1256-9.9216-11.0992-13.1776l-.7448.6072.9216.1712c2.3384 3.6408 5.3432 8.4088 4.2496 12.9224-.0624.2584-.148.5104-.2224.7648-1.4328-11.6568-11.34-21.9744-15.3152-33.5352Z"/>
  <path fill="#F3F4EF" d="M424.056 279.764c12.2024 6.4624 24.1136 13.3168 36.1296 20.1168 7.4168 4.1968 15.2168 8.1632 22.2728 12.9272-5.6344 11.9672-12.2512 23.5568-18.3192 35.3088-2.5552 4.948-4.2672 10.4952-7.256 15.1848-5.0896 7.9888-11.5744 15.3712-17.784 22.5048-3.4952 4.0328-7.1832 7.952-11.324 11.328-10.7944-20.4352-22.6672-39.9504-35.3336-59.2704 4.2488-6.352 7.8176-13.2112 11.5232-19.8904q10.6216-18.8016 20.0912-38.2096ZM163.6248 456.4368c17.7448-10.268 36.272-19.4944 54.284-29.3344 16.516-9.0224 32.6792-18.844 49.5488-27.1872.3256 11.7272-1.0504 23.596-.9904 35.3704-.8072 6.6032-.4768 13.3112-.9128 19.9464L163.976 511.8072c-.9856-5.8768-.36-12.7696-.3584-18.7328l.0072-36.6376ZM221.7112 277.7c7.4432 3.428 14.5944 7.7752 21.7704 11.7376 5.2704 3.0208 10.5968 6.456 16.1328 8.9368 6.1472 4.4976 13.92 7.6288 20.56 11.5048-9.3888 23.8128-12.288 48.7512-12.164 74.2728-26.8296 13.5984-53.056 28.9744-79.3664 43.572-8.5264 4.7312-17.0256 9.7248-25.704 14.156l-70.936-39.1232c-15.8691-8.5768-32.5325-16.6416-47.8573-26.1312 13.483-6.7992 26.3303-15.4128 39.9925-21.7384-.056 3.2952-.972 15.3936.7304 17.7712 1.5024 2.0968 73.6848 41.5952 82.9752 46.4048 1.9232 1.2304 4.1584 2.1744 6.2104 3.1912 7.748-3.9296 15.2624-8.3728 22.8968-12.524l52.6248-28.792.0904-55.7104c-12.9864-8.6056-27.668-15.548-41.4128-22.8784-5-2.6664-10.5696-5.1176-15.2072-8.3672 9.3704-5.7208 19.0736-10.9392 28.664-16.2824Z"/>
  <path fill="#A4C6C9" d="M155.4136 275.0896c5.2216 1.9376 10.0776 5.0296 14.9616 7.6968q11.084 6.0016 22.1072 12.1152l33.6048 18.256c7.5456 4.0456 15.8016 7.7992 22.7384 12.8264-6.4576 4.456-13.8584 7.8632-20.7072 11.696l-31.564 17.8424c-7.3232 4.0824-14.8408 7.948-22.0056 12.2912l-69.376-39.0272c-6.4768-3.8136-13.4632-7.3944-19.5104-11.8464l.0192-.7848c4.0608-4.7144 34.488-20.84 42.4296-25.412l27.3024-15.6536Z"/>
  <path fill="#F3F4EF" d="M154.0064 299.4256c.3944-1.1968.3456-1.5896 1.4216-2.3064.536.028.9528.0288 1.4528.2528 2.9288 1.3144 5.9616 3.688 8.8512 5.2648l42.6744 23.0832c3.3192 1.8368 8.924 4.0528 11.5216 6.616-4.0768 1.6216-4.48-.7352-8.16-1.6048-.2616-.0616-.5256-.112-.7888-.1672.6048 1.7304 3.4928 2.2992 4.7176 3.6408-5.6432 4.508-13.4896 7.9944-19.844 11.4424-7.0704 3.836-13.9808 7.8944-21.2056 11.448-3.656-.8424-56.2808-31.5264-62.8944-35.4536 3.2632-3.2024 9.6256-5.944 13.7768-8.0008.6496-.3216 2.516-1.3584 3.1712-1.3704.6432-.012 7.912 4.9504 9.592 5.5312l.0544-.6984c-2.3464-2.1408-5.5536-3.0336-7.9904-5.06.4984-.8072 1.056-1.2568 1.804-1.82 3.604-2.7112 17.6168-11.3816 21.8456-10.7976Z"/>
  <path fill="#F9827A" d="M270.372 395.692c-.432-4.1192.1936-8.7792.3184-12.956.5192-17.424 1.3952-34.0248 5.7368-50.9968 2.1-8.212 8.7-31.2376 16.0464-35.228 2.9704-1.6136 10.0384-4.4656 13.3176-3.3992l.1688 1.2c-2.0728 4.5744-2.296 9.0032-.832 13.816 2.2776 7.4904 8.224 13.2712 14.9904 16.8808 18.9224 10.0952 31.596 3.5024 49.9464-1.9664l4.5128 3.2488c-2.2888 1.9744-4.7256 3.9136-6.4192 6.4496-4.7576 7.1256-5.7416 19.316-6.3576 27.836-.5312 7.3472-.504 14.7264-.7944 22.0856-.4184 10.6032-1.6448 22.8224-.1872 33.3416 9.5152-.5024 19.4896-3.9392 27.5384-9.0328q.2728 11.0296.9832 22.04c-12.3656 2.8384-24.3136 7.3392-36.7528 9.8896-6.452-2.6664-12.584-6.5424-18.7144-9.8856l-30.732-16.516c-10.7784-5.748-22.4976-10.2048-32.7696-16.8072Z"/>
  <path fill="#F9827A" d="M270.372 395.692c10.272 6.6024 21.9912 11.0592 32.7696 16.8072l30.732 16.516c6.1304 3.3432 12.2624 7.2192 18.7144 9.8856 12.4392-2.5504 24.3872-7.0512 36.7528-9.8896.7352 5.1672 1.152 10.3712 1.8688 15.5328l2.4976 19.4352q1.1864 7.5104 2.5136 14.9968c.1624.7632.2496 1.8008.556 2.5.5512 4.6064 2.0312 9.492 2.212 14.0584q2.0104 8.5352 3.8304 17.1128c.1064.4008-.0328.8216-.0984 1.228-7.4744 3.572-35.6208 6.6352-45.2112 7.0048-6.068.2336-11.932-.228-17.6936-2.248-6.1224-2.1456-11.8696-5.5888-17.5584-8.6656-9.8768-5.3408-19.628-10.884-29.4464-16.3272-7.0088-3.8848-18.4424-8.5984-24.0736-13.868-1.1008-10.3088-.2888-21.2696-.2048-31.636-.088-5.3536.3416-10.7488.6256-16.0952l.8456-19.2384c.2808-5.6992.3064-11.4048.368-17.1096Z"/>
  <path fill="#F3F4EF" d="M269.1584 432.04c9.108 2.8728 18.3288 8.904 26.788 13.372 18.7064 9.8808 37.3472 20.0832 56.2448 29.5848 13.688-3.7784 27.6576-7.9392 41.516-11.0176q1.1864 7.5104 2.5136 14.9968c-2.7744 1.148-5.9904 1.7808-8.8904 2.584-10.032 2.7792-27.012 6.1976-35.6696 10.1584-8.3808-5.1536-17.6248-9.3448-26.3464-13.9408l-56.7816-29.6424c-.088-5.3536.3416-10.7488.6256-16.0952Z"/>
  <path fill="#F9827A" d="M270.372 395.692c10.272 6.6024 21.9912 11.0592 32.7696 16.8072l30.732 16.516c6.1304 3.3432 12.2624 7.2192 18.7144 9.8856 12.4392-2.5504 24.3872-7.0512 36.7528-9.8896.7352 5.1672 1.152 10.3712 1.8688 15.5328l2.4976 19.4352c-13.8584 3.0784-27.828 7.2392-41.516 11.0176-18.8976-9.5016-37.5384-19.704-56.2448-29.5848-8.4592-4.468-17.68-10.4992-26.788-13.372l.8456-19.2384c.2808-5.6992.3064-11.4048.368-17.1096Z"/>
  <path fill="#F3F4EF" d="M270.372 395.692c10.272 6.6024 21.9912 11.0592 32.7696 16.8072l30.732 16.516c6.1304 3.3432 12.2624 7.2192 18.7144 9.8856 12.4392-2.5504 24.3872-7.0512 36.7528-9.8896.7352 5.1672 1.152 10.3712 1.8688 15.5328-13.3352 3.0264-26.1088 7.7896-39.6 10.3048-7.8336-3.6056-15.3544-7.9312-23.0072-11.9056-7.56-3.9256-15.256-7.5592-22.7104-11.6896-7.9128-4.3856-15.8832-8.56-23.9296-12.692-3.8704-1.988-7.8336-4.412-11.9584-5.76.2808-5.6992.3064-11.4048.368-17.1096Zm584.236-225.1384c.936.5312 1.616 1.1064 2.32 1.9296 8.784 10.3088 99.336 124.416 99.656 125.7432.04.1808.072.364.112.5456-3.064 2.6776-7.752 4.6872-11.312 6.6952l-29.128 16.1344c-6.256 3.4824-16.912 10.5368-23.2 12.8808-3.104-3.032-6.304-5.8424-9.232-9.064-.392-.4288-.256-.2808-.816-.7184-.512-2.2288-86.1736-111.1264-90.6056-114.696l-1.092-2.0624c1.3208-3.7832 54.5776-31.1776 63.2976-37.388Zm-180.8264 58.3488c11.8904 6.4688 23.5232 13.4232 35.3176 20.0664 34.0832 19.1976 68.2744 38.5544 102.8368 56.8616 8.928 4.7256 64.768 33.1552 66.736 36.18-3.336 2.8152-8.112 4.7624-12.008 6.8632-9.112 4.9144-18.32 9.6808-27.36 14.7112l-143.7648 78.1408c-4.6976 2.5712-33.4248 19.2944-36.5312 19.4304l-.52-.9984c.2392-3.3888.1632-6.8448.22-10.244 11.1592-4.4464 21.916-10.9424 32.4352-16.7472l47.708-26.4344c38.364-21.2368 77.5248-41.2416 115.4768-63.1936 1.24-.716 2.376-1.2664 3.248-2.4392-3.792-3.0088-10.072-5.264-14.48-7.5008-8.92-4.5296-17.712-9.2872-26.648-13.792-3.304-2.9792-13.488-7.5096-17.8-9.8608L759.384 288.3c-10.6096-5.8224-21.0096-12.0208-31.64-17.7952-18.1448-9.8568-36.8336-19.5152-54.2656-30.5832l-108.484 59.6816-29.2992 16.0504c-4.008 2.1968-9.2736 4.3536-12.7504 7.2264-2.1256 1.0368-6.1584 2.4632-7.1688 4.7744-.0696.1608-.0952.3376-.1432.5056 2.3824 3.5072 93.4944 51.1528 103.1488 56.3576 13.8472 7.4648 27.5112 15.2616 41.3888 22.6696 11.6504 6.2192 25.6648 12.132 36.436 19.42-5.2504 1.8112-10.4736 5.6376-15.3616 8.356q-10.4304 5.7048-21.0408 11.068c-9.24-3.8944-17.7112-9.0744-26.4304-13.9664-7.5216-4.2184-15.2408-8.144-22.8352-12.2384l-72.0736-38.332c-16.0336-8.564-32.0616-17.7144-48.3944-25.66-2.2384-1.5368-4.652-2.8936-6.968-4.3168.2048-2.0656.7656-3.9776.1424-6.0128-.9944-1.4384-2.3032-2.0128-3.8072-2.7872.2872-2.7544.6416-5.2688 1.5048-7.9064 7.708-5.2216 16.3592-9.5152 24.5064-14.0352l47.488-26.108 82.7872-45.5224c12.5-6.7696 24.9-13.988 37.6576-20.2432Z"/>
  <path fill="#3C3C68" d="m577.136 384.2304-.9976.1112c-3.156-2.2904-7.512-2.98-10.4592-5.5464-.7344-.64-.5688-.5048-.6496-1.3456 1.0624-.8976 2.1032-.8464 3.4232-.9344l.388.2304c2.6288 1.5264 7.1744 2.44 8.4688 5.3472l-.1736 2.1376Zm-19.856-2.0848c.6008-.6864.7536-1.2168 1.7048-1.3328 4.1104-.4976 11.2888 5.5656 16.0328 6.604-1.152.9384-2.0904 1.7152-3.5048 2.2064-3.6-1.7904-11.7992-4.8256-14.2328-7.4776Zm31.592 4.4368c5.9552.3728 25.4832 13.1376 32.5856 16.4128-3.3416 1.5456-6.5248 3.2104-9.696 5.0832l-4.7568 2.5184c-7.6808-4.5504-19.1888-9.504-25.68-14.9064.4312-2.312 1.184-4.4448 1.9704-6.6536 1.8032-.9144 3.7192-1.6552 5.5768-2.4544Z"/>
  <path fill="#F3F4EF" d="M588.452 389.4552c6.384 1.6472 18.3064 9.5136 24.66 13.0128l-4.9024 3.0144c-.2256.1056-.44.24-.6768.316-1.6368.5288-16.9728-8.156-18.9216-9.5544-1.696-1.2184-2.5368-1.9752-2.8688-4.0376.6256-1.5136 1.324-1.932 2.7096-2.7512Z"/>
  <path fill="#3C3C68" d="M646.2656 412.2504c.1552-.0056.3104-.0176.4656-.0168 4.0808.0256 9.7528 1.0832 12.6632 4.1216 3.0936 3.2312 2.6512 6.7752 2.5888 10.92-3.7448 2.516-7.4096 3.8856-11.8368 4.6448-6.3416-.1928-11.4024-1.6784-16.0848-6.0784-.2336-3.4408-.7072-6.6272 1.6544-9.5072 2.4504-2.9888 6.9504-3.6104 10.5496-4.084Z"/>
  <path fill="#A4C6C9" d="M642.056 416.2344q1.1232-.1464 2.2544-.2096c3.6992-.1936 9.32.28 12.14 2.8472l-.0552 1.0384c-1.1184 1.0936-2.2328 1.3048-3.7192 1.6848-3.916.1064-10.1728.3656-13.6672-1.6184-.864-.4912-.6872-.508-.952-1.3656.9216-1.3816 2.516-1.7784 3.9992-2.3768Z"/>
  <path fill="#3C3C68" d="M505.5816 333.9992c11.3624 5.9624 22.584 12.2816 33.856 18.42 5.224 2.8456 11.092 5.3792 16.0248 8.6096 1.7984.7352 3.4664 1.0448 4.1704 3.0568.384 1.096.0376 2.2016-.5768 3.1328-2.3632 3.584-9.2288 6.2496-12.824 8.7584q-5.6152-2.9936-11.0912-6.2368c-7.6216-3.4712-18.7376-9.5488-25.3392-14.464 1.2256-2.136 2.964-4.4168 3.1936-6.904l-2.5384.9248-5.0648 3.9968c-5.884-2.4496-11.5248-5.4664-17.256-8.248 5.392-4.616 11.8384-6.932 17.4456-11.0464Z"/>
  <path fill="#F3F4EF" d="m503.72 339.536 4.2728 1.852c2.0584 1.2288 4.0992 2.5056 6.2096 3.6432-2.4152 1.0664-5.0168 2.0392-7.1856 3.5504-3.464-1.696-6.4856-3.6312-9.5152-6.0192l6.2184-3.0264Zm15.8624 7.5928c10.344 5.1264 20.4224 10.8032 30.8176 15.812.9056.4 1.6544.824 2.4632 1.3944l-.3008.9088c-1.848 1.1264-3.8512 1.9216-5.836 2.7744l-24.72-13.3208c-2.0128-1.3472-4.2536-2.2664-6.452-3.2656 1.248-1.5192 2.6552-2.8976 4.028-4.3032ZM624.692 40.5206c5.7528 2.5168 11.2288 5.7964 16.7456 8.7934q13.8752 7.452 27.5712 15.2286l54.116 30.1942q41.9936 22.9976 83.4752 46.9056c6.408 3.6288 31.792 16.9704 34.76 20.4576-2.224 2.6928-7.688 4.7576-10.768 6.516l-33.5816 19.2536c-6.0472 3.4376-13.3088 6.6744-18.6416 11.1176-11.8728-6.072-23.3824-13.3224-35.0496-19.828q-46.9904-26.0616-93.6696-52.676L584.168 89.7728c-5.832-3.3072-18.0528-8.8472-22.396-13.217l.056-.8182c4.1552-3.8918 12.8232-7.4813 17.9376-10.3383 14.94-8.3464 29.7768-16.9162 44.9264-24.8787Z"/>
  <path fill="#A4C6C9" d="M679.1208 268.6256c10.4976 6.2584 21.2896 11.9792 31.94 17.9672 11.1328 6.2592 22.1232 12.7904 33.4696 18.6592-7.7264 4.1472-68.896 37.568-70.424 39.4688.2736 1.3016 1.7224 2.0336 2.8184 2.744 6.6448 4.3032 14.7344 8.8528 22.0408 11.884.2712-.2632.6288-.3136.9824-.428.5312.4448 1.204 1.1256 1.8264 1.412 1.2968.596 2.8752-.1816 4.0456-.788.924-.4784 4.1712-2.0616 4.4432-2.9112-2.6512-.5176-4.1808 1.7-6.688 2.2848-1.1784.2752-1.504-.1928-2.4248-.8008l.0768-.348c-1.256-2.0544-19.6624-10.8208-23.0624-12.5856 8.3696-4.9288 17.1248-9.3368 25.6152-14.0728 14.4072-8.0352 28.6184-16.2784 43.2-24.0208q13.7512 7.368 27.408 14.9104l.1792.432 1.0472.4c-.6552 1.1704-2.1224 1.8752-3.2288 2.6192-6.8808 4.6352-15.3 7.7144-21.812 12.7496-8.712 4.9-37.0032 19.1784-42.3192 24.9472q14.0832 8.3536 28.6792 15.7728c15.768-8.5128 31.4384-17.428 47.0144-26.2904 4.6976-2.6736 9.8256-4.624 14.3992-7.5024 1.196-.7528 2.0928-1.3992 2.6448-2.724-.48-1.0408-.584-.988-1.6368-1.4896-6.3464 2.5856-12.4912 6.804-18.5152 10.1264q-22.0328 12.4016-44.2936 24.388c-8.2936-4.0544-16.4288-8.6768-24.408-13.3128 12.98-8.088 26.8704-14.9568 40.052-22.776q13.4248-7.1192 26.66-14.5856c10.4512 4.8136 20.3984 11.088 30.5176 16.5896 6.488 3.5256 14.056 6.6648 20.088 10.8136l.592 1.0768c-7.272 5.272-20.928 11.6856-29.344 16.2856l-55.6128 30.0912q-16.6624 8.7048-32.8824 18.2096c-4.3648 2.5392-9.0304 4.9544-13.2032 7.7888.3264-3.6064.352-7.0848.208-10.7016-1.9592-1.6104-4.2648-3.0608-6.7024-3.8112-4.9792-1.5328-9.2304-.1664-13.5864 2.1888-6.256-3.0968-12.4992-6.2576-18.4168-9.9688 1.5384-1.292 2.6984-2.4648 3.876-4.1008-.268-1.952-.78-4.5184-2.812-5.4712-.776-.364-.9648-.0712-1.7176-.7376-.7032.0592-1.4088.1024-2.112.1664-2.4608.2232-4.3128.1232-6.74-.3472l-1.3632.4632c-2.6488-.592-5.7632-1.9728-7.9184-3.6192-.0176 1.2104.1 2.592-.2776 3.7368-6.9216-3.908-14.1136-7.3368-20.8496-11.5696 1.5408-1.064 3.0208-2.2184 4.5152-3.3472q.0872-2.2592.1264-4.5192c.0384-2.6856.0192-4.9024-2.0312-6.8752-3.4112-3.2832-9.2544-5.34-13.956-5.284-2.0144.024-4.1976.324-5.5912 1.928-1.5224 1.752-.6872 6.0808-.548 8.2952-7.7608-2.9232-15.1576-7.2696-22.476-11.1568.4496-2.5736.4424-5.3384.5936-7.952-2.6232-2.0384-5.2272-3.7504-8.5088-4.4736-4.1288-.9104-7.3624.1944-10.7288 2.4624q-11.0856-6.1488-22.3392-11.9832c12.9424-6.148 25.4208-13.6624 37.9176-20.6816l48.9696-27.2168c7.4264-4.1592 24.2304-15.1 31.9672-16.9112l.4208 2.8152c-.3024 5.0248-2.176 14.6832 1.3376 18.664 1.8736 2.124 4.616 2.6952 7.3272 2.7408 3.0024.0496 5.7608-.3952 8.6272-1.2616.7192-.504 1.4728-1.0264 2.024-1.72 1.8632-2.344.9568-5.5792.5792-8.2904l-.2728-5.4872c.3784-4.3096.452-8.636.5736-12.9584Z"/>
  <path fill="#F9827A" d="m647.4672 314.7736 3.6216 2.3976 4.7992 2.4368c-5.5336 1.8672-9.5704 5.6536-15.5208 6.2408-.4176-.1952-.5952-.4288-.9032-.7632.6704-1.5536 2.2384-2.3696 3.5808-3.3136-.4712-.5624-.988-.8888-1.584-1.3088 2.7888-1.6128 4.3992-2.9112 6.0064-5.6896Z"/>
  <path fill="#ECBBB2" d="m647.4672 314.7736 3.6216 2.3976c-2.1336 1.5392-5.416 4.2128-8.044 4.6008-.4712-.5624-.988-.8888-1.584-1.3088 2.7888-1.6128 4.3992-2.9112 6.0064-5.6896Z"/>
  <path fill="#ECBBB2" d="M633.5176 313.6896c1.828-1.0944 4.0672-2.3264 6.1584-2.7448 2.092-.4192 2.7816.1024 4.4112 1.2512l.6288.6376 2.7512 1.94c-1.6072 2.7784-3.2176 4.0768-6.0064 5.6896-2.0968 1.0624-3.488.8584-5.7136.8536-1.556-.0032-2.56 1.1616-3.604 2.1616l-1.0648-.0712c-1.1328-.564-3.036-1.2744-3.8328-2.2624-.6448-.7976-.4576-1.4728-.4136-2.4192 1.3056-2.4152 4.348-3.728 6.6856-5.036Z"/>
  <path fill="#F9827A" d="M633.5176 313.6896c1.828-1.0944 4.0672-2.3264 6.1584-2.7448 2.092-.4192 2.7816.1024 4.4112 1.2512-3.0016 1.5432-6.24 3.6056-9.5064 4.4408l-.6-.1936c.0056-.1792.0144-.3584.0176-.5376.0216-1.0192.036-1.3104-.4808-2.216Zm11.1984-.856 2.7512 1.94c-1.6072 2.7784-3.2176 4.0768-6.0064 5.6896-2.0968 1.0624-3.488.8584-5.7136.8536-1.556-.0032-2.56 1.1616-3.604 2.1616l-1.0648-.0712.0608-1.0056c1.188-1.2544 2.1992-2.5496 3.1992-3.9568 4.392-1.3728 7.1736-2.084 10.3776-5.6112Z"/>
  <defs>
    <linearGradient id="b" x1="815.0772" x2="816.7955" y1="479.2738" y2="493.4453" gradientUnits="userSpaceOnUse">
      <stop offset="0" stop-color="#182239"/>
      <stop offset="1" stop-color="#333A5B"/>
    </linearGradient>
  </defs>
  <path fill="url(#b)" d="M802.151 487.089c.119-2.627.123-4.175 2.159-5.967 2.28-2.007 4.932-2.464 7.895-2.174 6.103.599 12.682 4.044 17.621 7.519.72 4.204.863 8.294.654 12.554-.335-2.44-.975-5.648-3.515-6.839-.97-.455-1.206-.089-2.147-.922-.879.074-1.761.128-2.64.208-3.076.279-5.391.154-8.425-.434l-1.704.579c-3.311-.74-7.204-2.466-9.898-4.524Z" transform="scale(.8)"/>
  <path fill="#A4C6C9" d="M651.0024 392.8272c-2.324-1.08-5.444-2.3096-6.4592-4.8392.2824-.9424.3136-1.1048 1.272-1.5576 2.572-1.2136 6.8536-.292 9.3952.7008 1.868.7296 3.388 1.8224 4.8056 3.2288.3592 1.2584.2632 1.392-.1616 2.648-.7032.0592-1.4088.1024-2.112.1664-2.4608.2232-4.3128.1232-6.74-.3472Z"/>
  <path fill="#281E30" d="M701.2272 357.7696c.7568.2032 1.4688.3016 2.244.0872 5.7136-1.5792 16.0272-8.4928 21.6104-11.6816q15.1344-8.58 30.3576-16.9992c3.3072-1.836 8.9344-5.8528 12.5624-6.432 1.2736-.2024 2.0744.9688 2.94 1.7376-16.852 7.5072-33.164 17.652-49.1496 26.884-6.1176 3.5328-12.392 7.8816-18.868 10.6856-1.3752-.8392-2.668-1.7376-3.9584-2.7024.2712-.2632.6288-.3136.9824-.428.5312.4448 1.204 1.1256 1.8264 1.412 1.2968.596 2.8752-.1816 4.0456-.788.924-.4784 4.1712-2.0616 4.4432-2.9112-2.6512-.5176-4.1808 1.7-6.688 2.2848-1.1784.2752-1.504-.1928-2.4248-.8008l.0768-.348Z"/>
  <path fill="#3C3C68" d="M597.0992 335.2624c-.8128-.7864-1.6088-1.5336-1.9424-2.6472-.44-1.4712-.364-3.1672.4016-4.5168.976-1.7224 2.8256-2.9864 4.7032-3.5248 2.4296-.6976 4.2912-.5088 6.4872.7024 3.7192 1.1864 7.428 3.708 10.8504 5.6024 7.7152 4.2696 15.3304 8.7288 23.0856 12.924l66.9248 35.9448c8.288 4.536 19.7536 9.5528 26.8272 15.4192-4.2584 2.7976-8.6664 5.2816-13.1064 7.7752-13.9896-8.7872-29.2376-16.26-43.8488-23.9944q-27.3528-14.508-54.4576-29.4752c-8.5792-4.6736-17.6672-9.0272-25.9248-14.2096Z"/>
  <path fill="#F9827A" d="M598.0248 332.9352c-.0944-.9384-.2456-1.9512-.188-2.892.0824-1.3632.7008-1.8888 1.6376-2.7784 1.848-.6416 3.4896-.4824 5.3976-.3544 4.5696 4.0128 15.6312 9.0016 21.3664 12.116q24.6368 13.6632 49.5728 26.772c17.7376 9.4792 35.0352 20.1168 53.0264 29.0872l-7.7544 4.2952c-11.0744-5.696-21.8552-11.9504-32.7952-17.8992l-58.8888-31.8328c-6.976-3.7872-24.968-15.1024-31.3744-16.5136Z"/>
  <path fill="#A4C6C9" d="M47.564 395.9248c1.4442 14.9888.3189 32.056.3618 47.3248l.1616 101.8496c3.2183 1.78 6.4999 3.4936 9.6486 5.392 3.5883-1.6424 7.3617-3.148 10.82-5.0392l-.1231-34.5544c.0006-5.3328-.4603-11.2424.2489-16.5048l13.8814 7.4352q20.5536 11.0432 41.248 21.8216c6.34 3.3024 12.7056 7.0624 19.2408 9.9344l.4216 48.7984c.0304 6.3296.9152 14.5432-.3 20.6888 2.9544 1.9992 6.0136 3.8656 9.0232 5.7816l11.732-6.4528-.0464-16.7736c-.5656-19.8128-.2424-39.6672-.0784-59.4848 23.1712-12.2416 46-25.3536 68.924-38.06 10.752-5.9592 21.4648-12.3672 32.5704-17.632-.0056 3.6008.1352 7.1888.2824 10.7856 2.4632 2.6984 5.416 4.6328 8.5376 6.4816 1.2696 13.604 1.3024 27.2096 2.9824 40.8192l-12.9712 7.0112c-6.3072 4.1072-16.248 8.7712-20.1752 15.2152l.2432.704c1.4624 4.1336 4.0504 7.5488 6.2608 11.2944 5.228 8.86 6.9872 18.488 2.5968 28.1096q-.6752 1.4864-1.5232 2.8824-.848 1.3952-1.8568 2.68-1.008 1.284-2.1624 2.4384-1.1544 1.1552-2.4384 2.164c-8.2992 6.504-18.8816 11.2896-28.1792 16.3128-19.7536 10.6728-40.2056 22.5608-61.356 30.224-9.2392 3.3472-19.7104 4-28.7808-.2704-9.3288-4.3912-17.9736-10.4336-27.08-15.2816-14.0184-7.4624-28.519-14.0864-42.746-21.128-7.3106-3.6176-14.956-8.3744-22.7528-10.7704-3.1155-15.692-2.501-31.3144-.435-47.0608 1.3198-6.6 2.8112-13.8456 5.467-20.0392 2.3324-5.44 7.0774-10.3768 7.9749-16.312 1.3791-9.1192.4439-24.3064.392-34.1464l-.1703-55.388c-.0136-10.3736-.387-20.8936.1559-31.2504Z"/>
  <path fill="#F3F4EF" d="m68.6818 494.3928 13.8814 7.4352c-3.4943 3.5504-9.0611 5.2288-13.472 7.4216-.1894-4.9544-.1227-9.9016-.4094-14.8568Zm384.1702-83.2q72.1864 38.3672 143.8976 77.616c19.1456 10.4272 38.5264 20.3792 57.6104 30.924.4816 22.3056-.0472 44.7472-.0872 67.0648l.084 116.98c-5.4392-2.1936-11.0144-5.9392-16.1864-8.764l-42.6112-23.6808-100.2944-54.04c-14.3728-7.684-28.5256-15.8144-43.028-23.2488-.5856-41.044-.084-82.1512-.1152-123.2016-.0072-9.9832-1.168-53.8144.7304-59.6496Z"/>
  <path fill="#3C3C68" d="M504.7648 466.652c6.6872 1.8736 21.9216 11.38 28.764 15.088 23.5056 12.74 46.936 25.7696 70.7584 37.9048.1152 5.0528 1.4056 18.4104-.816 22.3936-18.5632-8.8984-36.6608-19.3168-54.8376-28.992-14.6992-7.8248-30.1448-15.0496-44.2296-23.9176-.3112-4.2248-1.2184-19.2224.3608-22.4768Z"/>
  <path fill="#F9827A" d="M507.5696 471.4912c31.5136 16.1456 62.1632 34.1624 93.856 49.8912q.1 6.4008.416 12.7944c-.0856.824-.2496 1.5496-.432 2.356-.1448.0376-.2848.0952-.4328.1128-2.7616.3304-7.3096-3.208-9.6368-4.6448-12.284-5.5192-24.0976-12.7568-36.0632-18.988q-16.0392-8.268-31.8872-16.896c-5.3408-2.8944-11.0648-5.6512-16.0832-9.0824-.5264-5.156-.0464-10.3816.2632-15.5432Z"/>
  <path fill="#3C3C68" d="M504.528 511.7752c14.4104 6.008 28.228 15.1072 41.98 22.5904 19.1128 10.4016 38.6248 20.0576 57.564 30.792l.0408 86.8656c-7.3152-2.8352-20.7888-11.3296-28.3496-15.3848q-35.8992-18.824-71.3832-38.4216c.84-28.7824-.1632-57.6464.148-86.4416Z"/>
  <path fill="#F3F4EF" d="m957.896 301.8232.928.5696c.784 11.1216.224 22.6448.272 33.8128l.248 65.6672.032 86.0032c.04 16.2312.552 32.5792.072 48.7952-.04 1.3088-.168 2.3688-.672 3.5824-2.048 2.456-106.32 56.9512-117.736 63.0952l-182.5232 99.2544c-.0192-.02-.0416-.0376-.0568-.0616-.3832-.5984-.496-1.0464-.5168-1.7536-.448-15.56-.0632-31.2352-.0368-46.8072l.0048-85.1896-.2688-68.6624c.0096-11.5-.3512-23.1592.3288-34.6376 9.5-5.6288 19.6328-10.348 29.3488-15.6032l56.4928-30.7536L877.6 346.2456c14.128-7.684 28.168-15.596 42.36-23.148 12.544-6.6736 26.2-13.272 37.936-21.2744Z"/>
  <path fill="#3C3C68" d="M936.856 351.3336c.312-.08.592-.1584.928-.1984 1.456-.176 1.496-.1056 2.608.7784.744 1.632.936 3.2848.984 5.06.088 3.9424-.32 7.904-.336 11.8488l-.016 30.0928.024 91.2344c0 6.436.936 32.6232-.496 37.1688-.496.6056-61.248 32.7088-67.784 36.2136L684.2544 666.6832c-1.1976.096-1.52.3104-2.5136-.4184-1.032-5.9752-.3472-13.1272-.3344-19.2456l.052-37.184q-.3608-39.2968-.012-78.5936c.0528-10.0176-.6584-20.2384-.0944-30.2176.1448-2.548.6504-6.9408 2.5016-8.8144 7.0624-7.148 44.7896-26.1752 55.6408-32.2184q75.0656-42.0376 150.7776-82.8928c6.912-3.7024 42.928-22.216 46.168-25.3464.136-.136.272-.2792.416-.4184Z"/>
  <path fill="#F3F4EF" d="M935.888 355.3336c.664-.032 1.256.0472 1.912.1264.456 7.296.032 14.644.056 21.9512l.08 46.484.056 64.1192c0 11.1496.288 22.3832-.048 33.5248-.04 1.1888-.224 2.0312-.656 3.1344-2.36 2.8064-93.448 50.1944-104.848 56.3904l-89.6208 49.8712c-19.1328 10.6024-38.5744 20.676-57.5488 31.5608l-.2624.0104c-1.2544-1.7336-.2776-22.98-.2384-27.0008l.1976-92.5336c-.016-13.328-.5864-26.7864-.18-40.0992.0864-2.8088.2752-7.2912 2.3176-9.3896 5.1704-5.3096 15.676-9.7432 22.3208-13.4368l37.8512-20.8824 91.8752-50.604c15.712-8.6296 31.28-17.5064 47.144-25.8744 6.752-3.5656 46.312-24.0224 49.176-26.9104.136-.144.272-.2944.416-.4416Z"/>
</svg>
