<svg xmlns="http://www.w3.org/2000/svg" viewBox="0 0 1024 819">
  <path fill="#3C3C68" d="M515.612 499.3232c.4728.076.892.1488 1.3488.296 2.3496.7592 7.1776 2.5824 8.1456 4.996.4344 1.0816-.0176 1.6736-.4008 2.6824-2.6992-.0896-7.18-2.2536-8.9272-4.3864-.9368-1.144-.4088-2.2768-.1664-3.588Zm-80.6776.7232c.5584.0208 1.0088.0808 1.5344.284 1.0296.3976 1.1856.376 1.6496 1.3792-.8208 2.5408-5.5152 4.4952-7.7984 5.7464-.084-.0112-.1696-.0088-.2512-.0328-1.3112-.3832-1.9784-.6088-2.6584-1.7736.0544-.184.0968-.3728.1632-.5528.836-2.276 5.3344-4.0312 7.3608-5.0504Zm-57.2288 31.5272c.832-.0544 1.7472.1944 2.5728.3296l.484.724c-.0608.2288-.1088.4608-.1824.6856-.8152 2.4928-5.2352 4.3976-7.3904 5.5776-.172-.016-.3472-.012-.5168-.0472-1.22-.256-2.0904-.592-2.788-1.5904 1.1416-2.9616 5.1312-4.3168 7.8208-5.6792Zm42.5632-23.5168c1.028-.0064 1.9128.4432 2.8488.8216.2592.532.588.7704.2976 1.3616-1.1376 2.312-5.4568 3.92-7.6584 5.0088-.3768-.0264-.4904-.024-.904-.1128-1.1264-.2432-1.56-.4256-2.2112-1.3672 1.2048-2.9624 4.9272-4.304 7.6272-5.712Zm-13.2136 7.4776c.1976.1.4096.1752.5928.2992 1.06.7176 1.3152 1.4144 1.3376 2.5992-1.9432 2.6648-5.4856 3.6216-8.4656 4.6984l-1.4424-1.0904c-.2192-.7392-.4456-.9272-.1192-1.6776.9784-2.2456 5.9288-3.8696 8.0968-4.8288Zm-15.088 8.0032c1.0272.0456 1.824.3648 2.7872.6928.3104.6632.5.664.2056 1.4136-.9248 2.3496-5.668 4.1536-7.7984 5.204-.9752-.136-1.72-.5464-2.6032-.9584-.256-.5096-.5696-.7288-.296-1.3032 1.0392-2.1832 5.5664-3.944 7.7048-5.0488Zm53.0648 66.9976c.4936-.044.9936-.0736 1.4888-.0296 2.4384.2184 7.2088 2.3824 8.5056 4.4448.704 1.12.2152 1.8128-.1416 2.94-.4024.052-.6168.0864-1.0568.1016-2.2768.0776-6.1488-2.4696-7.7768-4.0264-1.2376-1.1832-1.036-1.84-1.0192-3.4304Zm102.4048-153.5008c.384.0016.4928-.0128.9184.0792 1.292.28 1.7688.5696 2.512 1.6224l-.4272 1.3192c-1.7608 1.984-3.8744 2.968-6.2032 4.1464-1.0664-.0776-1.9528-.6392-2.8872-1.1168-.3184-.6168-.5768-.7528-.3688-1.4672.6304-2.1608 4.5888-3.7032 6.456-4.5832Zm-177.188 110.688c2.6416.6408 7.8096 2.652 9.2616 5.056.5928.98.0536 1.9776-.2048 3.0112-2.8496-.3632-7.4904-1.7856-9.1224-4.2896-.788-1.208-.2088-2.4888.0656-3.7776Zm105.5832 58.8512c2.696.7552 7.4328 2.6624 9.0408 4.9376.8336 1.18.3064 2.2984.0256 3.5712-3.1016-.4712-7.3288-2.9136-9.4112-5.22-.452-1.6392-.2624-1.7744.3448-3.2888Zm24.8096-115.8184c.2616.0544.5248.104.7856.164 2.644.6088 7.6976 2.8928 9.004 5.4072.456.8776-.0576 1.7928-.3064 2.7152-2.8344-.3208-7.2832-2.1432-9.1008-4.4424-1.0736-1.3576-.64-2.276-.3824-3.844Zm-72.9424-40.4248c.1968.024.3928.0432.5888.0712 3.0192.4336 6.6888 2.392 8.4888 4.8248.1576 1.5608-.1304 1.876-.8168 3.2408-3.0592-1.292-6.6088-2.3512-8.7984-4.96-.4232-1.6-.148-1.7352.5376-3.1768Zm58.616 32.4408c3.2304.3536 6.9768 1.9752 9.0936 4.4408.4528 1.676.0928 1.896-.628 3.4184-.1072-.02-.216-.0312-.3208-.0592-2.5456-.6776-7.276-2.3232-8.5368-4.7544-.5504-1.0616.0496-1.9912.392-3.0456Zm-122.9488 56.816c1.1696-.1872 1.7224.1008 2.7792.5408.4224.944.6232 1.1144.1736 2.1296-.8736 1.9696-2.7192 4.2456-4.7112 5.0584-1.1128-.5408-2.7-1.1304-3.5576-2.0296-.7152-.7504-.5816-1.0936-.5128-2.0408 1.4608-1.7424 3.8296-2.6376 5.8288-3.6584Zm66.708 41.8592c.2064.0432.4144.0832.62.1304 2.5552.5928 8.4488 3.3928 9.5728 5.6856.4464.9104-.0048 1.7696-.2496 2.68-3.5176-.46-7.556-2.7904-10.0672-5.1952-.5616-1.5584-.3448-1.7712.124-3.3008Zm77.1144-121.42c1.2104.3992 1.8456 1.1488 2.416 2.2152-1.1752 2.8344-5.6496 4.436-8.3056 5.8144-.0888-.02-.1824-.024-.2664-.0592-1.2232-.512-1.7336-.8672-2.2056-2.0696 1.1336-2.976 5.6928-4.5784 8.3616-5.9008Zm-57.5968 32.0152c1.0432-.1016 1.9016.0728 2.9264.2408l.4288.7496c-.0864.2584-.16.5216-.2592.7752-1.0416 2.6728-5.0928 4.308-7.4936 5.4656-1.2448-.124-2.1408-.3336-3.308-.7832-.2872-.8056-.3664-.5576-.088-1.264.9264-2.3464 5.6552-4.1528 7.7936-5.184Zm14.4856-8.5256c.2224.0056.4464-.012.6672.016 1.3536.172 2.2128.4528 2.9648 1.544-.0488.1856-.0856.376-.1472.5576-.7952 2.3544-5.8336 4.3616-7.9088 5.4112l-1.2216.3448c-1.08-.5464-1.0688-.6544-1.608-1.7552.9864-3.1368 4.56-4.5416 7.2536-6.1184Zm27.1056 131.3288c3.32 1.5032 7.5248 2.8392 9.7832 5.7984.264 1.6128-.1264 1.8784-.9008 3.2688-3.316-1.6184-7.2992-3.0728-9.6984-5.944-.2784-1.5792.0544-1.7664.816-3.1232ZM384.8264 555.868c1.132.156 2.0072.5272 3.0464.9912 2.268 1.012 6.3824 2.6288 7.14 5.2464.22.7616-.652 1.7048-1.0512 2.3536-3.352-.736-7.3544-3.0864-9.6984-5.5448-.4544-1.54-.136-1.6624.5632-3.0464Zm144.2304-48.3608c.1152-.0024.2304-.0072.3464-.008 3.1968-.0256 7.4 1.7888 9.5688 4.1696 1.14 1.252.9504 2.1152.9464 3.6936-3.0456-.06-6.9112-1.6888-9.2024-3.6944-1.556-1.3616-1.5976-2.2304-1.6592-4.1608Zm6.6344-63.5112c.2456.0992.5032.1712.736.2976 1.1024.5984 1.4992 1.3224 1.6696 2.4752-1.3392 2.8216-5.2808 3.9672-7.9712 5.0992-1.06-.0344-1.7944-.5752-2.6744-1.1032l-.1712-.9296c1.1312-2.792 5.8056-4.5192 8.4112-5.8392Zm-30.1024 179.9744c.4816-.0152.9672-.0136 1.4448.0592 2.5248.3864 8.4392 3.3192 9.74 5.5064.5296.8896.1584 1.7064-.0256 2.6488-3.1216-.0904-8.1376-2.4208-10.3616-4.6824-1.1056-1.1248-.84-2.0864-.7976-3.532Zm15.9968-171.9728c1.0472.1512 1.692.5472 2.6088 1.0368l.2784.976c-1.3624 2.9856-5.8416 4.564-8.6768 5.9552-.0288-.0032-.0576-.0016-.0856-.0096-.9888-.2888-2.0912-.5432-2.7032-1.4216.0048-.3544-.016-.504.1144-.872.9096-2.5648 6.2136-4.6168 8.464-5.6648Zm-80.5592 6.396c.2944-.004.5904-.0056.8848.0128 3.02.192 7.5928 2.4568 9.4256 4.8048.8904 1.1416.624 2.1776.5384 3.5136-3.1696-.4632-7.9472-2.2712-10.0616-4.6608-1.0552-1.1928-.8232-2.1984-.7872-3.6704ZM460.244 597.784c3.032.964 8.2568 2.6808 10.0616 5.4848.8368 1.3.1944 2.448-.1712 3.8048-2.9696-1.088-8.1272-3.0864-9.9664-5.8064-.7776-1.1504-.2224-2.2672.076-3.4832Zm-2.9008-130.7472c.1352.0352.272.0648.4048.1064 2.4752.7768 8.712 3.5456 9.8376 5.9648.4944 1.0632.0856 1.7112-.2256 2.7536-.3448-.024-.8296-.0416-1.1856-.1136-3.2904-.6624-7.5056-2.7624-9.5552-5.4552-.156-1.5552.0816-1.8792.724-3.256Zm-58.1568 97.4648c.384.0128.9232.0112 1.3208.0816 3.3144.5856 7.3632 2.7 9.4496 5.3544.3184 1.5256.0248 1.86-.552 3.2664-2.872-.4472-8.1584-3.052-9.9512-5.3672-.9432-1.2192-.5624-1.9744-.2672-3.3352Zm74.832-87.92c.2512-.0256.5024-.0584.7552-.0784 1.8792-.1528 3.5512.7032 4.8824 2.0032.9432.9216 1.1168 1.4944 1.1768 2.7736-1.0744 1-1.5152.8344-2.9432.9488-.8688.324-1.7808.688-2.7072.7912-1.212.136-2.7328-.172-3.6408-1.0288-.8272-.7816-.716-1.168-.7984-2.2432.6712-1.716 1.7456-2.2344 3.2752-3.1664Zm-59.436 96.396c.3608.0184.8504.0272 1.2224.0936 2.4408.4328 7.9016 2.5176 9.0664 4.916.6168 1.2704.1856 2.0824-.1368 3.3488-.2528-.0136-.5056-.0192-.7576-.0408-2.5976-.2232-7.9528-2.8032-9.4208-4.984-.8128-1.208-.3288-2.0784.0264-3.3336Zm77.5352-104.9168c1.0136.128 1.924.7184 2.7616 1.2592l.0464 1.1528c-1.3432 2.884-5.5504 4.5024-8.2384 5.796-1.3488-.3264-2.3272-.8352-3.1408-1.9904l.2072-1.152c2.1064-2.3264 5.5816-3.6696 8.364-5.0656Z"/>
  <path fill="#A4C6C9" d="M253.7672 548.6344c2.08.596 3.9848 1.8688 5.864 2.9248-9.4856 6.408-20.4648 11-30.4488 16.632-1.4592.6696-2.2008.9592-3.7944.688l-.6216-1.0608c.0192-.7832.0408-1.4688.3216-2.2096.5104-1.3504 1.3656-2.632 2.5144-3.5104 4.9856-3.8128 20.0424-10.876 26.1648-13.464Zm723.2568-172.016c-22.968-13.9824-47.072-26.316-70.768-39.0288-8.68-4.6592-18.56-8.8104-26.736-14.1984-1.856-1.2248-4.304-3.0616-4.872-5.3016-.248-1-.056-1.26.352-2.1472 1.48-.7944 2.656-.7504 4.264-.2656 2.4.7264 17.064 9.4456 20.688 11.3648 28.152 14.924 56.464 29.7488 84.208 45.4224 1.32.7464 3.088 1.7464 3.808 3.1224.528 1.0104.76 2.464.384 3.5456-4.288 2.7584-9.12 4.892-13.656 7.248q-9.144 4.8208-18.128 9.9256-20.592 11.5128-41.296 22.8096c-8.848 4.8728-17.616 10.1536-26.784 14.4032-1.744.8112-3.4.916-5.296 1.0416l-.488.46-4.92-2.3848c10.28-7.4112 23.44-12.9552 34.664-19.044 15.576-8.4552 30.816-17.5944 46.288-26.264 4.296-2.4072 15.352-7.416 18.288-10.7088ZM527.492 687.5992c-5.3912 3.9192-11.8504 6.9384-17.6984 10.1488l-36.5744 19.9424q-37.7776 21.0208-75.9288 41.3544c-16.2592 8.8672-32.4392 18.38-49.06 26.5216-2.6496 1.2976-3.8944 1.9864-6.7824.9448-5.3392-1.9264-10.5648-5.4176-15.5408-8.1872-7.004-3.8984-14.0904-7.6608-21.1488-11.4592l-81.5-43.4104-97.828-51.9264L89.18 652.5656c-5.1112-2.7216-11.1433-5.3008-15.7657-8.7376-1.1445-.8512-1.986-1.6208-2.5877-2.928l.3763-.7928c4.812-3.0912 88.6067-47.8608 89.7899-48.08 1.2072-.224 2.2496.104 3.1792.8832 1.1064.9264 1.6152 1.8384 1.8248 3.2392-.3384.8936-.7584 1.2128-1.5312 1.7216-5.8144 3.8272-12.688 6.7872-18.8944 10.0424l-37.504 19.884c-8.3408 4.3752-17.1944 8.4448-25.0448 13.636 23.1696 11.3176 45.5152 24.6168 68.3912 36.5256q96.8896 50.0896 192.3672 102.82l97.4376-52.6312c7.3208-4.0328 14.4296-8.4464 21.7728-12.4448 11.8248-6.4392 23.6408-12.9616 35.5448-19.2512 7.4392-3.9312 15.584-7.4928 22.5064-12.2456 2.1688 1.0784 4.408 2.0872 6.4496 3.3928Z"/>
  <path fill="#F9827A" d="M166.4624 492.8432c6.304 2.4872 12.4432 7.1728 18.312 10.6056 17.8752 10.456 35.6304 21.8744 54.1704 31.0864-12.9768 2.7896-25.8384 6.096-38.812 8.9272q.8176 2.4008 1.7264 4.7696.908 2.368 1.9064 4.7.9976 2.332 2.084 4.6248 1.0856 2.292 2.2584 4.5416 1.172 2.2488 2.4296 4.452 1.2568 2.2032 2.5968 4.3568t2.7616 4.2544q1.4208 2.1008 2.9208 4.1464 1.5 2.0448 3.0776 4.032 1.5768 1.9864 3.228 3.912 1.6512 1.9248 3.3744 3.7856t3.5168 3.6552q1.7928 1.7936 3.6528 3.5184 1.86 1.724 3.784 3.3768 1.924 1.652 3.9096 3.2296 1.9864 1.5784 4.0304 3.0792c49.4464 36.9032 119.7224 49.9496 180.028 41.2528l3.5768-3.204c9.0424-1.0696 18.3008-3.4368 27.008-6.0552-9.0624 6.1888-17.5536 13.5664-28.3384 16.3472-3.2336.8336-5.6384 3.3016-8.2952 5.2672-11.6096 7.0072-29.3352 12.4944-42.6 15.5864-47.9472 11.176-100.0152-2.0736-141.1816-27.8208-35.6432-22.2928-68.224-56.4192-77.9344-98.3392-16.3536 2.8664-33.0496 6.2032-49.1672 10.1568 3.9296-5.468 8.7032-10.6336 12.956-15.8808 14.2392-17.5736 29.1056-34.5152 43.02-52.364ZM621.944 172.2528c8.6176-.8992 17.9336-.4128 26.5672.1928 31.9296 2.2376 61.3952 10.5968 89.4048 26.204 42.2904 23.5632 71.796 65.8504 84.812 111.8312 7.328-1.2344 14.536-3.3456 21.792-4.976 7.232-1.6256 15.056-2.788 22.048-5.2264 0 .1528.016.3072 0 .4584-.136.9056-.68 1.5952-1.24 2.2872-7.288 8.94-15.456 17.292-22.896 26.1432l-18.968 22.7368c-4.08 4.884-8.176 10.6384-13.16 14.6216-17.9008-10.5392-36.48-19.8968-54.3336-30.504-5.18-3.08-10.34-6.1568-15.3544-9.5032 13.5104-2.448 26.6552-6.7192 40.2032-9.0088-8.5224-33.8792-38.1792-66.5016-67.2168-84.6288-44.3072-27.6592-98.0864-38.088-149.7064-31.6432-14.9376 1.8648-29.7736 5.608-44.4248 8.988q2.8088-2.0144 5.6832-3.9344t5.8112-3.7424q2.9368-1.8224 5.9336-3.5464 2.996-1.7232 6.048-3.3456t6.1568-3.1416q3.1048-1.52 6.2584-2.9344 3.1536-1.4152 6.3528-2.724 3.1984-1.308 6.44-2.5096 3.2408-1.2008 6.52-2.2928 3.2792-1.092 6.5936-2.0736 3.3136-.9824 6.6592-1.8528 3.3448-.8704 6.7168-1.6288 3.372-.7584 6.768-1.4032 3.3952-.6448 6.8104-1.176 3.4152-.5312 6.8464-.9488 3.4312-.4168 6.8744-.7184Z"/>
  <path fill="#A4C6C9" d="M124.9072 144.94c.5616 23.4264.1176 46.9616.1104 70.3984l-.0416 124.0048c-.0328 20.4184-.4856 40.9304.0352 61.3392l91.8368 49.4008 39.4768 21.1736c7.0968 3.7832 14.1736 7.8592 21.436 11.3104 5.9912-2.436 11.832-6.0064 17.5544-9.048l38.476-20.7824 60.9064-32.4936c11.5848-6.18 23.5376-12.1272 34.816-18.8152l-.0096-62.8872c7.772 2.8568 19.9072 10.9896 27.6312 15.2168l37.6664 20.3032c6.8768 3.7448 14.4576 7.3944 20.7184 12.0896.088 2.372.4632 5.2208.0912 7.5448-.2496 1.5568-1.2472 2.1952-2.4704 3.0328-7.3648 5.0408-15.86 9.0264-23.7528 13.188l-31.6864 16.8768-78.6656 42.3424c-18.8192 10.0216-37.672 20.0864-56.332 30.4q-11.6584 6.4256-23.4208 12.66c-4.54 2.4488-9.0512 5.2272-13.8096 7.2152-6.2264 2.6024-12.2728 3.5576-18.96 2.2632-9.6064-1.8592-37.3712-18.6328-47.572-24.2496L160.1 465.2008l-81.8066-43.6392c-11.6187-6.2936-23.888-12.0552-35.018-19.1576-2.6934-1.7192-4.497-4.0016-6.258-6.6168-.1568-2.212-.2874-4.7208.3744-6.868.8216-2.6648 2.6607-4.6904 4.8758-6.3016 7.2023-5.2408 16.3346-8.7968 24.2622-12.9264 19.3102-10.0584 38.8166-19.816 58.043-30.0168l.0752-123.0896c-.0328-23.7248-1.0792-47.964.2592-71.6448Z"/>
  <path fill="#3C3C68" d="m596.2096 600.3528 169.048 92.4792 52.1264 28.54c6.352 3.5312 13.896 6.7024 19.776 10.86 1.312.9272 1.864 1.7864 2.32 3.308.824 2.776 1.376 10.3944.032 12.8064-.096.1824-.216.3576-.32.536-.608 1.376-1.744 2.0472-2.992 2.8016-6.88 4.1728-14.176 7.8248-21.232 11.708l-30.1128 16.9248-25.4632 14.1328c-5.2856 2.9184-10.5776 6.1184-16.1224 8.5024-25.5464-12.0624-50.6968-26.5776-75.4672-40.212-25.7392-14.1688-51.8464-27.58-77.7064-41.5112-20.7824-11.1952-41.4512-23.1864-62.604-33.6296-2.0416-1.3056-4.2808-2.3144-6.4496-3.3928-8.068-4.2904-16.8752-8.2464-24.572-13.1152-.0144-3.4944-.9256-13.9456 1.4288-16.3624 4.568-4.6896 56.156-31.4832 65.0072-36.3296 8.356-4.5752 25.3208-15.1208 33.3032-18.0464Z"/>
  <path fill="#F3F4EF" d="m595.6792 607.604.8504-.04c15.4712 7.4368 30.3392 16.6936 45.5048 24.7968q68.5384 36.6192 136.2904 74.6736c13.664 7.5624 27.6352 14.5328 41.1872 22.3032 3.464 1.984 8.32 4.0888 11.12 6.9056-1.392 2.852-79.3528 45.86-88.4256 49.412-10.3584-4.3256-20.1328-10.8136-30.0136-16.1528l-64.1008-34.5336-93.5144-50.4456c-16.4568-8.9448-33.2896-17.1864-49.1032-27.2544 30.3064-16.0952 59.6952-33.94 90.2048-49.6648Z"/>
  <path fill="#A4C6C9" d="M624.1968 635.076c.6296.0368 1.1288.0528 1.7248.284 3.2792 1.2728 12.04 5.7136 13.3616 8.7416-1.08 2.3728-10.7848 7.1784-13.4512 9.1792l-.6432.488c-.1552.0184-.3096.0512-.4656.0544-2.5336.0512-11.6992-4.664-13.3904-6.54-.8928-.9904-.8552-1.544-.7856-2.8224 2.244-3.8328 9.748-6.94 13.6496-9.3848Zm145.5296 79.5488c3.2624 1.0112 10.924 4.8536 13.3704 7.0808 1.0248.9328 1.072 1.5032 1.0936 2.8296-1.9704 3.4888-9.864 6.8624-13.5768 9.264-3.8584-1.524-10.4608-3.7008-13.4296-6.4936-1.0232-.9632-1.1368-1.4872-1.1776-2.8496 2.2016-4.0728 9.7-7.4104 13.72-9.8312Zm-47.7336-26.5528c4.7368.3952 12.5824 6.4056 16.54 9.1408q-8.04 5.2296-16.3464 10.024c-3.5728.0008-12.0296-5.4776-15.152-7.6672l-.0856-1.0456c2.5072-4.16 10.748-7.7168 15.044-10.452Zm-47.6488-25.96c1.5024.2928 12.9512 6.3304 14.3368 7.4056.7424.576.7752.6096.84 1.568-2.5336 3.7952-11.296 7.8424-15.312 10.7344-4.1744-2.092-10.1584-4.3312-13.6176-7.4024-1.004-.8912-1.1456-1.356-1.1992-2.6592 2.2584-3.848 10.8648-7.3808 14.952-9.6464Zm23.88 12.9864c3.328.8632 10.5032 4.6352 13.268 6.78 1.1368.8824 1.3784 1.456 1.5736 2.8368-1.616 3.18-11.228 7.6264-14.7136 9.9224-2.924-.7104-12.8904-5.1496-14.3808-7.3608-.532-.7888-.7248-1.496-.4672-2.428.9304-3.3672 11.4208-7.816 14.72-9.7504Zm47.0784 26.0056c.5352-.0304.904-.0568 1.428.0848 1.984.5352 14.6112 7.072 15.324 8.532-1.5816 3.728-11.7552 8.364-15.46 10.5568-.4776.0704-.5528.112-1.1032.0192-2.1544-.3624-13.7232-6.6312-15.2928-8.5512 1.0312-3.0584 12.0008-8.7016 15.104-10.6416Zm-96.6488-52.5408c.2008.0096.404-.0056.6016.028 2.0632.3568 14.7888 7.3344 16.0648 8.9112-1.7424 3.1272-12.072 8.4984-15.5936 10.6744-2.0272-.2568-13.628-6.3216-14.9584-7.7048-.9216-.9584-.8952-1.5008-.8752-2.7816 2.4376-4.0616 10.4896-6.8664 14.7608-9.1272Zm47.5744 53.0312c3.7784.204 11.1096 4.368 14.0176 6.8304 1.2248 1.0368 1.5432 1.7984 1.6312 3.3688-1.956 3.636-11.016 6.7272-14.804 8.9504-2.8312.6632-8.688-3.0808-11.2968-4.604-2.0072-1.1728-3.44-2.1696-4.0608-4.4792 1.0488-3.14 11.2792-7.6808 14.5128-10.0664Zm-72.8656-40.5584c2.7776 2.0104 5.7512 3.3952 8.7624 4.9944 2.3816 1.264 5.02 2.4312 5.8608 5.1384-1.1872 3.4816-12.32 8.5392-15.7464 10.5344-4.1384-1.9184-8.9672-4.064-12.6544-6.7352-1.3776-.9992-1.8688-1.596-2.152-3.2744 1.476-3.108 12.4632-8.4432 15.9296-10.6576Zm49.084 27.1248q3.9728 2.0032 7.8896 4.1144c2.5776 1.3808 6.2496 2.7168 7.1496 5.6912-1.4568 3.4184-12.256 8.224-15.7696 10.316-4.2768-1.8384-9.5888-4.3448-13.4152-6.976-1.2816-.8808-1.7488-1.484-1.992-3.008 1.5704-3.3216 12.5168-8.1328 16.1376-10.1376ZM646.552 675.568c2.5768-.1696 12.3944 4.7616 14.6312 6.5168 1.0928.8584 1.2952 1.4352 1.5304 2.7632-1.544 3.7008-11.3568 7.7752-15.0136 9.7968-3.2344.2952-10.2176-4.4008-13.1112-6.1752-1.4728-.9032-3.2352-1.9264-3.6504-3.7144 2.7712-3.76 11.3696-6.9328 15.6136-9.1872Zm99.3768 52.0288c3.3008 1.0592 11.1248 4.6624 13.54 7.0184 1.0024.9776 1.0424 1.5912 1.0368 2.9296-2.3336 4.1888-10.8248 7.3664-14.8992 10.3656-4.3144-1.7584-10.5544-4.416-14.1192-7.3936-1.06-.8848-1.2976-1.3864-1.4712-2.7264 2.12-3.8752 11.872-7.8288 15.9128-10.1936Zm-25.74-12.956c3.784 1.2704 11.4192 4.3128 14.3632 6.8424 1.048.9 1.1696 1.4032 1.2968 2.7392-1.528 3.1664-11.5576 8.0664-15.0192 10.376-3.2656-.4784-11.516-5.3288-14.5472-7.1832-1.1728-.7168-1.56-.8376-1.8608-2.1664 2.7328-4.4912 11.1688-7.968 15.7672-10.608Zm-121.3744-66.508c.4432.088.916.2536 1.3368.428 2.9136 1.2096 13.5744 6.7432 14.5088 9.0376-2.2824 3.8512-12.752 8.5136-16.9632 10.8848-3.7024-1.988-7.5184-3.8376-11.1328-5.9816-1.832-1.0864-3.2592-1.8664-3.7992-4.0296 1.2728-3.172 12.5816-8.3008 16.0496-10.3392Zm-1.6912-28.0672 1.1112.0232c3.904 2.2416 13.5888 6.9344 15.8144 10.4856-1.1248 2.668-13.7112 8.7488-16.8784 10.2352-.7008-.0208-1.3416-.212-1.98-.5024-1.66-.756-12.6256-6.8768-13.8264-7.756-.9096-.6648-1.0928-.9592-1.46-2.0008 4.4112-4.2552 11.8056-7.4464 17.2192-10.4848Zm-23.6704 41.4776c2.916.1144 14.6056 5.7584 16.6824 8.1832.8696 1.016.8688 1.548.7784 2.8368-2.6536 4.0736-11.184 6.8528-15.6624 9.2272-2.7416.3216-15.9352-7.812-19.1496-9.5256 5.5016-3.9832 11.684-6.9624 17.3512-10.7216Zm-.6696-27.9864c.2104-.0064.4208-.032.6312-.0192 3.6992.2224 16.092 7.4368 18.0112 10.3144l-.2472.9296c-4.5016 3.8-11.1712 6.7352-16.5272 9.276-.5824.1928-1.2704.1952-1.876.2544-4.084-2.0272-14.7984-6.708-16.44-10.7168.9376-1.9176 13.8224-8.4896 16.448-10.0384Zm-23.4208 12.5504c2.196.4776 14.6896 6.9016 16.008 8.424.8968 1.0352.9008 1.6112.856 2.9352-2.496 4.5128-11.8472 7.9112-16.4128 10.2632-.2232-.0216-.6184-.0456-.8568-.1056-3.2672-.8288-14.244-7.1744-15.9224-10.0928-.5112-.8888-.332-.8536-.1272-1.7704 4.4016-3.8664 11.3128-6.7312 16.4552-9.6536Zm245.2856 82.5192c1.036.0456 1.8248.2712 2.7792.6928 2.8048 1.24 10.8448 4.8408 11.9168 7.4928-2.352 3.2304-34.2632 19.668-40.5464 23.3936-2.7608-.6656-5.3864-1.9688-7.9256-3.2136-2.2624-1.1104-6.1736-2.7952-7.0304-5.3256 2.5928-4.2056 33.7648-19.5496 40.8064-23.04ZM716.244 738.6c1.9104-.088 40.5336 21.3976 44.5832 24.0872-5.1872 3.9112-11.2856 7.1-17.0136 10.164-8.2112-2.368-36.8064-18.908-45.2136-24.2496 5.948-3.1464 11.9672-6.388 17.644-10.0016Zm-115.9632-62.9416c6.464 3.0184 12.7728 6.6984 19.0736 10.0664 16.9328 9.052 33.6304 18.5576 50.5216 27.6912l27.1248 14.4432c3.8208 2.0368 8.5008 3.9936 11.912 6.596-.1976.5536-.4296.9736-.8392 1.4016-2.3976 2.5072-13.0336 9.208-16.312 9.3928-16.7944-8.1864-32.9656-17.8848-49.4392-26.7136-19.0752-10.2232-38.6768-19.8-57.4792-30.496-.9464-.5376-1.596-.9944-2.2912-1.8456 1.936-3.3976 13.7744-8.6816 17.7288-10.536Z"/>
  <path fill="#3C3C68" d="M704.5696 609.6632c-8.456-4.0592-16.688-8.728-24.9616-13.1552l-43.3344-23.1792-40.368-21.7856c-9.2848-4.9256-18.9168-9.496-27.9464-14.852-2.828-1.6776-6.464-3.9688-8.4456-6.6464-2.6608-3.5952-4.4456-8.9528-4.7936-13.3904-.4328-5.5248-.132-11.2464-.088-16.7904l.1464-27.1608.2176-89.3664.0208-65.3136c.0016-9.6672-1.0136-22.2304.492-31.5648.432-2.6776 3.74-5.0608 5.8472-6.5536 2.9272-2.0744 11.7872-8.2616 15.5216-7.4728 10.5512 2.2272 37.7128 18.1752 48.4488 23.9992l57.3144 31.1552 96.4056 52.3992c16.224 8.8784 32.2096 18.232 48.4656 27.0288 16.504 8.9296 33.424 17.3472 50.272 25.6208l4.92 2.3848c.144.0592.296.1136.44.1768 18.368 7.9264 35.728 19.628 43.392 38.912q.8 2.0064 1.432 4.0696.64 2.0624 1.112 4.1696.472 2.1064.784 4.244.304 2.1368.44 4.292c.592 10.6784.152 21.5576.128 32.2648l-.184 59.6264-.112 73.0024c0 12.8296.264 25.7344-.088 38.5544-.08 2.8208.104 6.4584-1.12 9.036-3.024 6.3456-12.088 9.9816-18.344 11.8976-3.504 1.0712-6.984-.0192-10.28-1.3232-11.016-4.352-25.952-13.5392-36.712-19.3312q-35.992-19.4496-72.204-38.492c-7.7272 3.7552-15.2752 8.2432-22.7704 12.4552-4.3728 2.4568-8.8392 5.3784-13.6424 6.9104-2.1768.6944-3.8816.988-5.944-.092-1.288-1.3248-1.5064-3.1168-1.9376-4.8584-16.4488-9.7072-33.6304-18.3944-50.4496-27.4576-5.684-3.0632-15.6872-7.368-20.316-11.5136-.6136-1.3888-.7584-2.3912-.5352-3.9072.6808-4.624 23.6544-14.2744 28.4248-17.7304.1184-.0856.2352-.1752.352-.2624Z"/>
  <path fill="#A4C6C9" d="M710.6752 613.536c1.8864-.2408 58.56 30.0688 64.152 33.6456-8.724 5.4768-18.0792 10.2064-27.116 15.164-.1608.0592-.3152.144-.4832.1776-1.3312.2696-57.0096-30.7016-63.2728-34.1664 8.7328-5.2192 17.788-9.9496 26.72-14.8208Z"/>
  <path fill="#F3F4EF" d="M561.2312 486.4816 824.824 626.3992l64.288 34.532c4.944 2.6424 20.104 9.6528 23.248 12.6256 1.576 3.5208 1.032 25.7248.368 30.2424-.32 2.1384-.704 3.308-2.44 4.6248l-.216.5144c-.936.7488-1.56 1.0656-2.784 1.068-2.664.0056-5.688-1.592-8.024-2.7888-24.456-12.552-48.352-26.3328-72.64-39.2192L629.8528 562.8632c-14.7696-8.0264-29.8712-15.4376-44.6448-23.4736-6.3328-3.4448-14.5088-6.9064-19.6112-12.0216-1.7616-1.7664-3.2968-3.8296-3.9216-6.2832-1.608-6.3144-.4688-26.9072-.444-34.6032Z"/>
  <path fill="#F9827A" d="M565.296 285.9304c6.4632.956 42.7744 21.8272 51.2104 26.3264L829.128 428.3296q19.36 10.4104 38.92 20.4344c8.184 4.1544 16.728 8.0496 24.616 12.7312q1.496.8816 2.904 1.8888 1.416 1.0064 2.736 2.1304 1.32 1.1232 2.544 2.356 1.216 1.2328 2.328 2.5656c4.632 5.544 7.68 12.664 8.808 19.7824 1.712 10.8104.992 22.7568 1 33.7088v53.6152l.032 56.628c.024 10.1928.656 20.8512-.184 30.9928-1.208.4056-2.048-.0872-3.264-.4368-2.632-2.4736-8.368-4.5064-11.712-6.2608q-19.256-9.992-38.392-20.2104-94.7024-51.2512-190.1904-101.0208l-65.036-34.5264c-14.2968-7.5696-29.0896-14.76-42.8984-23.1776-1.2128-63.476-.2352-127.0832-.2312-190.5752l4.188-3.0248Z"/>
  <path fill="#3C3C68" d="M607.196 328.5616c2.6888-.2152 4.8272.1792 7.2656 1.3536 13.7024 6.5992 27.1008 14.5 40.4168 21.8656l79.62 44.0752c26.4208 14.2824 53.0592 28.1856 79.3496 42.7008 11.392 6.288 23.784 12.244 34.448 19.6536.56.3928 1.168.7568 1.648 1.2568 2.16 2.2504 2.792 8.1192 2.912 11.1424.976 25.2672.136 50.8384.176 76.1384l-.024 35.1816c-.024 6.348.296 12.9584-.344 19.26-.24 2.3664-.632 4.976-2.416 6.7104-1.696 1.6416-3.632 1.8-5.872 1.8384-.424-.0488-.4-.0368-.896-.1472-7.648-1.6872-17.208-8.3288-24.304-12.1088l-37.292-19.6736-115.4992-60.4136L630.56 498.424c-7.0504-3.696-14.4248-7.14-21.2608-11.192-3.004-1.78-6.0504-4.5416-7.8824-7.532-1.5576-2.5424-2.1768-6.2184-2.3856-9.16-.5856-8.2568-.1536-16.8448-.1528-25.1368l.052-48.7392-.0056-36.6808c-.0168-6.4952-1.0872-18.1216.6544-24.116 1.0768-3.704 4.4896-5.5544 7.6168-7.3056Z"/>
  <path fill="#F3F4EF" d="M607.6408 335.32c1.5368.1976 3.048.9112 4.4304 1.5888 12.6072 6.1808 24.8872 13.2416 37.1872 20.016q31.3304 17.2784 62.8536 34.1976 40.9664 21.5296 81.5384 43.7928l30.3096 16.7224c5.984 3.2992 12.32 6.3888 18.064 10.0752 1.928 1.24 3.496 2.528 4.248 4.748.688 2.9888 1.04 132.652.36 134.584-.416 1.1912-1 1.256-2.032 1.7456-1.168.3048-1.408.2208-2.56-.1776-7.632-2.6392-16.04-8.3136-23.256-12.2032l-42.504-22.4304q-61.5864-31.7616-122.7352-64.3568c-13.2832-7.1512-27.008-13.8256-40.0336-21.42-3.3704-1.9648-5.4664-3.1352-7.3104-6.68-.888-1.7088-1.0952-3.2336-1.1888-5.1256-.5072-10.2624-.1192-20.7264-.1104-31.008l.1152-60.8232c.0024-6.1392-.8792-36.6184.1248-40.0112.3264-1.1032 1.7296-2.3872 2.4992-3.2344Z"/>
  <path fill="#A4C6C9" d="M693.94 430.8112q5.2472 2.7816 10.3608 5.8016l.1488 31.3712c-3.4968-1.2632-6.8296-2.8616-10.1904-4.44l-.3192-32.7328Zm-61.8536 28.088c4.7328 2.344 9.3544 5.2064 14.0136 7.7368 7.424 4.032 15.2048 7.9048 22.24 12.5776-.4344 5.0216-.36 10.1624-.4608 15.2032-3.3544.2432-31.1184-15.7112-35.8744-18.3712l.0816-17.1464Zm61.356 29.7472c9.9744 4.0456 19.6048 9.9024 29.0816 15.0016l45.6144 24.2832c14.8608 7.8248 29.8912 15.3208 44.7096 23.2216 5.2 2.7688 12.248 5.6552 16.592 9.5016.064.1032.136.1992.184.3104.664 1.6048-.208 3.5176-.888 4.9616-1.144.044-19.376-9.968-21.624-11.1584l-81.3008-43.0184c-10.8168-5.7008-22.1864-10.644-32.7344-16.7944-.0024-2.0952.2256-4.2176.3656-6.3088Zm.1064-15.7568q1.1576.5368 2.3088 1.0864c25.0368 11.9168 49.1296 25.9352 73.82 38.5632l40.0824 20.7344c5.896 3.04 12.864 5.7432 18.328 9.3856 1.256.832 1.592 1.48 2.088 2.8592-.176 1.572-.488 2.568-1.312 3.9176l-.16.3304c-.928.2664-1.256-.1184-2.104-.5368-7.608-3.7744-14.936-8.3152-22.472-12.2648-14.8304-7.7656-29.8472-15.18-44.6296-23.0336-21.98-11.6784-43.5696-23.6624-66.0576-34.3744l.108-6.6672Zm-.412 31.1688c6.6672 2.708 13.092 6.552 19.4768 9.9104L755.0384 536.7l50.7856 26.6336c6.504 3.4336 18.432 8.7688 23.664 13.3104.192.408.16.3024.312.872.424 1.6664.04 3.4432-.808 4.8928-2.688-2.8856-35.5784-18.6944-42.7472-22.4344-22.3792-11.6784-44.6632-23.7768-66.8696-35.7888-8.72-4.7168-17.7448-8.9488-26.3216-13.9048l.0832-6.2224Zm83.7808-29.3784c5.4424 2.3096 50.4504 26.4776 52.4264 28.7768.072.1448.16.2832.216.4344 1.04 2.7744.888 26.604-.328 29.4288-2.592.4424-45.2392-24.2288-52.2344-27.2344l-.08-31.4056Zm-63.52-33.5696c17.2176 10.2712 35.7336 18.34 52.9816 28.5272.7128 10.076.2128 20.4552.1488 30.5592-6.5608-2.5624-13.0192-6.4736-19.2696-9.7328l-33.7144-17.3824c-.1384-10.6272-.5504-21.3536-.1464-31.9712Z"/>
  <path fill="#F9827A" d="M640.9728 405.196c4.6408-.3768 8.784 1.0928 12.7256 3.452 8.988 5.3784 15.8648 14.7432 18.2688 24.948 1.3832 5.8712 1.0736 12.9464-2.3424 18.1152-2.6648 4.0328-6.0568 5.864-10.6072 6.9008-4.3712.1296-8.2256-1.0048-12.0352-3.1152-9.4424-5.2312-16.2984-15.5464-19.1672-25.7976-1.5432-5.512-1.6328-11.92 1.388-16.9768 2.7568-4.6152 6.8616-6.2352 11.7696-7.5264Z"/>
  <path fill="#F3F4EF" d="M642.6888 413.1992c3.0368-.1304 5.648.5904 8.2848 2.0616 6.8336 3.812 12.0096 11.068 14.12 18.5328 1.0432 3.692 1.3536 7.9336-.6896 11.348-1.704 2.8464-4.0768 4.1504-7.1984 4.9624q-1.076.0072-2.1448-.1104-1.0696-.1184-2.1184-.36-1.048-.2416-2.0616-.604-1.0128-.3624-1.9768-.84c-6.608-3.2896-11.5424-9.8808-13.8696-16.784-1.328-3.94-2.0808-8.7648-.0536-12.5992 1.696-3.2072 4.4024-4.6088 7.708-5.6072Z"/>
  <path fill="#F9827A" d="M617.2704 358.2752c1.6144.0464 2.9104.3768 4.3552 1.0992 24.5112 12.26 48.2632 25.916 72.2456 39.1448l92.616 50.6224c5.6256 3.0704 41.3448 20.8568 44.4168 23.936.096.1616.192.3192.272.4832 1.2 2.3192.536 12.6272-.192 14.9792l-1.344.6192c-2.464-2.224-6.608-4.0528-9.52-5.7112q-14.68-8.2504-29.5184-16.2264l-122.3144-66.2008-34.0864-18.516c-4.8192-2.636-10.2696-5.0656-14.78-8.1848-1.2664-.876-2.1176-1.6912-2.6144-3.172-1.1216-3.3472-1.1368-9.732.464-12.8728Z"/>
  <path fill="#3C3C68" d="M125.3216 102.4392c6.9608-4.3528 14.4712-7.964 21.6672-11.92q22.7192-12.7453 45.7528-24.914c26.0392-13.9712 51.7792-28.7534 78.156-42.0703 1.5128-.764 3.1768-1.6689 4.8888-1.7608 9.952 3.1825 21.7496 10.9475 31.0936 16.0312l49.9744 26.7851 46.9288 24.98c7.7824 4.1112 18.724 9.0152 25.6544 14.196l.0256 121.4224-.0104 7.1752.0512 106.1768.0096 62.8872c-11.2784 6.688-23.2312 12.6352-34.816 18.8152l-60.9064 32.4936-38.476 20.7824c-5.7224 3.0416-11.5632 6.612-17.5544 9.048-7.2624-3.4512-14.3392-7.5272-21.436-11.3104l-39.4768-21.1736-91.8368-49.4008c-.5208-20.4088-.068-40.9208-.0352-61.3392l.0416-124.0048c.0072-23.4368.4512-46.972-.1104-70.3984.06-13.568-.8536-29.192.4144-42.5008Z"/>
  <path fill="#A4C6C9" d="M295.4488 198.228c-.0152-.6576-.12-1.5608.0368-2.192.3072-1.2352 1.3632-1.5472 2.368-2.136 6.552-3.8352 13.516-7.0256 20.2088-10.616l33.832-18.4144c16.3344-8.684 32.4544-17.956 49.0816-26.0536l.0216 11.34c-1.0344-.7976-1.6752-1.4104-3.0552-1.3896-1.2512 1.0504-1.3728 1.912-1.52 3.564-.5136 5.7328.3488 11.572-.0024 17.3392-.4464-6.552-.1672-13.1048-.384-19.66l-63.7968 33.9208c-7.5952 4.0272-18.6504 8.2288-25.1056 13.4312-1.3608.468-3.0952.82-3.9472 2.036-1.1736 10.9704-.2784 22.7312-.2432 33.792.0128 4.0912.2384 8.5368-.3696 12.5832-.8328-15.0784-.1344-30.5936-.0384-45.704-2.3848-.48-4.7392-1.2008-7.0864-1.8408Z"/>
  <path fill="#F3F4EF" d="M400.976 138.816c2.7736-1.4168 5.6456-3.1744 8.5816-4.1944l.0416 256.3728q-38.1416 21.124-76.7136 41.452c-12.396 6.5288-24.708 13.4392-37.4264 19.3152-.4488-31.2232.016-62.4408.0104-93.6664l-.0208-159.8672c2.3472.64 4.7016 1.3608 7.0864 1.8408-.096 15.1104-.7944 30.6256.0384 45.704l.1504 127.3352-.188 41.2864c-.0304 6.656-.7904 14.396.2968 20.956.2024 1.2176.1768 2.052 1.2064 2.772 5.5824-2.3528 10.872-5.5648 16.2056-8.4376l20.3024-10.7c20.3176-10.872 40.9776-21.4872 60.8472-33.14.7448-30.7968-.0224-61.7952-.1256-92.616l-.2712-143.0728-.0216-11.34ZM275.2552 27.9157c1.9616.3455 31.4168 16.8073 36.4216 19.5017 35.2456 18.9765 70.7704 37.4346 105.7576 56.897-12.0536 5.6704-23.568 12.604-35.2552 18.9904l-61.3416 33.4288c-14.5088 8.0176-28.7592 16.396-43.6704 23.6784l-1.4056.4864c-3.6112-1.1944-7.2088-3.74-10.5952-5.5504q-15.5696-8.3584-30.9832-17.0008-49.508-26.5688-98.4248-54.2128c12.9616-8.672 27.6928-15.7104 41.3824-23.216 32.5896-17.8664 65.6472-34.9274 98.1144-53.0027Z"/>
  <path fill="#3C3C68" d="M273.844 53.5054c1.08-.0076 2.092.0421 3.1496.281 5.4248 1.2246 74.9688 39.5344 84.7032 46.0224 1.3992.9328 3.1216 2.2424 3.9168 3.7504.252.4776.5776 1.3312.32 1.8352-.8768 1.716-81.0008 46.0008-88.6144 49.112-.548.0176-1.0912.0264-1.64-.0016-2.3752-.1208-4.5632-1.176-6.6736-2.192-14.196-6.828-27.956-15.1112-41.7832-22.6744-12.508-6.8416-25.5448-13.156-37.6968-20.5936-1.628-.996-3.1344-2.0088-4.3952-3.4608-.2664-1.1536-.116-1.748.168-2.8624 3.4656-4.1264 14.3464-8.3552 19.4-11.1536q17.7128-10.0192 35.5904-19.7394c11.2368-6.081 22.5232-11.8383 33.5552-18.3232Z"/>
  <path fill="#F3F4EF" d="M275.8472 58.9884c26.488 15.9806 54.6376 29.2972 81.2432 45.1012l-55.3368 30.9736c-8.5768 4.7144-17.4328 10.4368-26.5576 13.9344-7.3264-2.944-14.1248-7.9168-21.092-11.6768l-60.2984-32.9272c8.8504-4.5552 17.3304-9.736 26.0736-14.48q28.2312-15.0143 55.968-30.9252Z"/>
  <path fill="#F9827A" d="M276.548 73.9234c4.2224 1.6468 9.6224 5.821 13.76 8.139 13.36 7.4856 27.1328 14.3056 40.0224 22.6048l-33.7144 18.9472c-6.9088 3.8728-14.004 8.5008-21.4152 11.2944-18.2976-9.4224-36.1896-19.9688-54.0984-30.1176 15.8472-11.1296 38.0344-21.2184 55.4456-30.8678Z"/>
  <path fill="#F3F4EF" d="M396.42 169.6696c.3512-5.7672-.5112-11.6064.0024-17.3392.1472-1.652.2688-2.5136 1.52-3.564 1.38-.0208 2.0208.592 3.0552 1.3896l.2712 143.0728c.1032 30.8208.8704 61.8192.1256 92.616-19.8696 11.6528-40.5296 22.268-60.8472 33.14l-20.3024 10.7c-5.3336 2.8728-10.6232 6.0848-16.2056 8.4376-1.0296-.72-1.004-1.5544-1.2064-2.772-1.0872-6.56-.3272-14.3-.2968-20.956l.188-41.2864-.1504-127.3352c.608-4.0464.3824-8.492.3696-12.5832-.0352-11.0608-.9304-22.8216.2432-33.792.852-1.216 2.5864-1.568 3.9472-2.036 6.4552-5.2024 17.5104-9.404 25.1056-13.4312l63.7968-33.9208c.2168 6.5552-.0624 13.108.384 19.66Z"/>
  <path fill="#3C3C68" d="M378.8288 242.0544c1.8696-.1912 3.784-.1256 5.5624.5528 2.1824.8336 3.7504 2.5352 4.6296 4.6776 1.4928 3.64 1.156 8.0488-.3664 11.6344-.712 1.6776-1.6976 3.14-3.144 4.2648-6.324 4.92-14.9472 8.452-22.0416 12.2672-12.7912 6.88-25.828 14.8952-39.24 20.4168-1.4792.4688-2.8032.8264-4.3472.4208-1.9032-.5-3.4176-1.792-4.388-3.4808-1.8248-3.1744-1.7328-7.5848-.7472-11.0264.7968-2.7816 2.188-4.9888 4.3816-6.8688 6.0656-5.196 14.8776-8.8936 21.9056-12.6352q18.9592-9.9968 37.7952-20.2232Z"/>
  <path fill="#F9827A" d="M379.5344 247.0816c1.1112-.196 1.8584-.08 2.9512.112.552.4184 1.0576.788 1.3968 1.4096 1.208 2.216.8768 5.8384.16 8.2136-.3728 1.2368-.8432 2.384-1.8832 3.1864-4.6288 3.5712-10.9552 5.936-16.1376 8.756l-41.7688 22.5864c-.8968.1856-1.5064.0912-2.4-.0824-.5968-.4448-1.1984-.86-1.5752-1.5224-1.1048-1.9416-1.0544-5.5544-.3576-7.632.644-1.9192 1.9168-3.352 3.4808-4.5888 4.1768-3.304 10.1664-5.7864 14.864-8.3872 13.6224-7.5432 27.304-15.1624 41.2696-22.0512Z"/>
  <path fill="#3C3C68" d="M379.3576 209.5912c1.4944-.0696 2.8368-.0336 4.28.4096 2.2584.6944 3.7976 2.096 4.8456 4.204 1.6656 3.352 2.1064 7.6.8264 11.1344-1.0184 2.8144-2.9888 4.9544-5.3632 6.6928-5.1728 3.7864-11.7368 6.1384-17.3664 9.2432-13.98 7.7128-27.9768 15.7896-42.4336 22.564-1.7824.5544-3.6408.5608-5.348-.2448-1.8936-.8928-3.0128-2.6208-3.6256-4.568-1.7312-5.4976-.3856-10.496 2.0488-15.496 8.2464-5.9464 18.1696-10.5224 27.1184-15.3736 11.5832-6.2784 23.0536-13.0536 35.0176-18.5656Z"/>
  <path fill="#F9827A" d="M379.9896 214.5424c.3048-.0216.7384-.0624 1.0624-.0544 1.3968.032 2.164.5472 3.0648 1.5488.7336 2.76.7608 6.2536-.1496 8.9664-.5736 1.7064-2.38 2.7912-3.8144 3.7376-6.2632 4.1336-13.416 7.3928-20.0304 10.9472l-36.2056 19.492c-.42.0008-.744.0232-1.1672-.088-1.1-.2888-2.0952-1.1424-2.5496-2.184-.992-2.2744-.9272-5.2624.0632-7.5184.9672-2.2024 2.6552-3.9008 4.5872-5.2824 5.124-3.664 11.4712-6.2952 17.0152-9.3344 12.2912-6.7384 25.2224-14.9296 38.124-20.2304Z"/>
  <path fill="#3C3C68" d="M380.7368 177.0664c.7224-.0064 1.36.024 2.0672.192 2.6.6176 4.7104 2.0424 6.0448 4.3792 1.9272 3.3744 1.9712 7.488.788 11.1216-.872 2.6784-2.4392 4.4184-4.6168 6.116-7.0376 5.4864-16.176 9.3616-24.0016 13.6576-12.3448 6.776-24.48 14.1552-37.156 20.2936-1.0608.1584-1.9168.2448-2.9752.0008-2.1432-.4944-3.8008-1.8976-4.8432-3.816-2.0888-3.844-2.0624-9.3336-.592-13.4168.9016-2.5056 2.5312-4.4296 4.6656-5.9896 4.5256-3.3072 12.4296-6.5784 17.6152-9.3976 14.2488-7.7464 28.4192-16.064 43.004-23.1408Z"/>
  <path fill="#F9827A" d="M380.2704 182.5088c.6336-.0312 1.3144.0824 1.948.1344.7544.484 1.1928.7816 1.6792 1.568 1.2592 2.036 1.0344 5.548.3552 7.7336-.5016 1.6136-1.2336 2.9256-2.6048 3.9488-7.2744 5.4304-16.6184 9.328-24.6432 13.6344-11.2088 6.0152-22.224 12.3848-33.352 18.548-1.4312-.46-2.48-1.1496-3.184-2.5144-1.1912-2.3112-1.0192-5.2608-.1256-7.636.6016-1.6008 1.5328-2.9816 2.8736-4.0424 5.9568-4.7112 14.0808-8.1672 20.7936-11.8328 12.0128-6.56 23.9576-13.548 36.26-19.5416Z"/>
  <path fill="#3C3C68" d="M357.3344 329.6664c3.4632-.4744 6.9496.1424 9.98 1.9168 3.0488 1.7848 4.8552 4.7088 5.7608 8.06 2.436 9.0176-.7752 18.992-5.2552 26.8304-5.2296 9.1496-11.7872 15.688-22.0736 18.4984-3.3512.5392-6.1856.5968-9.376-.7344-3.3456-1.396-5.6304-3.8344-6.8624-7.2464-2.9088-8.0584-.4016-17.776 3.2744-25.1424 5.0856-10.192 13.7032-18.544 24.552-22.1824Z"/>
  <path fill="#F3F4EF" d="M358.8008 334.7352c2.0104.0536 3.7048.304 5.4568 1.3608 2.7088 1.6344 4.2816 3.9936 4.8968 7.08 1.5968 8.0016-2.1584 17.2536-6.524 23.7856-4.5176 6.7608-10.5384 11.904-18.6352 13.5088-2.1952-.0328-4.3264-.832-6.16-2.0264-2.3032-1.5008-3.5616-3.6968-4.0952-6.3664-1.6008-8.0104 1.7944-16.984 6.2216-23.528 4.668-6.8992 10.5232-12.2 18.8392-13.8144Z"/>
  <path fill="#F9827A" d="M340.4128 369.46c-.0472-.4512-.0976-.9024-.1184-1.356-.3016-6.6208 2.1088-12.6088 6.532-17.4952 2.5456-2.8128 6.6216-6.1056 10.5816-6.1576 1.2368-.0168 2.5344.3728 3.388 1.3064 1.3272 1.4504 1.5616 3.5192 1.5256 5.396-.1168 6.1152-2.7864 11.4952-7.1024 15.6872-.8048-.6048-1.6208-1.2552-2.476-1.7896-1.068-.668-1.4752-.788-2.6816-.4728l-.68 1.56c-.8936 2.0056-2.444 5.308-4.6928 6.008-1.2336.384-1.8192.08-2.9112-.4792l-1.3648-2.2072Z"/>
  <path fill="#3C3C68" d="M396.42 169.6696c.3512-5.7672-.5112-11.6064.0024-17.3392.1472-1.652.2688-2.5136 1.52-3.564 1.38-.0208 2.0208.592 3.0552 1.3896l.2712 143.0728c.1032 30.8208.8704 61.8192.1256 92.616-19.8696 11.6528-40.5296 22.268-60.8472 33.14l-20.3024 10.7c-5.3336 2.8728-10.6232 6.0848-16.2056 8.4376-1.0296-.72-1.004-1.5544-1.2064-2.772-1.0872-6.56-.3272-14.3-.2968-20.956l.188-41.2864-.1504-127.3352c.608-4.0464.3824-8.492.3696-12.5832-.0352-11.0608-.9304-22.8216.2432-33.792.852-1.216 2.5864-1.568 3.9472-2.036.3472.7192.6648 1.3824.7584 2.1848.7888 6.7544.0624 14.4688.0496 21.3088l-.0912 47.1072.0896 162.8544c13.8904-7.7744 28.0664-14.9336 42.0312-22.552 15.4512-8.4304 30.7824-17.344 46.6104-25.0392l-.1616-213.556Z"/>
  <path fill="#F3F4EF" d="M131.4168 109.2432c8.4976 5.244 17.5296 9.8264 26.3224 14.56l31.776 17.2816 84.8312 46.24c.3896 20.604.164 41.256.2008 61.8648l-.012 130.5192.0752 62.7176c.0152 10.2952.9104 21.4312-.304 31.6192-8.1856-5.064-17.0744-9.2544-25.5648-13.7928l-37.8304-20.5136-79.4352-42.7328c-.4224-16.116-.0144-32.3264.0136-48.4504l-.1024-96.8328-.1176-86.7576c-.0752-18.456-.9728-37.3216.1472-55.7224Z"/>
  <path fill="#A4C6C9" d="M160.0792 206.6224c4.66 1.6768 9.2152 4.6608 13.5696 7.0296l24.8072 13.496c14.7288 7.9848 30.1688 15.0528 44.5352 23.6592l.4816 24.9856c-1.144-.0728-2.2512-.452-3.2776-.952-13.0432-6.3624-25.7832-13.6248-38.6168-20.4104-13.7416-7.2648-27.7392-14.068-41.5544-21.1944q.3064-13.3064.0552-26.6136Zm.2416 43.5832q27.6832 14.0304 54.9672 28.8216c9.4096 5.0568 19.1784 9.5568 28.2136 15.2696q.096 12.6584-.38 25.3088c-9.0096-3.6792-17.684-9.3456-26.352-13.8336l-34.2768-17.9992c-7.4544-3.9168-15.188-7.616-22.344-12.0536-.0712-8.4632-.3768-17.0704.172-25.5136Zm.1224-86.1584c6.6 2.7648 13.2968 6.9576 19.732 10.2424 21.0896 10.7664 41.8064 22.3448 63.0288 32.8272l.3048 26.112c-7.7392-2.872-14.8992-7.8464-22.2712-11.5536q-19.2712-9.6408-38.3216-19.7104c-7.6544-3.9944-15.472-7.8296-22.9-12.232-.092-8.5376.2728-17.1456.4272-25.6856Z"/>
</svg>
