<svg xmlns="http://www.w3.org/2000/svg" class="looka-1j8o68f" viewBox="0 0 33.871 38.7097">
  <path fill="#f9827a" d="M16.9355 38.7097 0 29.0323V9.6774L16.9355 0 33.866 9.6745l.0049.0078v19.35Zm0-3.7253 12.0435-6.8812-3.2574-1.862-8.7861 5.0183-8.7842-5.0197-3.2603 1.8634Zm7.1589-11.539v-6.3188l-5.5288 3.1573v6.3193Zm-8.789 3.1578v-6.3179L9.778 17.1271v6.3184Zm0-21.947L3.2588 11.5395v13.771l3.2584-1.862V13.4027l8.788-5.022Zm-3.9 9.6775 5.5286 3.1592 5.5302-3.1592-5.5287-3.1582Zm19.2067-2.7943L18.5656 4.6563v3.7243l8.7876 5.0202v10.0476l3.2584 1.862v-13.771z"/>
</svg>
