<?xml version="1.0" encoding="UTF-8" standalone="no"?>
<svg
   id="visual"
   viewBox="0 0 900 50"
   width="900"
   height="50"
   version="1.1"
   sodipodi:docname="limit2.svg"
   inkscape:version="1.3.2 (091e20e, 2023-11-25)"
   xmlns:inkscape="http://www.inkscape.org/namespaces/inkscape"
   xmlns:sodipodi="http://sodipodi.sourceforge.net/DTD/sodipodi-0.dtd"
   xmlns="http://www.w3.org/2000/svg"
   xmlns:svg="http://www.w3.org/2000/svg">
  <defs
     id="defs1" />
  <sodipodi:namedview
     id="namedview1"
     pagecolor="#ffffff"
     bordercolor="#000000"
     borderopacity="0.25"
     inkscape:showpageshadow="2"
     inkscape:pageopacity="0.0"
     inkscape:pagecheckerboard="0"
     inkscape:deskcolor="#d1d1d1"
     inkscape:zoom="0.91295342"
     inkscape:cx="69.006806"
     inkscape:cy="-18.620884"
     inkscape:window-width="1376"
     inkscape:window-height="431"
     inkscape:window-x="56"
     inkscape:window-y="38"
     inkscape:window-maximized="0"
     inkscape:current-layer="visual" />
  <path
     d="m -6.1962134,23.754845 18.8000004,-1.5 C 31.503787,20.754845 75.3,23 112.8,20.7 c 37.5,-2.4 74.9,-4 112.4,-3.7 37.5,0.3 75.1,2.7 112.6,1.5 37.5,-1.2 74.9,-5.8 112.4,-4.3 37.5,1.5 75.1,9.1 112.6,10.1 37.5,1 74.9,-4.6 112.4,-4.3 37.5,0.3 75.1,6.7 112.6,10.5 37.5,3.8 74.9,5.2 93.5,5.8 L 900,37 V 0 H 881.3 787.8 675.2 562.8 450.2 337.8 225.2 112.8 18.8 0 Z"
     fill="#f3f4ef"
     stroke-linecap="round"
     stroke-linejoin="miter"
     id="path1"
     sodipodi:nodetypes="cccsssssscccccccccccccc" />
</svg>
