<?xml version="1.0" encoding="UTF-8" standalone="no"?>
<!-- Generator: Adobe Illustrator 23.0.4, SVG Export Plug-In . SVG Version: 6.00 Build 0)  -->

<svg
   version="1.1"
   id="SJR2QOEwG"
   x="0px"
   y="0px"
   viewBox="0 0 62.672255 23.774444"
   xml:space="preserve"
   sodipodi:docname="logo-primary-icon.svg"
   width="62.672256"
   height="23.774445"
   inkscape:version="1.3.2 (091e20e, 2023-11-25)"
   xmlns:inkscape="http://www.inkscape.org/namespaces/inkscape"
   xmlns:sodipodi="http://sodipodi.sourceforge.net/DTD/sodipodi-0.dtd"
   xmlns="http://www.w3.org/2000/svg"
   xmlns:svg="http://www.w3.org/2000/svg"><defs
   id="defs1" /><sodipodi:namedview
   id="namedview1"
   pagecolor="#ffffff"
   bordercolor="#000000"
   borderopacity="0.25"
   inkscape:showpageshadow="2"
   inkscape:pageopacity="0.0"
   inkscape:pagecheckerboard="0"
   inkscape:deskcolor="#d1d1d1"
   inkscape:zoom="2.7763701"
   inkscape:cx="80.680887"
   inkscape:cy="-22.151226"
   inkscape:window-width="1456"
   inkscape:window-height="916"
   inkscape:window-x="56"
   inkscape:window-y="136"
   inkscape:window-maximized="1"
   inkscape:current-layer="SJR2QOEwG" />
<style
   type="text/css"
   id="style1">
	.st0{fill:#292E6E;}
</style>
<path
   id="rJg02Q_EPz"
   class="st0"
   d="M 4.1813546,7.529642 C 4.2774776,6.632493 4.565847,6.53637 7.2572937,6.53637 c 2.2749132,0 2.5632825,0.224287 2.5632825,1.762257 V 8.811283 H 9.660371 C 9.0836325,8.170463 8.570976,8.042298 6.8407603,8.042298 c -2.7555288,0 -3.7167597,0.06408 -4.6139086,0.320411 -1.47388746,0.384492 -2.14674912,1.377764 -2.14674912,3.172062 0,2.371036 1.02531302,3.10798 4.35758032,3.10798 2.4351184,0 3.3963493,-0.09612 4.0051289,-0.352451 0.6728617,-0.28837 1.0893951,-0.640821 1.4098054,-1.281642 h 0.064082 v 1.377765 H 13.505295 V 8.362709 c 0,-1.826339 -0.224287,-2.563283 -0.833067,-3.268185 C 11.839161,4.261457 11.070176,4.101252 7.8019911,4.101252 4.7901341,4.101252 3.0599184,4.293498 2.1948106,4.67799 1.0413334,5.254729 0.56071795,6.023713 0.43255383,7.497601 H 4.1813546 Z m 2.4992005,2.627365 c 1.5700106,0 2.1787902,0.03204 2.4030774,0.09612 0.4165334,0.160205 0.6408206,0.448574 0.6408206,0.833066 0,0.897149 -0.7369437,1.153478 -3.3963493,1.153478 -2.018585,0 -2.5632826,-0.224288 -2.5632826,-1.025313 0,-0.833067 0.6087796,-1.057354 2.9157339,-1.057354 z M 3.6366571,2.915733 6.7446372,2.883693 C 7.8340322,2.050626 8.9554684,1.762256 12.4159,1.505928 L 8.3146477,0 C 7.1932116,0.384492 4.2133957,1.794297 3.6366571,2.915733 Z M 15.139387,4.389621 v 9.996802 h 3.748801 V 10.25313 c 0,-1.53797 0.09612,-2.082667 0.480616,-2.563283 0.352451,-0.480615 1.057354,-0.704903 1.890421,-0.704903 1.537969,0 1.954502,0.416534 1.954502,1.890421 h 3.524514 V 8.202504 c 0,-3.011857 -1.025313,-4.005129 -4.03717,-4.005129 -2.082667,0 -3.140021,0.480615 -3.844924,1.762256 H 18.663901 V 4.453703 Z m 12.656208,0 v 9.996802 h 3.748801 V 4.389621 Z m 0,-4.101252 V 3.10798 h 3.748801 V 0.288369 Z m 19.25666,0 h -3.748801 v 5.414934 h -0.160205 c -0.704903,-1.281641 -1.57001,-1.602051 -4.197375,-1.602051 -2.563283,0 -3.620637,0.160205 -4.517785,0.768984 -1.057355,0.704903 -1.473888,1.890421 -1.473888,4.421663 0,2.4992 0.256328,3.492472 1.089395,4.261457 0.865108,0.768985 2.146749,1.057354 4.870237,1.057354 2.691447,0 3.684719,-0.352451 4.421662,-1.570011 h 0.192247 v 1.313683 h 3.524513 z m -6.888822,6.632493 c 2.659406,0 3.140021,0.384493 3.140021,2.46716 0,1.153477 -0.160205,1.698174 -0.576738,1.954503 -0.416534,0.288369 -1.441847,0.480615 -2.819611,0.480615 -2.819611,0 -3.236144,-0.352451 -3.236144,-2.531241 0.03204,-2.018585 0.544697,-2.371037 3.492472,-2.371037 z M 55.543128,4.133293 c -3.396349,0 -4.870236,0.224287 -5.799426,0.897148 -0.993272,0.704903 -1.281642,1.666134 -1.281642,4.005129 0,2.883693 0.224288,3.812883 1.153478,4.581868 0.96123,0.768985 2.210831,0.993272 5.92759,0.993272 3.684719,0 4.934319,-0.224287 5.89555,-0.993272 0.897149,-0.768985 1.153477,-1.698175 1.153477,-4.421662 0,-2.499201 -0.288369,-3.428391 -1.281641,-4.165335 C 60.381324,4.35758 58.939478,4.133293 55.543128,4.133293 Z m 0,2.81961 c 1.057354,0 1.954503,0.09612 2.403078,0.28837 0.704902,0.288369 0.897149,0.768984 0.897149,2.114708 0,2.114708 -0.480616,2.467159 -3.332268,2.467159 -1.217559,0 -2.050626,-0.09612 -2.4992,-0.32041 -0.672862,-0.288369 -0.833067,-0.704903 -0.833067,-2.050626 0,-2.114708 0.512657,-2.499201 3.364308,-2.499201 z"
   style="stroke-width:0.32041" />
<path
   id="hola"
   class="st0"
   d="m 0,21.627696 v 0.288369 c 0,0.704903 0.12816413,1.089395 0.54469754,1.377765 0.44857444,0.32041 1.24960026,0.416533 3.23614416,0.416533 1.6661337,0 2.4992005,-0.09612 2.9477749,-0.32041 0.4806155,-0.256329 0.7049027,-0.704903 0.7049027,-1.409806 0,-1.153477 -0.5446975,-1.666133 -1.8904208,-1.698174 -0.6087796,-0.03204 -2.3069543,-0.06408 -2.6914467,-0.06408 -1.4098054,0.03204 -1.7302157,-0.128164 -1.7302157,-0.768984 0,-0.28837 0.096123,-0.512657 0.2563283,-0.640821 0.2563282,-0.192246 1.025313,-0.288369 2.3389953,-0.288369 1.3777643,0 2.082667,0.09612 2.3389953,0.352451 0.1281641,0.128164 0.1922462,0.288369 0.1922462,0.704903 h 0.993272 c 0,-0.704903 -0.064082,-0.897149 -0.2563283,-1.153477 -0.4165334,-0.544698 -1.2175592,-0.736944 -3.2041032,-0.736944 -1.7302157,0 -2.5953235,0.128164 -3.01185694,0.384492 -0.41653341,0.28837 -0.6087796,0.704903 -0.6087796,1.345724 0,1.185518 0.54469754,1.602051 2.08266704,1.602051 2.2428722,0.03204 2.4351184,0.03204 2.6914467,0.03204 1.1855181,0 1.5700105,0.224288 1.5700105,0.897149 0,0.288369 -0.064082,0.480616 -0.2563282,0.640821 -0.2883693,0.224287 -0.7369438,0.288369 -2.3389953,0.288369 -2.6273646,0 -2.8196108,-0.06408 -2.8196108,-1.121436 v -0.160207 z m 11.694977,-3.876965 c -1.313683,0 -1.9865444,0.09612 -2.4671599,0.352451 -0.7689847,0.416534 -1.1214361,1.249601 -1.1214361,2.627365 0,1.441846 0.2883693,2.17879 1.025313,2.627365 0.5446976,0.32041 1.2496,0.416533 2.979816,0.416533 1.505928,0 2.146749,-0.09612 2.659406,-0.384492 0.736943,-0.416534 1.057354,-1.21756 1.057354,-2.627365 0,-1.377764 -0.28837,-2.114708 -0.993272,-2.563283 -0.512657,-0.352451 -1.249601,-0.448574 -3.140021,-0.448574 z m 0.160205,0.801026 c 1.185518,0 1.826339,0.06408 2.17879,0.224287 0.608779,0.256328 0.801026,0.768985 0.801026,1.922462 0,1.025313 -0.160205,1.537969 -0.544698,1.85838 -0.384492,0.288369 -0.897149,0.384492 -2.274913,0.384492 -1.089395,0 -1.634093,-0.06408 -2.0185851,-0.192246 C 9.3239402,22.524845 9.067612,21.980147 9.067612,20.762588 c 0.032041,-1.890421 0.4485744,-2.210831 2.78757,-2.210831 z m 4.261457,0.06408 h 1.313682 v 5.062483 h 0.92919 v -5.062483 h 2.947775 v -0.801026 h -2.947775 v -0.192246 c 0,-1.313682 0.256328,-1.53797 1.922462,-1.570011 l 0.993272,-0.03204 v -0.801025 l -1.057354,0.03204 c -2.306954,0.06408 -2.819611,0.512656 -2.819611,2.563282 h -1.313682 z m 6.952904,-2.242872 v 1.441846 h -1.441847 v 0.801026 h 1.441847 v 2.819611 c 0,0.92919 0.06408,1.281641 0.32041,1.634092 0.352451,0.480616 1.025313,0.672862 2.274913,0.672862 1.249601,0 1.85838,-0.192246 2.210832,-0.704903 0.224287,-0.352451 0.32041,-0.736943 0.32041,-1.634092 v -0.352452 h -0.92919 v 0.352452 c 0,0.704902 -0.03204,0.92919 -0.192246,1.153477 -0.192246,0.32041 -0.512657,0.416533 -1.345724,0.416533 -0.897148,0 -1.313682,-0.128164 -1.537969,-0.416533 -0.160205,-0.256328 -0.160205,-0.320411 -0.192246,-1.409806 v -2.531241 h 4.101252 v -0.801026 h -4.101252 v -1.441846 z m 5.126565,1.441846 2.691447,5.863509 h 1.377764 l 1.794298,-4.96636 h 0.09612 l 1.794298,4.96636 h 1.377764 l 2.723488,-5.863509 h -1.089395 l -2.242873,4.998401 h -0.09612 l -1.794298,-4.998401 h -1.441846 l -1.762257,4.998401 h -0.09612 l -2.274913,-4.998401 z m 13.168864,1.762257 v -0.06408 c 0,-0.801026 0.352451,-0.961231 2.371036,-0.961231 1.53797,0 2.050626,0.128164 2.403078,0.512656 0.224287,0.256329 0.288369,0.512657 0.288369,1.121436 v 0.640821 h -0.06408 c -0.416534,-0.544697 -0.801026,-0.640821 -3.204103,-0.640821 -1.249601,0 -1.794298,0.06408 -2.146749,0.192247 -0.60878,0.224287 -0.833067,0.672861 -0.833067,1.602051 0,0.704903 0.128164,1.057354 0.512656,1.377765 0.416534,0.32041 0.993272,0.416533 3.075939,0.416533 1.794298,0 2.210831,-0.128164 2.659406,-0.768985 h 0.03204 v 0.672862 h 0.92919 v -3.075939 c 0,-1.377764 -0.09612,-1.794298 -0.480616,-2.17879 -0.480615,-0.512657 -1.185518,-0.672862 -3.172062,-0.672862 -2.531241,0 -3.300226,0.352451 -3.300226,1.570011 v 0.256328 z m 2.371036,1.409805 c 2.050626,0 2.627365,0.192246 2.627365,0.961231 0,0.768985 -0.480616,0.961231 -2.435119,0.961231 -1.441846,0 -2.082667,-0.03204 -2.338995,-0.160205 -0.32041,-0.128164 -0.448574,-0.352451 -0.448574,-0.801026 0,-0.384492 0.128164,-0.64082 0.352451,-0.768985 0.256328,-0.160205 0.704903,-0.192246 2.242872,-0.192246 z m 4.581868,-3.172062 v 5.863509 h 0.92919 v -2.691445 c 0,-2.050626 0.384492,-2.403077 2.627364,-2.403077 1.441847,0 1.762257,0.256328 1.762257,1.473887 v 0.416534 h 0.961231 v -0.60878 c 0,-0.768985 -0.192246,-1.313682 -0.60878,-1.666134 -0.384492,-0.352451 -0.865108,-0.448574 -2.018585,-0.448574 -1.121436,0 -1.602051,0.06408 -1.954503,0.224287 -0.32041,0.160205 -0.544697,0.352452 -0.704902,0.640821 h -0.06408 v -0.768985 z m 13.36111,4.03717 c -0.03204,0.384492 -0.06408,0.480616 -0.224287,0.640821 -0.28837,0.352451 -0.833067,0.448574 -2.146749,0.448574 -1.762257,0 -2.403078,-0.128164 -2.755529,-0.480615 -0.288369,-0.28837 -0.416534,-0.736944 -0.416534,-1.505929 h 6.536371 c -0.03204,-1.377764 -0.160205,-1.922462 -0.60878,-2.435118 -0.544697,-0.60878 -1.2496,-0.768985 -3.268185,-0.768985 -1.409805,0 -2.082667,0.09612 -2.563282,0.352451 -0.768985,0.416534 -1.089396,1.249601 -1.089396,2.659406 0,1.185518 0.28837,2.018585 0.833067,2.435118 0.512657,0.416534 1.409806,0.544698 3.428391,0.544698 2.371036,0 3.204103,-0.480616 3.236144,-1.890421 z m -5.511057,-1.698175 c 0.09612,-1.313682 0.608779,-1.602051 2.627364,-1.602051 2.274913,0 2.851652,0.32041 2.851652,1.602051 z"
   style="stroke-width:0.32041" />
</svg>
