<svg xmlns="http://www.w3.org/2000/svg" class="looka-1j8o68f" viewBox="0 0 242.0422 38.7097">
  <path fill="#f9827a" d="M16.9355 38.7097 0 29.0323V9.6774L16.9355 0 33.866 9.6745l.0049.0078v19.35Zm0-3.7253 12.0435-6.8812-3.2574-1.862-8.7861 5.0183-8.7842-5.0197-3.2603 1.8634Zm7.1589-11.539v-6.3188l-5.5288 3.1573v6.3193Zm-8.789 3.1578v-6.3179L9.778 17.1271v6.3184Zm0-21.947L3.2588 11.5395v13.771l3.2584-1.862V13.4027l8.788-5.022Zm-3.9 9.6775 5.5286 3.1592 5.5302-3.1592-5.5287-3.1582Zm19.2067-2.7943L18.5656 4.6563v3.7243l8.7876 5.0202v10.0476l3.2584 1.862v-13.771z"/>
  <path fill="#111" d="M55.5364 19.8784c0 1.0919.2166 2.1058.65 3.0417.4505.9879 1.0398 1.8198 1.7678 2.4958.7452.7106 1.5945 1.2738 2.5477 1.6898.9532.416 1.9671.624 3.0417.624 1.1092 0 2.1404-.208 3.0937-.624.9185-.364 1.7591-.9186 2.5217-1.6638.7106-.7106 1.2739-1.5426 1.6899-2.4958.3986-.988.5979-2.0105.5979-3.0677 0-1.0746-.1993-2.0885-.598-3.0417-.4159-.9186-.9792-1.7245-1.6898-2.4178-.7106-.6586-1.5512-1.1872-2.5217-1.5858-.936-.3813-1.9672-.572-3.0937-.572-1.2652 0-2.4005.2254-3.4057.676-1.0052.468-1.8458 1.0659-2.5217 1.7938-.6933.7453-1.2046 1.5598-1.5339 2.4438-.364.9012-.546 1.8025-.546 2.7037zm18.5364 0c0 1.4559-.286 2.799-.8579 4.0296-.572 1.2305-1.3432 2.2878-2.3138 3.1716-.9532.9186-2.0711 1.6206-3.3536 2.1058-1.2826.52-2.6171.78-4.0036.78-1.6985 0-3.1977-.3207-4.4976-.962-1.3172-.6239-2.4178-1.4298-3.3017-2.4177-.9012-.9706-1.5858-2.0625-2.0538-3.2757-.468-1.1785-.702-2.3224-.702-3.4316 0-1.4732.2947-2.8078.884-4.0037.572-1.1785 1.3432-2.2184 2.3138-3.1196.9532-.8493 2.0798-1.5252 3.3796-2.0278 1.2653-.468 2.5911-.702 3.9777-.702 1.7331 0 3.2496.2947 4.5495.884 1.3172.5892 2.4178 1.3691 3.3017 2.3397.9012.988 1.5685 2.0451 2.0018 3.1717.4506 1.1959.676 2.3484.676 3.4577zm16.6901-9.5155c1.144 0 2.1578.208 3.0417.624.8666.4159 1.5946.9445 2.1838 1.5858.572.624 1.0226 1.3432 1.3519 2.1578.2946.7972.442 1.5598.442 2.2878 0 .9359-.1994 1.7851-.598 2.5477-.3813.7626-.9012 1.4212-1.5598 1.9758-.676.572-1.4212.9966-2.2358 1.2739-.8666.312-1.7419.468-2.6258.468h-6.3693v6.4212h-2.5737v-17.99c0-.2947.13-.598.39-.91.2426-.2946.6152-.4419 1.1178-.4419h7.4353zm-6.3693 10.5814h6.3693c.7106 0 1.326-.1127 1.8459-.338.5372-.2253.9965-.52 1.3778-.884.364-.3639.65-.7885.858-1.2738.1906-.4853.2859-.962.2859-1.4299 0-.4853-.0953-.9965-.286-1.5338-.1733-.4853-.4506-.9446-.8319-1.3779-.3986-.4333-.8579-.7712-1.3778-1.0139-.5373-.26-1.1613-.39-1.8719-.39h-6.3693v8.2413zm22.0718 5.0694.39.156c.0692.052.1906.1126.364.182.9878.4506 2.0104.7626 3.0676.9359 1.092.1906 2.1491.286 3.1717.286.676 0 1.4472-.0694 2.3138-.208.8839-.1387 1.6378-.338 2.2618-.598.6932-.26 1.2652-.6066 1.7158-1.0399.4506-.4506.676-.9792.676-1.5858 0-.2427-.0261-.4853-.078-.728-.0867-.2772-.1994-.4939-.338-.6499-.2427-.312-.5633-.5893-.962-.8319-.364-.1906-.8146-.3726-1.3518-.546-.676-.1733-1.2306-.286-1.6639-.338-.2253-.0346-.5416-.0736-.9489-.1169a65.612 65.612 0 0 0-.8969-.091c-.2253-.0347-.5503-.0737-.9749-.117-.4246-.0433-.741-.0737-.9489-.091-.6586-.052-1.2825-.13-1.8718-.234-.6933-.104-1.3519-.26-1.9758-.468-.624-.1906-1.1872-.4765-1.6898-.8578-.4507-.312-.832-.7626-1.144-1.3519-.2946-.5546-.4419-1.2132-.4419-1.9758 0-.728.1473-1.3865.442-1.9758.2946-.572.6672-1.0572 1.1178-1.4559.4853-.4333 1.0313-.7886 1.6379-1.0659.5373-.2426 1.1872-.468 1.9498-.6759.7106-.1733 1.3779-.2946 2.0018-.364.6066-.0693 1.2392-.104 1.8978-.104 1.1612 0 2.3658.0954 3.6137.286 1.1612.208 2.3137.5633 3.4576 1.066h.052c.0173.0172.0346.026.052.026h-.052l.468.1299-.182-.078h.026c.0346 0 .052.0087.052.026l.208.052.234.078-.91 2.3398-.312-.156c-1.0398-.5546-2.097-.9359-3.1716-1.1438a22.107 22.107 0 0 0-3.5357-.286c-.7453 0-1.4905.052-2.2358.156-.7799.1386-1.4645.3206-2.0538.546-.6412.2599-1.1525.5979-1.5338 1.0138-.3986.4506-.598.9792-.598 1.5859 0 .4506.1127.8405.338 1.1698.2253.3293.6066.598 1.1439.806.2773.1213.65.2253 1.1179.312.5373.104 1.0226.1732 1.4558.208a11.041 11.041 0 0 0 1.4819.1559c.26.0347.6846.0693 1.2739.104 1.0052.0866 1.9498.1993 2.8337.338.9879.1733 1.8978.4592 2.7297.8579.8493.4333 1.5425.9879 2.0798 1.6638.5373.6933.806 1.6205.806 2.7817 0 .728-.1474 1.3866-.442 1.9758-.2947.5546-.702 1.066-1.2219 1.5339-.5373.4506-1.1179.8146-1.7418 1.0919-.624.2773-1.3086.5113-2.0539.702a17.1292 17.1292 0 0 1-2.1317.3899c-.624.0693-1.2826.104-1.9758.104-.78 0-1.5772-.0434-2.3918-.13-.7453-.0867-1.4385-.2167-2.0798-.39-.728-.208-1.3865-.416-1.9758-.624-.832-.2946-1.5252-.5632-2.0798-.8058l-.208-.078 1.1699-2.1578.26.13c.1386.052.2426.0953.312.13zm51.9165-4.8095H146.189v8.5012h-2.5737v-17.99c0-.2947.13-.598.39-.91.2426-.2946.6152-.442 1.1178-.442h14.0133v2.3399h-12.9467v6.1354h12.1927v2.3658zm8.5276 7.1493v-17.99h2.5737v16.9757H182.43v2.3658h-14.0132c-.4853 0-.858-.156-1.1179-.468-.26-.2946-.39-.5893-.39-.884zm25.2955-8.4751c0 1.0919.2166 2.1058.65 3.0417.4505.9879 1.0398 1.8198 1.7678 2.4958.7452.7106 1.5945 1.2738 2.5477 1.6898.9532.416 1.9671.624 3.0417.624 1.1092 0 2.1404-.208 3.0937-.624.9185-.364 1.7591-.9186 2.5217-1.6638.7106-.7106 1.2739-1.5426 1.6899-2.4958.3986-.988.5979-2.0105.5979-3.0677 0-1.0746-.1993-2.0885-.598-3.0417-.416-.9186-.9792-1.7245-1.6898-2.4178-.7106-.6586-1.5512-1.1872-2.5217-1.5858-.936-.3813-1.9672-.572-3.0937-.572-1.2652 0-2.4005.2254-3.4057.676-1.0052.468-1.8458 1.0659-2.5218 1.7938-.6932.7453-1.2045 1.5598-1.5338 2.4438-.364.9012-.546 1.8025-.546 2.7037zm18.5364 0c0 1.4559-.286 2.799-.8579 4.0296-.572 1.2305-1.3432 2.2878-2.3138 3.1716-.9532.9186-2.071 1.6206-3.3536 2.1058-1.2826.52-2.6171.78-4.0036.78-1.6985 0-3.1977-.3207-4.4976-.962-1.3172-.6239-2.4178-1.4298-3.3017-2.4177-.9012-.9706-1.5858-2.0625-2.0538-3.2757-.468-1.1785-.702-2.3224-.702-3.4316 0-1.4732.2947-2.8078.884-4.0037.572-1.1785 1.3432-2.2184 2.3138-3.1196.9532-.8493 2.0798-1.5252 3.3796-2.0278 1.2653-.468 2.5911-.702 3.9777-.702 1.7331 0 3.2496.2947 4.5495.884 1.3172.5892 2.4178 1.3691 3.3017 2.3397.9012.988 1.5685 2.0451 2.0018 3.1717.4506 1.1959.676 2.3484.676 3.4577zm13.8825 9.333c-.1386.2427-.312.4333-.52.572-.2426.1386-.5286.208-.8579.208-.4506 0-.7886-.1127-1.0139-.338-.208-.208-.3553-.4506-.442-.728l-3.8475-18.5623h2.6257l3.1197 15.234 6.3174-12.0888 6.3434 12.0888 3.0936-15.234h2.5998l-3.8216 18.5624c-.052.2426-.1994.4853-.442.7279-.2426.2253-.5893.338-1.0399.338-.3293 0-.6153-.0694-.858-.208-.2252-.156-.3899-.3466-.4939-.572l-5.3815-10.451z"/>
  <path fill="#f9827a" d="m132.708 21.9537-.9043-.5158-.0004-1.043-.0004-1.043.908-.519c.4996-.2854.9158-.5189.925-.5189.009 0 .4256.2335.925.519l.9081.519-.0002 1.043-.0002 1.043-.9045.5158c-.5285.3014-.9143.5158-.9282.5158-.0137-.0001-.4084-.2196-.928-.5159z" paint-order="fill markers stroke"/>
</svg>
