<svg xmlns="http://www.w3.org/2000/svg" xml:space="preserve" id="SJR2QOEwG" x="0" y="0" version="1.1" viewBox="0 0 195.6 101.9">
  <style id="style1" type="text/css">
    .st0{fill:#292e6e}
  </style>
  <path id="rJg02Q_EPz" d="M13.05 47.5c.3-2.8 1.2-3.1 9.6-3.1 7.1 0 8 .7 8 5.5v1.6h-.5c-1.8-2-3.4-2.4-8.8-2.4-8.6 0-11.6.2-14.4 1-4.6 1.2-6.7 4.3-6.7 9.9 0 7.4 3.2 9.7 13.6 9.7 7.6 0 10.6-.3 12.5-1.1 2.1-.9 3.4-2 4.4-4h.2v4.3h11.2V50.1c0-5.7-.7-8-2.6-10.2-2.6-2.6-5-3.1-15.2-3.1-9.4 0-14.8.6-17.5 1.8-3.6 1.8-5.1 4.2-5.5 8.8h11.7zm7.8 8.2c4.9 0 6.8.1 7.5.3 1.3.5 2 1.4 2 2.6 0 2.8-2.3 3.6-10.6 3.6-6.3 0-8-.7-8-3.2 0-2.6 1.9-3.3 9.1-3.3zm-9.5-22.6 9.7-.1c3.4-2.6 6.9-3.5 17.7-4.3L25.95 24c-3.5 1.2-12.8 5.6-14.6 9.1zm35.9 4.6v31.2h11.7V56c0-4.8.3-6.5 1.5-8 1.1-1.5 3.3-2.2 5.9-2.2 4.8 0 6.1 1.3 6.1 5.9h11v-2.1c0-9.4-3.2-12.5-12.6-12.5-6.5 0-9.8 1.5-12 5.5h-.6v-4.7zm39.5 0v31.2h11.7V37.7Zm0-12.8v8.8h11.7v-8.8zm60.1 0h-11.7v16.9h-.5c-2.2-4-4.9-5-13.1-5-8 0-11.3.5-14.1 2.4-3.3 2.2-4.6 5.9-4.6 13.8 0 7.8.8 10.9 3.4 13.3 2.7 2.4 6.7 3.3 15.2 3.3 8.4 0 11.5-1.1 13.8-4.9h.6v4.1h11zm-21.5 20.7c8.3 0 9.8 1.2 9.8 7.7 0 3.6-.5 5.3-1.8 6.1-1.3.9-4.5 1.5-8.8 1.5-8.8 0-10.1-1.1-10.1-7.9.1-6.3 1.7-7.4 10.9-7.4zm48-8.7c-10.6 0-15.2.7-18.1 2.8-3.1 2.2-4 5.2-4 12.5 0 9 .7 11.9 3.6 14.3 3 2.4 6.9 3.1 18.5 3.1 11.5 0 15.4-.7 18.4-3.1 2.8-2.4 3.6-5.3 3.6-13.8 0-7.8-.9-10.7-4-13-2.9-2.1-7.4-2.8-18-2.8zm0 8.8c3.3 0 6.1.3 7.5.9 2.2.9 2.8 2.4 2.8 6.6 0 6.6-1.5 7.7-10.4 7.7-3.8 0-6.4-.3-7.8-1-2.1-.9-2.6-2.2-2.6-6.4 0-6.6 1.6-7.8 10.5-7.8z" class="st0"/>
  <path id="hola" d="M0 91.5v.9c0 2.2.4 3.4 1.7 4.3 1.4 1 3.9 1.3 10.1 1.3 5.2 0 7.8-.3 9.2-1 1.5-.8 2.2-2.2 2.2-4.4 0-3.6-1.7-5.2-5.9-5.3-1.9-.1-7.2-.2-8.4-.2-4.4.1-5.4-.4-5.4-2.4 0-.9.3-1.6.8-2 .8-.6 3.2-.9 7.3-.9 4.3 0 6.5.3 7.3 1.1.4.4.6.9.6 2.2h3.1c0-2.2-.2-2.8-.8-3.6-1.3-1.7-3.8-2.3-10-2.3-5.4 0-8.1.4-9.4 1.2-1.3.9-1.9 2.2-1.9 4.2 0 3.7 1.7 5 6.5 5 7 .1 7.6.1 8.4.1 3.7 0 4.9.7 4.9 2.8 0 .9-.2 1.5-.8 2-.9.7-2.3.9-7.3.9-8.2 0-8.8-.2-8.8-3.5v-.5Zm36.5-12.1c-4.1 0-6.2.3-7.7 1.1-2.4 1.3-3.5 3.9-3.5 8.2 0 4.5.9 6.8 3.2 8.2 1.7 1 3.9 1.3 9.3 1.3 4.7 0 6.7-.3 8.3-1.2 2.3-1.3 3.3-3.8 3.3-8.2 0-4.3-.9-6.6-3.1-8-1.6-1.1-3.9-1.4-9.8-1.4zm.5 2.5c3.7 0 5.7.2 6.8.7 1.9.8 2.5 2.4 2.5 6 0 3.2-.5 4.8-1.7 5.8-1.2.9-2.8 1.2-7.1 1.2-3.4 0-5.1-.2-6.3-.6-2.1-.7-2.9-2.4-2.9-6.2.1-5.9 1.4-6.9 8.7-6.9zm13.3.2h4.1v15.8h2.9V82.1h9.2v-2.5h-9.2V79c0-4.1.8-4.8 6-4.9l3.1-.1v-2.5l-3.3.1c-7.2.2-8.8 1.6-8.8 8h-4.1zm21.7-7v4.5h-4.5v2.5H72v8.8c0 2.9.2 4 1 5.1 1.1 1.5 3.2 2.1 7.1 2.1 3.9 0 5.8-.6 6.9-2.2.7-1.1 1-2.3 1-5.1v-1.1h-2.9v1.1c0 2.2-.1 2.9-.6 3.6-.6 1-1.6 1.3-4.2 1.3-2.8 0-4.1-.4-4.8-1.3-.5-.8-.5-1-.6-4.4v-7.9h12.8v-2.5H74.9v-4.5zm16 4.5 8.4 18.3h4.3l5.6-15.5h.3l5.6 15.5h4.3l8.5-18.3h-3.4l-7 15.6h-.3l-5.6-15.6h-4.5l-5.5 15.6h-.3l-7.1-15.6Zm41.1 5.5v-.2c0-2.5 1.1-3 7.4-3 4.8 0 6.4.4 7.5 1.6.7.8.9 1.6.9 3.5v2h-.2c-1.3-1.7-2.5-2-10-2-3.9 0-5.6.2-6.7.6-1.9.7-2.6 2.1-2.6 5 0 2.2.4 3.3 1.6 4.3 1.3 1 3.1 1.3 9.6 1.3 5.6 0 6.9-.4 8.3-2.4h.1v2.1h2.9v-9.6c0-4.3-.3-5.6-1.5-6.8-1.5-1.6-3.7-2.1-9.9-2.1-7.9 0-10.3 1.1-10.3 4.9v.8zm7.4 4.4c6.4 0 8.2.6 8.2 3s-1.5 3-7.6 3c-4.5 0-6.5-.1-7.3-.5-1-.4-1.4-1.1-1.4-2.5 0-1.2.4-2 1.1-2.4.8-.5 2.2-.6 7-.6zm14.3-9.9v18.3h2.9v-8.4c0-6.4 1.2-7.5 8.2-7.5 4.5 0 5.5.8 5.5 4.6v1.3h3V86c0-2.4-.6-4.1-1.9-5.2-1.2-1.1-2.7-1.4-6.3-1.4-3.5 0-5 .2-6.1.7-1 .5-1.7 1.1-2.2 2h-.2v-2.4zm41.7 12.6c-.1 1.2-.2 1.5-.7 2-.9 1.1-2.6 1.4-6.7 1.4-5.5 0-7.5-.4-8.6-1.5-.9-.9-1.3-2.3-1.3-4.7h20.4c-.1-4.3-.5-6-1.9-7.6-1.7-1.9-3.9-2.4-10.2-2.4-4.4 0-6.5.3-8 1.1-2.4 1.3-3.4 3.9-3.4 8.3 0 3.7.9 6.3 2.6 7.6 1.6 1.3 4.4 1.7 10.7 1.7 7.4 0 10-1.5 10.1-5.9zm-17.2-5.3c.3-4.1 1.9-5 8.2-5 7.1 0 8.9 1 8.9 5z" class="st0"/>
  <text xml:space="preserve" id="text1" x="28.7488" y="13.3435" fill="#292e6e" fill-opacity="1" stroke="#ea580c" stroke-linecap="square" stroke-linejoin="round" stroke-width="0" font-family="DIN Alternate" font-size="9.2749" letter-spacing="6.7285" paint-order="fill markers stroke" style="line-height:0;-inkscape-font-specification:'DIN Alternate'" transform="scale(1.07681 .92867)" word-spacing="0"><tspan id="tspan1" x="28.7488" y="13.3435" stroke-width="0" dy="0" font-family="Gujarati MT" font-size="9.2749" font-stretch="normal" font-style="normal" font-variant="normal" font-weight="400" letter-spacing="6.7285" style="-inkscape-font-specification:'Gujarati MT'" word-spacing="0">POWERED BY</tspan></text>
</svg>
