<svg xmlns="http://www.w3.org/2000/svg" class="looka-1j8o68f" viewBox="0 0 370.129 38.7097">
  <path fill="#f9827a" d="M16.9355 38.7097 0 29.0323V9.6774L16.9355 0 33.866 9.6745l.0049.0078v19.35l-16.9355 9.6774zm0-3.7253 12.0435-6.8812-3.2574-1.862-8.7861 5.0183-8.7842-5.0197-3.2603 1.8634 12.0445 6.8812zm7.1589-11.539v-6.3188l-5.5288 3.1573v6.3193l5.5288-3.1577zm-8.789 3.1578v-6.3179L9.778 17.1271v6.3184l5.5272 3.1577zm0-21.947L3.2588 11.5395v13.771l3.2584-1.862V13.4027l8.788-5.022V4.6562zm-3.9 9.6775 5.5286 3.1592 5.5302-3.1592-5.5287-3.1582-5.5302 3.1582zm19.2067-2.7943L18.5656 4.6563v3.7243l8.7876 5.0202v10.0476l3.2584 1.862v-13.771z"/>
  <path fill="#111" d="M56.8337 29.7054H54l8.5792-18.8215q.104-.312.494-.598.364-.2859.8839-.2859.6759 0 .9619.234.286.286.468.65l8.397 18.8214h-2.8336l-3.3538-7.4093h-7.3573zm4.4196-9.5931h5.3815l-2.6778-5.9794zm33.1472 9.593-5.2774-7.1492h-5.7975v7.1493H80.752v-17.99q0-.442.39-.91.364-.442 1.1178-.442h7.8773q1.2998 0 2.5217.468 1.1959.468 2.1058 1.2999.91.8579 1.4559 2.0018.52 1.1699.52 2.4957 0 .858-.286 1.7939-.338.9619-.884 1.6638-.572.754-1.4818 1.3519-.936.6239-2.1318.8839l5.5374 7.3832h-3.0937zm-11.0754-17.002v7.5132h6.8113q.936 0 1.6899-.312.702-.26 1.2479-.8059.4939-.468.7539-1.1439.26-.598.26-1.3258 0-.702-.26-1.378-.286-.7278-.754-1.2738-.5199-.572-1.2478-.9099-.78-.364-1.6899-.364h-6.8113zm21.3698-2.3404h2.5738v19.3425h-2.5738V10.3629zm18.0423 0q2.0798 0 3.9776.702 1.9238.7019 3.3537 1.9757 1.4558 1.3 2.3138 3.0417.8579 1.7939.8579 3.9257 0 2.1577-.858 3.8996-.9099 1.8198-2.3137 3.0677-1.4559 1.2998-3.3537 2.0018-1.8718.728-3.9776.728h-5.9534q-.7539 0-1.1179-.468-.39-.442-.39-.884v-16.639q0-.442.39-.91.364-.4419 1.118-.4419h5.9533zm-4.8875 16.9767h4.8875q1.5598 0 2.9897-.5459 1.4039-.52 2.5218-1.5339 1.0918-.9619 1.7418-2.3137.624-1.3259.624-2.9377 0-1.5859-.624-2.9637-.676-1.352-1.7158-2.3138-1.066-.962-2.5218-1.5079-1.4819-.52-3.0157-.52h-4.8875v14.6368zm25.1655-7.4612q0 1.6378.65 3.0417.6758 1.4819 1.7677 2.4958 1.118 1.0658 2.5478 1.6898t3.0417.624q1.6638 0 3.0937-.624 1.3778-.546 2.5217-1.6639 1.066-1.0658 1.6898-2.4957.598-1.4819.598-3.0677 0-1.6118-.598-3.0417-.6239-1.3779-1.6898-2.4178-1.0659-.9879-2.5217-1.5858-1.4039-.572-3.0937-.572-1.8978 0-3.4057.676-1.5079.702-2.5218 1.7938-1.0399 1.1179-1.5338 2.4438-.546 1.3518-.546 2.7037zm18.5364 0q0 2.1838-.8579 4.0296t-2.3138 3.1716q-1.4298 1.378-3.3536 2.1058-1.9239.78-4.0037.78-2.5477 0-4.4975-.962-1.9758-.9358-3.3017-2.4177-1.3519-1.4559-2.0538-3.2757-.702-1.7678-.702-3.4316 0-2.2098.884-4.0037.858-1.7678 2.3138-3.1196 1.4298-1.274 3.3796-2.0278 1.8979-.702 3.9776-.702 2.5998 0 4.5496.884 1.9758.8838 3.3017 2.3397 1.3518 1.4819 2.0018 3.1717.676 1.7938.676 3.4577zm22.0716 0q0 1.6378.65 3.0417.6759 1.4819 1.7678 2.4958 1.1178 1.0658 2.5477 1.6898t3.0417.624q1.6638 0 3.0937-.624 1.3778-.546 2.5217-1.6639 1.066-1.0658 1.6899-2.4957.5979-1.4819.5979-3.0677 0-1.6118-.598-3.0417-.6239-1.3779-1.6898-2.4178-1.0659-.9879-2.5217-1.5858-1.4039-.572-3.0937-.572-1.8978 0-3.4057.676-1.5078.702-2.5217 1.7938-1.04 1.1179-1.5339 2.4438-.546 1.3518-.546 2.7037zm18.5364 0q0 2.1838-.8579 4.0296t-2.3138 3.1716q-1.4298 1.378-3.3536 2.1058-1.9238.78-4.0036.78-2.5478 0-4.4976-.962-1.9758-.9358-3.3017-2.4177-1.3518-1.4559-2.0538-3.2757-.7019-1.7678-.7019-3.4316 0-2.2098.884-4.0037.8578-1.7678 2.3137-3.1196 1.4298-1.274 3.3797-2.0278 1.8978-.702 3.9776-.702 2.5997 0 4.5495.884 1.9758.8838 3.3017 2.3397 1.3519 1.4819 2.0018 3.1717.676 1.7938.676 3.4577zm16.6901-9.5155q1.7159 0 3.0417.624 1.3.6239 2.1838 1.5858.858.9359 1.3519 2.1578.442 1.1959.442 2.2878 0 1.4038-.598 2.5477-.572 1.1439-1.5598 1.9758-1.014.858-2.2358 1.2739-1.2999.468-2.6258.468h-6.3693v6.4212h-2.5737v-17.99q0-.442.39-.91.3639-.4419 1.1178-.4419h7.4354zm-6.3693 10.5813h6.3693q1.066 0 1.8459-.338.8059-.3379 1.3778-.8838.546-.546.858-1.274.286-.7278.286-1.4298 0-.7279-.286-1.5338-.26-.728-.832-1.3779-.598-.65-1.3778-1.0139-.806-.39-1.8719-.39h-6.3693v8.2413zm22.0718 5.0695.39.156q.104.078.364.182 1.4818.6759 3.0676.9359 1.6379.286 3.1717.286 1.014 0 2.3138-.208 1.3259-.208 2.2618-.598 1.0399-.39 1.7158-1.0399.676-.6759.676-1.5858 0-.364-.078-.728-.13-.4159-.338-.6499-.364-.468-.962-.8319-.5459-.286-1.3518-.546-1.0139-.26-1.6638-.338-.338-.052-.949-.1169t-.8969-.091q-.338-.052-.9749-.117t-.9489-.091q-.9879-.078-1.8718-.234-1.0399-.156-1.9758-.4679-.9359-.286-1.6898-.858-.676-.4679-1.144-1.3518-.4419-.8319-.4419-1.9758 0-1.0919.442-1.9758.442-.858 1.1179-1.4559.728-.6499 1.6378-1.0658.806-.364 1.9498-.676 1.066-.26 2.0018-.364.91-.104 1.8978-.104 1.7419 0 3.6137.286 1.7418.312 3.4577 1.066h.052q.026.026.052.026h-.052l.4679.13-.182-.078h.026q.052 0 .052.026l.208.052.234.078-.91 2.3397-.312-.156q-1.5598-.8319-3.1716-1.1438-1.7678-.286-3.5357-.286-1.1178 0-2.2357.156-1.17.208-2.0538.546-.962.3899-1.5339 1.0138-.598.676-.598 1.5859 0 .6759.338 1.1699t1.144.8059q.4159.182 1.1178.312.806.156 1.4559.208.754.13 1.4818.156.39.0519 1.274.1039 1.5078.13 2.8336.338 1.4819.26 2.7298.8579 1.2738.65 2.0798 1.6638.8059 1.04.8059 2.7817 0 1.092-.442 1.9758-.442.832-1.2218 1.5339-.806.676-1.7419 1.0919t-2.0538.702q-1.04.2599-2.1318.3899-.936.104-1.9758.104-1.1699 0-2.3918-.13-1.1179-.13-2.0798-.39-1.0919-.312-1.9758-.624-1.2479-.4419-2.0798-.8058l-.208-.078 1.17-2.1578.26.13q.2079.078.3119.13zm51.9165-4.8095h-12.1928v8.5012h-2.5737v-17.99q0-.442.39-.91.364-.442 1.1178-.442h14.0133v2.3399h-12.9467v6.1354h12.1927v2.3658zm8.5276 7.1493v-17.99h2.5738v16.9757h12.9466v2.3658h-14.0132q-.728 0-1.1179-.468-.39-.442-.39-.884zm25.2955-8.4751q0 1.6378.65 3.0417.6759 1.4819 1.7677 2.4958 1.118 1.0658 2.5478 1.6898t3.0417.624q1.6638 0 3.0937-.624 1.3778-.546 2.5217-1.6639 1.066-1.0658 1.6899-2.4957.5979-1.4819.5979-3.0677 0-1.6118-.598-3.0417-.6239-1.3779-1.6898-2.4178-1.0659-.9879-2.5217-1.5858-1.4039-.572-3.0937-.572-1.8978 0-3.4057.676-1.5078.702-2.5217 1.7938-1.04 1.1179-1.5339 2.4438-.546 1.3518-.546 2.7037zm18.5364 0q0 2.1838-.8579 4.0296t-2.3138 3.1716q-1.4298 1.378-3.3536 2.1058-1.9238.78-4.0036.78-2.5478 0-4.4976-.962-1.9758-.9358-3.3017-2.4177-1.3518-1.4559-2.0538-3.2757-.702-1.7678-.702-3.4316 0-2.2098.884-4.0037.858-1.7678 2.3138-3.1196 1.4298-1.274 3.3796-2.0278 1.8979-.702 3.9777-.702 2.5997 0 4.5495.884 1.9758.8838 3.3017 2.3397 1.3519 1.4819 2.0018 3.1717.676 1.7938.676 3.4577zm13.8825 9.333q-.208.364-.52.572-.364.208-.8579.208-.6759 0-1.0139-.338-.312-.312-.442-.728l-3.8475-18.5623h2.6257l3.1197 15.234 6.3174-12.0888 6.3434 12.0888 3.0936-15.234h2.5998l-3.8216 18.5624q-.078.364-.442.7279-.364.338-1.0399.338-.494 0-.858-.208-.3379-.234-.4939-.572l-5.3815-10.451z"/>
</svg>
