<svg xmlns="http://www.w3.org/2000/svg" viewBox="0 0 1024 819">
  <path fill="#3C3C68" d="M636.576 16.6283c1.6848-.3192 2.7384-.6173 4.3128.1725l.3304.7747c-1.0304.827-1.78.8306-3.0352.8974-21.8848 4.5954-40.9648 18.3865-55.7208 34.7892-10.048 11.5971-18.452 25.798-20.2024 41.3059-.5704 7.9224.4256 15.7704 5.8392 21.9688 1.2768 1.4616 2.8896 2.752 4.464 3.88 3.3432 1.7432 8.6936 4.908 12.6112 4.5272 1.4104.3928 2.2952.316 3.1088 1.5736l-.108 1.0728q-.2416 10.0152-.1688 20.0336c3.9112-3.856 7.5992-7.8944 11.2944-11.956 10.8624-13.676 10.9384-8.9504 24.508-16.8712q2.4032-1.4176 4.7312-2.956 2.3272-1.5384 4.5736-3.1936t4.4056-3.4224q2.1592-1.7672 4.2256-3.6424 2.0664-1.8752 4.0352-3.8528 1.968-1.9784 3.8328-4.0536 1.8648-2.076 3.6216-4.244 1.7568-2.168 3.4008-4.4224c9.5512-14.0114 19.0736-32.6927 15.7504-50.076-1.128-5.902-5.0664-9.9377-6.5448-15.4185l.4376-.2013c6.0528 5.5085 8.28 12.7283 8.6864 20.7684.816 16.1423-7.2896 32.3204-16.264 45.2698-8.5528 13.2632-22.4048 24.6856-36.0504 32.4552-2.5008 1.424-5.2232 2.3944-7.8952 3.4424-7.2944 2.8624-9.7264 6.5176-14.6712 12.3416-4.5368 4.972-8.9688 10.628-14.1824 14.8664-.0992-8.0968.232-16.2632.3608-24.3632-.9472-.6192-2.1728-.9808-3.2328-1.3944-3.6776.2824-9.8216-3.0872-12.584-5.3528-1.8568-1.0448-3.8352-3.0616-5.1544-4.7304-5.6008-7.0848-5.5888-16.3864-4.6136-24.8896 2.6512-14.958 10.4264-28.1887 20.1752-39.5974 1.8488-2.7704 4.76-5.4457 7.1584-7.7617 13.3424-12.8851 30.4864-23.3369 48.564-27.7398Z"/>
  <path fill="#F9827A" d="m540.9352 206.5256-.1096-.5656c1.556.5744 2.5864.7624 4.2384.556.3824 5.052 5.8432 14.4248 7.5568 19.9896 4.368 14.1864 6.6568 29.4104 7.9272 44.172l-3.3696 1.1208c-1.696.6976-3.2968 1.2528-5.1368 1.4352-2.0376.2016-3.6904.036-5.3256-1.2264-2.088-20.5096-5.0952-40.856-7-61.3848l.776-.5768.4432-3.52ZM649.608 24.3011c1.5112.3289 1.8896.2169 2.8976 1.4489.1872 1.5946-.3544 3.1105-.9632 4.5695-1.58 3.785-3.6784 7.4526-5.464 11.1572L634.0856 66.49c-3.3168 6.9647-13.5304 31.9716-17.2288 36.2596-1.1424 1.3248-3.132 2.1464-4.8656 2.1424-5.2496-.0104-12.4304-8.5608-15.9144-11.9232-2.6536-2.3288-8.9848-6.8888-9.7528-10.3088-.172-.7672.0208-.7752.3992-1.3968 6.4224-1.9827 17.6352 6.1144 24.5184 4.6816 1.3768-.2872 1.92-.9472 2.7584-2.0128 4.1176-5.2326 7.3144-12.2112 10.7056-17.9984 4.3384-7.4063 8.9168-14.6658 13.2904-22.0518 3.8648-6.5275 7.4896-13.2108 11.612-19.5807Z"/>
  <path fill="#6B7698" d="m100.9048 182.9336.1256-.6064.3024.1224-.6768.0968c.2648-.384.5352-.8792.9208-1.156 6.6592-4.7792 19.948-10.776 27.8664-14.9512q26.1264-13.9352 52.092-28.1664L331.928 55.2632l38.4576-21.19c9.8704-5.5354 28.552-17.4668 38.8296-20.1166 3.3392 1.4947 6.572 3.3308 9.8672 4.9373-6.4112 1.3022-25.7832 13.9175-32.9496 17.8256L275.988 97.3216c-27.1848 14.98-54.4584 29.6552-81.352 45.1704-7.0648 4.076-14.896 7.2904-21.6936 11.7224-21.2752 9.2504-40.92 22.4848-61.7048 32.7648-2.32-1.4008-7.14-5.0944-9.76-4.6024l-.5728.5568Z"/>
  <path fill="#A4C6C9" d="M920.808 447.6584c3.344 3.588 11.808 7.0512 16.296 9.5168 13.888 7.6304 27.52 15.6696 41.248 23.576 6.128 3.532 18.44 8.8912 22.992 13.8704 1.072 1.1744 1.296 2.4616 1.232 4.0208-.112 2.6216-1.352 6.3904-3.304 8.2112-1.936 1.5744-30.496 17.5584-33.456 18.7152-5.76 3.9656-12.68 6.8904-18.816 10.284l-41.088 22.8584-132.772 73.0104-154.7048 84.7624-65.012 35.5312c-9.3216 5.0704-18.376 11.0624-27.9848 15.5416-6.5912 3.0728-13.12 5.032-20.4224 3.6224-10.8088-2.0856-26.748-12.4224-36.824-17.8976l-57.5104-31.9064L160.8912 583.824 88.4944 543.18q-11.7754-6.6536-23.732-12.9752c-2.381-1.2448-4.9769-2.996-7.4646-3.92-10.6918-6.292-21.3276-12.6592-32.329-18.4016-1.4934-3.1136-2.9725-6.8608-2.254-10.344.3006-1.4576 1.21-2.3024 2.3533-3.1816 5.9557-4.5824 13.3493-8.0464 19.932-11.7312 18.5463-10.3824 38.0111-19.7144 56.0127-30.9808l.0016 10.0008c-7.6336 3.7376-14.9808 8.3984-22.4288 12.5152-12.947 7.156-26.0908 14.084-38.8227 21.6072-2.0305 1.1992-6.1449 3.1872-6.7488 5.5208.1596.9832.3532 1.8616 1.013 2.6432 2.5849 3.0592 7.9225 4.2256 11.395 6.16l65.1715 36.6064q142.0648 79.6392 285.0136 157.6752l61.9256 34.044c13.1736 7.3568 26.1944 15.1432 39.524 22.1984 3.5168 1.8616 7.5064 3.796 11.5408 4.0864 4.7648.3424 9.6744-1.5768 13.8456-3.6896 8.4584-4.2848 16.568-9.4264 24.924-13.9464q39.9568-21.236 79.4648-43.2968 129.6456-70.1848 257.76-143.1264l77.744-43.4344c6.864-3.8168 22.76-11.1032 27.832-15.4064.504-1.4808.608-2.5656.488-4.124-.352-.4736-.624-.8776-1.112-1.2248-5.856-4.1768-15.736-8.8384-22.352-12.5656q-14.464-8.1184-29.008-16.0784c-5.8-3.1872-11.672-6.7432-17.768-9.3376-.976-.416-1.76-.5992-2.832-.4584-.112.0144-.216.0408-.328.0616 1.624-2.1976 3.648-7.7128 3.552-10.4176Z"/>
  <path fill="#3C3C68" d="M513.1672 178.1464q-.7328-.6504-1.3776-1.3872-.6448-.7376-1.192-1.5504-.5472-.8128-.988-1.688-.44-.8752-.7672-1.7984-.2032-.564-.3488-1.1464-.1448-.5816-.2304-1.1752-.0856-.5944-.1104-1.1936-.024-.5992.012-1.1976.036-.5992.1328-1.1912.096-.592.2528-1.1712.156-.5792.3696-1.1392.2144-.56.484-1.096c2.9504-5.7712 17.3144-12.3896 23.5088-14.1632 1.668-.4776 4.8552-1.3488 6.3656-.336 4.056 2.7192-.092 6.8256.936 9.9976.0576.176.128.3472.192.5216.9456 1.6512 1.704 3.1688 2.3136 4.9832.392 1.04.6192 2.6096 1.7104 3.0776 1.7928.768 3.192-.1736 4.8152 1.2664.2264 1.1304.3392 2.1104.3536 3.2624-.8256 1.6144-1.8064 2.7248-1.4032 4.5528 1.644 4.6512 1.3696 9.152 1.288 14.0016-1.8584 1.9344-3.7512 3.6184-5.8656 5.2688l1.2152 5.464c-1.0376.8664-3.2824 2.2192-3.4872 3.504l.9336.4336 1.1872-.772c1.016.9112 1.1448 1.7696 1.5968 3.0416-1.652.2064-2.6824.0184-4.2384-.556l.1096.5656-.4432 3.52-.776.5768c1.9048 20.5288 4.912 40.8752 7 61.3848 1.6352 1.2624 3.288 1.428 5.3256 1.2264 1.84-.1824 3.4408-.7376 5.1368-1.4352l3.3696-1.1208c1.9128.0264 4.088-.2312 5.7568.8048.8496 1.5176.6992 2.2368.6904 3.948 1.544.3984 3.1048.7072 4.508 1.488.1232-7.676-.2544-15.1944-.8144-22.848l-1.1296-8.104q-2.2128-11.5168-5.5816-22.7504-3.368-11.2336-7.8576-22.068c-1.844-2.9616-4.688-4.6152-6.7504-7.3184l.248-1.28c8.9672 5.3352 16.2528 13.9168 23.58 21.2904l5.9752 6.1288c2.856-1.8208 5.6896-3.7808 8.6704-5.3864 4.7704-4.1968 11.1336-6.6848 16.06-11.0496 1.4168-4.3576 3.2736-11.688 6.8192-14.7792 1.0424-.9096 1.6288-.9072 2.9488-.7872 1.2808.7752 1.9976 1.5072 2.8536 2.7312l.6664 1.3824c6.4344.0536 13.24-5.5448 19.768-4.2536.8328 3.3664-1.0712 5.8664-2.756 8.644-.692 1.14-1.2744 2.076-2.3656 2.8792-7.4712 4.552-14.5464 9.7696-22.1512 14.0904 1.5864 2.2256 3.1104 4.3648 4.284 6.8416-7.5368 4.792-21.5344 15.9576-28.512 19.052-3.0408 2.1944-6.6696 5.6528-10.5976 5.4776-.8296-.4344-1.6824-.8464-2.4912-1.3168l-1.2136.1824 1.0728 7.7408c.3944 3.8768.6608 7.8136 1.2176 11.6672.0432 2.992-.0408 6.0424.1392 9.0256l-.2264 4.9856c-.3624 2.4272-.748 3.8816-2.7696 5.3944-.356.2672-.7192.528-1.1112.7408l-1.6048 1.7728c-.584 16.1032-1.3 32.264-1.4336 48.376-.1032 2.0632-.1176 4.1728-.3832 6.2208.0952 9.2944-.4784 18.5728-.5096 27.8616l-.0224 5.6664-.088 6.5544q-.1056 8.2592-.0648 16.5184c4.416 2.668 17.9888 9.084 19.4312 14.008.3432 1.1704.1464 2.3264-.5288 3.34-1.4696 2.2064-4.4328 3.6912-6.9848 4.1128-11.0368 1.8224-22.7416-10.404-26.6616-10.1568-2.4392.1544-2.5 2.6936-6.44-.3096-1.6288-1.2416-3.268-2.5544-4.6688-4.0512-.0816-3.2584-.9288-11.0296 1.3024-13.4752 1.1368-1.1736.2688-35.6304.2168-39.44-2.4192 1.3272-4.8256 2.7544-7.3 3.972-.3864 2.1512-.6528 4.4656-1.2584 6.5584-.9312 9.484-2.8208 19.0936-4.4224 28.496-.1888 1.6256-.3456 3.2608-.5744 4.8808-.2696 2.1104-.42 4.3488-.8368 6.4296l-.136 2.0008-.5712 3.6976c-.2832 2.92-.5008 5.7488-.392 8.684l.3664.6296c1.7896 3.0528 3.8504 5.2032 6.6152 7.396 3.9416 3.1264 15.0848 8.0816 13.4128 14.2624-.264.9744-.9368 1.6944-1.8184 2.152-4.1328 2.1432-11.3824 1.0192-15.5592-.5896-2.2512-.8672-4.5744-1.8944-6.6584-3.116-2.2032-1.2912-9.304-7.484-11.3232-7.132l-.0632.5024.6488-.3896-.5648-.1976c-.1904 1.2584-.072 1.8304-1.008 2.7296-2.6864-.1888-6.3184-3.7184-8.1592-5.6424-.1088-3.836.008-7.5096.4208-11.3232-1.8472-3.6944.4416-15.5496.7784-20.2952l.2016-.2352.4-4.7432c.2256-1.3984.3848-2.7976.5392-4.2056l.2856-3.3048c.052-2.7488.6072-5.6528.9272-8.3952l.1064-.4768c.2232-3.296.5928-6.5392 1.0416-9.8112-.5536-4.9224 1.004-12.4224 1.5032-17.6136 1.3136-13.6592 2.764-27.3656 3.5368-41.0648.4392-7.7824-2.1152-15.9432.0016-23.0416l.9848-4.2928c-5.8464-2.8936-11.8472-5.5992-16.62-10.1448-1.2792-2.5128-1.4456-4.7432-1.4616-7.4968.2848-1.8864.34-3.8288.472-5.7328-.1016-3.5928.6752-7.3928 1.2864-10.9208-.5088-5.3104 1.7688-22.5896 3.4912-27.5784 2.6032-7.5376 11.784-13.4312 18.6328-16.8552 1.7304-.9992 3.136-2.3712 4.6112-3.7048-1.2368-8.4512-4.1568-10.1064-9.408-16.1704Z"/>
  <path fill="#F9827A" d="M533.5328 175.6528c1.232-1.0176 1.5664-1.4448 3.1784-1.7l.8872.7296c.0272 1.184.0112 1.2984-.6176 2.2992l-1.7272.8216-1.7208-2.1504Z"/>
  <path fill="#F3F4EF" d="m540.0784 327.0336.444.352q.0632 11.4264.516 22.844c-2.4192 1.3272-4.8256 2.7544-7.3 3.972 2.0112-8.9952 3.6016-18.376 6.34-27.168Z"/>
  <path fill="#F9827A" d="M538.9592 159.5744c.9368 1.4624 1.7664 3.0088 2.6344 4.5136l.0736 1.2368c-3.7224 2.7408-9.2456 3.6168-13.332 5.9152-1.8328-.0624-3.8152-.5072-5.1048-1.884-.1352-.8592-.2192-1.1216.2424-1.9152 2.5544-4.3912 10.9072-6.5216 15.4864-7.8664Zm.556 16.124c1.8592.3336 3.388.9312 5.1864.2664l.7688.228c.2256 2.9336.3008 7.2128-1.6664 9.6112-.7312.8928-1.7232 1.3672-2.868 1.4464-4.14.2872-8.8832-4.0144-11.6504-6.6656-.8272-.7928-1.5752-1.6456-2.2856-2.544l.0352-1.044c2.2536.852 4.6616 1.0304 7.0376 1.3368.9008.3008 1.9816.2576 2.8872-.0344 1.3168-.424 1.9568-1.4376 2.5552-2.6008Zm18.7544 97.96c1.9848-.6488 3.628-1.2184 5.7584-1.0248l.6448.5248c-.9184 1.5768-2.56 2.1448-4.1808 2.9064-1.4416.7128-2.3056 1.5976-2.9184 3.1256-.1928.4816-.2064.9424-.2328 1.452l.6952.6352 1.3112-.2728c2.9408-.76 8.1376-3.2752 10.8384-2.1328-.1032 1.4368-.8248 2.2168-1.928 3.1568-.1176.1-.2456.188-.368.2824l-1.7576 1.2368-2.6688 1.6288c-2.9776 1.4664-6.2832 3.536-9.5 4.3088l-.336-.6088c-3.2944-3.7064-8.5368-3.7688-11.1072-8.4648 1.0792-1.9656 2.0648-3.5184 3.6536-5.1312 4.5984.4072 7.924.8016 12.096-1.6224Zm-37.8352-95.7432c.9696-.028 1.104-.2608 1.8528.4576.944.9048 1.8192 2.848 2.156 4.1104.6392 2.2456 1.624 3.996 2.8088 5.9848l.46.5072c1.1312 1.2376 2.2952 2.4528 3.7664 3.2848 2.4872 1.408 10.0288 2.5272 10.032 5.912.0016 1.1752-.6416 2.4328-1.48 3.2376-.824.7904-1.8408 1.2976-2.8056 1.8832-.0344.0208-.0584.0552-.088.0824-.7624 1.4928-1.5376 2.9096-1.9656 4.5408l-.4408 1.1648c-1.2536-.388-2.0736-.9384-3.1128-1.7232-2.1912-1.6544-9.176-6.8528-9.5688-9.5864l.8112-.588c1.0648-.7352 1.8688-1.6728 2.7336-2.6216-.508-2.7672-.336-8.6128-2.1376-10.5344l-.4216.1576c-1.1096-.392-1.7256-.9176-2.2824-2.0136-.8432-1.6584-.7072-2.5608-.3176-4.256Zm95.5808 16.3976c6.5416-1.2264 12.8088-3.7448 19.4216-4.5984-.7136 1.5032-1.3504 2.9192-2.4528 4.1904q-4.92 1.5872-9.8056 3.2784l-.2824.6872c2.4704 1.0344 6.0624-1.7176 8.4168-.9376l-.5696.6048c-7.5144 4.4248-15.0304 9.5816-22.0808 14.7144-1.4208-1.968-2.8144-3.9688-4.288-5.8976.8232-1.0264 1.8928-2.1528 2.4872-3.3368 1.7736-3.5328 2.4192-9.9616 5.9968-12.172 1.3144-.8112 1.936-.5416 3.2792-.152-.2632.8648-.088.5528-.5776 1.2288-1.8328 2.5272-2.1256 4.3904-2.3264 7.4016l.4264.2248c1.3824-1.5096 1.7704-3.3224 2.3552-5.236Z"/>
  <path fill="#F3F4EF" d="M512.7968 281.5984c.2824-1.1768.6176-2.2552 1.0408-3.3888 1.4848-.4184 2.2384.1704 3.652.7152 4.7344 2.0424 14.9056 7.7728 19.7952 6.3064.7984-.724 2.2688-2.3576 3.3568-2.4712 3.672 2.9312 7.5024 5.0864 11.7872 6.9952-.948.9-1.7648 1.6392-2.9288 2.2448l-4.3968 1.7216c-4.2704 1.4944-8.528 2.7128-13.0016 3.4248-5.3448-.0256-9.6312-1.0296-14.6048-2.9688-2.4384-1.3624-4.132-2.7672-5.9904-4.8232.22-2.6392.7416-5.1688 1.2904-7.756Zm45.6008-79.8424q6.7776 7.1536 13.9064 13.9576l5.4176 5.1872c-1.4344 1.0632-2.9464 1.8792-3.4752 3.6712l.2552.88c2.4152-.2112 11.2856-7.1296 14.0096-8.8904 4.7824-3.0664 9.9144-5.984 14.3904-9.472 2.788 4.1776 5.5256 8.3944 8.5728 12.3896q-13.8656 9.7256-28.0656 18.9552c-1.884 1.3064-5.9064 4.6752-8.2088 4.4328-.4696-.0496-.9872-.2536-1.4256-.4008-.8928-.9352-2.2296-1.2904-3.4224-1.7664-2.332-13.6864-8.14-25.7832-11.9544-38.944Z"/>
  <path fill="#F3F4EF" d="M497.0192 247.0904c2.4544-9.2616 1.252-19.5888 3.2432-28.9512 1.9712-9.2712 12.0904-14.1856 19.3512-18.948 3.9872 4.208 11.5592 11.5896 16.8 13.7352 1.2152-.6768 2.2288-1.4216 3.3024-2.304 1.9048 20.5288 4.912 40.8752 7 61.3848-5.192-.4592-25.1784-13.1904-30.6096-16.3424.0024-.1584-.0064-.3176.0064-.476.1504-1.8936 1.0944-3.8584 1.4312-5.7712 1.1696-6.6376 2.4912-18.308.0816-24.652l-.4312.0368c-1.2376 5.4264.0464 11.468-.1864 17.0104-.1792 4.2728-1.6432 9.1096-2.7192 13.2624-.1592.6152-.0304 1.0256.3224 1.5848.1752.2784.56.6296.8024.8656 9.58 5.0776 18.8808 10.6952 28.4816 15.7736-3.6944 3.3464-5.4136 6.2864-7.5688 10.7672-5.936-1.7784-11.5384-4.164-17.3104-6.3816-7.46-4.3624-15.9688-6.1512-22.2704-12.488-1.1608-3.6768-.7656-7.3504-.4848-11.128.3352-2.324.5608-4.6392.7584-6.9784Z"/>
  <path fill="#6B7698" d="M565.1304 286.5528c1.1904 4.8208.3304 11.092.12 16.0432-.4568 10.7528-1.4488 21.9184-.792 32.6688-.3144 8.8488-1.136 18.2576-.528 27.0736-1.1384 10.9168-.1488 22.0296-.8528 32.9832-7.1288.5352-13.1968.4376-19.568-3.1544-.1608-14.9248-.116-29.8816-.596-44.7976-.0144-10.268-.7688-20.4768-.0408-30.7528 1.6384-5.5624 3.984-11.3888 3.6072-17.272l-.4856-.2096c-1.7448 2.9248-2.8808 9.6456-4.132 13.3672-1.4968 4.7248-3.976 10.4448-4.348 15.3768-2.516 9.3472-4.7352 19.0552-6.3168 28.6056-1.7248 9.144-3.2912 18.448-4.4336 27.6832l-1.1648 9.4544c-.2688 2.5392-.5904 5.0848-.7848 7.6304-1.2248 5.0696-.716 10.7136-1.1736 15.8984-6.244 1.7072-12.7304 1.988-18.5896-1.2136-.8504-.4648-1.6504-1.0216-2.4384-1.5824.4224-6.2448 1.6472-12.4584 1.8384-18.7112.4584-3.1584.6872-6.3064.8936-9.4896l.4328-3.4592.9704-9.2232.3896-2.2c1.6128-8.0768 1.7304-16.8576 2.4576-25.0784.8136-9.2048 2.012-18.3768 2.74-27.5896.6216-7.8784.7536-15.7856 1.1744-23.6768 1.1896-.3136 2.1552.444 3.2584.9368 5.7216 2.3832 10.6672 3.3736 16.8664 2.9896 4.1216-.6112 8.0928-1.3688 11.9128-3.0872 1.928-.6552 3.6464-1.352 5.4504-2.3064 4.8704-1.8752 9.5768-4.3728 14.1328-6.9072Z"/>
  <path fill="#3C3C68" d="M419.0824 18.894c1.2544 2.0274.5296 6.1732.3728 8.5634l.4624 211.9026c-1.3368 19.6792-.2088 39.9352-.3216 59.688l-.064 44.396c.0008 7.4608-.456 15.1808.0672 22.6096-2.2512.9192-4.56 1.7464-6.6232 3.0488l-3.5992 2.3048c-2.0952-1.2712-4.736-3.2664-7.1656-3.748-1.4352-.2848-1.9896.3952-3.092 1.1728q-12.3832 7.1496-24.8856 14.0896c-3.3144 1.8528-6.7672 4.2096-10.208 5.7392l-4.5096 2.4592-.1936 31.1064.2352 72.476c.0128 8.1904.9568 23.3336-.2256 30.9232 3.68 3.0776 7.9336 5.608 11.928 8.2632-.0832 2.4216-.2608 4.8912-.1928 7.3112-.1528 1.3496.0272 1.9176-1.1248 2.8208-1.9208 1.5072-31.448 17.7752-34.596 18.8216q-9.032 4.8592-17.8872 10.0344c-6.1328 3.5928-12.5432 8.4312-19.4672 10.2368-4.9608 1.0712-9.0144.7136-13.6416-1.3136-3.8664-3.0024-9.0632-5.332-13.3496-7.6952q-12.892-6.948-25.5-14.3984c-2.0928-1.2496-4.0232-2.6488-5.9776-4.1008-.092-3.7552-.4776-7.768.2648-11.4632-1.112-7.2256-.2568-15.7328-.2624-23.088q.0712-25.7928-.1848-51.584-4.3552 2.6072-8.8176 5.0272c-4.6664 2.9856-9.7584 5.4032-14.6216 8.0656l-24.6184 13.7888c-26.4896 14.9704-52.856 30.2968-79.6192 44.7688-3.8528-1.772-7.3768-3.8432-10.7224-6.4536l.0728-73.0208-.0016-10.0008-.1192-183.8048c.0056-28.2672.6272-56.6568.0112-84.9072l.5728-.5568c2.62-.492 7.44 3.2016 9.76 4.6024 20.7848-10.28 40.4296-23.5144 61.7048-32.7648 6.7976-4.432 14.6288-7.6464 21.6936-11.7224 26.8936-15.5152 54.1672-30.1904 81.352-45.1704l110.1448-60.602c7.1664-3.9082 26.5384-16.5235 32.9496-17.8257Z"/>
  <path fill="#6B7698" d="M288.2416 570.976c.6536-4.5912.3184-9.664.2896-14.3008l-.1768-24.6232q-.1872-34.4992-.0184-68.996c-.0192-12.1016-.7208-24.4584-.108-36.528 1.3232-.2424 2.0192.0688 3.2024.572-.3184.7672-1.4 133.5432-.2232 145.0144l-2.9656-1.1384Zm-53.1264-189.0128c6.0984 2.4584 11.8056 6.0552 17.464 9.3768 12.0048 7.0464 24.004 14.9248 36.4232 21.1776 1.4704.972 2.104 1.1712 2.4728 3.0184.5536 2.7704.0744 6.1216-.0792 8.9512-4.9384-2.3232-9.656-5.3768-14.3656-8.132l-25.6-15.0744c-4.4176-2.596-10.236-6.9424-15.1568-8.0656-2.22-3.1352-1.3728-7.5936-1.1584-11.252Z"/>
  <path fill="#A4C6C9" d="M294.9024 412.5024c10.4672-4.984 67.7488-39.1864 71.516-39.3696.4264-.0208.8416.1416 1.2616.212q-.2568 5.5528-.1928 11.1104l-4.6264 2.6968q-30.8408 17.3688-61.92 34.3072c-2.1104 1.1336-5.0776 3.4024-7.5088 2.7264-.1312-2.9032-.4248-5.9912-.1528-8.8888.1472-1.56.4048-1.844 1.6232-2.7944Z"/>
  <path fill="#6B7698" d="M359.836 528.7616c3.3072 1.8024 6.4936 3.8864 9.7064 5.852.06 1.764-.5584 7.072.4936 8.1728l1.0312-1.5864c-.1528 1.3496.0272 1.9176-1.1248 2.8208-1.9208 1.5072-31.448 17.7752-34.596 18.8216-.3832-.0952-.7576-.3296-1.1504-.2872-1.4752.1592-4.5352 2.1992-5.9104 2.9368-8.4048 4.5112-23.9776 14.696-32.5688 15.9728-2.3776.2672-5.0584.4832-7.368-.1936-6.0776-1.7792-12.0232-5.9248-17.5344-8.9992-8.1256-4.532-16.2848-8.9392-24.3176-13.6424-1.6856-.924-3.3104-2.0504-4.944-3.0696l-.0328-10.4184c3.0536 1.4488 5.9224 3.6856 8.7616 5.5272 6.6896 4.3392 14.3368 9.5664 21.7024 12.6016 6.492 3.6552 13.0592 7.1512 19.132 11.4864 14.0632-6.7896 27.6616-14.7768 41.3704-22.2568 9.0552-4.9408 18.6592-9.4104 27.3512-14.9352.884-1.432.056-6.9048-.0016-8.8032Z"/>
  <path fill="#F9827A" d="M236.832 380.3264c6.8832-3 13.4528-6.824 20.0624-10.3776q15.3384-8.0864 30.3808-16.7104c6.8896-3.9672 14.192-9.1104 21.5488-12.024 2.344-.928 4.8944-1.7528 7.3384-.7664 7.0024 2.828 14.7768 8.608 21.3544 12.5504 9.6112 5.7584 20.0584 11.1472 29.1808 17.572q-16.6328 8.9112-33.068 18.1816c-13.228 7.6056-26.4664 15.744-40.052 22.6776-.9184.1992-1.7848.0816-2.7168.024-11.096-5.536-21.76-12.4128-32.476-18.6672-7.0528-4.1168-14.84-7.872-21.5528-12.46Z"/>
  <path fill="#3C3C68" d="M311.252 349.7776c10.0872 7.7888 22.2752 12.8312 32.4584 20.5344-6.8544 3.5896-13.496 7.4368-20.116 11.4376-3.6336 2.196-7.3696 4.868-11.1856 6.6712-4.3472 3.6176-16.5208 9.3808-21.956 11.904-9.6496-4.8512-19.2592-10.7696-28.5456-16.3304-2.4744-1.4816-5.5216-3.412-6.2656-6.3568.9584-2.148 27.2888-16.0632 31.5704-18.1456 1.7992.544 3.5072 1.3256 5.2336 2.0632 3.9432-4.196 7.8936-6.3512 13.0312-8.7952 1.8968-1.0664 3.7672-2.1328 5.7752-2.9824Z"/>
  <path fill="#F3F4EF" d="M310.2144 355.4992c.9936.0208 1.7216.3848 2.6336.7448.5544.8832.5752.832.3912 1.8512-2.992 3.1216-8.556 5.908-12.8128 6.5728-1.7136.2672-1.7496.3016-3.1784-.7232 1.8312-.3344 3.5224-.9256 5.272-1.5384-2.5104.3592-4.9672.8016-7.4448 1.3472 5.292-2.4104 10.184-5.2288 15.1392-8.2544Zm6.8784 5.6456c5.3784.7584 11.7136 5.6752 16.2656 8.5304-2.5552 1.208-5.5808 2.8816-8.3264 3.4768-1.0384.2248-1.476-.3488-2.34-.888l-.6136.448-.5152.4304c-4.2984-1.684-8.2408-4.4696-12.1584-6.8912.824-.7664 1.6576-1.58 2.5616-2.2512 1.7176-1.2744 5.108-.512 7.1192-.2216l.216-.636-2.2088-1.9976Z"/>
  <path fill="#F9827A" d="M306.668 353.3344c1.6184-.8184 3.216-1.66 4.9088-2.3176 6.4992 5.7056 14.7472 9.5272 21.912 14.348 1.2312.7216 2.556 1.396 3.7064 2.2376.944.5768 3.0896 1.5072 3.4544 2.488-3.7664 2.732-11.3736 7.8752-15.8792 8.3872-.7104-.3768-1.4352-.7384-2.1296-1.1448l-.892-.144c-1.808-2.1616-5.6336-3.9312-6.8528-6.1056-.0648-.1168-.1008-.2488-.1512-.3728l-.2744.1776.0504.036.2944-.1912c2.4528 1.3976 5.3352 2.9176 6.9448 5.2944.0808.1192.1544.2432.2312.3648 4.2112-2.016 11.6376-4.0632 14.584-7.5888-.6496-.2776-1.3888-.4096-2.0848-.5488-2.0288-.4064-2.9776-.8344-4.5584-2.2112-3.0952-2.0424-6.3976-3.8496-9.428-5.964-2.5424-1.7736-5.2592-4.5432-8.0744-5.764-4.1984-1.8216-13.2472 5.6672-17.6728 7.1784-.2224.076-.4464.1472-.6696.2208 3.9528-3.5168 7.9368-5.9224 12.5808-8.38Zm-15.7832 45.0968c-10.2376-5.2624-20.12-11.7056-30.172-17.3824-1.4184-.8008-2.8712-1.4744-3.3232-3.1016.0984-.124.184-.26.2944-.3736.8872-.9032 2.4688-1.6472 3.7392-1.7152 3.1792-.1696 30.1056 16.2904 33.5808 19.2072-11.1696-3.5488-21.448-11.5968-32.016-16.7872l-.676.8072-.4352-.7056.4424-.1528-.3072.304c10.2048 5.2904 19.7408 12.0464 30.204 16.808 8.3768-3.3872 17.968-7.964 25.284-13.22 2.048-.9424 4.0616-1.7744 6.1992-2.4936-3.8936 2.7712-7.8048 5.3952-11.8992 7.8624-7.0648 3.496-14.0984 6.9728-20.9152 10.9432Z"/>
  <path fill="#F3F4EF" d="M263.952 374.1944c6.8752-3.612 13.4728-8.2728 20.7288-11.0576 2.8168-1.0816 3.9128-1.3392 6.768-.0584q7.74 4.7856 15.608 9.3576c2.7392 1.7744 6.9344 5.0976 10.1 5.5568.448 1.0696 1.2456 2.108.5192 3.2304-.1288.1992-.3312.34-.496.5096-7.4424 3.5464-14.5928 7.7304-22.0168 11.3384-9.7128-7.1624-22.276-10.8-31.2112-18.8768Z"/>
  <path fill="#F3F4EF" d="M174.1408 154.8032c19.4568-9.9184 38.3272-20.8952 57.4536-31.4232l125.0632-69.088c20.2536-11.0736 40.5264-22.9757 61.328-32.9417q-.1416 9.9125.016 19.8247c-.5592 12.5585-.112 25.2983-.1024 37.8755l.0408 70.8951-.0328 214.3752-6.0632 3.4376c-.3984.2144-.8008.2664-1.24.3616-.7008-1.2768-.6352-2.6824-.6696-4.1-.6384-26.1328.2368-52.4536.2104-78.6144l.048-181.5744.0776-45.9104c.0136-8.735.4168-17.6406-.2512-26.3494q-6.0592 2.8207-11.9128 6.0467c-12.98 6.4477-25.576 13.8754-38.2624 20.8851l-71.9888 39.972-168.4 92.276.0416 241.44c.028 34.0656-.2752 68.1656.1096 102.2272l-7.5096 4.4.0192-350.3568c9.772-4.5592 19.1-10.0688 28.5448-15.2664 11.1568-6.14 22.4056-12.1024 33.48-18.392Z"/>
  <path fill="#A4C6C9" d="m301.9904 422.8352 36.9488-20.2504c5.8512-3.2496 12.1872-7.6744 18.3288-10.0776 1.2736 17.5816.0656 35.596.384 53.2432l-.048 54.9992c-.0112 6.936-.9056 18.184.2224 24.7224l.0752 11.1048c-15.5984 7.4016-30.7448 16.4568-45.8664 24.8048-6.5536 3.6184-13.7152 8.4456-20.828 10.7328-1.1768-11.4712-.0952-144.2472.2232-145.0144 3.8904.1448 7.2952-2.3904 10.56-4.2648Z"/>
  <path fill="#A4C6C9" d="M398.5152 39.2527c.9976 10.019.1208 20.8702.1168 30.9881l.2272 57.916-.2 194.08c-.0112 5.3104.724 42.904-.0392 45.2032-10.0712 4.8136-19.4848 10.9376-29.536 15.828l.1816-5.9464c.0344-2.3304.1272-4.6696-.1216-6.9904-6.276-5.6136-19.1024-11.9928-26.7024-16.4744-7.4352-4.3848-14.8256-9.348-22.452-13.3368-1.7088-.8936-4.668-2.4256-6.6144-2.3704-2.1808.0624-5.2416 1.7248-7.1608 2.6944-15.216 7.6856-29.8904 16.6392-44.872 24.7944-8.5232 4.6392-19.9568 9.6272-27.7608 14.9144-.1864 2.96-1.3888 10.5488.5176 12.8208.1536.1832.3288.3448.4936.5176l4.5304 2.7048q.4568 35.4672.2216 70.936l-9.8072 5.4344c-2.8392 1.1192-5.7896 3.04-8.496 4.504-8.2032 4.4352-16.2512 9.1408-24.3896 13.6928q-37.528 21.3752-75.3248 42.2712l.02-238.9376c.0128-34.1704-.4664-68.3952.0008-102.556 8.5352-5.136 17.8856-9.3224 26.6616-14.0888l61.652-33.9568 90.0808-49.888c32.8304-18.3514 65.5944-37.0443 98.7728-54.7545Z"/>
  <path fill="#3C3C68" d="M346.48 113.8584c3.7712-2.2888 7.5792-4.4168 11.488-6.4584 2.6544 1.6472 5.4672 3.2088 7.9664 5.08q-.592 53.0296-.3656 106.0616l.0144 29.4672c.0008 5.7248.4352 11.8712-.4232 17.5168-.2728 1.7896-1.4928 3.492-2.7984 4.6992-4.2424 3.9208-10.9928 6.7472-16.0912 9.572q-14.0408 7.7336-28.0032 15.6104L197.6344 363.428c-10.5704 5.9784-21.3704 11.4952-31.876 17.6032-2.8744-1.6664-5.784-3.2208-8.7456-4.7264l.1544-100.328c.0176-16.7416-.8872-34.5184.0872-51.1608.1376-2.3512.372-4.8224 1.3864-6.9704 4.9728-3.7568 11.1928-6.4848 16.6816-9.4784l31.6816-17.2008c3.508-2.54 8.0816-4.5008 11.9224-6.5768q26.8416-14.9512 53.836-29.6248c6.9112-3.8024 13.604-8.0568 20.6624-11.5808 10.1248-5.9208 20.5248-11.9544 31.0096-17.2 2.7048-2.7328 17.7816-10.3232 22.0456-12.3256Z"/>
  <path fill="#6B7698" d="M357.7752 110.0056c2.0592.8848 5.4336 1.8752 6.452 4.0312-26.1544 15.2032-52.916 29.4368-79.2952 44.2408l-85.8856 47.348c-10.528 5.7168-20.876 11.7152-31.4952 17.272l-.104 112.9176c.0024 6.4856-.892 37.4424.5512 41.5856-1.092.9824-1.452 1.4176-2.9344 1.3616-.8168-.8864-.9816-1.6216-1.0664-2.7872-.2328-3.1704.1256-6.5448.1416-9.7448l.1272-23.8072.224-78.0168c.0328-13.7608.928-28.148-.128-41.8472-.1584-2.0624-1.3512-2.6608-2.792-3.908 14.7128-9.5296 30.952-17.3792 46.396-25.6904q6.052-3.1712 11.9888-6.5544 37.4592-20.4088 74.568-41.4496c10.1-5.48 20.0432-11.2536 30.2344-16.5632 7.6264-4.8664 15.9656-8.7008 23.6496-13.5088 3.088-1.6904 6.1552-3.4344 9.368-4.8792Z"/>
  <path fill="#F3F4EF" d="M364.2272 114.0368c-.6192 13.4088-.2264 26.9968-.224 40.424l.0224 70.4328-.0232 27.0064c-.0144 4.7736.2824 9.876-.3384 14.6016-5.6272 6.0872-32.7968 19.6296-41.7216 24.6232L221.244 347.812l-34.5992 19.0464c-6.1528 3.3768-12.8496 6.5984-18.6464 10.5424-1.4432-4.1432-.5488-35.1-.5512-41.5856l.104-112.9176c10.6192-5.5568 20.9672-11.5552 31.4952-17.272l85.8856-47.348c26.3792-14.804 53.1408-29.0376 79.2952-44.2408Z"/>
  <path fill="#F7C2B9" d="M238.4128 244.4552c.0552.792.0008 1.6792-.1752 2.4536-.3408 1.5016-1.7864 2.1248-3.024 2.7888-.2816-.9048-.3176-1.7616-.3944-2.7 1.012-1.5416 1.996-1.784 3.5936-2.5424Z"/>
  <path fill="#A4C6C9" d="m330.9344 157.2456 1.2336.764c1.7656.8648 3.5608 1.6144 5.012 2.9696 3.4616 3.0816 4.584 7.2672 4.8208 11.7848.1296 2.4776.0576 5.1016-.6296 7.4968-.288.1624-.6664.4408-.988.5048-.0592-6.9112-.0552-13.092-4.764-18.5752-1.0568-.5544-2.16-1.0416-3.2392-1.552l-3.1608-.9448 1.7152-2.448Zm-44.2688 22.42 1.2752 1.2368c-2.9112 6.2144-5.4312 12.4176-6.7208 19.2032-.7424 7.3504-.5552 14.128 4.2888 20.136 1.456 1.8064 3.1736 3.2328 4.9808 4.6696l-.7648 1.4776c-2.5-.6016-4.7216-2.5216-6.2736-4.4968-5.0256-6.3928-4.7224-15.2552-3.7968-22.864.3128-6.8224 3.9-13.4392 7.0112-19.3624Z"/>
  <path fill="#F3F4EF" d="m329.2192 159.6936 3.1608.9448c1.0792.5104 2.1824.9976 3.2392 1.552 4.7088 5.4832 4.7048 11.664 4.764 18.5752-1.2928.248-2.5952.472-3.8728.792l-2.1992 1.0672c.2136-3.2808-.1512-6.4512-.5008-9.7064-.4056-1.3272-1.0096-2.6232-1.5328-3.9096-1.9296-2.404-3.7208-3.5248-6.5904-4.4824l1.5792-2.5016 1.9528-2.3312Z"/>
  <path fill="#A4C6C9" d="M327.2664 162.0248c3.2472 1.736 5.204 3.0672 7.204 6.2488.48 1.3336 1.1512 2.7776 1.2952 4.1912.6672 3.0552.7264 5.9736.7448 9.0928l-2.1992 1.0672c.2136-3.2808-.1512-6.4512-.5008-9.7064-.4056-1.3272-1.0096-2.6232-1.5328-3.9096-1.9296-2.404-3.7208-3.5248-6.5904-4.4824l1.5792-2.5016Z"/>
  <path fill="#F9827A" d="M208.3832 297.0456c.2952.088.5848.3504.8384.5264 1.1032 9.868.1632 20.8512.0392 30.8184l-8.5592 4.7264-.5856-.1096c-1.168-1.8136-.5272-27.7264-.4816-32.0512 2.9856-1.1312 5.8608-2.5528 8.7488-3.9104Zm-12.44 1.4792.4696.1768c1.3184 1.8928.62 32.0056.6184 36.7448-3.0864 1.5424-6.2128 2.956-9.3688 4.3496-1.268-1.56-.3024-32.2992-.4464-36.864q4.3944-2.1432 8.7272-4.4072Zm25.6384-14.5104.9.2904c1.036 11.4352.1784 25.1984.1856 36.8896q-4.9576 2.3784-9.8672 4.8544l-.5552-.2936c-.4432-4.3288-.0776-8.9768-.0576-13.336q.1016-11.76-.1192-23.5184c3.0056-1.8536 6.3504-3.3112 9.5136-4.8864Zm13.3528-14.016.5656.328c1.0576 3.8256.3288 36.136.5024 43.4496-3.108 1.9696-6.5576 3.5112-9.8432 5.1656l-.696.1152c-1.0488-1.4112-.296-39.1552-.24-44.0096 3.068-2.0472 6.3448-3.5664 9.7112-5.0488Zm51.7312-90.3328c3.876-6.284 9.1672-12.0696 14.924-16.6704 7.2568-5.8 15.24-8.9808 24.616-7.8152 1.8616.2312 3.54.5552 4.7288 2.0656l-1.7152 2.448-1.9528 2.3312-1.5792 2.5016c-9.7128-.7696-16.7744 2.1288-24.18 8.4832-8.2784 7.104-14.6832 18.496-15.4192 29.4848-.3 4.4792.356 9.5016 3.3112 13.068.8728 1.0528 1.9552 2.0616 3.0904 2.8264.9384-.6496 1.2448-1.764 2.0008-2.3048 1.2936-.924 7.2488.1664 9.4696-.1512 12.084-1.7304 21.6776-12.5928 26.496-23.1336 1.42-3.1064 2.1456-7.3584 3.8552-10.1744l2.1992-1.0672c1.2776-.32 2.58-.544 3.8728-.792 1.4824 4.1776-1.0472 9.9376-2.8392 13.7352-6.1304 12.9896-17.2208 26.0384-31.1544 30.8352-5.592 1.9248-10.8896 2.2264-16.6648 1.0528l.7648-1.4776c-1.8072-1.4368-3.5248-2.8632-4.9808-4.6696-4.844-6.008-5.0312-12.7856-4.2888-20.136 1.2896-6.7856 3.8096-12.9888 6.7208-19.2032l-1.2752-1.2368Z"/>
  <path fill="#F3F4EF" d="M287.9408 180.9024c1.168.772 2.16 1.1544 2.768 2.4344-3.3072 8.9032-9.1144 19.5952-4.9024 29.2 2.8888 6.5848 7.456 4.22 4.6832 12.3744-1.8072-1.4368-3.5248-2.8632-4.9808-4.6696-4.844-6.008-5.0312-12.7856-4.2888-20.136 1.2896-6.7856 3.8096-12.9888 6.7208-19.2032Z"/>
  <path fill="#F3F4EF" d="M334.3112 182.6248c-1.7096 2.816-2.4352 7.068-3.8552 10.1744-4.8184 10.5408-14.412 21.4032-26.496 23.1336-2.2208.3176-8.176-.7728-9.4696.1512-.756.5408-1.0624 1.6552-2.0008 2.3048-1.1352-.7648-2.2176-1.7736-3.0904-2.8264-2.9552-3.5664-3.6112-8.5888-3.3112-13.068.736-10.9888 7.1408-22.3808 15.4192-29.4848 7.4056-6.3544 14.4672-9.2528 24.18-8.4832 2.8696.9576 4.6608 2.0784 6.5904 4.4824.5232 1.2864 1.1272 2.5824 1.5328 3.9096.3496 3.2552.7144 6.4256.5008 9.7064Zm85.288 183.4288c-.5232-7.4288-.0664-15.1488-.0672-22.6096l.064-44.396c.1128-19.7528-1.0152-40.0088.3216-59.688.7512 14.4712.12 29.204.1528 43.7072l75.7696-40.612c-.6112 3.528-1.388 7.328-1.2864 10.9208-.132 1.904-.1872 3.8464-.472 5.7328.016 2.7536.1824 4.984 1.4616 7.4968 4.7728 4.5456 10.7736 7.2512 16.62 10.1448l-.9848 4.2928c-2.1168 7.0984.4376 15.2592-.0016 23.0416-.7728 13.6992-2.2232 27.4056-3.5368 41.0648-.4992 5.1912-2.0568 12.6912-1.5032 17.6136-.4488 3.272-.8184 6.5152-1.0416 9.8112l-.1064.4768c-.32 2.7424-.8752 5.6464-.9272 8.3952l-.2856 3.3048c-.1544 1.408-.3136 2.8072-.5392 4.2056l-.4 4.7432-.2016.2352c-.3368 4.7456-2.6256 16.6008-.7784 20.2952-.4128 3.8136-.5296 7.4872-.4208 11.3232 1.8408 1.924 5.4728 5.4536 8.1592 5.6424.936-.8992.8176-1.4712 1.008-2.7296l.5648.1976-.6488.3896.0632-.5024c2.0192-.352 9.12 5.8408 11.3232 7.132 2.084 1.2216 4.4072 2.2488 6.6584 3.116 4.1768 1.6088 11.4264 2.7328 15.5592.5896.8816-.4576 1.5544-1.1776 1.8184-2.152 1.672-6.1808-9.4712-11.136-13.4128-14.2624-2.7648-2.1928-4.8256-4.3432-6.6152-7.396l-.3664-.6296c-.1088-2.9352.1088-5.764.392-8.684l.5712-3.6976.136-2.0008c.4168-2.0808.5672-4.3192.8368-6.4296.2288-1.62.3856-3.2552.5744-4.8808 1.6016-9.4024 3.4912-19.012 4.4224-28.496.6056-2.0928.872-4.4072 1.2584-6.5584 2.4744-1.2176 4.8808-2.6448 7.3-3.972.052 3.8096.92 38.2664-.2168 39.44-2.2312 2.4456-1.384 10.2168-1.3024 13.4752 1.4008 1.4968 3.04 2.8096 4.6688 4.0512 3.94 3.0032 4.0008.464 6.44.3096 3.92-.2472 15.6248 11.9792 26.6616 10.1568 2.552-.4216 5.5152-1.9064 6.9848-4.1128.6752-1.0136.872-2.1696.5288-3.34-1.4424-4.924-15.0152-11.34-19.4312-14.008q-.0408-8.26.0648-16.5184l.088-6.5544.0224-5.6664c.0312-9.2888.6048-18.5672.5096-27.8616.2656-2.048.28-4.1576.3832-6.2208.1336-16.112.8496-32.2728 1.4336-48.376l1.6048-1.7728c.392-.2128.7552-.4736 1.1112-.7408 2.0216-1.5128 2.4072-2.9672 2.7696-5.3944l.2264-4.9856c-.18-2.9832-.096-6.0336-.1392-9.0256 4.4584 1.8392 8.6112 4.2984 12.86 6.5632 11.4056 6.0784 22.4184 12.6872 33.6664 19.0304l50.268 28.8488c14.8192 8.4224 29.8168 16.5672 44.5272 25.1776 11.1248 6.5112 22.1248 13.2264 33.4072 19.4656 3.9992 2.2112 8.2552 4.9744 12.5176 6.5736l.4112-.6784c.2192-.772.4432-1.5552.7656-2.292 1.0184-2.3288 4.0624-3.7128 6.3488-4.5184 6.0336-2.1256 13.9184-2.5936 19.7608.1416 6.8632 3.5504 19.5968 9.1744 21.9248 16.9464 1.336 4.4288-.416 9.3472-2.6 13.212-1.56 2.7664-5.384 8.1992-8.224 9.564-.1064 1.1224-.1784 2.276-.1632 3.404.0072.5888.0992 1.4216.552 1.8632 1.2592 1.2272 8.1872 3.92 10.3072 5.1336 2.4 1.3784 4.352 3.1472 6.32 5.076.968-5.476 1.472-11.1512 3.072-16.4808 3.848-7.3064 7.92-11.172 14.896-15.4888 1.92-1.1904 4.28-2.2968 5.816-3.9696 1.072-2.3408.6-4.2544-.208-6.608l.008-1.3072c-.824-1.3816-1.36-1.4408-2.784-2.104-2.344-.8512-5-1.0888-7.464-1.48-.368-4.28-3.904-14.8312-6.384-18.496.288-.2968.384-.3696.624-.7728 1.272-2.1568 2.512-5.9336 1.88-8.3584-.072-2.14-1.216-4.2048-1.44-6.356-.304-2.8952 1.08-4.492 2.736-6.652 7.864-5.4696 17.112-5.7048 26.312-4.0312 5.776 1.0504 12.176 3.148 15.568 8.304 2.96 4.4904 2.48 9.892 1.312 14.8744-1.352 5.764-4.432 14.7072-9.808 18.052-.16.1048-.336.1992-.512.2984.992 1.2376 1.344 1.8736 3.008 2.1528 2.08.3472 4.432-.1008 6.376.852 3.448.1984 9.128 1.4896 11.52 4.144 4.024 4.4672 6.768 18.5216 6.2 24.32-.088.8728-.384 1.6824-.744 2.4752 5.08-2.0504 49.472-26.736 52.36-29.2704 2.192.892 5.408 2.1336 6.576 4.2944.336 2.0824-12.152 40.4984-13.648 42.3112-.44.5392-.488.5304-.976.8776.624 2.1784-7.44 26.1104-8.96 28.6632-.152.2456-.464.6184-.624.8184.096 2.7048-1.928 8.22-3.552 10.4176.112-.0208.216-.0472.328-.0616 1.072-.1408 1.856.0424 2.832.4584 6.096 2.5944 11.968 6.1504 17.768 9.3376q14.544 7.96 29.008 16.0784c6.616 3.7272 16.496 8.3888 22.352 12.5656.488.3472.76.7512 1.112 1.2248.12 1.5584.016 2.6432-.488 4.124-5.072 4.3032-20.968 11.5896-27.832 15.4064l-77.744 43.4344q-128.1144 72.9424-257.76 143.1264-39.508 22.0608-79.4648 43.2968c-8.356 4.52-16.4656 9.6616-24.924 13.9464-4.1712 2.1128-9.0808 4.032-13.8456 3.6896-4.0344-.2904-8.024-2.2248-11.5408-4.0864-13.3296-7.0552-26.3504-14.8416-39.524-22.1984l-61.9256-34.044q-142.9488-78.036-285.0136-157.6752l-65.1715-36.6064c-3.4725-1.9344-8.8101-3.1008-11.395-6.16-.6598-.7816-.8534-1.66-1.013-2.6432.6039-2.3336 4.7183-4.3216 6.7488-5.5208 12.7319-7.5232 25.8757-14.4512 38.8227-21.6072 7.448-4.1168 14.7952-8.7776 22.4288-12.5152l-.0728 73.0208c3.3456 2.6104 6.8696 4.6816 10.7224 6.4536 26.7632-14.472 53.1296-29.7984 79.6192-44.7688l24.6184-13.7888c4.8632-2.6624 9.9552-5.08 14.6216-8.0656q4.4624-2.42 8.8176-5.0272.256 25.7912.1848 51.584c.0056 7.3552-.8496 15.8624.2624 23.088-.7424 3.6952-.3568 7.708-.2648 11.4632 1.9544 1.452 3.8848 2.8512 5.9776 4.1008q12.608 7.4504 25.5 14.3984c4.2864 2.3632 9.4832 4.6928 13.3496 7.6952 4.6272 2.0272 8.6808 2.3848 13.6416 1.3136 6.924-1.8056 13.3344-6.644 19.4672-10.2368q8.8552-5.1752 17.8872-10.0344c3.148-1.0464 32.6752-17.3144 34.596-18.8216 1.152-.9032.972-1.4712 1.1248-2.8208-.068-2.42.1096-4.8896.1928-7.3112-3.9944-2.6552-8.248-5.1856-11.928-8.2632 1.1824-7.5896.2384-22.7328.2256-30.9232l-.2352-72.476.1936-31.1064 4.5096-2.4592c3.4408-1.5296 6.8936-3.8864 10.208-5.7392q12.5024-6.94 24.8856-14.0896c1.1024-.7776 1.6568-1.4576 3.092-1.1728 2.4296.4816 5.0704 2.4768 7.1656 3.748l3.5992-2.3048c2.0632-1.3024 4.372-2.1296 6.6232-3.0488Z"/>
  <path fill="#F9827A" d="M490.8704 381.8208c4.5888-3.0352 9.284-6.1448 14.1184-8.7696-.32 2.7424-.8752 5.6464-.9272 8.3952l-.2856 3.3048c-.1544 1.408-.3136 2.8072-.5392 4.2056-3.8312-2.724-8.2464-4.8776-12.3664-7.136Z"/>
  <path fill="#A4C6C9" d="M419.5992 366.0536c-.5232-7.4288-.0664-15.1488-.0672-22.6096l.064-44.396c.1128-19.7528-1.0152-40.0088.3216-59.688.7512 14.4712.12 29.204.1528 43.7072l75.7696-40.612c-.6112 3.528-1.388 7.328-1.2864 10.9208-.132 1.904-.1872 3.8464-.472 5.7328l-.212-4.076-.4328-.372c-12.9232 5.7072-25.4912 13.0392-38.0256 19.5976-8.372 4.38-16.5824 8.9968-24.8672 13.5312-3.4472 1.8864-7.2688 3.5024-10.5128 5.6944l.0288 48.5968c.0024 7.5936.896 16.5608-.4608 23.9728Zm153.8472-102.9688c4.4584 1.8392 8.6112 4.2984 12.86 6.5632 11.4056 6.0784 22.4184 12.6872 33.6664 19.0304l50.268 28.8488c14.8192 8.4224 29.8168 16.5672 44.5272 25.1776 11.1248 6.5112 22.1248 13.2264 33.4072 19.4656 3.9992 2.2112 8.2552 4.9744 12.5176 6.5736l.4112-.6784c1.0696 4.624 3.308 8.4912 3.5448 13.3408-8.3-5.8928-20.3616-11.7976-29.4448-17.0328l-74.2856-42.1632-65.168-37.4768c-5.8544-3.3576-16.5008-10.7664-22.1648-12.6232-.18-2.9832-.096-6.0336-.1392-9.0256Z"/>
  <path fill="#F9827A" d="m566.44 333.38 4.184-2.348c10.092 5.024 19.7976 10.9568 29.6368 16.4696l49.3696 27.6624c10.3608 5.8824 20.7496 12.1512 31.5016 17.292-13.1696 7.8408-26.8344 14.7208-39.9912 22.5648-17.9592-8.6952-35.3272-19.1592-52.6216-29.108-4.8512-2.7904-18.1576-11.5424-22.9944-12.784l.0224-5.6664c.0312-9.2888.6048-18.5672.5096-27.8616.2656-2.048.28-4.1576.3832-6.2208ZM399.7728 433.5648c3.9872-.4632 97.044 52.3568 106.512 57.6536-12.1968 7.308-24.7608 14.2232-37.2496 21.0208-19.2264-11.6448-39.5648-21.9512-59.424-32.5032q-23.4736-12.6616-46.712-25.7488c11.9496-7.1864 24.3456-14.2896 36.8736-20.4224Zm211.9776-126.0584c5.0368 1.688 10.0504 5.084 14.6568 7.7272l20.6576 11.8048q37.5784 21.5464 75.7824 41.9624c-11.276 7.908-24.1952 13.8248-36.1328 20.6504-3.9232-.2512-96.3712-54.5104-111.1304-61.7768 12.3256-6.1848 24.2136-13.4952 36.1664-20.368ZM443.3096 408.5208c.9128-.0264 1.4824.0496 2.3432.392 3.8616 1.5344 7.6064 3.9752 11.2536 5.98l19.5816 10.6224c24.5816 13.3512 49.2904 26.7576 73.3016 41.116-12.6064 6.7544-25.2224 13.8088-37.6224 20.94-.032.0104-.0624.0272-.0952.032-.8552.1288-1.3648.0704-2.1688-.2664-4.4592-1.864-8.8992-4.6976-13.1608-7.0056q-15.2392-8.2928-30.3432-16.8296c-19.9048-11.124-40.6272-21.36-59.7272-33.8216 11.9376-7.4944 24.4512-14.0832 36.6376-21.1592Z"/>
  <path fill="#F9827A" d="M533.7384 354.2016c2.4744-1.2176 4.8808-2.6448 7.3-3.972.052 3.8096.92 38.2664-.2168 39.44-2.2312 2.4456-1.384 10.2168-1.3024 13.4752 1.4008 1.4968 3.04 2.8096 4.6688 4.0512 3.94 3.0032 4.0008.464 6.44.3096 3.92-.2472 15.6248 11.9792 26.6616 10.1568 2.552-.4216 5.5152-1.9064 6.9848-4.1128.6752-1.0136.872-2.1696.5288-3.34-1.4424-4.924-15.0152-11.34-19.4312-14.008q-.0408-8.26.0648-16.5184c6.8768 2.8168 13.392 6.7048 19.8904 10.292q16.4792 9.0496 32.7216 18.5176c5.7936 3.3472 11.6672 7.0288 17.7536 9.8136-12.2248 6.8288-24.9328 13.1304-36.6456 20.8064-9.396-5.1856-18.8816-10.2544-28.196-15.5816-6.6048-3.7768-14.3128-8.9128-21.3272-11.7136-1.8488-.7384-3.68-.8624-5.6472-.848l-.5.384c2.3544 4.6176 42.5888 25.9736 50.0048 30.3736q-19.6104 10.5272-38.6616 22.036-32.0048-18.244-64.248-36.06c-13.66-7.4904-27.7552-14.5208-41.0576-22.6248 11.6368-6.7864 23.2752-14.3688 35.3128-20.3392 3.9232 1.8112 14.5208 8.5872 17.7984 9.196-.3368 4.7456-2.6256 16.6008-.7784 20.2952-.4128 3.8136-.5296 7.4872-.4208 11.3232 1.8408 1.924 5.4728 5.4536 8.1592 5.6424.936-.8992.8176-1.4712 1.008-2.7296l.5648.1976-.6488.3896.0632-.5024c2.0192-.352 9.12 5.8408 11.3232 7.132 2.084 1.2216 4.4072 2.2488 6.6584 3.116 4.1768 1.6088 11.4264 2.7328 15.5592.5896.8816-.4576 1.5544-1.1776 1.8184-2.152 1.672-6.1808-9.4712-11.136-13.4128-14.2624-2.7648-2.1928-4.8256-4.3432-6.6152-7.396l-.3664-.6296c-.1088-2.9352.1088-5.764.392-8.684l.5712-3.6976.136-2.0008c.4168-2.0808.5672-4.3192.8368-6.4296.2288-1.62.3856-3.2552.5744-4.8808 1.6016-9.4024 3.4912-19.012 4.4224-28.496.6056-2.0928.872-4.4072 1.2584-6.5584Z"/>
  <path fill="#F3F4EF" d="M526.5104 402.5672c2.6184.9256 6.1328 2.3352 8.1344 4.2632l-.0752.6568c-2.6536.7032-6.0184-.5656-8.6304-1.2224l.5712-3.6976Z"/>
  <path fill="#3C3C68" d="M826.848 328.5224c7.864-5.4696 17.112-5.7048 26.312-4.0312 5.776 1.0504 12.176 3.148 15.568 8.304 2.96 4.4904 2.48 9.892 1.312 14.8744-1.352 5.764-4.432 14.7072-9.808 18.052-.16.1048-.336.1992-.512.2984.992 1.2376 1.344 1.8736 3.008 2.1528 2.08.3472 4.432-.1008 6.376.852 3.448.1984 9.128 1.4896 11.52 4.144 4.024 4.4672 6.768 18.5216 6.2 24.32-.088.8728-.384 1.6824-.744 2.4752 5.08-2.0504 49.472-26.736 52.36-29.2704 2.192.892 5.408 2.1336 6.576 4.2944.336 2.0824-12.152 40.4984-13.648 42.3112-.44.5392-.488.5304-.976.8776.624 2.1784-7.44 26.1104-8.96 28.6632-.152.2456-.464.6184-.624.8184.096 2.7048-1.928 8.22-3.552 10.4176 1.808 3.6336 10.248 17.7296 10.152 20.4608 2.64 2.8344 6.168 9.8176 6.008 13.724-.056 1.3248-.448 1.6864-1.408 2.5192-4.488.6448-7.76-3.1936-11.448-5.1704-4.768-3.4432-21.952-15.5616-26.344-17.2544-2.784 2.3496-25.648 15.3928-29.504 16.9248 2.04 1.7744 15.64 27.004 15.752 29.428.056 1.256-.504 2.4016-1.408 3.2488q-.248.232-.536.4088-.288.1768-.608.2912t-.656.1616q-.336.0472-.672.0256c-4.752-.3136-29.328-19.4184-34.888-23.436-2.408-1.7384-5.232-4.3504-7.92-5.5256.008 3.0136-2.016 7.0536-3.24 9.828 2 2.4624 17.416 33.264 17.312 34.6432-.112 1.4696-.648 2.0032-1.568 3.0232-1.616.5528-2.272.7128-3.912-.0392-3.832-1.7608-29.624-19.4624-33.152-22.4712-9.236 4.8512-18.2144 10.4096-27.2544 15.6336 2.8264 5.8696 15.2944 24.8448 14.1184 30.0408-.7696 1.016-1.1488 1.5872-2.4536 1.8472-1.1568.2312-2.4528-.4112-3.4328-.9496-5.5984-3.0752-10.9008-7.4792-16.1472-11.1744-5.5192-3.8872-11.3824-7.5192-16.7144-11.64-.12-.0928-.236-.1888-.3536-.2832-1.6304-.928-3.0672-1.9328-4.5512-3.0776-1.0992 2.94-2.2352 5.872-3.2464 8.844 4 7.024 13.428 24.4304 15.6728 31.6904.5464 1.7688.7296 3.088.2664 4.8816-.6904.7064-.8312 1.0176-1.8784 1.0576-1.5704.06-3.3448-.8152-4.6528-1.6072-3.5584-2.1544-6.6136-5.2064-10.0512-7.5656-6.656-4.5688-14.3008-8.4704-20.364-13.7744q-13.3224 7.6352-26.7344 15.1112l9.564 20.368c1.7504 3.376 5.2936 8.56 4.9264 12.3984-1.084 1.0728-1.3304 1.1592-2.7328 1.532-1.4632-.2168-2.4944-.7776-3.7336-1.5448-5.9144-3.6608-11.4008-8.2-17.1432-12.1456-7.4016-5.0864-15.1672-9.7192-22.2904-15.1968-1.6176 4.632-3.196 9.2512-4.572 13.9624 3.1568 5.9512 5.9664 12.0672 8.9888 18.0848 2.1264 4.2344 4.9328 8.6456 6.3736 13.1528.5976 1.8696.8224 3.2512.34 5.1592-.7808.7976-.9224 1.1104-2.1032 1.1632-1.544.0688-3.152-.848-4.4008-1.6648-3.4304-2.2432-6.384-5.3416-9.7384-7.7472-6.8232-4.892-14.6952-9.1808-20.9384-14.7512l-28.2376 15.2592c3.0936 6.4328 15.6368 29.2696 15.4728 34.364-.6688 1.2368-.7168 1.2008-2.0248 1.7448-6.1296-.4952-36.8584-26.1056-44.2464-30.7832-1.6136 4.8536-3.2064 9.6704-4.4304 14.6408 3.196 6.5968 6.2488 13.2728 9.5304 19.8264 2.0736 4.1416 4.684 8.3968 6.3152 12.7056.4912 1.2984.6512 2.2552.5376 3.6344-.688.884-.7584 1.1544-1.9376 1.3016-1.7608.2184-3.7264-.6216-5.2472-1.4336-4.044-2.1584-7.7808-5.3344-11.4616-8.056l-19.8888-14.7136c-9.3832 5.2032-18.856 11.3176-28.6968 15.5288l.136.352c1.844 4.652 15.2864 27.768 13.6312 31.2392-.3352.7032-.6784.7728-1.3128 1.1672-2.056.1296-3.6336-.6648-5.3512-1.7224-6.7416-4.1504-12.9112-9.9904-19.2728-14.76-10.616-7.9576-22.14-15.4528-32.1624-24.1136-.1224-.1048-.2336-.2216-.3512-.332-1.9104-1.428-3.796-2.8-5.848-4.0216-.1592 5.0744 1.4032 22.356-1.5368 25.4352-1.1096 1.1616-2.8408 1.2904-4.34 1.244-4.228-3.5672-8.4096-4.7632-11.0248-10.0744-3.4176-7.8912-4.4256-18.1608-6.1232-26.6416-.6064-2.6312-1.0992-5.2336-1.4888-7.9064-.8008-2.4472-.996-5.3472-1.3864-7.9056l-.5624-.9944c-3.2176 3.756-4.3552 12.2032-7.964 15.0024l-1.268.464c-2.5536 2.3352-.7536 8.1072-2.0568 11.1736-.38.896-.8664 1.1928-1.7488 1.4768-3.8024 1.224-6.2552.2064-9.5784-1.5208-6.0904-3.1656-14.4864-2.6112-21.104-4.904-2.1952-.7608-5.932-2.1472-6.7808-4.5096-.4-1.1152-.3112-2.1824.2592-3.2112.5312-.9576 1.5512-1.9488 2.5448-2.4208 3.0384-1.4416 7.2632-1.9104 10.5248-3.0072 3.3384-1.1224 6.3904-2.8368 9.7432-3.9464l4.6128-9.6944 3.472-8.9728c2.7864-7.672 5.4376-15.3872 8.2952-23.0352-4.4192-2.7016-19.7048-9.9128-21.548-14.132-.3736-.8544-.156-.928.1192-1.7544 1.4776-1.2888 26.84-16.3176 28.9832-17.092 2.4808-2.1384-5.0088-12.6336-4.572-16.9192.7536-1.3544 1.4432-1.6808 2.8344-2.3072 3.704-3.0456 8.836-5.208 13.0328-7.5648q10.1944-5.7256 20.1152-11.9128c1.4176-.888 2.892-1.6968 4.34-2.5336 1.5192-.8608 2.7656-1.7512 4.5736-1.6872 1.5296.9744 1.7616 1.8808 2.524 3.4384 1.9048 4.3272 4.7632 9.0632 6.1328 13.5064 1.5376 3.288 3.3192 9.212 6.8024 10.7704 2.0752.5608 5.4496 1.9552 7.5008 1.1128.0472-2.1856.4648-4.4656.7304-6.6416-.2872-.8056-.6528-1.572-1.004-2.3504-2.2104-1.6576-4.3808-.8464-6.8824-1.4456-1.4832-.3552-2.04-1.6856-2.8152-2.8504-.3952-7.8384-1.2848-14.9032 3.932-21.5784 3.0992-3.9656 7.6888-5.7344 12.5568-6.2536l3.4064-1.204c4.3816-2.4968 9.0376-3.108 13.984-3.1232-.8464-1.6896-1.3856-3.5592-1.9976-5.3456 3.2648-2.3136 6.9568-3.9656 10.536-5.7304 7.8576-6.1648 22.1216-14.0224 31.2032-18.5224 1.5712.1232 2.104.8768 3.3096 1.8536 4.6024 9.2488 9.2496 18.4552 14.5104 27.3536 2.1624-.6424 4.2504-1.6648 6.4008-2.3864-.9504-2.4248-1.6664-4.8472-2.332-7.364-.1776-.0056-.36.0232-.5328-.0176-4.7816-1.1128-11.2208-7.6224-13.2656-12.048-1.3664-2.956-1.724-6.1824-.5544-9.2672 1.924-5.076 7.2232-8.2128 12.0008-10.1816 7.1944-2.9656 13.8928-2.9176 21.0624.0312-.7136-3.2128-3.4928-7.16-2.2376-10.2728 1.7888-1.7136 4.196-2.44 6.4616-3.3512 3.1424-2.3664 7.3072-4.4056 10.9064-6.004 6.5776-3.904 19.9408-12.5416 26.3808-14.9032 6.8008 9.136 11.4008 20.7984 16.8272 30.8424 1.3976 2.5856 2.8496 6.012 4.7816 8.2152 2.9608-1.808 7.772-2.5848 9.4032-5.8208-.2512-.244-.5376-.5464-.8408-.7168-2.74-1.5376-5.1328-3.4176-7.4088-5.6408-3.8168-3.7288-12.7368-18.5888-12.6728-23.816.0264-2.1272.4144-3.3104 1.9736-4.764 3.528-3.3384 9.6808-3.9088 14.2552-4.2768 1.8-.5296 4.336-.4248 6.2504-.5408 2.1904-1.76 5.0712-3.0048 7.4984-4.472-1.2824-2.4312-2.7872-4.8424-2.6736-7.6776 2.4152-4.1696 27.7096-17.0824 33.4088-20.0336 2.2616-1.712 4.7304-3.204 7.1064-4.756 1.4608-.5832 2.0776-.9848 3.6592-.776 4.9128 3.544 17.3064 29.7144 21.5128 36.8264 2.9456-2.124 9.5728-5.7384 10.6176-9.0752l.8232-3.8432c1.308-7.9952-5.1808-5.844-6.6728-13.7856-1.1408-4.376-.8376-9.7952-1.42-14.3544-.2368-4.8496-2.4752-8.7168-3.5448-13.3408.2192-.772.4432-1.5552.7656-2.292 1.0184-2.3288 4.0624-3.7128 6.3488-4.5184 6.0336-2.1256 13.9184-2.5936 19.7608.1416 6.8632 3.5504 19.5968 9.1744 21.9248 16.9464 1.336 4.4288-.416 9.3472-2.6 13.212-1.56 2.7664-5.384 8.1992-8.224 9.564-.1064 1.1224-.1784 2.276-.1632 3.404.0072.5888.0992 1.4216.552 1.8632 1.2592 1.2272 8.1872 3.92 10.3072 5.1336 2.4 1.3784 4.352 3.1472 6.32 5.076.968-5.476 1.472-11.1512 3.072-16.4808 3.848-7.3064 7.92-11.172 14.896-15.4888 1.92-1.1904 4.28-2.2968 5.816-3.9696 1.072-2.3408.6-4.2544-.208-6.608l.008-1.3072c-.824-1.3816-1.36-1.4408-2.784-2.104-2.344-.8512-5-1.0888-7.464-1.48-.368-4.28-3.904-14.8312-6.384-18.496.288-.2968.384-.3696.624-.7728 1.272-2.1568 2.512-5.9336 1.88-8.3584-.072-2.14-1.216-4.2048-1.44-6.356-.304-2.8952 1.08-4.492 2.736-6.652Z"/>
  <path fill="#F7C2B9" d="M837.952 354.6744c1.16.3488 1.552.2304 2.152 1.3256.304 1.0152.072 2.124-.032 3.1624l-.632.0952c-1.28-1.6656-1.248-2.5536-1.488-4.5832Z"/>
  <path fill="#F3F4EF" d="M567.424 535.2568c.4672-.7272.9416-1.4752 1.5008-2.136.9104-1.0752 1.7928-1.9136 3.2192-2.0672.7064.9512.6048 1.176.62 2.3832-1.3792 1.0968-2.7576 2.1504-3.968 3.4384l-1.372-1.6184Zm109.3392-88.3784c.736.2952 1.4904.6 2.1704 1.012 2.888 1.7504 3.5752 5.0272 4.3808 8.0496-.1248-.0352-.2512-.0632-.3736-.1056-3.316-1.1456-4.8376-5.98-6.1776-8.956Z"/>
  <path fill="#F9827A" d="M698.2872 418.8816c1.2624 2.096 3.5232 5.0976 3.6784 7.5952-2.8184-1.0008-5.548-1.92-8.488-2.492l-2.6888-.6312c2.1904-1.76 5.0712-3.0048 7.4984-4.472ZM536.368 506.028l4.4624 7.276-3.7856-1.476c-1.6568-.7264-3.2712-1.1624-5.0208-1.5904-3-.6872-5.9192-.6448-8.9816-.6368l-.6584-.4496c4.3816-2.4968 9.0376-3.108 13.984-3.1232Zm63.9624-2.7776c.7624 2.6712 3.884 10.5016 2.684 12.8288-1.5248-.5352-1.9216-.8784-3.5064-.4072-1.0472-.6408-4.7312-8.4512-5.5784-10.0352 2.1624-.6424 4.2504-1.6648 6.4008-2.3864Zm-96.052 48.6712c2.6792.6768 5.3288 1.5864 8.024 2.172.3424 2.8392 1.0872 5.0152 2.34 7.58-1.48.7872-3.1 1.5104-4.4896 2.4392-1.1424-.0416-2.8928.0856-3.9448-.3152-.4696-.9192 1.408-2.3184 1.3888-3.4856-.0416-2.544-2.8344-5.636-3.3184-8.3904Z"/>
  <path fill="#F3F4EF" d="M709.8304 457.74c1.8264.6896 3.0808 1.0392 4.212 2.6648l-.584.3448c-2.608.4096-5.2104.8536-7.8432 1.068l-8.9984.9496c-1.7152.3504-3.452.6592-5.1504 1.0824l-1.3664.1104-.1848-2.8824c6.4192-1.5768 13.3696-2.276 19.9152-3.3376Zm80.584-50.3264c1.6952-.6816 3.296-1.3696 4.8896-2.272l.9736.1408c.3576.9072.4576 1.7072.5792 2.6672-6.2784 3.1656-15.5896 3.3648-22.3776 2.0032.0792-1.256.3392-2.4984.5528-3.7368 2.5048-2.0632 6.8352.9576 9.8008 1.3528 1.8008.24 3.7752-.0096 5.5816-.1552Zm59.9456-37.2248c.232-.0144.456-.0312.688-.0416 2.816-.128 4.68-1.8736 7.328-2.3728.88 1.1448 1.024 1.2296 1.08 2.7432-1.72 3.7184-6.488 5.3736-10.104 6.7096-2.488.9192-5.072 1.8352-7.632 2.5488.512-1.8984.832-4.3768-.36-6.1088-.128-.1808-.288-.3344-.424-.5024 3.016-4.0248 5.568-1.4712 9.424-2.976ZM709.8912 484.3032c5.2728-1.2624 10.3312-3.5752 15.7304-4.3288 2.0712-.2888 2.5168-.2584 4.112.9296-.2168.5392-.4376 1.4344-.7592 1.8896-1.3208 1.8672-13.0608 8.4008-15.612 10.0528-.98-2.7864-1.104-5.3816-3.128-7.744-.3344-.0872-.7128-.3984-1.0072-.5848l.664-.2144Z"/>
  <path fill="#779BB0" d="M628.4488 509.16c-.2648 3.3136-.4832 5.3984-3.1864 7.6944-3.1072 2.64-7.8664 2.8744-11.7496 2.5552-2.576-.7032-5.224-1.2272-7.8296-1.8192-.6712-1.3712-.6552-2.3792-.6208-3.888l.588-.6504c9.872.6072 13.9712 1.5976 22.7984-3.892Z"/>
  <path fill="#F9827A" d="m567.424 535.2568 1.372 1.6184c-4.9312 6.3536-10.2592 12.6208-14.2544 19.6184-1.944-.5696-5.2048-1.0712-6.3312-2.844l.312-1.5688q1.4408-3.4064 2.836-6.8312c.4888.1528.8736.2992 1.3992.3384 3.2704.2432 12.4688-7.8704 14.6664-10.3312Zm-49.9856 127.5024c-2.9936-1.7504-6.2512-3.4168-8.3632-6.26-1.1088-1.4912-1.584-2.6872-1.3032-4.4992 2.9496-2.3032 10.6368-.5736 14.6224-.9624l1.4608.0064c1.0424 2.7256-2.0304 9.7416-3.1456 12.5192l-.6328.4c-.8784-.3992-1.7736-.7776-2.6384-1.204Z"/>
  <path fill="#F3F4EF" d="m600.4088 496.2928 1.2504-.1816c2.6296 4.4248 5.2872 10.1792 10.7344 11.5408 6.7384 1.6848 10.3776-3.856 13.6536-4.2248.7696-.0872 1.2544.6192 1.6704 1.1136l.0552 2.0584c-.8088 1.408-1.7272 2.2976-3.1144 3.16-5.6784 3.5288-13.5024 2.8544-19.7208 1.5504-1.8904-4.8552-3.928-9.804-4.5288-15.0168Z"/>
  <path fill="#779BB0" d="M599.6312 495.1064q-.484-.1968-.9632-.4056c-5.692-2.4904-11.22-6.6232-13.3792-12.6864-.9984-2.804-.9704-5.832.4128-8.5024 2.1712-4.1936 6.1784-5.8504 10.408-7.1688-2.6728 4.0592-5.512 9.0528-4.5608 14.1184 1.1368 6.0536 7.04 10.1464 8.5616 14.6568l-.4792-.012Z"/>
  <path fill="#F3F4EF" d="M481.4976 580.4656c1.3552.3624 2.688.6752 3.9544 1.2888-3.044 5.1096-3.4008 12.384-7.016 16.8352-4.3008-2.112-8.4576-5.2264-12.4608-7.8744 5.296-3.1432 10.352-6.8808 15.5224-10.2496Z"/>
  <path fill="#F9827A" d="M510.0288 564.4208c1.7144.4264 2.54.2488 4.1936-.3144 1.748-.596 2.7552-.5824 4.4344.1864l.3688.8768-.1664.3832c-6.1704 3.0504-12.0784 6.5336-16.9232 11.4936l-1.5504.3104c-4.576-.5496-8.3608-1.224-12.2816 1.8408-.9648.7536-1.8152 1.6672-2.652 2.5568-1.2664-.6136-2.5992-.9264-3.9544-1.2888 5.88-4.0408 22.392-14.2272 28.5312-16.0448Zm89.404 20.572c1.8808.8992 3.7144 1.9744 5.5504 2.9664l.312.2672c1.632 1.3776 4.0872 2.3384 5.124 4.2.084 1.0584.0328 1.7752-.252 2.7992-.8904 2.724-1.5968 5.5896-3.9384 7.4384-1.3864.452-2.4184.5136-3.78-.1248-1.7696-.8304-3.5592-2.1936-5.2112-3.2496l-1.3912-1.2144c-.2296-1.2752-.1056-2.004.2656-3.24l1.2592-4.244c.612-1.8944 1.3464-3.7416 2.0616-5.5984Z"/>
  <path fill="#F3F4EF" d="M825.016 350.72c1.392-1.9352 1.832-4.428 2.424-6.7016 1.104.9848 1.912 1.7248 2.544 3.0736 1.576 1.5416 5.264 4.4136 6 6.4624l.272 3.004c.264 3.0568 1.064 5.7832 2.248 8.5976 1.248.732 1.712 1.2128 2.496 2.4304.864.7568 1.136.752 1.24 1.8752-.872.7168-1.344.7592-2.456.8264l-1.488-.6232c-1.288-1.3712-5.688-1.5712-7.6-1.8664.008-.1256.032-.2496.032-.3752 0-3.224-3.384-14.32-5.712-16.7032Z"/>
  <path fill="#F9827A" d="M682.9264 541.788c3.552 2.6232 7.2288 5.0264 10.924 7.4392-1.304 4.3632-2.3728 12.4776-6.2248 14.9736-4.168.2152-6.9168-1.4992-10.5152-3.352 1.8464-6.3832 3.648-12.7776 5.816-19.0608Zm86.1912-55.0112c3.0712 2.232 5.948 4.6544 9.1992 6.6376.7264.5496 1.9 1.1072 2.0832 2.0136.6744 3.3496-2.896 10.3184-4.052 13.636-4.3952 1.4752-7.4464 2.4056-11.876.2952-.3432-.4712-.6168-.9816-.9088-1.4848-.0768-6.452 3.6-14.8552 5.5544-21.0976Zm79.3464-36.7184c2.816 1.192 6.888 4.192 8.976 6.4352 1.304.7064 3.336 1.5432 3.944 2.9896-.536 4.124-4.312 16.4192-6.368 19.904-3.432-2.4984-10.448-5.616-14.544-6.8144 2.184-2.2304 4.872-10.3808 5.152-13.5488.048-.5112-.104-.8512-.272-1.3208 2.064-1.872 2.744-4.9808 3.112-7.6448Z"/>
  <path fill="#A4C6C9" d="M850.848 418.3496c.664.0696.464.0184 1.224.2704 1.664.5528 3.024 1.7376 3.784 3.2928-1.264 1.708-46.568 27.2008-53.632 31.3952l-.52.0992c-1.7168-.3736-2.8736-1.6648-4.1576-2.7952 4.8776-3.8896 10.3816-6.8872 15.7336-10.0696 12.448-7.4016 25.512-14.2096 37.568-22.1928Z"/>
  <path fill="#F9827A" d="M497.4592 578.368c1.1872.1048 2.9504-.0056 3.8544.7312-.756 4.9592-2.552 9.8648-3.7392 14.7488-.4024 1.5608-.4856 2.7648-1.652 3.94-2.5816.0992-4.3792-2.3272-7.3504-2.0328 2.7464 1.3496 5.256 2.3128 7.0008 4.96.1224 1.0784.0064 1.7464-.248 2.7792-.212.9352-.3568 2.2184-.7472 3.0728-.5376-.4232-.8944-.4176-1.5544-.5288-1.7552.2328-2.7296-.088-4.32-.8264-2.904-1.692-5.932-3.2832-8.4536-5.528 3.9096-7.716 3.5656-15.5824 11.2352-20.9352 1.9888-.228 3.976-.2968 5.9744-.3808Z"/>
  <path fill="#F7C2B9" d="M488.7032 605.212c.8384-1.28 1.212-2.2208 2.5856-2.932 1.1632.7584 1.272 1.46 1.592 2.8176.0992.4232.1032.556.1424.9408-1.7552.2328-2.7296-.088-4.32-.8264Z"/>
  <path fill="#A4C6C9" d="M598.0472 561.164c1.2224.652 3.1104 1.276 3.7376 2.496-5.0008 4.5072-12.176 7.8952-18.0008 11.2776-12.1152 6.3744-23.8416 13.5776-35.7816 20.2864l-3.9896-3.5568c6.108-4.7328 13.1176-8.2104 19.792-12.06 8.4328-4.864 16.7688-9.9152 25.1328-14.8984 2.9848-1.9016 5.42-3.6056 9.1096-3.5448Zm170.4848-99.3616c1.624.7968 3.2992 1.344 4.1856 3.0096-.0176 1.1072.1664 1.4744-.6832 2.2712-4.076 3.824-12.7592 7.5248-17.8288 10.3784-10.8728 6.12-21.544 12.5712-32.5496 18.4584-1.0896.4816-2.1584.9936-3.3784.8976-1.4856-.1168-3.3072-.5536-4.3328-1.6752l.216-1.0136c17.9136-10.9648 37.012-20.5424 54.3712-32.3264ZM666.12 519.0752c6.4128-3.3688 12.3936-7.456 18.972-10.5416 2.0608.9984 3.932 2.2784 5.8424 3.532-3.5632 1.8984-6.9864 3.9656-10.4184 6.088l-28.4728 16.3792c-6.1368 3.5336-12.1472 7.316-18.4664 10.5176-1.4312-1.0624-3.7768-2.3368-4.1736-4.164 12.104-7.3728 25.128-13.6264 36.7168-21.8112ZM531.6624 632.5864c4.3208-13.0832 7.7328-26.4624 12.1176-39.5176 1.436 1.4152 3.0608 2.6848 4.5944 3.9952-.9264 6.5096-4.0448 13.6528-6.0544 19.9488-5.8928 18.46-12.8168 36.8032-17.1496 55.6944l-.6592.4064c-1.4664-.58-2.4392-1.5368-3.596-2.5856.6728-4.2576 2.2648-8.6168 3.452-12.7616l7.2952-25.18Z"/>
  <path fill="#F3F4EF" d="m748.188 551.148.4152.1408c2.6088 3.3864 15.2312 29.2328 15.3656 32.4304l-.8296.4984c-3.6888-.5416-7.6048-4.4008-10.5024-6.6776-7.1376-5.8656-15.576-10.4312-23.12-15.8008q9.372-5.2312 18.6712-10.5912Zm-84.2736 47.9168c.4256.3208.2792.1808.7272.708 1.4216 1.6744 14.0264 27.0544 15.4112 30.4944.3344.8304.3728 1.24.2696 2.1064l-.8008.6288c-3.5944.0064-8.0096-4.5712-10.728-6.7672-7.5912-5.828-15.7064-11.0288-23.6624-16.3416 6.132-3.8136 12.4784-7.3128 18.7832-10.8288Z"/>
  <path fill="#A4C6C9" d="m712.2432 496.0584 5.2224 2.776c-3.2344 8.1928-19.5072 54.6912-18.7256 59.8984-.6968 3.4424-3.4912 14.4544-5.6968 16.6856l-.5648-.504c-.5616-3.5144-8.1016-7.3464-10.9288-9.4328 1.5152-.6464 3.7808 1.5768 6.1424.436 5.2368-2.5288 9.9656-24.3264 11.9512-30.4168 3.8728-12.92 7.4032-27.02 12.6-39.4424Z"/>
  <path fill="#F3F4EF" d="M828.448 506.848c.736-.0192 1.152.0376 1.848.2032 2.632 3.904 13.088 24.14 14.472 28.4208.52 1.5792.984 3.0296.192 4.5688-3.128.4736-7.592-4.0808-10.4-5.6-.128-.068-.256-.1336-.384-.2-2.936-4.0728-18.424-12.9208-23.424-16.116 4.152-2.9496 15.248-8.1784 17.696-11.2768ZM578.9144 647.2536c1.5904 1.8208 15.9224 31.8392 15.9304 33.0144.0048.804-.4024.9272-.9344 1.4768-3.2336.1432-8.0672-4.5432-10.6456-6.496-7.8696-5.5712-15.5736-11.4112-23.3384-17.1296q9.544-5.3448 18.988-10.8656Zm330.8696-184.144c1.784-.5456 4.296-1.3728 5.504-2.8608 3.56 2.7424 15.536 26.3664 15.944 30.8568.048.5856-.04.9968-.28 1.5288-3.552.5632-6.176-3.2896-9.48-4.056-.016-.0784-.024-.1616-.056-.2344-.984-2.0008-23.136-15.5912-25.872-16.7488 2.488-.9264 13-6.5736 14.24-8.4856Z"/>
  <path fill="#8F90A8" d="m797.304 451.804 3.4 3.2336c-3.064 10.9368-17.0408 45.2568-16.952 53.728-1.356 6.0928-4.62 11.6152-6.5392 17.496-5.788-1.4336-12.2888-6.6104-17.1952-10.0152l2.0128-6.136c1.1712.5584 2.2944 1.1312 3.4064 1.8 3.28 1.1984 6.3048.6696 9.6448.1432.0008.968-.2736 1.9256-.7656 2.7736-.8488 1.4616-1.4808 1.6032-3 2.0056l.1424.4688c1.2128.448 1.8864.656 3.2064.3808 2.7192-5.2416 4.1056-11.7368 6.0456-17.3496 5.568-16.112 10.564-32.6048 16.5936-48.5288Zm-168.176 91.0832 3.9184 3.4544c-2.5888 7.3944-16.2304 44.0352-15.7608 48.5032-1.5688 9.7352-7.5944 18.924-8.2008 28.88-5.636-4.7144-11.7704-9.028-18.0224-12.8808l2.0152-6.7904c.3968-1.3176.7576-2.424 1.5024-3.5872 1.3256-.1192 1.6176.3424 2.6936 1.076 1.5192 1.156 3.2976 2.776 5.0864 3.4416 1.372.5104 2.964.5224 4.2736-.1704 2.9136-1.5408 4.116-5.676 5.1304-8.588.4056-2.2832 1.2064-4.5992 1.8384-6.8368q1.6152-5.1976 3.3872-10.344 5.8424-18.1552 12.1384-36.1576Z"/>
  <path fill="#A4C6C9" d="M880.944 405.024c3.08-2.9 10.792-6.0824 14.776-8.3144 13.512-7.572 26.904-15.7344 40.696-22.7456.864-.4384 1.488-.7616 2.488-.728 1.384.0464 2.4.6296 3.44 1.4824-1.08 2.7928-51.256 27.1528-55.848 33.3968-2.992 4.0608-17.4 47.8832-20.12 55.4904.696 2.4272-4.68 15.5032-6.04 18.0184l-.44-.0008c-.48-1.1608-1.544-1.7168-2.112-2.7288-2.032-3.6216 5.888-14.3888 4.64-19.2048.576-.44 1.024-.9032 1.376-1.552 3.448-6.38 6.768-20.1408 9.224-27.5424 2.56-7.6992 5.968-15.48 8.032-23.3016.224-.8664.104-1.4248-.112-2.2696Z"/>
  <path fill="#F9827A" d="M657 472.8176c1.2744-.48 1.44-.6136 2.8208-.284 1.344 1.652 1.4472 2.824 1.2184 4.9544-.6368 5.9288-2.8984 11.8792-4.344 17.6616-1.5256 6.1032-2.5864 12.5376-4.4752 18.5232-.4312 1.3672-.8672 2.3384-1.7736 3.4512-.772.3664-1.7728.8072-2.6528.716-2.2232-.2296-8.2056-4.1064-10.7528-5.1312-2.2272-.896-4.6096-1.2568-6.9712-1.6144.1256-1.96.1128-3.7232-.1104-5.6784-.5376-.9696-1.1424-1.9864-1.5304-3.0264-.8928-2.3904-.232-4.5248.8056-6.7376 4.6536-1.0328 9.3392-3.2504 13.7744-5.0272.184-.0544.3712-.0976.5512-.1632 2.0912-.7664 2.5744-2.12 3.416-4.0792.6056-1.8944 1.376-3.7568 2.0736-5.6208 2.0192-1.3672 4.7064.2792 6.604-1.1568.996-2.0952 1.076-4.5056 1.3464-6.7872Z"/>
  <path fill="#F3F4EF" d="M759.5248 518.252c4.6312 3.4768 15.4024 8.0936 18.284 12.2896 2.6816 5.0272 17.5152 30.088 16.7696 33.876-.0216.1104-.0744.212-.1112.3184-3.6768.4376-30.5872-19.8824-35.7688-23.0416l-5.7072-4.1192c.82-2.528 1.7688-5.0248 2.6648-7.5272l3.8688-11.796Zm79.7712-41.2152 1.264-1.8104c4.392-.316 12.824 6.1824 18.728 6.912 2.392 2.5272 18.888 33.8448 19.04 37.0712-.608 1.2712-.576 1.2072-1.888 1.736-7.288-1.7696-33.04-23.5368-41.896-28.6832-.112-.0624-.216-.1232-.328-.1856.104-.1088.224-.2072.312-.3264 1.272-1.62 5.008-12.78 4.768-14.7136Z"/>
  <path fill="#6B7698" d="m442.804 599.5528 6.816 3.7872q7.86 4.6776 15.8792 9.0776c-3.0088 2.124-6.66 3.6848-9.4192 6.036-2.0056 1.5504-3.4744 3.5-3.8872 6.0624-.2296 1.424-.1392 3.0056-.1432 4.4472-.0224 7.384-7.3216 14.4208-7.8752 21.3816-4.3072-.5616-10.0424-1.4416-13.924-3.3416-1.528-.748-2.7736-1.832-3.2904-3.4976-1.2376-3.984 1.8424-8.7792 3.5464-12.2504 1.9288-4.864 4.0784-9.6584 5.8704-14.572 2.0912-5.7344 3.7432-11.6328 6.4272-17.1304Z"/>
  <path fill="#F9827A" d="M689.8472 425.5016c6.2072.508 11.0656 2.1072 16.5584 5.0224 1.7152 1.5408 3.3376 3.0072 4.7344 4.8536 1.0664 7.028.6592 13.7712-.8184 20.7112-5.5456.8816-16.8264 1.5144-21.4712 4.0568l-1.0432.2336c-3.4112-1.9816-2.8256-6.7144-4.5384-9.7888-3.06-5.496-11.1664-7.1112-13.1608-13.7592-.7712-2.5696-.4624-4.784.776-7.1216 4.2144-3.1104 9.06-3.5928 14.1024-4.1632 1.6.004 3.272.1128 4.8608-.0448Z"/>
  <path fill="#A4C6C9" d="M596.1096 466.3432c6.0984-2.6448 11.8696-3.4952 18.2152-.9936 4.8456 1.9104 8.7072 5.3184 11.8936 9.3696 2.1816 3.756 2.3888 6.2896 2.3496 10.5824-.6608 6.1032-.568 13.6392-5.7944 17.8216-2.4784 1.9832-6.5576 3.8432-9.7488 3.3984-2.6888-.3744-4.9344-4.1288-6.3432-6.236-.9664-1.4464-1.7952-3.032-3.1704-4.1256l-1.852-.0488-1.2504.1816-.2984-1.1744c-1.5216-4.5104-7.4248-8.6032-8.5616-14.6568-.9512-5.0656 1.888-10.0592 4.5608-14.1184Z"/>
  <path fill="#F9827A" d="M827.376 329.6656c10.288-5.0144 20.272-5.6656 31.312-1.8184 3.744 1.3072 7.296 3.548 9.136 7.1992 2.616 5.196 1.032 12.4496-.864 17.6504-2.272 6.2104-6.16 11.8832-12.312 14.7432-3.624 1.688-6.976 1.9128-10.872 1.0488-1.168-.9536-1.328-.8552-2.776-.9024-.784-1.2176-1.248-1.6984-2.496-2.4304l.704-.9616c-.216-2.32 2.056-3.9976 2.64-6.144.352-1.2968-.168-1.9232-.848-2.9656l-.04-1.028c-3.104-2.5904-6.52-6.0264-9.96-8.0112-.344-3.3896-4.176-6.2032-5.088-9.6128-.464-1.7184-.28-2.7136.584-4.26.408-.728.728-1.1648.856-2.0128.024-.1632.016-.3296.024-.4944Z"/>
  <path fill="#6B7698" d="M457.04 620.0192c2.7488-1.8904 8.7104-6.3832 11.8384-6.0464 3.0144 2.8584 21.664 12.0936 21.4408 14.5352-.0176.192-.1224.3656-.1832.5488-.612 4.9696.2432 8.724 3.3792 12.6688 3.2384 4.0744 7.5224 6.5416 12.376 8.1848-.3408 3.2464-.1152 5.8216 2.0792 8.456 1.7296 2.0768 4.5848 3.688 6.9408 4.9616 1.572.844 4.2376 1.848 5.2456 3.3112l-.1112.4504c-1.5784-.2312-42.9096-23.8872-47.8296-26.6296-2.9256-1.6312-6.5576-4.4136-9.6752-5.3912l-1.0048 1.068c2.0616 2.2536 5.7496 3.6704 8.4576 5.092-.2584 10.3216-.5384 20.7456-.3112 31.0664-.0432 3.8928-.0064 7.8056-.1848 11.6944-2.5808-1.8656-4.52-3.436-6.1344-6.252-2.6672-8.376-3.8008-17.9176-5.444-26.6048l-2.4032-11.7552c-.028-1.4408-.4336-2.9504-.6936-4.3712-.8064-5.6248-1.3192-10.0296 2.2176-14.9872Z"/>
  <path fill="#F3F4EF" d="M729.1776 396.4352c2.8464-1.4456 5.6224-3.1312 8.5016-4.4856 5.9504 9.9136 11.9072 20.3816 16.9824 30.7712-7.4776 4.1104-31.0216 15.576-35.4648 21.3472-.0888-1.8312-.3224-3.3024-.9408-5.0304l-2.0752-3.76c-2.8232-6.828-9.6016-17.4112-13.628-24.0032 7.9792-3.7352 19.7904-9.6272 26.6248-14.8392ZM625.6928 452.88c10.3552-5.0064 19.9464-11.8376 30.4712-16.4288 2.1184 4.9464 7.9224 19.116 11.0136 22.6016 2.0024 4.4528 4.2832 8.7376 6.5752 13.0448-3.4336 2.2984-7.1744 4.1848-10.7984 6.1672.1272-2.624.2344-4.9488-1.6744-7.0456-.4896-.5384-1.124-.76-1.7824-1.0256-1.0528.0904-2.2128.588-3.024 1.2896-.0832.0728-.1392.172-.208.2576l-.2056.404c-1.088 2.1824-1.5152 4.9184-3.1808 6.7-1.9752.2944-3.5688-.8936-4.996.9976-.4936.6544-.9256 1.3656-1.3624 2.06-1.8648 3.2496-5.1696 4.1984-8.4328 5.6736-2.66-5.048-5.536-10.0024-8.3136-14.988-2.744-5.2824-6.2848-10.4264-8.4304-15.976.4232-1.2896 2.012-2.1456 3.088-2.924l1.2608-.808Zm-57.6312 33.588q4.1928-2.4136 8.4648-4.684c5.3 11.0064 10.4024 22.208 16.6064 32.7352-11.7024 6.8344-22.9184 14.4872-34.656 21.244-3.588-9.224-10.7416-26.32-17.0624-33.5528 1.924-1.3992 4.0848-2.5864 6.1184-3.8248 5.5712-2.2464 15.6632-8.3088 20.5288-11.9176Z"/>
  <path fill="#F9827A" d="M767.0768 392.1448c-.0808-4.3728-.2632-8.7152-1.1112-13.0208-.8376-4.2536-2.5768-8.6256-2.5968-12.9704.8992-1.1664 1.6992-1.8512 3.1064-2.3536 6.2072-2.216 14.4328-3.7456 20.6016-.8928 5.2648 3.4488 20.3472 9.7056 21.6432 16.2488.912 4.6432-2.376 10.5568-5.016 14.172-1.84 2.5304-3.9208 4.9296-5.8784 7.3768-2.5136 2.868-4.9312 4.0008-8.4248 5.3568-7.2648.5384-9.5736-2.2768-15.8048-4.1808l-.676-.1992c-1.204-.6032-2.5408-1.3936-3.4968-2.3488-2.0328-2.0312-1.9784-4.5576-2.0544-7.2264l-.292.0384Z"/>
  <path fill="#3C3C68" d="M769.336 391.268c1.3304-1.1976 2.7528-2.7528 4.6888-2.6224 1.0344.0696 1.72.3664 2.3688 1.1864 1.3656 1.7272 1.0592 4.8248.6352 6.8088-.2544 1.1872-.72 2.8464-1.944 3.3776-.2376.1024-.5.1304-.7504.196.2512-2.436.8672-5.3608.62-7.7816-.104-1.0216-.1488-1.248-.928-1.8312-1.5888.3736-1.808 1.0624-2.8088 2.3096l-.8312-.0304-1.0504-1.6128Z"/>
  <path fill="#F3F4EF" d="m769.336 391.268 1.0504 1.6128.8312.0304c1.0008-1.2472 1.22-1.936 2.8088-2.3096.7792.5832.824.8096.928 1.8312.2472 2.4208-.3688 5.3456-.62 7.7816l-1.4144 1.4672c-1.204-.6032-2.5408-1.3936-3.4968-2.3488-2.0328-2.0312-1.9784-4.5576-2.0544-7.2264l.3776-1.0808.7264-.3184.8632.5608ZM479.148 532.7512c2.4496-1.3592 4.8992-2.848 7.464-3.972 5.7976 9.5384 10.0816 21.0544 14.3112 31.4048l-.1808 1.044c-3.9536 3.6808-14.0872 8.3936-19.3736 11.5584-5.7088 3.4176-11.1656 7.2672-17.0128 10.4456-2.6256-6.9216-12.744-26.9912-13.4368-32.0744-.1416-1.0416.312-1.2568.9088-2.0488 8.9256-3.6344 19.0688-11.0608 27.32-16.3576Z"/>
  <path fill="#6B7698" d="m520.3368 511.8624 6.5448-.5496 4.0632.5152c1.6504.5272 3.364.9888 4.9792 1.6088 3.0504 1.4864 5.7048 2.9304 8.2136 5.2568 3.4296 5.0008 5.668 8.9728 6.5912 15.0056-.24 2.0544-.1968 3.92-.04 5.9664-1.3592 3.5464-2.3744 7.2568-3.496 10.8848-1.7072 4.3456-3.1352 8.3568-6.5024 11.7296-4.768 2.18-9.7296 3.0928-14.972 2.6656-1.9992-.504-3.9-1.4184-5.7984-2.216-1.0968-.6024-2.276-1.2192-3.2048-2.0728-1.7824-1.6376-2.4456-3.548-2.5712-5.908.648-4.6024 1.4128-8.9104-.012-13.444-2.8472-2.5792-5.3592-1.1176-8.4232-2.3792-1.1008-.4528-1.192-1.3912-1.5984-2.4104-.7952-5.4232-.9256-11.32 2.1128-16.1408 3.2376-5.1352 8.484-7.2144 14.1136-8.512Z"/>
  <path fill="#F9827A" d="M861.488 370.0072c2.504.0808 5.008.348 7.512.5632 4.544.916 8.648 1.4792 11.448 5.6648 3.616 5.3976 5.568 17.6 4.248 23.952-.072.3384-.224.7592-.336 1.072-1.968-1.7136-1.784-7.8736-3.192-10.516l-.424.24c-.16 3.412 1.72 6.9616.968 10.2552-.28 1.26-1.16 2.2296-1.56 3.4376-.64 3.2496-14.6 44.4496-15.584 46.0128-2.112-3.5904-9.624-8.2464-13.44-9.472 1.544-2.0008 4.768-9.7192 4.576-12.132-.008-.1088-.04-.2144-.064-.3216.8-.9216 1.32-2.0472 1.768-3.176.648-1.632.816-3.0864.072-4.7248-1.128-2.5176-3.808-3.6608-6.224-4.5952-2.144 2.4248-24.12 14.6664-28.088 16.36.504-4.0672-3.504-10.8192-5.288-14.3384.096-4.4496 3.008-15.3144 2.512-18.088 2.392-1.716 5.48-7.14 8.032-9.636 7.152-7.0072 16.896-9.2912 25.632-13.4616 3.408-1.6272 6.12-3.3568 7.432-7.096Z"/>
  <path fill="#6B7698" d="M719.2576 460.8032c9.0408 1.1976 17.9816 7.5296 23.92 14.1896-2.5224 1.4-9.7584 6.2944-12.14 6.0112l.3088-3.276c-4.6728.1992-18.2192 2.2072-21.1808 5.3408l-.2744 1.2344-.664.2144c.2944.1864.6728.4976 1.0072.5848-1.1096 3.0976 1.0232 6.7512.1696 10.2592-1.0064 4.1376-2.736 8.2736-4.0472 12.3376-2.7512 8.5232-5.4432 17.1304-7.8056 25.7704q-1.9896 6.9936-4.0808 13.9576c-3.8096-2.1624-7.3864-4.768-10.9992-7.2408 1.2672-4.184 9.4992-26.1432 8.3936-28.8936-.996-2.4776-4.5088-3.5688-6.7784-4.4936-6.8224 2.2752-13.4112 6.9232-19.5744 10.6344-2.4656 1.4792-8.2992 6.1592-11.176 5.3664-.7288-.2008-1.3864-.6648-2.0392-1.0312-.7088-.3984-1.3376-.5528-2.1232-.7336l.312.3952c.8296 1.064 1.4504 1.9744 1.9752 3.2168-.48.8784-.5472.7712-1.5232 1.0608-.6496-1.9512-2.1216-4.4224-1.9288-6.4448l1.8768-.7624c.124-.0344.2544-.0496.3712-.1032 1.4112-.6464 1.7768-1.3856 2.36-2.7856 1.9672-4.7224 2.676-10.468 3.8064-15.452q2.1952-9.8608 5.0584-19.5488c4.456-2.516 9.2256-4.8888 13.2912-7.9968 1.3048-.7256 2.6688-1.3704 3.9992-2.0504 4.4728-2.0728 8.8912-3.8624 13.6544-5.164l5.1624-.9912 9.5264-1.0952c2.028-.1224 3.904-.3784 5.8944-.7704 1.768-.8568 3.3128-1.3896 5.248-1.74ZM612.28 521.0064c3.7528.548 9.0864.9536 12.3752-1.2936 4.0216-2.7472 4.6392-6.348 10.5152-5.444 4.472.6872 10.5288 3.8152 13.212 7.508.9432 1.2976 1.6952 3.0128 2.0432 4.576-5.832 5.952-15.6912 7.772-21.7784 13.5416-3.496 6.7976-5.6272 14.7432-8.064 21.9816-1.6128 4.7912-3.6248 9.72-4.8224 14.6232-1.4584 4.3776-2.6944 8.8048-3.9264 13.2504-2.5352-.9168-4.7872-3.4808-6.7416-5.2768-1.28-1.676-2.5424-2.904-4.1576-4.2464l2.3504-9.0184 1.2728-5.0448c.0096-.8384-.064-1.6848-.1072-2.5216-1.4448-2.5128-3.4464-2.992-6.0328-3.8976-4.2728-.5672-7.732 2.1144-11.2816 4.1392l-5.4008 2.752c2.78-3.5472 5.188-7.2048 8.3232-10.4792q5.0864-.3288 10.1816-.4728c3.4928-1.4408 19.9752-14.1192 22.6736-17.2696-9.156 3.7304-16.2248 12.6984-25.496 15.7336-2.7096-.1168-5.4104-.2416-8.1128-.4688-3.952 3.2832-9.5768 10.2952-11.0968 15.3552-2.952 1.8752-8.8464 6.7216-12.2112 6.3456l-1.0704-1.7824c-2.4008-5.7864-4.6-11.776-9.0104-16.3632 5.3304-7.9656 11.1968-15.9712 17.6232-23.0912 3.532-4.2392 7.1128-7.8968 12.1176-10.3448 3.7912-1.8544 11.74-2.5608 14.3008-5.22 1.9952-.688 4.1.3432 6.0712.8352 2.0728.5928 4.1256 1.2112 6.2504 1.5936Z"/>
  <path fill="#F3F4EF" d="M801.808 455.1456c7.328-4.3016 49.92-30.0264 54.096-30.8952.192 1.36-.744 3.04-1.232 4.2984-2.072 5.3064-8.024 24.9664-10.256 27.9896.088 3.2976-4.032 15.864-6.104 18.628.088 2.6-8.688 28.268-10.24 30.0808-.088.1056-.2.1896-.304.284-1.432 1.7456-42.412 26.0064-45.8848 26.7336-.4232.0888-.5056.0464-.8768-.0176-.5704-.7608-1.0992-1.476-1.5576-2.3112-.6528-1.2712-1.4704-2.468-2.236-3.6744 1.9192-5.8808 5.1832-11.4032 6.5392-17.496 5.5544-18.04 12.4904-35.6048 18.056-53.62Z"/>
  <path fill="#F9827A" d="M797.84 408.1744c6.96 1.7064 14.752 6.2384 19.104 12.0176 1.712 3.2496 5.464 9.948 4.584 13.7-4.208 4.7208-19.112 10.2272-25.42 15.516-1.0216 5.8656-11.1104 37.2856-13.94 40.9624q-5.5752-4.4616-11.0568-9.0376c1.6808-4.912 4.6928-12.032 2.8008-17.1704-.8592-2.3336-2.696-2.9568-4.7848-3.9472q1.1152-2.148 1.932-4.4256.816-2.2784 1.3192-4.6456c.4288-2.6288.7984-6.6328.0016-9.1824-.4384-1.4032-1.0504-2.9168-2.3792-3.6592l.8912 8.1896c-.3248 2.9504-.2544 8.4376-2.6696 10.4072-2.2856 1.8648-5.3304 2.5864-7.5712 4.3736-6.176 3.4168-12.3296 6.6576-18.8768 9.3144q-1.0896-1.0392-2.2464-2.0024-1.1568-.9632-2.3752-1.8472-1.2192-.8832-2.4944-1.6832-1.2752-.8-2.6008-1.512-1.3264-.7128-2.6968-1.3344-1.3712-.6216-2.7808-1.1504-1.4088-.5288-2.8512-.9608-1.4416-.4328-2.9088-.768c-1.8792.0688-3.6776.1456-5.5496-.1-.5816-.4216-1.2552-.8696-1.7408-1.3984-.7576-.8248-.748-1.6952-.7752-2.7512-.0632-2.3736.1872-8.3768 1.7152-10.0224l.3.0576c5.96 2.3136 10.3712 4.3344 16.8592 2.8056 1.1576-.2312 2.2336-.8048 3.16-1.5312 6.4456-5.0576 12.5224-10.6104 18.964-15.6992 5.8536-4.6232 12.0056-8.7384 17.8992-13.2496 1.3472-1.0304 1.16-1.988 1.3512-3.5736 1.9952-2.492 12.8536-1.4072 16.4976-2.012 2.7736-.46 6.636-1.2896 8.3392-3.68Z"/>
  <path fill="#F3F4EF" d="M942.808 375.9352c.032.164.072.3264.104.4904.544 2.8504-11.376 37.3152-13.312 40.2152-.208 3.2448-12.432 40.0424-14.112 42.0008-2.344 1.332-4.672 2.6888-7.064 3.9408q-15.696 9.3008-31.64 18.1768c-4 2.224-8.6 5.396-12.952 6.7112-.208-2.5544-1.712-4.1376-3.496-5.8464 1.36-2.5152 6.736-15.5912 6.04-18.0184.144-.152.296-.2992.44-.456 1.768-1.9528 19.592-52.0048 19.456-54.4648 8.048-4.2816 53.56-29.176 56.536-32.7496ZM723.56 496.7144c16.5512-9.252 32.7912-19.0664 49.3816-28.2384-1.428 7.2888-4.2336 14.384-6.4696 21.4608-2.0408 6.4584-3.7032 13.0424-5.7752 19.4864-2.4392 6.584-4.6216 13.4304-6.4976 20.1984-2.8424 6.5272-5.1552 13.5088-7.4056 20.2664q-15.5656 9.2176-31.248 18.2344c-5.404 3.1128-11.2968 5.9552-16.4008 9.5024 3.4752 6.9528 6.32 14.852 10.476 21.3768 1.2168 2.9376 4.8576 8.1136 4.1384 11.208l-.9536.404c-1.332-.3448-38.0208-26.0416-42.2216-29.1496 1.7432-5.664 3.512-11.2752 5.6384-16.8088 5.7576 1.5672 10.8064 7.5696 16.256 10.2592l.5648.504c2.2056-2.2312 5-13.2432 5.6968-16.6856 5.4072-20.064 12.6672-39.8152 19.2952-59.5104 1.9016-.7152 3.7008-1.6168 5.5248-2.508ZM682.4888 518.52l8.0592-4.5984q-8.6376 24.9424-15.9552 50.3032c-4.5128 10.4648-7.5408 22.2472-11.1752 33.0864-11.4744 6.9728-23.316 13.4952-35.1248 19.8848-4.5912 2.484-9.8744 6.0032-14.8504 7.4192 3.0568 8.4536 7.8288 16.6768 11.8176 24.764 1.5256 3.0928 3.7888 6.8312 4.5072 10.1888l-.7328.7392c-1.1632.1624-1.9984-.2008-2.968-.808-3.8016-2.3824-7.4112-5.5912-11.0144-8.304-9.7768-7.3624-19.472-15.0152-29.6312-21.84 1.5448-5.5296 3.3376-10.9992 5.0544-16.4784 4.3472 2.5704 14.4024 10.8136 18.0848 11.6032l.5248-.7552c.6064-9.956 6.632-19.1448 8.2008-28.88 6.0376-15.9832 10.5712-32.5168 16.9888-48.3672 6.7832-3.4624 13.1704-7.5752 19.744-11.4048 9.4912-5.5296 19.0904-10.8288 28.4704-16.5528Z"/>
  <path fill="#F9827A" d="M547.1472 556.1488c5.352 1.5992 8.8528 3.1688 11.6616 8.24 1.796 3.2408 3.2072 6.7752 4.6656 10.18l.6048 2.068c-3.3 5.4376-16.3968 7.9448-20.9256 14.1848-2.6624 3.6688-10.4504 33.6984-12.7816 40.8944-1.8904 5.92-3.5288 12.0944-5.8392 17.8576l-6.8216.332c-8.3328-.7168-16.9616-2.5784-22.6072-9.3096-2.6064-3.1072-3.7832-6.5656-3.4016-10.5912.3632-.6568.5904-.752 1.2112-1.1368l3.5824 1.1264c3.176.3192 5.436.02 8.3712-1.116 4.9784-3.3512 5.5856-9.5056 6.872-14.9456q1.8488-9.0392 4.028-18.0048c.5448-2.7784.9376-4.532-.224-7.2304l-.7024.0232c-1.1272 1.9-.9184 3.9352-1.0784 6.0984l-4.0296 19.0456c-.96 4.0392-1.6656 10.5744-5.436 12.9256-.6112.3808-1.264.7024-1.9064 1.0248l-2.876.5752-4.8984-1.0344c-6.1736-3.1824-12.0048-7.048-17.9536-10.628q-13.3792-8.0016-27.0368-15.516c-3.888-3.7504-22.428-12.9216-28.7096-17.0944 8.8488-6.84 20.7152-10.6752 28.6232-18.3712 4.7848 2.2768 7.1688 18.9448 11.664 23.74 3.7232 3.9704 10.2512 6.8488 14.9408 9.7784 6.0776 4.3096 12.8256 9.0184 19.4216 12.4368l.82-.9696c.0968-2.5992.8472-5.2608 1.3992-7.8024.8912-6.2272 2.3432-13.2752 4.2072-19.2744 2.7352-8.8024 10.3688-12.408 17.9776-16.4256l.5864-.4064 2.2448-.7048c.1032.028.2064.06.3112.0848 6.5456 1.5504 12.8864.5208 18.6488-2.7856 2.3624-2.1536 3.964-4.4056 5.3864-7.2688Z"/>
  <path fill="#F3F4EF" d="M447.3192 576.1072c1.5248-.2728 3.256.2264 4.6208.8864.7824 1.2.7304 1.1336.4856 2.552-1.0264 1.308-2.2632 1.6032-3.7944 2.1328l-.9256.2864c-1.9536-.364-3.6864-1.8528-5.3136-2.9496l4.9272-2.908Zm155.1176-10.8368c-.1896 1.5144-.3848 3.0008-.712 4.492-1.0728 3.7824-2.2616 7.5672-3.196 11.384q-1.1608 4.4392-2.5064 8.8256c-1.46 4.4864-3.24 9.08-4.3496 13.6544-5.0336 13.504-8.5912 27.796-12.7968 41.596-8.2288 4.86-45.7376 27.716-51.6128 28.124 1.7112 8.7136 12.4 21.756 14.5328 30.7872.2288.9696.1232.8104-.3296 1.5904-1.7704.0176-3.528-1.3424-4.988-2.3168-6.4344-4.2944-12.344-9.5096-18.4792-14.2232l-31.6104-23.932c-2.048-1.556-5.108-4.7608-7.424-5.632-.9-.3392-.7048-.2448-1.4544.1264l-.1424 2.6336c.1168 5.5304 1.3528 19.1672-.72 23.668-.6664.5384-1.292 1.076-2.044 1.492-.6992-.284-1.5408-.5664-2.1576-1.0008-1.0912-.7672-.8912-2.1416-.9608-3.3112q.3856-20.4632.4312-40.9304c16.304 9.2856 33.3208 17.9408 48.9984 28.2304 1.1568 1.0488 2.1296 2.0056 3.596 2.5856l.6592-.4064c4.3328-18.8912 11.2568-37.2344 17.1496-55.6944 2.0096-6.296 5.128-13.4392 6.0544-19.9488 2.6704-3.1176 30.6176-17.9504 36.3448-21.2064 5.972-3.2648 12.1192-6.7168 17.7176-10.5872Z"/>
</svg>
