<?xml version="1.0" encoding="utf-8" ?>
<svg xmlns="http://www.w3.org/2000/svg" xmlns:xlink="http://www.w3.org/1999/xlink" width="1024" height="1024">
	<path fill="#F3F4EF" d="M0 0L1024 0L1024 1024L0 1024L0 0Z"/>
	<path fill="#08080F" d="M682.184 487.719C682.581 487.757 683.115 487.797 683.492 487.889C684.783 488.203 684.914 488.409 685.608 489.462C685.545 491.085 684.761 492.025 683.875 493.307C683.833 493.307 683.791 493.315 683.75 493.308C682.397 493.088 682.442 492.991 681.649 491.894C681.445 490.252 681.657 489.278 682.184 487.719Z"/>
	<path fill="#08080F" d="M471.451 511.457C471.926 508.07 471.135 504.575 471.598 501.223C471.825 499.576 472.35 499.482 473.632 498.537C474.351 501.679 475.544 507.473 473.826 510.374C473.383 511.123 472.248 511.217 471.451 511.457Z"/>
	<path fill="#08080F" d="M682.139 495.248C682.933 495.453 683.701 495.726 684.479 495.984C686.67 498.719 685.467 505.547 686.009 509.174L686.12 509.891C684.829 509.746 684.158 509.693 683.072 508.906C680.806 505.194 681.931 499.439 682.139 495.248Z"/>
	<path fill="#08080F" d="M586.792 495.938C588.12 495.979 589.226 496.225 590.474 496.666L591.346 496.98C593.025 496.32 594.565 495.692 596.277 496.349L596.488 497.522C595.061 499.157 593.054 499.017 591.266 500.177C590.565 500.631 590.696 501.109 590.543 501.875C590.634 503.606 590.849 505.518 590.679 507.238C590.545 508.593 590.38 509.752 589.329 510.632C586.523 507.1 586.801 500.209 586.792 495.938Z"/>
	<path fill="#08080F" d="M666.129 489.283C666.545 489.298 667.037 489.308 667.442 489.367C668.703 489.552 668.955 489.585 669.728 490.52C669.612 492.225 669.297 494.146 670.276 495.633L671.677 495.764L672.203 496.495C671.819 498.54 670.147 498.122 670.008 499.988C669.759 503.327 670.953 506.64 670.083 509.977C669.386 509.842 668.714 509.576 668.041 509.353C665.198 506.219 667.442 502.456 666.145 498.852L663.775 497.823C663.333 496.736 663.232 497.02 663.675 495.791L665.493 495.47C666.371 493.837 665.931 491.212 666.129 489.283Z"/>
	<path fill="#08080F" d="M727.108 495.071C729.025 495.276 731.595 495.457 732.865 497.062C733.404 497.744 733.203 497.546 733.053 498.577C730.735 499.826 727.172 498.537 724.428 499.494C723.845 500.058 723.419 500.247 723.264 501.089C722.955 502.769 723.511 504.245 724.514 505.577C727.189 507.29 729.823 506.434 732.728 505.915C733.238 506.977 733.359 507.08 733.158 508.223C732.689 508.594 732.242 508.971 731.682 509.202C729.294 510.185 726.036 509.835 723.721 508.817C721.921 508.026 720.622 506.789 719.981 504.916C719.295 502.907 720.237 500.18 721.323 498.485C722.674 496.374 724.801 495.667 727.108 495.071Z"/>
	<path fill="#08080F" d="M535.225 489.298C535.695 489.288 535.862 489.271 536.377 489.334C537.358 489.453 538.142 489.571 538.791 490.344C538.633 490.838 538.314 491.616 538.282 492.156C538.207 493.41 538.472 493.663 539.214 494.577L540.861 494.541L541.413 495.074L541.305 496.699C540.696 497.242 539.973 497.828 539.486 498.48C537.709 500.86 538.312 503.667 538.817 506.359C539.638 506.615 540.309 506.852 541.056 507.294C541.971 507.835 541.855 508.46 542.13 509.438C541.931 509.553 541.738 509.677 541.534 509.782C539.961 510.597 538.855 510.78 537.166 510.253C534.533 507.82 535.217 502.157 535.061 498.759C534.185 498.041 534.551 498.22 533.564 497.843C533.345 497.76 533.122 497.688 532.901 497.61L532.697 496.506C533.046 496.039 533.371 495.549 533.724 495.086C535.072 493.319 535.176 492.221 535.22 490.042C535.225 489.794 535.223 489.546 535.225 489.298Z"/>
	<path fill="#08080F" d="M812.011 494.53C813.032 494.478 814.093 494.444 815.108 494.612C816.269 494.804 816.928 495.407 817.541 496.374C818.058 497.189 817.867 497.249 817.714 498.118C816.569 498.135 816.967 498.201 815.981 497.982C814.613 497.677 813.606 497.294 812.203 497.681C811.999 499.668 817.724 503.026 819.065 505.04C819.149 505.814 819.378 506.32 818.959 507.029C817.922 508.786 815.673 509.485 813.857 510.127C812.486 509.868 810.9 509.536 809.737 508.715C808.761 508.026 808.112 507.389 807.97 506.217C810.166 505.31 812.46 507.067 814.727 506.149L814.9 505.224C813.484 502.777 810.375 502.322 808.819 500.212C808.04 499.156 808.186 498.792 808.408 497.607C809.43 496.209 810.568 495.466 812.011 494.53Z"/>
	<path fill="#08080F" d="M647.745 489.794C648.154 489.817 648.689 489.84 649.082 489.904C650.463 490.127 650.557 490.229 651.371 491.293C651.202 492.192 651.02 492.995 651.068 493.914C651.108 494.665 651.499 494.781 652.012 495.275C653.279 495.314 654.403 495.271 655.565 495.853C655.858 496.964 655.797 496.736 655.389 497.68C654.257 498.194 652.463 498.85 651.578 499.746C651.112 500.217 650.722 501.011 650.718 501.683C650.702 504.714 652.386 506.861 654.396 508.851C653.433 510.019 652.512 510.707 651.07 511.174C646.608 509.207 649.078 502.519 647.57 498.843C646.714 498.733 646 498.6 645.192 498.293C644.986 497.249 644.844 496.727 645.314 495.747L647.168 495.385C648.284 493.94 647.775 491.613 647.745 489.794Z"/>
	<path fill="#08080F" d="M770.443 494.47C770.585 494.471 770.728 494.467 770.87 494.473C773.991 494.598 775.483 495.436 777.644 497.641L777.514 498.179L776.032 498.299L775.851 497.203L775.56 498.244C774.079 497.934 772.609 497.751 771.106 497.581L770.632 498.155C771.915 500.495 775.424 501.901 777.213 503.949C778.097 504.961 778.155 505.677 778.139 506.963C777.056 508.953 774.843 509.55 772.826 510.205C771.973 509.976 771.111 509.734 770.287 509.413C768.554 508.739 767.63 507.625 766.921 505.93L767.76 504.836C769.498 504.832 771.03 506.302 772.692 507.005C773.974 506.682 773.677 506.742 774.322 505.736C773.306 503.785 769.176 501.547 767.327 500.127C767.032 499.444 766.647 498.972 766.806 498.21C767.212 496.26 768.859 495.383 770.443 494.47Z"/>
	<path fill="#08080F" d="M830.88 493.525C832.448 493.422 833.922 493.399 835.354 494.155C836.372 494.692 836.786 494.991 837.077 496.144C835.824 498.575 833.12 495.949 831.145 497.52C831.43 500.193 835.598 501.863 837.382 503.567C838.315 504.457 838.42 505.143 838.439 506.367C837.321 508.314 835.439 508.86 833.455 509.631C832.258 509.545 830.79 509.347 829.706 508.784C828.626 508.224 827.974 507.613 827.528 506.482C829.6 505.111 832.581 506.326 834.874 505.228C833.054 503.518 830.288 503.313 828.535 501.316C827.656 500.314 827.213 499.147 827.433 497.8C827.785 495.641 829.199 494.652 830.88 493.525Z"/>
	<path fill="#08080F" d="M508.735 495.985C511.892 496.72 514.851 495.618 518.021 496.057C519.959 496.326 521.757 497.327 522.883 498.945C524.421 501.151 524.579 504.063 524.13 506.64C523.819 508.418 523.338 510.031 521.806 511.104L521.011 510.62C520.267 507.682 520.471 504.584 520.47 501.569C520.097 500.723 519.585 499.858 518.721 499.466C516.934 498.654 515.238 498.74 513.461 499.457C510.819 502.454 512.91 506.096 512.071 509.714C511.119 510.742 510.896 510.671 509.495 510.934L508.793 510.32C508.332 505.624 508.683 500.704 508.735 495.985Z"/>
	<path fill="#08080F" d="M751.329 494.569C752.901 494.706 754.464 494.652 755.639 495.843C757.503 497.735 758.015 500.835 757.813 503.382C757.61 505.938 757.124 508.333 755.122 510.066C752.083 509.005 755.059 501.17 752.75 498.457C751.566 497.75 750.611 497.921 749.296 498.02L748.73 498.067C748.351 498.434 747.967 498.796 747.607 499.181C745.63 501.292 746.403 506.302 746.426 509.003L745.774 509.494C744.495 509.662 744.473 509.918 743.343 509.161C742.158 506.388 742.592 500.571 742.894 497.475C743.026 496.114 743.22 495.384 744.231 494.478C745.371 494.842 745.574 495.142 746.362 495.973L746.665 496.298C748.163 495.45 749.679 495.035 751.329 494.569Z"/>
	<path fill="#08080F" d="M609.06 496.554C610.041 496.738 611.024 496.903 611.929 497.352C613.69 498.225 614.815 499.972 615.284 501.84C615.786 503.837 615.4 505.878 614.35 507.631C613.131 509.667 611.751 510.392 609.515 510.999C608.574 510.803 607.603 510.606 606.726 510.202C604.941 509.382 603.677 507.922 603.014 506.082C602.348 504.234 602.537 502.256 603.492 500.542C604.77 498.246 606.649 497.324 609.06 496.554Z"/>
	<path fill="#F3F4EF" d="M608.093 499.311C609.059 499.424 609.795 499.762 610.677 500.154C611.34 500.898 611.887 501.453 612.08 502.476C612.478 504.578 611.532 506.329 610.41 508.007C609.435 507.852 608.328 507.737 607.483 507.19C606.568 506.599 605.921 505.542 605.833 504.458C605.66 502.331 606.847 500.857 608.093 499.311Z"/>
	<path fill="#08080F" d="M629.486 496.02C630.564 496.061 631.732 496.068 632.769 496.39C634.452 496.913 635.844 498.278 636.671 499.801C637.759 501.806 637.869 504.066 637.093 506.202C636.186 508.699 634.755 509.681 632.4 510.719C631.313 510.651 630.173 510.598 629.136 510.239Q628.777 510.113 628.433 509.952Q628.088 509.792 627.761 509.599Q627.433 509.406 627.126 509.182Q626.819 508.958 626.535 508.706Q626.25 508.454 625.992 508.175Q625.733 507.897 625.503 507.594Q625.272 507.292 625.072 506.969Q624.872 506.646 624.704 506.305Q624.542 505.981 624.416 505.641Q624.289 505.302 624.199 504.951Q624.109 504.6 624.056 504.242Q624.004 503.884 623.989 503.522Q623.975 503.16 623.999 502.798Q624.022 502.437 624.084 502.08Q624.146 501.723 624.245 501.374Q624.345 501.026 624.48 500.69C625.453 498.206 627.175 497.136 629.486 496.02Z"/>
	<path fill="#F3F4EF" d="M629.868 498.831C630.728 499.038 631.55 499.212 632.282 499.75C633.292 500.491 633.96 501.755 634.035 503.003C634.16 505.113 633.137 506.545 631.736 507.971C630.733 507.634 629.806 507.359 628.974 506.668C628.025 505.88 627.321 504.669 627.281 503.417C627.214 501.335 628.396 500.092 629.868 498.831Z"/>
	<path fill="#08080F" d="M699.911 495.578C701.32 495.37 702.952 495.182 704.359 495.474C706.511 495.919 708.499 497.307 709.681 499.155C710.601 500.593 710.855 502.367 710.481 504.025C709.906 506.576 708.276 507.996 706.209 509.417C704.832 509.803 703.415 510.072 701.976 509.943C700.09 509.774 698.313 508.726 697.183 507.221C696.016 505.665 695.585 503.668 695.859 501.756C696.287 498.772 697.588 497.35 699.911 495.578Z"/>
	<path fill="#F3F4EF" d="M701.339 498.439C703.049 498.446 705.037 498.599 706.295 499.924C706.9 500.562 707.269 501.298 707.306 502.166C707.399 504.349 706.288 505.44 704.849 506.874C703.568 507.02 702.131 507.036 700.999 506.331Q700.812 506.215 700.64 506.078Q700.467 505.941 700.312 505.785Q700.156 505.629 700.019 505.456Q699.883 505.284 699.767 505.097Q699.651 504.91 699.557 504.71Q699.463 504.511 699.393 504.302Q699.323 504.094 699.277 503.878Q699.231 503.663 699.21 503.444C699.025 501.384 700.054 499.906 701.339 498.439Z"/>
	<path fill="#08080F" d="M562.042 488.571C565.529 488.485 573.404 487.445 576.313 489.057C576.606 490.137 576.601 490.155 576.167 491.188C574.293 492.554 567.615 491.856 565.086 491.847L565.087 497.98C567.605 497.953 570.616 497.598 573.074 497.949C574.366 498.133 574.824 498.519 575.579 499.526L575.389 500.731C572.247 501.646 568.401 500.39 565.486 501.45C565.328 501.508 565.185 501.598 565.035 501.671C565.32 503.89 565.384 506.133 565.497 508.366C569.229 508.332 574.711 507.719 577.838 510.076C574.273 512.243 566.131 511.25 562.074 510.984C561.814 503.728 561.058 495.764 562.042 488.571Z"/>
	<path fill="#08080F" d="M792.094 494.529C793.459 494.464 794.876 494.356 796.211 494.706C798.309 495.256 800.039 496.796 801 498.724Q801.185 499.088 801.329 499.471Q801.472 499.853 801.574 500.249Q801.675 500.645 801.733 501.049Q801.79 501.453 801.804 501.862Q801.817 502.27 801.786 502.677Q801.754 503.085 801.679 503.486Q801.603 503.888 801.484 504.279Q801.366 504.669 801.205 505.045C800.074 507.706 798.187 508.855 795.599 509.861Q794.014 509.859 792.459 509.554C790.309 509.135 788.264 507.772 787.148 505.868C786.143 504.156 786.032 502.196 786.562 500.305C787.411 497.276 789.505 496.015 792.094 494.529Z"/>
	<path fill="#F3F4EF" d="M792.467 497.408C794.2 497.469 795.766 497.579 797.072 498.911C797.968 499.825 798.406 501.046 798.267 502.322C798.046 504.351 796.868 505.555 795.389 506.812C793.787 506.683 792.383 506.597 791.096 505.486C790.112 504.637 789.572 503.643 789.607 502.323C789.665 500.142 790.971 498.81 792.467 497.408Z"/>
	<path fill="#08080F" d="M491.113 495.576C492.135 495.718 493.116 495.875 494.089 496.231Q494.487 496.379 494.868 496.568Q495.249 496.756 495.609 496.981Q495.969 497.207 496.304 497.468Q496.639 497.729 496.946 498.023Q497.253 498.317 497.528 498.64Q497.804 498.964 498.045 499.313Q498.286 499.663 498.491 500.035Q498.695 500.408 498.861 500.799C499.71 502.837 499.638 505.052 498.634 507.025C497.238 509.767 495.115 510.504 492.308 511.306C490.99 511.084 489.695 510.844 488.459 510.314C486.358 509.414 484.727 507.826 483.952 505.651Q483.838 505.327 483.758 504.994Q483.677 504.66 483.632 504.32Q483.586 503.98 483.575 503.637Q483.564 503.294 483.589 502.952Q483.613 502.609 483.672 502.271Q483.732 501.933 483.825 501.603Q483.919 501.273 484.046 500.954Q484.172 500.635 484.331 500.331C485.775 497.606 488.263 496.365 491.113 495.576Z"/>
	<path fill="#F3F4EF" d="M489.681 498.97C491.298 498.748 492.59 498.676 493.975 499.699C495.098 500.529 495.609 501.585 495.817 502.94C496.118 504.893 495.204 506.442 494.03 507.883C492.202 508.077 490.64 508.184 489.057 507.047C487.894 506.212 487.404 505.244 487.277 503.816C487.094 501.746 488.314 500.328 489.681 498.97Z"/>
	<path fill="#F9827A" d="M609.585 437.169L609.897 437.089C610.026 437.209 610.139 437.349 610.283 437.45C612.599 439.07 626.858 440.132 631.164 441.177C654.804 446.913 677.936 453.989 702.145 456.987C723.472 459.628 745.068 460.109 766.486 461.764C776.271 462.519 786.052 463.825 795.777 465.121C809.176 466.906 822.469 468.883 835.187 473.687C840.853 475.827 846.501 478.58 851.52 481.988C869.107 493.93 885.093 514.311 907.955 515.01C911.897 515.13 915.673 514.455 919.53 513.724L919.228 513.149L919.741 513.725C910.999 517.198 901.291 516.025 892.831 512.336C870.749 502.706 857.462 482.639 833.769 473.993C813.044 466.429 790.111 465.278 768.272 464.021C744.082 462.627 719.688 462.207 695.628 459.208C666.214 455.541 638.269 446.043 609.523 439.325L609.585 437.169Z"/>
	<path fill="#A4C6C9" d="M69.5183 578.563C68.9501 577.573 68.4274 576.561 67.8992 575.549C56.7899 554.258 51.835 530.774 50.4309 506.943C46.3397 437.506 73.4988 372.944 117.786 320.33C125.745 310.875 134.233 301.56 143.188 293.041C148.405 288.078 155.319 283.363 159.73 277.748C160.945 276.201 161.508 273.815 162.094 271.954L162.521 271.957C162.547 273.06 162.399 273.881 162.211 274.963C165.135 274.237 173.124 266.877 176.539 264.827L176.46 411.151C176.469 419.649 175.371 459.516 177.18 465.029C185.417 466.378 203.378 465.073 212.506 464.919L288.41 463.68C353.67 462.509 419.048 463.579 484.284 461.63L481.205 462.387C479.076 467.419 477.054 472.651 474.609 477.534C472.039 482.666 463.567 492.053 463.467 497.321C465.475 496.317 467.444 495.211 469.761 495.74C471.412 496.117 472.599 497.27 473.632 498.537C472.35 499.482 471.825 499.576 471.598 501.223C471.135 504.575 471.926 508.07 471.451 511.457C471.427 511.324 471.401 511.19 471.379 511.056C470.789 507.404 472.203 502.485 469.719 499.517C468.62 499.005 467.343 498.815 466.181 499.321C464.971 499.849 464.487 500.441 464.089 501.701C463.123 504.762 465.35 509.016 462.609 511.429L459.885 511.657C457.506 512.555 455.146 513.221 452.687 513.841C441.734 515.14 433.823 519.88 427.076 528.47C424.029 532.35 418.33 539.287 417.315 544.035C417.932 544.714 418.021 544.76 418.838 545.039C405.22 544.274 391.29 544.866 377.632 544.9L303.617 545.031L196.661 545.139C179.921 545.205 163.04 544.872 146.316 545.454C145.146 559.047 145.786 573.259 145.707 586.915C145.58 609.026 145.173 631.25 145.677 653.35C126.86 646.138 98.7826 621.403 86.5084 605.793C80.3457 597.955 75.4065 589.212 69.8973 580.915C69.7438 581.76 69.5963 582.615 69.3804 583.445C69.2864 583.807 68.6967 586.076 68.4696 586.218C68.4552 583.626 69.0423 581.102 69.5183 578.563Z"/>
	<path fill="#08080F" d="M280.935 505.275C281.977 504.539 283.01 504.254 284.214 503.901C284.27 506.181 284.732 509.044 282.941 510.785C282.809 510.915 282.652 511.017 282.507 511.133C281.619 510.796 281.457 510.728 281.135 509.824C280.687 508.567 280.906 506.627 280.935 505.275Z"/>
	<path fill="#13172B" d="M280.935 505.275C280.979 502.864 280.837 500.432 280.71 498.024L281.371 497.371C283.15 497.479 284.436 497.463 286.108 496.767C286.36 496.662 287.285 496.253 287.568 496.165C288.662 495.823 289.29 495.808 290.271 496.413L290.53 497.504C289.566 499.889 287.679 499.265 285.81 500.493C284.87 501.111 284.598 501.878 284.388 502.92C284.323 503.246 284.272 503.574 284.214 503.901C283.01 504.254 281.977 504.539 280.935 505.275Z"/>
	<path fill="#13172B" d="M345.676 490.626C346.585 490.668 347.361 490.868 348.236 491.109C349.494 492.849 348.332 494.898 349.292 496.847C349.979 496.953 350.642 497.029 351.337 497.075L352.043 497.116C352.536 498.2 352.455 498.287 352.196 499.465C351.504 499.856 350.811 500.248 350.146 500.683C349.071 501.387 348.602 502.05 348.475 503.353C348.363 504.508 348.643 506.455 349.405 507.378C349.853 507.921 351.491 507.946 352.2 508.06C353.14 509.201 352.938 509.309 352.832 510.811C352.095 511.024 351.321 511.257 350.555 511.325C343.28 511.971 347.371 501.699 344.965 500.591C343.786 500.048 343.815 500.883 342.582 499.74L342.647 498.489Q343.091 498.086 343.522 497.669C345.689 495.535 345.655 494.36 345.673 491.484L345.676 490.626Z"/>
	<path fill="#13172B" d="M239.305 507.327C240.075 505.009 240.753 502.493 241.861 500.318C242.756 498.561 243.944 496.884 245.854 496.335L246.413 497.152C246.541 499.004 245.899 500.305 245.186 501.986C244.181 504.22 243.248 506.694 241.979 508.783C241.158 510.135 240.26 510.798 238.762 511.198C235.585 510.021 232.172 500.709 230.605 497.717L231.102 496.387L233.015 496.551C235.896 498.234 237.913 504.277 239.305 507.327Z"/>
	<path fill="#13172B" d="M310.819 505.572C311.27 506.478 311.416 506.95 311.362 507.965C310.853 508.917 310.46 509.627 309.535 510.229C307.847 511.327 305.654 511.563 303.71 511.143C301.792 510.728 300.291 509.712 299.254 508.045C298.087 506.17 298.039 502.295 298.835 500.259Q298.936 499.994 299.065 499.741Q299.194 499.488 299.349 499.25Q299.504 499.012 299.684 498.792Q299.863 498.572 300.065 498.372Q300.266 498.172 300.488 497.995Q300.71 497.818 300.949 497.665Q301.188 497.512 301.442 497.385Q301.696 497.258 301.962 497.159C304.239 496.303 307.085 496.725 309.187 497.88C310.63 498.673 311.601 499.923 311.964 501.542C312.227 502.716 312.048 503.889 311.35 504.857C308.676 504.906 304.83 504.444 302.582 505.954L302.518 506.744C303.542 507.531 304.8 507.891 306.102 507.769C307.967 507.594 309.201 506.312 310.819 505.572Z"/>
	<path fill="#13172B" d="M331.923 505.32C333.052 505.521 333.646 505.62 334.501 506.409L334.543 507.745C333.64 509.312 332.826 510.143 331.097 510.78C328.938 511.577 326.735 511.606 324.676 510.494C322.82 509.491 321.316 507.364 320.797 505.336Q320.718 505.027 320.67 504.711Q320.622 504.396 320.606 504.077Q320.59 503.758 320.606 503.44Q320.623 503.121 320.671 502.805Q320.719 502.49 320.799 502.181Q320.878 501.872 320.989 501.572Q321.099 501.273 321.239 500.986Q321.379 500.699 321.547 500.428C322.682 498.562 324.671 497.247 326.809 496.848C328.697 496.495 330.709 496.878 332.282 498.002C334.557 499.628 334.993 501.685 335.475 504.307L331.228 504.769L323.854 505.095C324.753 506.19 325.84 507.733 327.3 508.06C328.512 508.331 329.557 508.03 330.514 507.261C331.057 506.825 331.543 505.911 331.923 505.32Z"/>
	<path fill="#13172B" d="M323.854 505.095C323.736 503.589 324.379 502.376 324.941 501.019C326.066 500.101 326.227 500.024 327.667 499.845C329.604 500.56 331.158 501.186 332.433 502.907C333.325 504.11 334.066 503.973 335.475 504.307L331.228 504.769L323.854 505.095Z"/>
	<path fill="#13172B" d="M266.93 506.241C268.176 506.478 268.497 506.34 269.429 507.262C269.321 508.478 268.493 509.335 267.595 510.098C266.065 511.397 264.106 512.037 262.112 511.74C259.876 511.408 257.871 510.009 256.627 508.145C255.516 506.48 254.942 504.39 255.367 502.403C255.86 500.092 257.495 498.241 259.483 497.048C261.157 496.044 262.83 495.705 264.736 496.281C266.836 496.915 268.504 498.91 269.319 500.869C269.9 502.268 269.842 503.234 269.307 504.615C267.253 506.042 261.965 504.956 259.215 505.488C261.319 505.572 265.126 505.188 266.93 506.241Z"/>
	<path fill="#E6DFD5" d="M259.215 505.488C261.319 505.572 265.126 505.188 266.93 506.241C266.275 507.069 265.616 507.706 264.641 508.162C263.602 508.648 262.001 508.709 260.999 508.159C259.876 507.542 259.591 506.631 259.215 505.488Z"/>
	<path fill="#E6DFD5" d="M261.78 498.819C262.639 498.949 263.449 499.119 264.239 499.512C265.255 500.017 265.719 500.715 265.958 501.764L264.983 502.477C263.393 502.505 261.097 502.843 259.757 501.959C260.074 500.488 260.798 499.936 261.78 498.819Z"/>
	<path fill="#13172B" d="M463.467 497.321C465.475 496.317 467.444 495.211 469.761 495.74C471.412 496.117 472.599 497.27 473.632 498.537C472.35 499.482 471.825 499.576 471.598 501.223C471.135 504.575 471.926 508.07 471.451 511.457C471.427 511.324 471.401 511.19 471.379 511.056C470.789 507.404 472.203 502.485 469.719 499.517C468.62 499.005 467.343 498.815 466.181 499.321C464.971 499.849 464.487 500.441 464.089 501.701C463.123 504.762 465.35 509.016 462.609 511.429L459.885 511.657C459.681 508.542 460.707 502.515 458.745 499.982C457.974 498.987 457.337 498.946 456.201 498.778C455.218 499.105 454.543 499.414 453.845 500.183C451.901 502.323 452.317 504.624 452.387 507.307L452.595 512.017C451.47 511.994 450.451 511.823 449.346 511.64C448.594 508.07 448.215 499.884 449.381 496.44C452.989 496.075 457.872 495.132 460.979 497.263C461.685 497.747 462.019 497.975 462.847 498.303L463.467 497.321Z"/>
	<path fill="#08080F" d="M449.346 511.64C449.497 509.196 449.302 505.641 450.562 503.5L451.637 504.7L451.573 504.414L452.387 507.307L452.595 512.017C451.47 511.994 450.451 511.823 449.346 511.64Z"/>
	<path fill="#13172B" d="M207.379 488.654C211.152 488.647 216.558 487.912 220.164 488.806C221.255 489.076 221.334 489.335 221.86 490.237L221.454 491.634C218.21 492.721 213.998 491.678 210.507 492.152L210.058 492.745C210 494.267 209.655 496.283 210.517 497.579C213.014 498.45 216.663 497.67 219.374 497.875C220.381 498.597 220.363 498.692 220.742 499.885C218.845 502.33 213.307 500.29 210.403 501.405L210.025 502.433C209.977 504.238 209.917 506.037 209.979 507.843C213.629 509.096 218.511 507.224 221.992 508.815C222.824 509.195 222.526 508.973 222.875 509.956C222.457 510.695 222.269 511.272 221.352 511.496C219.064 512.055 209.569 511.789 207.455 510.933C207.178 510.468 207.098 510.391 206.934 509.791C206.183 507.05 206.006 490.568 207.379 488.654Z"/>
	<path fill="#13172B" d="M373.077 488.225C376.632 488.191 384.945 487.3 387.963 488.39C389.073 488.791 389.519 489.408 389.888 490.456L389.196 491.328C385.732 492.549 381.957 490.834 378.435 491.361C377.344 491.525 377.228 491.735 376.594 492.552C376.483 494.129 376.485 495.451 376.761 497.01C378.692 498.649 384.39 496.936 387.111 497.942C387.821 498.205 387.613 498.173 387.89 498.95C387.609 499.48 387.621 499.592 387.169 499.965C384.722 501.984 380.094 501.345 377.099 501.331C376.367 503.446 376.726 505.863 376.822 508.073C380.666 508.21 385.675 507.409 389.259 508.74L389.572 509.615L389.1 510.608C385.148 512.717 377.488 511.356 373.102 510.758C372.64 503.33 372.957 495.675 373.077 488.225Z"/>
	<path fill="#13172B" d="M430.74 495.619C432.113 495.787 433.39 495.961 434.657 496.549C436.687 497.491 438.343 499.244 439.034 501.385Q439.147 501.744 439.224 502.112Q439.302 502.48 439.342 502.854Q439.382 503.229 439.384 503.605Q439.387 503.981 439.352 504.356Q439.316 504.73 439.244 505.1Q439.172 505.469 439.064 505.829Q438.955 506.189 438.811 506.537Q438.667 506.884 438.489 507.216C437.049 509.936 434.919 510.794 432.09 511.588C430.485 511.533 428.768 511.319 427.315 510.6Q426.934 510.414 426.575 510.19Q426.217 509.965 425.884 509.703Q425.551 509.442 425.247 509.146Q424.944 508.851 424.673 508.525Q424.402 508.2 424.168 507.847Q423.933 507.494 423.737 507.119Q423.542 506.743 423.387 506.349Q423.231 505.955 423.119 505.547Q423.012 505.156 422.948 504.755Q422.883 504.355 422.862 503.95Q422.841 503.545 422.863 503.14Q422.885 502.735 422.951 502.335Q423.016 501.934 423.124 501.543Q423.231 501.152 423.38 500.775Q423.529 500.398 423.717 500.038Q423.905 499.679 424.131 499.342C425.793 496.821 427.919 496.213 430.74 495.619Z"/>
	<path fill="#A4C6C9" d="M429.368 498.891C431.266 498.905 432.837 499.024 434.349 500.296C435.346 501.135 435.96 502.15 435.969 503.491C435.983 505.726 434.671 506.798 433.108 508.117C431.064 508.172 429.352 508.183 427.752 506.681C426.841 505.826 426.342 504.701 426.424 503.444C426.564 501.303 427.861 500.191 429.368 498.891Z"/>
	<path fill="#13172B" d="M403.618 495.495C404.726 495.518 405.594 495.486 406.628 495.943C407.606 496.374 408.579 496.917 409.536 497.402L411.188 496.182L412.127 496.444C412.253 496.688 412.415 496.916 412.505 497.175C413.639 500.451 413.751 515.277 412.28 518.333C410.975 518.869 410.878 518.538 409.6 518.098C409.614 515.842 409.625 513.651 409.319 511.408C408.456 511.043 408.606 510.973 407.88 510.996C405.807 511.063 403.716 511.558 401.658 511.047C400.117 510.665 399.126 509.845 398.37 508.464C397.248 506.415 397.18 502.665 398.006 500.503C399.068 497.722 401.049 496.718 403.618 495.495Z"/>
	<path fill="#A4C6C9" d="M403.546 498.44C405.243 498.359 406.85 498.351 408.152 499.592C409.438 500.817 409.979 502.757 409.793 504.478C409.546 506.767 408.877 507.658 407.166 509.055C405.284 509.021 403.642 508.962 402.231 507.499C401.375 506.611 400.906 505.501 400.886 504.269C400.845 501.771 401.911 500.204 403.546 498.44Z"/>
	<path fill="#A4C6C9" d="M547.042 151.911C548.63 148.847 551.062 146.165 553.283 143.535C575.517 117.213 618.3 104.028 649.905 93.0521C663.909 88.1888 677.801 83.0758 691.936 78.5921C736.721 64.3863 771.227 59.0142 814.816 81.6514C856.762 103.435 896.061 143.529 910.297 189.2C917.916 213.645 915.575 229.808 908.413 253.6C909.592 254.911 911.051 256.23 911.554 257.948C910.242 257.278 909.281 255.545 908.434 254.368C893.048 289.649 871.476 311.196 842.533 335.276C836.206 340.54 829.359 347.365 822.007 351.147C822.033 354.779 823.086 370.559 821.229 372.498L820.559 372.105C819.353 366.328 820.069 359.104 820.109 353.137C806.291 357.433 793.733 365.557 780.125 370.625C772.895 373.317 765.421 375.15 758.141 377.666Q734.525 386.042 711.289 395.421C689.936 403.988 669.347 414.351 648.1 423.134Q636.332 427.965 624.3 432.096C619.678 433.676 614.219 434.883 609.897 437.089L609.585 437.169L609.983 250.209L609.986 191.85C609.983 180.115 610.272 168.288 609.727 156.568L610.029 156.008C609.845 155.91 609.642 155.84 609.477 155.712C609.367 155.627 609.306 155.494 609.221 155.384C601.937 154.612 594.324 154.925 586.989 154.781Q566.935 154.476 546.9 153.536L449.259 152.556C425.302 152.418 401.317 152.773 377.37 152.003C379.201 150.78 395.982 145.126 399.521 143.786C438.56 129.005 480.635 124.568 520.404 139.213C529.691 142.633 538.058 147.839 547.042 151.911Z"/>
	<path fill="#08080F" d="M763.626 229.155L764.49 229.509C766.048 231.961 765.078 251.378 764.869 255.283L764.218 254.983C762.473 252.888 763.477 233.32 763.626 229.155Z"/>
	<path fill="#08080F" d="M813.805 147.157C814.318 147.445 814.717 147.814 815.163 148.194C815.893 152.459 816.237 169.054 814.784 172.724L813.619 171.44C812.596 165.382 812.446 153.057 813.805 147.157Z"/>
	<path fill="#08080F" d="M820.586 276.274C820.95 273.842 820.695 270.77 821.493 268.523C822.616 271.634 821.635 276.312 822.084 279.715C822.404 284.011 822.793 302.426 821.546 305.556L820.865 305.812C819.628 301.734 820.497 281.789 820.586 276.274Z"/>
	<path fill="#08080F" d="M763.502 306.55L764.743 307.13C766.08 311.221 765.409 332.336 764.789 337.364C764.636 337.206 764.471 337.06 764.331 336.891C761.748 333.77 763.286 311.838 763.502 306.55Z"/>
	<path fill="#08080F" d="M718.382 267.639C718.565 267.749 718.761 267.839 718.93 267.969C720.539 269.217 719.943 292.153 720.294 296.141C719.676 295.876 718.834 295.728 718.496 295.108C716.977 292.32 717.501 270.842 718.382 267.639Z"/>
	<path fill="#08080F" d="M718.497 215.225L719.513 216.051C720.776 223.591 719.807 235.565 719.774 243.574C718.794 243.638 718.659 243.601 717.811 243.227C717.186 239.091 717.041 219.007 718.497 215.225Z"/>
	<path fill="#08080F" d="M820.109 353.137C820.116 344.661 819.275 334.928 820.98 326.66L820.77 327.794L821.236 327.163C822.861 334.644 822.055 343.477 822.007 351.147C822.033 354.779 823.086 370.559 821.229 372.498L820.559 372.105C819.353 366.328 820.069 359.104 820.109 353.137Z"/>
	<path fill="#13172B" d="M862.651 192.96C859.938 190.495 857.826 187.929 857.74 184.073C857.679 181.324 859.01 178.666 860.915 176.746Q861.354 176.298 861.837 175.897Q862.319 175.496 862.839 175.145Q863.359 174.794 863.912 174.498Q864.464 174.201 865.044 173.962Q865.624 173.722 866.225 173.542Q866.825 173.362 867.441 173.243Q868.057 173.124 868.682 173.068Q869.307 173.012 869.934 173.019C872.808 173.05 875.756 174.167 877.695 176.335C880.008 178.92 880.423 182.562 880.057 185.879C879.757 188.595 878.81 191.116 876.534 192.777C873.386 195.072 869.569 195.367 865.819 195.122C852.308 212.469 840.209 231.161 827.282 248.983C829.527 251.51 831.036 254.397 830.887 257.877C830.76 260.834 829.091 263.616 826.891 265.524C825.86 266.418 824.65 267.058 823.473 267.734L822.788 268.136L822.373 268.371C822.34 272.137 822.44 275.966 822.084 279.715C821.635 276.312 822.616 271.634 821.493 268.523C820.695 270.77 820.95 273.842 820.586 276.274C820.822 263.611 816.521 272.493 809.101 261.952C795.799 268.089 782.254 273.689 769.155 280.261C769.524 283.403 769.344 286.137 767.654 288.899C766.034 291.545 763.554 293.391 760.527 294.108C756.603 295.039 753.743 294.271 750.377 292.279C740.301 302.56 731.021 313.853 721.239 324.448L691.791 356.583C685.53 363.395 679.043 370.052 673.028 377.082C674.629 380.735 675.703 384.01 674.251 387.949C673.205 390.784 670.874 392.976 668.113 394.136Q667.512 394.388 666.888 394.577Q666.265 394.766 665.625 394.889Q664.986 395.013 664.337 395.071Q663.688 395.128 663.036 395.119Q662.385 395.11 661.738 395.033Q661.091 394.957 660.455 394.815Q659.819 394.673 659.201 394.466Q658.583 394.259 657.99 393.99C655.204 392.718 652.994 390.396 652.004 387.484C650.96 384.414 651.066 380.425 652.701 377.577C654.897 373.753 658.875 372.326 662.89 371.311C665.538 371.995 667.663 372.825 669.938 374.367C679.167 363.548 689.407 353.433 699.019 342.937L729.694 309.792C735.913 302.988 741.843 295.934 748.192 289.247C747.345 287.255 746.571 285.411 746.581 283.212Q746.584 282.632 746.646 282.056Q746.708 281.48 746.828 280.913Q746.948 280.345 747.125 279.794Q747.302 279.242 747.535 278.711Q747.767 278.18 748.053 277.675Q748.338 277.171 748.673 276.698Q749.009 276.225 749.39 275.789Q749.772 275.352 750.196 274.957Q750.619 274.566 751.079 274.219Q751.539 273.873 752.031 273.573Q752.523 273.273 753.042 273.023Q753.561 272.773 754.102 272.576Q754.643 272.378 755.201 272.235Q755.759 272.092 756.329 272.005Q756.898 271.918 757.473 271.887Q758.049 271.857 758.624 271.883C762.603 272.09 764.874 273.941 767.395 276.832C775.745 272.777 784.167 268.97 792.621 265.142C797.477 262.944 802.445 260.31 807.52 258.723C807.763 257.546 808.007 256.365 808.318 255.203C809.471 250.899 811.727 248.297 815.537 246.093C816.95 245.785 818.184 245.581 819.632 245.693L823.437 245.994C826.264 244.815 841.608 222.269 844.315 218.603C850.572 210.158 856.371 201.388 862.651 192.96Z"/>
	<path fill="#A4C6C9" d="M867.034 177.035C868.406 176.969 870.029 176.789 871.361 177.165C873.377 177.735 875.183 179.555 876.017 181.435Q876.147 181.729 876.247 182.034Q876.347 182.34 876.417 182.654Q876.486 182.968 876.524 183.287Q876.561 183.606 876.567 183.927Q876.573 184.249 876.547 184.569Q876.521 184.89 876.463 185.206Q876.405 185.522 876.315 185.831Q876.226 186.14 876.107 186.438C875.168 188.812 873.472 189.944 871.252 191C870.149 191.23 868.878 191.404 867.751 191.305C865.985 191.149 864.088 190.027 863.085 188.571C861.982 186.968 861.81 184.904 862.197 183.044C862.812 180.086 864.594 178.594 867.034 177.035Z"/>
	<path fill="#A4C6C9" d="M819.189 249.606C820.161 249.775 821.189 249.933 822.119 250.268C823.931 250.921 825.547 252.675 826.243 254.442C826.992 256.345 826.808 258.36 825.994 260.213C824.811 262.904 822.551 263.965 819.942 264.944C818.868 264.777 817.768 264.636 816.756 264.213C814.789 263.39 813.271 261.455 812.58 259.475Q812.445 259.101 812.352 258.714Q812.259 258.327 812.209 257.932Q812.158 257.538 812.151 257.14Q812.144 256.742 812.179 256.346Q812.215 255.95 812.294 255.56Q812.373 255.17 812.493 254.791Q812.614 254.412 812.775 254.048Q812.935 253.684 813.135 253.34C814.528 250.922 816.603 250.196 819.189 249.606Z"/>
	<path fill="#A4C6C9" d="M756.643 275.511C757.947 275.469 759.322 275.429 760.571 275.87C762.407 276.518 764.032 277.872 764.866 279.641C765.739 281.494 765.663 283.56 764.94 285.45C763.891 288.193 761.72 289.511 759.167 290.667C758.076 290.681 756.874 290.74 755.82 290.425C753.862 289.84 751.941 288.118 751.028 286.308C750.059 284.386 750.028 282.172 750.822 280.182C751.904 277.471 754.094 276.545 756.643 275.511Z"/>
	<path fill="#A4C6C9" d="M660.122 376.063C661.699 375.927 663.297 375.849 664.847 376.256C667.047 376.833 669.059 378.463 670.175 380.43C671.15 382.147 671.375 384.151 670.759 386.032C669.904 388.639 668.119 389.936 665.811 391.211C664.284 391.375 662.923 391.431 661.406 391.127Q660.987 391.041 660.58 390.914Q660.172 390.786 659.779 390.618Q659.387 390.449 659.013 390.242Q658.64 390.035 658.289 389.791Q657.938 389.546 657.614 389.268Q657.29 388.99 656.996 388.68Q656.702 388.37 656.441 388.032Q656.18 387.694 655.954 387.331Q655.766 387.024 655.609 386.7Q655.453 386.376 655.329 386.037Q655.205 385.699 655.116 385.351Q655.026 385.002 654.971 384.646Q654.916 384.29 654.897 383.931Q654.878 383.571 654.894 383.212Q654.911 382.852 654.963 382.496Q655.015 382.139 655.102 381.79C655.84 378.827 657.61 377.559 660.122 376.063Z"/>
	<path fill="#13172B" d="M146.316 545.454C163.04 544.872 179.921 545.205 196.661 545.139L303.617 545.031L377.632 544.9C391.29 544.866 405.22 544.274 418.838 545.039L484.98 544.907C496.492 544.872 508.778 543.918 520.205 545.114C521.158 563.306 520.423 581.873 520.417 600.108L520.405 703.652C519.753 720.004 520.154 736.469 520.147 752.84L520.041 826.824C519.835 836.327 519.948 845.833 519.707 855.336C498.907 855.97 477.964 855.414 457.144 855.397L338.691 855.41L219.826 855.354C194.773 855.41 169.529 856.15 144.499 855.331C143.799 831.923 144.527 808.245 144.858 784.829L145.285 721.155C145.513 698.58 146.026 675.917 145.677 653.35C145.173 631.25 145.58 609.026 145.707 586.915C145.786 573.259 145.146 559.047 146.316 545.454Z"/>
	<path fill="#F3F4EF" d="M413.44 548.361L479.528 548.299C492 548.287 504.532 547.995 516.996 548.39L516.872 650.379C516.845 665.864 517.228 681.417 516.882 696.893C517.206 719.823 516.96 742.788 516.947 765.722C516.936 784.469 517.266 803.31 516.558 822.042C516.385 832.066 516.526 842.125 516.516 852.152L147.91 852.057Q147.805 753.466 149.058 654.885C154.423 656.992 159.949 659.758 165.444 661.402C165.39 671.229 164.348 690.814 165.586 699.569C166.232 713.878 165.536 728.484 165.502 742.821L164.985 842.004C187.086 842.355 209.25 842.02 231.357 842.03L372.518 842.036L452.977 842.2C467.655 842.235 482.684 842.905 497.326 842.011C497.872 826.318 497.379 810.507 497.407 794.797L497.576 700.153L497.603 609.665C497.602 592.65 498.014 575.504 497.393 558.503C487.363 557.596 476.717 558.257 466.621 558.264Q436.579 558.39 406.537 558.115C408.667 554.762 411.107 551.578 413.44 548.361Z"/>
	<path fill="#F9827A" d="M516.882 696.893C517.206 719.823 516.96 742.788 516.947 765.722C516.936 784.469 517.266 803.31 516.558 822.042C509.326 812.105 504.715 797.751 502.29 785.826C500.83 778.649 499.838 771.205 500.024 763.867C500.466 746.452 506.942 724.815 516.546 710.404Q516.629 703.646 516.882 696.893Z"/>
	<path fill="#13172B" d="M149.505 548.976Q219.992 548.214 290.482 548.472L413.44 548.361C411.107 551.578 408.667 554.762 406.537 558.115Q436.579 558.39 466.621 558.264C476.717 558.257 487.363 557.596 497.393 558.503C498.014 575.504 497.602 592.65 497.603 609.665L497.576 700.153L497.407 794.797C497.379 810.507 497.872 826.318 497.326 842.011C482.684 842.905 467.655 842.235 452.977 842.2L372.518 842.036L231.357 842.03C209.25 842.02 187.086 842.355 164.985 842.004L165.502 742.821C165.536 728.484 166.232 713.878 165.586 699.569C164.348 690.814 165.39 671.229 165.444 661.402C159.949 659.758 154.423 656.992 149.058 654.885C149.826 619.619 149.441 584.254 149.505 548.976Z"/>
	<path fill="#A4C6C9" d="M149.505 548.976Q219.992 548.214 290.482 548.472L413.44 548.361C411.107 551.578 408.667 554.762 406.537 558.115L166.502 558.531C165.723 571.329 166.127 584.3 166.102 597.124L165.939 663.241L165.852 686.78C165.833 690.942 166.083 695.445 165.586 699.569C164.348 690.814 165.39 671.229 165.444 661.402C159.949 659.758 154.423 656.992 149.058 654.885C149.826 619.619 149.441 584.254 149.505 548.976Z"/>
	<path fill="#F3F4EF" d="M169.584 562.095L404.675 561.552L463.665 561.58C473.811 561.601 484.058 561.329 494.193 561.722L494.002 838.635L168.451 838.557L168.953 729.628Q168.903 696.441 169.347 663.259L169.584 562.095Z"/>
	<path fill="#08080F" d="M466.889 726.251C470.182 726.193 477.624 725.238 480.03 727.38C480.016 728.505 479.992 728.443 479.216 729.27C468.555 730.641 455.657 729.62 444.75 729.585C441.095 729.62 436.754 730.101 433.205 729.336C432.3 728.508 432.27 728.601 432.2 727.389C432.489 727.129 432.707 726.757 433.066 726.607C435.953 725.404 461.938 726.239 466.889 726.251Z"/>
	<path fill="#13172B" d="M354.454 726.529C362.373 726.313 412.719 725.421 416.953 726.756C417.43 728.034 417.131 728.314 416.696 729.628C408.677 729.895 358.178 730.964 354.569 729.392C353.879 728.12 354.198 727.898 354.454 726.529Z"/>
	<path fill="#13172B" d="M184.462 726.512C197.836 726.104 211.318 726.444 224.704 726.429C232.543 726.421 241.161 725.662 248.9 726.655C249.79 727.798 249.503 728.233 249.389 729.64C237.54 730.093 225.585 729.798 213.721 729.842C204.358 729.877 194.702 730.418 185.391 729.688C184.308 728.669 184.573 727.936 184.462 726.512Z"/>
	<path fill="#13172B" d="M266.071 726.517C275.011 725.401 286.37 726.3 295.504 726.307C307.335 726.317 319.891 725.461 331.641 726.602C332.618 727.598 332.373 728.13 332.452 729.459C323.038 730.608 312.72 729.819 303.222 729.832C291.38 729.848 279.117 730.524 267.321 729.637C266.166 728.721 266.324 727.936 266.071 726.517Z"/>
	<path fill="#08080F" d="M433.426 635.135C448.568 634.574 463.874 634.957 479.037 634.991C478.977 643.095 479.678 709.862 478.802 711.77C478.623 712.16 478.261 712.436 477.99 712.769C470.863 713.165 438.606 713.793 433.454 712.291C432.952 711.558 432.754 711.029 432.641 710.145C431.377 700.203 432.348 684.916 432.365 674.427C432.384 662.412 431.543 649.744 432.452 637.813C432.537 636.696 432.714 636.042 433.426 635.135Z"/>
	<path fill="#F3F4EF" d="M435.532 684.54L475.632 684.485L475.561 695.308C462.232 695.496 448.882 695.364 435.55 695.387L435.532 684.54Z"/>
	<path fill="#F3F4EF" d="M436.406 670.617C449.447 669.998 462.631 670.356 475.69 670.383C475.723 672.818 476.52 679.69 474.924 681.442L435.683 681.486C435.599 678.401 434.902 673.343 436.406 670.617Z"/>
	<path fill="#F3F4EF" d="M436.702 656.183C449.63 655.846 462.622 656.084 475.556 656.077C475.605 659.634 475.939 663.478 475.345 666.98L474.514 667.476L435.774 667.491C435.708 664.609 434.768 658.297 436.702 656.183Z"/>
	<path fill="#F3F4EF" d="M435.519 698.386C448.995 698.224 462.496 698.411 475.975 698.427L475.993 709.687C462.567 710.108 449.001 709.678 435.562 709.594L435.519 698.386Z"/>
	<path fill="#F3F4EF" d="M436.781 638.213C449.692 638.072 462.596 638.392 475.509 638.228C475.54 641.248 476.535 650.921 474.896 653.064L435.771 653.123C435.699 649.502 435.609 645.854 435.682 642.233C435.714 640.595 435.589 639.379 436.781 638.213Z"/>
	<path fill="#08080F" d="M454.056 743.245C460.006 743.172 472.553 742.029 477.628 743.751C478.349 744.615 478.682 745.343 478.814 746.475C479.813 755.044 478.931 764.553 478.892 773.25L478.94 823.637C472.045 824.275 464.831 823.896 457.895 823.909C453.494 823.928 435.898 824.985 432.925 822.982C431.151 816.783 431.494 752.81 432.866 743.483C439.898 743.143 447.013 743.299 454.056 743.245Z"/>
	<path fill="#F3F4EF" d="M435.417 813.516L475.585 813.497L475.595 820.635L435.461 820.739L435.417 813.516Z"/>
	<path fill="#F3F4EF" d="M435.624 746.673L475.598 746.674L475.563 756.359Q455.636 756.477 435.71 756.263L435.624 746.673Z"/>
	<path fill="#F3F4EF" d="M435.393 786.567L475.694 786.529L475.646 796.882L435.392 797.002L435.393 786.567Z"/>
	<path fill="#F3F4EF" d="M435.483 772.991L475.671 772.973L475.633 783.505L435.49 783.515L435.483 772.991Z"/>
	<path fill="#F3F4EF" d="M435.507 759.384C448.906 758.969 462.445 759.397 475.858 759.425L475.858 769.882C462.467 770.377 448.935 769.982 435.529 769.969L435.507 759.384Z"/>
	<path fill="#F3F4EF" d="M435.312 800.019L475.586 799.992L475.58 810.605C462.224 811.149 448.674 810.737 435.297 810.683L435.312 800.019Z"/>
	<path fill="#13172B" d="M355.355 743.652C375.691 743.572 396.09 743.341 416.42 743.758C416.782 759.351 416.52 775.025 416.588 790.626C416.63 800.26 417.286 810.33 416.672 819.926C416.612 820.868 416.424 821.379 415.893 822.155L354.544 821.946C354.324 812.3 353.832 747.602 355.355 743.652Z"/>
	<path fill="#F3F4EF" d="M358.079 746.952L413.452 747.032L413.465 818.595C395.023 819.093 376.454 818.64 357.999 818.638L358.079 746.952Z"/>
	<path fill="#13172B" d="M355.083 634.52C364.029 634.531 410.899 633.437 415.66 635.554C417.72 641.607 416.462 703.183 416.451 713.941C396.513 713.995 374.934 714.889 355.112 713.602C354.117 701.052 354.766 688.026 354.785 675.425C354.805 661.865 354.285 648.05 355.083 634.52Z"/>
	<path fill="#F3F4EF" d="M365.197 637.746L413.509 637.856L413.488 710.587L408.125 710.605L358.26 710.598C357.797 701.213 358.081 691.685 358.063 682.279Q357.943 660.086 358.29 637.895L365.197 637.746Z"/>
	<path fill="#13172B" d="M185.54 743.606C206.493 743.195 227.846 743.035 248.786 743.765C249.238 754.732 248.807 765.879 248.757 776.867C248.688 791.964 248.848 807.107 248.404 822.195C241.452 822.769 234.125 822.21 227.132 822.169L185.516 821.974C184.997 810.638 185.439 799.062 185.43 787.702C185.418 773.035 185.048 758.259 185.54 743.606Z"/>
	<path fill="#F3F4EF" d="M188.808 747.014L245.463 746.995L245.181 818.682C226.347 818.992 207.476 818.742 188.638 818.733L188.808 747.014Z"/>
	<path fill="#08080F" d="M267.422 743.629C287.822 743.595 310.628 742.733 330.765 743.944C331.684 756.25 330.823 769.188 330.815 781.576C330.811 789.147 331.747 816.922 330.35 822.368C309.12 822.094 287.861 822.58 266.644 822.162C267.155 811.72 265.888 747.302 267.422 743.629Z"/>
	<path fill="#F3F4EF" d="M270.475 746.913L327.511 747.012L327.505 818.837C308.474 819.067 289.435 818.503 270.401 818.808L270.475 746.913Z"/>
	<path fill="#13172B" d="M267.487 634.486C282.161 633.454 297.731 634.126 312.455 634.431C318.461 634.525 324.791 634.201 330.749 634.801L330.897 687.043C330.918 695.865 331.451 705.081 330.824 713.866C309.771 714.811 288.252 714.246 267.167 713.978C267.161 704.448 267.732 694.487 267.089 685.009C267.604 680.755 267.352 676.177 267.393 671.87C267.512 659.416 266.911 646.93 267.487 634.486Z"/>
	<path fill="#A4C6C9" d="M270.885 637.874Q288.963 637.643 307.04 637.921C295.276 644.539 283.807 652.895 270.648 656.484C271.089 650.343 270.861 644.036 270.885 637.874Z"/>
	<path fill="#F3F4EF" d="M307.04 637.921C313.861 637.662 320.703 637.827 327.528 637.89L327.597 710.595L270.438 710.519L270.494 674.975C270.517 668.905 270.143 662.519 270.648 656.484C283.807 652.895 295.276 644.539 307.04 637.921Z"/>
	<path fill="#A4C6C9" d="M169.584 562.095L404.675 561.552C399.188 564.022 386.749 578.451 382.95 583.583L477.614 583.834C477.661 590.212 477.776 596.595 477.528 602.969Q418.65 602.555 359.771 602.835C353.311 608.698 313.812 630.965 312.455 634.431C297.731 634.126 282.161 633.454 267.487 634.486C266.911 646.93 267.512 659.416 267.393 671.87C267.352 676.177 267.604 680.755 267.089 685.009C266.288 675.988 266.859 666.577 266.917 657.516C261.062 660.201 255.361 662.731 249.147 664.5C249.164 671.764 250.191 698.836 248.659 704.287L248.546 713.934L204.486 714.051C198.791 714.062 190.396 714.99 185.131 713.709C184.227 708.821 184.796 703.049 184.803 698.037L184.869 666.569Q177.086 665.018 169.347 663.259L169.584 562.095Z"/>
	<path fill="#13172B" d="M185.451 634.462C193.592 634.154 201.839 634.427 209.994 634.429Q229.419 634.347 248.843 634.565Q248.533 669.426 248.659 704.287L248.546 713.934L204.486 714.051C198.791 714.062 190.396 714.99 185.131 713.709C185.924 704.961 185.374 695.667 185.378 686.863L185.451 634.462Z"/>
	<path fill="#A4C6C9" d="M188.661 637.516L245.52 637.664L245.486 665.02C237.135 664.79 225.319 667.941 216.2 668.479C207.251 669.008 198.202 667.186 189.363 667.837C188.818 669.439 188.674 670.844 188.573 672.528C187.976 660.988 188.605 649.091 188.661 637.516Z"/>
	<path fill="#F3F4EF" d="M188.573 672.528C188.674 670.844 188.818 669.439 189.363 667.837C198.202 667.186 207.251 669.008 216.2 668.479C225.319 667.941 237.135 664.79 245.486 665.02L245.428 710.58L188.434 710.568Q188.39 691.547 188.573 672.528Z"/>
	<path fill="#13172B" d="M382.95 583.583L477.614 583.834C477.661 590.212 477.776 596.595 477.528 602.969Q418.65 602.555 359.771 602.835C347.054 601.871 333.707 602.693 320.922 602.652L235.292 602.665C219.816 602.678 204.027 603.273 188.585 602.414C188.222 596.319 188.489 590.075 188.516 583.966C253.287 583.283 318.18 583.031 382.95 583.583Z"/>
	<path fill="#F3F4EF" d="M473.035 587.427L474.153 587.891C474.908 591.482 474.447 595.627 474.436 599.309L365.485 599.153Q371.868 593.685 377.704 587.636L439.803 587.653C450.796 587.658 462.078 588.194 473.035 587.427Z"/>
	<path fill="#A4C6C9" d="M191.952 587.487L377.577 587.143L440.495 587.141C451.238 587.16 462.332 586.607 473.035 587.427C462.078 588.194 450.796 587.658 439.803 587.653L377.704 587.636Q371.868 593.685 365.485 599.153C358.278 599.531 350.894 599.274 343.671 599.275L302.033 599.187L191.982 599.062L191.952 587.487Z"/>
	<path fill="#13172B" d="M176.539 264.827C176.962 255.895 176.611 246.798 176.621 237.848L176.661 186.906C176.647 177.467 175.771 167.303 176.833 157.981C176.99 156.602 177.306 155.584 178.308 154.571C180.104 152.754 182.551 152.282 184.99 152.049C191.377 151.439 198.093 151.866 204.509 151.893L234.806 151.891L331.42 152.331C346.679 152.322 362.133 152.772 377.37 152.003C401.317 152.773 425.302 152.418 449.259 152.556L546.9 153.536Q566.935 154.476 586.989 154.781C594.324 154.925 601.937 154.612 609.221 155.384C609.306 155.494 609.367 155.627 609.477 155.712C609.642 155.84 609.845 155.91 610.029 156.008L609.727 156.568C610.272 168.288 609.983 180.115 609.986 191.85L609.983 250.209L609.585 437.169L609.523 439.325C609.552 445.865 610.294 453.376 609.231 459.785C602.571 461.593 575.197 460.569 566.114 460.66C538.863 460.933 511.533 462.09 484.284 461.63C419.048 463.579 353.67 462.509 288.41 463.68L212.506 464.919C203.378 465.073 185.417 466.378 177.18 465.029C175.371 459.516 176.469 419.649 176.46 411.151L176.539 264.827Z"/>
	<path fill="#F3F4EF" d="M488.909 435.805Q511.854 435.755 534.795 435.347C539.222 439.731 545.305 443.063 550.915 445.728L549.808 445.743L550.117 445.993L546.78 446.434L486.126 446.636C487.195 443.041 488.138 439.477 488.909 435.805Z"/>
	<path fill="#F3F4EF" d="M593.269 434.409C595.755 434.881 598.227 435.364 600.689 435.954C602.448 436.246 604.171 436.527 605.953 436.628L605.938 457.146Q557.764 457.108 509.598 457.992C500.562 458.144 491.484 457.932 482.456 458.221C483.05 455.463 483.998 452.814 484.889 450.141C521.225 449.577 557.594 450.272 593.93 449.597C593.761 446.041 593.398 442.612 593.451 439.033L593.269 434.409Z"/>
	<path fill="#E6DFD5" d="M593.269 434.409C595.755 434.881 598.227 435.364 600.689 435.954C598.507 438.014 596.311 438.371 593.451 439.033L593.269 434.409Z"/>
	<path fill="#F3F4EF" d="M179.948 261.547L179.901 195.7C179.922 184.449 179.273 172.695 180.136 161.495C180.268 159.787 180.188 157.754 181.402 156.518L180.962 156.27L181.524 156.748L181.124 156.036C186.626 154.129 217.21 155.383 225.536 155.428L289.493 155.5C300.132 155.51 311.132 154.913 321.718 155.653C326.473 156.588 331.908 156.184 336.753 156.175C345.93 156.159 355.148 155.909 364.319 156.229C359.695 158.857 353.984 160.832 349.863 164.108C344.69 164.96 338.958 164.558 333.716 164.55L307.709 164.513C279.147 164.541 250.516 165.033 221.959 164.557C216.082 164.674 197.128 163.624 193.257 165.505C193.167 165.548 193.074 165.583 192.982 165.622L193.179 166.678L193.081 166.498C191.815 177.035 192.49 188.132 192.502 198.749L192.484 252.546C188.173 255.172 183.865 258.359 179.948 261.547Z"/>
	<path fill="#A4C6C9" d="M220.681 338.476Q239.373 338.108 258.064 338.539C258.758 352.968 258.096 367.753 258.063 382.216C258.024 399.295 258.537 416.541 257.919 433.599L220.357 433.851L220.681 338.476Z"/>
	<path fill="#A4C6C9" d="M593.188 158.515C597.575 158.575 602.023 158.489 606.393 158.869L605.953 436.628C604.171 436.527 602.448 436.246 600.689 435.954C598.227 435.364 595.755 434.881 593.269 434.409C592.691 399.982 593.215 365.49 593.226 331.057L593.188 158.515Z"/>
	<path fill="#A4C6C9" d="M399.961 310.235L411.662 310.097L411.114 432.486L389.75 432.607L377.491 432.704L377.473 310.36Q388.717 310.383 399.961 310.235Z"/>
	<path fill="#A4C6C9" d="M300.867 317.842L337.736 317.976L337.458 433.19C325.283 433.458 313.086 433.423 300.907 433.514C300.056 395.018 300.834 356.356 300.867 317.842Z"/>
	<path fill="#A4C6C9" d="M179.948 261.547C183.865 258.359 188.173 255.172 192.484 252.546L191.999 451.556C204.369 452.571 217.318 451.725 229.74 451.609Q262.345 451.514 294.947 451.045L484.889 450.141C483.998 452.814 483.05 455.463 482.456 458.221C470.53 458.61 458.57 458.503 446.637 458.669L346.952 459.595L179.918 461.753C179.505 438.142 179.92 414.45 179.946 390.831L179.948 261.547Z"/>
	<path fill="#F3F4EF" d="M196.001 168.022L337.069 167.963C332.018 172.582 322.323 175.832 316.018 178.912C306.871 183.381 297.702 187.926 288.698 192.673Q259.285 208.519 230.973 226.259C219.206 233.587 207.069 240.853 196.173 249.445C196.178 242.327 196.65 234.84 195.917 227.772C195.377 220.995 195.95 213.761 195.985 206.944L196.001 168.022Z"/>
	<path fill="#A4C6C9" d="M415.463 271.567Q433.056 271.445 450.649 271.501C450.672 286.199 451.15 430.083 449.944 432.209C438.26 432.132 426.556 432.431 414.868 432.454L415.127 327.809C415.222 309.136 414.487 290.209 415.463 271.567Z"/>
	<path fill="#A4C6C9" d="M321.718 155.653C358.985 154.862 396.398 155.972 433.681 156.073L502.665 156.665C516.571 156.805 530.647 156.521 544.517 157.343C559.488 157.79 574.496 158.47 589.472 158.53L589.406 346.404L589.419 405.77C589.431 416.923 589.715 428.15 589.335 439.295L589.443 440.008L589.472 446.085C577.22 447.344 559.503 446.434 546.78 446.434L550.117 445.993L549.808 445.743L550.915 445.728C545.305 443.063 539.222 439.731 534.795 435.347L558.946 434.742C563.364 434.639 568.039 434.838 572.401 434.128L572.511 433.375L572.479 258.919L572.494 200.092C572.488 188.702 572.756 177.219 572.25 165.845C561.895 165.605 551.515 165.633 541.156 165.531Q471.495 165.543 401.839 164.72C384.589 164.447 367.07 165.23 349.863 164.108C353.984 160.832 359.695 158.857 364.319 156.229C355.148 155.909 345.93 156.159 336.753 156.175C331.908 156.184 326.473 156.588 321.718 155.653Z"/>
	<path fill="#F3F4EF" d="M570.509 440.671C575.729 439.822 582.156 438.838 587.418 439.023C588.644 439.067 588.683 439.131 589.443 440.008L589.472 446.085C582.635 445.552 575.6 445.878 568.737 445.907L570.509 440.671Z"/>
	<path fill="#A4C6C9" d="M525.29 232.456C525.996 232.504 527.401 232.354 527.831 232.943C528.673 234.095 528.633 236.177 528.686 237.547C528.873 242.341 528.362 247.178 528.394 251.985L528.497 306.124L528.48 399.863C528.466 406.023 529.339 426.009 528.386 430.465C528.274 430.99 528.161 431.13 527.923 431.542L526.62 431.792C514.337 431.227 501.82 431.851 489.519 431.986L489.627 232.582C501.507 232.406 513.407 232.514 525.29 232.456Z"/>
	<path fill="#A4C6C9" d="M337.069 167.963L536.72 169.106L568.676 169.446L568.588 431.002C556.459 431.113 544.329 431.541 532.201 431.512L531.979 294.164L531.878 244.113C531.861 240.911 532.345 237.703 532.27 234.512C532.229 232.76 531.866 231.37 531.115 229.801C529.704 228.792 528.827 229.041 527.121 229.02C513.543 229.026 499.506 228.323 485.988 229.326L486.02 432.016L454.041 432.133C454.023 377.467 453.377 322.702 454.207 268.046C446.847 267.77 417.471 266.932 412.429 268.972C410.531 274.106 411.566 299.35 411.575 306.498C399.9 306.558 384.6 305.67 373.333 307.14C374.143 324.014 373.938 340.97 373.946 357.861L373.903 432.732C362.966 432.914 351.955 433.368 341.023 433.248C341.038 393.685 341.935 354.068 341.475 314.513C327.012 314.064 311.855 313.672 297.412 314.433C297.225 354.085 298.022 393.846 297.31 433.478L261.667 433.532L261.711 372.647C261.81 360.111 262.269 347.522 262.066 334.989Q239.732 334.77 217.396 334.891C216.184 350.346 216.924 366.338 216.847 381.867C216.755 400.312 216.001 419.051 216.648 437.467Q294.452 437.447 372.251 436.575L488.909 435.805C488.138 439.477 487.195 443.041 486.126 446.636C446.371 447.319 406.545 446.924 366.779 447.109L195.572 448.156L196.069 299.448Q196.14 279.272 195.975 259.096C195.827 248.669 195.253 238.191 195.917 227.772C196.65 234.84 196.178 242.327 196.173 249.445C207.069 240.853 219.206 233.587 230.973 226.259Q259.285 208.519 288.698 192.673C297.702 187.926 306.871 183.381 316.018 178.912C322.323 175.832 332.018 172.582 337.069 167.963Z"/>
	<path fill="#13172B" d="M467.786 186.931C468.588 186.952 468.923 187.105 469.644 187.42L469.905 188.438C468.201 191.759 455.631 198.542 451.988 200.827C406.577 229.314 357.965 252.34 308.316 272.403C290.892 279.444 273.16 285.83 255.609 292.558C255.353 292.468 255.072 292.43 254.84 292.288C253.973 291.756 253.814 291.274 253.787 290.337C254.882 289.119 256.253 288.574 257.743 287.966C270.068 282.934 282.717 278.519 295.134 273.691Q322.718 262.999 349.749 250.977C376.423 239.228 403.334 225.776 428.51 211.089C441.772 203.351 454.377 194.363 467.786 186.931Z"/>
	<path fill="#F9827A" d="M717.214 540.512C728.136 536.69 738.335 531.784 749.682 529.1C758.293 527.062 767.374 526.1 776.147 525.026C820.162 519.637 875.381 520.209 916.054 539.814C935.431 549.154 951.33 564.606 958.423 585.177C962.985 598.406 964.159 612.85 963.186 626.753C961.192 655.237 952.082 682.597 946.423 710.438C937.602 753.843 934.051 809.291 914.53 848.844C894.707 889.012 862.224 917.668 819.795 932.007Q805.913 936.678 791.631 939.927Q777.349 943.176 762.812 944.97C717.118 950.83 683.572 945.203 642.401 924.783C609.012 908.222 567.873 878.582 541.705 851.812C533.928 843.855 527.464 835.007 520.041 826.824L520.147 752.84C520.154 736.469 519.753 720.004 520.405 703.652C524.007 699.046 526.874 693.672 530.449 688.959C541.382 674.547 554.631 662.456 569.022 651.562C597.399 630.081 640.819 611.818 663.515 584.834Q663.349 562.688 663.408 540.542L717.214 540.512Z"/>
	<path fill="#13172B" d="M717.214 540.512C768.818 541.126 820.437 539.973 872.042 540L872.016 743.848L871.994 810.715C871.986 823.188 872.292 835.781 871.799 848.241C861.184 848.616 850.493 848.287 839.87 848.223L788.26 848.121C746.849 848.197 705.327 849.123 663.931 848.503C663.379 826.786 663.849 804.958 663.828 783.231L663.709 643.642C663.649 624.052 663.87 604.419 663.515 584.834Q663.349 562.688 663.408 540.542L717.214 540.512Z"/>
	<path fill="#F3F4EF" d="M666.767 544.267Q689.662 543.849 712.56 544.014C707.618 546.847 702.415 549.672 698.436 553.817L696.515 555.369C694.598 557.302 691.772 560.447 689.277 561.473L687.465 562.752C681.023 569.886 674.086 576.183 666.882 582.531L666.767 544.267Z"/>
	<path fill="#F9827A" d="M712.56 544.014Q790.535 544.021 868.505 543.141L868.566 720.433C868.641 762.042 869.257 803.818 868.144 845.405C801.101 844.872 734.035 846.06 666.998 845.363L666.882 582.531C674.086 576.183 681.023 569.886 687.465 562.752L689.277 561.473C689.845 574.514 689.511 587.698 689.543 600.756L689.671 668.516L689.824 828L749.13 827.968C759.098 827.982 769.295 827.545 779.24 828.073C786.736 827.677 794.39 827.959 801.902 827.962L843.043 827.987C843.019 820.497 841.988 805.077 843.685 798.556L844.047 798.646L844.482 798.299Q844.386 795.931 844.324 793.562L843.262 792.631C842.388 784.384 842.995 775.455 842.991 767.139L842.967 718.326L842.999 555.077L734.469 555.43C727.268 555.466 701.341 556.567 696.515 555.369L698.436 553.817C702.415 549.672 707.618 546.847 712.56 544.014Z"/>
	<path fill="#13172B" d="M844.57 793.251C846.096 802.957 844.828 819.238 844.994 829.771C826.083 830.414 807.006 829.925 788.078 829.898C775.713 829.881 762.648 830.687 750.373 829.589C754.504 829.045 758.93 829.318 763.097 829.327C770.87 829.344 778.635 829.413 786.404 829.122L786.252 828.82C783.911 828.472 781.602 828.228 779.24 828.073C786.736 827.677 794.39 827.959 801.902 827.962L843.043 827.987C843.019 820.497 841.988 805.077 843.685 798.556L844.047 798.646L844.482 798.299Q844.386 795.931 844.324 793.562L844.57 793.251Z"/>
	<path fill="#08080F" d="M687.465 562.752L689.277 561.473C689.845 574.514 689.511 587.698 689.543 600.756L689.671 668.516L689.824 828L749.13 827.968C759.098 827.982 769.295 827.545 779.24 828.073C781.602 828.228 783.911 828.472 786.252 828.82L786.404 829.122C778.635 829.413 770.87 829.344 763.097 829.327C758.93 829.318 754.504 829.045 750.373 829.589C743.541 830.126 736.286 829.659 729.408 829.65L688.019 829.668Q688.544 696.208 687.465 562.752Z"/>
	<path fill="#08080F" d="M698.436 553.817C747.125 552.651 796.061 553.273 844.772 553.485L844.656 708.617L844.676 764.061C844.675 773.747 845.024 783.583 844.57 793.251L844.324 793.562L843.262 792.631C842.388 784.384 842.995 775.455 842.991 767.139L842.967 718.326L842.999 555.077L734.469 555.43C727.268 555.466 701.341 556.567 696.515 555.369L698.436 553.817Z"/>
	<path fill="#F9827A" d="M689.277 561.473C691.772 560.447 694.598 557.302 696.515 555.369C701.341 556.567 727.268 555.466 734.469 555.43L842.999 555.077L842.967 718.326L842.991 767.139C842.995 775.455 842.388 784.384 843.262 792.631L844.324 793.562Q844.386 795.931 844.482 798.299L844.047 798.646L843.685 798.556C841.988 805.077 843.019 820.497 843.043 827.987L801.902 827.962C794.39 827.959 786.736 827.677 779.24 828.073C769.295 827.545 759.098 827.982 749.13 827.968L689.824 828L689.671 668.516L689.543 600.756C689.511 587.698 689.845 574.514 689.277 561.473Z"/>
	<path fill="#13172B" d="M769.352 591.122C773.266 592.326 799.333 606.934 800.801 609.583C801.142 610.197 800.589 611.117 800.386 611.743C797.447 611.142 773.083 596.809 769.037 594.086C768.537 592.948 769.014 592.277 769.352 591.122Z"/>
	<path fill="#13172B" d="M745.349 627.065C746.13 627.856 746.704 628.315 746.915 629.437Q732.843 650.683 718.444 671.708C714.14 678.025 710.175 685.031 705.324 690.903C704.297 692.145 703.317 693.369 701.721 693.832C701.667 693.546 701.577 693.264 701.559 692.974C701.475 691.597 702.692 689.392 703.356 688.221C708.545 679.067 716.699 668.508 722.815 659.588C730.198 648.821 737.196 637.223 745.349 627.065Z"/>
	<path fill="#13172B" d="M796.013 649.012L823.243 597.898C825.889 593.023 828.117 587.581 830.975 582.888C831.651 581.779 832.308 581.044 833.429 580.355C834.527 580.339 834.341 580.139 835.235 580.956C834.122 585.837 825.07 601.304 822.338 606.481C814.871 620.629 807.688 635.18 799.846 649.107C799.309 650.062 798.588 651.134 797.66 651.757C796.358 652.631 794.696 652.405 793.314 651.885C789.654 650.507 785.901 647.981 782.341 646.233Q768.757 639.581 755.066 633.15C752.761 632.062 749.355 629.845 746.915 629.437C746.704 628.315 746.13 627.856 745.349 627.065C745.703 626.604 745.876 626.058 746.514 626.024C748.861 625.898 790.435 646.302 796.013 649.012Z"/>
	<path fill="#13172B" d="M771.178 683.269C776.904 686.199 782.419 691.343 787.731 695.081C795.688 700.682 804.057 705.737 811.735 711.722C816.245 706.932 833.505 686.4 837.981 684.69C838.956 685.429 838.925 685.454 839.219 686.65C839.114 687.238 839.106 687.554 838.735 688.11C837.497 689.97 834.997 691.81 833.408 693.474C826.442 700.773 819.619 709.222 811.886 715.652C798.389 706.497 784.599 697.531 771.857 687.335C770.012 689.502 768.065 691.583 766.144 693.684C750.608 710.181 734.402 726.698 717.648 741.943C714.384 740.556 700.399 733.893 698.891 731.717L699.392 730.606C700.432 730.258 700.819 730.157 701.923 730.497C703.921 731.112 705.837 732.576 707.729 733.5C710.849 735.023 714.058 736.398 717.231 737.81C727.015 729.169 736.04 719.677 745.194 710.38C753.972 701.466 762.941 692.69 771.178 683.269Z"/>
	<path fill="#13172B" d="M735.704 799.833C739.793 793.834 764.941 752.498 767.258 751.313C769.253 752.446 792.262 786.478 797.089 792.069C802.375 789.495 807.636 786.661 813.241 784.855C818.195 786.248 839.122 792.899 842.036 793.004C842.463 793.019 842.853 792.756 843.262 792.631L844.324 793.562Q844.386 795.931 844.482 798.299L844.047 798.646L843.685 798.556C841.224 794.884 818.525 789.716 812.836 788.155L796.355 796.106C787.457 787.752 774.933 766.761 767.084 755.934C761.036 766.076 754.855 776.098 748.559 786.088C744.822 792.018 741.184 798.235 736.804 803.716C730.424 800.97 724.262 797.368 718.118 794.116C713.318 799.107 709.194 804.769 704.322 809.685C702.95 809.588 702.949 809.506 701.924 808.569C703.114 804.705 714.022 793.513 717.415 790.268C723.62 793.125 729.663 796.629 735.704 799.833Z"/>
</svg>
