<svg xmlns="http://www.w3.org/2000/svg" viewBox="0 0 1024 819">
  <path fill="#3C3C68" d="M139.7176 612.456c5.536.5488 9.9584 7.344 15.816 8.7976 3.684.9144 8.6976-.7328 12.0048 1.3488.6264 1.4184.4816 1.7256.2456 3.2088-2.5888.4968-5.356.452-7.9704.1616-6.4504-.7152-15.1664-3.4536-19.1744-8.9048-1.2904-1.7544-1.1872-2.572-.9216-4.612ZM308.304 111.404c1.8096-.152 3.6312.0392 5.3976.4536 7.0384 1.6512 18.0424 7.336 21.5656 13.9368.7272 1.3632.5008 2.0464.1608 3.4336-5.3624.1888-8.7776-6.5608-13.3464-9.012-4.0112-2.152-10.4304-2.5856-13.7568-5.476-.6128-1.5632-.4296-1.7712-.0208-3.336Zm44.1008 8.2448c-7.5536-10.6824-20.8672-20.836-33.8736-23.5464-4.3576-.9088-9.6096-.5944-13.7416-2.1208-1.272-.4696-1.6232-.8296-2.12-2.0544l.5576-1.0776c2.1952-1.1504 4.304-.968 6.6888-.7 19.9832 2.2512 34.9088 12.4784 47.2576 27.8064.48 1.4856.7512 1.828.2896 3.3616-1.2192.7888-1.4448.6528-2.8432.5648-1.1256-.6424-1.5104-1.144-2.2152-2.2336ZM115.632 612.9328c.732.0192 1.688-.0408 2.3872.1504 2.2976.628 7.4592 9.8416 9.328 12.2q1.1712 1.464 2.4608 2.8256 1.2896 1.3608 2.6888 2.6088t2.8976 2.3744q1.4992 1.1256 3.0872 2.1224c6.8992 4.4096 14.9712 7.588 23.2736 7.4336 3.2728-.0608 8.2056-1.24 11.2384.0664.856 1.4056.7936 1.912.8544 3.5176-3.968 1.0736-8.0712 1.2128-12.164 1.0336-14.3152-.628-27.8056-8.016-37.3632-18.5088-3.5952-3.9472-8.9264-10.2088-8.6888-15.824Zm262.3632-503.5456c-2.2448-3.0656-4.98-5.8536-7.688-8.5144-16.3016-16.0224-36.7144-28.2707-59.772-30.9198-4.8848-.5613-9.4712-.3232-14.3392-.3246-1.7848-.0006-2.8416-.1638-4.0944-1.4222.0888-1.2724.1592-1.3163.9896-2.297 3.7696-1.7006 9.6536-.81 13.7456-.5963 30.9328 1.614 54.76 18.6631 74.8152 40.8655 2.1112 2.548 5.9624 6.0112 5.7104 9.4736-.0464.6432-.2304 1.1376-.524 1.7032-.7944.2864-.6656.4168-1.5296.0184-3.5648-1.6456-4.5672-5.6856-7.3136-7.9864Z"/>
  <path fill="#3C3C68" d="M104.3312 642.48c-2.3512-3.1696-4.88-6.2032-7.2112-9.3848-2.3272-3.1776-8.952-12.064-8.396-15.7152.9104-.7288.9648-.6936 2.1408-.7184 3.7872 1.98 6.472 8.8944 8.9528 12.4504.0864.1392.1712.2792.2592.4176 11.0976 17.4432 30.2744 29.9488 50.3544 34.2912 6.0448 1.3064 13.2256 2.172 19.4456 1.6408 3.764-.3208 7.68-1.2 11.452-1.028 1.26.0576 2.004.3296 3.004 1.0776.3424 1.1144.2912 1.1896-.084 2.304-4.496 3.48-22.2344 2.212-28.1728 1.48-14.3272-1.7664-30.8592-8.3936-42.1144-17.6296-3.4536-2.8344-6.288-6.2672-9.6304-9.1856Z"/>
  <path fill="#6793A0" d="M103.716 554.6168q-1.264-1.2288-2.4768-2.5088-1.212-1.2792-2.3704-2.608-1.1584-1.3288-2.2616-2.704-1.1024-1.3752-2.148-2.7952-1.0448-1.4192-2.0312-2.8808-.9856-1.4616-1.9104-2.9632-.9248-1.5008-1.7864-3.0384-.8624-1.5376-1.66-3.1096-.7976-1.572-1.5304-3.176-.732-1.604-1.3976-3.236-.6656-1.6328-1.264-3.2912-.5976-1.6584-1.1264-3.34-.5288-1.6824-.988-3.384-.4592-1.7024-.848-3.4224-.3886-1.7192-.706-3.4536-.3174-1.7344-.563-3.48c-2.7988-20.5456 3.3418-42.2432 16.0002-58.6232 15.6616-20.264 39.2696-32.4104 64.5304-35.448 25.3456-3.0472 50.3696 5.3904 70.1888 21.0752 18.308 18.1976 28.9992 36.0464 29.2056 62.6064q.0056 1.0264-.0144 2.052-.02 1.0264-.0656 2.0512-.0448 1.0256-.1152 2.0488-.0704 1.024-.1656 2.0456-.0952 1.0224-.216 2.0408-.12 1.0192-.2656 2.0352t-.316 2.028q-.1704 1.012-.3656 2.0192-.1952 1.0072-.4144 2.0096-.22 1.0024-.464 1.9992-.2448.9968-.5136 1.9872-.2688.9904-.5616 1.9736-.2928.984-.6096 1.96t-.6584 1.9432q-.3408.968-.7048 1.9272-.3648.96-.7528 1.9096-.388.9504-.7992 1.8904-.4112.94-.8448 1.8696-.4344.9296-.8912 1.8488t-.936 1.8264q-.4792.9072-.9808 1.8024-.5008.8952-1.024 1.7784-.5232.8824-1.068 1.752-.5448.8696-1.1104 1.7256-.5664.856-1.1528 1.6984-.5864.8416-1.1936 1.6688t-1.2352 1.6392q-.6272.812-1.2736 1.608-.6472.7968-1.3136 1.5768-.6664.78-1.352 1.544-.6856.7632-1.3896 1.5096-.7032.7472-1.4256 1.476c-17.0208 17.1464-39.5608 27.1176-63.8096 27.152-25.8472.0368-47.984-9.076-66.8536-26.616Z"/>
  <path fill="#F3F4EF" d="M161.7912 413.7808c22.2624-1.9576 46.9152 5.568 64.2576 19.6808 17.14 13.9472 27.384 34.3336 29.584 56.212 2.0256 20.1544-6.1944 42.2752-18.952 57.7032-15.3696 18.5848-37.372 28.5664-61.076 30.688-21.6216 1.1552-44.8408-5.3232-62.1104-18.6128-16.588-12.7656-29.1608-34.0064-31.7176-54.832-2.578-21.0024 3.5832-41.156 16.4928-57.7592 15.3496-19.7416 39.2112-30.0544 63.5216-33.08Z"/>
  <path fill="#6793A0" d="M161.7824 421.2904c.1024-.0152.2048-.036.308-.0448 19.4696-1.696 39.9536 3.9336 55.5672 15.7976 15.7992 12.0064 26.2888 29.0304 28.8296 48.8328 2.5392 19.788-3.4544 39.3872-15.6896 55.0224-13.3064 17.004-33.1352 26.1016-54.1728 28.7344-21.708 1.084-41.94-3.9832-59.2816-17.6112-15.3736-12.0816-25.3504-29.3928-27.496-48.8888-2.0824-18.9224 4.1216-38.1424 15.9944-52.9312 13.1328-16.36 35.2912-26.7488 55.9408-28.9112Z"/>
  <path fill="#F3F4EF" d="M165.7552 423.8144q.5128-.0304 1.0256-.052c20.2704-.8472 40.436 7.2768 55.2072 20.9992 14.1432 13.14 21.3616 29.84 21.9512 49.1968.5704 18.7288-7.22 36.9168-20.036 50.4072-13.6352 14.3536-33.332 21.8184-52.888 22.3536-20.1032-.0016-38.8736-5.8008-54.2888-19.0272q-.656-.5568-1.2976-1.1304-.6416-.5736-1.268-1.1632-.6272-.5888-1.2392-1.1936-.612-.6048-1.2088-1.2248-.5968-.62-1.1776-1.2544-.5816-.6352-1.1464-1.284-.5648-.6488-1.1136-1.312t-1.08-1.3392q-.532-.6768-1.0464-1.3664-.5152-.6896-1.012-1.3912-.4976-.7024-.9776-1.4168-.4792-.7144-.9408-1.4408-.4616-.7264-.9048-1.464-.4432-.7376-.868-1.4864-.4248-.748-.8304-1.5072-.4056-.7584-.792-1.5272-.3872-.7688-.7544-1.5472-.3672-.7784-.7152-1.5656-.3472-.7864-.6752-1.5824-.328-.7952-.636-1.5992-.308-.8032-.5952-1.6144-.288-.8112-.5552-1.6288-.2672-.8184-.5144-1.6424-.2464-.8248-.4728-1.6552-.2256-.8304-.4312-1.6656-.2048-.836-.3896-1.6768-.184-.8408-.3472-1.6856t-.3048-1.6936q-.1424-.8488-.2632-1.7008-.12-.852-.22-1.7072-.0992-.8544-.1768-1.7112-.0776-.8576-.1344-1.716c-1.3224-18.1232 4.884-35.5192 16.7584-49.1512 14.0952-16.1816 35.1152-25.416 56.3592-26.8328Z"/>
  <path fill="#3C3C68" d="M213.1528 449.8712c3.5704.8624 4.9688 2.9208 6.9888 5.7512-3.412 7.456-10.2088 14.8832-15.1344 21.508 2.2728 3.092 6.2992 8.8632 6.5144 12.7568.06 1.0696-.2208 2.1304-.9896 2.9048-1.4992 1.5088-4.408 1.2112-6.3928 1.2704q-.26 21.5192.076 43.036l-71.84-.3112c-1.2024.0312-2.1312.1768-3.1416-.5984-.624-4.972-.2576-10.2712-.2344-15.284l.1424-26.9016c-2.3784-.032-7.7392.4904-9.4456-1.1712-.2024-5.4 9.4632-21.028 12.1104-27.1392 22.2648-.364 44.6152-.148 66.884-.0496l.3936-.22-.1904-.7432.6456.2776c4.3048-4.9512 8.5296-10.9736 13.6136-15.0864Z"/>
  <path fill="#6C9FA8" d="M213.1624 452.4504c.2328.0088.4664.0096.6992.0256 2.1992.1512 3.3808 2.0568 4.6448 3.6224-8.9856 14.1712-20.2768 26.9984-30.4448 40.3248-5.9248 7.7648-12.876 19.3248-19.9312 25.6896-1.5968 1.4408-3.1672 1.4768-5.2136 1.336-3.7064-1.692-14.86-21.1312-17.6816-25.6264-1.22-2.1224-2.4784-3.9072-4.1072-5.736 1.2872-3.2568 2.6376-6.228 4.7128-9.0632 6.7296 8.4904 12.3752 18.228 18.2384 27.348 4.8024-4.5528 8.8784-10.592 12.9816-15.7824 7.6696-9.7008 15.496-19.0272 23.5888-28.3704 4.02-4.6416 7.9184-9.6888 12.5128-13.768Z"/>
  <path fill="#F3F4EF" d="M134.7272 469.468c7.2048.5016 14.62.1416 21.8448.104l39.2376-.1656c-8.4312 10.5992-17.364 20.7552-25.6984 31.4576l-5.88 7.4272c-3.2352-5.4864-12.2344-22.8096-17.3216-25.3496-1.2096-.6048-2.0336-.46-3.2872-.0936-2.4768 1.8752-2.7544 4.3672-3.3704 7.2352q-8.0504.0576-16.1008.0168c2.9112-7.0944 6.8992-13.904 10.576-20.632Z"/>
  <path fill="#F3F4EF" d="M193.9088 490.844q4.6576-5.9536 9.4944-11.7616 2.5296 5.5432 5.2128 11.0128c-4.1824-.0088-10.444-.7992-14.1528 1.2072 0 .936.1784 1.5624.5016 2.4384 1.5136.8784 2.5128.6328 4.1944.5776 1.9528 2.1536.78 32.8816.8584 38.8592q-33.4864.0376-66.9712-.3712l.0416-38.82 7.3584-.016c6.9656 8.7056 11.6568 21.5048 19.9656 28.9112 1.344 1.1976 3.0688 2.2648 4.9488 2.0536 1.4696-.1648 2.9256-1.2 3.9656-2.192 3.1624-3.016 5.804-7.1336 8.4616-10.612q8.1384-10.584 16.1208-21.2872Z"/>
  <path fill="#6793A0" d="M165.3528 39.7314c21.4344-1.4492 47.612 7.1885 64.0704 20.9948 16.132 13.532 27.6288 34.8658 29.3168 55.9298 1.86 23.216-4.7632 45.6976-20.1488 63.456-16.8304 19.4264-39.756 28.6568-64.9432 30.42-24.068.4704-47.4472-6.3264-65.7456-22.5184C91.22 173.2512 79.8296 151.744 78.547 129.3264c-1.2814-22.3952 6.797-43.708 21.7082-60.3174 17.2712-19.2374 39.6608-27.9756 65.0976-29.2776Z"/>
  <path fill="#F3F4EF" d="M160.0552 42.7069c.0904-.0137.1792-.0319.2704-.0409 23.5304-2.362 49.3032 5.6044 67.4128 20.7409q.752.6342 1.488 1.2866.7368.6524 1.4568 1.3227.72.6701 1.424 1.3576.7032.6876 1.3896 1.3921.6872.7046 1.356 1.4256.6696.721 1.3208 1.4583.6512.737 1.2848 1.49.6336.7528 1.248 1.521.6144.768 1.2104 1.5508.596.7829 1.1728 1.58.576.7972 1.1328 1.6082.5576.8106 1.0944 1.6354.5368.824 1.0536 1.6616.5168.8368 1.0128 1.6864.496.8496.9712 1.7112.4752.8616.9296 1.7344.4544.872.8872 1.756.4328.8832.8432 1.7776.4112.8936.8008 1.7976.3888.9032.756 1.816.3664.9128.7112 1.8344.3448.9216.6672 1.8512.3216.9296.6208 1.8672.2992.9368.576 1.8816.276.944.5288 1.8944.2536.9512.4832 1.908.2304.956.4368 1.9184.2064.9616.3896 1.9288.1832.9664.3424 1.9376.1592.9704.2952 1.9448.1352.9744.2472 1.952.112.9776.2 1.9576.0864.9928.148 1.9864.0616.9944.1 1.9896.0376.996.0504 1.992.0136.996.0024 1.992t-.0464 1.9912q-.0352.996-.0944 1.9904-.06.9944-.144 1.9872-.0832.992-.1912 1.9824-.108.9904-.2408 1.9776-.132.9872-.288 1.9712-.156.984-.3368 1.9632-.18.98-.384 1.9552-.204.9752-.4312 1.9448-.228.9696-.4792 1.9336-.252.964-.5264 1.9216-.2752.9568-.5728 1.908-.2984.9504-.6192 1.8928-.3216.9432-.6656 1.8776-.344.9352-.7112 1.8616-.3664.9256-.756 1.8424-.3888.9168-.8008 1.824-.4112.9072-.8448 1.804t-.8888 1.7832q-.456.8856-.9328 1.76-.4768.8744-.9744 1.7376-.4984.8624-1.0168 1.7128-.5192.8504-1.0584 1.6872-.54.8376-1.0992 1.6616-.56.824-1.14 1.6336-.5792.8104-1.1792 1.6056-.5992.7952-1.2176 1.576-.6184.7808-1.256 1.5464c-15.1648 18.088-36.5984 28.1688-59.8528 30.3-22.396 1.3928-46.0632-4.256-63.868-18.3624q-.8248-.6416-1.6336-1.3032-.808-.6616-1.6-1.344-.792-.6816-1.5664-1.3824-.7744-.7016-1.5312-1.4224-.7568-.72-1.4952-1.4592-.7392-.7392-1.4592-1.496-.72-.7576-1.4208-1.532-.7008-.7752-1.3824-1.5672-.6808-.792-1.3424-1.6008-.6616-.8088-1.3024-1.6344-.6416-.8248-1.2616-1.6656-.6208-.8408-1.22-1.6968-.5992-.856-1.1768-1.7272-.5776-.8704-1.1336-1.7552-.556-.8848-1.0896-1.7832-.5336-.8984-1.044-1.8096-.5112-.912-.9992-1.836-.4888-.9232-.9536-1.8592-.4648-.936-.9064-1.8832-.4416-.9472-.8592-1.9048-.4184-.9576-.812-1.9256-.3936-.968-.7632-1.9448-.3696-.9776-.7152-1.964-.3448-.9864-.6656-1.9808-.3208-.9952-.616-1.9968-.296-1.0024-.5664-2.012-.2704-1.0096-.516-2.0248-.2448-1.016-.4648-2.0376-.22-1.0216-.4144-2.048-.1944-1.0272-.3632-2.0584-.1688-1.0312-.312-2.0664-.1424-1.0352-.26-2.0736c-2.359-21.672 4.992-42.376 18.6536-59.0903 15.0032-18.3549 36.2464-28.0534 59.4944-30.49Z"/>
  <path fill="#6793A0" d="M166.3152 50.7287q.5488-.0511 1.0992-.0805c19.6968-1.071 41.7608 7.0914 56.2432 20.359 14.0704 12.8904 23.2048 32.1824 24.0288 51.2416q.0368.8992.052 1.7984.0152.9.008 1.7992-.0072.9-.0368 1.7992-.0288.8992-.08 1.7968-.052.8984-.1248 1.7952-.0736.8968-.1696 1.7912-.0952.8944-.2128 1.7864-.1176.892-.2568 1.7808-.1392.8888-.3 1.7744-.1616.8848-.344 1.7656-.1832.8808-.3872 1.7568-.2048.8768-.4312 1.7472-.2256.8712-.4728 1.736t-.516 1.7232q-.268.8592-.5576 1.7104-.2896.852-.6 1.6968-.3104.844-.6416 1.6808-.3312.836-.6824 1.6648-.352.828-.7232 1.6472-.372.8192-.764 1.6288-.3912.8096-.8032 1.6096-.4112.8-.8424 1.5896-.4312.7896-.8816 1.5688-.4504.7784-.92 1.5456-.4696.768-.9576 1.5232-.488.756-.9952 1.4992-.5064.7432-1.0312 1.4744-.5248.7304-1.0672 1.448-.5424.7176-1.1024 1.4216t-1.1376 1.3936q-.5768.6904-1.1712 1.3664-.5936.6752-1.204 1.336c-14.7688 15.7984-35.0568 24.0112-56.4576 24.78-20.0192 1.2896-41.4744-6.6608-56.4424-19.7448-14.7936-12.932-24.1016-30.74-25.3456-50.4112-1.2424-19.6408 5.8912-38.52 18.9064-53.157 15.0856-16.9661 35.2104-24.3253 57.3224-25.6423Z"/>
  <path fill="#F3F4EF" d="M167.2552 53.2312c19.4024-.3323 38.9592 6.045 53.5096 19.0942 13.648 12.2394 23.128 30.3346 24.1256 48.685q.048.8776.0744 1.7568.0256.8784.0304 1.7576.004.8792-.0128 1.7584-.0176.8792-.056 1.7568-.0392.8784-.1 1.756-.0608.8768-.1424 1.752-.0824.8752-.1864 1.7488-.104.8728-.2288 1.7432-.1256.8696-.272 1.7368-.1472.8664-.3152 1.7296-.168.8632-.3576 1.7216-.1896.8584-.4 1.712-.2104.8536-.4416 1.7016-.232.848-.484 1.6904-.252.8416-.5256 1.6776-.2728.836-.5664 1.664-.2936.8288-.608 1.6504-.3136.8208-.648 1.6344-.3336.8128-.688 1.6176-.3544.8048-.728 1.6-.3744.796-.7672 1.5816-.3936.7864-.8064 1.5624-.4128.7768-.844 1.5424-.432.7656-.8824 1.5208-.4504.7544-.92 1.4984-.4688.7432-.956 1.4752-.4872.732-.992 1.4512-.5056.7192-1.028 1.4264-.5224.7064-1.0624 1.4-.54.6944-1.0976 1.3744-.5568.68-1.1304 1.3464-.5736.6656-1.1632 1.3176c-14.34 15.772-34.2128 23.1504-55.1392 24.2168q-.9248.032-1.8504.0424-.9256.0096-1.8512-.0024-.9256-.0112-1.8504-.0456-.9248-.0336-1.8488-.0888-.924-.056-1.8464-.1328-.9216-.0776-1.8424-.1768-.92-.0992-1.8376-.22-.9176-.1216-1.832-.264-.9144-.1424-1.8256-.3064-.9104-.1648-1.8176-.3504-.9064-.1856-1.8088-.3928-.9016-.2072-1.7992-.4352-.8968-.2288-1.788-.4784t-1.776-.52q-.8856-.2704-1.764-.5616-.8784-.292-1.7496-.604-.8712-.312-1.7352-.6448-.864-.332-1.7192-.6856-.856-.3528-1.7032-.7256-.8472-.3736-1.6848-.7664-.8384-.3928-1.6664-.8056-.8288-.4128-1.6472-.8448-.8184-.4328-1.6264-.884t-1.6048-.9216q-.7976-.4704-1.5832-.96-.7856-.4888-1.56-.9968-.7736-.5072-1.5352-1.0336-.7624-.5256-1.5112-1.0696-.7488-.5432-1.4856-1.1048-.736-.5608-1.4584-1.1392-.7224-.5784-1.4312-1.1744-.7088-.5952-1.4032-1.2072c-14.3728-12.8896-23.048-29.5104-23.984-48.8472q-.0408-.8544-.06-1.7104-.02-.8552-.0184-1.7112.0008-.856.0232-1.7112.0224-.8552.0656-1.7104.0432-.8544.1072-1.7072.064-.8536.1488-1.7056.0848-.8512.1912-1.7.1056-.8496.232-1.696.1264-.8464.2744-1.6888.1472-.8432.3152-1.6824.1672-.8392.356-1.6736.188-.8352.3968-1.6648.2088-.8296.4384-1.6544.2288-.824.4784-1.6432.2488-.8184.5176-1.6304.2696-.8128.5584-1.6184.2888-.8048.5976-1.6032t.6368-1.588q.328-.7904.6752-1.5728.348-.7816.7144-1.5552.3664-.7736.7512-1.5376.3856-.764.7896-1.5184.4032-.7544.8256-1.4984.4224-.7448.8624-1.4784.4408-.7336.8984-1.456.4584-.7224.9344-1.4344.4752-.7112.968-1.4104.4936-.6992 1.0032-1.3864.5104-.6872 1.0368-1.3616.5264-.6744 1.0696-1.3352.5432-.6616 1.1024-1.3092.5592-.6478 1.1336-1.2816c14.8344-16.3042 34.5424-23.9866 56.2128-25.0756Z"/>
  <path fill="#3C3C68" d="M184.0224 83.0808c.092-1.1096.0952-2.5096.428-3.5686.436-1.386 1.0552-1.802 2.268-2.479 1.1584.028 1.9424.3237 2.9336.9431 1.6952 1.0597 1.1096 3.0453 1.516 4.7725 2.908 1.4496 10.2728-.3208 14.0512.5992.664.1616 1.2352.1984 1.5376.8776 1.0216 2.2912 1.0328 69.6256.7104 76.8-.0816 1.8104-.2792 3.5128-1.0304 5.18-4.072 1.8904-26.9976.8256-33.0616.7976-7.7496-.0256-36.9288 1.2184-42.4936-.636-.7192-1.7512-.7784-3.8088-.832-5.684-.4912-17.208.0128-34.5712-.08-51.7984-.0352-6.516-1.168-18.2928-.0768-24.1344 2.3728-2.0656 7.4536-1.2936 10.4824-1.2344.024-1.748-.2088-3.6104.8016-5.1092 1.268-.742 2.36-.7411 3.8016-.4766 3.7048.68 1.3728 3.2402 2.88 5.3458 4.1176.9272 8.9208.3816 13.1368.3072.288-2.104.508-4.0097 1.472-5.9402 1.5672-.0967 3.0088-.1114 4.568.0912 1.496 1.2028 1.3456 3.189 1.8248 5.029 4.7168.8776 10.336.3408 15.1624.3176Z"/>
  <path fill="#F3F4EF" d="m191.0136 87.0592 12.2496.0576c.4504 9.4344.2136 18.952.224 28.4008l.0712 47.3872c-13.8776.1192-27.7704-.0448-41.6488-.0704l-27.8576.1248q.2448-37.7696-.1664-75.5384l6.6144-.0056c-.0416 1.8672-.4664 5 .464 6.6464.7176 1.2704 1.524 1.8976 2.8592 2.3424.7368-.2368 1.184-.556 1.6888-1.1312 1.968-2.2456 1.4896-5.0792 1.404-7.8616l14.612-.0208.032 7.848 6.476-.0784.0016-8.088 16.1664.2256c.092 2.632.0624 5.2808.088 7.9152 2.2168.0512 4.4656-.0672 6.6848-.1136l.0368-8.04Z"/>
  <path fill="#3C3C68" d="M138.0456 101.5384c7.4576-.0288 56.5848-1.3032 59.5792.3656.3216 1.3736.0328 1.9296-.3536 3.264-8.78.0184-54.0968 1.2272-59.1408-.2192-.6944-1.2808-.316-1.9992-.0848-3.4104Zm51.3384 12.7888c.1256.0168.2544.0192.3776.0512 2.0136.5304 3.3416 2.7624 4.4672 4.364-5.2368 7.1272-11.5088 13.7472-17.2816 20.4656-4.1792 4.8632-8.0936 10.1128-12.5856 14.6792-4.6048-3.4912-8.584-7.844-12.6456-11.9352-1.5408-1.496-4.8624-4.1128-5.2232-6.3024-.12-.7272.8-1.7256 1.284-2.22.7264-.744 1.7928-1.296 2.8496-1.24 3.928.2072 9.8856 8.4104 12.5936 11.2936 7.816-10.3464 16.904-20.1056 26.164-29.156Z"/>
  <path fill="#6793A0" d="M773.924 155.1064c-5.8584-17.8904-6.9264-35.2464-1.4168-53.4368q.3192-1.0256.664-2.0424.344-1.0176.7136-2.0256.3696-1.0088.7632-2.008.3936-.9984.812-1.988.4184-.9888.8608-1.9672t.9088-1.9464q.4664-.9672.9568-1.9224.4896-.956 1.0032-1.8992.5128-.9432 1.0496-1.8736.536-.9304 1.0952-1.848.5584-.9168 1.14-1.8192.5808-.9034 1.184-1.7918.6032-.8884 1.228-1.7618.6256-.8734 1.2712-1.7311.6464-.8578 1.3128-1.6995.6672-.8416 1.3544-1.6666.688-.825 1.3952-1.6329.7072-.8078 1.4344-1.5981.7272-.7903 1.4728-1.5625.7464-.7722 1.5112-1.5259.7656-.7536 1.5488-1.4882.7832-.7346 1.584-1.4498.8008-.7152 1.6192-1.4105.8176-.6953 1.6496-1.3703.84-.675 1.688-1.3293.856-.6543 1.72-1.2875.872-.6332 1.752-1.245.88-.6116 1.776-1.2015t1.808-1.1575q.912-.5676 1.84-1.1128.928-.545 1.864-1.0673.936-.5223 1.888-1.0213c23-12.161 50.384-13.8745 75.096-6.2314q2.464.7764 4.888 1.6898 2.416.9134 4.784 1.9611t4.664 2.2263q2.304 1.1785 4.536 2.4844 2.232 1.3057 4.392 2.7347 2.152 1.4289 4.224 2.9765 2.08 1.5475 4.056 3.2088 1.984 1.6613 3.872 3.4312c2.112 1.9437 4.776 4.2542 6.112 6.768 2.456 2.1164 6.024 6.3878 7.056 9.4794 10.368 11.9784 14.912 34.932 13.736 50.3376-1.704 22.3464-13.272 43.8592-30.256 58.316-20.152 17.1568-45.944 24.212-72.04 22.0672-16.936-1.3912-32.248-7.8056-46.176-17.2744-6.436-4.8216-11.9712-10.1024-17.1592-16.2328-5.5552-7.2992-9.6168-14.6688-13.2368-23.0544Z"/>
  <path fill="#F3F4EF" d="M854.808 42.2582q1.136-.0638 2.264-.1002 1.136-.0363 2.272-.0454 1.128-.009 2.264.0096 1.136.0184 2.264.0643 1.136.0458 2.264.119 1.136.0732 2.264.1738 1.128.1005 2.256.2284 1.128.1278 2.248.2828 1.128.155 2.24.3372 1.12.1821 2.24.3913 1.112.209 2.224.445 1.104.236 2.208.4989 1.104.2627 2.2.552 1.096.2894 2.184.6052 1.088.3157 2.168.6577 1.088.342 2.16.71 1.072.3681 2.136.762 1.056.3938 2.112.8132 1.056.4195 2.096.8643 1.048.4448 2.08.9146 1.032.47 2.048.9646 1.024.4947 2.032 1.0139 1.008.5192 2 1.0626.992.5435 1.976 1.1108t1.952 1.1582q.968.5909 1.92 1.205.952.6141 1.888 1.251.944.637 1.864 1.2966.92.6594 1.824 1.341.912.6816 1.8 1.3849t1.76 1.4278q.872.7247 1.728 1.4701c16.672 14.7604 27.088 35.1964 28.288 57.5492 1.08 20.1152-7.36 41.1416-20.744 55.988q-.76.848-1.544 1.6768-.784.8288-1.584 1.6384-.8.8096-1.624 1.5984-.824.7896-1.664 1.5584t-1.704 1.516q-.856.748-1.736 1.4744-.88.7264-1.776 1.4304-.896.704-1.808 1.3864-.912.6816-1.848 1.3408-.928.6592-1.872 1.2952-.944.636-1.904 1.2488-.96.612-1.936 1.2008-.976.5888-1.968 1.1528-.992.564-1.992 1.104-1.008.54-2.024 1.0544t-2.048 1.004q-1.024.4896-2.072.9528-1.04.464-2.088.9024-1.056.4376-2.12.8496-1.056.412-2.136.7968-1.072.3856-2.152.7448-1.08.3584-2.168.6904-1.096.332-2.192.6376-1.096.3048-2.2.5824t-2.216.528q-1.112.2504-2.232.4736-1.12.2224-2.24.4176-1.12.1952-2.248.3632-1.128.1672-2.264.3064-1.128.1392-2.264.2512-1.136.1112-2.272.1952-1.136.0832-2.272.1384c-.112.0184-.232.0432-.352.0544-22.072 2.1096-46.36-6.9344-63.208-20.8544q-.784-.6376-1.56-1.2944-.7664-.6576-1.52-1.3336-.7536-.676-1.4896-1.3712-.736-.6944-1.4552-1.408-.7184-.7128-1.4184-1.444-.7008-.7312-1.3824-1.4792-.6824-.748-1.3448-1.5136-.6632-.7656-1.3064-1.5472-.644-.7816-1.2672-1.5792-.624-.7968-1.2272-1.6104-.6032-.8128-1.1864-1.6408-.5824-.8272-1.144-1.6696-.5624-.8424-1.1032-1.6984-.54-.856-1.0592-1.7256-.5192-.8696-1.016-1.7512-.4968-.8824-.9712-1.7768-.4744-.8944-.9264-1.8-.4528-.9056-.8816-1.8232-.4288-.9168-.8352-1.844-.4056-.928-.7888-1.8656-.3824-.9368-.7416-1.884-.3584-.9464-.6936-1.9016-.3352-.956-.6464-1.9192-.3104-.964-.5976-1.9344-.2864-.9712-.5488-1.9496-.2624-.9776-.5-1.9616-.2376-.9848-.4504-1.9744-.2128-.9896-.4008-1.9848-.188-.9944-.3504-1.9944-.1632-.9992-.3008-2.0024-.1384-1.0024-.2504-2.0088-.1128-1.0064-.2-2.0152c-1.884-21.3632 6.252-43.6816 19.9584-60.0016 16.1096-19.1774 38.4136-28.2827 62.8536-30.5098Z"/>
  <path fill="#6793A0" d="M811.088 66.3234c.208.8977.32 1.391.968 2.0568-3.368 3.2981-7.224 6.199-10.352 9.737-11.7328 13.298-19.072 31.0236-19.2688 48.8636l-.0024.5712-.836-1.132-.5472.0824c-.3288 1.6984.0064 3.2872-.224 4.9224-1.4696-3.5-.1976-13.248.3808-16.9952 2.924-18.9272 14.492-36.766 29.8816-48.1062Zm98.936.214c11.728 5.5101 23.368 24.453 27.576 36.1834 5.632 15.6696 5.2 35.2424-2.12 50.3552-.512 1.0592-.992 1.8856-2.024 2.5256.44-.9344 1.008-1.776.776-2.84l-1.248-.6592c.344-.492.48-.6528.752-1.1456 6.016-10.9008 6.032-30.44 3.032-42.092-3.944-15.3344-14.712-32.7228-28.584-40.9236.36-.3034.152-.1723.736-.3954.656-.2515.696-.46 1.104-1.0084Z"/>
  <defs>
    <linearGradient id="a" x1="1072.1246" x2="1077.968" y1="62.6204" y2="94.5546" gradientUnits="userSpaceOnUse">
      <stop offset="0" stop-color="#5F898F"/>
      <stop offset="1" stop-color="#70A7AA"/>
    </linearGradient>
  </defs>
  <path fill="url(#a)" d="M1013.86 82.9042c21.86-16.6923 50.12-22.2637 77.11-18.6029 10.61 1.4397 39.62 9.6561 46.07 18.1431.18.2329.36.4668.49.7274-.51.6855-.56.9461-1.38 1.2605-.73.2788-.47.1149-.92.4942-11.13-8.5626-26.22-13.9826-39.87-16.6123-29.07-5.5989-55.93.7274-80.29 17.1611-.81-.8324-.95-1.4489-1.21-2.5711Z" transform="scale(.8)"/>
  <path fill="#F3F4EF" d="M812.056 68.3802c19.488-13.147 40.976-18.208 64.232-13.7288 10.92 2.1037 22.992 6.4397 31.896 13.2898 13.872 8.2008 24.64 25.5892 28.584 40.9236 3 11.652 2.984 31.1912-3.032 42.092-.272.4928-.408.6536-.752 1.1456l1.248.6592c.232 1.064-.336 1.9056-.776 2.84.496 2.928-3.496 8.4848-5.168 10.8568-3.28 4.6504-8.936 11.6768-14.176 14.2728-3.288 6.2744-21.656 14.2816-28.192 16.3152-2.96.924-6.408 2.0656-9.544 2.0712-2.328 1.492-8.48 1.6056-11.272 1.7488-22.016 1.1312-43.712-5.032-60.256-20.0528-14.08-12.7904-23.0296-30.2952-24.0224-49.3888.2304-1.6352-.1048-3.224.224-4.9224l.5472-.0824.836 1.132.0024-.5712c.1968-17.84 7.536-35.5656 19.2688-48.8636 3.128-3.538 6.984-6.4389 10.352-9.737Z"/>
  <path fill="#6C9FA8" d="m932.984 152.1024 1.248.6592c.232 1.064-.336 1.9056-.776 2.84.496 2.928-3.496 8.4848-5.168 10.8568-3.28 4.6504-8.936 11.6768-14.176 14.2728l1.072-1.9616-1.392-.7656q1.736-1.0448 3.248-2.3856c5.184-4.5272 15.376-16.4368 15.944-23.516Z"/>
  <path fill="#6793A0" d="M874.248 197.4664c12.672-2.7496 30.744-9.4464 39.544-19.4624l1.392.7656-1.072 1.9616c-3.288 6.2744-21.656 14.2816-28.192 16.3152-2.96.924-6.408 2.0656-9.544 2.0712-.76-.6552-2.576-.304-3.616-.2608l.2-.2744-1.016.3448c1.224-.6096 3.192-.784 4.56-1.0904l-2.256-.3704Z"/>
  <path fill="#6C9FA8" d="M780.8256 131.4248c.2304-1.6352-.1048-3.224.224-4.9224l.5472-.0824.836 1.132c.7432 19.1648 8.5064 36.8976 22.6152 50.052q.728.6648 1.464 1.3112.744.6464 1.504 1.2752.752.628 1.528 1.2376.768.6104 1.56 1.2008.784.5912 1.584 1.1624.8.572 1.616 1.1232.816.552 1.64 1.084.832.532 1.672 1.044.84.5112 1.696 1.0024.848.4912 1.712.9608.864.4704 1.744.9192.872.4496 1.76.8768.888.428 1.784.8336t1.8.7896q.904.384 1.816.7464.92.3616 1.84.7008.928.34 1.856.6568t1.872.6112q.936.2936 1.88.5648.952.2712 1.904.52.952.248 1.904.4728.96.2248 1.92.4264.968.2016 1.936.38t1.936.3328q.976.1544 1.944.2848.976.1312 1.96.2384.976.1072 1.952.1904.984.0832 1.968.1424.976.0592 1.96.0952.984.0352 1.968.0472.984.0112 1.968-.0008.984-.0128 1.968-.0488c3.864-.1528 7.792-.5256 11.584-1.3192l2.256.3704c-1.368.3064-3.336.4808-4.56 1.0904l1.016-.3448-.2.2744c1.04-.0432 2.856-.3944 3.616.2608-2.328 1.492-8.48 1.6056-11.272 1.7488-22.016 1.1312-43.712-5.032-60.256-20.0528-14.08-12.7904-23.0296-30.2952-24.0224-49.3888Z"/>
  <path fill="#3C3C68" d="M858.072 65.2629c2.136-.3075 5.016-.1993 6.992.7732 4.16 2.0428 1.48 7.171 3.28 10.1835 1.128 1.8871 4.368 4.0308 6.08 5.4844 4.024 3.416 21.736 17.1816 22.696 20.3688 4.336-.0744 8.664-.1496 13-.04.352.4512.384.4448.624 1.0648 1 2.5576.928 52.5296.624 58.8096-.088 1.8784-.296 3.7064-.984 5.4712-1.984 1.5656-39.256.7848-45.008.7816-6.552-.04-49.688.624-51.872-.652l.24-.5384-.4.1872c-.976-5.5928-.464-11.828-.44-17.5192l.128-30.1792c.016-4.088-.8-8.4816-.512-12.4952.088-1.3264.448-2.2072 1.192-3.2984 3.24-2.3024 7.368-1.6656 11.16-1.6112.624-.3104 1.096-.6928 1.616-1.1464 3.536-3.0536 25.664-23.1804 27.064-25.4196.888-1.4126.088-3.6162.304-5.2094.312-2.2856 2.504-3.7765 4.216-5.0153Z"/>
  <path fill="#567092" d="M858.448 68.2612c1.12-.2407 2.256-.4974 3.392-.2031 1.448.3725 2.624 1.5394 3.248 2.8682.536 1.1595.44 2.4873-.056 3.6431-.624 1.443-1.52 1.9798-2.912 2.5645-.984.3135-2.624-.2853-3.608-.5933-.768-.7864-1.264-1.351-1.528-2.4408-.624-2.5224.176-3.754 1.464-5.8386Z"/>
  <path fill="#F3F4EF" d="M888.424 105.444c5.936.0464 11.888-.0048 17.816.1568.68 1.1056.992 2.1672 1.088 3.448.88 11.632.232 23.7864.272 35.484.024 5.6.888 12.624-.088 18.0624-.112.6464-.384 1.2992-.672 1.884l-7.04.036c1.24-6.0288.104-29.9784.032-37.8016-.024-3.3456-.408-7.264.288-10.524 1.096-.3776 2.496-.5472 3.504-1.0688 1.032-.5368 1.664-1.612 1.856-2.7368.216-1.304.008-2.3224-.704-3.4072-1.592-1.112-3.752-1.1008-5.616-.7624-1.296.2352-2.272.9384-2.672 2.216-1 3.2056-.328 7.7848-.296 11.1704.048 5.7024.976 39.0072-.024 41.6368-.184.4632-.56.8192-.84 1.2296q-3.336-.152-6.68-.2456c.424-.8384.712-1.4824.776-2.4352.448-5.996.48-52.7976-.456-55.3112-.168-.4624-.272-.5808-.544-1.0312Zm-33.368-26.6806c1.712-.2546 3.272.8696 4.912 1.303 2.176.5768 3.304-.1308 5.168-1.2295 4.032 2.1183 25.76 19.9351 27.192 23.1479l-23.952.0936q-19.48.1256-38.952-.0168c2.4-1.3288 23.072-20.5296 25.632-23.2982Zm-37.328 27.0126c22.352-.4168 44.776-.096 67.136-.2616 1.592 3.1456 1.288 48.9496 1 55.6344-.072 1.6304.072 2.1136-1.128 3.2192q-34.096.232-68.192.1112l.08-36.5816c.016-7.1344-.28-14.4368.144-21.5464l.96-.5752Z"/>
  <path fill="#3C3C68" d="M826.856 150.7744c5.336-.5128 11.56-.5416 16.904-.2128 1.576.0968 3.336.1528 4.448 1.4048.08 1.188.064 1.2248-.584 2.228l-2.128.4568c-4.288.0744-15.664 1.7008-18.928-.9632-.44-1.3616-.176-1.6048.288-2.9136Zm-.616-30.0368c.552-.1416 1.04-.264 1.616-.3104 3.864-.3152 39.776-.4232 41.048.2152.352.1776.584.5304.88.7952-.104 1.176-.248 1.1768-1.088 2.0336l-.184.2608c-2.792 1.2208-35.904.388-41.232.1416-1.112-.9-.88-1.7504-1.04-3.136Zm.128 9.5224c5.496-.8584 37.664-1.1184 42.368.0784 1.056.2672 1.184.3992 1.736 1.264-.408 1.3216-.72 1.2936-1.856 1.9944-2.16.7536-38.072.3768-41.96-.1848-.84-1.2144-.488-1.7256-.288-3.152Zm.16 10.0136q1.112-.128 2.224-.1648c7.68-.2432 15.432-.0856 23.128-.1032 4.792-.0112 10.232-.492 14.936.2888 1.496.248 2.024.4184 3.104 1.448-.128 1.3264-.184 1.2384-1.192 2.1312-.128.0312-.256.0696-.384.0936-3.536.6448-39.264.5464-41.128-.0328-.392-.1216-.68-.4624-1.016-.6936-.264-1.3344-.08-1.7056.328-2.9672Z"/>
  <path fill="#6793A0" d="M244.4288 362.5984c-10.9632 15.1992-24.812 25.2976-42.4192 31.6432q-1.1488.4128-2.3072.7976-1.1576.3848-2.3256.7408-1.1672.356-2.3432.6832-1.1752.3272-2.3592.6248-1.1832.2984-2.3736.5672-1.1904.2696-2.3872.5088-1.1968.24-2.3992.4504-1.2024.2096-2.4088.3904-1.2072.1808-2.4184.3312-1.2112.1512-2.4256.272-1.2144.1208-2.4312.212-1.2176.0912-2.436.1528-1.2192.0608-2.4392.092t-2.4408.0328q-1.22.0008-2.44-.0272-1.2208-.0288-2.4392-.088-1.2192-.0584-2.4368-.1472-1.2168-.0888-2.432-.2072-1.2144-.1184-2.4256-.2672-1.212-.148-2.4192-.3264-1.2072-.1784-2.4096-.3856-1.2032-.208-2.4-.4456-1.1976-.2368-2.388-.504-1.1912-.2664-2.3752-.5624-1.184-.2952-2.3608-.62-1.176-.3248-2.3448-.6784-1.168-.3536-2.3272-.736-1.1592-.3824-2.308-.7928-1.1496-.4104-2.2888-.8496-1.1384-.4384-2.2664-.9056-1.128-.4664-2.244-.96-1.116-.4944-2.2192-1.016c-22.1192-10.4488-38.6104-28.348-46.7694-51.536-6.9376-19.716-4.4222-42.912 4.5982-61.572 10.2272-21.156 30.2008-37.1632 52.1184-44.84 26.5288-9.292 53.1064-6.2568 78.136 5.7832q3.2328 1.988 6.4424 4.0144c8.1768 5.8784 15.252 12.4528 21.8408 20.0656 13.6712 19.8824 20.5096 41.5152 16.0456 65.7832-2.2712 12.348-7.16 23.8072-13.9728 34.3216Z"/>
  <path fill="#F3F4EF" d="M162.7896 230.2624c.3592-.0392.7176-.0832 1.0784-.108 22.3696-1.52 46.9536 6.5944 63.8024 21.3184 16.2576 14.2064 27.8256 35.332 29.0992 57.0288 1.2936 22.0512-7.0384 44.7128-21.716 61.1896-15.5056 17.4072-40.0728 26.3808-62.9648 27.608-.1256.012-.2512.0264-.3768.0344-22.32 1.5192-47.4016-7.6736-64.3912-21.9936-15.8176-13.3312-27.212-34.3288-28.8828-55.1088-1.755-21.8288 6.1964-43.0328 20.366-59.4408 16.1912-18.7488 39.5712-28.8232 63.9856-30.528Z"/>
  <path fill="#6793A0" d="M160.2888 238.2552c21.2512-1.7256 42.1848 3.8536 59.2488 16.7888 15.8736 12.0336 25.7064 29.5456 28.3192 49.252q.1248.9032.2272 1.8088.1032.9064.1832 1.8144.08.9088.1376 1.8184t.092 1.8208q.0352.9112.048 1.8232.012.9112.0016 1.8232-.0096.912-.0424 1.8232-.0328.9112-.0888 1.8208-.0552.9104-.1328 1.8184-.0784.9088-.1784 1.8152-.1008.9056-.2232 1.8096-.1232.9032-.268 1.8032-.1448.9-.3128 1.7968-.1672.896-.3568 1.788-.1896.892-.4008 1.7784-.212.8872-.4456 1.7688-.2336.8808-.4888 1.756t-.532 1.744q-.2768.8688-.5752 1.7304-.2984.8616-.6184 1.7152-.3192.8544-.66 1.7-.3408.8456-.7024 1.6824-.3608.8368-.7432 1.6648-.3824.828-.7848 1.6464-.4024.8176-.8256 1.6256-.4224.808-.8648 1.6048t-.9048 1.5832q-.4624.7856-.944 1.56-.4808.7744-.9816 1.536-.5008.7624-1.02 1.5112-.5192.7496-1.0568 1.4856-.5376.7368-1.0936 1.4592c-14.2352 18.4376-34.6976 27.48-57.2504 30.3176-23.1736.8224-44.7264-4.7608-62.928-19.6712-14.3616-11.7648-24.3352-30.2728-26.1064-48.7936q-.08-.9008-.1376-1.8032-.0576-.9032-.0936-1.8064-.0352-.904-.048-1.8088-.0136-.904-.004-1.8088.0088-.904.04-1.808.032-.904.0856-1.8072.0536-.9024.1296-1.804.076-.9016.1736-1.8008.0984-.8984.2184-1.7952.1208-.8968.2632-1.7896.1416-.8936.3064-1.7824.164-.8896.3504-1.7752.1864-.8848.3944-1.7648.208-.8808.4376-1.7552.2296-.8752.48-1.744.2512-.8688.524-1.7312.272-.8624.5656-1.7176.2936-.856.6088-1.704.3144-.848.6496-1.688.3352-.84.6912-1.6712.356-.8312.7328-1.6536.376-.8224.7728-1.6352.3968-.8128.8136-1.616.416-.8024.852-1.5952.436-.792.892-1.5736.4552-.7816.9304-1.5512.4744-.7696.968-1.528.4936-.7576 1.0056-1.5032t1.0424-1.4776q.5304-.7328 1.0784-1.452.548-.72 1.1136-1.4256.5656-.7056 1.1488-1.3968c13.712-16.5856 34.9216-27.0856 56.2872-29.056Z"/>
  <path fill="#F3F4EF" d="M159.5688 241.2464c.1328-.0184.2656-.0432.3992-.056 20.0376-1.892 42.0216 3.6432 57.9984 16.152 15.4192 12.0728 24.792 28.5296 27.1432 47.9784q.1056.8808.1888 1.764.084.8832.1456 1.768.0624.8848.1024 1.7712.0392.8856.0576 1.7728.0176.8864.0136 1.7736-.004.8872-.0296 1.7736-.0256.8872-.0736 1.7728-.048.8856-.1176 1.7704-.0696.884-.1616 1.7664-.0912.8824-.2048 1.7616-.1128.88-.248 1.7568-.1352.8768-.292 1.7496-.1568.8736-.3352 1.7424-.1784.8688-.3776 1.7328-.2.8648-.4208 1.7232-.2216.8592-.4632 1.7128-.2424.8536-.5056 1.7-.2632.8472-.548 1.688-.284.84-.5888 1.6728-.3048.8328-.6304 1.6584-.3248.8248-.6704 1.6424-.3456.8168-.712 1.6248-.3656.808-.7512 1.6064-.3856.7992-.7904 1.588-.4056.7888-.8304 1.568-.4248.7784-.868 1.5464-.444.768-.9072 1.5248-.4624.7568-.9432 1.5024-.4816.7448-.9808 1.4776-.5.7328-1.0176 1.4536-.5176.72-1.052 1.4272-.5352.708-1.088 1.4016c-13.1432 16.4192-32.7216 25.8128-53.3896 28.0568q-1.0056.0888-2.0136.1544-1.008.0656-2.0168.1064-1.0088.0416-2.0184.0592-1.0104.0168-2.02.0104-1.0096-.0064-2.0192-.0376-1.0096-.0304-2.0176-.0848-1.008-.0552-2.0152-.1336-1.0064-.0784-2.0112-.1808-1.0048-.1032-2.0064-.2296-1.0024-.1256-2.0008-.276-.9984-.1504-1.9936-.324-.9944-.1736-1.9848-.3712-.9904-.1976-1.976-.4184t-1.9656-.4648q-.98-.2448-1.9536-.512t-1.9408-.5584q-.9672-.2904-1.9272-.604-.96-.3128-1.912-.6496-.9528-.336-1.8968-.6944-.944-.3592-1.8792-.74-.9352-.3808-1.8608-.784-.9264-.4032-1.8424-.828-.916-.4256-1.8216-.872-.9056-.4464-1.8008-.9152-.8944-.468-1.7784-.9568-.8832-.4896-1.7552-.9992-.8712-.5104-1.7304-1.0408-.8592-.5312-1.7056-1.0816-.8472-.5512-1.68-1.1224-.8328-.5704-1.652-1.1608-.8192-.5904-1.6248-1.2008-.8048-.6096-1.5952-1.2384c-14.148-11.0992-24.256-28.184-26.3368-46.1544-2.0968-18.104 3.7584-37.4264 15.0696-51.6224 13.3544-16.76 33.476-26.9736 54.632-29.4Z"/>
  <path fill="#3C3C68" d="M156.5464 266.636c3.964-.1072 15.9632-1.9064 18.7008.6704 2.5624 2.412 1.8296 7.0312 1.7552 10.2536 4.152 1.1296 7.4456 2.5576 11.0272 4.9584 2.672-2.1816 5.3712-4.0448 8.3864-5.7208 4.8872 3.1248 9.1136 7.9128 12.7432 12.3816-.092.1088-.1856.2168-.276.3264-2.1 2.5368-4.5216 4.5128-7.0488 6.596l3.1392 6.8912c3.6736.8472 7.3064 1.7448 10.9312 2.7872-.2336 4.0776-.2408 8.156-.2704 12.2392-3.4952 1.1552-6.8992 1.7776-10.5288 2.32-.7016 2.8632-1.6496 5.6688-2.5392 8.4776 2.7312 2.2688 5.1328 4.6984 7.4392 7.3936-3.8528 4.2856-8.364 8.0136-12.7216 11.7648-2.848-1.5168-5.5296-3.3768-8.2328-5.1368-3.8704 2.2264-7.948 3.9952-12.0152 5.824l-.2672 7.6496c-.168.732-.396 1.1176-.776 1.7528-4.7976 1.988-14.508.7144-19.7216.2416l.0136-10.1264c-3.824-1.3872-7.4312-2.9-11.0856-4.7032q-3.9552 2.52-8.0408 4.8216c-3.6952-2.5192-12.0344-8.6504-12.9424-13.0168 1.168-2.492 4.2072-4.4856 6.3056-6.2432-.688-3.1152-1.2696-6.2608-1.8952-9.3904-3.4424-.8472-6.7624-1.8664-10.112-3.0256-.0088-3.8144.188-7.5832.4328-11.3872 3.18-.2152 6.1592-.6616 9.2688-1.3568l2.1232-7.5824q-3.0776-3.5496-6.0936-7.1512c3.8288-4.7816 8.2008-8.4952 12.9376-12.3168 2.604 1.5688 5.0472 3.6296 7.492 5.4456 3.848-1.8936 7.7112-3.5216 11.868-4.6q-.1384-5.5192.0032-11.0376Z"/>
  <path fill="#F3F4EF" d="M159.8576 269.58c4.3896-.1008 8.7944-.0072 13.1856.012.2816 3.4296.1944 6.9224.228 10.364 5.5944 1.5808 10.516 3.8256 15.5472 6.7064 2.548-1.8168 5.016-3.7688 7.5128-5.6568 2.988 2.428 5.5856 5.1672 8.2352 7.948-2.5024 2.0232-4.9432 3.9656-7.004 6.46 2.096 3.5352 3.2104 6.6648 4.1712 10.6752q5.3496.6672 10.664 1.5768l-.1168 8.7888c-3.4416.0664-6.8704.4312-10.2968.7416-.716 4.3912-2.2152 8.4288-3.816 12.552 2.4896 2.1808 4.888 4.3504 7.1216 6.796-2.7304 2.2064-5.3168 4.632-7.9472 6.96-2.972-1.4592-5.8688-3.1168-8.784-4.6872-4.6528 2.7912-9.6736 4.6816-14.6696 6.7584-.344 2.9592-.2976 6.008-.3736 8.988l-.7056.7328c-4.2208.5448-8.664.2528-12.9176.2272l-.3264-10.3216c-5.2248-1.3416-9.7192-3.5064-14.4008-6.1128-2.7024 1.5624-5.316 3.3064-7.9512 4.9824-3.3944-2.412-6.1872-5.424-8.8344-8.6136 2.124-2.14 4.6576-3.9344 7.0344-5.7864-1.7144-4.2144-3.5192-8.3168-4.3808-12.8064-3.0672-.7016-5.9864-1.7112-8.952-2.7536l.0032-5.6768 9.1352-1.9632c.772-3.7408 2.072-7.1928 3.52-10.7184-1.7008-2.4208-3.8352-4.52-5.8688-6.6608 2.4264-3.1456 5.3272-5.6352 8.32-8.2096l7.1752 5.5768c5.028-2.9584 9.7808-4.8592 15.344-6.4792.1736-3.452.1104-6.9424.148-10.4Z"/>
  <path fill="#3C3C68" d="M165.2168 293.188c5.364-.2024 10.6432.6776 15.1672 3.7376q.3952.2672.776.5536.3808.2872.7472.592.3664.3056.7176.628.3512.3232.6856.6632.3336.34.6512.6968.3168.356.616.7272.2992.372.5792.7576.28.3864.5408.7856.2608.3992.5008.8112.2408.412.4608.8352.2192.4232.4176.8568.1992.4336.3752.8768.1768.4432.3312.8944.1552.4512.2864.9096.132.4584.2416.9224.1088.464.1944.9336c.9928 5.3704-.4056 10.992-3.4872 15.4632-3.7752 5.4792-8.668 7.6056-15.0328 8.7464-5.9464.108-11.012-.552-16.0408-3.984q-.4064-.2744-.7984-.5688t-.7688-.608q-.3768-.3136-.7376-.6456-.3608-.332-.704-.6824-.344-.3496-.6696-.716-.3256-.3664-.6328-.7488-.3072-.3824-.5944-.7792-.288-.3976-.5552-.808-.2672-.4112-.5136-.8352-.2464-.424-.4712-.86-.2248-.4352-.428-.8816-.2024-.4464-.3824-.9024-.1808-.456-.3376-.9208-.1576-.4648-.2912-.936-.1336-.472-.244-.9496-.1096-.4784-.196-.9608c-.956-5.0968.0576-10.3576 3.084-14.5968 3.9456-5.5264 10.0296-7.9632 16.5128-9.0072Z"/>
  <path fill="#F3F4EF" d="M162.7592 296.6872c4.6512-.4312 8.8288-.4216 13.1248 1.6424q.3848.1808.76.3816.3752.2.74.4192.364.2192.7176.4568.3528.2368.6928.492.3408.2552.668.5272.3272.2712.64.56.3128.288.6104.5912.2984.304.58.6224.2824.3184.548.6504.2656.332.5136.6776.2488.3456.4792.7032.2304.3568.4424.7256.2128.3688.4056.748.1928.3792.3672.7672.1736.3888.3272.7848.1536.3968.2872.8008.128.384.2368.7744.108.3904.1968.7856.0888.3952.1576.7944.0688.3992.1176.8008.0488.4024.0768.8064.028.404.036.8088.008.4056-.004.8104t-.0448.808q-.0328.404-.0856.8056-.0536.4016-.1264.8-.0728.3984-.1664.7928-.0928.3936-.2056.7832-.1128.3888-.2448.772-.132.3824-.2832.7584-.1512.376-.3208.7432-.1704.368-.3584.7264c-2.6368 4.9296-7.0832 7.4432-12.212 9.0624-4.4728.4368-8.6408.3912-12.7896-1.5112-4.2528-1.9504-7.6624-5.5088-9.1688-9.9752-1.3784-4.0896-1.104-8.744.8664-12.5952 2.6632-5.2072 7.1344-7.416 12.4184-9.1016Z"/>
  <path fill="#3C3C68" d="M596.0544 155.4024c2.1-3.3824 4.3096-6.3648 7.4624-8.8504 5.592-4.4096 13.128-6.252 20.1576-5.3424 8.492 1.0984 14.2312 5.7744 19.2984 12.3464 3.9208 8.1392 4.6256 14.1456 2.012 22.8472 4.2712 14.4112 8.04 28.892 11.9264 43.4056 1.8936 7.0688 4.1856 14.1424 5.8176 21.2672l2.752 11.3376c6.5856.9224 11.84 4.3976 15.8048 9.6904.1256.1672.2472.3384.3704.5072 2.7904 6.5896 4.4776 12.7056 1.6376 19.6224-2.2064 5.3752-6.3064 8.7528-10.8496 12.1288 3.7208 2.16 20.464 11.0656 21.3504 14.096 1.3904 4.7568 2.288 25.9176 1.7872 31.0816-.9744 1.276-1.684 1.4328-3.2456 1.6672-1.3536.2032-2.2464.2872-3.5072-.2608-.3048-.4048-.6976-.756-.9144-1.2144-.4704-.9936-2.5464-22.5624-3.5272-26.9664-9.0904 1.6208-17.8952 4.272-27.0232 5.8128 1.4784 4.956 8.4416 20.6752 8.0024 24.532-2.2312.8296-4.7576.7344-7.1168.852-4.1-7.5512-7.9728-17.4552-13.876-23.7184 2.9552-8.252 6.9168-16.0392 11.3584-23.5872-6.94-3.0976-12.6304-6.56-15.5296-13.9392-1.6104-4.0992-1.916-8.188-1.8248-12.548.684-2.4224 1.6304-4.6864 2.6072-7.0008-3.1632-5.0064-5.4816-10.492-8.1376-15.7776-8.984-17.7152-16.9064-36.3448-26.7744-53.5584-28.3216 15.3384-54.856 33.8752-83.3056 49.0184 1.92 3.6144 3.6344 7.4184 2.32 11.6024-.5496 1.7472-1.532 3.244-3.0072 4.3224-3.816 2.788-8.2424 4.8152-12.3752 7.0848q-7.6016 4.2496-15.0696 8.7312l-56.0336 33.8088c-9.2088 5.5648-18.9168 10.708-27.8368 16.7112-1.0088 2.432-2.1 4.8632-2.96 7.3512 4.2992 10.532 7.904 21.3272 11.8152 32.0064l7.5784 20.7144 42.36 117.1256c3.6824 12.9208 8.7016 25.58 13.228 38.2256.064.1256.1264.252.192.376 3.6432 6.9376 8.7528 12.3272 11.1968 20.0592 2.796 8.848 3.1376 17.6784 4.444 26.7768 1.316 9.164 3.2784 18.3616 4.9704 27.4696 4.2032 22.6216 8.9104 45.1784 13.4776 67.7296 1.6528 8.1576 3.728 16.3152 5.1392 24.5072 1.564 7.5816 3.0896 15.2776 4.1936 22.9416.1176.0224.2344.048.352.0688 4.5328.796 28.3456-1.172 29.9784 1.7056 1.6368 2.8832.3384 14.4488.52 18.5368 4.592-.0672 12.5112-1.092 16.0064 2.4768 3.4832 3.556 1.3976 16.444 1.3424 21.4168q50.1912-.1888 100.3808.156l-.0248-9.0344c8.8352-10.68 27.1064-11.848 38.6664-27.148 1.0368-1.3888 1.9744-2.8536 2.936-4.2952.4224-3.5112.388-7.1736.544-10.712-4.6992-1.9824-10.0888-3.2728-14.4304-5.9248 1.0736-9.3008 2.4944-18.5608 3.5272-27.868 3.6368-32.7664 7.0336-65.5512 15.0896-97.588 6.9384-20.74 15.1808-40.5976 23.812-60.6616q23.0496-49.2368 44.844-99.0424c-7.8048-.88-16.072-.4752-23.936-.5992-2.8984 2.4864-6.8024 6.4824-10.8424 6.6768-7.724.3712-13.9568-6.1848-21.2456-7.6272-5.0808-1.0056-41.4384-.3888-47.6232.3368-4.676-1.096-19.1704-20.2192-23.1392-24.9792-5.904-8.0056-45-52.088-45.1728-56.7336l.2568.5864.1424-.8408c6.7344-2.06 28.1848-.7224 36.4376-.5456 19.3592.4152 38.7512 1.2016 58.1128 1.1976 13.2272 15.2448 26.424 30.4536 39.9272 45.4616 2.6416-2.5928 5.1688-5.3248 7.7416-7.988-2.3216-2.3-4.508-4.5728-6.5024-7.1656 15.0392-15.1496 28.2328-32.6152 45.6056-45.3216 7.3256-4.6192 13.0536-5.9488 21.6216-6.8048 1.392-1.3192 2.264-3.3752 3.6-4.852 1.608-1.7768 3.48-2.8152 5.16-4.4152.168-.1592.336-.3224.504-.4832.08-.3304.184-.652.208-.9944.168-2.8464-2.056-9.396-3.896-11.4352-3.272.9896-7.728 1.2176-11.096.4904-7.808-1.6856-10.608-10.3064-10.496-17.4024.032-1.7032.808-5.2984.304-6.7816-.168-.4744-.76-1.1432-1.048-1.5824-.192-.1608-.408-.3056-.584-.4808-1.056-1.012-2.48-3.1536-2.304-4.6864.104-.924.656-1.6864 1.424-2.2056 2.424-1.6472 4.736-.9488 7.416-.4824.592-4.2904.896-7.8472 3.488-11.4408-2.056-2.54-12.984-5.9984-16.3312-7.34-4.5672-1.7824-9.26-3.4176-13.552-5.808.9864-1.5256 2.2912-4.0992 3.8456-5.0256 1.856-1.1064 4.0688-.1624 5.94.4232 4.98 1.068 11.1456 5.284 15.7376 5.5096 4.496-10.2216 14.6-17.4784 24.568-21.6664 11.664-3.8784 23.648-4.1048 34.848 1.4648 7.848 3.9088 16.184 11.6592 19.016 20.1856.144.4512.024.7432-.048 1.2032 4.168 4.1536 4.712 14.2744 4.712 19.8016-.008 4.4344-.184 11.3024-2.168 15.3696-2.488 1.4568-4.848 1.5952-7.64 1.728-1.456 5.9064-7.264 15.5432-12.44 18.9512-1.192.7848-2.744 1.2888-4.072 1.8088-.504 2.7896 1.368 6.7096 1.6 9.6416 4.144.8792 6.68 2.216 9.08 5.92 1.288 1.9848 2.376 4.1624 3.488 6.2496 13.072 4.932 25.48 10.6376 31.592 24.1608 1.928 4.2736 3.216 8.8376 4.288 13.3952 1.384 5.9016 8.448 44.824 7.16 48.7648-.048.1592-.144.3024-.216.4528-1.504 1.3312-3.456 2.112-5.408 2.5456 1.944 4.5472-.568 31.6888-2.688 36.7352-1.344 3.2056-3.744 5.6496-7.016 6.8784-5.368 2.0192-10.92.5416-16.256-.7312.632 4.804-2.952 19.0344-3.976 24.876-4.944 28.2152-13.728 72.52-8.744 100.8096 2.904 16.508 9.36 32.9488 15.328 48.5856q9.848 26.0248 20.768 51.6208c1.688 3.9776 7.36 14.6736 6.864 18.1616-.376 2.704-3.912 5.952-5.992 7.6056-.368.2888-.712.4864-1.112.7088 3.368 1.6928 21.72 21.8304 23.184 25.352.16.3944.144.4704.168.8408-.512 1.388-36.296 32.3248-39.352 33.7328-.352.1616-.72.2984-1.08.4376 7.912-.0784 53.296-1.4712 56.072-.328.392.1584.688.48 1.024.72.36 1.3096.352 1.4144-.096 2.7-.536.2816-1.016.4712-1.632.4912-7 .2312-14.168-.2056-21.192-.2296l-50.704-.0928-156.156.1496-505.8544.0312-119.7184.0136c-6.284-.0008-35.4184.8328-39.5026-.22-.9924-.2552-1.2454-.6136-1.8652-1.3584.221-.776.0912-.928.8275-1.388 2.1994-1.3744 83.6747-.8776 93.3275-.8608l57.8096-.0912q-.048-6.1936-.1776-12.3856c-.0632-2.9816-.2688-6.3712 2.0904-8.6128 3.3816-3.2136 10.008-2.3672 14.3376-2.3064-.028-5.3704-1.1312-14.604 3.1632-18.6136 3.2848-3.0672 7.5512-2.5224 11.6512-2.3-.2824-24.3696-.0208-48.7736-.0144-73.1464l-.0272-75.8816c.016-1.9872.0712-3.6712 1.5512-5.1184 14.5024-.956 29.4992-.2176 44.056-.1976 23.2976.032 46.612-.2208 69.9064.0896-.0784-8.712 1.3776-18.7536.9072-26.9048-.796-13.788-3.7464-28.0256-5.6608-41.7448-3.0664-21.9688-5.6592-44.016-8.9376-65.952-.7584-7.4144-1.896-14.8192-2.872-22.2088-.4016-6.3168-1.9128-13.0016-2.8184-19.2976-1.7176-11.9472-3.2472-23.9288-5.0776-35.8584-1.0264-6.684-2.544-13.58-2.7488-20.3432-4.168-4.9976-7.7624-10.0656-10.0664-16.2152-3.9776-10.616-3.3448-21.664 1.3352-31.9384 3.968-8.7128 9.7424-12.9216 16.8216-18.8936 2.4272-2.0472 4.668-4.5408 7.268-6.3512 3.7792-2.6312 8.4344-4.5664 12.5616-6.6512l29.776-14.74 58.2488-29.2456c10.1896-5.1096 22.0336-11.9144 32.6168-15.7464 5.6016-2.0272 11.0528.076 16.1376 2.4264 7.7752-2.3304 15.4704-6.5416 22.9792-9.7392 25.3808-10.8088 50.3552-22.6544 75.5672-33.8624l3.036-7.128Z"/>
  <path fill="#F3F4EF" d="M673.7616 308.9864c-.7048-2.4176-1.6904-4.5336-.5168-6.9312 3.1584-.8288 7.7744 2.5496 10.5976 4.0584l-.2584.788c-3.324.5448-6.5568 1.2624-9.8224 2.0848Zm-11.528-4.1848c.2048-.0024.7424.3408.9336.4408.772 2.2824.8536 4.768 1.0896 7.156-2.4536.2416-4.9064.5976-7.3544.9016-1.1464-.2584-1.1664-.2952-1.9272-1.1968-.4616-2.1544.2072-4.392.6144-6.5248 2.2312-.0992 4.4352-.4624 6.644-.7768Z"/>
  <path fill="#6793A0" d="M836.96 268.5272c3.128.7952 17.752 7.1144 19.064 9.192-.224-.0368-.44-.0696-.664-.1096-1.264-.2312-2.456-.8152-3.632-1.3208.592 1.6608 1.56 1.2216 1.176 3.2856-2.984-8.4304-11.36-1.5376-15.68-3.8528-1.04-1.9848.424-4.2712-.064-6.4376-.064-.2544-.136-.504-.2-.7568Z"/>
  <path fill="#567092" d="M683.8424 306.1136c2.3136 1.4168 4.6456 2.8048 6.8648 4.368.4768 5.0232 3.28 25.4616 1.1768 28.6648l-.6368.008c-3.0424-6.9056-2.2616-18.7448-4.408-26.656-.5736-2.1128-2.632-3.5056-3.2552-5.5968l.2584-.788Z"/>
  <path fill="#F9827A" d="M789.1376 244.6648c11.8624 2.7896 24.3904 8.4784 34.3584 15.4248-.112.4152-.152.6968-.432 1.0288-1.552-1.3728-21.448-8.6384-25.2472-10.1984-2.3512-.7112-7.5808-1.7504-8.8768-3.8704-.4384-.7168.012-1.5976.1976-2.3848Z"/>
  <path fill="#567092" d="m788.6424 409.884.68.7728c.0448 6.3208.9688 12.7248 1.388 19.044-6.0024-.9552-12.2736-.7592-18.3352-.7512l-1.7648-.068c-.0032-.9392 2.6968-2.8416 3.4768-3.496 5.5176-4.6328 10.4968-9.5112 14.5552-15.5016Z"/>
  <path fill="#F9827A" d="M697.2512 770.9512c8.1608-.148 56.8592-1.2608 61.02.4512.464 1.2344.5792 1.6696.2184 3.0016-2.128 1.1352-17.1272.3424-20.6144.3176l-38.4128-.0776c-5.824.0104-12.1256.7072-17.8832.0888-1.2544-.1344-2.7456-.2896-3.664-1.2608-.5688-.6024-.4048-.8296-.4304-1.6088 2.0696-1.536 16.2648-.8848 19.7664-.912Z"/>
  <path fill="#F3F4EF" d="M845.144 319.8264q3.32-.2008 6.64-.1712 3.32.0288 6.632.288 3.32.2584 6.6.7456 3.288.4864 6.536 1.1992c.392.2624.472.2936.856.6768 1.72 1.7072 3.768 4.8448 3.656 7.2928-5.72-1.6072-12.152-1.7624-18.048-2.1688-3.872-.2232-30.48.3056-31.528-.5592.048-.5592.16-.9064.512-1.356 3.928-5.0848 12.272-5.2304 18.144-5.9472Z"/>
  <path fill="#F9827A" d="M609.332 191.8096c3.104.3136 6.2568 1.1856 9.3112 1.8336.1728.3464.3504.6904.5128 1.0408 5.4944 11.8552 10.2336 24.2864 15.3896 36.3096 3.3264 7.7568 8.5488 17.5536 10.6024 25.5568.396 1.54.2216 1.8552-.2944 3.3224l-1.04.3856c-2.9544-1.92-29.644-58.9312-34.4816-68.4488Zm321.02 544.1192c.4.1256.352.096.824.3416 1.344.7152 2.584 2.5096 3.08 3.928-8.4 7.2416-33.248 31.2256-41.44 34.4648-8.16 1.1816-17.424.3544-25.696.3136-1.32-.1096-2.168-.1192-3.224-1.0216-.192-.716-.344-1.2896-.296-2.0368.008-.1016.128-1.3896.152-1.4088 2.136-1.548 21.056.7288 25.696-.884 7.576-2.6312 33.352-27.0168 40.904-33.6968Z"/>
  <path fill="#F3F4EF" d="M720.1448 724.4872q14.6528 2.8152 29.0896 6.5856c-.4768 3.3544-1.244 6.652-1.9704 9.9592-1.5816 1.5608-3.3112 3.0064-4.9728 4.484l-8.1376 6.1688c-3.76-7.4984-7.2696-12.6248-14.7872-16.588.0448-3.548.4432-7.08.7784-10.6096ZM845.92 295.7792c2.992 1.56 6.064 4.7504 8.904 6.7984 2.144 1.5512 4.512 2.7136 6.64 4.2736.36.3848.656.8008.912 1.2616.832 1.5032.912 2.6832.472 4.3088.88 1.1376 1.368 2.0888 1.792 3.4584-.32.6384-.272.8992-.976 1.1696-1.072.4072-2.832-.1632-3.944-.4008-8.912-.3088-17.36.076-26.072 2.0272.088-.2304.248-.592.288-.8576.44-2.9232-1.864-10.404-3.544-12.812.936-.144 1.864-.3752 2.784-.6376 4.36-1.2504 10.48-4.5344 12.744-8.5896Z"/>
  <path fill="#6C9FA8" d="M852.904 279.5744c.384-2.064-.584-1.6248-1.176-3.2856 1.176.5056 2.368 1.0896 3.632 1.3208.224.04.44.0728.664.1096 4.408.4472 10.04 4.1392 14.304 5.8584 2.872 1.156 6.512 1.8744 9.136 3.3424.104 4.4456-5.144 11.3776-8.152 14.4912-1.408 1.4656-2.976 2.8032-4.904 3.536-7.944-2.64-11.88-7.9328-18.64-10.8072 3.048-1.7016 5.528-4.3688 6.48-7.8048.496-1.7776.512-4.036-.456-5.672-.24-.4168-.56-.7416-.888-1.0888Z"/>
  <path fill="#F3F4EF" d="M904.888 707.4216c1.328-.2048 2.208-.344 3.488.108 2.088 2.008 4.184 5.1576 4.8 8.0416-1.216 3-3.76 5.6344-5.4 8.5032-2.032 3.5608-3.4 7.8936-5.8 11.12-1.992-1.8016-6.224-2.6248-8.8-3.2696-4.928-2.6072-7.416-10.7664-11.728-14.5656 2.232-1.1328 4.216-2.7968 6.416-4.0144 5.424-2.9992 11.04-4.5624 17.024-5.9232Zm-2.552-360.5896 1.168.3c1.968 1.74 3.376 3.7488 4.568 6.0712 2.216 4.328 3.632 9.0128 4.8 13.7176 1.656 6.7056 8.264 43.228 6.72 48.0992-3.176 2.536-11.248 4.04-15.264 5.1568.448-.5584.872-1.1112 1.208-1.7448 2.592-4.8416 6.104-24.2224 4.592-29.7352.32-.4632.576-.8032.688-1.3624.568-2.652.84-8.6184-.824-10.7944-3.8 1.4824-2.144 33.8296-7.88 40.8528.04-.108.096-.2136.128-.3248 1.08-3.204 1.096-7.5816 1.44-10.9688 1.36-13.224 4.208-47.6752-1.344-59.2672Zm11.56 74.02 1.12.4144c1.488 4.3568-.416 20.7064-1.216 25.9768-.528 3.4664-1.88 9.3464-4.96 11.4248-3.912 2.6344-9.44 1.3544-13.736.616-.536-.18-.832-.4128-1.288-.748-.848-7.508 6.56-24.72 6.96-34.056 4.464-.3872 8.936-2.1 13.12-3.628Z"/>
  <path fill="#F9827A" d="M592.5072 166.5672c.8712 1.0512.6856 4.1296.828 5.5848-10.1832 4.9744-86.5752 42.0712-90.8528 41.98l-.868-.9456-3.7784-4.276c14.4088-7.2928 29.8728-13.2016 44.644-19.8064 16.6808-7.4592 33.0632-15.7352 50.0272-22.5368Zm322.3328 551.08c3.48 1.932 11.928 11.5344 13.384 15.256-.416.556-.664.852-1.24 1.2696-3.256 3.5848-33.096 29.444-36.664 31.2496-2.136 1.0808-5.344 1.1984-7.696 1.316q-10.528.4216-21.056.072c2.96-.82 16.712-6.1592 18.224-8.2424.064-.0968.112-.212.16-.3176l2.056-.5928c3.832-3.5856 2.808-18.2944 5.952-24.088 5.304 1.348 10.216 3.5608 15.424 5.1544 2.808-2.7824 5.312-10.4208 7.504-14.2816 1.104-1.9568 3.728-4.6872 3.952-6.7952Z"/>
  <path fill="#F3F4EF" d="M814.24 261.8824c2.376-.568 4.64.388 6.696 1.676.096.06.184.1336.28.2 1.352.2328 2.56.2952 3.592 1.2904 3.136.4416 6.976 1.3512 9.64 3.1232.592 2.0752-.648 5.4008-1.712 7.1904-.28.4784-.328.5088-.64.8744 2.64 1.5632 5.76 3.5344 8.032 5.588.864-.676 1.424-1.2744 2.088-2.148.784-1.0288 1.768-2.1736 3.136-2.3952 1.584-.2568 3.536 1.0056 4.6 2.0704q.192.1856.36.3896.168.204.312.424t.272.4536q.12.2344.216.4792.104.2456.176.4992.072.2544.12.5144.048.26.064.524.024.264.016.528c-.096 4.5312-4.544 8.512-7.696 11.2736-6.416 5.6104-15.296 10.132-24.08 9.3912-3.192-.2688-5.936-1.428-8.04-3.8896-4.84-5.6464-3.4-12.556-3.112-19.2952-1.576-1.2176-2.984-2.1744-3.928-3.98l.128-.8968c2.896-1.2048 10.224 2.6888 11.776.4168-.888-.3384-1.368-.1416-2.256.1224-.624-.3808-.728-.272-.936-1.0376-.344-1.2344.048-3.3608.704-4.452.104-.1696.216-.3304.32-.4952l.72.1088 1.488 2.4016.544-.196.816-2.6888c-.976-.344-1.944-.7352-2.912-1.1064-.776-.9408-1.08-1.3176-1.2-2.5856l.968-.4656c1.6.1416 2.408.3672 3.736 1.2784.728 1.304.728 1.304.472 2.7784.696.732.664.584 1.592.7296.68-1.032.512-1.1968.36-2.4448-1.112-2.0552-3.24-2.1824-5.032-3.4176-1.2-.8304-1.432-1.4472-1.68-2.8312Z"/>
  <path fill="#3C3C68" d="m842.992 281.7872 1.272.4408c.672 1.0776 1.2 2.052 1.056 3.3696-.16 1.4824-.448 1.8592-1.584 2.7648l-1.272-.7656-.232-.992c.48-1.536.888-2.844.792-4.4704-.008-.116-.024-.232-.032-.3472Zm-27.928 3.1648c3.6 1.0744 6.728.876 10.448.7528l.112.692-1.2.9104c-.08.1632-.136.3432-.24.4896-.456.624-1.2 1.0392-1.928 1.2352-1.864.4976-4.112.14-5.704-.9576-1.272-.88-1.256-1.7296-1.488-3.1224Z"/>
  <path fill="#F9827A" d="M658.2968 255.7008c4.6016-.54 8.8224-.2712 12.9824 1.9736 4.5104 2.4336 7.7232 6.672 9.1376 11.572 1.388 4.8104.9432 9.7552-1.4912 14.152-3.0272 5.4664-7.5264 7.98-13.3408 9.7008-4.6016.9392-9.3984.3376-13.544-1.9072q-.4224-.2304-.832-.4816-.4104-.2512-.8072-.5224-.3976-.2712-.7808-.5624-.3832-.2904-.7512-.6t-.7208-.6368q-.352-.3272-.688-.672-.3352-.344-.6536-.7048-.3184-.3608-.6176-.7368-.3-.376-.5808-.7672-.2808-.3904-.5416-.7944-.2608-.404-.5016-.8208-.2408-.416-.46-.844-.2192-.428-.4176-.8664-.1976-.4384-.3736-.8864-.176-.448-.3296-.9032-.1536-.456-.284-.9192c-1.316-4.6208-.8432-9.5424 1.5552-13.7368 3.1704-5.5456 8.032-8.3984 14.0408-10.036Z"/>
  <path fill="#3C3C68" d="M658.5136 263.1288c1.956-.1968 4.0608-.316 5.9808.1888 3.368.8848 6.468 3.0208 8.1432 6.1176q.268.4944.4816 1.0144.2136.52.3712 1.06.1568.54.256 1.0936.0984.5536.1376 1.1144.0392.5608.0184 1.1232-.0208.5616-.1016 1.1184-.0808.5568-.22 1.1016t-.336 1.0712c-1.4472 3.952-4.6 6.0456-8.24 7.6896-2.112.3504-4.6456.356-6.7-.2584q-.5584-.1624-1.0976-.38-.54-.2168-1.0552-.4856-.5152-.2696-1.0016-.5888-.4864-.3184-.9384-.684-.4528-.3656-.8672-.7736-.4136-.408-.7856-.8552-.372-.4472-.6976-.9288-.3256-.4824-.6024-.9936-.2704-.5-.4888-1.0248-.2176-.5248-.3808-1.0696-.1632-.5448-.2696-1.1032t-.1544-1.1248q-.0488-.5664-.0392-1.1344.0096-.568.0776-1.1328.0672-.564.1928-1.1192.1248-.5544.3064-1.0928c1.3792-4.0552 4.348-6.1712 8.0104-7.9432Z"/>
  <path fill="#F3F4EF" d="M661.1824 266.1008c.9224.0944 1.8296.2208 2.7216.4832 2.5296.7432 4.5752 2.1728 5.732 4.5944q.1808.3768.32.7712.1384.3944.2344.8016t.1472.8224q.052.4144.0584.8328.0064.4184-.032.8344-.0384.4168-.1216.8264t-.2096.8088q-.1264.3984-.2952.7808c-1.2512 2.8496-3.2272 3.9808-5.9776 5.0896-1.52.012-3.3152.1144-4.776-.3672-2.236-.7368-4.136-2.8384-4.9768-4.9944q-.1488-.388-.256-.7888-.1072-.4016-.172-.812-.064-.4104-.0856-.8248-.0216-.4152.0008-.8296.0224-.4152.088-.8256.0656-.4096.1736-.8112.108-.4008.2576-.788.1488-.388.3384-.7576c1.4304-2.7928 3.948-4.0112 6.8304-4.8464Z"/>
  <path fill="#6793A0" d="M338.8496 579.8912c5.6568-.1688 11.3104-.0984 16.9688-.0464-1.0064 3.6304-1.8472 7.2776-2.6592 10.9536q-45.6416.3352-91.284.0176l-15.8648.2392-.1016-10.9288c30.976-.2232 61.9736.2544 92.9408-.2352Z"/>
  <path fill="#F9827A" d="M642.1696 180.9408c5.1928 12.2976 7.8088 26.6504 11.2056 39.576 2.7184 10.3472 6.2856 20.4968 7.8616 31.1152-4.3168.9016-8.4072 2.2944-12.5344 3.8104l-2.1864-4.8752q-11.9712-28.9448-24.5472-57.632c8.7176-2.4824 14.2352-4.9024 20.2008-11.9944Zm75.8288 557.1952c8.4056 3.2648 9.0184 9.512 13.6864 15.1472.668.8064 1.404 1.0776 2.4352 1.0592 4.2792-.076 13.5608-9.6992 16.8208-12.8392 3.4776 8.0248 5.292 17.2568 7.5712 25.7184l-28.6368.0648-32.644.2544c-6.2568.056-13.0568.5696-19.2432-.336.3352-1.5232 1.0824-2.0688 2.3184-2.976 2.968-2.1784 6.6528-3.4904 9.9328-5.1368 5.1528-2.5848 10.3696-5.5304 15.0592-8.8904 4.8344-3.4632 8.712-7.7032 12.7-12.0656Zm-101.456-593.528c4.9056-.5072 9.6552-.1024 14.1344 2.0824q.4912.244.9696.512.4784.2688.9432.56.4648.292.9136.6064.4496.3144.8824.6512.4336.3368.8496.6944.4152.3576.8128.736.3976.3784.7752.7752.3784.3976.736.8136.3584.416.6944.8488.3368.4336.6512.8824.3152.4496.6064.9144.292.4648.56.9432.2688.4784.5128.9696.244.4912.4632.9944.2192.5024.4136 1.016.1936.5128.3616 1.0352c1.8552 5.6192 1.6248 11.7112-1.1496 16.9872-3.7 7.0344-10.0656 10.5024-17.4048 12.728-5.496.6336-10.6504.1344-15.4936-2.7416-5.2144-3.0968-8.9944-8.5216-10.4736-14.3696-1.4456-5.7192-.5864-11.0928 2.5048-16.1128 3.9464-6.4104 9.5368-9.8336 16.7368-11.5264Z"/>
  <path fill="#3C3C68" d="M614.0064 179.396c-1.1528-.6184-2.2576-1.324-3.2016-2.2392-2.6392-2.5616-4.184-5.8456-4.1896-9.5496-.0064-3.784 1.2568-8.068 4.0184-10.7408 2.5376-2.4552 6.2432-3.5096 9.7112-3.4408 3.9696.0784 7.7896 1.6608 10.5288 4.56 2.3184 2.4528 3.7576 5.8832 3.5152 9.2872-.2272 3.188-2.496 7.2248-4.8816 9.3352-2.5 2.7248-6.0824 4.2128-9.7704 4.332-1.816.0584-4.3176-.2808-5.7304-1.544Z"/>
  <path fill="#F3F4EF" d="M619.5752 162.16c.9472.0488 1.832.1184 2.7416.4096 1.3224.424 2.36 1.2736 2.9704 2.5344.6048 1.2496.5696 2.6504.048 3.9216-.832 2.024-2.3064 2.7352-4.2112 3.5936-1.372.084-2.92.2368-4.132-.5432-1.2248-.7872-2.1344-2.2736-2.3712-3.7-.2592-1.5584.2352-3.2312 1.1904-4.4712 1.0144-1.3176 2.1944-1.5112 3.764-1.7448Zm-25.8904 13.848c1.4048.544 5.7272 8.4672 7.884 10.5088 1.312 1.2424 2.8616 2.1136 4.4264 2.992l-56.512 33.976c-8.7328 5.2656-18.0976 10.02-26.4648 15.7952-.596.4112-.9776.6232-1.72.7264l-1.236-1.4104c-4.7704-7.2072-10.4568-14.0224-15.5016-21.0664 19.6824-8.6528 39.2024-17.9488 58.6152-27.2008 10.1128-4.82 20.0296-10.3384 30.5088-14.3208Z"/>
  <path fill="#F9827A" d="M839.728 228.5056c8.512-3.02 19.216-1.34 27.184 2.492 7.824 3.7608 15.912 10.4784 19.104 18.812.224.5792.272 1.048.328 1.6592 4.432 5.3848 3.848 17.5504 3.176 24.1008-.256 2.5376-.456 5.1056-1.96 7.2456-1.28.8912-3.424.4824-4.912.2232-11.608-2.0304-23.28-8.44-33.8-13.4912-3.424-1.644-7.392-4.1224-11.072-4.976-1.328-3.044-21.816-10.6448-25.704-15.1888 7.28-8.2544 14.232-16.2496 25.872-17.3856q.848-.0792 1.696-.1168.848-.0384 1.696-.0352.848.0024 1.696.0464t1.688.1288q.848.0848 1.688.2104t1.672.2912q.832.1656 1.656.3712.824.2064 1.64.452.808.2448 1.608.5296.8.284 1.584.6072.784.3224 1.56.6824.768.36 1.52.7576.744.3968 1.48.8296.728.432 1.44.9.704.4672 1.392.9688.68.5008 1.344 1.0344c5.376 4.4288 10.04 11.02 10.592 18.1528.208 2.6152-.312 5.4336.12 8.008.232 1.3712.432 1.896 1.48 2.752l-.952-.9296 1.488.8072c.144-.1176.312-.2104.44-.3528 1.096-1.2888 1.344-3.3712 1.416-4.9904.368-8.3792-3.168-16.0848-8.688-22.2312-7.936-8.832-17.928-11.7736-29.472-12.3648Zm-476.792 36.2048q39.1016-19.0736 77.8552-38.8472c10.9416-5.5072 25.396-13.8264 36.5248-17.9848 2.9648-1.108 6.8136-2.1568 9.8944-1.1056 2.9488 1.0056 5.5744 2.7168 7.8104 4.8728 4.0592 3.9144 23.236 29.4736 25.6952 34.5856 1.0176 2.116 1.7192 4.5184.9536 6.8384-1.62 4.9072-9.8024 7.5608-14.0944 9.8664-4.7928-12.052-15.068-34.5888-26.252-41.4504-10.212 4.2704-20.0016 10.5608-29.7648 15.812q-33.4352 18.3904-67.4064 35.7704c-7.1144-2.2624-13.6064-3.6104-21.1048-4.0088-4.7368.1704-9.2648 1.652-13.7864 2.9456 4.2712-2.8928 9.0576-5.0176 13.6752-7.2944Z"/>
  <path fill="#F3F4EF" d="M660.0152 370.3464c-1.3408-1.0568-2.296-1.7664-2.9776-3.3584l.384-.8368c.1952-.0616.3872-.1328.5856-.184 3.4848-.9128 8.6464 2.004 11.5696 3.6352 3.5256 2.1736 7.0312 4.604 10.9336 6.0368.0424.016.084.0328.1264.0488q-.8816-4.1712-1.8872-8.3136c2.028.2816 4.0568.5992 6.0912.8264 1.4344 2.5976 2.728 5.2152 3.956 7.916.976 3.1208 1.9784 6.1496 2.3264 9.4184 17.7248 7.964 37.152 15.3544 55.8352 20.808 5.6328-4.608 10.9512-11.0552 15.404-16.8136 8.1472 5.82 15.9304 12.2728 23.7872 18.4832-4.908 7.7712-22.904 23.9944-30.9104 27.82-11.7376-2.7008-21.7848-9.7936-31.9608-15.912-5.6768-3.4136-11.5064-6.564-17.184-9.9752-6.568-3.9456-13.036-8.1624-19.8888-11.604-7.0736-3.5536-15.1216-4.2432-22.2872-7.948-1.4712-3.7152-3.1616-10.3832-1.9448-14.2272.5392-1.7024 1.9552-1.9952 3.4256-2.7048-1.7576-1.2448-3.3536-2.3336-5.384-3.1152Z"/>
  <path fill="#F9827A" d="M333.4448 346.8696c3.844 2.0824 7.2368 4.9744 11.1536 7.036 4.2632 14.1744 6.7256 30.7712 9.84 45.3792q8.3896 40.048 17.2128 80.0024c3.1928 14.6192 5.9976 29.2816 9.832 43.7552-4.8128 2.9504-8.708 6.372-12.592 10.4408-3.3448 4.0104-5.8016 8.356-8.2024 12.9624-2.3472-27.648-7.0944-55.3544-10.9536-82.8232l-16.2904-116.7528Z"/>
  <path fill="#F3F4EF" d="M806.016 335.0008c1.048-.02 1.992.02 2.96.4864 4.424 2.1376 7.04 7.7904 8.648 12.1752 8.872 24.1392 2.528 65.4992-8.104 88.512-5.112-1.5832-10.0136-3.8384-14.936-5.9416.0144-5.5568-1.9176-11.4936-1.2744-16.92l.6008-.3072 1.608.772c2.6272-1.2232 10.0416-13.8848 12.1696-17.0568 1.344-1.932 3.032-4.16 3.288-6.5456l-.648-.724-1.32.0296c-2.752 1.6072-11.6184 16.3672-14.092 20.1728-12.7648-8.072-25.6528-18.5344-36.608-28.908 9.252-11.608 34.796-39.596 47.708-45.7448ZM480.168 225.9496c.3992.0584.5512.0536.9064.1904 7.4928 2.8784 20.1192 30.3688 23.4856 38.232-9.6808 6.3384-19.96 11.992-29.9032 17.928q-31.312 18.5688-62.1744 37.8736l-.356-.0848c-.4376-.5888-.2888-14.3608-1.0568-17.3816-3.2008-12.5952-12.4192-21.4448-23.1952-27.836l92.2936-48.9216ZM235.3728 734.1264c43.856-.8752 87.8304-.0368 131.6984.044l186.4872.164c.0024 3.6296 1.2832 13.5064-.884 16.1768l-2.0496.1808-319.3256.124c-.1192-3.2568-.5472-6.9368-.1256-10.1496.452-3.4448 1.564-4.5912 4.1992-6.54Z"/>
  <path fill="#F9827A" d="M358.8144 273.2544c10.7056-1.4296 22.9696 1.4256 31.9432 7.424q.8376.5488 1.6464 1.14.8096.5904 1.588 1.2208.7784.6304 1.524 1.2992t1.456 1.3744q.7112.7056 1.3856 1.4464.6752.74 1.3112 1.5136.6368.7736 1.2336 1.5784.5968.8048 1.152 1.6384.556.8336 1.0688 1.6936.5128.8608.9816 1.7456.4696.8856.8928 1.7928.424.908.8016 1.836t.708 1.8736q.3312.9456.6136 1.9064.2824.9616.516 1.9352.2336.9744.4184 1.9592c2.0232 10.4464-1.2752 21.068-7.2152 29.7024-7.34 10.6688-17.8352 15.3552-30.22 17.6408-11.9192 1.2952-23.6328-1.46-33.2936-8.7616-8.6648-6.548-14.7936-16.4008-16.2016-27.2216-1.3272-10.2024 1.2896-20.2848 7.6584-28.3944 7.5728-9.6432 18.0152-14.8784 30.0312-16.3432Z"/>
  <path fill="#3C3C68" d="M362.5464 283.744c7.0712-.6944 14.8792 1.5728 20.7536 5.4912 6.468 4.3152 11.5464 11.1768 13.0624 18.8736q.1312.6688.2296 1.3432.0984.6744.1632 1.3536.064.6784.0952 1.3592.0312.6808.0288 1.3624-.0032.6824-.0392 1.3624-.0368.6808-.1064 1.3592-.0704.6776-.1736 1.352-.104.6736-.2408 1.3416-.1368.6672-.3064 1.328-.1696.66-.372 1.3112-.2016.6504-.436 1.2912-.2336.64-.4992 1.268-.2656.628-.5616 1.2416t-.6224 1.2128q-.3264.5984-.6816 1.18-.3552.5816-.7392 1.1448c-5.7128 8.2832-14.8568 12.4112-24.468 14.1488-8.4424.1968-16.0032-1.5824-22.8424-6.7608-6.336-4.7976-10.9688-12.0144-11.9432-19.9688-.8976-7.3328 1.4224-14.3888 5.9736-20.136 5.9024-7.452 14.4448-11.3392 23.7256-12.4592Z"/>
  <path fill="#6793A0" d="M360.7968 287.692c6.9272-.5656 12.8664-.0616 18.952 3.5968 5.9968 3.6056 11.088 9.6928 12.7792 16.5648q.1408.5752.2536 1.1568.112.5816.1952 1.168.0832.5864.1368 1.176.0536.5904.0776 1.1816.024.592.0184 1.184-.0048.5928-.04 1.184t-.1 1.18q-.064.5888-.1584 1.1736-.0936.5848-.216 1.164-.1232.5792-.2752 1.152-.1512.572-.3312 1.1368-.1808.564-.3888 1.1184-.208.5544-.4432 1.0984-.2352.5432-.4976 1.0744-.2624.5304-.5512 1.048-.2888.5168-.6024 1.0192c-4.568 7.3184-12.18 11.5512-20.3976 13.4768-7.3.8136-14.4712-.664-20.6448-4.7256q-.5488-.3568-1.08-.7408-.5304-.3832-1.0408-.7936-.5104-.4096-1-.8448-.4896-.4352-.9568-.8944-.4664-.4592-.9096-.9408-.4432-.4824-.8624-.9864-.4184-.5032-.8104-1.0272-.3928-.5248-.7592-1.068-.3656-.5424-.7032-1.104-.3384-.5608-.648-1.1376-.3096-.5776-.5896-1.1696t-.5304-1.1968q-.2496-.6056-.4688-1.2224-.2192-.6176-.4072-1.2448-.188-.6272-.3448-1.2632-.156-.636-.28-1.2792-.1096-.6136-.1896-1.2312-.08-.6184-.1296-1.24-.0496-.6208-.0688-1.244-.0192-.6224-.008-1.2456.0112-.6232.0528-1.2448.0424-.6224.1144-1.2408.072-.6192.1736-1.2344.1024-.6144.2344-1.2232.132-.6096.2936-1.2112.1616-.6016.3528-1.1952.1904-.5928.4104-1.176.2192-.5832.4672-1.1552t.5232-1.1312q.276-.5584.5784-1.1032t.6304-1.0744q.3288-.5296.6832-1.0424c4.76-6.8504 11.5712-9.7384 19.5064-11.2216Z"/>
  <path fill="#3C3C68" d="M361.7024 299.6376c3.3192-.1856 6.2872-.2992 9.4704.868 3.7328 1.3688 6.9696 4.0512 8.5552 7.756 1.3592 3.1768 1.304 6.9448-.0392 10.116-2.0696 4.8888-5.9912 7.136-10.7152 8.9024-3.4296.4472-6.8456.3352-10.0736-1.0352-3.5024-1.4872-6.364-4.2392-7.7672-7.8008q-.1272-.3248-.2376-.6552t-.2032-.6664q-.0936-.336-.1688-.676-.076-.34-.1336-.684-.0584-.344-.0984-.6904-.04-.3456-.0624-.6936-.0224-.348-.0264-.6968-.0048-.348.0088-.6968.0136-.348.0456-.6952.0312-.3472.0808-.692.0496-.3448.1168-.6872.0672-.3416.152-.68.0848-.3384.1864-.6712.1024-.3336.2216-.6608.1192-.328.2552-.6488.136-.3208.288-.6344c2.1784-4.3808 5.7712-6.4056 10.1448-7.9776Z"/>
  <path fill="#F9827A" d="M363.8288 302.6864c2.2272-.0728 4.052.0336 6.1736.852 2.8104 1.0832 5.156 3.1088 6.288 5.9432q.1792.4552.3112.9264.1328.4712.2176.9528.0848.4816.1216.9696.0368.488.024.9768-.012.4896-.0736.9744-.0608.4856-.1696.9624-.1096.4776-.2656.9408-.156.464-.3576.9096c-1.7184 3.8464-4.9208 5.4928-8.6696 6.8096-2.6224.1808-5.4024-.1208-7.7456-1.3792q-.48-.252-.9312-.5512-.4512-.3-.8696-.6448-.4184-.344-.7992-.7296-.3808-.3856-.72-.808-.3392-.4224-.6336-.8768-.2944-.4552-.5408-.9384-.2456-.4824-.4408-.988-.196-.5048-.3384-1.028-.1352-.492-.2208-.9944-.0856-.5032-.1208-1.012-.0344-.5088-.0192-1.0184.016-.5104.0824-1.016t.1832-1.0024q.1168-.4968.2824-.9792.1648-.4824.3776-.9456.2128-.464.4704-.904c1.9696-3.3528 4.8472-4.4624 8.384-5.4016Z"/>
  <path fill="#F3F4EF" d="M837.68 330.8296c14.592-.3768 31.496-.4296 45.648 3.5472 3 3.3016 4.048 10.1664 4.784 14.48 4.344 25.3152 1.656 50.7992-4.256 75.608-1.184 4.9792-2.464 12.3032-5.416 16.4864l-9.304 1.4096c-9.808 2.9584-30.456.0232-40.856-1.6168 7.56-8.2272 10.544-55.1376 10.112-67.3736-.368-10.3528-3.416-34.8832-10.808-41.7736 3.352-.3792 6.736-.5368 10.096-.7672Z"/>
  <path fill="#6793A0" d="m217.2568 754.7608 237.9824-.0096 73.3688-.0704c14.0656-.0344 28.244-.484 42.2944.0928.2024 5.9744.9368 13.0568-.0952 18.8936l-.796.496-355.0688.036c-.1928-5.7488-1.7616-14.8472 2.3144-19.4384Z"/>
  <path fill="#F9827A" d="M426.3704 522.7856c.18-.0264.3592-.06.5408-.08q1.3424-.132 2.6888-.1984 1.3472-.0672 2.696-.0688 1.3488-.0016 2.696.0616 1.3472.0632 2.6896.192 1.3424.128 2.6776.3208 1.3344.1936 2.6584.4504 1.324.2576 2.6336.5784 1.3104.3208 2.6032.704 1.2928.384 2.5656.8296t2.5232.9528q1.2496.5064 2.4736 1.0728 1.224.5664 2.4192 1.1912t2.3592 1.3064q1.164.6816 2.2928 1.4192 1.1296.7368 2.2224 1.528t2.1456 1.6336q.9256.7256 1.8128 1.4968.888.7712 1.7352 1.5856.848.8152 1.6536 1.672.8056.8568 1.5672 1.7528.7608.8968 1.476 1.8304.7152.9328 1.3824 1.9016.6672.968 1.2848 1.9688.6168 1.0008 1.1832 2.032.5664 1.0304 1.08 2.0888.5136 1.0576.9728 2.14.46 1.0824.864 2.1872.4048 1.104.7528 2.2272.348 1.1232.6392 2.2632.2912 1.1392.524 2.292.2336 1.1528.408 2.3152.1752 1.1632.2912 2.3336c1.3464 12.632-3.0872 25.2912-11.0768 35.0232-8.4832 10.3344-21.9912 17.0224-35.2488 18.2768-14.0712 1.8112-28.1664-1.4168-39.7824-9.6672-10.388-7.3776-17.7144-18.42-19.7064-31.0864-1.9272-12.2552 1.5704-24.9616 8.84-34.9352 9.0648-12.4368 23.6064-19.2296 38.4616-21.592Z"/>
  <path fill="#3C3C68" d="M428.1728 534.3024c9.6656-1.2408 20.5288 1.7656 28.4472 7.3472q.7592.5288 1.4912 1.0944.7312.5664 1.4344 1.168.7024.6016 1.3744 1.2376.6712.636 1.3104 1.3048.64.6688 1.2448 1.368.6048.7 1.1744 1.4288.5696.7296 1.1024 1.4856.5328.7568 1.0264 1.5384.4944.7824.9488 1.588.4552.8056.8688 1.6336.4136.8272.7856 1.6744.3728.8472.7016 1.7112.3296.8648.616 1.7448.2856.88.528 1.7728.2416.8928.4384 1.7968.1968.904.3488 1.8168c1.5152 9.524-.6296 19.1544-6.4176 26.904-7.232 9.6848-18.2928 14.408-29.9792 16.084-9.8584 1.0264-20.3896-1.396-28.3888-7.3304-8.2912-6.152-14.4536-15.2336-15.8432-25.5736-1.2752-9.4912 1.3744-18.4416 7.2168-25.9776 7.22-9.3136 18.0576-14.3536 29.5704-15.8176Z"/>
  <path fill="#6793A0" d="M427.5528 537.8064c8.856-.7992 17.828.7032 25.3848 5.5656 7.6008 4.892 13.5752 12.344 15.4288 21.3136q.1616.7896.284 1.5872.1224.7968.2048 1.5992.0824.8016.124 1.6072.0424.8056.044 1.612.0016.8064-.0368 1.6112-.0392.8056-.1176 1.608-.0792.8024-.1976 1.6-.1192.7976-.2776 1.5888-.1584.7904-.3568 1.572-.1976.7816-.4344 1.5528-.2368.7704-.5112 1.5288-.2752.7576-.588 1.5008-.312.744-.6616 1.4704-.3496.7264-.7344 1.4352-.3848.708-.8048 1.3968-.4208.688-.8744 1.3544c-6.752 9.9216-15.9456 13.9704-27.3992 16.2016-9.7688 1.028-18.9848-1.0136-26.9736-6.916-7.2184-5.332-12.78-13.4-14.1008-22.3768-1.3096-8.9016 1.5792-17.8 6.992-24.8672 6.2184-8.1192 15.6712-12.1936 25.6064-13.5456Z"/>
  <path fill="#3C3C68" d="M431.2128 553.7856c4.108-.0984 8.2088.912 11.6496 3.1968q.3728.2472.7328.5128.3592.2648.7056.548.3464.2832.6784.5832.3312.3.648.616.316.316.616.6472.3008.3312.584.6768.2832.3464.5488.7056.2664.36.5136.732.248.3728.4768.7568t.4376.7792q.2096.3952.3992.8.1896.4056.3584.8192.1688.4144.3168.836.1488.4224.276.8504.1264.4296.232.864t.1896.8736c.904 4.8048-.0256 10.1424-2.9616 14.1144-3.5672 4.8248-8.6912 6.08-14.2672 7.0472-5.2888.0016-9.9016-.648-14.2024-3.956-3.6144-2.7808-6.26-7.1568-6.7384-11.7272q-.0456-.4176-.0704-.8368-.0248-.4192-.0288-.8384-.004-.42.012-.84.0168-.4192.0536-.8376t.0944-.8336q.0576-.416.1352-.8288.0776-.4128.1752-.8208.0984-.4088.216-.8112.1176-.4032.2552-.8.1376-.3968.2944-.7864t.3328-.7704q.1752-.3816.3696-.7536.1944-.3728.4064-.7344.212-.3624.4416-.7136.2296-.352.4768-.6912.2464-.34.5096-.6672c3.8336-4.8208 9.1592-7.0008 15.1328-7.712Z"/>
  <path fill="#F9827A" d="M429.4496 557.2256c3.3976-.2488 6.1968-.344 9.3896 1.1432 3.86 1.7968 6.7928 5.0024 8.0912 9.0768 1.152 3.6136.904 7.6408-.9232 10.9896-2.6224 4.8032-7.016 6.6128-11.9272 8.1232-3.6016.24-6.7024.1176-10.0168-1.5752q-.668-.3368-1.2992-.7384-.6312-.4016-1.2192-.864-.5888-.4624-1.128-.9816-.5392-.5184-1.024-1.088-.4848-.5704-.9112-1.1856-.4256-.6152-.7888-1.2696-.3624-.6544-.6584-1.3416-.296-.6872-.5216-1.4008-.1096-.3384-.2024-.6816-.092-.3432-.1664-.6904-.0744-.348-.1304-.6992-.056-.3512-.0944-.7048-.0376-.3528-.0576-.708-.0192-.3552-.0208-.7104-.0008-.356.016-.7104.0176-.3552.0528-.7088.036-.3544.0896-.7056t.1256-.6992q.072-.348.1624-.692.0896-.344.1976-.6832.1072-.3384.2328-.6712.1248-.3328.2672-.6592.1416-.3256.3008-.644.1584-.3176.3336-.6272c2.6928-4.7056 6.9008-6.5088 11.8304-7.8928Z"/>
  <path fill="#F3F4EF" d="M803.72 595.2952c3.448 25.0984 13.384 44.3744 24.752 66.6384q11.848 22.9504 24.024 45.7288c3.008 5.64 11.016 16.9696 12.36 22.3504 4.976.1176 18.8-3.0032 22.04-.7392.416 1.1352.424 1.2136.112 2.3792l-1.6.4648c-1.416 5.0008-2.984 20.8104-5.696 23.9184l-1.8.6984c-4.216 2.9816-13.616 5.2056-16.424 8.792-.768.9824-1.208 2.5368-1.624 3.7056.08.24.168.4776.248.7192.544 1.6832.408 3.1792-.368 4.7376q-48.64-.6928-97.272.0112c-.0112-.5888-.0376-1.1728-.0584-1.7608-.3648-10.2096-4.932-21.0896-8.0056-30.7576-.556-1.7496-1.2512-2.5392-2.596-3.7608-.1488-.1352-.3008-.2672-.4512-.4-.2688-2.1192.5248-4.384 1.0088-6.4448 3.6888.3632 10.2984 2.4536 13.6448 1.0664.828-.344 1.1176-.592 1.4416-1.4192 2.0424-5.2168 3.8744-18.312 5.208-24.788 8.08-39.2328 15.404-74.0392 31.056-111.14Z"/>
  <path fill="#6793A0" d="m246.0288 594.872 106.136.1648c-7.6432 36.74-17.2896 73.0504-25.1056 109.7464-2.308 8.268-4.2368 16.9176-5.8216 25.3568l-75.224-.272-.1496-89.3504c.0128-15.1896-.2976-30.4656.1648-45.6456Z"/>
  <path fill="#F9827A" d="M405.2032 336.4112c3.156 3.0088 65.1168 180.6768 73.7344 203.5192-2.7552-2.6832-5.5472-5.2856-8.5984-7.6344-14.3968-11.08-30.1504-14.9256-48.0544-12.5248-13.3448 2.1136-24.5584 8.7968-34.0024 18.2696-1.9272-6.7336-3.1024-13.8696-4.664-20.7216q-6.4736-28.276-12.1872-56.7152l-22.4384-105.012c10.1408 2.8936 19.9096 2.9856 30.1312.2752 11.1976-2.9696 20.232-9.4 26.0792-19.456ZM482.22 546.956c4.4984 3.3216 8.0656 13.084 9.5176 18.3856 2.0168 7.3616 2.4976 15.0896 3.4472 22.6424.7224 5.7488 1.8032 11.432 2.9304 17.112q11.824 62.5264 25.1888 124.7416l-114.8008.0216-44.8232.264c-8.4792.04-17.192.4688-25.6408-.2248l2.332-9.8352q12.3416-59.116 25.8536-117.9768c1.2616-5.4504 3.6888-22.1664 5.2904-25.8728 1.288-.2872 2.0456-.0752 3.264.2912 1.116 1.64 3.4408 13.1104 4.7704 16.4304 4.82 12.0392 16.6864 21.8528 28.4304 26.724 15.3664 6.3736 32.764 5.7056 48.0136-.6336 13.0312-5.4168 23.4496-15.052 28.82-28.2216 6.5576-16.0816 3.7824-28.4944-2.5936-43.848Z"/>
  <path fill="#6793A0" d="m819.48 331.6728 5.168.0112c4.736 5.6592 6.896 16.2584 8.232 23.5384 4.368 23.7704 1.528 56.8-5.728 79.7136-.92 2.8896-1.536 6.7192-3.256 9.2112 6.392.6664 12.72 1.804 19.128 2.3744 13.32 1.1864 25.648-.08 38.76-2.2568 2.336-3.0984 3.112-9.176 4.008-13.0144 4.84-20.7504 8.016-40.6184 7.528-62.04-.184-7.9768-.656-26.7336-6.376-32.2016 3.28.8312 8.408 2.16 10.832 4.616 7.68 20.1328 4.448 58.0848.528 79.196-2.944 15.8824-7.408 31.5344-10.648 47.372-2.904 14.2048-4.968 28.4936-7.208 42.8128-3.456 22.1-7.888 45.1344-6.016 67.548.992 11.9608 3.872 23.4768 7.672 34.844 7.688 23.0328 17.504 45.544 26.8 67.9584 2.856 6.8832 6.128 13.6944 8.712 20.6752.36.9824.44 1.6584.344 2.7016-.688-.3472-1.312-.5336-2.064-.6648-13.08-2.2896-30.032 4.1448-39.632 13.0608-2.904 2.7-5.376 7.1032-8.6 9.2368-.192.1248-.384.2424-.576.3632-.48-3.172-8.152-14.3688-10.216-18.1888-7.064-13.076-13.768-26.4328-20.632-39.624-12.856-24.7368-23.872-42.9984-28.032-71.1504-.496-3.3392-1.016-6.8312-.12-10.1448 1.784-6.56 8.096-15.0184 11.6-21.1224 5.736-10.0024 11.08-20.6176 17.664-30.0944 5.112-7.3624 11.688-10.5264 20.312-12.0808l-.08-.712.608.5872c.8-1.2296.76-1.2144.576-2.6792-.368-.212-.232-.1608-.84-.2912-4.896-1.0608-13.216 3.7128-17.04 6.4032-7.472 5.2632-14.328 19.092-19.112 27.2312-6.296 10.7248-13.472 21.6664-18.776 32.92-16.5192 35.052-24.9064 72.7664-32.4896 110.5432-2.0776 10.3512-4.5432 20.6184-6.3008 31.0328-15.8736-1.0544-42.7216-7.7336-57.476-13.2248q4.2176-36.7912 9.0768-73.5032c1.7384-12.292 3.052-24.5216 6.088-36.5944 6.312-25.0944 16.06-48.8584 26.3688-72.516 14.6064-33.5184 30.8272-66.296 44.7728-100.0992 6.224 2.916 12.4 5.6096 19.016 7.504 8.32-21.1064 13.56-43.0456 13.352-65.8744-.144-15.1088-2.208-31.2352-13.44-42.2952 2.512-.3072 5.04-.5576 7.512-1.0824Z"/>
</svg>
