<svg xmlns="http://www.w3.org/2000/svg" viewBox="0 0 1024 819">
  <path fill="#3C3C68" d="M75.1154 240.8576c.4302.208.973.4368 1.351.7456 2.1109 1.7248 11.5976 26.9896 12.1416 30.6392-.832 1.572-1.628 1.832-3.1256 2.7408-.8872-.2408-1.5744-.4024-2.2824-1.0256-2.6864-2.3608-11.1077-26.0768-11.2792-29.8624.5751-1.6296 1.8398-2.3056 3.1946-3.2376ZM45.4562 178.316c.7725.2224 1.425.5328 2.1574.8648 2.413 3.0632 12.0378 25.6504 11.8505 29.2256-.0805 1.5368-1.3836 2.0672-2.4883 2.9368-1.192-.1168-2.11-.1648-3.0656-.9872-2.807-2.4136-11.0056-25.4424-10.9384-29.2928.484-1.3688 1.3476-1.9016 2.4844-2.7472Zm324.6294-42.7472c1.2408.2232 2.8176.7328 3.7072 1.668.4776.5024.2576.9584.2208 1.5944-1.7808 3.4544-7.3672 5.0656-10.7968 6.4904 2.0152 5.0632 9.0216 20.9208 7.6472 25.4512-.3952 1.304-.7648 1.6968-1.908 2.352-.5208-.036-.5968-.0056-1.152-.2424-3.0384-1.2944-4.0968-6.2984-5.0832-9.1688q-2.9632-8.2256-5.5656-16.572c-3.3048 1.412-7.48 3.4152-11.1744 2.4544-.9104-.2376-1.0792-.36-1.5376-1.116.0816-.7688.1608-1.4184.5224-2.1144 1.9368-3.732 20.46-9.356 25.12-10.7968ZM222.9168 116.08c.9984-.116 2.076-.2896 3.0792-.264 1.2216.0304 1.7064.3424 2.4496 1.248.2288 4.4072-.4976 32.3208-2.056 33.9912-.8376.8976-1.8032 1.3288-3.0224 1.2552-5.5744-.3336-14.5488-12.9016-18.264-17.1384-1.6336-1.7432-4.072-3.8424-5.0064-6.0512-.5696-1.348-.4032-2.1424.096-3.4744.6552-.556.7744-.8904 1.676-.9192 3.6208-.1144 15.284 14.028 18.548 17.0576.3816-4.492.52-23.0352 2.5-25.7048Zm35.8536-12.272c.4496.0896.9976.1616 1.404.3992.7944.464 1.6064 1.3096 1.8488 2.2056.9704 3.5904-1.2136 28.996-3.136 32.0712-.8232 1.3168-1.6728 1.948-3.1712 2.2696-5.456-.7608-14.7976-14.2544-18.8344-18.7336l-.316-.3688c-.952-1.1248-2.0768-2.2752-2.8632-3.5184-.6624-1.0456-1.0512-2.2536-.6536-3.4816.3968-1.224 1.1304-1.4552 2.236-1.832 5.3984.9112 14.8712 14.0672 18.6208 18.4768.176-5.736.3752-20.4752 2.0008-25.1656.524-1.5104 1.5288-1.6984 2.864-2.3224Zm29.0936-10.7616c.1024.0088.2056.0128.308.0264 1.58.2192 2.376.5296 3.3816 1.7408.1304.9992.3288 1.5256-.1872 2.448-1.8976 3.396-11.0528 5.196-14.652 6.2856 1.0544 2.6112 1.8336 5.3408 2.6736 8.0272 3.4088-1.4328 6.9832-3.2064 10.6112-3.9544 2.036-.42 3.8584-.6112 5.6392.5816-.0144.8152.0984.5952-.2504 1.208-2.272 3.9856-9.7896 5.5104-13.8672 6.7496l2.6184 7.3416c4.1056-1.228 8.1392-2.968 12.1488-4.4872 1.572-.5688 2.732-1.0256 4.416-.8456 1.1456.776 1.424.9408 2.0712 2.2232-.0712.5768-.1512 1.0624-.5008 1.5472-2.3808 3.304-16.6632 8.3048-20.7952 8.8416-.8088.1048-1.3224.0672-1.9488-.492-2.4008-2.1448-9.6344-25.172-9.6312-29.3392 1.9784-3.6664 14.0224-6.548 17.9648-7.9024Zm3.0296 101.952c5.12-1.7944 13.2408-7.5952 18.6984-5.9832 1.072 1.0864 1.0144 1.2944 1.2472 2.74-.4336 1.1968-.8048 1.5928-1.8888 2.28-3.3336 2.1128-19.068 8.256-22.4664 7.4832-.6072-.5672-.9104-.9792-1.2712-1.744-1.748-3.7128-8.8888-25.2872-7.812-28.2984 3.732-3.2744 15.5376-7.8432 20.5024-8.096 1.6536-.0848 2.4528.3512 3.6728 1.4072.1568.572.4832 1.0896.1832 1.6536-1.8584 3.4944-13.7704 6.6136-17.6808 8.1792l2.3928 7.5696c4.0696-1.6392 10.7392-5.3072 15.048-4.032.9856 1.0432 1.0344 1.1544 1.2664 2.572-1.1168 2.4768-3.1496 3.1568-5.5784 4.088-2.964 1.136-6.2032 1.9256-9.0504 3.3008 1.4648 2.0376 2.0144 4.5048 2.7368 6.88Zm-149.2432 24.152c2.7448-.2584 5.3608-.2296 7.976.7368 3.0112 1.112 5.6808 2.9248 6.9576 5.9824 1.1336 2.7152.9072 5.896-.344 8.5296-2.76 5.8072-8.7776 7.6208-14.3992 9.44l3.0824 8.3136c-.7672.808-1.8664 1.9504-2.9232 2.3408-1.2104.4472-1.9472.104-3.02-.4008-3.7368-4.5304-9.836-23.504-10.9592-29.7928 4.2312-2.828 8.6984-4.1112 13.6296-5.1496Z"/>
  <path fill="#F3F4EF" d="M142.588 225.1624c1.528-.0824 3.248-.2768 4.7184.22 1.1816.4 2.2608 1.1768 2.7912 2.3312.5424 1.18.3424 2.4576-.1112 3.6328-1.2112 3.1376-3.8632 4.3272-6.708 5.624-.9224.3192-1.848.5464-2.7928.7848-2.9848-1.6472-3.9624-7.288-5.2208-10.4328 2.4048-.9264 4.8224-1.5512 7.3232-2.16Z"/>
  <path fill="#3C3C68" d="M334.1528 148.3432c.9144.0352 1.5832.1976 2.4456.4992 1.5192 1.74 2.44 3.8264 3.3032 5.952 1.9272 4.7472 8.9656 21.2744 7.1664 25.4824-.7608.6144-.96.9328-1.9616 1.1024-4.7328.8-21.8896-10.5648-26.2904-13.7784 1.5712 4.6688 7.2112 16.2408 6.0544 20.6528-.3896 1.484-1.528 1.9904-2.696 2.8064-1.4984-.7896-2.6184-1.5144-3.5176-2.9872-.8432-1.38-7.9816-23.348-8.4728-25.7112-.2992-1.4416-.3144-2.4168.0664-3.8352.5992-.6104.7648-.9776 1.6296-1.1808 5.1384-1.2048 21.6872 11.6184 26.5952 14.7192-1.2464-5.1352-7.5928-16.9128-6.6336-21.4664.2472-1.1736 1.388-1.612 2.3112-2.2552Zm-217.8136 5.3872c2.2664.2064 4.188.5008 6.2896 1.476 2.8936 1.344 5.452 3.2568 6.4512 6.432.8976 2.8528.2984 6.0904-1.1024 8.6736-3.04 5.6056-8.6064 7.5312-14.2952 9.3816.8768 1.9 1.9976 3.9624 2.448 6.0072.4272 1.9408-.1472 2.94-1.2144 4.5408-.7832.1664-1.6504.1888-2.4496.2728-.66-.2312-1.1936-.4392-1.6864-.9568-3.2768-3.4416-10.3752-24.74-10.2456-29.8352 3.4952-3.1272 11.1632-5.4144 15.8048-5.992Z"/>
  <path fill="#F3F4EF" d="M113.9512 160.5576c1.7344-.152 3.6208-.3368 5.2752.344 1.2088.4984 2.2728 1.4888 2.7432 2.7232.4976 1.3032.2504 2.8368-.3176 4.0768-1.1624 2.536-3.368 3.3688-5.772 4.3512l-4.504 1.7424c-1.1792-3.6096-2.5416-7.1704-3.8344-10.7416 2.0808-.9624 4.2592-1.7048 6.4096-2.496Z"/>
  <path fill="#3C3C68" d="M326.8176 78.4198c.32.0044.6392.0117.9584.0313 1.084.0667 1.9032-.0778 2.6136.8396 2.8648 3.7013 10.4152 24.5285 9.9296 28.7197-.1872 1.6136-.8144 2.3072-2.0552 3.2664-1.2968.2336-2.1968.252-3.4552-.1952-5.7144-2.0328-18.0256-11.4432-24.232-15.0856 2.6032 5.796 7.936 16.5024 6.7488 22.7712-.9872.2712-2.064.6256-3.0792.744-.884.1032-1.7744-.1168-2.3504-.8288-1.2856-1.5904-9.2568-26.6408-9.0224-29.1112.1424-1.5032.7432-2.1088 1.9048-2.9744 5.9008-1.164 21.1384 11.0568 26.8712 14.4136-2.0304-5.9432-6.1336-12.7328-6.5328-19.0112-.0992-1.564.728-2.4545 1.7008-3.5794ZM86.8312 163.9352c.984.1432 1.904.4584 2.848.7584 2.0856 2.1592 9.9784 22.9104 10.3168 26.2896.164 1.632.0184 2.6512-1.0552 3.8968-1.3728.3656-1.544.3224-2.9056-.1096-3.8976-3.6344-6.0376-12.3208-8.1144-17.3768-.6152 3.8832-.98 8.8928-3.3048 12.184-.916 1.2976-2.2272 2.2424-3.8432 2.3768-4.4422.3696-9.4284-4.6416-12.6826-7.268l3.6662 9.2392c.8987 2.2936 2.5611 5.4736 2.5504 7.9648-.0063 1.4488-.4229 1.9656-1.35 3.0128-1.2913.5008-1.7747.66-3.1202.3272-2.3601-2.088-9.2668-21.9296-10.513-26.024-.4306-1.4152-.9343-2.8008-.0418-4.1344.6655-.9944 2.0973-1.6568 3.2484-1.8112 3.9861-.5344 13.7258 9.4784 16.9079 12.1312 1.5515-6.0048 2.6355-17.5192 7.3931-21.4568Zm25.4944 64.5848c1.4872-.0552 3.4944-.1936 4.8224.564.6968.3968 1.3072 1.036 1.7216 1.7176 1.6944 2.7872 9.6856 21.028 10.268 23.9176.3336 1.6552.0976 2.4584-.8344 3.828-1.3968.716-1.5136.8104-3.1584.596-4.4832-2.8464-7.2008-12.6912-9.188-17.4984-.7024 3.8232-1.16 9.24-3.3496 12.4784-.704 1.0424-1.8152 1.8872-3.0896 2.0392-4.0208.4792-8.716-3.9216-11.7512-6.2424l2.6256 5.9672c1.1408 2.5376 2.5312 5.2112 3.2648 7.8904.4576 1.6696.4032 2.7416-.4792 4.2192-1.1016.752-1.5552.892-2.8888.9248-1.892-.72-2.796-2.1632-3.7192-3.9048-2.7136-5.1208-10.1984-22.7504-8.6432-27.716.5872-.572.7216-.9544 1.5784-1.036 4.524-.4288 14.2016 9.5928 17.7144 12.6464 1.4056-6.3656 1.9664-14.6944 5.1064-20.3912Zm148.4936-52.9648c1.42-.1056 3.2216-.2856 4.492.4864.6584.4 1.284 1.0224 1.6752 1.6848 1.132 1.9168 9.1896 22.6344 9.6928 24.8152.4528 1.9616.6352 3.5088-.464 5.2536-1.356.6272-1.6768.528-3.1144.3696-2.7568-1.828-7.608-16.2384-9.9248-20.3248-1.596 4.3048-2.224 9.1848-4.1136 13.3216-.6656 1.4576-1.4744 2.992-3.0992 3.5208-4.1416 1.3488-10.3416-6.8312-14.0256-8.6712l-.3496.4032.5928 1.2776c.0544.132.1096.2632.1616.396 1.5216 3.8712 6.6568 15.3896 5.1264 18.9048-1.0824.928-1.1784 1.0728-2.6664 1.2376-.728-.2984-1.3288-.5624-1.8968-1.1248-2.9296-2.9048-10.4144-25.2752-10.2832-30.0072.7432-1.352.836-1.5352 2.2592-2.3208 5.832-.3008 13.952 8.4344 18.684 11.86 1.5632-6.2216 3-16.232 7.2536-21.0824Zm-112.8504-32.916c.9976-.0496 2.0384-.1168 3.0376-.0424 3.4048.2544 6.8592 1.6928 8.9984 4.436q.2992.3808.5576.7896.2584.4088.4744.8424.2152.4328.3856.8856.1704.4528.2936.9208.1232.468.1976.9464.0752.4784.1008.9616.0256.4832.0016.9664t-.0968.9616c-.6168 4.1464-3.0768 6.2176-6.2032 8.6008 3.3488 1.168 7.8552 1.348 10.848 3.1792 1.2984.7944 1.536 1.3208 1.9536 2.7472-.2944 1.0864-.2696 1.4216-1.356 1.9616-3.7456 1.8608-14.744-2.7744-18.5968-4.0912-.7752-.0936-1.368-.0192-2.1336.1216-.8488 3.196 2.5696 6.9432 1.78 10.2624-.2168.9104-.5352 1.0048-1.2696 1.4768-1.2944.096-2.1616.1848-3.376-.4-3.6384-3.9832-10.028-23.0896-11.7376-29.1712 4.444-3.36 10.8088-5.0264 16.1408-6.3552Z"/>
  <path fill="#F3F4EF" d="M149.376 149.1176c1.4584-.0968 2.8032-.2064 4.1424.4904.8408.4384 1.5096 1.1408 1.7736 2.052.3928 1.3568-.0104 2.5736-.6848 3.7672-2.1776 3.8568-5.0128 4.5712-8.9968 5.6112-.7728.24-.8344.1448-1.5848-.0264-1.764-2.6408-2.7448-5.9664-3.8736-8.9304 3.0496-1.1392 6.0808-2.1152 9.224-2.964Z"/>
  <path fill="#3C3C68" d="M174.436 206.6144q2.3168-.2704 4.6448-.1328c3.1704.1864 6.392 1.9072 8.4 4.3528q.3456.416.6464.8656.3016.4496.5544.9272.2528.4784.4552.98.2024.5016.352 1.0216.1488.52.244 1.0528.0952.532.1344 1.072.04.5392.0232 1.08-.016.5408-.088 1.0768c-.5616 4.0168-2.9592 6.1528-5.9952 8.4624 3.788 1.2936 8.488 1.54 11.9184 3.3832.8848 1.2032.7944 1.4312.8264 2.8688-.4384.7608-.4728 1.0928-1.2872 1.5136-3.84 1.9816-13.5792-2.352-17.5248-3.4984-.9424-.196-1.7728-.2576-2.7344-.2568-2.5704 2.7632 2.1528 7.5768 1.0112 10.9144-.2512.7344-.6456.972-1.3704 1.264-.8984.3624-2.1736.0536-3.0216-.2528-3.9416-4.8176-11.0224-24.7432-10.6416-30.7696 2.0416-3.2776 9.8568-4.9224 13.4528-5.9248Z"/>
  <path fill="#F3F4EF" d="M175.4008 212.6144c1.644-.0664 3.236-.1696 4.7992.4464 1.1544.4544 2.1848 1.2312 2.6472 2.4192.5208 1.336.1848 2.8152-.368 4.0816-1.4432 3.3096-3.9944 4.3616-7.1112 5.6552-.9784.2792-1.82.4216-2.836.476-2.912-1.8264-3.6112-6.908-4.492-10.0544 2.3864-1.1744 4.8784-2.08 7.3608-3.024Z"/>
  <path fill="#3C3C68" d="M181.7368 130.644c3.9336-.3016 7.3704-.116 10.8904 1.8712 4.032 2.2768 6.8128 6.208 8.0152 10.632 1.24 4.5624.8024 9.8136-1.7296 13.8664-2.5464 4.0776-6.2392 5.936-10.7216 6.996-3.848.264-7.4888-.0592-10.9512-1.8832-3.8352-2.0192-6.5848-5.4528-7.9024-9.5704q-.132-.408-.2424-.8216-.1112-.4144-.2016-.8328-.0904-.4192-.1592-.8424-.0696-.4232-.1176-.8488t-.0744-.8536q-.0264-.428-.032-.856-.0048-.4288.0112-.8576.016-.428.0536-.8552.0376-.4264.0968-.8512.0592-.4248.1392-.8456.08-.4208.1808-.8376.1008-.4168.2224-.8272.1224-.4112.264-.8152.1424-.4048.3048-.8016.1616-.3968.344-.7848.1816-.388.3824-.7664c2.4848-4.6624 6.3336-7.0744 11.2272-8.6144Z"/>
  <path fill="#F3F4EF" d="M181.9568 137.096c1.92-.2416 3.8184-.4 5.6728.2896 2.7464 1.0224 4.9576 3.3576 6.1024 6.024 1.1952 2.7864 1.3344 6.004.0936 8.7984-1.2672 2.8552-3.524 4.3008-6.3432 5.3808-1.2808-.0016-2.6464.0368-3.904-.2312-2.8816-.6128-5.6336-2.76-7.0928-5.2896q-.2544-.4344-.464-.892-.2104-.4584-.3736-.9344-.164-.476-.2792-.9664-.1152-.4904-.1816-.9896-.0664-.4992-.0832-1.0024-.0168-.5032.0168-1.0064.0336-.5024.1168-.9992.0832-.496.2152-.9824c.9888-3.56 3.42-5.5192 6.504-7.1992Z"/>
  <path fill="#3C3C68" d="M356.3832 69.1591c2.8936-.3335 6.0608.0108 8.8048.9999 4.0496 1.46 7.0896 4.2615 8.8912 8.1865 1.8016 3.9233 2.0272 8.6985.34 12.6849-2.8008 6.6144-9.1808 9.972-15.4968 12.5088-1.6056.5744-4.4584 1.8176-6.1528 1.3048-1.0808-.3272-1.8472-1.8464-2.32-2.8104-1.7848-3.64-9.8656-24.7426-8.9952-27.2413 3.3016-3.447 10.3856-4.8158 14.9288-5.6332Z"/>
  <path fill="#F3F4EF" d="M355.1896 75.6182c1.8336-.1268 3.9712-.2503 5.7848.1148 2.4264.4884 4.8128 2.2133 6.1472 4.2814q.26.4064.4776.836.2176.4304.392.88.1736.4496.3016.9144.1288.464.2096.9392.0816.4752.1152.956.0336.4816.0192.9632t-.0776.96q-.0624.4776-.172.9472c-.9896 4.2304-3.7104 6.1432-7.1904 8.2552l-5.208 1.9096c-2.096-6.5472-4.4352-12.9704-6.8472-19.406l6.048-2.551Z"/>
  <path fill="#3C3C68" d="M210.9432 193.6104c3.5896-.2288 6.6224.1392 9.8368 1.8368q.4104.22.8096.46.3992.2408.7856.5008.3864.26.7592.5392.3728.2792.7312.5768.3584.2976.7008.6128.3432.316.6696.648.3264.332.636.6808.3088.348.6008.7112.2912.364.564.7416.2728.3776.5256.7688.2536.3904.4872.7936.2328.4032.4456.8176.2128.4152.4048.8392.1912.4248.3608.8584.1704.4344.3176.876.148.4416.2736.8904.1208.4104.2208.8256.1.416.1784.836.0792.42.136.844.0576.4232.0936.8496.0352.4256.0496.8528.0144.4272.0072.8552-.008.4272-.0368.8536t-.0792.8512q-.0512.424-.1232.8456-.072.4216-.1648.8384-.0936.4176-.208.8296-.1144.412-.2488.8176-.1352.4056-.2904.804-.1552.3976-.3312.788-.1752.3896-.3696.7704-.1952.38-.4088.7504c-2.616 4.488-6.4592 6.5512-11.268 7.8416-3.7888.1704-7.18-.1568-10.588-1.9544q-.3944-.2072-.7776-.4344-.384-.2272-.756-.4728-.3712-.2456-.7304-.5088-.3592-.264-.7048-.5448-.3464-.2816-.6776-.58-.3312-.2976-.6472-.612t-.616-.6432q-.3-.3296-.584-.6736-.2832-.344-.5488-.7016-.2664-.3576-.5144-.728-.248-.3704-.4768-.7528-.2296-.3816-.4392-.7752-.2104-.3928-.4-.796-.1904-.4032-.3608-.8152-.1696-.412-.3192-.832-.1496-.4192-.2776-.8464-.12-.4088-.22-.8224-.0992-.4144-.1784-.8328t-.1376-.8408q-.0584-.4216-.0952-.8464-.0376-.424-.0544-.8496-.016-.4256-.0112-.8512.0048-.4264.0304-.8512.0256-.4256.072-.8488.0472-.4232.1144-.844.068-.42.156-.8368t.1968-.8288q.1088-.412.2376-.8176.1288-.4056.2776-.8048.1496-.3992.3176-.7904.168-.3912.356-.7736.1872-.3824.3936-.7552c2.6976-4.876 6.8128-6.8864 11.8976-8.34Z"/>
  <path fill="#F3F4EF" d="M212.1976 200.1368c1.4648-.044 3.0568.1144 4.432.648q.512.1936 1.0008.4384.4888.2448.9496.5392t.8888.6352q.428.3408.8184.724.3904.3824.7392.804.3488.4216.652.8768.3032.4552.5576.9392.2544.484.4576.992.2056.5232.3584 1.0648.152.5408.2488 1.0952.0968.5536.1376 1.1144.0408.5608.0248 1.1224-.016.5624-.0888 1.12-.0728.5576-.2008 1.1048-.1288.5472-.3112 1.0792-.1832.532-.4184 1.0424c-1.4504 3.1328-3.6592 4.6048-6.7448 5.8024-1.7952-.0448-3.5224-.224-5.2128-.8784-2.808-1.0856-5.2048-3.3696-6.3504-6.1616-1.0792-2.6296-1.0152-5.7632.2504-8.3176 1.668-3.364 4.4336-4.7176 7.8112-5.7848Z"/>
  <path fill="#3C3C68" d="M730.6752 261.9864c-7.78-10.716-11.76-10.876-23.3824-15.5784l-.004-.9224c1.844-1.5944 6.6496-1.9944 9.196-3.2352 11.7392-5.7224 14.5032-15.4192 18.512-26.8152.5-1.4208.8576-2.4912 2.2448-3.148 1.0176.8824.8696 1.6984 1.0736 3.0016 2.2288 9.42 5.1728 18.0536 13.8496 23.42 1.7648 1.092 3.6504 2.0448 5.5072 2.9712 2.3632.5344 6.5312.9024 8.244 2.6312-.3192 1.156-.9072 1.5376-1.9656 2.0976-4.2104 2.2296-8.0864 3.5904-12.0144 6.496-4.792 4.7672-7.656 10.3032-10.2496 16.5-.6912 3.188-1.0456 9.392-3.8552 11.2576-.7472-.092-1.056.0744-1.536-.5656-.6744-.8976-.6552-2.3696-.7624-3.4512-1.0584-5.128-2.7008-9.8912-4.8576-14.6592Z"/>
  <path fill="#F3F4EF" d="M714.4264 246.1776c8.5008-3.74 15.2016-10.1128 18.7856-18.8 1.2352-2.9944 2-6.1832 3.4648-9.0784l.6088.1264c1.0848 8.4696 4.8824 15.8776 11.6896 21.1744 2.2 1.7112 4.5512 2.796 7.1096 3.8624l4.7016 1.5504c-4.356 2.0288-8.1992 4.032-11.64 7.444-4.4776 4.4848-8.664 11.1856-9.8544 17.4816-.4064 1.2648-.8016 2.5096-1.3384 3.7264l-.4432-.1288-.2224-.4224c-.9304-4.2848-2.6608-8.3712-4.5792-12.296-4.2568-7.4192-10.6136-11.356-18.2824-14.64Z"/>
  <path fill="#3C3C68" d="M667.2304 153.496c1.2768-2.7512 2.5128-5.4624 3.352-8.3832.7936-2.7584 1.2728-6.1368 2.4936-8.7024.4928-1.0352.6304-1.2944 1.5952-1.8928 3.7032 3.8272.504 17.576 15.704 29.0976 4.7288 3.06 9.196 4.8512 14.7288 5.8848 1.9064.1312 2.948.0576 4.5944 1.104l.3616 1.0184c-.9224 1.3048-1.8016 1.6728-3.3912 1.9472-.1984.0336-.3976.0632-.5968.0944-9.9928 2.6312-18.6464 6.8128-23.9664 16.056-1.4592 2.536-2.7064 5.356-3.6064 8.1424-.9792 3.0312-1.78 11.9136-4.8136 12.9544-1.1576-.9096-1.34-2.4584-1.6872-3.8208-.144-.6336-.2912-1.2544-.468-1.8792-3.2488-11.5128-9.2288-23.552-21.4544-27.6528-3.7624-1.2624-8.3536-1.6752-11.7968-3.5856.1144-.2744.1408-.6064.3448-.8232 1.3336-1.4112 4.9744-1.4816 6.8048-2.1264 8.9728-3.16 16.3984-9.8048 21.8016-17.4328Z"/>
  <path fill="#F3F4EF" d="M669.2408 154.9768c2.0296-4.0336 3.7224-8.0888 5.3408-12.2992 2.0544 9.264 6.9144 17.9016 15.0512 23.1848.2912.1888.5896.3664.888.5432 2.9464 2.044 6.4896 3.992 10.048 4.6568l1.5104 1.0736c-9.0296 2.1392-16.7616 7.2848-21.6824 15.2416-3.1272 5.0544-4.9416 10.8552-6.1736 16.6336-2.6576-4.9312-3.7384-10.5848-6.7304-15.5216-5.168-8.5296-12.9048-12.8944-22.38-15.2648 10.4256-3.2248 18.1352-9.26 24.128-18.248Z"/>
  <path fill="#3C3C68" d="M290.8712 440.972c.8808.016 1.7048.156 2.5728.2968 2.6248 2.4336 5.176 17.044 7.1616 21.7024 5.1168 12 17.824 23.7344 30.2248 27.6728 3.2368 1.028 7.9992.816 10.8376 2.1704.8384.4.8392.6696 1.0808 1.488-2.8744 3.9168-10.9576 6.3952-15.1944 8.9672-12.8096 7.7744-23.696 19.244-28.084 33.8472-1.4416 4.7976-1.9368 9.7232-3.104 14.5712-.64-.0096-1.5064.0536-2.116-.1224-.1216-.0352-1.0192-.3896-1.1688-.5824-1.2216-1.58-1.8176-8.1344-2.4656-10.3512-2.112-7.2288-5.5624-14.4304-10.4488-20.1944-6.5256-7.6968-16.4952-14.2608-26.1768-17.2656-2.6856-.8336-8.032-1.5984-9.5208-4.192.2488-1.0048.2896-1.1608 1.2352-1.7272 5.4272-3.2512 12.2192-4.3112 18.056-8.2112 17.1832-11.4816 23.14-28.7704 27.1104-48.0696Z"/>
  <path fill="#F3F4EF" d="M292.5648 451.8936c1.888 3.3904 2.4296 7.9584 3.8672 11.6256 6.3496 16.1976 20.556 25.9072 35.9272 32.4144-14.0688 6.4552-25.3944 16.2304-32.7424 29.96-1.856 3.468-2.7872 7.4264-4.676 10.816l-.3576.6272c-9.6496-20.424-19.1936-30.3832-40.5664-38.6896 2.5608-.9328 5.0024-2.008 7.3952-3.3176 18.0272-9.868 25.5216-24.5448 31.1528-43.436Z"/>
  <path fill="#A4C6C9" d="M144.8504 627.8264c13.4 33.1472 31.5104 62.684 54.6712 89.9024 4.336 5.0944 9.4136 12.484 15.7016 15.0976 2.1336.8864 4.4408 1.0048 6.5696.0456 3.1832-1.4336 4.8352-5.9144 5.8888-9.012 3.1536-9.2728 5.6736-18.932 8.2656-28.38 1.2984-4.7312 2.3688-9.6176 4.148-14.1896q7.3064 5.4288 14.8216 10.5664 7.5144 5.1384 15.2248 9.976 7.7112 4.8384 15.6056 9.3696 7.8952 4.5304 15.9624 8.748 8.0664 4.2168 16.2936 8.1128 8.2264 3.8968 16.5992 7.4664 8.3736 3.5704 16.8808 6.808 8.5072 3.2376 17.1352 6.1384c12.2584 4.2264 25.004 8.4112 37.6776 11.1512-11.2192 3.9528-23.0632 5.2288-34.7904 6.8528q-19.6992 2.828-39.5296 4.5008t-39.7248 2.1848c-61.004 1.4248-121.0928-3.404-179.4792-22.052-24.852-7.9384-51.7945-19.3808-70.869-37.7904-7.8401-7.5664-16.1472-18.576-18.25-29.4224-.7243-3.736-.6277-7.6704-.6776-11.4656 6.4415-2.9656 13.4607-5.1624 20.1217-7.6184q19.0334-7.1496 38.2605-13.7608c11.3944-3.9528 22.5048-8.608 33.808-12.7976 9.836-3.6464 19.8472-6.7992 29.6848-10.432Z"/>
  <path fill="#F9827A" d="M893.272 219.8032q1.752-.0936 3.512-.1168 1.24-.024 2.472-.0176 1.24.0064 2.48.044 1.24.0376 2.472.1064 1.24.0688 2.472.168 1.232.0992 2.464.2296 1.232.1296 2.464.2904 1.224.1616 2.448.3528t2.44.4136q1.216.2216 2.432.4736 1.208.2528 2.416.5352t2.408.5944q1.192.3128 2.384.6552t2.368.7144q1.184.372 2.36.7728 1.168.4016 2.328.832 1.16.4304 2.312.8896 1.152.4592 2.288.9472 1.136.488 2.264 1.004t2.24 1.06q1.112.544 2.208 1.1152 1.096.572 2.184 1.1712 1.08.5984 2.152 1.2248 1.064.6256 2.12 1.2776 1.048.652 2.088 1.3304 1.032.6784 2.056 1.3824 1.016.704 2.016 1.4336 1 .7288 1.984 1.4832.984.7536 1.944 1.532.968.7784 1.912 1.58.944.8024 1.864 1.628.92.8248 1.824 1.6736.904.848 1.784 1.7184.8.7928 1.576 1.6048t1.536 1.6432q.752.8304 1.488 1.68.736.8488 1.456 1.716.712.8664 1.408 1.7512.696.884 1.368 1.7848.672.9008 1.32 1.8176.648.9168 1.28 1.8496.624.9328 1.232 1.8808.6.948 1.184 1.9096.584.9624 1.136 1.9384.56.9768 1.096 1.9656.528.9896 1.04 1.992.504 1.0024.992 2.0168t.944 2.0408q.456 1.0256.896 2.0624.432 1.0368.84 2.084.408 1.0472.792 2.104.384 1.0568.736 2.1232.36 1.0656.688 2.14.336 1.0744.64 2.1568t.584 2.1712q.272 1.0896.528 2.1848.248 1.096.472 2.1976.224 1.1016.424 2.208.192 1.1072.368 2.2184.168 1.1112.312 2.2256.144 1.1152.256 2.2336.12 1.1184.208 2.2392.088 1.12.144 2.2432.064 1.1224.096 2.2456.032 1.124.04 2.248c.168 24.3768-10.736 49.1888-27.808 66.3528q-.864.8688-1.744 1.7152-.88.8472-1.784 1.672-.896.8248-1.824 1.6272-.92.8024-1.856 1.5816-.944.78-1.904 1.5352-.96.756-1.944 1.488-.976.732-1.976 1.4392-.992.708-2.008 1.3904-1.016.6824-2.04 1.34-1.032.6576-2.08 1.2896-1.048.6312-2.104 1.2368-1.064.6056-2.144 1.1856-1.072.5792-2.168 1.1312-1.088.5528-2.192 1.0784-1.104.5248-2.216 1.0232-1.12.4976-2.248.968-1.128.4704-2.264.9128-1.144.4424-2.288.856-1.152.4144-2.312.7992-1.16.3856-2.328.7424-1.168.3568-2.344.684-1.184.328-2.368.6264-1.184.2984-2.376.568-1.192.2688-2.392.508-1.192.24-2.4.4496-1.2.2096-2.416.3904-1.208.18-2.416.3296-1.216.1504-2.432.2704-1.216.12-2.432.2104-1.224.0896-2.44.1496-1.224.06-2.448.0896-1.216.0304-2.44.0296-1.152.0264-2.304.0272-1.16 0-2.312-.0256-1.152-.0264-2.304-.0784-1.152-.0528-2.304-.1312-1.152-.0784-2.296-.1832-1.152-.1048-2.296-.2352-1.144-.1312-2.288-.288-1.144-.1568-2.288-.34-1.136-.1824-2.272-.3912-1.136-.2088-2.264-.444-1.128-.2344-2.248-.4944-1.128-.2608-2.248-.5464-1.112-.2864-2.224-.5976-1.112-.3112-2.216-.6472-1.104-.3368-2.2-.6984-1.096-.3616-2.184-.748-1.08-.3864-2.16-.7976-1.08-.4112-2.144-.8464-1.072-.436-2.128-.8952-1.056-.46-2.104-.944-1.048-.4832-2.088-.9912-1.032-.5072-2.056-1.0384t-2.04-1.0848q-1.008-.5544-2.008-1.1312-1-.5776-1.984-1.1768-.984-.6-1.96-1.2224-.968-.6216-1.928-1.2656t-1.896-1.3096q-.944-.6656-1.872-1.3528-.928-.6864-1.84-1.3944-.912-.708-1.8-1.4368-.896-.728-1.776-1.4768c-18.12-15.544-30.5872-39.016-32.3288-62.984q-.0808-1.1496-.1336-2.3008-.052-1.1512-.076-2.3032-.024-1.1528-.02-2.3048.0048-1.1528.0368-2.304.0328-1.152.0936-2.3032.0608-1.1504.1504-2.3.0896-1.1488.2064-2.2952.1176-1.1464.264-2.2896.1456-1.1432.3192-2.2824.1736-1.1392.3752-2.2736.2016-1.1344.4312-2.264.2296-1.1296.4872-2.2528.2568-1.1232.5424-2.24.2848-1.1168.596-2.2256.312-1.1096.656-2.2104.336-1.1016.704-2.1944.368-1.0928.76-2.176.392-1.0832.808-2.156.424-1.0736.872-2.136.44-1.0624.912-2.1136.472-1.0512.976-2.0904.496-1.04 1.016-2.0664.528-1.0272 1.072-2.0408.552-1.0128 1.12-2.0128.576-1 1.176-1.9856.592-.9848 1.216-1.9552t1.264-1.9256q.648-.9544 1.312-1.8928.672-.9392 1.36-1.8608.696-.9216 1.408-1.8264t1.448-1.7912q.736-.8872 1.496-1.7552c11.256-12.8824 29.888-24.5088 46.392-29.3232 8.888-2.5952 17.8-3.6312 27.016-4.2248Z"/>
  <path fill="#F3F4EF" d="M934.24 259.812c5.696-.7112 11.704.3872 16.392 3.8248 3.56 2.6128 6.08 6.5352 6.688 10.9408q.08.5432.112 1.0904.04.548.04 1.0968t-.04 1.096q-.048.5472-.128 1.0896-.08.5432-.2 1.0784-.12.536-.272 1.0616-.16.5248-.36 1.0376-.192.5128-.424 1.0104c-2.336 4.9048-6.328 9.4592-9.368 13.98-12.488 18.5688-26.024 36.6808-39.392 54.6472-3.696 4.9752-11.944 17.2752-16.656 20.6408-1.904 1.3552-4.376 2.1072-6.672 2.4176-16.368 2.2136-23.336-13.4056-34.352-21.7616a13.505 13.505 0 0 1-.272-.2008c-1.16-4.4112-16.416-18.8448-19.64-26.0416q-.176-.392-.336-.7928-.16-.4008-.296-.8096-.136-.408-.248-.8224-.12-.4144-.216-.8344-.096-.42-.168-.844-.072-.424-.128-.8512-.048-.428-.08-.8568-.032-.4296-.04-.86t0-.8608q.016-.4304.048-.86.032-.4288.088-.856.056-.4272.136-.8504.08-.424.176-.8432.096-.4192.216-.8328.12-.4136.256-.8208.144-.4072.304-.8064.16-.4048.336-.8016.176-.3968.376-.784.2-.3872.416-.764.216-.3768.448-.7416.24-.3656.496-.7184.248-.3528.52-.692.272-.34.56-.6648.288-.3256.592-.636t.624-.6056q.32-.2944.656-.5728.336-.2776.68-.5384.352-.2608.712-.504.36-.2432.728-.468.376-.224.76-.4296.384-.2056.776-.3912t.792-.3512q.384-.1648.784-.3104.392-.1448.792-.2704.4-.1256.808-.2312.408-.1048.816-.1896.408-.0856.824-.1496.416-.064.832-.108.424-.0432.84-.0656.416-.0232.84-.0248.416-.0016.84.0184.416.0192.832.0592.424.04.84.1016.416.0608.824.1424.416.0816.816.184.408.1016.816.224.4.1224.792.2648.4.1424.784.304c5.824 2.488 23.864 17.096 26.072 22.4632 3.44-1.828 6.536-7.1232 8.92-10.2808 8.72-11.5544 17.056-23.384 25.784-34.94 4.112-5.4544 8.112-11.5184 13.144-16.172 2.624-2.4264 5.056-3.6928 8.36-4.9624Z"/>
  <path fill="#A4C6C9" d="M936.528 267.3144c.984-.0392 2-.0616 2.984.06 2.768.3432 5.888 2.0192 7.52 4.312 1.272 1.7824 1.776 3.744 1.432 5.8928.008.18.016.36.016.5392-.048 1.7952-57.432 80.6016-62.584 85.5912-1.584 1.5392-3.672 2.46-5.912 2.3464-8.384-.428-25.648-23.348-31.064-29.62-3.256-3.7528-7.344-7.7344-9.616-12.16-1.224-2.3864-1.832-4.9072-.88-7.5096.656-1.7736 1.832-3.2928 3.632-3.98 2.504-.9592 5.48-.1536 7.792.9416 4.808 2.272 26.904 24.1864 28.52 28.6928 5.192-2.736 37.176-48.948 42.744-56.9768 3.616-5.2224 7.072-11.8656 11.52-16.2928 1.112-1.1112 2.4-1.4672 3.896-1.8368Z"/>
  <path fill="#F9827A" d="M648.656 340.6664c-1.1544-1.736-1.552-2.9584-1.7632-5.0288.4136-1.0296.6456-1.5456 1.7424-1.9616 2.3352-.888 5.4568-.3504 7.8304.2512 7.4216 1.8792 14.84 5.6168 21.86 8.6568q34.1416 14.8464 66.8168 32.692c55.2736 29.9896 108.8096 68.3648 148.9216 117.2832 2.64 3.216 12.488 14.5664 13.264 17.1424.04.1296.048.2664.072.4.152-.0416.312-.0824.464-.1264 11.04-3.1152 47.984-21.8304 55.712-20.6056 1.16.8864 1.448 3.1816 1.656 4.5928.896 6.2232.016 13.0416-.296 19.3272L963.4 542.864l-4.336 69.5792c-.656 9.304-.936 18.7696-1.936 28.0264-.184 1.664-.432 3.8008-1.4 5.1936-1.536 2.2208-4.856 3.352-7.432 3.6136-1.992.2024-3.992-.3144-5.872-.9088-13.888-4.3744-27.528-9.8712-41.28-14.6672-15.928-5.5536-31.968-10.7752-47.84-16.48q-32.024-11.6792-63.8176-23.9704c-6.3632-2.4104-28.2312-9.536-32.3712-12.7608-.9712-.7568-1.6552-2.0536-1.7352-3.2816-.0768-1.1736.3184-2.1928 1.104-3.0592 1.54-1.7 45.996-21.9096 50.788-24.1208-13.7264-11.7088-28.924-22.3248-44.2712-31.7848-4.6848-3.7624-10.8208-6.7144-16.0576-9.712q-15.1072-8.7384-30.7352-16.5056-15.628-7.768-31.7144-14.5344c-11.9584-4.9008-23.9624-9.8616-36.2472-13.8896-3.5976-1.1792-15.3912-3.9784-17.7264-6.1104-1.1048-1.0072-1.116-2.1376-1.164-3.5512l2.4456-3.1544c-.5752-4.3696 1.44-13.9264 2.4896-18.3976 1.992-6.6928 2.452-14.2808 3.6656-21.1936q6.048-35.1584 10.6992-70.528Z"/>
  <path fill="#3C3C68" d="M648.656 340.6664c-1.1544-1.736-1.552-2.9584-1.7632-5.0288.4136-1.0296.6456-1.5456 1.7424-1.9616 2.3352-.888 5.4568-.3504 7.8304.2512 7.4216 1.8792 14.84 5.6168 21.86 8.6568q34.1416 14.8464 66.8168 32.692c55.2736 29.9896 108.8096 68.3648 148.9216 117.2832 2.64 3.216 12.488 14.5664 13.264 17.1424.04.1296.048.2664.072.4.152-.0416.312-.0824.464-.1264 11.04-3.1152 47.984-21.8304 55.712-20.6056 1.16.8864 1.448 3.1816 1.656 4.5928.896 6.2232.016 13.0416-.296 19.3272L963.4 542.864l-4.336 69.5792c-.656 9.304-.936 18.7696-1.936 28.0264-.184 1.664-.432 3.8008-1.4 5.1936-1.536 2.2208-4.856 3.352-7.432 3.6136-1.992.2024-3.992-.3144-5.872-.9088-13.888-4.3744-27.528-9.8712-41.28-14.6672-15.928-5.5536-31.968-10.7752-47.84-16.48q-32.024-11.6792-63.8176-23.9704c-6.3632-2.4104-28.2312-9.536-32.3712-12.7608-.9712-.7568-1.6552-2.0536-1.7352-3.2816-.0768-1.1736.3184-2.1928 1.104-3.0592 1.54-1.7 45.996-21.9096 50.788-24.1208-13.7264-11.7088-28.924-22.3248-44.2712-31.7848-4.6848-3.7624-10.8208-6.7144-16.0576-9.712q-15.1072-8.7384-30.7352-16.5056-15.628-7.768-31.7144-14.5344c-11.9584-4.9008-23.9624-9.8616-36.2472-13.8896-3.5976-1.1792-15.3912-3.9784-17.7264-6.1104-1.1048-1.0072-1.116-2.1376-1.164-3.5512l2.4456-3.1544c12.4752 1.8592 27.4816 7.684 39.2568 12.2136 44.764 17.2192 84.3632 37.5496 123.4624 65.464 6.8632 4.9024 17.6792 11.7056 22.5272 18.552 1.072 1.5112 1.496 2.5832 1.144 4.3768-5.016 4.656-41.5648 20.276-50.572 25.164 23.504 9.0936 46.924 18.1576 70.724 26.484 30.816 10.7824 61.832 20.4776 92.264 32.3976 4.336 1.6984 11.272 3.3184 14.88 6.0392.24-.4624.52-.928.688-1.4256 1.608-4.9288 2.64-39.4408 3.096-47.1392l3.624-60.004c.624-10.176 1.608-20.48 1.832-30.6648.024-1.1848-.144-2.0664-.72-3.1096-.344.2304-.216.164-.616.3552-5.6 2.72-47.152 19.7152-50.216 18.7864-.24-.0712-.448-.2048-.664-.3208-1.68-.904-19.968-23.7728-23.64-27.8368q-6.552-7.3288-13.424-14.36-6.872-7.0312-14.04-13.752-7.176-6.7208-14.64-13.1168-7.464-6.3968-15.208-12.4568c-40.18-32.0256-91.4752-60.744-138.3504-81.5368-11.3704-5.0432-22.7936-10.1664-34.5536-14.2288Z"/>
  <path fill="#F9827A" d="M144.8504 627.8264c-8.0112-21.1096-14.0696-42.6432-16.9624-65.0696-8.4048-65.1496 8.3712-133.0968 48.7288-185.2368 34.7592-44.908 77.7856-72.9056 128.5616-96.6968 7.2336-3.3896 21.9352-11.0304 29.1928-11.64 1.284-.108 1.776.0008 2.7728.7904-.0064.4608.0144.9736-.1544 1.416-.632 1.6536-1.476 2.0632-2.9232 2.8776-.5976 2.1712-1.9272 5.2728-1.1432 7.444.8896 1.328 1.34 1.5952 1.2048 3.2272-2.5752 3.628-22.816 16.2024-28.1568 20.0216-4.82 3.4464-9.4152 7.148-13.9856 10.9168-17.1792 14.1664-33.8952 30.2112-47.7072 47.7176-33.988 43.0784-56.3376 100.3704-46.9704 155.6864 4.3248 25.5384 13.7544 49.3752 27.3824 71.3416 6.1696 10.612 13.5288 20.1072 21.5096 29.4048 45.8368 53.4032 113.3368 86.0528 180.4064 103.7792 21.5872 5.7056 43.6136 8.7584 65.7632 11.2184 93.8664 11.924 208.1288-8.0208 292.6872-50.7952 11.2312-5.6816 22.0312-11.8112 32.6152-18.6232 2.8-1.8 5.984-3.488 8.592-5.5016.08-.0592.136-.136.208-.204 6.36.4688 41.84 13.1648 45.688 17.1688.856.8912 1.04 1.4496 1.08 2.652-2.424 4.9752-9.416 9.2392-13.88 12.4456-33.584 24.1448-72.9576 41.3856-111.9088 54.86q-6.9384 2.3376-13.932 4.504-6.9936 2.1672-14.0376 4.1616-7.0448 1.9944-14.136 3.816-7.0912 1.8216-14.2248 3.4696-7.1336 1.6472-14.3056 3.1192-7.1712 1.472-14.3776 2.768-7.2056 1.296-14.4408 2.4152t-14.496 2.06q-7.26.9416-14.5416 1.7048-7.2816.7632-14.5792 1.348-7.2984.5848-14.608.9904-7.3104.4056-14.628.632-7.3176.2264-14.6392.2736-7.3208.0472-14.6408-.0848t-14.6352-.4432q-7.3144-.312-14.6192-.8024-16.992-.8624-33.892-2.8256-16.9-1.9624-33.6368-5.0176c-11.9896-2.2488-31.7584-5.2536-42.7848-9.4888-12.6736-2.74-25.4192-6.9248-37.6776-11.1512q-8.628-2.9008-17.1352-6.1384-8.5072-3.2376-16.8808-6.808-8.3728-3.5696-16.5992-7.4664-8.2272-3.896-16.2936-8.1128-8.0672-4.2176-15.9624-8.7488-7.8944-4.5304-15.6056-9.3688-7.7104-4.8376-15.2248-9.976-7.5152-5.1376-14.8216-10.5664c-1.7792 4.572-2.8496 9.4584-4.148 14.1896-2.592 9.448-5.112 19.1072-8.2656 28.38-1.0536 3.0976-2.7056 7.5784-5.8888 9.012-2.1288.9592-4.436.8408-6.5696-.0456-6.288-2.6136-11.3656-10.0032-15.7016-15.0976-23.1608-27.2184-41.2712-56.7552-54.6712-89.9024Z"/>
  <path fill="#3C3C68" d="M144.8504 627.8264c-8.0112-21.1096-14.0696-42.6432-16.9624-65.0696-8.4048-65.1496 8.3712-133.0968 48.7288-185.2368 34.7592-44.908 77.7856-72.9056 128.5616-96.6968 7.2336-3.3896 21.9352-11.0304 29.1928-11.64 1.284-.108 1.776.0008 2.7728.7904-.0064.4608.0144.9736-.1544 1.416-.632 1.6536-1.476 2.0632-2.9232 2.8776-12.16 4.156-23.0112 9.7024-34.344 15.6824-36.0192 19.008-71.1296 43.1512-98.0848 74.0512-7.3368 8.4104-14.5176 17.3696-21.0272 26.4224-2.6688 3.712-5.1584 9.2696-8.2592 12.4208-5.2272 9.1464-9.5664 18.6304-14.5496 27.8656q-1.1968 2.7888-2.3248 5.6056-1.1288 2.8168-2.1896 5.66-1.06 2.8432-2.0512 5.7112-.9912 2.868-1.9136 5.76-.9216 2.8912-1.7736 5.8032-.8512 2.9128-1.632 5.8456-.7816 2.932-1.4912 5.8824-.7104 2.9504-1.3488 5.9168-.6384 2.9672-1.2056 5.948-.5664 2.9816-1.0608 5.976-.4944 2.9936-.9168 5.9984-.4224 3.0056-.7712 6.02-.3496 3.0144-.6264 6.0368-.276 3.0216-.4792 6.0496-.204 3.028-.3336 6.06-.1304 3.032-.1872 6.0656-.0568 3.0344-.0408 6.0688.0168 3.0344.1064 6.068.0896 3.0336.252 6.064.1632 3.0296.3992 6.0552.236 3.0256.5448 6.0448.3096 3.0184.6912 6.0296.3824 3.0104.8368 6.0104.4544 3.0008.9808 5.9896.5272 2.988 1.1256 5.9632.5992 2.9752 1.2696 5.9344.6704 2.96 1.4128 5.9024.7416 2.9424 1.5544 5.8664.8128 2.9232 1.6952 5.8264.8832 2.904 1.8368 5.7848.9528 2.8808 1.9744 5.7384 1.0224 2.8568 2.1136 5.6888c15.4416 39.752 35.4312 72.3856 65.4992 102.6824q7.5104-22.5264 13.4704-45.5112c.1744-.9064.3504-1.8176.5936-2.7088.424-1.5592 1.0416-2.564 2.444-3.356 1.7072-.1104 2.1488.2536 3.6424 1.0128 17.9624 13.0176 35.8424 26.1432 55.4304 36.6696q11.7624 6.1848 23.8424 11.7248c4.5136 2.08 9.3056 3.948 13.6392 6.3688 10.5776 4.0568 21.6248 7.7248 31.9584 12.3144 2.836.4712 5.948 1.8328 8.6872 2.7368 6.712 2.2144 13.416 4.5728 20.1976 6.5624 16.5104 4.8448 33.4848 8.4448 50.3664 11.7248q4.656.8616 9.3256 1.6496 4.6696.788 9.3504 1.5016 4.6816.7136 9.3736 1.3536 4.692.6392 9.3928 1.204 4.7016.5656 9.412 1.056 4.7096.4904 9.4264.9064 4.7168.416 9.44.7568 4.7232.3408 9.4512.6064 4.7272.2664 9.4592.4576 4.7312.1912 9.4648.3072 4.7344.1168 9.4696.1576 4.7352.0408 9.4696.0072 4.7352-.0344 9.4696-.1432t9.4656-.2928q4.732-.184 9.46-.4432 4.728-.2584 9.452-.5928 4.7232-.3336 9.4408-.7424 4.7176-.4088 9.428-.892 4.7112-.4832 9.4136-1.0416 4.7016-.5576 9.3944-1.1904 4.6936-.632 9.376-1.3384 4.6816-.7072 9.3528-1.488 4.6704-.7808 9.328-1.6352 4.6576-.8552 9.3008-1.7832 4.6432-.9288 9.2712-1.9304 4.6288-1.0016 9.24-2.0768 4.612-1.0752 9.2056-2.2232 4.5944-1.1488 9.1696-2.3696 4.5752-1.22 9.1312-2.5136 4.5552-1.2928 9.0896-2.6576 4.5344-1.3656 9.0464-2.8024 4.512-1.4368 9.0008-2.9448 13.516-4.5248 26.744-9.8344 13.2272-5.3096 26.1216-11.3856 12.8912-6.076 25.4112-12.8968 12.512-6.8216 24.608-14.3648c4.168-2.6072 13.048-7.272 15.176-11.5336-2.576-1.8032-30.232-11.0808-34.368-11.9312-2.04 3.0528-14.144 9.928-17.808 12.084-21.3232 12.5344-44.1856 22.3864-67.3592 30.9176-99.152 36.504-220.5752 46.9224-323.3632 20.072-71.8576-18.7704-142.9648-56.5408-188.8264-116.264-5.7264-7.4576-11.3288-14.9248-16.0768-23.0576-25.432-43.56-34.6872-94.4232-21.6656-143.5536 14.9344-56.3456 54.7192-106.5832 101.1728-140.716 8.0248-5.8968 16.548-11.7816 25.1304-16.8288 4.8896-2.8752 10.0248-5.3128 14.9352-8.1632.8896 1.328 1.34 1.5952 1.2048 3.2272-2.5752 3.628-22.816 16.2024-28.1568 20.0216-4.82 3.4464-9.4152 7.148-13.9856 10.9168-17.1792 14.1664-33.8952 30.2112-47.7072 47.7176-33.988 43.0784-56.3376 100.3704-46.9704 155.6864 4.3248 25.5384 13.7544 49.3752 27.3824 71.3416 6.1696 10.612 13.5288 20.1072 21.5096 29.4048 45.8368 53.4032 113.3368 86.0528 180.4064 103.7792 21.5872 5.7056 43.6136 8.7584 65.7632 11.2184 93.8664 11.924 208.1288-8.0208 292.6872-50.7952 11.2312-5.6816 22.0312-11.8112 32.6152-18.6232 2.8-1.8 5.984-3.488 8.592-5.5016.08-.0592.136-.136.208-.204 6.36.4688 41.84 13.1648 45.688 17.1688.856.8912 1.04 1.4496 1.08 2.652-2.424 4.9752-9.416 9.2392-13.88 12.4456-33.584 24.1448-72.9576 41.3856-111.9088 54.86q-6.9384 2.3376-13.932 4.504-6.9936 2.1672-14.0376 4.1616-7.0448 1.9944-14.136 3.816-7.0912 1.8216-14.2248 3.4696-7.1336 1.6472-14.3056 3.1192-7.1712 1.472-14.3776 2.768-7.2056 1.296-14.4408 2.4152t-14.496 2.06q-7.26.9416-14.5416 1.7048-7.2816.7632-14.5792 1.348-7.2984.5848-14.608.9904-7.3104.4056-14.628.632-7.3176.2264-14.6392.2736-7.3208.0472-14.6408-.0848t-14.6352-.4432q-7.3144-.312-14.6192-.8024-16.992-.8624-33.892-2.8256-16.9-1.9624-33.6368-5.0176c-11.9896-2.2488-31.7584-5.2536-42.7848-9.4888-12.6736-2.74-25.4192-6.9248-37.6776-11.1512q-8.628-2.9008-17.1352-6.1384-8.5072-3.2376-16.8808-6.808-8.3728-3.5696-16.5992-7.4664-8.2272-3.896-16.2936-8.1128-8.0672-4.2176-15.9624-8.7488-7.8944-4.5304-15.6056-9.3688-7.7104-4.8376-15.2248-9.976-7.5152-5.1376-14.8216-10.5664c-1.7792 4.572-2.8496 9.4584-4.148 14.1896-2.592 9.448-5.112 19.1072-8.2656 28.38-1.0536 3.0976-2.7056 7.5784-5.8888 9.012-2.1288.9592-4.436.8408-6.5696-.0456-6.288-2.6136-11.3656-10.0032-15.7016-15.0976-23.1608-27.2184-41.2712-56.7552-54.6712-89.9024Z"/>
  <path fill="#3C3C68" d="M456.9008 119.1216c3.3456-12.2768 2.2912-33.5384 2.4-46.546.0472-5.551-.2008-11.4088 1.1336-16.8346.8824-3.586 2.4792-6.6024 4.8688-9.4122 10.5552-12.4124 35.3976-22.3435 51.6944-23.5606 5.1048-.3812 10.0848.4787 14.0008 4.064 3.0632 2.804 4.8072 6.6402 5.5552 10.6784 1.944 10.4999.5128 26.7393.4728 37.91q.0088 21.6618 1.6096 43.265c6.7064 4.9608 14.1832 7.8248 20.3488 13.7904q.9328.9056 1.8008 1.8728.868.968 1.6672 1.9936.7984 1.0256 1.5248 2.104.7256 1.0784 1.376 2.204.6496 1.1264 1.2192 2.2944.5704 1.1688 1.0584 2.3736t.8912 2.4408q.404 1.236.7208 2.4968c2.0832 8.3936 1.224 18.044 1.2152 26.6672-.016 15.7344-.4608 31.5008-.1592 47.2296 9.0584 5.4272 17.4488 9.6144 25.0776 17.2664 6.68 6.6992 12.0256 14.8128 14.2992 24.0912 2.7096 11.0552 1.2904 33.5968 1.2648 45.8104l-.0264 79.66c.9568 17.8592-.3792 35.8944.0904 53.788 4.1472-6.7824 12.2648-8.9688 19.3256-11.5888l3.9608-.792c-1.0496 4.4712-3.0648 14.028-2.4896 18.3976l-2.4456 3.1544c.048 1.4136.0592 2.544 1.164 3.5512 2.3352 2.132 14.1288 4.9312 17.7264 6.1104 12.2848 4.028 24.2888 8.9888 36.2472 13.8896q16.0864 6.7664 31.7144 14.5344 15.628 7.7672 30.7352 16.5056c5.2368 2.9976 11.3728 5.9496 16.0576 9.712-4.4016 3.2504-9.6928 11.1768-13.7768 15.6144-10.0424 10.9136-20.6248 21.3576-30.9648 31.9888-23.4968 24.1576-48.9496 46.7296-74.796 68.3264-32.6592 27.2888-65.4856 54.8688-102.292 76.4896-10.3296 6.0672-21.3952 11.6336-32.3112 16.5712-3.9528 1.788-13.7568 4.988-16.72 7.1312l.2296.66c-22.1496-2.46-44.176-5.5128-65.7632-11.2184C359.5368 706.08 292.0368 673.4304 246.2 620.0272c-7.9808-9.2976-15.34-18.7928-21.5096-29.4048 6.4632-4.048 15.6856-6.1776 22.9232-8.6912q29.7712-10.3288 59.7488-20.0384c26.1808-8.7576 51.9816-19.3848 78.6408-26.5632q-.1896-24.3824.0584-48.764l-.1808-90.3224-.1712-71.1808c-.0992-15.5088-.7784-31.2776-.1016-46.7616.204-4.6648.7072-10.268 2.3272-14.6648 6.6688-18.1032 21.4992-30.8352 38.4848-38.9032l-.3064-43.176c-.0312-7.816-.4672-15.8696.1928-23.6552.3456-4.076.9856-8.0608 2.4144-11.9096 4.7536-12.8032 16.2072-21.292 28.18-26.8704Z"/>
  <path fill="#A4C6C9" d="m488.4912 345.5168 14.7504.0512-.0096 7.3904.0016 12.2128c-5 .0344-10.0208-.0256-15.0168.1272.6744-6.4792.2888-13.2616.2744-19.7816Z"/>
  <path fill="#F3F4EF" d="m489.2288 310.0448 13.648.0728.0576 22.4712q-6.8336.028-13.6632-.1928c-.2152-7.4384-.0608-14.9096-.0424-22.3512Zm-55.168-140.6112c1.4704 1.776 2.6752 4.1784 3.9112 6.1448-1.2448 30.24-.44 60.7888-.4232 91.0672-1.1824-.2128-1.948-1.6288-2.7056-2.5688-2.1056-31.3192-1.0904-63.2456-.7824-94.6432Zm21.5024-42.4576.1384.54-.3864 1.456c-.5432 2.0112-.9296 3.8824-.4584 5.9632.9712 4.2912 5.4976 8.3456 9.024 10.7104 12.4752 8.364 31.8496 10.7744 46.3672 7.8768 9.1168-1.8192 19.7944-5.7496 25.816-13.2232 1.8496-2.296 2.9392-4.7576 4.5272-7.1664.568.7456.0672 2.7048-.048 3.6912-1.8472 5.3936-5.364 9.1944-10.1168 12.2408-14.4416 9.2568-33.2264 10.8688-49.6664 7.1088-10.544-2.412-21.68-7.5216-27.6456-16.9392q.028-2.1904.0864-4.38c.0912-3.2464-.1136-5.5464 2.3624-7.8784Zm103.1352 47.9592c1.2728 4.2056.3008 25.7352.2768 31.3112L559 267.9272l-.3352.4208c-1.1176 1.3864-2.7536 3.7024-4.5488 3.9032.5608-28.8136.092-57.6424.5032-86.4576.0264-1.824-.2272-2.764-1.0704-4.4192-.0832-.1624-.1704-.3232-.2552-.4848 1.2416-2.2368 3.5848-4.1544 5.4048-5.9544Zm-117.1728 3.7768 5.1592 3.1496-.14 93.7712c-1.8848-1.3584-3.6912-2.8544-5.5176-4.2928-.2008-19.3032-.0224-38.6224.0176-57.9272.024-11.4456-.5904-23.3128.4808-34.7008Zm108.4848 4.2608.4432.1688c1.5208 2.4568-.496 80.4728.724 92.2576l-5.3456 3.744-.4584-.1544c-1.052-2.7296-.3272-83.3856-.3944-93.1648l5.0312-2.8512Zm-99.7864 2.1304 6.2688 2.3064c-.0312 12.1032.8816 90.8712-.7304 94.3344l-5.7616-3.5536q.3624-46.5432.2232-93.0872Zm90.0472 3.4272.9152.4472c1.1296 5.156.2672 19.5832.2792 25.5968l.0616 66.8952-5.8304 2.1232-.5032-.0968c-.212-.2168-.496-.3816-.6344-.6504-.8712-1.692-.1144-83.7632-.0184-92.2752l5.7304-2.04Zm-10.9408 3.5888c.8008-.0984.708.036 1.3136.5.4064 2.9464-.0032 5.9704-.02 8.9424l-.0008 17.8784q.0048 32.836.3928 65.6688l-6.372 1.7064-1.1528.1272c-.2-.2024-.4912-.344-.6008-.6072-.4552-1.0976-.3448-83.3216-.3432-92.5256l6.7832-1.6904Zm-15.4-161.442c3.224-.4106 6.9008-.7951 9.72 1.0504.6904 1.3796.7624 1.9813.5376 3.5351-1.1568 8.014-6.796 16.6075-13.2432 21.3455-9.0824 6.6756-21.376 8.9988-32.3824 7.293-2.6344-.6322-5.9008-1.8254-8.0592-3.4788-1.2856-.9845-2.3728-2.3594-2.5224-4.0236-.1544-1.7305.8192-3.5023 1.8688-4.8043 8.38-10.3949 30.64-19.279 44.0808-20.9173Zm-25.5232 339.2676c5.0136-.2272 10.0816-.0088 15.1008.0688l.0424 96.0408c-5.0344.06-10.0784-.0096-15.1144-.016l-.0288-96.0936Z"/>
  <path fill="#F3F4EF" d="M429.5072 263.3336c2.1576 1.308 5.852 7.0432 7.9336 9.3128q2.9888 3.2512 6.448 5.9968c18.2608 14.5792 46.3304 17.0312 68.7608 14.4264 20.3632-2.364 39.2992-9.468 52.3248-25.956-.1696 3.7248-.7 7.1392-1.832 10.696-1.1848 2.3376-2.4496 4.5024-4.136 6.52-11.6976 13.9976-33.0792 19.3616-50.6352 20.8376-21.956 1.8456-50.188-2.1616-67.3192-16.8672-8.6992-7.4672-10.6304-13.9488-11.5448-24.9664Z"/>
  <path fill="#F3F4EF" d="M425.9056 233.1576c.204.9312.7272 3.276.3704 4.1232-.8976 2.1352-5.9992 4.7528-7.9416 6.4648-5.8728 5.176-11.3088 10.9952-14.9576 17.9848-4.3752 8.3784-5.34 17.3992-2.4584 26.4392 4.7088 14.776 17.6064 25.584 30.9416 32.5256 34.06 17.7288 76.8792 19.2904 113.1408 7.8488 18.4936-5.8352 38.0088-16.4928 47.1664-34.3984 8.8512-17.3064 3.1744-36.2944-10.8192-48.8288-2.8664-2.5672-9.7856-5.6496-10.868-9.056.144-1.1696-.0104-1.4936.9096-2.2816 2.5192.2832 5.8 3.2376 7.968 4.656 6.4192 4.4696 12.2888 9.904 16.5224 16.532 5.5144 8.6336 7.6984 19.3432 5.4424 29.4072-3.3248 14.832-15.784 26.9904-28.2144 34.7992-32.46 20.3904-76.8592 23.8624-113.5848 15.388-21.9408-5.0632-47.416-16.6616-59.6032-36.472-5.3696-8.7288-8.2464-19.1552-5.7232-29.2808 4.0736-16.3512 17.9496-27.5416 31.7088-35.8512Zm115.792-89.7368c1.0296 2.9136.78 9.9344.364 13.0672-.744 5.6048-3.9464 10.0328-8.3704 13.3944-12.4688 9.4736-32.6576 11.9336-47.7568 9.7736-11.812-1.6904-24.2376-5.892-31.572-15.7832-2.1936-4.5184-1.2304-13.2328-1.2352-18.3232q1.0352.9728 2.1056 1.9064c12.7624 11.0896 31.2456 15.0304 47.7688 13.7904 15.0872-1.132 28.6744-6.2296 38.696-17.8256Z"/>
  <path fill="#F3F4EF" d="M448.9256 131.496c1.6936 2.5392.5872 19.9216.5848 23.9712-.0056 6.5528 1.3344 10.7768 6.0512 15.4248 10.2056 10.0576 28.7456 13.232 42.4784 13.0064 13.872-.228 32.0984-4.5536 41.9752-14.9864 6.232-6.5832 6.1456-13.0344 6.0784-21.6104q-.0752-7.5592-.2552-15.1168l.4016.276c8.1592 5.676 14.28 12.2472 16.0576 22.32.0448 1.1528.0712 2.3072.004 3.4592-.4528 7.7352-4.7136 14.248-10.4528 19.2192-16.6368 14.4088-42.7568 15.8624-63.7408 14.2296-16.072-1.2504-37.1864-6.5504-48.0128-19.3904-4.3896-5.2056-6.2152-11.2168-5.596-17.9864.8896-9.72 7.1856-16.8504 14.4264-22.816Zm39.5104 338.6624c5.0376.1584 10.0288.1408 15.0664-.0128l-.0648 101.0432.0008 30.416c.0008 5.6824.3056 11.6272-.2632 17.2816-.1768 1.756-.8144 3.0048-1.7616 4.4696-1.4008 1.1232-2.7736 1.932-4.5928 2.144-2.1552.2512-4.4696-.0552-6.1248-1.5792-1.5696-1.4456-1.8904-3.108-2.0816-5.1304-.5632-5.9448-.2488-12.172-.2504-18.1456l.0208-30.9768.0512-99.5096ZM425.9816 242.12c.6552 1.4008.2576 3.8504.2184 5.4456-.3288 13.4384-2.4848 26.6768 6.4152 38.0544 11.8416 15.1376 34.5312 21.4296 52.8576 23.7528l.0024 22.8088q-9.3432-.9296-18.592-2.5496c-20.5728-4.3224-43.8872-13.1128-56.5872-30.7712-5.3512-7.4408-8.388-16.5792-6.856-25.7632 2.1624-12.9616 12.2432-23.6472 22.5416-30.9776Zm144.1496-.7584c10.4912 6.7968 19.4344 15.8712 22.0904 28.484 2.0408 9.6888-.5016 19.4848-5.8912 27.6552-12.4016 18.8008-37.32 27.9288-58.4896 32.2152q-10.4264 2.0136-21.036 2.4768c-.2304-7.4264-.1432-14.8856-.1952-22.3168 18.7328-1.7064 38.3736-6.3656 52.4008-19.808 9.6632-9.2608 10.364-17.6632 10.6888-30.4l.432-18.3064Z"/>
  <path fill="#F3F4EF" d="M460.0064 189.1312c19.2368 6.568 38.9216 8.004 59.0504 5.2832q.36 30.48.356 60.9624c.0368 10.3136.9616 22.3008-.0952 32.448-19.9584 3.9048-40.4472 2.972-59.4112-4.724.52-31.2984.0368-62.664.1-93.9696ZM527.7016 34.82c1.6312 1.5346 1.864 4.5436 2.0696 6.6903 2.1152 22.1102-3.5008 62.2161 4.0408 81.6433.9128 2.352 2.5088 4.2672 4.0664 6.2184q-.6032 1.8768-1.4232 3.6696c-3.3912 7.4288-10.5184 12.3192-18.0152 15.0424-15.6936 5.7008-34.0832 3.6528-49.0352-3.2072-2.6032-1.4248-5.1232-3.108-7.2472-5.1904-1.7232-1.6888-3.752-4.3464-3.6512-6.8864.1792-4.552 5.66-11.396 6.6624-17.1128.7904-4.5088.8472-9.3248 1.1016-13.8896.7424-13.2888.7152-26.527.6848-39.8322 3.7176 2.7978 6.9184 4.7706 11.5128 5.7696 10.3496 2.2506 23.5216-.6497 32.3088-6.441 9.5816-6.3158 14.6776-15.4528 16.9248-26.474Z"/>
  <path fill="#3C3C68" d="M493.0456 73.1526c2.6688-.2633 5.3008-.5693 7.8816.3622 3.1544 1.1385 5.7544 3.4613 7.0496 6.578q.2392.5848.4184 1.1912.1792.6056.2952 1.2272.116.6208.1688 1.2512.0528.6296.0416 1.2616-.0112.6312-.0872 1.2592-.076.6272-.2144 1.244-.1392.616-.34 1.2152-.2008.5992-.4616 1.1752c-1.6936 3.7344-4.5864 5.6936-8.2704 7.0696-2.3824.316-4.344.4472-6.6864-.3152q-.6152-.1944-1.2088-.4488-.5928-.2544-1.1576-.5672t-1.096-.68q-.5304-.3672-1.0224-.7848-.4912-.4184-.9392-.884-.4472-.4648-.8464-.972-.3992-.508-.7456-1.0528-.3464-.544-.6368-1.1208c-1.4656-2.9024-1.8024-6.3688-.6248-9.4288 1.5784-4.0995 4.6872-5.9345 8.4824-7.5802Z"/>
  <path fill="#F3F4EF" d="M494.0296 76.5169c1.4816-.0818 3.2104-.1455 4.6664.2077 2.2704.5508 4.2392 2.162 5.3544 4.1978 1.0552 1.9256 1.236 4.3624.528 6.4368-1.0712 3.1368-3.1504 4.8056-6.0544 6.1656-1.408.0848-3.052.1936-4.4144-.1904-2.416-.6816-4.732-2.6392-5.8408-4.8816q-.1896-.3824-.3376-.7832-.1488-.4008-.2536-.8152-.1048-.4144-.1656-.8368-.06-.4232-.076-.8504-.0152-.4264.0144-.8528t.104-.8472q.0752-.42.1936-.8312.1184-.4104.28-.8056c1.096-2.7644 3.4696-4.1043 6.0016-5.3135Z"/>
  <path fill="#3C3C68" d="M493.1608 78.47c1.4704-.0302 3.328-.0166 4.5224.999.7976.6782 1.212 1.5718 1.0824 2.627-.3984 3.2328-2.9376 4.784-5.3952 6.392l-1.6104.0592c-1.1648-.708-1.3752-.6984-1.8832-2.0224.9216-2.472 3.5-1.7496 4.5472-3.9608-.5128-1.0888-1.1344-2.2064-1.2288-3.425-.0168-.2227-.0232-.446-.0344-.669Z"/>
  <path fill="#F3F4EF" d="M478.3112 363.7816c1.8848-.372 4.1872-.312 6.1224-.4424-.2064 34.0608.7936 68.2392-.3104 102.2776-19.9416-1.84-38.66-6.9936-56.2216-16.6584-2.0192-1.3304-4.0704-2.6608-5.9912-4.1312-8.4864-6.4952-16.344-15.4984-17.724-26.512-1.1008-8.7848 2.6776-17.3768 8.0296-24.1536 14.996-18.988 42.9144-27.6824 66.0952-30.38Zm29.5544-.2008c2.9936-.0944 6.0664.3064 9.04.6568 23.2728 2.7416 53.0056 12.0736 67.9184 31.204 5.1512 6.6088 8.1928 14.828 7.0488 23.2632-1.616 11.9104-11.0032 20.8152-20.1176 27.7136-19.2072 12.7232-41.0664 17.8328-63.8152 19.4408-.3784-34.096.0616-68.1832-.0744-102.2784Z"/>
  <path fill="#F3F4EF" d="M403.9944 432.3824c1.6712 1.0856 3.048 3.7504 4.3888 5.3264 18.172 21.3608 48.8968 29.8064 75.9128 32.0392-.5328 16.264-.0144 32.628.0896 48.9008q.0696 27.2104-.3912 54.4176-8.6248.5496-17.1696 1.8448c-19.5456 3.0992-40.2504 10.7056-53.7608 25.7144-3.4792 3.8648-5.912 8.4368-8.9424 12.6192-1.1256-26.8856-.1184-54.1304-.0752-81.056 10.9488 12.5616 27.7672 21.9296 43.6288 26.5256 2.3224.6736 5.54 1.9072 7.9264 1.7976 1.2312-.0568 1.4056-.5144 2.1672-1.3824l-.0992-.8768c-2.7968-3.0544-11.8592-4.2336-15.9408-5.8536q-4.436-1.724-8.688-3.8632-4.2512-2.1392-8.28-4.6736c-5.5864-3.5152-15.5832-13.1472-20.7984-14.1728l.032-97.3072Z"/>
  <path fill="#3C3C68" d="M407.6248 474.7512c3.08.976 9.1712 7.5232 12.1248 9.8208q3.6536 2.8224 7.608 5.2056c4.032 2.4424 8.3904 4.7688 12.7672 6.5144 5.5056 2.196 13.9128 3.7312 18.4824 7.472.7256 1.444.5448 1.6136.2344 3.1368-2.66-.0872-5.2728-1.0952-7.7608-1.972-13.6168-4.796-26.8336-11.1272-37.9392-20.464-1.9848-1.668-5.2448-4.4056-6.2216-6.8512-.4296-1.0752.2568-1.888.7048-2.8624Zm-.4464 26.6248c3.7328 2.0832 6.9864 6.2304 10.252 9.0576 4.6 3.9832 10.1872 7.3152 15.5792 10.1328 4.9072 2.564 10.4032 4.9264 15.6984 6.5416 2.944.8984 6.1032 1.3584 8.9504 2.5192 1.0648.4336 1.7496.8016 2.5368 1.6328.2032 1.3464.1176 1.576-.3928 2.8504q-3.0192-.5592-5.98-1.3728c-14.452-4.0688-28.3904-10.6888-40.1224-20.1152-2.4784-1.9912-5.7432-4.5552-7.1112-7.5128-.6616-1.4304.0456-2.408.5896-3.7336Z"/>
  <path fill="#F3F4EF" d="M591.6384 432.4152c1.8 4.7376.3072 157.4688.2712 176.9296-4.2608-3.5744-7.828-8.0936-12.084-11.7576-11.8888-10.2336-26.6384-15.5976-41.6112-19.3744q-7.5368-1.8456-15.212-2.9872-7.6752-1.1424-15.4232-1.572l.0024-103.5096c6.4792-.5152 12.9736-1.1184 19.3832-2.2152 25.28-4.3264 49.3272-13.8064 64.6736-35.5136Z"/>
  <path fill="#F3F4EF" d="M476.2768 577.8392c2.468-.3888 5.2144-.2888 7.7232-.4016l.1528 27.1128c.0272 4.7296-.4688 10.0304.328 14.6672.448 2.6056 1.4744 5.1608 3.224 7.1688 1.78 2.0424 4.1696 3.3168 6.8968 3.4096 3.3176.112 7.5584-1.416 9.8816-3.7688 1.7544-1.7768 2.4192-4.0376 2.7984-6.4392.7576-4.7944.3328-10.1112.3456-14.9664l.0704-27.0368q4.6432.2264 9.2632.7408 4.6208.5144 9.2 1.3144 4.5792.8008 9.1 1.884 4.5208 1.0832 8.9656 2.4448c20.5088 6.34 38.8112 17.7376 49.0504 37.2056-5.6048 13.932-19.3032 22.4608-32.116 28.9664q-1.352.6352-2.7104 1.2544c-35.0896 15.9896-78.332 16.3296-114.2064 2.8248-15.836-5.9616-33.4904-15.6-40.7656-31.72 3.152-5.776 6.3712-11.548 10.5456-16.664 14.856-18.2048 39.6552-25.7152 62.2528-27.9968Z"/>
  <defs>
    <linearGradient id="a" x1="529.386" x2="723.7938" y1="364.2529" y2="835.7979" gradientUnits="userSpaceOnUse">
      <stop offset="0" stop-color="#AFDED1"/>
      <stop offset="1" stop-color="#EBEEE8"/>
    </linearGradient>
  </defs>
  <path fill="url(#a)" d="M491.521 375.484c4.067 6.015 8.112 11.912 13.273 17.069 18.59 18.578 46.912 30.541 72.411 35.492 9.282 1.803 18.986 3.198 28.441 3.498.04 5.506-.413 11.68.488 17.08-30.955 3.256-65.672 10.842-88.798 33.395-8.01 7.811-14.599 17.754-16.786 28.856-1.998 10.139-.845 21.467-.749 31.767l.094 43.074-.277 121.13q.222 37.69-.15 75.379c2.426 3.325 4.851 6.671 7.51 9.815 22.874 27.049 63.819 39.223 98.081 42.148 41.234 3.52 91.608-5.215 123.967-32.827 10.274-8.767 19.492-20.624 20.524-34.538l-.611-.327c-1.873 2.026-2.424 4.277-3.236 6.843q-.433-91.261.308-182.513l.134-48.631c.051-9.564.902-20.098-.603-29.552-1.403-8.812-5.581-16.516-11.229-23.333-17.565-21.204-49.483-33.255-76.047-37.771-7.57-1.287-15.437-1.74-23.088-2.45-1.095-1.568-.987-2.873-1.194-4.754.576-4.054.321-8.274.281-12.363 32.773-1.043 63.699-10.141 90.922-28.57 6.755-4.573 13.23-9.174 18.863-15.136 3.205-3.394 6.204-6.995 9.136-10.625l-.114 1.012c-1.26 11.653-.693 23.893-.721 35.613l.081 67.318-.175 226.004q.292 33.173-.183 66.344c-.093 8.555 1.026 18.967-.925 27.304-2.549 10.889-11.542 21.326-19.944 28.236-33.503 27.556-90.2 35.983-132.187 31.733-32.191-3.259-73.377-15.195-94.684-41.113-5.25-6.386-10.412-15.478-11.441-23.824-1.667-13.517-.437-28.504-.42-42.14l.109-82.296q.219-92.113-.624-184.223c-.13-37.378.437-74.751-.437-112.124Z" transform="scale(.8)"/>
  <path fill="#3C3C68" d="M593.0688 355.7296c.8552.1912 2.5368.552 3.0672 1.2576 1.6984 2.2576.6744 7.2528.4376 10.0088-1.016.0376-1.68-.0432-2.6432-.3712-2.1544-2.6472-1.0888-7.66-.8616-10.8952Zm.0736-17.5432c.2672.0216.5352.0328.8016.0656 1.0008.1208 1.6336.2512 2.1904 1.156 1.58 2.5656.5544 7.452.0488 10.2976-.9664-.1632-1.9992-.236-2.6104-1.0528-1.8712-2.5024-.8912-7.5592-.4304-10.4664Zm-.5752-18.7424c.996.044 1.9576.1864 2.9416.3368 2.5832 2.7088 1.4888 8.016 1.4224 11.5536-1.0896-.0392-2.5776.0136-3.3664-.8088-2.0488-2.136-1.076-8.3368-.9976-11.0816Zm3.5536 318.9224c.1656.0736.3408.1288.4968.22 1.2232.7136 1.1688.9608 1.4664 2.2816-1.8288 7.8576-10.3224 15.4984-16.4624 20.144-29.8672 22.5976-73.7616 27.6904-109.9328 22.5816-23.0504-3.256-53.4072-12.6344-67.8872-31.9488-.884-1.4952-1.6248-3.1-2.4144-4.6488 7.4488 5.3368 14.2648 11.5672 22.1176 16.336 32.7752 19.8992 79.2376 22.1352 115.716 13.14 16.2208-4 34.544-11.4208 46.3592-23.596 4.18-4.3064 7.452-9.392 10.5408-14.5096Z"/>
  <path fill="#A4C6C9" d="M610.9144 390.9808c.9568 17.8592-.3792 35.8944.0904 53.788 4.1472-6.7824 12.2648-8.9688 19.3256-11.5888l3.9608-.792c-1.0496 4.4712-3.0648 14.028-2.4896 18.3976l-2.4456 3.1544c.048 1.4136.0592 2.544 1.164 3.5512 2.3352 2.132 14.1288 4.9312 17.7264 6.1104 12.2848 4.028 24.2888 8.9888 36.2472 13.8896q16.0864 6.7664 31.7144 14.5344 15.628 7.7672 30.7352 16.5056c5.2368 2.9976 11.3728 5.9496 16.0576 9.712-4.4016 3.2504-9.6928 11.1768-13.7768 15.6144-10.0424 10.9136-20.6248 21.3576-30.9648 31.9888-23.4968 24.1576-48.9496 46.7296-74.796 68.3264-32.6592 27.2888-65.4856 54.8688-102.292 76.4896-10.3296 6.0672-21.3952 11.6336-32.3112 16.5712-3.9528 1.788-13.7568 4.988-16.72 7.1312l.2296.66c-22.1496-2.46-44.176-5.5128-65.7632-11.2184C359.5368 706.08 292.0368 673.4304 246.2 620.0272c-7.9808-9.2976-15.34-18.7928-21.5096-29.4048 6.4632-4.048 15.6856-6.1776 22.9232-8.6912q29.7712-10.3288 59.7488-20.0384c26.1808-8.7576 51.9816-19.3848 78.6408-26.5632l-.004 65.7176c-.0048 11.8-1.4512 31.9048 1.6128 42.8208 2.0688 7.372 7.3976 14.656 12.4256 20.2896 20.7872 23.288 56.8552 32.0152 86.8384 33.804 32.9496 1.9648 78.528-6.1336 103.8536-28.9088 8.82-7.932 15.6072-18.6136 18.1888-30.264 1.9152-8.6448 1.1296-18.2464 1.1424-27.076l.0736-37.4496.3448-118.936c.0664-21.364-.7816-43.0368.4352-64.3464Z"/>
</svg>
