<svg xmlns="http://www.w3.org/2000/svg" viewBox="0 0 1024 819">
  <path fill="#3C3C68" d="M563.564 436.1352c-2.7152-.7312-5.8128-2.6016-7.6472-4.7632-1.6688-1.9648-2.2328-4.524-1.8608-7.048.4896-3.3168 2.536-6.048 5.2232-7.9584 4.9856-3.5448 10.6888-4.2368 16.5944-3.312 4.0744.432 7.8472 1.9016 10.4584 5.1904 1.9672 2.4784 2.9096 5.8688 2.3752 9.0024-.4992 2.9256-2.2904 5.0216-4.6976 6.6216-.6688.4448-1.1496.7416-1.9056 1.0152-5.4552 2.7584-11.6384 3.728-17.52 1.6832-.5448-.1896-.5752-.2168-1.02-.4312Z"/>
  <path fill="#F9827A" d="M569.6096 414.5024c5.2568.084 10.2416 1 14.0896 4.9288 1.5176 1.5496 2.6032 3.6208 2.5064 5.8344-.1152 2.652-1.532 4.9864-3.5304 6.664-.8008.672-1.7056 1.2568-2.5728 1.8392-5.2496 2.3776-9.5128 2.188-15.016.7288-1.2032-.6752-2.4472-1.276-3.64-1.9656q-.3992-.2296-.772-.4984-.3736-.2696-.7168-.576-.344-.3056-.6544-.6456-.3104-.3392-.5848-.7088-.2736-.3704-.5088-.7656-.2344-.396-.4272-.8144-.1936-.4176-.3424-.8528-.1488-.436-.2528-.884c-.4712-2.0144-.0456-4.0136 1.04-5.7576 2.5344-4.072 7.0032-5.5104 11.3824-6.5264Z"/>
  <path fill="#3C3C68" d="M636.4856 147.3224c-6.4016-3.0704-13.388-7.3984-15.9392-14.3848-3.6552-10.012.2656-23.7928 4.6272-32.9808 6.4688-13.6288 17.9968-26.0898 32.5104-31.064 7.1352-2.4452 14.6656-2.1685 21.4392 1.2856 5.1712 2.6368 9.2768 6.794 11.0712 12.3632 2.9896 10.4 2.0864 22.216-2.96 31.8976-.1232.2368-.2584.4656-.388.6984-2.464 8.4896-10.4072 17.9536-17.1664 23.4408-2.6232 2.332-6.9704 6.0736-10.4272 6.8248-6.116 2.8616-14 5.2152-20.6648 2.8352q-1.0848-.3816-2.1024-.916Z"/>
  <path fill="#F3F4EF" d="M638.5384 145.7696c-.1504-.0616-.3024-.1184-.4504-.1848-4.5704-2.052-7.8968-5.4384-9.5928-10.1688-3.5104-9.7896.3136-22.8072 4.6112-31.7416 6.2472-12.988 17.6592-25.0647 31.5448-29.7372 5.2288-1.7596 10.9008-2.194 15.9416.4544 4.4368 2.3314 6.8464 6.1428 8.2392 10.8244 2.08 9.8504.5888 19.4152-3.6368 28.5048-4.3736 8.8432-9.7544 16.504-17.1184 23.1488-3.6032 2.7032-7.2624 5.0192-11.176 7.2488-6.0416 2.2344-12.0152 3.6808-18.3624 1.6512Z"/>
  <path fill="#3C3C68" d="M648.0096 89.4104c5.2288-5.7232 13.736-11.48 21.7376-11.7918 3.8896-.1515 7.6688 1.0083 10.512 3.7286 4.0384 3.8632 5.4376 9.06 5.4512 14.5104.0336 12.7744-7.2928 26.4528-16.2272 35.2696-5.6296 5.556-13.8632 10.5944-22.0208 10.5176-4.168-.04-8.3792-1.58-11.2808-4.644-3.4672-3.6592-4.3776-8.812-4.092-13.6776.316-5.3752 1.824-11.104 4.044-16.008 1.204-5.856 7.4016-14.2112 11.876-17.9048Z"/>
  <path fill="#F3F4EF" d="M651.3904 89.6736c5.8152-4.5896 12.7504-9.9423 20.6264-9.1688 3.1272.3072 5.856 1.6272 7.7504 4.1792 3.4512 4.6488 3.6944 11.6648 2.732 17.1568-2.0872 11.9032-10.0104 24.724-20.0008 31.5968-5.188 3.5696-11.7952 6.4088-18.2024 5.1136-3.068-.62-5.7312-2.3312-7.4064-4.9984-3.3464-5.3248-2.596-13.016-1.0176-18.7968.5384-1.9728 1.2056-3.9832 2.0352-5.8544 3.1472-7.2632 7.5792-13.9296 13.4832-19.228Z"/>
  <path fill="#3C3C68" d="m658.98 90.16 1.2664.7296c1.304 4.456.5176 11.196.52 15.9424 2.832 1.9944 6.776 3.616 9.176 6.0688.8736.8912 1.3288 1.4848 1.3344 2.708-1.9456.4144-5.1264-1.6736-6.7632-2.6408-1.6888-.9608-3.324-2.092-4.968-3.1336-1.0832.8696-2.4648 2.2264-3.7784 2.6672-.932.3128-1.2128.0984-2.0128-.3144l.06-1.1176c1.064-1.776 2.4112-2.4672 4.1384-3.4856.0624-4.2144-1.3632-14.14 1.0272-17.424ZM483.7736 23.1758c6.0744 3.146 12.224 6.3372 18.5152 9.0245q.2416 33.022-.0152 66.0437c.0032 9.6104-.7232 19.8336.1984 29.352-.2392 46.2768-.5648 92.6776.0752 138.9496-2.6368 1.3528-5.2648 2.8384-7.9576 4.0672-16.244 9.0704-33.176 17.2064-49.7352 25.7128-4.1672 2.3184-8.4192 5.0656-12.7608 7.0048-9.2472 5.4936-19.2136 10.0856-28.7888 15.0048-15.2352 7.8264-30.4112 15.828-45.768 23.408-8.5672 4.4664-17.1768 9.6184-25.9576 13.5816-6.2632 3.7656-13.084 6.8368-19.5784 10.1968q-18.968 9.9632-38.0904 19.6264c-10.2376 5.2152-20.5208 10.3568-30.6984 15.688-9.4712 4.9608-18.8712 10.196-28.5784 14.684-11.4592 6.7-23.7992 12.432-35.6928 18.3448-8.5016 5.7464-19.1584 9.72-28.2768 14.4888-6.1288-3.732-12.5312-6.984-18.6592-10.7216l.0008-150.4672-.04-51.1904c.008-10.1936-.244-20.4904.3208-30.6656Q284.0616 127.5496 434.9792 48.141q16.212-8.0332 32.2728-16.3644c5.4968-2.853 10.888-6.0325 16.5216-8.6008Z"/>
  <path fill="#F3F4EF" d="M135.4904 208.8704c4.4384 1.536 8.6792 3.4568 12.68 5.9216.4408 12.2632.0984 24.6016.0496 36.872l-.0704 57.6408c.0144 44.4912.8328 89.0464.1256 133.5304-2.5504.1672-10.1496-5.1136-12.7864-6.6008-.2744-18.5728-.0008-37.1808-.0592-55.7584l.0608-171.6056Zm2.4552-2.5008c9.9168-5.7856 20.6808-10.4776 30.904-15.7384l62.1744-32.332L421.9256 58.778c20.4056-10.7134 41.1824-20.6694 61.4264-31.7025 3.716 1.949 7.6712 3.8659 11.6608 5.1689L229.0864 170.1272l-57.4856 29.6992c-4.6128 2.3784-18.6472 8.6616-21.2624 11.2136-3.9784-.8648-8.4832-3.2328-12.3928-4.6704Z"/>
  <path fill="#F9827A" d="m497.508 35.051 1.5776.0181c.7088 1.293.7944 2.4844.8536 3.9256.3256 7.856-.1304 15.8013-.1144 23.6692l.2432 52.1337q.6472 75.168-.0944 150.3344c-1.668.8608-3.608 1.6472-5.1336 2.7232-7.4968 3.2144-14.7448 7.3832-21.9768 11.1632-9.5072 4.968-19.1816 9.7856-28.492 15.112-5.052 2.7008-10.204 5.2976-15.148 8.1896-17.392 8.196-34.2184 17.5848-51.2416 26.4984-6.6096 3.4608-16.0608 7.1728-21.8584 11.408-12.7344 6.4064-26.0832 12.444-38.364 19.6576-11.4872 5.2752-22.4848 11.5616-33.756 17.2736q-35.7216 17.9768-71.0592 36.7c-9.8216 4.6296-19.4136 9.744-29.0736 14.6968-5.9216 3.0368-12.2696 5.8352-17.9072 9.3584-4.636 1.2592-9.948 4.6592-14.3392 6.8008q.2272-33.7352-.1312-67.4688l-.0592-96.5128c-.0256-22.2584-.3416-44.5872.2808-66.8368L497.508 35.051Z"/>
  <path fill="#F3F4EF" d="m490.9488 44.9462.684.1206c1.1008 3.2525.2488 38.3076.2648 45.158l.1232 171.7776c-6.3728 2.3184-12.5344 6.1408-18.5808 9.2528q-16.4832 8.3032-32.8032 16.9224l-84.5112 44.5064c-64.8008 34.576-130.84 66.744-195.9608 100.6976l-.7064.2336c-.9768-1.2168.3352-198.4344-.104-218.2224 29.2856-13.8256 57.7696-29.5688 86.4464-44.6088l129.0736-66.9728c8.54-4.432 17.2648-8.5024 25.8152-12.916 15.8424-8.1768 31.5856-16.6631 47.5416-24.6062 8.524-4.2434 16.9616-8.675 25.504-12.8737 5.7136-2.8082 11.7832-5.1479 17.2136-8.469Z"/>
  <path fill="#3C3C68" d="M351.7496 194.3328c5.772.352 46.0224 6.9784 49.1472 8.984.8144.5224.7376.9856.9208 1.872-1.7104 5.868-47.2968 62.1-53.548 70.6296-1.2016.6144-1.9928.7-3.2872.316l-.2416-.8912c.4936-2.2976 1.7536-4.164 3.0712-6.0648 5.1824-7.4704 11.3312-14.324 16.8296-21.5704 10.4288-13.7424 20.7016-28.4672 32.148-41.3608-5.0088-.1912-43.0976-6.2736-45.2792-7.9392-.5824-1.632-.1768-2.3224.2392-3.9752Z"/>
  <path fill="#A4C6C9" d="M475.8712 108.5624c1.2864 1.3528.6128 7.7816.572 9.8488-11.8992 5.248-23.4144 12.296-34.9144 18.3904-7.7144 4.088-16.8584 7.66-23.8656 12.8256-1.3032-2.176-.5352-7.9832-.4928-10.6024 7.1568-4.4368 15.1776-8.0264 22.6608-11.9168 11.9928-6.2352 23.8352-12.7248 36.04-18.5456Z"/>
  <path fill="#3C3C68" d="M230.0744 237.88c.272.0128.5448.0096.816.0392 1.3176.1432 1.7568.4024 2.5408 1.4224-.0448 1.2536-.4768 1.9416-1.1664 2.9832-5.0288 7.6032-11.2224 14.8472-16.7336 22.128q-14.9728 20.0416-30.2912 39.82c6.9328 1.5472 38.7936 9.1488 43.472 12.572.9832.7192 1.2552 1.2976 1.4544 2.4552-.7456 1.1144-1.108 1.1592-2.3064 1.6792-7.196-1.9696-45.9992-11.2064-48.684-14.5552-.1456-1.7976 1.3536-3.6408 2.3416-5.08 6.08-8.8544 13.4568-17.0136 19.9416-25.6008 9.4776-12.5488 18.5064-25.8384 28.6152-37.8632Z"/>
  <path fill="#A4C6C9" d="M475.9304 132.064c1.2832 1.6032.5776 8.136.5488 10.3352-5.4352 2.1976-10.4112 5.1544-15.6304 7.7968-14.3376 7.2592-28.368 15.08-42.64 22.4672l-.5656-.548c-.5952-3.1608-.2208-6.7544-.172-9.9752 19.248-10.3448 38.5616-21.0336 58.4592-30.076Zm.4272 75.4328c.5376 3.5064.12 7.4176.044 10.9712-19.8688 9.4824-39.2104 20.032-58.9352 29.8112-.0032-3.5888-.1-7.1296-.368-10.7088l59.2592-30.0736Zm-.6048 23.528.9048.1144c.968 2.2768.444 7.7848-.4 10.1616-.3648 1.024-1.6064 1.6904-2.5016 2.2008-6.9536 3.9616-14.5304 7.0896-21.6712 10.74-11.3632 5.8088-22.5704 12.056-33.7568 18.2032l-.7-.6616c-.5224-3.8568-.1192-8.0568-.044-11.9544 8.7184-3.6344 16.8696-8.2512 25.292-12.4872 10.9328-5.4984 21.9824-10.7336 32.8768-16.3168Z"/>
  <path fill="#3C3C68" d="M331.948 177.3376c1.5088.2664 2.0368.156 3.1136 1.2944.4472 1.7024.3304 3.2688-.0688 4.9672-2.8864 12.2616-6.4616 24.4752-9.7736 36.636l-15.9576 60.2104-12.8144 49.548c-1.7864 7.0104-3.596 18.1208-6.6096 24.3536-1.66-.2256-2.2896-.1896-3.384-1.4992-.3544-1.608-.2688-2.8912.1264-4.496 1.3952-5.6736 3.3872-11.324 4.852-17.0264q11.6904-46.7688 24.3312-93.2904l10.0272-37.8328c1.9416-7.5216 3.4176-15.636 6.1576-22.8648Zm-42.6656-11.6208c.1696.0016.34-.0024.5104.0048 1.4648.06 2.284.1616 3.2832 1.2712.2976 1.4352.2776 2.5608.0024 4.0056-.604 3.176-2.0976 6.3872-2.9256 9.5528-2.5032 9.5704-4.8272 19.1784-7.3976 28.7344q-11.8848 43.3272-22.9536 86.8712c-3.9504 15.1568-8.7488 30.2792-11.6224 45.6896-.1672-.0056-.3352-.0048-.5016-.016-1.6208-.1152-2.2688-.3744-3.3256-1.6256-.3296-1.2832-.3608-2.4376-.148-3.748.4992-3.0712 1.8944-6.0272 2.6536-9.0488l6.0704-24.136q11.9848-46.9184 24.6768-93.6504c3.8792-14.4952 8.7576-29.2144 11.6776-43.9048Z"/>
  <path fill="#F9827A" d="m476.0176 179.108.2712.2448c1.0712 4.0152.3528 10.1272.3624 14.3872-19.5128 9.832-38.7488 20.1472-58.4576 29.5912-.632-4.5432-.628-9.3312-.2808-13.8936 12.2808-7.5968 27.52-14.9864 40.5208-21.4248 5.848-2.8968 12.0272-5.4816 17.584-8.9048Zm-58.4688-69.7176c6.0384-2.5208 11.7624-5.6552 17.604-8.5848q13.5232-6.6496 26.8848-13.6168c4.8224-2.5336 9.4336-5.4552 14.4072-7.6896.0208 4.78.4144 9.9864-.208 14.7096l-.7464.4936c-5.6128 4.248-13.056 7.0432-19.32 10.292-3.348 1.736-6.6408 3.9528-10.108 5.4056-1.572 1.3824-4.152 2.4064-6.0176 3.4032-7.6392 4.0816-16.3432 7.5008-23.0336 13.0752l.5376-17.488Z"/>
  <path fill="#3C3C68" d="m571.128 246.5896 51.4304-27.2664c8.7216-4.6536 17.4688-10.0136 26.4632-14.0776.88-.3976 1.7816-.6744 2.7432-.4024.8536.2424 1.9544.8904 2.4264 1.6568.996 1.616.536 77.6024.7064 85.6192l-9.2448 5.2232c-9.3056 5.0128-19.5048 9.564-28.416 15.168.44 2.7168.8776 5.4152 1.5152 8.0936l1.9256 4.8624c2.092.6472 5.068 1.236 6.0864 3.4096.392.8352.1936 1.1664.0664 2.0424-3.3968 5.4384-32.0792 15.1088-39.4304 16.8472q-1.8112.4256-3.6464.732c-1.696-1.5288-1.5952-4.3936-1.7072-6.5224-.0304-.5792-.0688-1.1584-.0576-1.7384-.4496-3.1984-.66-6.3992-.868-9.62l-30.0824 15.5944c-5.3688 2.8152-10.672 6.1496-16.324 8.3304-1.46-1.0512-2.9824-2.0624-4.3664-3.2096q-.3232-3.068-.6144-6.1392c-12.8088 6.6512-25.9016 12.9592-38.564 19.8592 4.8672.2656 9.8144.576 14.5912 1.6016 8.8672 2.3336 14.5248 6.2184 19.1928 14.1552.2472.42.1656.2744.3728.7472 5.0136 9.3464 6.6952 20.2872 3.6144 30.5712-1.072 3.58-3.2896 8.128-6.0952 10.6776-.9472 1.0784-1.8704 2.2312-2.932 3.196.9296 2.68 1.868 5.3368 2.964 7.9544.4544 1.4232.5512 2.6232 1.7968 3.5248 4.34.0832 8.72-.5832 13.0432-.256 10.5448.7984 21.4128 7.8416 28.568 15.2808 3.4744 3.6112 6.4568 7.6792 9.2976 11.8 1.9104-1.204 3.8848-2.3008 5.848-3.4144 5.9912-5.0824 17.5608-9.9152 24.6744-13.8456l59.9408-33.2768c-1.0176-2.108-16.7632-8.6864-19.8632-10.1376-6.4224 5.0072-20.1296 12.2856-27.7544 15.432-6.5072-2.032-48.288-21.6688-52.404-25.2528-1.0104-.8792-1.5896-1.3512-1.6856-2.6736 4.4032-4.776 19.7688-11.2688 26.1216-14.7472 6.7672-4.2624 14.1376-7.8752 21.1216-11.7936 11.8448-6.6472 55.6488-32.5192 66.2672-33.8864 7.5048 2.836 38.4296 19.1568 42.3816 19.428.756.0512 1.976-1.3464 2.568-1.8568 2.7984-3.7496 6.908-7.1568 10.2632-10.444l-4.1584-5.2072c-3.2192-.1368-6.3128 2.7496-9.444 3.6296-1.9584.6272-3.9432.8904-5.988 1.056-1.6912.1368-3.612.0088-4.892-1.2768-1.1992-1.204-1.0952-2.6088-1.1688-4.2176-.1808-3.1208-.264-6.2656-.988-9.3176-.076-.1952-.1568-.388-.228-.5848-.6424-1.7528-1.1472-2.6248-2.5352-3.9088-2.9408.4744-7.9448-1.8688-10.692-2.9888 1.8696-4.6696 5.296-8.6752 6.5304-13.6144-1.272-5.8408-2.1208-11.7184-1.904-17.7064l-.1456-1.6424c-1.4056-1.896-8.632-3.1888-11.1648-4.5336-4.956-2.6296-7.7936-6.3448-9.4296-11.6456-.2784-.6632-.5016-1.2272-.6488-1.9344-.552-2.6576-.9328-5.632.7176-7.9096 3.2512-2.1136 9.0064-.5528 12.804-.4248 2.7256-.2712 5.2368-.7168 7.8848-1.4192l3.0016-.9664c3.772-1.8104 7.4616-3.776 11.3056-5.4352 6.4816-3.4728 12.8032-4.3152 20.0456-4.2264 3.5904-.0432 7.1056.1952 10.632.9168 6.024.8328 11.624 3.056 16.952 5.9432 5.4712 3.0808 11.184 7.5792 13.124 13.848.1672.5416.1616.6192.2264 1.1056 2.5024 6.8272 1.5656 15.1752-1.0616 21.8488-1.8712 6.5704-6.6456 11.4216-10.9816 16.4856 1.752 6.1296 3.456 9.7344 8.0008 14.288 2.24.0144 4.5648-.1072 6.7832.2096 10.1312 2.5056 17.7656 10.876 22.9976 19.4952 4.5304 7.4608 6.8264 15.48 9.5384 23.6744 7.552-1.1104 15.064-1.4904 21.472 3.384 5.272 4.008 8.4 10.6232 9.192 17.1 1.304 10.6584.2 24.4712.16 35.5128-.056 14.0368.68 28.3304.032 42.3336-.088 1.9624-.088 4.8528-1.28 6.4744-2.072 2.8088-6.376 5.04-9.304 6.9256.56 3.3976 5.68 3.7008 2.584 8.8064-.248.416-.304.44-.608.7304-1.4 3.6912-11.712 7.8336-15.4 10.0408l.016 56.2392c-2.168 1.8816-4.368 3.136-7 4.2656-1.08-.1824-2.488-.336-3.472-.8096-2.904-1.396-5.8752-4.128-8.7968-5.7944-8.2752-4.7208-16.8568-9.0264-25.2824-13.4784.0352 11.1232-.0184 22.2552.1472 33.3768 7.1608 3.8552 59.996 30.068 61.684 33.1888-1.472 2.6504-63.8816 35.332-71.0288 37.7344-6.8152-3.4952-65.2632-32.4256-66.072-34.0112-.4432-.8704-.2832-2.248-.2488-3.2016 4.1728-5.4552 45.8112-24.2584 56.0328-32.536-.664-15.4968-.3296-31.18-.4904-46.7008-2.576-.7032-5.0848-1.5856-7.6064-2.4584-1.1296.9472-.9144 1.932-1.0408 3.3648l-.0744.9144c.8856 8.1032.8568 29.8112-3.9944 36.0056-1.936 2.4712-4.8024 3.832-7.896 4.132-6.2264.6048-28.1616-8.3728-32.8696-12.5264-1.404-1.2376-2.3888-2.88-2.4656-4.7848-.064-1.5752.4856-3.1864 1.6064-4.3096.8432-.8448 1.7296-1.36 2.808-1.84 4.212-1.6608 8.1344-1.3528 12.5512-1.1608-2.86-11.4176-6.7256-22.9424-8.3312-34.6048q-9.2456-3.4696-18.1824-7.672c2.5608 10.6664 4.8912 21.244 6.6112 32.0872 1.8248 12.6136 4.4016 26.4536 4.384 39.1616-.0048 3.6624-1.1352 16.2872-3.8112 18.5776-1.7744 1.52-5.3344 1.532-7.5872 1.3704-8.292-.5936-29.356-7.2832-34.6032-13.7848-1.14-1.4128-2.0408-3.196-1.7168-5.0624.3688-2.1264 2.0872-3.8704 3.8424-4.9832 5.1976-3.2968 11.7432-1.4344 17.2496-.1048-5.5968-12.8776-15.3024-33.6424-17.9328-46.692-2.8064-6.9784-4.2152-15.676-5.052-23.144-1.0576-9.4448-.8696-21.416 5.4424-29.18 9.2776-11.412 27.6312-10.3336 40.9096-11.7208 6.2456-10.4408 12.6136-18.5104 24.8624-22.2024a102.324 102.324 0 0 1-.0272-6.9368l-.7432-6.4288c-2.5896 1.5248-5.0744 3.308-7.58 4.9712-7.0512 4.7864-14.6984 8.7936-22.0952 13.0216-16.9616 9.6968-34.1792 18.9312-51.292 28.356-11.0448 6.0824-22.0032 12.3816-33.2016 18.1744-4.0432 2.0912-8.3024 4.6736-12.6216 6.0744 1.9152 5.504 7.4408 5.708 10.292 10.512 4.4624 3.7392 6.7552 12.4352 7.2152 18.0048.8456 10.2408-.008 20.992-.0144 31.304-.0096 15.332.5888 30.8672-.0232 46.1744-.0432 1.0768-.0016 2.5832-.6624 3.4784-.6752.9144-1.7872 1.7312-2.688 2.4224-15.1088 6.624-8.4488 6.1384-17.1632 16.1464-3.78 4.34-8.2048 7.6016-12.5672 11.276-10.3048 7.3024-20.6648 13.8888-31.7888 19.9184-.0616 10.388-1.4872 37.6824 1.0968 46.2392 1.188 3.9344 3.6344 7.4312 6.4856 10.3448 8.3648 8.5488 30.824 17.3184 42.4792 22.9456 3.8152 1.8424 8.3592 3.7304 11.72 6.3072 1.1392.8736 1.6136 1.648 1.9776 3.0144-.1872 1.7368-.8024 2.536-2.1776 3.6104-5.3864 4.208-15.564 8-21.928 11.3928l-29.6208 16.1032c-4.484 2.4256-9.0288 5.2992-13.7104 7.2904-2.2768.9688-4.5128 1.6312-7.012 1.224-5.176-.8432-33.2688-15.6032-39.464-18.9896-2.4528-1.7648-5.6312-3.1064-8.3784-4.3768-5.9968-3.4672-13.1136-5.5824-18.7984-9.5008-1.3744-.9464-2.412-1.7136-2.7536-3.3976.2608-2.0616 1.2952-3.2744 2.8968-4.5504 3.5608-2.8384 8.236-4.7632 12.2784-6.8208 11.2336-5.7168 29.0416-13.7024 37.7928-22.4224 2.4752-2.4672 4.7568-5.496 5.7968-8.8704 2.6256-8.5208 1.2424-34.4368 1.2192-44.3952l-8.9264-4.1488-.0864 28.1664c-.0024 4.4048.528 9.788-.2216 14.0824-3.4648 4.7992 1.284 11.56-2.536 15.9288-1.7872 2.044-4.8312 2.8-7.424 3.0312-9.3408.8312-30.6384-5.032-37.9024-11.488-1.4656-1.3016-2.9472-3.1248-2.9384-5.188.004-1.0288.4688-1.9632 1.2424-2.6472 4.9504-4.3728 15.4048-3.2648 21.5416-3.02-5.2352-17.6824-6.7152-36.2456-11.0232-54.0824-7.8712-2.9464-15.868-5.9536-23.552-9.352l-.8608-.1824-.9968.508c-1.2192 4.5928-.3 12.7648-.284 17.7464l.288 41.056c.06 7.1632.4368 14.5184.0856 21.6632.068 4.048 1.5944 19.2096-1.1952 21.9416-3.2472 3.1816-10.3968 3.292-14.6568 3.0952-7.6176-.3528-27.6032-5.3248-33.0152-10.8784-1.0536-1.0808-1.2608-2.192-1.3672-3.6416.2376-1.9448.9256-3.3944 2.392-4.7328 4.4072-4.0216 12.8936-3.2832 18.3656-2.8752 1.912-1.0992-.296-7.7288-.8304-9.8584-4.2704-17.004-19.6744-84.916-15.064-98.4728.6464-1.7168 1.692-3.3136 2.8688-4.7168 12.2336-14.5832 50.9208-28.4376 69.6744-29.9048l.596-.1736c3.6288-1.0248 11.3432-.68 13.4376-4.132 1.9184-3.16 2.0808-9.9048 2.0696-13.5744-9.9016 4.9568-27.8552 17.0944-37.1888 19.808-3.5728 2.0144-7.6344 2.0464-11.5.912-.1784-.052-.3512-.1248-.5264-.1864-12.176 6.2248-23.912 13.9416-35.7304 20.8824-5.2032 3.0552-11.028 6.952-16.7568 8.8664-2.5168 2.2456-6.416 3.704-9.4664 5.1536-1.3424 2.68-.524 28.5392-.5152 32.9888l.0376 112.3472c.0016 2.8568.5736 23.8016.1736 24.4568-.0144.0224-.9928.664-1.0016.6688-.0592.0312-.1312.0272-.1968.0408-2.5792 1.6136-5.8592 3.0784-8.8208 3.7912-4.3696-3.0288-9.6552-5.26-14.4072-7.6544l-25.192-12.7336c-2.8016-1.5744-5.7208-2.988-8.5736-4.4712-11.26-5.9808-22.4656-12.1152-33.9128-17.7304-3.1584-2.2776-7.7784-4.0456-11.3032-5.8248-12.6472-6.4408-25.0792-13.3208-37.7744-19.6544-2.208-1.6496-5.4-2.8224-7.956-3.872-5.4832-2.8568-11.2576-6.116-17.1256-8.0568-.4328-12.24-.0376-24.6048-.044-36.8576l-.3672-77.6112c.988-8.8328.3536-18.4328.3632-27.3376q-.088-26.2472.2688-52.4904c26.7344-13.8424 53.0256-28.5568 79.8104-42.3096.6784-.5424 1.1504-.764 1.392-1.6384.7856-2.8424.2984-6.9912.2728-9.9872-.0664-7.7472-1.4928-37.1568.3608-42.7208.6256-1.8792 2.0896-2.6952 3.6872-3.7072 5.2504-3.3224 11.1304-5.988 16.6112-8.9392q16.7968-9.1384 33.7224-18.0368l70.3096-37.808c1.9288.676 3.7656 1.5768 5.6192 2.4336.4176 6.8816.0712 14.0024.1136 20.9104l.3944 40.4624c6.2968-3.6344 12.6128-7.2464 19.1904-10.352 2.0504-1.1096 4.164-2.124 6.2472-3.1728-.9248-4.3408-1.32-8.5168-.2536-12.8784.8752-3.5816 2.8216-7.2064 6.1136-9.076 3.924-2.228 7.116-1.1768 11.1328-.0232 4.4936.2536 9.1888.2184 13.6424.7392 8.5024-3.0656 16.748-7.9824 24.7848-12.1488 7.3232-3.796 15.0704-7.3536 22.0896-11.668.2912-24.2032.0632-48.4344.0392-72.6408 3.112-2.344 6.8136-4.0808 10.2304-5.9472q15.384-8.3432 30.8976-16.4432Z"/>
  <path fill="#F3F4EF" d="M642.5688 374.3312c1.8384-.7648 3.5568-1.5656 5.52-.6728 1.0304.4688 1.0456.6968 1.4472 1.6872-.664.9184-1.108 1.1432-2.2576 1.2768-1.6688.1936-3.2232-.6144-4.6824-1.3032l-.0272-.988Zm9.0368 2.0936c.176.0176.3528.0312.5288.0528 1.6048.2008 3.7568 1.2624 4.668 2.5168l-.2504.8872-2.2216 1.1072c-1.636-.5648-4.124-1.0648-5.2224-2.4352.408-1.356 1.2872-1.4656 2.4976-2.1288Zm-42.9224 9.5c1.5872.7864 2.964 1.6224 4.3752 2.6936-1.8216.9496-3.6616 2.0256-5.5368 2.8528a61.4618 61.4618 0 0 1-3.0104-2.0968l-.036-.7288q2.128-1.3224 4.208-2.7208Zm4.6136-10.5856c1.4168-.6616 2.1952-1.06 3.7584-.74 1.4992.7768 2.9488 1.504 4.5432 2.0736l-4.8904 2.9544-5.6568-2.6896c.7824-.4856 1.5064-1.0496 2.2456-1.5984Zm29.6992-14.2304-1.2512-1.084c.228-.9848.4688-1.4744 1.4056-1.9768 1.6344-.876 3.3784-1.316 5.2104-.9392 1.048.5192 2.2984.9968 3.1632 1.776-3.1336 1.6176-4.772 2.7112-8.3488 2.2216-.0592-.008-.1192.0016-.1792.0024Zm-10.4896 11.9448 4.2288 2.0096c-1.2264 1.3232-2.52 3.0336-4.4608 3.1848-.936.0728-1.9568-.2648-2.8528-.508-.7696-.3976-1.3176-.756-1.9392-1.36.6376-1.56 3.4864-2.548 5.024-3.3264Zm5.9688.7688c-1.3928-.5064-2.66-.7936-3.5704-2.0216.8504-1.5072 2.5008-2.1272 3.9728-3.0088 1.5352.6296 3.5808 1.1888 4.6896 2.4496-.2936 1.268-.9536 1.3944-2.004 2.1072-.988.3-2.0688.8184-3.088.4736Zm-30.1256 4.0024c2.0256.8504 3.9664 1.7256 5.8952 2.7848l-5.3168 2.9016c-1.5568-.668-3.1168-1.4208-4.7128-1.9808l.4832-.976c1.4312-.8152 2.5272-1.5176 3.6512-2.7296Zm-18.1312 9.9216c1.972-.6512 3.1176-.74 5.068-.0168.8032.5712 1.32.9352 1.8488 1.792-.6872 1.5088-2.8456 1.9768-4.3536 2.6488-1.4456-.6528-2.8464-1.2944-4.2056-2.1152l-.1056-.9856 1.748-1.3232Zm39.0184-21.6264 3.4936.0952c1.16 1.0016 2.3576 1.4296 3.7792 1.9672l-4.968 2.9464c-1.708-1.2136-4.2072-1.7216-6.2008-2.36 1.42-.7776 2.768-1.4552 3.896-2.6488Zm-14.2856 23.7168 5.456 2.7928c-1.26.8944-2.88 1.792-3.916 2.9224-2.0904-.6272-4.2328-1.8632-6.3136-2.656.8896-1.6176 3.124-2.2408 4.7736-3.0592Zm69.1784-30.604c1.3736.9672 2.8336 1.8928 4.104 2.9912l-4.792 2.8832c-1.8304-.928-3.6512-1.8944-5.5072-2.7712 1.4864-.8248 3.304-1.6048 4.5808-2.7192l1.6144-.384Zm-83.0384 31.1888 4.644 2.0192c-.5696 1.4584-1.7096 1.34-2.5896 2.4384-.5192.2168-1.036.4248-1.5784.58-2.2384.6416-4.7304-1.1456-6.6544-2.1616l6.1784-2.876Zm52.7144-22.2016 4.8632 2.516-5.9152 3.4688-4.8448-2.3768c1.9984-1.128 3.9416-2.404 5.8968-3.608Zm-35.0872 4.9608c.876-1.5872 2.94-2.3328 4.4968-3.1592 1.9864.9936 4.0992 1.6144 6.2088 2.2832-.764 1.4392-3.5856 2.316-5.0592 3.0256l-5.6464-2.1496Zm42.9512-25.5504c1.8888.692 3.8336 1.3216 5.6808 2.1152-1.9072 1.2872-3.8232 2.4456-5.8472 3.54-1.672-.8992-3.2856-1.8576-5.1184-2.388 1.58-1.4336 3.4048-2.2984 5.2848-3.2672Zm-6.3936 19.1848c1.6064-1.0432 4.2056-3.1592 6.1536-2.9248l5.0208 2.6648-5.5136 2.7416-5.6608-2.4816Zm-10.5968-1.668c1.5376-.6904 1.9024-.824 3.572-.1416 1.2408.5072 2.456 1.2416 3.636 1.8808-1.4 1.364-3.5 2.3304-5.1848 3.3296-1.7328-.9824-3.6176-1.7408-5.4336-2.5584 1.2408-.7624 2.3328-1.528 3.4104-2.5104Zm-5.4288-4.2968 2.84 1.3696 1.4096.9224.0024.9392-4.776 2.7112c-1.7272-.912-3.3264-1.6872-5.2192-2.2288.9088-1.3584 4.28-2.8656 5.7432-3.7136Zm21.1656 10.9904 5.2608 3.2272c-1.7824.9992-3.6544 1.8904-5.4728 2.8256-1.736-1.0416-3.5896-1.9184-5.3896-2.8472l5.6016-3.2056Zm-38.568 6.804c1.1632-.6352 1.8376-1.2064 3.2264-.764.6032.192 1.2032.5688 1.7536.8808l3.1408 1.5432-4.3784 2.9488c-1.864-.7632-3.924-1.1504-5.4928-2.4672l-.0456-.8144 1.796-1.3272Zm30.7864-18.6888c2.1376-.3896 4.6016 1.4864 6.4944 2.4288-1.7784.9608-4.1752 1.9128-5.56 3.3816-1.7152-1.156-3.8056-1.96-5.676-2.8512 1.7192-.8848 3.2056-1.7784 4.7416-2.9592Zm-3.0256-3.904-.3776-1.132c.5904-.5608 1.1944-1.112 1.888-1.5448 1.5552-.9688 2.784-1.2176 4.528-.8856 1.1656.736 2.3408 1.1512 2.8248 2.4768-1.172 1.3248-3.144 2.0088-4.7248 2.7616-1.3704-.5584-2.7432-1.1888-4.1384-1.676Zm25.2864 7.4632c1.9864-.0136 4.3504 1.8832 6.0376 2.8992l-5.2592 2.6768c-1.6776-.024-4.2184-1.8368-5.7688-2.668l4.9904-2.908Zm-19.2048-4.8048 5.5048-3.2656c1.8304 1.032 3.7416 1.9608 5.6064 2.9328-1.752.8568-3.3656 1.8184-5.0032 2.8672l-.7328.2888-5.3752-2.8232Zm-59.9064 26.2968c2.9176-1.5912 4.4064-2.7872 7.7752-1.8 1.1256.6976 2.2448 1.408 3.3936 2.0664l-6.3728 2.7176c-1.3752-.6072-2.772-1.392-4.2632-1.6048l-.5328-1.3792Zm73.8136-33.9648 5.7712 2.6872c-2.3016 1.0256-4.8384 1.9648-6.9504 3.3352-1.6592-.9112-3.3456-1.7776-5.0192-2.6632 2.0776-1.0976 4.1336-2.2384 6.1984-3.3592Zm-6.5608 11.112c1.8992-1.0856 4.3112-2.8808 6.4808-2.708 1.4264.8152 2.6432 1.2544 3.512 2.696-.6856 1.4424-3.72 2.4856-5.1552 3.2-1.5368-.9632-3.0088-1.8776-4.68-2.6016l-.1576-.5864Zm13.5816-7.2688 4.2608 2.0656.5456 1.2872c-1.9464.9176-3.9192 1.8-5.8312 2.7864-1.2584-.6952-2.5528-1.5312-3.9192-1.9768-.4784-.416-.7488-.8064-1.108-1.3224 2.1096-.6656 4.0856-1.8344 6.052-2.84Zm-13.912 15.6152 5.244-3.0792c1.736 1.0608 3.4472 2.1816 5.3008 3.028l-4.248 2.5448c-1.1744.5896-1.3328.8712-2.6272.3864-1.3512-.5072-3.0832-1.592-3.6696-2.88Zm-58.7576 25.5896c.8976-.4192 1.7312-1.0648 2.6064-1.5448 1.1912-.6536 1.1072-.6608 2.4664-.2672l5.212 2.3928c-1.896 1.0984-3.8168 2.1544-5.5944 3.4408-1.7912-.788-3.9368-1.4568-5.3104-2.8824.1848-.5696.1624-.7216.62-1.1392Zm12.0128-14.064c2.2736-.1872 5.0032 1.52 7.0248 2.4592l-5.3264 2.9752c-1.9696.2512-4.8208-1.7416-6.6552-2.6808l4.9568-2.7536Zm1.7504 14.3704 4.1904-2.6712c1.8512.8112 3.7208 1.8872 5.78 1.824l2.2176 1.3496c-1.7088 1.0704-3.5528 1.9944-5.3192 2.972-2.3248-1.064-4.592-2.3088-6.8688-3.4744Zm-2.12 1.3144c2.2504 1.0104 4.4432 2.2528 6.64 3.3792-1.5544 1.0504-3.2024 1.9984-4.7976 2.9888-2.3664-.7432-4.7832-2.0704-7.0664-3.08 1.7032-1.1496 3.4792-2.2032 5.224-3.288Zm15.2408-16.276.8952.0832c-.5872 3.86-2.7312 6.6952-2.2624 10.8088.072.632.1152 1.2712.1784 1.9048-3.8912-.804-7.412-2.9328-10.8264-4.872 4.368-2.3176 8.7384-4.1032 12.0152-7.9248Zm-137.264 26.8544c.864.0936 1.356.1176 2.12.5824 1.0608.6448 1.4856 2.4136 1.6928 3.552.6216 3.4128.06 7.6672-1.8784 10.5384-.6632-.0944-1.3392-.1736-1.8976-.5888-1.1056-.8216-1.816-2.5928-2.0944-3.8976-.7664-3.5904.144-7.148 2.0576-10.1864Z"/>
  <path fill="#F3F4EF" d="M687.5768 357.8152c4.9136 1.112 9.7488 2.288 14.396 4.2648.7976.344.968.3864 1.4976 1.1168-2.2056 2.6904-7.7424 4.6584-10.9368 6.2744-1.724-1.44-3.6784-2.568-5.5792-3.756 1.0112-.6592 2.3392-1.3688 3.1056-2.3088.6448-.7912.5432-1.144.492-2.0968-.9944-1.2464-2.1304-1.7744-3.5336-2.4896l.5584-1.0048Zm26.2688-3.9088c-13.1344-6.5336-26.6632-11.8016-39.4152-19.1432l.1816-.4512c1.7512-.3568 3.0168-.2936 4.7336.2184 5.3424 1.5936 10.576 4.7808 15.6464 7.1656 7.656 3.6016 16.1232 6.6688 23.292 11.1472.024 1.3736-.4552 1.832-1.1608 2.9856-.96-.924-2.0848-1.3752-3.2776-1.9224ZM448.0088 519.6632l1.42-.192c.6872 2.7392-6.9096 14.6648-8.4992 17.5576q-7.7408-2.3424-15.512-4.5792c7.5408-4.1848 15.2824-8.2104 22.5912-12.7864ZM734.488 300.224c1.78-1.008 3.1144-1.8816 5.176-1.2016 1.8528.6112 3.156 2.2608 3.9168 3.992 1.5992 3.6392 1.9 9.0128.3064 12.6792-.6056 1.3952-1.3072 1.9832-2.608 2.716-1.72.244-2.84.0952-4.272-.952-.1976-.1448-.3904-.2976-.5864-.4464-3.38-4.0224-4.2424-7.3176-4.4704-12.4744l.5112-1.6864 2.0264-2.6264Zm-49.6776 66.6824c1.9392 1.2328 3.9728 2.4024 5.7872 3.8136-4.9736 2.7192-22.76 10.832-25.3016 15.3664-1.8984-.4176-3.9056-.5512-5.8368-.7864l-3.0416-.38-.304-.3408.0664-.6928c1.1384-.2752 2.2128-.5496 3.2992-1l-1.9008-.9656c4.5744-2.3152 9.256-4.5888 13.5264-7.4352q6.9064-3.6928 13.7056-7.5792Zm32.1928 66.6648.5912.5384c1.1288 4.74-1.0024 12.0704-2.4416 16.6408-5.8032.7744-11.7936.9304-17.6408 1.3752l-.6912-.5896c.064-.488.1184-.9104.3272-1.3624 3.6424-7.8736 12.2288-13.3048 19.8552-16.6024Zm-199.4744-4.7704c1.3376 3.0296 2.648 6.0296 3.704 9.1736l-.04.9784c-2.6872 2.3848-7.3224 3.7544-10.5744 5.3968q-5.8424 2.8984-11.3192 6.44c-.7792-1.944-1.4488-4.0608-2.6512-5.784 2.1376-2.7368 3.3544-5.0616 4.184-8.412 3.0432-.8632 5.9656-1.7336 8.848-3.0472 2.8392-1.3928 5.3152-2.8568 7.8488-4.7456Zm237.6544-114.2416 5.5008-2.0208 5.864 6.6576c-7.16 2.9192-26.1832 11.3248-30.7496 16.8144l-1.5616-1.412c1.3032-3.836 3.0256-7.3504 3.6616-11.4032l.096-.628.7992-.58c1.2688.0664 2.5984.092 3.7824-.4376 2.1456-.96 3.0888-2.7184 3.8208-4.8416 2.8992-.8 5.8624-1.4384 8.7864-2.1488Z"/>
  <path fill="#F9827A" d="M630.6576 394.4224c-.092-.4536-.168-.9016-.248-1.3568-.224-1.2712-.2984-2.3016-.02-3.5816 1.0088-4.6336 3.8784-9.7536 7.9608-12.2664 1.6024-.9864 2.2584-1.1056 4.0136-.6784 3.648 2.0504 9.4016 6.4 13.6072 6.2728l1.6072-.8912 1.9008.9656c-1.0864.4504-2.1608.7248-3.2992 1l-.0664.6928.304.3408 3.0416.38q-1.3424.5928-2.656 1.2456l1.992.14-.6272.528c-4.1888-.2352-8.5992-1.036-11.9912 2.044-.9936.9024-1.8104 1.9424-2.6104 3.0136l-1.4368-.248c-1.2672 1.7928-2.2248 3.9776-4.2488 4.8352l-3.0096-.5776c-1.4624-.5208-2.8216-1.176-4.2136-1.8584Z"/>
  <path fill="#211127" d="M649.4224 385.1472c2.3216-.1536 4.6688-.1632 6.9952-.2272l3.0416.38q-1.3424.5928-2.656 1.2456l1.992.14-.6272.528c-4.1888-.2352-8.5992-1.036-11.9912 2.044-.9936.9024-1.8104 1.9424-2.6104 3.0136l-1.4368-.248c2.1496-2.9328 4.1872-4.9608 7.2928-6.876Z"/>
  <path fill="#748EAE" d="M703.0448 540.6432q4.496-.0208 8.9912.0088c.3184 2.1512 2.584 5.912 3.944 7.6376 3.216 4.0784 9.1912 6.4272 14.3112 6.4056 2.3488-.0104 4.6816-.3792 7.0184-.0616l.0256.9632c-.8024 1.52-2.0056 3.3744-3.5824 4.1584-3.0384 1.5112-8.5296.8864-11.5744-.4192-5.4648-2.344-23.264-8.7104-25.4888-14.1856.0832-.8056.016-1.1952.4888-1.8856 1.3032-1.9032 3.7784-2.184 5.8664-2.6216Z"/>
  <path fill="#F3F4EF" d="M486.4184 528.024c2.9272 3.1288 4.1848 10.8384 5.3464 14.9832-8.7368 4.72-17.3448 9.7192-26 14.592l-4.9968 2.876c8.8944-13.1056 13.892-21.18 25.6504-32.4512Z"/>
  <path fill="#F9827A" d="M811.968 494.0688c.584 5.4728.288 11.2736.352 16.788.144 12.2216.224 24.5584-.384 36.7672-2.08 1.4552-3.896 2.368-6.424 2.8048-.76-5.5352-.296-11.6888-.32-17.2928l-.064-35.0448 6.84-4.0224Z"/>
  <path fill="#748EAE" d="M655.5096 564.2224c4.9864-.6552 9.8272.2784 14.5568 1.824 2.0904 3.144 3.6992 6.2344 6.8232 8.5184 2.8848 2.1096 4.9768.9856 8.1704.6048 2.172-.2592 5.7072-.252 7.4696 1.1192.1032.5184.18.8816.1176 1.4136-.3496 2.968-1.5536 5.3392-3.9056 7.1456-.9224.02-1.8584.0224-2.7776-.0784-7.3656-.8096-29.5712-7.3024-33.9984-13.1104-.7976-1.0464-1.1216-2.0384-.8744-3.368.3928-2.1192 2.7248-3.16 4.4184-4.0688Z"/>
  <path fill="#A4C6C9" d="M470.5424 689.2744c4.2552-.1592 8.576-.5552 12.7568.4384 11.6328 2.7656 12.7992 7.7752 26.232 3.6992.0112 2.9232.3088 6.3936-.4272 9.2192-.4952 1.9032-1.272 2.296-2.8592 3.2296-2.9696.4592-6.1248.4944-9.1104.1744-6.8336-.7328-26.8648-6.3256-31.2472-11.756-.156-.6816-.4744-1.2392-.1408-1.9024.9016-1.7888 3.0288-2.5048 4.796-3.1024Zm-69.6072 24.5808q.5592-.548 1.1464-1.0656c5.0144-4.5032 12.7368-3.7656 18.9768-3.4456 2.1464 1.6456 4.5784 2.7544 6.9928 3.9456 6.3416 1.9664 12.0048 1.1048 18.3968.02-.02 2.7504.5784 8.36-1.324 10.3864-2.1016 2.2376-7.0544 2.2752-9.9376 2.2184-8.3928-.1656-27.444-4.1224-33.2304-10.3168-.5024-.5376-.7528-1.0672-1.0208-1.7424Z"/>
  <path fill="#F3F4EF" d="M700.008 281.0848c6.4296.628 10.5912 1.7832 16.4016 4.8664 8.412 7.2184 10.236 6.8064 13.3024 18.8632-4.6344 1.172-8.196 3.304-13.1176 3.5376-2.432-.2984-4.6336-1.0832-6.904-1.9824-2.9488-1.1688-6.8272-2.8448-8.132-5.908-.2992-4.6272-1.452-9.336-1.8792-14.008l.3288-5.3688ZM457.0736 390.46c3.896 3.9888 21.276 18.768 21.4504 23.1552.1584 4.0064-2.5064 8.2432-5.2776 10.9736-2.2568 2.224-5.2768 4.1336-8.5576 3.9704-2.2112-.1104-4.2544-.9352-5.6504-2.6888-.8344-1.048-1.5512-2.2408-2.276-3.3672-1.7464-3.6584-2.1512-6.5488-2.3416-10.5664.6848-7.2592.7792-14.38 2.6528-21.4768Zm-77.7112 125.4168c8.1456 4.3816 16.3648 9.0736 23.672 14.7776-2.4136 3.4056-3.9056 6.5-5.0608 10.5024-1.5336-.2392-3.1048-.572-4.652-.6648-3.2248-1.068-6.6584-1.7688-9.952-2.6176-1.4224.8368-2.8192 1.5544-4.3416 2.1912-1.5672-1.2488.9064-3.3616.312-5.2584-1.9728-.2248-2.852 1.6096-4.7352 1.6272-.8432-.7384-1.1656-1.2496-1.5904-2.2848 1.3016-.2624 2.4864-.5832 3.7336-1.0384.6832-1.2352.4152-1.5848.1672-2.9384-1.2112.3624-2.7552 1.036-4.0056 1.0888-.9408.8616-1.984 1.6848-2.6976 2.7504l-.7096.8896c.2696 1.3728.7504 1.6528 1.8992 2.4848 1.9064 1.38 3.8392 2.1336 5.284 4.0864-.0232.4312.0024.9672-.1064 1.3816-7.5624-.44-16.6104-7.2072-23.1848-10.9488 8.616-5.1752 17.9656-9.9976 25.968-16.0288Z"/>
  <path fill="#F9827A" d="M379.3256 520.9544c2.0096 1.2632 3.784 2.8584 5.592 4.3872 1.5816 1.6648 4.7472 4.1216 5.3264 6.2448-.4152.7424-.508.912-1.3976 1.1416-1.0096.2608-2.2224.0736-3.2552-.0008-2.5016-1.1544-5.412-2.3216-8.0936-2.9312l-.5824.3768c-1.2112.3624-2.7552 1.036-4.0056 1.0888-3.0528.1272-4.7808 3.1072-7.5248 3.2608-2.3296.1304-4.3728-1.7104-6.1616-2.9944 6.26-3.968 13.452-7.2744 20.1024-10.5736Zm317.552-207.884c1.5744-3.1056 2.996-6.248 4.3688-9.448 4.0104 2.6736 8.5344 4.6496 12.9888 6.456 5.3256-.0568 10.3104-.7144 15.4568-2.1072 1.1336 4.1296 2.4256 7.1616 5.0352 10.5688 1.2936 1.3008 2.5512 2.4112 4.0664 3.4472l-.7992.58-.096.628c-.636 4.0528-2.3584 7.5672-3.6616 11.4032-1.2344-1.112-2.5096-2.1584-3.8-3.204-.6776-.7616-1.0664-1.6088-2.1808-1.5904-4.1768.0672-8.936 4.476-13.48 5.264-1.1704-.06-2.3344-.1648-3.5016-.2712-1.2432-1.0568-1.1944-1.6064-1.5984-3.1512-.384-5.152-.0632-11.032-4.2616-14.6832l-8.5368-3.892Z"/>
  <path fill="#F3F4EF" d="m423.7552 557.9376 4.6504 2.0968c3.4848 2.0936 7.4608 3.7928 11.2312 5.3208-17.1192 10.972-35.4912 19.8088-52.7472 30.5096-2.1128 1.1592-4.2888 2.2656-6.3208 3.56.1488-5.8984-.0024-11.828-.0352-17.7296 11.5752-5.2848 22.9408-12.3768 34.0528-18.6144 3.0928-1.6384 6.12-3.424 9.1688-5.1432Zm376.8848-57.26c1.464 2.1464.544 39.4656.536 45.152l-19.94-10.4648c-3.6728-1.9176-7.2032-3.9536-10.728-6.1288l.1704-12c9.8096-5.836 20.0208-10.9496 29.9616-16.5584ZM689.284 421.288c5.6128.5096 11.1264.8168 16.6608-.4472-4.2088 4.1408-20.1072 11.808-26.0152 15.1376-18.3016 10.3136-36.7912 20.204-55.2208 30.2776-12.1064 6.6168-23.9856 13.644-36.3144 19.86-1.1512-2.2816-3.0952-4.3496-3.2856-6.9688l5.6696-3.2728c4.008-1.4224 8.0432-4.1248 11.788-6.1944q12.6776-6.9536 25.1512-14.2656c3.0752-1.1608 6.1448-3.2712 9.0296-4.8824 16.5424-8.3568 32.8104-17.9176 48.8808-27.1472l3.656-2.0968Zm17.5696 83.3568c10.7648 4.6856 21.5232 9.3 32.4872 13.5016.0344 10.0216.8992 22.4608-.7048 32.2184-2.192.9248-4.3912 1.6392-6.7824 1.7752-4.212.2384-8.364-1.1624-11.4544-4.0576-6.9152-6.4768-13.2432-34.0648-13.5456-43.4376Z"/>
  <path fill="#F9827A" d="M377.5304 582.6904c.3696 1.0208.4728 1.7848.4912 2.8752.312 18.6688-.3976 37.4152-.456 56.092-.0416 13.2104 1.0552 124.884-.3992 128.2248-.156.3576-.2992.5088-.5392.8384-1.832.212-3.5376 1.096-5.2248 1.8088q.8672-37.9056.6128-75.8208l-.1632-94.1432.2256-16.9328 5.4528-2.9424Z"/>
  <path fill="#F3F4EF" d="M667.064 416.188c3.6496-1.8312 6.3336-.3456 9.9776.8592 1.796.5936 7.9312 2.2112 8.8792 3.5584l-1.5256 1.0704c-9.084 4.5432-17.8712 9.7872-26.7992 14.6392-7.4616 4.0552-15.5624 7.828-22.604 12.5312-3.0968 1.5016-6.7392 3.3168-9.5024 5.3664-12.1904 6.788-24.7008 13.116-36.7312 20.1632l-4.5872 2.6008c-2.7032-1.6816-5.96-7.6512-7.1256-10.5592 1.9048-1.132 3.7352-2.3 5.5432-3.5824 7.78-3.7944 15.3224-8.276 22.8984-12.4672 20.5136-11.3456 40.8096-23.3304 61.5768-34.18Z"/>
  <path fill="#F9827A" d="m823.776 475.3152 1.856-.0288c1.08.4864 2.024 1.3472 2.552 2.4288.456.9368.472 2.1776-.064 3.0872-.816 1.372-2.552 2.4096-3.896 3.224-9.664 5.8432-19.872 10.9616-29.7096 16.532-8.8328 5-22.3128 13.6728-31.3728 17.0648-2.7792 1.04-5.3888 1.1856-8.3048.8296-15.7472-1.9216-48.124-16.2992-63.6104-23.3256-2.6392-1.212-7.1-2.7576-8.1968-5.5832 3.1552-.6832 39.7008 5.7856 46.52 6.608 7.1608.864 14.2384 1.2208 21.4472 1.312l.0152 6.5192c2.136 2.0984 4.8192 3.6336 7.8528 3.8584 1.8872.1392 3.576-.0872 5.3304-.7752 12.776-5.0064 29.3752-15.3488 41.8448-22.0944 5.304-2.8728 13.184-5.9528 17.736-9.6568ZM519.8432 625.8336c.132 3.0248.2344 5.8152 2.524 8.1088 1.2696 1.272 3.4992 2.0672 5.288 2.0264 7.4376-.1704 50.6648-24.756 61.7656-29.3008-9.1296 17.8304-43.7496 35.8736-61.0776 44.392-11.5432-4.704-23.1056-9.5656-34.8304-13.7976-8.876-3.5208-35.0256-15.2584-41.9192-15.9728l-1.136-.7096c-.6784-2.3928.0376-5.932.1896-8.4664 3.5552-.0464 7.0392.6384 10.512 1.3432 19.7064 3.4984 39.084 8.3624 58.684 12.3768Z"/>
  <path fill="#F3F4EF" d="M670.7744 335.5256c9.6496 5.688 19.3576 10.256 29.5248 14.8968 4.016 1.8328 7.9952 3.9928 12.1416 5.4928 1.0184.6808 2.264 1.1312 2.6104 2.3288-.5592.888-1.3648 1.9176-1.7536 2.8768-5.7832 7.184-13.0312 21.6704-17.2792 30.2056-9.0816-1.6072-18.8816-4.772-28.0888-4.812 3.424-2.4656 7.3664-4.4072 11.0552-6.4552 10.08-5.5976 20.8248-10.752 30.3936-17.16-2.0208-1.1208-3.9384-1.9576-6.1352-2.6752-5.2968-2.2544-12.4608-5.0304-18.26-4.5384l-.9688.4536c-1.412-.7-2.6712-1.5248-3.9744-2.4088-3.084-1.3392-6.0624-3.056-9.0472-4.6096l-9.2544-4.1056c-2.2888 1.7472-5.0192 3.12-7.508 4.5784-5.6824 3.1008-11.2144 6.4048-16.7392 9.7768-3.276 1.6568-6.4168 3.5832-9.58 5.444-5.496 2.4272-10.7864 5.932-15.9448 9.02-1.5984.724-3.2488 1.4-4.776 2.2648-4.2152 2.352-8.4936 4.6352-12.6408 7.1024-1.9112.9968-3.904 1.9328-5.736 3.064-2.0752 1.0096-4.1632 1.9936-6.164 3.1464 5.2704 4.4624 27.7968 15.364 34.7512 17.788 2.856-1.7064 10.9224-5.6776 12.74-7.7136 1.0824-.528 2.2192-.98 3.3248-1.46 2.4744.4984 4.5504.928 6.7544 2.216.0808.0472.1632.092.2448.1384.7896.732 1.3744 1.2848 1.832 2.2896-4.1336 3.7664-18.2384 10.848-23.684 13.0056-8.8368-2.6704-17.4864-7.3952-25.812-11.3944-8.604-4.1328-17.3896-8.0992-25.8064-12.5864q12.4976-6.6808 24.8152-13.6872c17.6136-10.2952 35.7096-20.1576 53.7304-29.7152 8.168-4.332 16.5888-9.5096 25.2344-12.7672Z"/>
  <path fill="#F9827A" d="M731.8952 245.5432c3.424.0536 6.6888.2744 10.0736.8024 5.4896 1.472 10.7864 3.0904 15.908 5.6096 6.6792 5.088 11.8232 9.1352 14.0504 17.5744.3392 5.3352.472 10.5416-1.3432 15.6528-3.4072 7.688-8.2424 11.3608-12.256 18.1184.3272 1.7256.648 3.432 1.0832 5.1344.2608 1.0168.236 1.468-.1376 2.4408-1.1464 1.1-2.4656 1.2736-3.9736 1.632-2.3144.4728-6.268 1.7952-8.4584 1.0792.2056-1.1528.4096-2.3472.4288-3.52.0624-3.9936-1.4376-8.6976-4.4008-11.4984-1.1872-1.1224-2.6568-1.8432-4.3144-1.7408-2.3232.144-3.9808 1.4688-5.5104 3.0928-.5384.792-.8168 1.3232-1.7184 1.728-2.9856-9.268-6.9056-12.9968-15.0352-18.0152-8.3496-5.0416-17.3408-3.984-26.1608-6.976-6.6704-2.264-8.5256-6.2136-11.4032-12.088-.2584-1.5808-.788-3.7032-.5936-5.2832.1496-1.2144.6816-1.5296 1.6224-2.1912 6.668.7096 12.7432.7392 19.2744-.9016l3.1944-1.204c4.1192-1.424 7.904-3.9792 11.7624-6.0048 5.9968-2.6528 11.4304-3.1856 17.908-3.4416Z"/>
  <path fill="#F3F4EF" d="M417.5368 481.6512c13.0752 6.7688 25.7016 14.3608 39.0504 20.624l1.3488.8792c-.184 3.5776-3.928 8.4096-5.524 11.704l-5.0896 2.5944c-8.2688 4.7552-16.9544 10.1336-25.672 13.964-2.12.0264-4.484-.5808-6.5824-.936-3.5336-.5984-6.9736-1.152-10.2968-2.5584-3.1432-1.3304-6.0352-3.5056-8.8808-5.3712-5.9848-3.9216-11.9416-7.7016-18.7136-10.1344.7248 1.1536 1.4312 2.3256 2.1856 3.46-8.0024 6.0312-17.352 10.8536-25.968 16.0288 6.5744 3.7416 15.6224 10.5088 23.1848 10.9488l.1.4112c1.7544.4408 4.904-1.2032 6.6624-1.9056 2.628-.4464 5.2568.468 7.796 1.0936 2.2488.4664 5.2696.7256 7.0736 2.1576.2416.8312.4104.7512-.0384 1.5648-.4448.8064-.2464.4936-.7616 1.1816-7.468 5.132-16.6784 9.0128-24.744 13.24-5.8672-2.2224-11.6712-5.7944-17.2336-8.7296l-33.9856-18.1032c7.7808-4.7104 16.2264-8.6576 24.2488-12.9792 23.9872-12.9224 48.3536-25.3272 71.84-39.1344Z"/>
  <path fill="#F9827A" d="M372.844 548.2856c-6.2864-3.304-22.92-10.8408-27.468-14.3664-.4712-.3656-.3536-.8248-.4256-1.392 2.3872-5.3248 25.9768-16.1384 32.2264-20.1104.7248 1.1536 1.4312 2.3256 2.1856 3.46-8.0024 6.0312-17.352 10.8536-25.968 16.0288 6.5744 3.7416 15.6224 10.5088 23.1848 10.9488l.1.4112c1.7544.4408 4.904-1.2032 6.6624-1.9056-2.416 2.9376-7.1928 5.048-10.4976 6.9256Zm20.9032-39.1904c-1.116-.5888-2.0584-1.212-3.0504-1.9904.184-.3352.2016-.4104.5104-.7232 2.668-2.7032 21.1744-13.3128 24.8664-13.644.096.0648.1912.1312.2888.1944 6.9592 4.5176 21.4248 8.8816 27.0792 14.2904-.808 1.8624-4.5984 3.176-6.4968 3.9528-.1728.0712-.3488.1336-.524.2-1.0936.4712-2.1792.9568-3.2792 1.4136-3.5464 1.4736-6.4848 5.2576-10.1752 5.8824-.1744.0592-.344.1296-.5216.1776-5.8432 1.584-9.3248-2.4056-13.7776-5.1944-2.8688-1.796-4.292-1.528-7.396-.7672l-7.524-3.792Z"/>
  <path fill="#F3F4EF" d="M416.2056 496.9312c7.2896 3.2456 13.9664 7.8432 21.3392 10.844l-5.624 2.6336c-3.652-3.3904-10.4768-5.8344-15.028-8.08-1.7544-.6424-2.8216-.6992-4.5504.0808-1.5488.6992-3.0568 1.5464-4.5544 2.3512-2.2296 1.4168-5.284 3.9632-8.092 3.3984-.7592-.1528-1.4928-.492-2.1936-.812 5.9336-3.6024 12.1816-8.0056 18.7032-10.416Z"/>
  <path fill="#BF5C6B" d="M407.788 504.7608c1.4976-.8048 3.0056-1.652 4.5544-2.3512 1.7288-.78 2.796-.7232 4.5504-.0808 4.5512 2.2456 11.376 4.6896 15.028 8.08 1.5688.74 2.4.8 4.1136.3816l.3864.5848c-1.0936.4712-2.1792.9568-3.2792 1.4136-3.5464 1.4736-6.4848 5.2576-10.1752 5.8824l-.5528-.6424.86-.0896-.492-.4784c-.4472-.1696-.8792-.3408-1.316-.536-3.412-1.5208-11.432-5.4832-12.7752-8.9248-.8904-1.3768-.8592-1.6664-.9024-3.2392Z"/>
  <path fill="#F3F4EF" d="M416.2256 506.2448c.196.1432.3912.2888.5896.4304 2.6264 1.8768 7.736 3.26 9.3968 5.9208.0856 1.2584.1576 1.8096-.7472 2.7688-.7376.7808-1.8168 1.456-2.6832 2.096-.4472-.1696-.8792-.3408-1.316-.536-3.412-1.5208-11.432-5.4832-12.7752-8.9248 2.5424-1.1952 4.768-1.5992 7.5352-1.7552Z"/>
  <path fill="#F9827A" d="m764.576 520.4496 2.6256-1.04c1.3216 1.4888.3176 43.7512.5232 49.1272 7.884 4.1264 57.1632 28.3432 59.4832 31.2528-2.88 3.1776-57.4264 30.4712-65.724 34.2448-12.4136-5.7176-24.4368-12.2888-36.58-18.5496-9.3032-4.7968-18.7816-9.2512-28.0672-14.0808 12.4888-6.976 25.2464-13.4776 37.7512-20.4408 6.4776-3.608 13.2368-7.0032 19.0512-11.6408.52-15.8704.2112-31.8872.1128-47.7664 3.9384.2768 7.1128.5616 10.824-1.1064Z"/>
  <path fill="#3C3C68" d="M762.3288 577.0216c5.1288 1.9472 42.1112 20.5824 44.3272 22.9904-.64 1.0152-41.2376 21.8608-45.476 23.6952-5.6616-1.0328-12.4912-5.6584-17.6088-8.332-9.0488-4.7296-18.1544-9.7656-27.688-13.4592 5.8736-2.5568 11.456-6.0752 17.1152-9.0896 9.8128-5.2272 19.6944-10.248 29.3304-15.8048Z"/>
  <path fill="#F3F4EF" d="M762.5384 580.2208c5.8512 2.3688 11.612 5.9312 17.2544 8.8128 7.0368 3.5944 14.3304 6.7512 21.1752 10.7024-13.08 7.116-26.412 13.836-39.572 20.812-6.264-2.2176-12.3616-5.8072-18.2976-8.8168q-10.0024-4.9744-20.1128-9.7256c12.9256-7.7752 26.6584-14.0104 39.5528-21.7848ZM653.304 514.8304c-3.348-14.2592-8.7736-33.456-.5664-47.0008 3.5856-5.9176 10.0528-8.8656 16.5688-10.3576 6.2608-1.4336 12.984-1.6 19.3792-2.052l26.5304-1.8592c6.6688 11.0696 18.3136 16.7288 30.6024 19.768 1.6264.4024 3.2704.7896 4.92 1.0864q.2456 10.1768.1304 20.3552-11.6192-.0904-23.1528-1.5064c-12.74-1.5528-25.3816-4.2728-38.0736-6.2192-3.6304-.556-7.5912-1.5088-11.2384-1.7312-1.1928-.0728-1.8656-.04-2.8792.5904-.0384.6176-.3184 1.3528.1872 1.808.7696.6936 2.0016.808 2.9888 1.0192 5.3448 5.4232 8.8136 34.4368 10.8728 42.672.1272 8.3792 5.6736 32.6648 3.892 38.9552-.2992 1.0544-1.1032 1.668-2.0312 2.1816-4.3304 2.396-10.5984.4584-14.9744-.8384-2.5576-3.936-4.0848-8.7792-5.9856-13.0776-6.388-14.4408-12.556-28.6512-17.1704-43.7936Z"/>
  <path fill="#F9827A" d="M539.4752 648.6312c1.564 13.2632-1.4848 33.2368 1.2488 44.5048 3.6032 14.852 19.3608 21.0336 31.8264 26.908q10.3216 4.8248 20.5752 9.792c3.1376 1.5256 7.728 3.1016 9.8744 5.8504l-.144.9184c-.5304.4504-.9944.8408-1.5976 1.1936-7.1504 4.1792-15.196 7.3736-22.5208 11.3552l-29.1416 15.7472c-4.392 2.384-9.1496 5.7272-13.8048 7.3632-1.8048.6344-3.3088.2344-5.1008-.2448-4.3312-1.696-8.5136-4.1944-12.6952-6.2584-10.1424-5.008-20.216-10.0472-30.216-15.3352-7.5752-4.0056-15.5688-7.4472-22.8464-11.9696 15.8592-11.8016 38.2792-16.908 52.3544-30.9488 3.0528-3.0448 5.6776-6.7624 6.8936-10.94 2.1768-7.4744.8928-33.6832.9344-43.404 5.6736 1.1008 9.5912-1.912 14.36-4.532Z"/>
  <path fill="#3C3C68" d="M535.5888 712.16c5.1832 3.5376 43.1984 22.4688 48.784 23.74q-24.5776 13.3896-49.7368 25.6496c-1.072.1224-2.2256.2888-3.276-.0296-3.76-1.1376-7.8832-3.9664-11.4128-5.7896-9.4368-4.8744-18.8944-9.5856-28.1608-14.788l-5.4048-2.5344c15.4656-9.0664 32.9992-18.6944 49.2072-26.248Z"/>
  <path fill="#F3F4EF" d="M535.172 715.5144q21.0424 10.8256 42.42 20.9728c-15.0512 7.1608-29.9232 15.052-44.6128 22.9344-6.3-4.8592-31.8344-16.8696-40.0352-20.2456l-.7088-.7768c1.084-1.5568 37.9712-20.2424 42.9368-22.8848Zm6.9136-441.4408c23.5536-12.9928 47.4824-25.2352 71.2064-37.904l23.3048-12.5808c4.1384-2.2296 8.4264-4.8904 12.7936-6.5768q.2336 34.2408.0752 68.4816c-36.1768 17.6296-71.0824 37.9144-107.1808 55.7392l-.576-.2168c-.1216-1.08-.2224-2.1152-.1992-3.2056q.2744-18.68.2408-37.3624c.0168-6.5568-.8776-20.7408.3352-26.3744Z"/>
  <path fill="#F9827A" d="M633.3624 255.1624c1.3336.1408 2.588.2936 3.7944.9208 1.8088.9408 3.2872 2.4208 3.8864 4.4032 1.26 4.1656-.9216 9.8368-2.9392 13.48-3.2128 5.8024-7.24 9.5656-13.6536 11.4264-1.8896-.0904-3.8064-.2696-5.4952-1.2008-1.7496-.9656-2.992-2.4968-3.484-4.4424-1.1352-4.4856 1.3992-10.2528 3.7584-13.9872 3.4-5.3816 7.8936-9.156 14.1328-10.6Zm-32.98 17.4224c1.8472-.0976 3.4376-.0576 5.0728.9128 1.744 1.036 2.9272 2.4864 3.3952 4.476 1.1216 4.7664-.9016 10.7288-3.4408 14.7496-3.4528 5.468-8.0784 9.4456-14.4272 10.9168-1.6216-.0232-3.0624-.1936-4.5344-.928-2.0344-1.0128-3.676-2.5848-4.2576-4.832-1.1016-4.2536.7696-8.9864 2.9128-12.6152 3.5576-6.0232 8.3736-10.9344 15.2792-12.68Zm-34.1544 17.144c1.8688-.1272 3.46.0136 5.1736.8456 1.732.8416 3.0872 2.108 3.6696 3.9832 1.2896 4.1512-.2552 9.9112-2.1544 13.704-2.9184 5.8272-7.44 9.8648-13.592 11.9232-.444.0192-.8856.028-1.3304.04-1.9008.0512-3.6728.2072-5.3752-.824-1.9128-1.1584-3.2072-2.9048-3.6736-5.1016-1.0632-5.0168 1.0792-10.7464 3.8832-14.848 3.332-4.8744 7.4736-8.628 13.3992-9.7224Zm74.6368-61.1176c.8616 2.7536.8456 6.3584 1.1656 9.2576-7.1792 4.8848-15.6752 8.6976-23.3376 12.9032-22.8856 12.5624-46.24 24.5296-69.5296 36.3264l-.9008-.192c-.7536-2.8544-.308-6.4888-.2752-9.452 31.1304-15.7352 62.6432-31.4472 92.8776-48.8432Z"/>
  <path fill="#F3F4EF" d="M417.9464 349.5968c1.6784 4.244.732 67.0688.5928 76.584-4.2664 2.7608-9.0184 5.0168-13.4936 7.4312l-24.6432 13.3152-72.1912 39.512c-1.3176-4.82-.992-72.8096.0816-76.9256 6.0952-6.1744 30.948-17.6832 40.328-22.6624q34.8248-18.3264 69.3256-37.2544Z"/>
  <path fill="#3C3C68" d="M366.9472 409.9784c1.2656.4864 1.4536.8656 2.2768 1.904-.0408.2016-.0696.4064-.1232.6056-.9304 3.4928-7.7664 6.2984-10.8272 7.956l-.4352-.0232c-.8536-1.2832-.5912-3.208-.5944-4.7048l9.7032-5.7376Zm36.4368-18.3576c.6528 1.832.5344 3.868.5864 5.796-3.6688 1.5592-7.1992 3.424-10.7496 5.2312l-.572-.4c-.5408-1.1216-.896-1.8768-.4576-3.1576.9832-2.8728 8.5144-6.0456 11.1928-7.4696Zm-35.116 36.9032c.6736 2.036.5576 4.1552.5816 6.2792-3.6432 2.2848-7.4928 4.2488-11.2792 6.2832-.044-.0448-.0976-.0832-.1328-.136-.9296-1.3808-.4368-4.7352-.4-6.4048l11.2304-6.0216Zm36.6936-16.728c.2896 2.008-.0152 4.5272-.052 6.5824-4.0344 2.3248-8.0632 4.5336-12.2584 6.5568-.2504-1.4256-.5376-2.9288-.1088-4.3496 1.1232-3.7208 9.0016-6.9384 12.4192-8.7896Z"/>
  <path fill="#F9827A" d="M337.8264 423.5336c.7728-.0344 1.6096-.1176 2.3576.1096.4712.1432.9.2144 1.1072.704 1.34 3.1656.2512 24.5216-.8416 28.3464-4.0176 4.3768-13.9704 8.152-19.4952 10.9064-1.0184.1408-1.636.1664-2.624-.1304-1.7576-3.6344-.7024-24.0544.7696-27.9808 1.7944-4.7824 13.9608-9.8824 18.7264-11.9552Zm-21.0912-10.9472c9.7152-6.4848 20.9624-11.0856 31.236-16.6432 20.0104-10.8248 39.5808-22.68 60.4016-31.944.0768 3.2512.5216 7.2376-.9232 10.2456-2.0336 2.5512-58.656 32.612-67.5048 37.2376-7.168 4.9256-15.384 8.7256-23.0736 12.7824l-.136-11.6784Z"/>
  <path fill="#A4C6C9" d="m713.4016 365.7544.4264-.5128c3.5728-4.3584 6.1256-9.5488 9.7808-13.9008 9.8608-11.74 21.5192-19.116 35.1456-25.68 4.6256-2.2272 9.2344-4.5064 14.2408-5.7448 11.1232 3.2072 19.116 11.4008 24.564 21.3712q1.3576 2.484 2.5288 5.0624 1.16 2.5784 2.136 5.2368.968 2.6584 1.736 5.3824.776 2.724 1.336 5.4976c-17.3904 10.728-32.168 13.8504-44.26 32.42-3.7824 5.8096-6.8408 12.2472-8.4776 19.004-2.1448 8.8528-1.528 18.3832-1.5288 27.4272l-.0336 29.9816c-10.3968-1.9984-24.5448-6.496-30.9592-15.576-.8072-1.1432-1.4264-2.4544-2.0408-3.7096 3.5344-11.8776 2.9768-23.3472 1.1272-35.4632-.0664-1.1296.0928-1.5656.9088-2.3912 3.276-3.3144 7.5512-6.1616 11.1024-9.2408 10.4664-9.0744 21.9616-19.5328 30.0104-30.8784 1.5912-2.2432 4.1192-5.7144 3.6616-8.5512-.3184-.1112-.6368-.448-.9544-.3344-1.3968.496-4.9368 6.7512-5.9096 8.16-8.0064 11.592-36.8064 39.6792-49.8704 44.0024-19.9464 6.6-49.6568-10.5528-67.3576-19.3184.612-2.0904 1.7544-3.8632 2.852-5.7272.8-1.0712 1.6168-2.1112 2.6104-3.0136 3.392-3.08 7.8024-2.2792 11.9912-2.044 1.6568 1.0312 26.6048 4.5888 31.2464 5.4784 1.172.2248 3.8136.3848 4.7904.9248.5048.2784 1.4528 1.6192 1.9136 2.124 3.1032-3.2512 13.7216-24.2744 17.2832-29.9864Z"/>
  <path fill="#F9827A" d="M782.9472 377.736c4.7696-3.448 20.0768-10.8816 25.8448-12.8864 2.952-1.024 7.576-2.2792 10.544-.8448 4.592.4384 8.448 2.6456 11.392 6.1848 2.232 2.6832 3.968 6.0656 4.592 9.5056 1.912 10.6176.728 29.3016.76 40.8656l.04 27.8136c-.032 4.4712.216 9.2384-.296 13.6696-.08.692-.248 1.2032-.528 1.8304-.928 1.8936-3.392 3.1904-5.128 4.2808-10.072 6.2976-21.064 11.3648-31.4552 17.1424-10.5112 5.844-23.9208 15.1984-35.0448 18.9064-2.3656.788-4.6184 1.1888-7.1072.76-1.7368-1.4168-2.1232-3.728-2.3568-5.864-1.0248-9.3776-.0728-19.64-.0424-29.0912.0464-14.1432-1.5216-42.1136 1.2864-54.3376 2.1584-9.3968 6.9408-18.2904 13.0056-25.7312 3.6096-4.428 9.0488-10.1112 14.4936-12.204ZM554.06 503.38c11.084-5.3416 24.5952-13.0368 37.2512-8.8352 4.7832 1.5888 8.0592 5.3408 10.1592 9.768 1.9232 4.0552 2.7864 8.188 3.2416 12.6336 1.2648 12.3368.3968 25.452.3232 37.8816-.0792 13.4328.5168 27.2648-.6312 40.6448-4.6576 2.888-9.7928 5.0584-14.7056 7.4824l-25.0912 12.4952c-10.0904 5.0472-23.7616 13.0472-33.7272 17.0624-1.408.568-2.8712.8736-4.3752.5136-1.3368-.3192-2.2624-1.1928-2.8744-2.3992-2.828-5.5808-.784-18.248-1.1512-24.8544q.5112-17.8872.4544-35.7816c.0008-7.3592-.5272-15.2216.5176-22.5056 3.2048-22.3464 13.6592-31.5448 30.6088-44.1056Z"/>
  <path fill="#F9827A" d="M485.74 465.436c6.4536-6.0296 13.5456-11.6088 21.1736-16.0776 10.784-6.3168 22.076-11.8256 34.764-8.4136 17.1744 4.6184 26.452 17.7248 35.628 31.8848 3.556 5.4864 7.1664 10.9712 10.4448 16.628-.916.9336-2.608.9064-3.8664 1.0584-6.0016.8304-11.6344 2.4464-17.3848 4.2792.288-8.3152.596-18.6488-2.7216-26.3736-.5432-1.2656-.7216-1.6288-2.0096-2.1392l-1.0408.5832c-.3992 1.3864 2.0584 9.4272 2.4168 11.8024.6272 4.1536.5104 8.4704.5416 12.6632.136 1.7408.4456 2.7864-.3976 4.3912l-3.3496 1.7888-5.4416 2.4936c-16.5824 10.0648-28.2272 21.6488-33.0384 41.1136-2.8112 11.3752-1.7664 23.8928-1.6872 35.548.0224 3.2968.4992 7.2616-.176 10.4712-1.6552.2808-2.936.1056-4.5824-.1792-4.516-.4208-9.3112-2.0824-13.208-4.3776-6.2104-3.6576-9.8104-8.6584-11.6024-15.572.3288-1.0424.748-2.0592 1.1288-3.0848 5.3736-14.4664 3.9576-24.4464-2.4368-38.4056 2.672-2.9496 17.0472-17.0304 17.4648-19.2992-.2-.04-.728-.1552-.9128-.1392-1.0496.0912-2.1232.7-2.9592 1.2992-3.2912 2.356-6.484 6.4744-9.3224 9.4056-8.5848 8.8672-17.976 17.7728-25.4728 27.5824-4.116 5.3872-6.7496 11.7624-11.1272 16.928l-.524.6112c-1.5848 1.2-3.3016 2.132-5.028 3.108-7.9576-.6296-14.9624-4.4232-22.1408-7.6288-8.3248-3.6408-16.516-7.5712-24.8536-11.188-.8064-.4536-1.4944-.8392-2.1352-1.5272-.7032-.7544-.804-2.1272-.7616-3.1208.1616-3.8456 2.4416-7.5992 5.1288-10.2384 4.9728.7264 30.8624 6.0648 33.6536 8.8424-.316 1.176-.5536 2.2216-.6048 3.44l.5232.2584c4.3352-4.3536 6.9632-11.7104 9.7816-17.2056 5.4584-10.64 24.8784-49.5648 32.4904-56.3032 1.4272-1.2632 2.4408-1.8632 4.3888-1.7064 8.9704.7224 19.2736 6.3376 22.6408 15.0736 1.1264 2.924 1.2656 6.6704 3.3808 9.0856.2264-.7088.5312-1.4816.5496-2.236.1312-5.384-1.4456-9.9736-4.9304-14.0576q-.5248-.6056-1.08-1.184-.5544-.5784-1.1368-1.1288t-1.192-1.0712q-.6088-.5208-1.2432-1.0104-.6344-.4896-1.292-.948-.6576-.4576-1.3376-.8824-.68-.424-1.3792-.8144-.7-.3904-1.4184-.7456-.7184-.3552-1.4536-.6744t-1.4848-.6016q-.7504-.2816-1.5136-.5264-.7632-.2448-1.5368-.4512-.7744-.2064-1.5584-.3744-.7832-.168-1.5744-.2968t-1.5872-.2176q-.796-.0896-1.596-.1392Z"/>
  <path fill="#F3F4EF" d="M426.6376 404.092c5.8816-4.3688 21.1864-12.7 27.88-15.092-1.9848 6.5864-2.0464 13.192-3.0728 19.9256-.54 3.54-1.8152 7.0416-1.8392 10.6536-.0536 8.3496 7.1936 32.6096 13.2192 38.0928 2.6256 2.3888 6.0048 3.484 9.5328 3.204 7.9272-.6296 16.2184-6.8768 21.0728-12.8368l.9912-.0256c.9936 1.5016 1.4752 2.9824 2.0256 4.6752-13.932 11.2152-21.0536 20.0288-29.6552 35.7416-1.3728 2.5072-5.5024 11.7288-7.5384 12.3672l-2.3376-.9832c-5.112-3.5728-11.4824-6.1784-16.9968-9.1664-7.4976-4.0632-14.9184-8.9608-22.7296-12.344-8.8288 6.2176-18.7176 11.0624-28.2152 16.1608L344.6712 518.44c-7.8968 4.2176-16.3272 7.9352-23.9736 12.5648-1.1848.7176-2.4424 1.4744-3.0672 2.7544.6728 1.2984 1.9472 2.048 3.1696 2.7824 9.7648 5.8656 20.2328 10.6352 30.2792 15.9872 6.0344 3.2152 12.7096 8.0536 19.1968 10.0336 4.9144 1.5 10.42-2.9504 14.632-5.2976 4.7664-2.656 9.956-5.1808 14.332-8.4448.1016-.0624.2016-.1264.3048-.1856 1.336-.78 1.7312-1.044 3.2968-.648 6.1712 2.8336 12.3504 5.9576 18.7528 8.2184-3.2008 1.92-6.4776 3.768-9.6192 5.7816-9.1824 4.4296-18.1352 9.4728-27.1184 14.3-4.8392 2.4608-10.0464 4.7192-14.6728 7.532-3.132-2.68-7.9608-4.7072-11.6384-6.6936l-27.816-14.8144-78.9584-42.2392c-10.8432-5.6976-21.4664-12.2-32.584-17.3128l76.6536-40.5928c.6784 11.2872-.0056 22.6488.6352 33.9408q2.4848 1.1096 4.9944 2.1632c11.5512-6.6928 23.6096-13.728 35.8152-19.1088.4488.3144.652.3712.8976.8768-.3368 3.1088-.3536 6.2768-.4656 9.4032l13.9496 6.9872c7.3456-3.4008 26.576-13.16 32.4464-17.8104 1.4064-1.1144 2.3296-2.116 2.9808-3.7888-1.0936-3.4984-8.404-3.3904-10.98-6.3312-.172-.1968-.3264-.408-.4904-.612.5832-3.1992-.0184-7.3688-.1216-10.672 7.3728-3.552 46.1784-24.6456 50.6488-28.9424.692-7.8968.3224-16.24.4864-24.1792Z"/>
  <path fill="#3C3C68" d="M276.912 496.6752c4.3048-.232 8.1896-.1552 12.1024 1.8784 2.8704 1.492 5.5024 3.936 6.3752 7.1464.5256 1.9344.3144 3.9464-.7352 5.668-1.9952 3.2744-6.2848 4.8016-9.816 5.7272-4.2264.2336-8.556.3664-12.5456-1.292-2.8088-1.1672-5.3304-3.1192-6.3912-6.0648-.748-2.0744-.6464-4.252.388-6.208 2.1216-4.012 6.5224-5.716 10.6224-6.8552Z"/>
  <path fill="#F9827A" d="M269.9496 511.4352c-.4464-.7176-.6312-1.3728-.7904-2.1952-.3848-1.9952-.3968-3.9304.8392-5.6416 1.7544-2.428 4.9752-3.5312 7.8336-3.8752 4.128-.4968 9.1176.256 12.3544 3.0176 1.6864 1.4392 2.6016 3.1832 2.8064 5.3704-1.5 3.0224-3.4704 4.6048-6.6736 5.7264-4.3808 1.5344-9.8136 1.1064-13.952-.9624q-1.2688-.6192-2.4176-1.44Z"/>
  <path fill="#78243B" d="M270.4912 509c.2-.708.4688-1.3352.9424-1.9064 2.2944-2.7672 5.4296-4.0552 8.968-4.1336 3.484-.0768 6.6184.9352 9.1744 3.3408-5.6968-1.1288-11.4472-2.424-16.6536 1.044-.392.2608-.7712.54-1.1584.8072-.4192.2896-.8496.5648-1.2728.848Z"/>
  <path fill="#F3F4EF" d="M218.108 505.4688c5.1928 3.4272 10.9912 6.2904 16.4768 9.2496q17.2104 9.2 34.5496 18.1544c33.3488 17.6216 66.84 35.2864 99.8464 53.5424-.3624 15.8104-.132 31.7-.148 47.52q.6024 68.4752-.3464 136.9472c-16.3648-9.5912-33.9472-17.5-50.7352-26.368q-28.2208-14.8688-56.6392-29.3552c-14.34-7.424-28.5888-15.1296-43.2272-21.9472 1.008-22.3632.2712-44.9336.1744-67.3128-.1728-40.1152-.3728-80.3208.0488-120.4304Z"/>
</svg>
