<svg xmlns="http://www.w3.org/2000/svg" viewBox="0 0 1024 819">
  <path fill="#A4C6C9" d="M285.3352 591.5728c2.3792.1504 4.7648.26 7.1296.5704-5.5792 19.38-9.5888 39.2072-14.2592 58.8216-5.4904 23.0616-11.8864 46.4776-14.8944 70.0088-2.5992-.628-5.2048-1.34-7.8536-1.7128 1.5152-3.7048 2.0968-8.124 3.028-12.0368l5.8432-24.6048 21.0064-91.0464Z"/>
  <path fill="#3C3C68" d="M169.6824 564.8272c4.7016.5888 9.3624 1.2736 13.9784 2.3672l-2.052 6.1624c4.6552.8368 9.6048 1.3792 14.0944 2.8776l.4664-1.1344c.4832-1.6368.5696-2.744 1.8984-3.912 4.0872-1.1016 8.1832.3336 12.3072.7072-.8736 2.0296-2.244 4.2312-1.9688 6.4256.6808.212 1.3592.4392 2.0504.616 4.1912.6208 8.5032 1.1088 12.6296 2.0552l.7912-.6448c.308-1.8896.368-3.7064 1.7248-5.16 3.4792-1.9248 8.2424.0416 12.0448.4912-.2864 1.8832-1.4056 6.1056-.6224 7.7256 16.0808 2.7072 32.1784 5.8488 48.3104 8.1688l-21.0064 91.0464-5.8432 24.6048c-.9312 3.9128-1.5128 8.332-3.028 12.0368l-.2816-.0232c-3.468 1.2416-6.4064.1376-9.7192-.9544-.1984.808-.5008 1.4256-.8968 2.1552-1.1176.4896-1.8792.5232-3.0864.336-2.3688-.3688-4.6512-1.5152-7.0056-2.032-10.9272-2.4-22.0168-4.4232-32.9896-6.6656l-92.5312-18.3056c2.0328-9.1464 4.6184-18.1712 6.8832-27.2632q7.8976-31.8072 16.2928-63.4856c3.228-12.076 6.8056-24.0864 9.6168-36.2672 8.756 1.0624 17.5272 2.7448 26.2344 4.1832l1.1832-.6056c.4976-1.8488.4928-3.608.5248-5.5056Z"/>
  <path fill="#A4C6C9" d="m272.7808 594.8928 6.5672 1.2848c-2.7776 10.1336-4.956 20.44-7.3888 30.6608q-6.4512 26.3328-12.3472 52.796c-2.8856 12.9096-6.5248 25.7224-8.9992 38.7144.884.9768 1.3408.852 2.648.9008.6368.024 1.2784.0032 1.9152-.012-3.468 1.2416-6.4064.1376-9.7192-.9544 1.9232-12.0192 5.088-23.8512 7.7168-35.7288 6.4672-29.22 13.58-58.3584 19.6072-87.6616Zm-103.0984-30.0656c4.7016.5888 9.3624 1.2736 13.9784 2.3672l-2.052 6.1624c4.6552.8368 9.6048 1.3792 14.0944 2.8776l.4664-1.1344c.4832-1.6368.5696-2.744 1.8984-3.912 4.0872-1.1016 8.1832.3336 12.3072.7072-.8736 2.0296-2.244 4.2312-1.9688 6.4256.6808.212 1.3592.4392 2.0504.616 4.1912.6208 8.5032 1.1088 12.6296 2.0552l.7912-.6448c.308-1.8896.368-3.7064 1.7248-5.16 3.4792-1.9248 8.2424.0416 12.0448.4912-.2864 1.8832-1.4056 6.1056-.6224 7.7256l-1.2568.7288c-.3016 1.316-.5096 2.4392-.468 3.792 1.7872 2.0736 27.932 5.4856 32.8456 6.4296-1.992 5.5392-3.3416 11.236-4.4976 16.9976-17.5416-2.4984-34.912-5.9888-52.332-9.1984l-70.2448-12.492c1.1216-5.608 2.8512-11.1936 4.3176-16.7256 6.9464.516 14.7632 3.608 21.5912 2.8368.344-.3512.6744-.6624.8496-1.1376.484-1.3136.7176-2.4464.1448-3.6968l1.1832-.6056c.4976-1.8488.4928-3.608.5248-5.5056Z"/>
  <path fill="#3C3C68" d="M181.6088 573.3568c4.6552.8368 9.6048 1.3792 14.0944 2.8776-.3472 1.5488-1.3056 3.1864-1.932 4.664-4.6376-.5232-9.2856-1.3888-13.9-2.1064.4696-1.8832.9816-3.6376 1.7376-5.4352Zm25.688 5.7856 3.16-.2056c4.1912.6208 8.5032 1.1088 12.6296 2.0552.0616 1.404-.052 4.0128-.968 5.0864-5.112-.4736-10.1608-1.3504-15.224-2.1792-.6152-.9296.2048-3.5792.4024-4.7568Z"/>
  <path fill="#F3F4EF" d="M139.6176 594.952c11.8544.8848 27.1016 4.724 39.1768 6.9376 11.3664 2.084 22.8008 3.7496 34.164 5.8248 16.4752 3.008 32.8592 6.42 49.3904 9.1336-1.8248 11.9816-5.8328 26.072-8.5312 38.108-4.3632 19.464-8.2192 39.1944-13.008 58.5456-.1624.6576-.4224 1.0232-.8368 1.5424-7.436-2.1136-15.2224-3.3072-22.804-4.7976q-16.308-3.3608-32.6504-6.548l-47.2808-9.1864c-7.2256-1.4432-14.3232-3.3968-21.6-4.596 4.2456-14.7864 7.356-30.1224 11.1736-45.0592 4.2456-16.6112 9.2736-33.1368 12.8064-49.9048Z"/>
  <path fill="#F9827A" d="M197.7688 628.8664c1.3448-.12 2.676-.0192 4.0208.0488 1.3088.6968 1.9432 1.152 2.732 2.4192-.1112.5848-.076 1.0768-.5152 1.5208-3.6808 3.7192-6.3664.7352-10.2512 1.2808-4.3672.6128-8.936 7.9456-11.4616 11.2736 3.2752.7464 6.9544 1.3224 9.96 2.872 2.1184 1.0928 4.1192 2.68 4.776 5.0752.536 1.9544.008 3.932-1.0096 5.6336-4.4576 7.4528-15.216 12.12-23.276 14.0512-1.3224.2248-2.8856.5472-4.2232.3928-1.252-.1456-1.7528-.4328-2.4992-1.408.0392-.4968.0176-.584.2096-1.1064.952-2.588 13.9312-5.1464 18.0656-7.5136 2.8544-1.6344 6.0072-4.2256 6.92-7.5056-1.7208-7.4864-11.6016-2.1776-15.6544-5.4672-.1632-.5936-.216-.664-.2312-1.352-.0992-4.48 10.7664-16.0224 14.2432-19.2024 2.6808-.7008 5.4424-.8104 8.1944-1.0128Zm-30.3704 6.792c.1936-.6568.3872-1.3168.5344-1.9856.3512-1.5984.4744-3.376-.4472-4.7888-4.9192-2.228-11.1576 6.428-16.1128 6.7016-.9152.0512-.9208-.2008-1.5752-.7496-.2304-1.5008-.5104-2.132.5552-3.4424 2.7648-3.4 11.0208-7.0512 15.4488-7.5888 1.8936-.2296 3.8584-.0088 5.3288 1.3216 2.2528 2.0392 1.968 5.0488 1.9968 7.8128-3.3368 12.8056-16.2336 22.3616-27.0888 28.7376l-1.8128 1.0576c4.904.56 12.744-.416 16.9504 2.0312.5584.8312.4776.3904.324 1.304-1.5144 1.4976-3.3928 2.2848-5.5456 2.2936-4.6584.0184-18.28-.9512-21.8896-3.1544-.2808-.6416-.5432-.792-.264-1.4888.36-.8984 1.2872-1.6352 2.0592-2.1688 7.0384-4.8712 14.5016-8.3752 21.172-13.9456 4.0656-3.3952 7.7112-7.3408 10.3664-11.9472Zm56.6792-.8784c3.052-.4024 5.7056-.7848 8.2952 1.3152 1.2936 1.048 1.8872 2.548 1.9584 4.1856.1672 3.8024-1.8368 7.5152-4.492 10.1224-2.4736 2.4296-5.1616 3.5392-8.3912 4.5416 2.2888 3.1752 3.3472 5.6584 2.7384 9.7264-.6824 4.5576-3.8576 8.2568-7.552 10.7856-3.7232 2.548-8.7328 4.5136-13.2896 3.6552-2.1632-.408-4.3824-1.4888-5.58-3.4096-1.2256-1.968-1.076-4.2824-.4568-6.424 1.8928-6.548 6.4256-11.1792 12.3592-14.3136q.4904-.2576.988-.5016c-.7216-2.692-1.0768-4.9848-1.032-7.7856.372-.9688.784-1.892 1.3064-2.7904 2.9192-5.0128 7.7424-7.6064 13.148-9.1072Z"/>
  <path fill="#F3F4EF" d="M223.3016 639.1896c1.8056-.0224 2.9184.0552 4.4888.9888.7504 1.0384 1.1888 1.5952.9944 2.932-.3944 2.7104-3.5464 5.3472-5.8176 6.6584-1.5816.9128-3.5768 1.7136-5.4192 1.2144-.9776-.2648-1.1704-.6816-1.8472-1.3872-.316-1.3032-.2784-2.3088-.1472-3.6376.3912-.3064.236-.1432.5416-.5544 1.9816-2.6664 4.3776-4.5224 7.2064-6.2144Zm-7.8528 18.832c1.4456.604 2.2504 1.2392 3.2896 2.4064.9872 3.4552-1.7688 6.6304-3.1608 9.7568-2.7536 2.1824-5.3424 3.2608-8.6584 4.2648-1.4688-.5088-3.1536-1.1384-3.9128-2.5984-.5176-.996-.5096-2.092-.1512-3.14 1.6344-4.7816 8.3864-8.5256 12.5936-10.6896Z"/>
  <path fill="#A4C6C9" d="M717.2376 36.2375c7.068-.5156 14.3112-.3613 21.4016-.3693l-.8264 11.741c4.3632 1.8895 9.3368 2.358 13.2472 5.1522 3.2352-3.591 6.76-6.8703 10.2752-10.1821 2.6024 2.508 10.8792 8.21 11.492 11.568.6872 3.7583-4.552 9.533-6.6552 12.4289 2.3624 3.132 3.8384 5.77 4.9152 9.5662 5.2656-.1376 10.5576-.6356 15.8136-1.0114.068 4.7393.5688 9.5346.9048 14.2658-5.0208 1.3896-10.1744 2.0472-15.156 3.6544-.4648 5.9152-2.1712 11.1296-4.052 16.7064 1.6048.2224 3.3456.3824 4.8904.876 1.4584.4664 2.8 1.5088 3.368 2.9616 1.5792 4.0384-3.4536 12.312-5.0656 16.4104-5.1896-1.0392-10.3608-3.0848-15.4632-4.556-5.6168 4.0328-11.0416 7.3552-17.3728 10.156.3384 3.8816.5408 7.668.5056 11.5704-4.6504.7152-12.488 4.2568-16.8504 2.7536-2.0968-.7224-2.8-3.1056-3.6616-4.9664-.0816.12-.1608.2408-.244.3592l-.4192.5896c-3.0112 4.2704-7.2528 6.7984-11.4888 9.7192q2.1592 2.512 4.244 5.0864c10.904 13.7128 11.9672 29.384 10.112 46.1064 6.5848-2.2704 13.2552-4.6352 20.0776-6.0736-.344-3.9464-.2744-8.9032-2.0352-12.4856-1.7336-3.5264-4.7312-4.6584-8.216-5.7992.1304-2.0288.256-4.0704.4608-6.0928.3112-3.0768 1.5512-6 4.0784-7.9184 5.7672-4.3784 14.8056-2.1704 21.3816-1.2712 2.8752-4.388 5.0016-7.036 9.516-9.7864q-1.528-3.556-2.8672-7.188c3.9736-3.8576 9.1192-6.672 13.3792-10.3016 1.764 1.9208 2.9576 3.908 4.212 6.184l13.828-4.1088c1.5592-3.5392 3.136-6.992 5.0304-10.3704 5.7544.672 11.7384 1.9592 17.4184 3.1448.688 1.6328-1.224 6.9528-1.728 8.8336 3.632 1.8264 10.04 4.3712 12.656 7.3952 3.472-.9664 7.576-2.7992 10.656-4.6816 2.472 2.5296 5.64 5.7456 7.528 8.6664.872 1.3512 1.44 2.8152 1.008 4.4296-.712 2.64-4.712 4.2248-6.976 5.3984.784.5488 1.528 1.1832 2.088 1.9656 2.352 3.2544 6.28 10.1544 5.632 14.2752-1.048.8168-2.192.7912-3.464.9088-3.432 1.4392-7.72 2.1376-11.4 2.672-1.656.8848-3.248 1.0608-5.08 1.3256-5.744 2.0944-12.216 3.156-18.2 4.576l-40.0728 9.2712-4.0952 1.2q-18.7224 4.6384-37.5464 8.8424c-3.4088 1.156-7.1936 2.216-10.7736 2.5792l-17.2528 3.9032-4.976 1.0864c-16.0752 3.936-32.3176 7.4616-48.476 11.0472-7.152 1.5864-14.6936 2.7512-21.6992 4.836l-1.7512.3736c-3.3488.7168-6.7176 1.3832-10.0328 2.2456l-3.5736 1.028-1.7744.304q-6.872 1.6-13.7616 3.1232l-7.252 1.4488c2.9544-2.9168 5.5944-5.98 7.8472-9.4712-.8184-4.8336-2.424-9.464-3.9496-14.108-5.86-.5304-11.6824-1.6968-17.5472-2.3168q.0704-13.1584-.0376-26.316l20.9008-2.8208c1.6904-7.2584 4.2736-13.852 7.0448-20.7368-2.7728-3.8176-7.6504-9.0784-8.7176-13.696 1.5768-4.108 13.8656-14.3072 17.9424-16.68 5.8816 5.516 13.0896 10.9 18.024 17.204 6.0808-3.9832 11.4376-6.5112 18.3208-8.7352-.548-7.148.0248-14.6048.2552-21.7624q2.8352-.7312 5.7128-1.2704 2.8784-.54 5.7856-.8864 2.9072-.3456 5.832-.496 2.924-.1512 5.8512-.1056c.828 7.4776 1.2216 15.0096 1.72 22.5152 7.4256.5544 12.924 2.2104 19.6448 5.488 4.3056-4.1888 8.9936-8.3848 13.688-12.1256-1.268-.6336-2.4896-1.4112-3.7184-2.1208-1.0216 1.716-1.9424 3.72-3.5736 4.9192-3.9832.2032-10.524-3.5808-14.0536-5.5632-1.5832-.8896-3.4024-1.8664-3.9208-3.6832 1.5328-2.6656 4.3048-3.9512 6.0216-6.4928l-.2232-.6024c-3.7048-.9408-9.1368 1.8016-12.4696 3.4192-.7152-4.8424-1.7608-8.2344-4.0784-12.5696 3.3256-1.9792 6.8008-3.7592 10.196-5.6192-1.7824-4.9528-2.096-9.692-2.4672-14.8928-4.5592-1.0704-9.316-1.4208-13.964-1.9528 1.2176-4.8432 2.7568-9.6088 4.3592-14.336q6.572.74 13.1728 1.1414c1.2936-4.601 3.9872-7.6448 6.8776-11.3228-2.0184-3.4178-4.12-6.5764-6.5032-9.754 3.6672-5.0984 9.3288-10.2888 14.7912-13.4327 2.4296 3.5595 5.892 6.7494 8.8248 9.9175 3.4752-2.4375 7.192-3.706 11.172-5.0476q.6576-5.634 1.3784-11.2603Z"/>
  <path fill="#F3F4EF" d="M741.224 183.0096c2.4448.2944 4.8552.7032 7.2784 1.1368l-2.5256 5.7184-.8696 1.2832c-1.6176-1.4048-2.3128-5.9176-3.8832-8.1384Zm-78.66-59.7728c1.4192-.0968 2.8424-.3592 4.1464.3288 1.2648 5.8232.7592 12.8496.8608 18.8184-4.0656.1056-8.0296.2968-12.0704.808l-4.6528.4616.1-18.9984c3.8728-.5976 7.716-1.0528 11.616-1.4184Zm-65.3656 28.4584c4.4096-2.7648 9.024-6.7952 12.1832-10.928 6.308 4.384 10.796 10.9104 17.3648 14.8072-3.1336 2.6776-6.1504 5.7544-8.856 8.8656-11.9424 13.732-18.516 36.952-14.8848 55.0256 1.1536 5.7408 4.7984 11.4192 5.0944 17.2536.0088.1728.008.3456.012.5192q-6.872 1.6-13.7616 3.1232l-1.0128-.2088c.2696-1.8192 3.6752-5.1672 4.9312-6.76-1.0456-6.2576-3.2528-12.1792-3.336-18.6016q-8.82-1.0736-17.6592-1.9696c-.536-6.6712-.2328-13.4528-.1464-20.1424 6.684-.3712 13.3408-1.3424 20.0432-1.7168 1.8128-8.9256 5.1088-16.2264 9.0072-24.412-3.1304-4.8752-6.0632-9.8496-8.9792-14.8552Z"/>
  <path fill="#F3F4EF" d="M708.9216 136.7416c2.4256.0016 5.0984-.3272 7.256.9048.4904.6664.884.9472.9376 1.8032.2424 3.8936-11.9352 13.1336-14.9264 16.124 3.9336 5.8864 8.3384 10.5888 11.2312 17.2288q.4056.9136.7768 1.8424.3704.928.7056 1.8704.3352.9416.6344 1.8952.2984.9544.5608 1.9192.2624.9648.488 1.9384.2248.9744.4136 1.956.188.9824.3384 1.9704.1504.988.2632 1.9816.1128.9936.1872 1.9904.0752.9968.112 1.996t.0352 1.9992q-.0016.9992-.0408 1.9984-.0392.9992-.1168 1.996t-.1928 1.9896q-.1152.9928-.2688 1.9808-.1536.988-.344 1.9696c-.1768.8784-1.4384 6.4392-1.044 6.832.7792.7752 1.0512.184 1.72 1.4864l-17.2528 3.9032-4.976 1.0864c5.7432-7.9336 7.7776-19.688 6.2336-29.2544-1.3672-8.4744-5.9272-16.7776-12.9688-21.8192-8.7328-6.252-20.7776-7.8848-31.1776-6.0072-12.0624 2.1784-22.2608 9.0704-29.152 19.1584-7.8808 11.536-10.8272 24.7216-8.1976 38.5336.9736 5.1128 2.8744 10.5568 5.0872 15.272l-1.7512.3736c-3.3488.7168-6.7176 1.3832-10.0328 2.2456l-3.5736 1.028c.108-2.0096-.0008-3.8944-.1968-5.888-5.8576-14.2048-4.8288-31.5648.4-45.8624q.5456-1.464 1.1616-2.9t1.3016-2.8408q.6856-1.404 1.4384-2.7736.7528-1.3688 1.5712-2.7.8184-1.3312 1.7008-2.6208.8824-1.2896 1.8264-2.5344.944-1.2456 1.9472-2.4432t2.064-2.3448q1.0608-1.148 2.1752-2.2424 1.1152-1.0944 2.2824-2.1328 1.1672-1.0392 2.3832-2.02 1.216-.9816 2.4784-1.9016 1.2624-.9208 2.568-1.7792 1.3056-.8576 2.652-1.6512 1.3456-.7936 2.7288-1.5208 1.3824-.7264 2.7992-1.3856c10.2736-4.76 24.3912-5.8672 35.3424-3.096 5.1872 1.312 10.3344 3.6232 15.368 5.4864 4.1112-5.4368 10.212-10.14 15.0432-15.0416Z"/>
  <path fill="#A4C6C9" d="M623.4928 233.6608c-3.0312-2.2648-4.5888-5.708-5.7096-9.236q-.4024-1.2856-.7408-2.5888-.3392-1.304-.6128-2.6224-.2736-1.3192-.4824-2.6496-.2088-1.3312-.3512-2.6704t-.2192-2.684q-.076-1.3448-.0864-2.692-.0096-1.3472.0472-2.6928.056-1.3456.1792-2.6872.1224-1.3416.312-2.6752.1888-1.3336.4432-2.656.2544-1.3232.5736-2.6312.3192-1.3088.7024-2.6.384-1.2912.8304-2.5616.4472-1.2712.956-2.5176.5088-1.2472 1.0784-2.468.5696-1.22 1.1992-2.4112c6.2288-11.7376 16.3112-21.02 29.1304-24.8552 12.3352-3.6896 26.1752-3.0296 37.5488 3.3096 8.7824 4.8944 14.376 12.588 17.0424 22.2224 3.3488 12.1032 1.156 22.36-4.9384 33.024l-4.976 1.0864c5.7432-7.9336 7.7776-19.688 6.2336-29.2544-1.3672-8.4744-5.9272-16.7776-12.9688-21.8192-8.7328-6.252-20.7776-7.8848-31.1776-6.0072-12.0624 2.1784-22.2608 9.0704-29.152 19.1584-7.8808 11.536-10.8272 24.7216-8.1976 38.5336.9736 5.1128 2.8744 10.5568 5.0872 15.272l-1.7512.3736Z"/>
  <path fill="#F3F4EF" d="M801.264 136.7008c4.04.2608 7.824.6792 11.768 1.6256l-2.328 7.4368c5.944 3.2672 12.296 5.7632 18.224 9.12 3.32-.156 6.168-3.5888 9.624-2.076 2.192.9584 3.408 4.2632 4.296 6.3592-1.992 1.8168-4.664 3.2912-6.912 4.8032 2.696 3.3448 5.456 7.4896 7.464 11.2688 1.256 2.3608 2.232 4.0656 1.416 6.7096-3.432 1.4392-7.72 2.1376-11.4 2.672-1.656.8848-3.248 1.0608-5.08 1.3256-5.744 2.0944-12.216 3.156-18.2 4.576l-40.0728 9.2712-4.0952 1.2q-18.7224 4.6384-37.5464 8.8424l-.7072-.9008c4.9832-4.1672 13.6888-3.3776 19.4392-6.0608 1.5176-.708 1.2456-9.0768 2.284-11.1632 1.304-2.6192 3.5568-6.7352 2.8968-9.7-2.6856-3.0008-9.7096-3.5648-13.5208-4.1544l2.4064-8.416c4.0736.1104 14.5832 2.2984 17.7856.172 2.0656-1.3712 10.864-11.3944 11.284-13.308-.5072-1.9608-1.6464-3.2872-2.8504-4.8648 2.8696-1.5448 5.5248-3.5552 8.2016-5.4112 1.0464 1.8656 1.9696 3.8128 2.9352 5.7224 6.6664-3.608 12.8624-5.2112 20.2192-6.8992 1.0976-2.6088 1.7408-5.4208 2.4688-8.1504Z"/>
  <path fill="#A4C6C9" d="M765.968 200.9928c-1.2168-2.548-2.2736-5.1-2.8528-7.876-1.5792-7.5632.1256-14.6224 4.408-20.9808 5.9104-8.7744 14.8464-14.2296 25.152-16.2392 9.0128-1.7568 19.0608-1.1864 26.8208 4.1544 10.064 6.9232 11.544 12.712 13.768 23.8624l.152.7064c-1.656.8848-3.248 1.0608-5.08 1.3256 1.136-1.1976 1.128-1.4696 1.056-3.1192-.264-6.1992-4.2-12.6872-8.84-16.6392-6.24-5.3144-15.384-7.8448-23.4936-7.1176-9.0048.8072-18.812 5.8968-24.5032 12.9504-4.2136 5.2224-6.3312 11.8504-5.616 18.5512.3552 3.328 1.4024 6.3592 3.124 9.2216l-4.0952 1.2Z"/>
  <path fill="#F3F4EF" d="M770.0632 199.7928c-1.7216-2.8624-2.7688-5.8936-3.124-9.2216-.7152-6.7008 1.4024-13.3288 5.616-18.5512 5.6912-7.0536 15.4984-12.1432 24.5032-12.9504 8.1096-.7272 17.2536 1.8032 23.4936 7.1176 4.64 3.952 8.576 10.44 8.84 16.6392.072 1.6496.08 1.9216-1.056 3.1192-5.744 2.0944-12.216 3.156-18.2 4.576l-40.0728 9.2712ZM625.244 233.2872c-2.2128-4.7152-4.1136-10.1592-5.0872-15.272-2.6296-13.812.3168-26.9976 8.1976-38.5336 6.8912-10.088 17.0896-16.98 29.152-19.1584 10.4-1.8776 22.4448-.2448 31.1776 6.0072 7.0416 5.0416 11.6016 13.3448 12.9688 21.8192 1.544 9.5664-.4904 21.3208-6.2336 29.2544-16.0752 3.936-32.3176 7.4616-48.476 11.0472-7.152 1.5864-14.6936 2.7512-21.6992 4.836Zm96.4024-193.8135 12.5248.0285c-.6344 3.8416-.7056 7.7987-.9176 11.6836.1904.0023.3808.0223.5696.0068 4.5808-.3742 13.98 4.5455 18.5088 6.3592 3.0864-3.1828 6.1152-6.3619 8.9736-9.7547l8.3152 6.7704c-2.3448 3.7207-5.3056 7.1765-7.9272 10.7141 1.2512 2.734 4.5136 12.656 6.3352 14.0357 2.7504 2.0843 11.6424.4205 15.3064.1772.176 2.0295.4704 4.0591.7128 6.0823-5.0368 1.6736-10.3968 2.6768-15.572 3.8632.0784 7.8992-1.9296 14.72-4.4736 22.0912 3.2072 1.3056 6.4984 2.2944 9.8056 3.308-1.7864 3.4104-3.3176 6.8432-4.78 10.3984-4.4256-1.0832-8.7288-2.5512-13.0536-3.9744-8.08 3.9672-11.8736 9.4912-21.5496 11.0136.068 3.8656.2296 7.5936.7792 11.4304-3.9832.6392-7.792 1.516-11.684 2.5528-1.244-4.288-2.992-8.5088-4.5784-12.6856-6.5304-.0392-12.72-1.5336-18.1616-5.184-1.5248 2.5112-2.9544 4.4344-5.2592 6.264-3.544-1.8904-7.1528-3.5896-10.7976-5.2736 2.208-2.1696 6.0696-5.1928 7.2976-7.9872.4792-1.0904.4016-1.268.016-2.3216-.5064-.2888-.972-.5544-1.532-.728-4.2992-1.3304-10.692.28-14.6432 2.1768l-1.7944-6.5248c2.988-1.5552 6.0408-2.9128 9.124-4.2632-.6304-4.796-2.2496-9.528-2.3664-14.388-.0432-1.788.5416-3.4376.5944-5.2192-2.552-2.2104-10.328-2.3808-13.7264-2.836.7416-2.468 1.6104-4.8968 2.4488-7.3328 4.2232.2752 8.2864.4056 12.5032-.0654 2.6528-5.456 6.088-10.5256 9.3512-15.6303-2.0944-2.8805-4.5776-5.5309-6.9088-8.2241 3.3416-2.9601 6.5696-5.969 9.7072-9.1452 2.4856 3.808 6.5016 6.5381 8.4432 10.6268 5.7976-3.0326 10.4208-5.652 16.8464-7.3164.792-3.5184.8664-7.1725 1.5624-10.7285Z"/>
  <path fill="#A4C6C9" d="M724.8072 57.194c8.676-.6905 18.2576 1.8142 25.0992 7.3246 6.3 5.0739 9.9848 13.4976 10.8184 21.4214.9928 9.4304-2.5984 18.7-8.5032 25.9696-6.824 8.4008-16.3128 13.3304-26.9936 14.4384-.1728.0296-.3456.0664-.5192.0904-7.7472 1.0488-16.9192-1.8952-23.0408-6.6248q-.6384-.5008-1.2512-1.032-.6128-.5312-1.2-1.0912-.5864-.56-1.1456-1.148-.5584-.588-1.0888-1.2016-.5296-.6144-1.0296-1.2536-.5-.6384-.968-1.3008-.468-.6624-.904-1.3472-.436-.684-.8376-1.3888-.4024-.704-.7704-1.4272-.3672-.7232-.7-1.4632-.332-.74-.628-1.4952-.2968-.7552-.556-1.524-.2592-.7688-.4808-1.5488-.2224-.78-.4064-1.5704t-.3296-1.588q-.1456-.7984-.2528-1.6024c-1.1968-9.3352 1.9088-18.6354 7.716-25.9432 6.9424-8.7364 17.0512-13.4 27.972-14.694Z"/>
  <path fill="#F3F4EF" d="M724.4624 61.1347c7.9952-.4223 16.372 1.2731 22.72 6.3525 5.6624 4.5312 8.6504 11.306 9.328 18.4328q.0832.8168.1256 1.6376.0424.82.044 1.6416.0008.8208-.0392 1.6416-.04.82-.1208 1.6376-.0816.8176-.204 1.6296-.1216.812-.2848 1.6176-.1632.8048-.3656 1.6008-.2032.796-.4464 1.58-.2424.7848-.524 1.5568-.2824.7712-.6024 1.5272-.32.7568-.6784 1.496-.3576.7392-.752 1.4592-.3944.7208-.8248 1.42-.4304.7-.8952 1.3768-.4648.6776-.9624 1.3304-.4984.6528-1.0288 1.28c-6.1776 7.4496-14.608 11.0896-24.0584 12.028-6.7416.2416-13.6168-.8632-19.3288-4.6248-6.3408-4.1768-11.1272-11.0392-12.6176-18.5024-1.6392-8.208.7472-15.9952 5.3808-22.8064 6.3696-9.3622 15.2728-13.2457 26.1352-15.3125Z"/>
  <path fill="#3C3C68" d="M328.0808 534.9592c-16.5504 3.2576-34.2632 4.2568-51.1176 4.1496-38.112-.2432-80.2416-8.2816-114.4528-25.5464q-3.5216-1.8008-6.9688-3.74-3.4472-1.94-6.8144-4.0152-3.3664-2.076-6.648-4.284-3.2816-2.2088-6.4728-4.5464-3.1904-2.3376-6.2856-4.8-3.0952-2.4632-6.0896-5.048-2.9944-2.584-5.8832-5.2864-2.8888-2.7016-5.668-5.5168c-38.8904-39.4904-59.4088-95.6504-58.938-150.7552.4003-46.8392 13.174-95.016 37.094-135.4312 6.2688-10.592 13.4232-20.2632 20.8488-30.0552 9.0976-11.9968 18.5448-23.5096 29.308-34.0608 50.1512-49.1655 116.4288-82.9784 187.82-82.135q2.9232.0161 5.8448.1204 2.9208.1044 5.8376.2968 2.9168.1925 5.8264.473 2.9104.2805 5.8096.6487 2.9.3683 5.788.8239 2.8872.4556 5.76.9983 2.872.5426 5.7264 1.1717 2.8552.6292 5.6896 1.3442 2.8344.715 5.6456 1.5154 2.812.8003 5.5976 1.685 2.7864.885 5.5448 1.8535 2.7576.9686 5.4856 2.02 2.7272 1.0515 5.4224 2.1848 2.6944 1.1333 5.3536 2.3475 2.6592 1.2142 5.2808 2.5081 2.6216 1.294 5.2024 2.6665c6.464 3.4937 12.2568 7.9383 18.5848 11.606 17.76 10.2936 33.6472 20.196 48.108 35.1232 4.6832 4.8336 8.7568 10.1552 12.8472 15.4872 27.5784 35.9504 40.928 79.4216 40.1352 124.5632 16.5984-3.8344 33.1176-8.0328 49.7952-11.5152l7.252-1.4488q6.8896-1.5232 13.7616-3.1232l1.7744-.304 3.5736-1.028c3.3152-.8624 6.684-1.5288 10.0328-2.2456l1.7512-.3736c7.0056-2.0848 14.5472-3.2496 21.6992-4.836 16.1584-3.5856 32.4008-7.1112 48.476-11.0472l4.976-1.0864 17.2528-3.9032c3.58-.3632 7.3648-1.4232 10.7736-2.5792q18.824-4.204 37.5464-8.8424l4.0952-1.2 40.0728-9.2712c5.984-1.42 12.456-2.4816 18.2-4.576 1.832-.2648 3.424-.4408 5.08-1.3256 3.68-.5344 7.968-1.2328 11.4-2.672 1.272-.1176 2.416-.092 3.464-.9088 17.016-2.7488 34.912-7.724 51.76-11.7456 8.736-2.0856 21.136-6.512 29.864-5.7872 2.088.1736 4.144.8392 6.072 1.6272 6 2.4432 11.736 5.8424 17.536 8.72 5.128 2.5408 10.888 4.4952 15.552 7.8088q.336.2416.656.5.328.2584.64.5328.304.2744.6.5648t.576.5952q.28.304.552.6232.264.3184.512.6504.248.3312.472.6752.232.344.448.6992.216.3552.408.7208.192.3656.368.7408.176.3752.336.7592.152.3832.288.7744.136.3912.256.788.112.3976.208.8008.096.4032.176.8104.072.4072.128.8176c.944 6.6648-2.96 27.6496-3.952 35.4032l-9.088 72.5872q-16.912 139.2096-36.56 278.06c-2.104 14.4472-4.208 28.9576-6.008 43.4432-1.184 9.54-1.92 19.2456-3.592 28.712-.76 4.3608-2.184 8.4104-4.984 11.8992-2.52 3.1432-6.152 5.7232-10.04 6.8232-5.488 1.5544-11.52 1.94-17.176 2.6432l-25.768 3.2368c-32.616 4.12-65.4728 7.7904-97.9176 13.0456 17.0648 21.1064 35.1048 41.3848 52.3496 62.3336 1.768 1.9776 5.184 4.9736 6.048 7.476-20.6832 4.5536-41.6264 7.9024-62.34 12.3192l-36.412 7.7456c-6.34 1.3304-12.7688 3.0288-19.1944 3.8096-13.4368 1.6312-29.908 1.2344-43.7184 1.7696l-90.8504 3.4784c-16.76.62-33.4864 1.3248-50.2584 1.5856-6.0568.0944-12.896.8928-18.8616.012-1.0424-.844-1.408-1.2912-1.6376-2.656-.1144-.68-.0784-1.424-.068-2.1128 4.3152-4.2592 10.3904-13.3928 15.6848-15.9432 5.5256-2.6624 20.408-4.4632 26.9032-5.6904l61.0128-11.5536q17.6336-3.528 35.2304-7.2368c7.1504-1.4888 14.3544-3.2488 21.6128-4.0872-3.156-11.4744-6.0552-23.9384-7.8112-35.7088-41.2872 6.4136-82.8832 11.472-124.2928 17.0464l-76.2488 11.0224q-40.6608 6.0664-81.4176 11.4488c-9.5384 1.3368-29.492 5.8632-37.8544 4.6296-7.772-1.1472-24.9552-7.9632-29.6264-14.3736-2.3256-3.1904-1.9096-9.2616-1.5768-13.0224.576-6.4976 1.9792-13.0016 3.0496-19.4384l6.6248-39.028q10.892-63.664 21.1312-127.4352Z"/>
  <path fill="#F3F4EF" d="M653.3032 703.5984c2.1904-.256 4.3672-.6432 6.544-.9936.7032 4.7424 1.3664 9.5056 2.336 14.2016 1.696 8.2136 6.3416 21.432 4.9976 29.6136-.584.7024-.7552.908-1.6064 1.2528-10.9448 4.4248-33.9928 7.8728-46.2232 10.2456l-79.6824 15.8608c-6.4424 1.3016-13.0336 1.9744-19.4464 3.3832-1.8824.4136-3.928.9008-5.688 1.7064-2.4048 1.1-5.7504 4.0568-8.2832 4.2416-.6864.0504-1.4744-.2072-2.0736-.5024 3.3064-3.564 6.6344-7.0152 10.2144-10.3072 10.1464-.3936 28.152-5.0128 39.0432-7.0824 36.3992-6.9176 72.5944-15.0416 109.1048-21.3224l-9.2368-40.2976Z"/>
  <path fill="#A4C6C9" d="M659.8472 702.6048c21.8728-3.2952 43.9792-5.1016 65.816-8.4824 2.5888 12.34 5.7936 24.6536 8.0336 37.0528-11.528 15.1184-21.816 31.312-33.8968 45.988-20.6728 1.312-41.4968 1.3592-62.2032 2.0568l-83.2248 3.2464q-18.1824.6968-36.3752 1.0216c-4.4384.0968-9.9384.8136-14.2632.056l-.0416-.6192.4856-.3168c.5992.2952 1.3872.5528 2.0736.5024 2.5328-.1848 5.8784-3.1416 8.2832-4.2416 1.76-.8056 3.8056-1.2928 5.688-1.7064 6.4128-1.4088 13.004-2.0816 19.4464-3.3832l79.6824-15.8608c12.2304-2.3728 35.2784-5.8208 46.2232-10.2456.8512-.3448 1.0224-.5504 1.6064-1.2528 1.344-8.1816-3.3016-21.4-4.9976-29.6136-.9696-4.696-1.6328-9.4592-2.336-14.2016ZM311.4432 49.9824c6.012-.971 12.5808-.6795 18.6624-.6114 34.0168.3812 68.8992 9.8712 96.7008 29.9474 40.052 28.9232 65.18 73.3016 72.8656 121.7992 3.144 19.8424 2.2152 40.2192-.2768 60.0808-9.348 2.4216-18.8936 4.528-28.372 6.3752.7992-8.3048 1.7056-16.6152 1.788-24.9656q.028-2.8072-.0336-5.6136-.0624-2.8064-.2152-5.6096-.1528-2.8032-.3952-5.6-.2424-2.7968-.5752-5.584-.3328-2.7872-.7552-5.5624-.4224-2.7752-.9336-5.5352-.5112-2.7608-1.1112-5.5032-.6-2.7416-1.288-5.4632-.688-2.7216-1.464-5.42-.7752-2.6976-1.6368-5.3696-.8616-2.6712-1.8096-5.3136-.9472-2.6424-1.9792-5.2528-1.032-2.6112-2.148-5.1864-1.1152-2.576-2.3128-5.1152-1.1984-2.5384-2.4776-5.0368-1.2784-2.4992-2.6376-4.9552c-4.004-7.1512-8.3-14.5624-13.5288-20.8992-27.1192-32.864-65.52-52.2704-107.8184-56.1449-55.3184-5.0668-108.9136 15.1369-151.0416 50.3097q-2.42 2.0264-4.7904 4.1112t-4.6888 4.2272q-2.3184 2.1424-4.584 4.3408-2.2648 2.1976-4.476 4.4512-2.2112 2.2528-4.3672 4.5584-2.1552 2.3064-4.2536 4.6648-2.0984 2.3584-4.1392 4.7672-2.04 2.4088-4.0208 4.8664-1.9808 2.4576-3.9016 4.9632-1.92 2.5056-3.7792 5.0576-1.8584 2.5512-3.6536 5.1472-1.796 2.5968-3.528 5.236-1.732 2.6392-3.3984 5.32-1.6672 2.6816-3.268 5.4024-1.6008 2.7208-3.1352 5.4792-1.5336 2.7592-3 5.5552-1.4664 2.796-2.864 5.6264-1.3968 2.8312-2.7248 5.6952t-2.5856 5.7592q-1.2584 2.896-2.4448 5.8216-1.1864 2.9248-2.3016 5.8784-1.1144 2.9536-2.1568 5.9336-1.0424 2.98-2.012 5.9848-.9688 3.004-1.8648 6.0312t-1.7168 6.076q-.8216 3.048-1.5688 6.1152-.7464 3.068-1.4184 6.152-.672 3.0848-1.268 6.1856-.596 3.1-1.1168 6.2136-.52 3.1136-.9648 6.24-.444 3.1256-.8112 6.2608-.368 3.136-.6592 6.2792c-4.1824 46.88 8.1992 94.8984 38.7576 131.2944 29.0776 34.632 68.1896 57.4072 113.6368 61.3472 35.1888 3.0504 65.672-6.1464 97.8616-19.3312-1.5776 10.6352-2.9728 21.4664-5.2056 31.9816-47.888 19.6376-107.0032 25.1728-155.5376 4.8232-28.8976-12.1152-53.6088-31.2848-73.6392-55.2608-3.448-4.1264-8.5656-9.6784-10.668-14.6016-.0464-.1088-.0696-.2256-.1048-.3384-4.1472-5.288-7.412-12.0864-10.4536-18.0648q-1.3472-2.5856-2.6226-5.2072-1.2753-2.6216-2.4777-5.2776-1.2025-2.656-2.3311-5.344-1.1288-2.6888-2.1828-5.4072-1.054-2.7184-2.0325-5.4648-.9785-2.7464-1.8809-5.5184-.9023-2.7728-1.7278-5.5688-.8254-2.796-1.5733-5.6144-.748-2.8176-1.4177-5.6552-.6698-2.8376-1.261-5.6928-.5913-2.8552-1.1035-5.7256-.5121-2.8696-.9448-5.7536-.4327-2.8832-.7857-5.7768-.3528-2.8944-.6257-5.7976-.2729-2.9024-.4655-5.812-.1927-2.9088-.305-5.8224c-2.6506-75.6232 27.524-145.3304 78.672-200.152 43.0056-46.0952 110.696-84.254 174.6744-86.4304Z"/>
  <path fill="#F3F4EF" d="M92.288 444.068c-4.1472-5.288-7.412-12.0864-10.4536-18.0648q-1.3472-2.5856-2.6226-5.2072-1.2753-2.6216-2.4777-5.2776-1.2025-2.656-2.3311-5.344-1.1288-2.6888-2.1828-5.4072-1.054-2.7184-2.0325-5.4648-.9785-2.7464-1.8809-5.5184-.9023-2.7728-1.7278-5.5688-.8254-2.796-1.5733-5.6144-.748-2.8176-1.4177-5.6552-.6698-2.8376-1.261-5.6928-.5913-2.8552-1.1035-5.7256-.5121-2.8696-.9448-5.7536-.4327-2.8832-.7857-5.7768-.3528-2.8944-.6257-5.7976-.2729-2.9024-.4655-5.812-.1927-2.9088-.305-5.8224c-2.6506-75.6232 27.524-145.3304 78.672-200.152 43.0056-46.0952 110.696-84.254 174.6744-86.4304 1.8936.139 3.9896.5024 5.8528.0878l.3712.331c-3.4544.4663-6.3744-.3817-9.852.6432-1.14.336-2.284.6518-3.4216.9971 4.2592.0079 8.364-.5948 12.5744-.4431-14.556 2.4831-28.8016 3.5353-43.1736 7.473-62.3824 17.0927-118.784 60.3262-155.9976 112.7422-26.5936 37.4576-41.6037 74.4672-49.8298 119.412-3.3938 18.5432-5.5255 37.9752-4.3665 56.8448.5393 8.7816 2.2551 17.924 3.7348 26.604 2.9879 17.528 8.8554 34.1368 16.3895 50.1984 2.0568 4.3848 9.0264 15.0552 8.5632 19.1952Z"/>
  <path fill="#F3F4EF" d="M317.7856 87.2328c8.7-.8664 18.2312-.3008 26.8888.868 36.1472 4.8816 69.5056 25.4672 91.408 54.4096 19.92 26.3224 30.6832 61.0072 31.4408 93.8624.2576 11.1776-.7544 21.8184-2.2792 32.88q-27.6912 5.9016-55.26 12.3496c-8.6904 1.9744-17.9384 3.3184-26.4024 6.0568-2.5104.812-4.6728 1.9184-6.7672 3.52-3.8136 2.916-7.0664 6.9064-8.7064 11.448-1.9576 5.4216-2.6272 11.5136-3.6024 17.184l-4.5288 26.4032q-4.6976 25.9144-8.868 51.9192c-1.6896 9.988-3.6256 20.0008-4.8912 30.0504-1.1-2.1784-1.8688-4.56-3.1768-6.6312-.9552-1.5128-2.3672-3.196-4.1568-3.6368-.6208.5216-.4448.2248-.6544 1.1312-1.2 5.1856 3.884 13.204 6.3824 17.4096-2.2728 11.6824-4.0592 23.4792-5.9072 35.2336-21.5688 9.7368-43.5696 16.6232-67.1376 19.34-2.4312.3552-4.8928.5672-7.3416.756-35.3288 2.7232-72.7232-7.6552-99.836-30.9784-34.8488-29.9784-54.7816-73.2472-58.1144-118.7944-4.7864-65.3992 22.196-127.6432 64.42-176.44q4.5744-5.3648 9.4632-10.4448 4.8888-5.0792 10.0744-9.856 5.1856-4.776 10.6488-9.2312 5.464-4.4552 11.1856-8.5736c29.3904-21.0568 69.4568-37.6424 105.7184-40.2352Z"/>
  <path fill="#3C3C68" d="M239.3768 125.2896c.8536.0752 1.3072.244 2.0864.5656 2.4528 2.9448 8.3496 22.0104 8.3728 26.1856.0096 1.6264-.7544 2.0696-1.8256 3.1152-.84-.0696-1.4944-.2352-2.288-.5176-2.1896-2.764-8.3712-22.2856-8.608-26.1184-.0848-1.3824 1.3568-2.328 2.2624-3.2304Zm-60.4184 43.9424c4.0792 1.9944 21.596 18.94 23.7784 22.9672-.2528 1.68-.8888 2.1184-1.98 3.384-1.2848-.1048-2.0264-.3256-3.0608-1.1136-2.804-2.136-20.3064-18.5816-20.7056-21.1392.22-1.7848.9016-2.6816 1.968-4.0984Zm-28.6616 138.4304c.8464-.1032 1.8576-.2 2.6952-.036.896.176 1.9216.8168 2.432 1.5784.4288.6392.2832.644.1688 1.3392-3.344 3.7944-23.4744 6.8552-29.224 8.2016-.9976.1552-2.1192.3912-3.1272.3728-1.3264-.0248-1.7384-.7184-2.472-1.6856-.0984-.6536-.3576-1.1896.0184-1.788 2.1128-3.3576 24.1056-6.764 29.5088-7.9824Zm-11.3832-73.196c3.3992.484 27.1104 9.0944 30.032 10.7152l.376 1.316c-.3016 1.5344-.9656 2.3968-1.9032 3.6256-5.8464-.94-22.556-6.8776-28.124-9.584-1.4792-.72-1.8512-1.1616-2.3696-2.7112.2488-1.5456.9496-2.2336 1.9888-3.3616Zm171.1056-132.5608c.9912-.0128 2.112-.1352 2.9912.4016.6728.4104.7664.7608.8944 1.5592.5656 3.5152-3.3352 25.3752-4.5 29.4584-.3792 1.3272-.9184 2.3856-1.72 3.5024-.8816-.1528-2.0072-.2488-2.7552-.764-.7776-.5368-1.1616-1.3336-1.2608-2.26-.4608-4.312 3.1384-24.3568 4.4712-28.7584.3784-1.2504 1.0272-2.168 1.8792-3.1392Zm69.588 7.3632c.532.0768 1.1224.1336 1.64.2984 1.2512.4008 1.5632.78 2.1888 1.8992-.1832 3.1448-15.9728 30.4632-18.6944 33.9128-.8656-.2856-1.852-.5528-2.648-.9968-1.088-.6064-1.2608-1.2704-1.4504-2.4112 1.04-3.1312 16.1608-28.9024 18.964-32.7024Zm-97.0096 333.784c.8616-.0816 1.7864-.2112 2.6504-.1576 1.2608.0784 1.7704.5416 2.616 1.404.1728 4.4728-2.3608 34.356-3.8896 37.0744-1.8432.4112-2.8712.3888-4.4976-.5304-1.4608-3.008 1.932-33.4248 3.1208-37.7904Zm-52.8712-4.0752c1.6976-.1536 2.7904.0456 4.1416 1.0448.1024.4424.2968.8728.308 1.3264.0352 1.3424-14.076 31.6896-15.8856 35.5952-1.028-.0312-2.5984.0616-3.5112-.3848-.8408-.4104-.8768-.9272-1.1592-1.7384.7928-5.16 12.9008-31.152 16.1064-35.8432Zm221.0632-225.9832c.8176-.0536 1.6088.0656 2.4216.1504.796.5112 1.4848.8888 1.9424 1.7576.3616.6872.044 1.1376-.1368 1.844-3.3296 4.0568-26.012 15.0488-32.284 18.4024-1.0232.3872-1.5504.4136-2.6296.2504-1.2112-.9872-1.3248-1.0064-1.7264-2.6104.1416-.4848.1864-1.0104.4264-1.456.792-1.4728 28.0552-16.0552 31.9864-18.3384ZM186.0144 408.4216c.5432-.0208 1.1928-.0864 1.736.0272 1.3128.2752 1.7664.7904 2.4736 1.8576-.0504.516-.0184 1.0472-.1512 1.5488-.5416 2.0488-21.8544 26.3192-25.004 29.944-.3168.116-.4352.1736-.8088.2256-1.4272.1976-2.008.2104-3.0784-.7112-.0864-.4752-.14-.6216-.1408-1.0664-.0136-4.3576 20.9008-27.5704 24.9736-31.8256ZM428.752 153.9728c1.4576.064 2.0424.2424 3.284 1.0088.5928 1.0144.9032 1.3656.6064 2.588-.3096 1.2768-27.6752 23.744-31.0728 25.944-.5832-.1568-1.2336-.3088-1.7696-.5888-1.1424-.596-1.4744-1.1264-1.864-2.3056.6168-2.604 26.3656-23.1008 30.816-26.6464ZM160.2848 362.496c1.208-.0608 2.8304-.044 3.884.6168.6704.4208.524.4856.6904 1.196-1.7576 6.0608-27.196 19.2416-33.6408 23.0288-.1752.0264-.3488.0656-.5256.0792-.892.068-1.7032-.1344-2.356-.7752-.7896-.7744-.7088-.9264-.712-1.9704 2.7432-4.7488 26.2672-18.1384 32.66-22.1752Z"/>
  <path fill="#F9827A" d="M348.8136 189.6392c6.9312-4.3992 13.7752-8.8496 20.4856-13.584-.452 10.5728-1.3016 21.2048-1.5264 31.7744-4.0952-1.7312-8.2232-3.4096-12.2624-5.268-5 7.6024-9.2296 15.8184-13.7872 23.6952-9.1072 15.7384-18.4432 31.6984-28.3784 46.928q-2.5624-1.696-5.1872-3.2936c2.6248-1.7896 35.5776-60.5936 42.4256-69.832l-4.3064-2.2336-5.8672-2.4288c2.6536-2.2408 5.416-3.996 8.404-5.7576Z"/>
  <path fill="#3C3C68" d="M178.4408 221.808c10.1368 6.2352 20.9744 11.4736 31.4072 17.2216l74.3056 40.4808q.7448-1.0144 1.5816-1.9544.8368-.94 1.7576-1.7976.9216-.8568 1.9184-1.6248.9976-.7672 2.0624-1.4376c5.188-3.2472 10.744-4.2048 16.684-2.8048q2.6248 1.5976 5.1872 3.2936c.4656.5648.9208 1.1456 1.2968 1.7752 2.3328 3.908 2.7648 8.7416 1.6216 13.0976-1.8512 7.0536-7.0664 13.2464-13.3688 16.7832-4.7624 2.6728-10.4184 4.308-15.812 2.6536-2.996-.9192-5.5344-2.7696-6.9064-5.6384-2.3664-4.9448-1.6248-10.4936.0536-15.476q-40.9496-17.284-81.4736-35.5464c-10.5176-4.7184-22.4944-8.7224-32.2744-14.7896l-.1784-.7904c1.7792-4.8072 8.272-10.0976 12.1376-13.4456Z"/>
  <path fill="#F3F4EF" d="M924.6 168.7904c1.296-.1576 2.6-.3144 3.904-.3568 2.128-.0688 4.712.8096 6.224 2.3624 1.8 1.8472 2.304 4.644 2.328 7.1264.04 4.6432-1.152 9.5928-1.76 14.1992q-1.816 14.5336-3.816 29.0424l-11.328 88.1368q-13.528 108.1632-28.52 216.1328L879.6 616.1528c-1.472 10.52-2.272 21.2904-4.176 31.7288-.816 4.4696-2.744 9.4312-6.16 12.58-1.432 1.3224-3.168 2.2144-4.992 2.8656-8.248 2.9376-25.464 4.1184-35.032 5.38q-36.54 4.9808-73.132 9.5656l-264.0152 35.164-127.9064 17.8176-30.38 4.368c-6.2248.8672-12.7152 2.0528-19.0088 1.868-2.0848-.3144-4.3616-.9448-6.232-1.9336q-.2768-.1432-.5456-.3008-.268-.1568-.528-.3288-.26-.1712-.5104-.356-.2504-.1856-.4912-.3832-.24-.1984-.4696-.4088-.2296-.2104-.448-.4328-.2176-.2224-.424-.456-.2056-.2328-.3992-.4776-.1928-.244-.3728-.4976-.1808-.2544-.3472-.5176-.1664-.2632-.3184-.5352-.152-.2712-.2896-.5504-.1376-.28-.26-.5664-.1232-.2856-.2304-.5784-.1072-.292-.1992-.5896-.0912-.2976-.1672-.6c-.708-2.8112-.452-5.7328-.0584-8.5696 1.4928-10.7592 3.8232-21.4344 5.5784-32.1584l18.8472-111.004 28.9032-172.3848c2.6144-15.5888 14.3912-95.3568 18.888-102.8592 3.1224-5.2104 6.688-7.0688 12.3376-8.7936 5.1728-1.5784 10.6256-2.5952 15.8928-3.832 15.2592-3.5824 30.6032-6.5848 45.8992-9.9648L557.62 253.7528Q689.132 224.8096 820 193.084l74.08-17.4352c10.152-2.3664 20.408-4.3256 30.52-6.8584Z"/>
  <path fill="#3C3C68" d="m919.488 185.7944 1.432.1264.528.8176c-7.44 42.724-11.6 86.1928-16.992 129.2144l-28.568 220.0624q-5.152 40.4936-11.088 80.8792c-1.304 9.0928-2.328 23.324-4.52 31.3344-.232.8576-.656 1.4008-1.224 2.0624-22.392 1.7192-44.752 5.616-67.0272 8.5208q-62.9552 7.8536-125.7904 16.6144l-347.2296 47.3504-.628-.1832c-1.5056-2.7256 27.9904-174.2656 31.4304-195.0656l19.1464-116.2128c5.724-35.036 11.1936-69.996 17.6352-104.9184q203.304-43.836 405.7704-91.3984c32.5088-7.8528 65.2368-14.8392 97.7808-22.5816 9.728-2.3136 19.744-3.8808 29.344-6.6224Z"/>
  <path fill="#F9827A" d="M390.856 311.3392q204.3272-44.412 407.8808-92.2448l84.4712-19.5368c8.4-1.9624 23.36-4.208 30.488-7.344.376.7896.616 1.3632.712 2.2464.504 4.7336-3.12 25.6584-3.96 31.988-1.184 8.972-1.864 18.2224-3.48 27.1088-.152.832-.424 1.2648-.92 1.928-4.128-.1032-12.304 2.5064-16.712 3.4008-24.04 4.8816-47.864 10.6616-71.88 15.6176l-308.4232 66.4296-76.712 16.0776c-11.2496 2.3624-24.068 6.0368-35.344 7.4256-5.144 1.1696-10.2752 2.3696-15.4744 3.2688.3168-1.2896.4672-2.6696.6912-3.9816 2.1832-17.4208 6.0488-34.952 8.6624-52.384Z"/>
  <path fill="#F3F4EF" d="M444.1128 320.0968c.8016 0 1.5528.0472 2.3472.1704 2.084.3224 3.9392.8608 5.1616 2.7096 1.2048 1.8232 1.276 4.0112.7056 6.0648-1.0664 3.8376-3.228 5.6832-6.5096 7.5688-1.0928.0488-2.1016.0432-3.1576-.2872-2.0648-.6456-3.7944-2.028-4.6776-4.0304-.9768-2.2136-.8024-4.7096.0768-6.9248 1.1704-2.9464 3.3216-4.1008 6.0536-5.2712Zm24.8264-5.4088c1.2072-.0896 2.4168-.1392 3.6184.048 1.98.3072 3.8968 1.4768 5.0208 3.1432 1.1376 1.688 1.384 3.8112.9928 5.7784-.7072 3.5576-2.7312 5.3584-5.5536 7.3024-1.1144.1104-2.2688.248-3.3888.1648-1.892-.1408-3.7144-1.0312-4.924-2.5056-1.4288-1.7416-1.764-3.9776-1.3904-6.1496.6376-3.7128 2.6392-5.792 5.6248-7.7816Zm-50.472 11.4536c1.16-.0448 2.4008-.1448 3.5096.264 1.6656.6144 2.8552 1.984 3.4712 3.6224.9568 2.5472.428 5.5656-.7288 7.9576-1.3128 2.7128-3.344 3.8112-6.0632 4.8232l-.6168-.0584c-1.2968-.1128-2.632-.1544-3.8144-.7568-1.7328-.884-2.9208-2.488-3.4968-4.324-.7736-2.468-.1504-5.2496 1.172-7.4128 1.6648-2.7248 3.6408-3.416 6.5672-4.1152Zm461.4848-97.8384 2.376-.2696c.664.452.8.4272 1.144 1.2312.768 1.7544-.032 4.8464-.768 6.5304-5.064 2.7696-37.472 8.5792-44.896 10.248l-116.6736 26.7376c-1.1216.1144-1.072.18-1.9528-.508-.6928-2.4328-.2792-5.2256-.1408-7.74l109.0872-24.7744c16.896-3.8288 35.408-6.7488 51.824-11.4552ZM396.9768 364.436c11.276-1.3888 24.0944-5.0632 35.344-7.4256l76.712-16.0776 308.4232-66.4296c24.016-4.956 47.84-10.736 71.88-15.6176 4.408-.8944 12.584-3.504 16.712-3.4008 1.016 5.2104-7.896 66.4008-9.328 77.8184l-8.032 66.84C885.824 422.7824 857 642.2744 855.8 644.0672c-.12.1776-.248.3464-.376.52l-365.548 49.5024-108.8496 14.9592-37.2272 5.1336c-6.6856.8768-13.5016 1.4096-20.1416 2.5248 2.476-10.5992 3.6648-21.5352 5.3504-32.2856l9.5928-59.8848 42.9016-256.832c5.1992-.8992 10.3304-2.0992 15.4744-3.2688Z"/>
  <path fill="#3C3C68" d="m553.7624 450.7336 1.7512-.0184c.2736.4208.4296.612.5968 1.128.4248 1.3144.0384 2.1912-.5232 3.352-1.172.9928-2.3024 1.556-3.8024 1.9136-4.1992 1.0024-8.7288 1.3224-13.0056 2.0928l-35.0304 6.3272q-54.688 9.3536-109.1856 19.7656c-1.1104.0936-1.2976.1336-2.2784-.3672-.6272-1.8872.3456-4.012.8872-5.8592 21.3408-2.7192 42.6088-7.0608 63.7944-10.8048q48.4552-8.4472 96.796-17.5296Zm88.0736-49.004c1.144-.2016 2.2232-.2552 3.384-.2736 1.264.6456 1.4008.7352 2.1112 1.9576-.112.744-.208 1.1832-.644 1.8032-.9952 1.4128-2.9336 2.4864-4.5776 2.9-5.8048 1.4608-15.2136 2.3584-21.58 3.496l-55.5552 9.9856-162.1656 29.6176c-1.8488.4256-3.7712 1.152-5.548.3936-.644-1.6456.0744-3.5512.448-5.2232 12.2136-1.5288 24.3904-4.4344 36.4896-6.7024l55.4168-9.9624q76.2136-13.4312 152.2208-27.992Zm-.076 16.5304c.6672-.0976 1.012.0216 1.6528.1888.2288.4224.4984.868.5944 1.3488.2488 1.2552-.3024 2.2432-.9448 3.2584-.3928.3256-.7384.6368-1.2408.788-5.3504 1.6048-15.4016 2.908-21.3528 4.004l-51.1616 9.2624-172.268 31.6528c-1.0384.104-1.176.2392-2.0248-.336-.1704-1.5584-.332-2.6864.2472-4.168 1.0952-1.1712 2.052-1.64 3.62-2.0056 5.5632-1.296 11.6368-1.7344 17.2944-2.7608l50.6128-9.2072L641.76 418.26Z"/>
  <path fill="#F9827A" d="M418.4904 626.8848c.9992 1.5384-4.592 35.9712-5.1368 40.9104-20.1184 2.2848-40.0672 6.1576-60.1824 8.272l-.2608-.364c-.3032-2.9752 5.4752-34.5896 6.4136-40.02 19.8792-2.0136 39.4264-5.8528 59.1664-8.7984Z"/>
  <path fill="#3C3C68" d="M827.112 621.396c.824-.0672 1.792-.2232 2.608-.0896 1.144.188 1.52.8832 2.048 1.8-.128.6744-.272 1.1024-.688 1.6696-1.024 1.3992-3.688 2.16-5.304 2.5056-3.6.7672-7.6.8464-11.28 1.36l-31.0904 4.3312-98.428 13.5984-230.2088 31.4896-57.9264 8.0688c-14.1952 1.8736-28.4832 3.3752-42.6248 5.6072-1.2168.2208-2.2352.4664-3.464.1504-.0712-.1488-.1632-.288-.2136-.4448-.496-1.5424.0976-3.5744.864-4.944 4.7144-1.3824 10.0264-1.6272 14.9128-2.2552l26.0704-3.4768q50.1376-7.2824 100.4096-13.5704l334.3152-45.8Z"/>
  <path fill="#A4C6C9" d="m521.6592 363.7392.876-.08c.8952 3.6664-2.2528 24.26-3.268 29.1384-6.376.8264-12.7896 2.3376-19.1128 3.568q-23.2952 4.6768-46.4992 9.7896c-16.1048 3.4816-32.4112 6.0304-48.5456 9.4008-1.0664.0232-.5768.1672-1.4664-.4424-.4672-3.8728 3.0248-22.6696 3.676-27.9856 11.3432-1.8672 22.5744-4.5208 33.8184-6.8992 26.7536-5.6592 53.5856-11.7728 80.5216-16.4896Zm29.8112 108.5672.7656.3816c.904 3.5272-1.2736 18.3696-1.8488 22.7904-28.3984 3.9792-56.488 9.964-84.6416 15.3344q-39.5576 7.3384-79.232 14.0208l-.6552-.3144c-.6824-3.1264 2.2632-18.4184 2.7432-22.5776 29.7056-6.5568 60.0432-11.04 89.98-16.4408l41.0368-7.5192c10.58-2.0168 21.1664-4.2872 31.852-5.6752Zm-60.748 119.4488c.4576.0072.7176.1568 1.1304.3392-.1216 5.8208-1.508 12.0672-2.312 17.852-2.2592 16.2672-5.004 32.3728-7.7712 48.56-18.9984 2.9384-38.2632 4.6976-57.32 7.4008-.44-.2008-.7808-.524-1.1576-.824-1.3-5.964 6.7768-53.5392 7.7544-63.9224 19.872-3.1368 39.9432-5.496 59.676-9.4056Z"/>
  <path fill="#3C3C68" d="M864.696 289.816c1.296-.2776 2.232-.3912 3.544-.2048.704.624 1.096.8216 1.256 1.796.136.764-4.424 31.2256-5.032 34.3368-.24 1.2256-.44 2.1872-1.216 3.2008-1.208.5392-1.288.7776-2.592.3304-3.68-5.2072 4.28-24.6968 2.272-29.7992-.08-.2072-.176-.4072-.264-.6104-2.776 6.0528-22.856 28.428-28.064 34.7992q-13.72 17.1216-27.752 33.9896c-4.776 5.832-9.376 12.1552-14.6296 17.556-13.0088 2.5512-25.9368 5.684-38.8904 8.5104q-26.9232 5.6696-53.7656 11.7144c-6.368 7.2384-11.7968 15.2048-17.576 22.9024q-17.104 22.5856-34.5392 44.9152c-4.988 6.412-9.6032 13.3624-14.9168 19.4888-11.3048-5.488-23.2776-12.2632-33.6744-19.3112-5.2568 13.3176-9.7616 27.1304-14.196 40.7464-2.3264 7.144-4.4152 14.4432-7.1848 21.428-6.3256-.1288-12.9984-1.5704-19.264-2.4968l-34.1976-5.0856c-19.8488 9.0464-37.6616 22.5392-57.5472 31.5472-11.944-4.8152-22.96-11.9368-34.736-17.2016-4.3264 8.224-7.6088 17.4128-11.3584 25.944-5.568 12.6712-11.5512 25.1432-17.0624 37.8496-5.1632 1.7448-10.068 4.596-14.94 7.0304q-10.5272 5.2224-21.1144 10.3216c-3.5624 1.7256-7.1624 3.7552-10.9232 4.9736-1.0208-.9056-1.012-1.864-1.3384-3.168.0224-.1656.0232-.336.068-.4976.008-.0296.4056-1.012.4472-1.0664 1.0832-1.4264 39.4304-19.3088 44.232-21.5784 3.5632-6.6064 6.0896-14.172 9.1504-21.0576l20.656-45.8792c12.6296 5.9824 24.9672 12.5624 37.56 18.628l33.1192-18.668c7.5712-4.3264 15.072-8.896 22.9224-12.7008 16.9424 1.7056 34.0144 4.9344 50.8504 7.5808 6.8272-21.5776 14.4928-43.0456 21.9456-64.4192q17.2616 10.756 35.2208 20.3008c13.2848-16.8056 26.6776-33.6896 39.4424-50.8912l16.4048-22.0664c3.0888-4.1352 6.0656-8.5328 9.5488-12.3368 8.4736-2.4528 17.6256-3.8632 26.2552-5.7608 22.1368-4.8664 44.3568-9.3408 66.4024-14.612 16.2128-17.8264 31.3408-36.96 46.6368-55.5744 6.392-7.7776 14.704-16.1952 20.44-24.1864.616-.86.808-1.4184.984-2.444-1.464 1.4728-21.104 9.8056-23.352 10.1568-1.552.244-2.784.2464-4.064-.7128l-.088-1.0264c1.784-2.8648 18.544-9.7872 22.488-11.292 3.416-1.3024 9.32-2.7272 12.024-5.0288.136-.12.272-.2472.408-.3704Z"/>
  <path fill="#A4C6C9" d="m561.9144 559.3368.4976.5536c.028 6.192-1.9736 13.0016-2.8408 19.2152q-5.1656 35.7888-11.3488 71.4152c-6.4312.336-13.0232 1.504-19.4272 2.304l-37.6128 4.6712-.3392-.3744c.3512-7.352 2.5008-15.3504 3.6784-22.6968l5.7112-36.6488c1.5992-9.7808 3.5184-19.5576 4.6144-29.4096 19.0424-2.5832 38.0288-6.2432 57.0672-9.0296Z"/>
  <path fill="#F9827A" d="M625.28 539.324c2.4856-.5264 5.8592-1.8856 8.2688-1.0312.8056 1.3576.4976 2.4808.4152 4.012q-3.9104 30.56-8.8088 60.9776c-1.8536 12.2096-3.44 24.5384-5.7368 36.6704-20.8248 2.9584-42.0312 5.5648-62.6712 9.5944.9232-9.488 3.2288-19.2344 4.7584-28.6816 3.9944-24.672 8.3128-49.344 11.6128-74.1192 17.4416-2.2856 34.808-4.5168 52.1616-7.4224Z"/>
  <path fill="#A4C6C9" d="m793.4696 305.7472.3184.3088c-1.2576 9.928-2.26 19.8976-3.7944 29.788-6.928.728-13.9952 2.8768-20.8584 4.224l-53.4512 10.944-93.5456 19.776c-29.5016 6.3608-58.8808 12.9472-88.544 18.5544-1.6256-2.928 1.3528-24.3816 2.2568-28.8432l257.6184-54.752Z"/>
  <path fill="#F9827A" d="m713.1648 458.2744 1.8472-.0968c2.3 3.7544-19.7936 134.8432-21.8592 148.9176q-1.7656 11.6296-2.6496 23.3584c-19.5256 3.1424-39.3016 5.2776-58.8856 8.1912-1.0744.044-1.6208.2496-2.5624-.3392 1.3432-13.0824 3.9544-26.1896 5.88-39.208l12.7136-87.276c1.9864-14.1016 4.4728-28.3832 5.3816-42.5976 20.0064-1.5096 40.3232-7.5936 60.1344-10.9496Z"/>
  <path fill="#A4C6C9" d="M788.2448 418.748c.8656-.1256 1.2-.052 2.0272.1528.4656 1.392.2848 2.712.1296 4.1448-.7688 7.132-2.1072 14.2808-3.0936 21.3968q-4.2224 30.7496-8.8976 61.4344c-5.564 38.2784-10.56 76.676-17.1344 114.8008-8.6368 1.5736-17.3952 2.488-26.0904 3.684q-17.0464 2.444-34.0608 5.1072c-1.048.1168-1.3104.1776-2.2656-.232q9.7656-58.4504 18.1848-117.1096 4.1472-26.9192 7.9512-53.8888c1.3248-9.6032 2.8872-19.244 3.5856-28.9168 7.8608-.5104 15.6544-2.428 23.376-3.9064q18.1048-3.548 36.288-6.6672Zm73.2272-41.4088c1.696-.2336 3.032-.3576 4.72-.044.272 3.5488-.992 8.2504-1.496 11.8224q-2.864 19.7896-6.032 39.5336-9.24 59.0032-17.104 118.2048c-.936 7.4496-7.656 62.776-9.504 65.7224-18.944 1.4456-37.7064 4.0384-56.5328 6.5176-1.5104.2096-3.3888.7008-4.8752.3104.2232-5.248 1.3648-10.5192 2.0768-15.728l5.6784-39.6464c5.808-38.7968 11.7408-77.6952 16.8312-116.5872 2.5448-19.4424 5.8536-38.7504 6.4296-58.3968 10.496-1.5 20.936-4.036 31.352-6.0448 9.44-1.8192 19.192-3.1472 28.456-5.664Z"/>
</svg>
