<?xml version="1.0" encoding="utf-8" ?>
<svg xmlns="http://www.w3.org/2000/svg" xmlns:xlink="http://www.w3.org/1999/xlink" width="1024" height="819">
	<path fill="#F3F4EF" transform="scale(0.8 0.8)" d="M0 0L1278.91 0C1280.3 2.44878 1279.99 5.15956 1280 7.90141L1280.01 807.041L1280 969.618C1280 976.707 1280.96 1018.64 1279.61 1022.62C1279.43 1023.14 1279.19 1023.51 1278.91 1024L0 1024L0 0Z"/>
	<path fill="#975872" transform="scale(0.8 0.8)" d="M334.28 663.361C335.069 665.106 335.918 666.311 335.69 668.265C334.162 669.319 332.551 669.428 330.748 669.7C331.258 667.049 332.66 665.414 334.28 663.361Z"/>
	<path fill="#F9827A" transform="scale(0.8 0.8)" d="M825.147 898.321C822.322 896.025 820.049 895.665 818.904 891.807C819.365 891.394 819.499 891.038 820.164 891.09C822.653 891.287 824.2 892.695 825.899 894.371L825.147 898.321Z"/>
	<path fill="#AD8F95" transform="scale(0.8 0.8)" d="M893.025 927.378C895.768 925.731 897.916 924.1 901.219 923.975L901.832 924.649C900.506 927.286 898.101 928.456 895.677 930C894.734 929.269 893.874 928.23 893.025 927.378Z"/>
	<path fill="#647196" transform="scale(0.8 0.8)" d="M763.083 205.768C764.648 206.294 766.17 207.332 767.286 208.543C769.374 210.81 769.602 212.984 769.438 215.952C768.878 215.716 768.489 215.577 767.983 215.288C766.056 214.184 764.682 210.904 764.236 208.833C764.064 208.029 763.862 207.389 763.507 206.64L763.083 205.768Z"/>
	<path fill="#647196" transform="scale(0.8 0.8)" d="M1005.17 363.799C1008.78 366.433 1010.48 369.205 1012.34 373.16L1010.19 375.106C1008.48 371.8 1006.85 367.716 1004.13 365.16L1005.17 363.799Z"/>
	<path fill="#AD8F95" transform="scale(0.8 0.8)" d="M890.248 932.242C886.812 931.895 883.486 931.783 880.912 929.178L881.412 928.254C883.747 927.695 885.627 927.673 888.012 927.896C889.584 929.09 889.857 929.333 890.143 931.264C890.191 931.588 890.213 931.916 890.248 932.242Z"/>
	<path fill="#F9827A" transform="scale(0.8 0.8)" d="M992.342 587.657L995.154 587.058C995.411 587.276 995.664 587.499 995.926 587.711C996.88 588.484 997.807 588.833 998.936 589.28C1001.04 590.11 1002.21 590.975 1003.15 593.06C1003.62 594.096 1003.56 593.682 1003.48 594.563C1000.6 594.717 995.137 590.211 992.977 588.243L992.342 587.657Z"/>
	<path fill="#AD8F95" transform="scale(0.8 0.8)" d="M1073.03 823.631C1073.97 823.79 1074.43 824.079 1075.23 824.545L1075.27 825.618C1072.99 828.295 1069.73 829.658 1066.33 830.277L1066.07 828.542C1067.62 826.307 1070.52 825.471 1072.69 823.888L1073.03 823.631Z"/>
	<path fill="#AD8F95" transform="scale(0.8 0.8)" d="M953.895 892.176L954.207 892.485C954.41 893.483 954.747 894.043 954.31 895.007C953.212 897.425 949.385 898.636 947.09 899.616C946.284 898.352 946.27 898.388 946.475 896.908C948.469 894.644 951.244 893.519 953.895 892.176Z"/>
	<path fill="#647196" transform="scale(0.8 0.8)" d="M962.448 184.79C962.718 184.825 962.99 184.849 963.258 184.896C965.383 185.265 968.18 187.695 969.369 189.466C970.54 191.211 970.419 191.832 970.142 193.807C969.341 193.452 968.54 193.063 967.823 192.553C965.125 190.634 962.904 188.149 962.448 184.79Z"/>
	<path fill="#AD8F95" transform="scale(0.8 0.8)" d="M829.92 896.869C832.457 897.941 835.22 899.391 837.871 900.065L837.123 904.683C834.698 902.723 831.395 901.195 828.348 900.564C828.967 899.384 829.419 898.105 829.92 896.869Z"/>
	<path fill="#AD8F95" transform="scale(0.8 0.8)" d="M927.691 907.144C928.303 907.487 928.768 908.313 929.197 908.869L929.023 910.155C926.977 912.152 924.159 913.119 921.579 914.273C920.957 914.323 920.754 914.028 920.243 913.699L920.469 912.217C922.589 909.985 925.04 908.647 927.691 907.144Z"/>
	<path fill="#AD8F95" transform="scale(0.8 0.8)" d="M868.631 919.728C871.035 920.844 874.433 922.573 876.08 924.647C877.137 925.978 876.828 926.459 876.658 928.018C873.533 926.885 869.726 925.081 867.888 922.216L868.631 919.728Z"/>
	<path fill="#F9827A" transform="scale(0.8 0.8)" d="M1022.68 603.561C1024.54 603.912 1027.08 605.183 1028.65 606.238C1029.9 607.072 1030.43 607.692 1030.79 609.123L1029.17 610.615C1028.9 610.598 1028.63 610.628 1028.36 610.565C1026.05 610.004 1023.26 607.496 1022.03 605.484L1022.68 603.561Z"/>
	<path fill="#AD8F95" transform="scale(0.8 0.8)" d="M1128.43 791.126C1129.19 791.228 1129.94 791.47 1130.67 791.663L1131.12 792.68C1129.36 795.51 1125.26 796.854 1122.26 798.012L1121.5 798.073L1121.29 796.469C1122.78 794.042 1125.59 793.318 1127.77 791.642L1128.43 791.126Z"/>
	<path fill="#AD8F95" transform="scale(0.8 0.8)" d="M1032.2 846.086C1033.71 846.109 1034.26 846.175 1035.55 847.073L1035.57 847.916C1033.75 850.488 1030.56 851.668 1027.71 852.73C1027.11 853.07 1027.52 852.911 1026.39 852.828L1026.92 851.195L1026.47 851.088C1027.44 849.858 1028.32 848.984 1029.64 848.124C1030.39 847.632 1031.11 847.2 1031.75 846.557C1031.9 846.403 1032.05 846.243 1032.2 846.086Z"/>
	<path fill="#AD8F95" transform="scale(0.8 0.8)" d="M1058.06 831.751C1059.61 831.48 1060.21 831.243 1061.71 831.777L1061.8 832.738C1059.94 835.44 1057.8 836.808 1054.8 838.032L1053.89 838.268C1052.81 837.503 1053.06 837.439 1052.83 836.215C1053.43 834.906 1053.93 834.538 1055.19 833.807C1056.02 833.32 1056.81 832.898 1057.53 832.246C1057.71 832.083 1057.89 831.916 1058.06 831.751Z"/>
	<path fill="#AD8F95" transform="scale(0.8 0.8)" d="M939.811 900.123C940.599 900.397 941.078 900.933 941.702 901.471L941.67 902.664C939.757 904.881 936.829 906.257 934.334 907.747C933.064 906.633 932.85 906.694 932.662 905.045C934.279 902.799 937.437 901.485 939.811 900.123Z"/>
	<path fill="#F9827A" transform="scale(0.8 0.8)" d="M1155.99 773.622C1157.64 773.544 1158.04 773.32 1159.42 774.299L1159.21 775.352C1156.99 778.081 1154.09 779.766 1150.86 781.05L1149.73 780.967C1149.72 778.018 1153.71 776.29 1155.51 774.193C1155.67 774.004 1155.83 773.812 1155.99 773.622Z"/>
	<path fill="#AD8F95" transform="scale(0.8 0.8)" d="M966.994 883.991C967.092 884.054 967.207 884.095 967.287 884.179C968.347 885.303 968.515 885.579 968.446 887.035C966.468 889.195 963.601 890.204 960.984 891.42C960.156 891.22 959.818 890.773 959.198 890.213L959.541 888.906C961.69 886.764 964.367 885.457 966.994 883.991Z"/>
	<path fill="#AD8F95" transform="scale(0.8 0.8)" d="M854.676 911.823C856.948 912.621 859.475 913.78 861.432 915.173C863.421 916.589 863.943 917.535 864.339 919.805C861.642 919.531 856.799 917.588 855.13 915.451C854.127 914.166 854.521 913.333 854.676 911.823Z"/>
	<path fill="#AD8F95" transform="scale(0.8 0.8)" d="M1102.43 810.832C1101.17 811.67 1099.76 812.765 1098.38 813.369C1096.94 813.998 1096.18 813.848 1094.75 813.346L1094.99 812.118C1096.87 809.936 1100.4 807.404 1103.28 806.854L1103.4 808.279L1103.49 809.608L1102.43 810.832Z"/>
	<path fill="#AD8F95" transform="scale(0.8 0.8)" d="M1045.34 838.619C1046.76 838.6 1047.36 838.836 1048.58 839.558L1048.7 840.586C1046.75 843.357 1043.86 844.556 1040.8 845.693C1040.27 846.116 1040.63 845.934 1039.62 845.9L1039.74 844.014C1040.68 842.605 1041.56 841.673 1042.94 840.675C1043.69 840.138 1044.36 839.705 1045 839.031C1045.12 838.9 1045.23 838.756 1045.34 838.619Z"/>
	<path fill="#AD8F95" transform="scale(0.8 0.8)" d="M1106.82 804.625C1110.59 802.237 1114.3 799.852 1118.36 797.952C1117.78 800.739 1117.11 802.114 1114.6 803.77C1112.73 805.007 1110.12 806.195 1107.94 806.685L1106.82 804.625Z"/>
	<path fill="#AD8F95" transform="scale(0.8 0.8)" d="M1006.96 860.803C1008.08 861.736 1008.56 861.804 1008.75 863.291C1006.96 865.628 1003.76 867 1001.25 868.455C1000.19 868.432 999.727 868.076 998.872 867.497L999.229 866.083C1001.41 863.773 1004.24 862.361 1006.96 860.803Z"/>
	<path fill="#AD8F95" transform="scale(0.8 0.8)" d="M914.332 914.49L915.312 914.899C915.62 915.489 916.166 916.029 915.898 916.706C914.929 919.158 909.669 921.309 907.426 922.542C906.605 921.156 906.498 921.089 906.664 919.504C908.642 917.128 911.635 915.91 914.332 914.49Z"/>
	<path fill="#AD8F95" transform="scale(0.8 0.8)" d="M842.65 903.512C845.403 905.086 848.441 906.436 850.158 909.214L850.27 910.371C848.845 910.864 847.482 910.737 846.098 910.16C844.248 909.39 842.415 908.121 840.699 907.078L842.65 903.512Z"/>
	<path fill="#AD8F95" transform="scale(0.8 0.8)" d="M1143.05 783C1144.57 783.246 1144.73 783.199 1145.79 784.276C1144.52 787.505 1139.28 789.092 1136.23 790.506C1135.61 789.656 1135.57 789.114 1135.37 788.097C1136.92 785.764 1140.33 784.748 1142.66 783.252L1143.05 783Z"/>
	<path fill="#F9827A" transform="scale(0.8 0.8)" d="M1171.12 764.871C1172.55 765.101 1172.57 765 1173.46 766.123L1173.02 767.233C1170.57 769.507 1166.63 772.038 1163.3 772.565C1162.47 771.677 1162.67 771.759 1162.62 770.636C1164.72 768.243 1167.72 767.15 1170.33 765.403L1171.12 764.871Z"/>
	<path fill="#A4C6C9" transform="scale(0.8 0.8)" d="M1087.87 814.879C1089.29 815.105 1089.38 815.09 1090.37 816.106L1090.12 817.201C1087.68 819.896 1084.12 821.329 1080.78 822.588L1079.85 821.767L1079.96 820.499C1082.04 818.071 1085 817.346 1087.34 815.343C1087.52 815.191 1087.7 815.033 1087.87 814.879Z"/>
	<path fill="#AD8F95" transform="scale(0.8 0.8)" d="M1021.08 852.656C1022.02 853.929 1022.03 853.952 1021.99 855.535C1020.21 858.585 1016.4 859.65 1013.28 860.82C1012.63 859.394 1012.53 859.39 1012.94 857.896C1015.14 855.489 1018.23 854.169 1021.08 852.656Z"/>
	<path fill="#F9827A" transform="scale(0.8 0.8)" d="M1007.72 594.847C1011.4 595.446 1016.17 598.71 1018.55 601.434L1018.39 603.128C1018 603.064 1017.52 602.999 1017.13 602.89C1014.07 602.043 1008.74 599.554 1007.11 596.741L1007.72 594.847Z"/>
	<path fill="#AD8F95" transform="scale(0.8 0.8)" d="M979.282 876.338C980.395 877.201 980.722 877.618 981.126 878.971C980.129 881.336 976.149 882.859 973.945 884.052C973.265 884.008 972.427 883.693 971.781 883.521C971.518 882.979 971.199 882.722 971.448 882.107C972.452 879.628 977.029 877.627 979.282 876.338Z"/>
	<path fill="#AD8F95" transform="scale(0.8 0.8)" d="M1197.19 748.618C1198.64 748.39 1199.59 748.42 1201.04 748.662L1201.52 749.549C1200.13 752.435 1196.24 754.153 1193.48 755.499L1192.89 755.591C1191.81 754.75 1191.87 754.695 1191.57 753.336C1192.5 751.28 1194.82 750.541 1196.51 749.174L1197.19 748.618Z"/>
	<path fill="#F9827A" transform="scale(0.8 0.8)" d="M1186.08 755.494C1187.5 755.586 1187.64 755.587 1188.76 756.448L1188.41 757.797C1185.88 760.513 1182.32 762.331 1178.95 763.788C1178.4 763.643 1177.97 763.273 1177.5 762.965L1177.55 761.824C1179.81 759.235 1183.22 757.381 1186.08 755.494Z"/>
	<path fill="#647196" transform="scale(0.8 0.8)" d="M981.798 362.969C981.903 363.073 982.009 363.175 982.112 363.281C984.554 365.785 989.587 372.829 989.556 376.131C987.016 375.033 983.835 372.694 982.314 370.34C980.496 367.528 981.062 365.934 981.798 362.969Z"/>
	<path fill="#AD8F95" transform="scale(0.8 0.8)" d="M993.685 868.238C994.487 868.349 995.031 868.76 995.726 869.156L995.807 870.213C994.637 873.187 989.295 875.324 986.633 876.759L986.072 876.724C985.508 875.391 985.305 875.063 985.481 873.65C987.633 871.222 990.878 869.79 993.685 868.238Z"/>
	<path fill="#647196" transform="scale(0.8 0.8)" d="M943.54 319.719C944.077 319.844 944.362 319.886 944.892 320.132C946.668 320.958 947.324 323.05 947.804 324.808C948.576 327.632 949.072 329.626 947.631 332.168C945.892 330.086 943.316 327.759 942.337 325.229C941.584 323.282 942.733 321.465 943.54 319.719Z"/>
	<path fill="#EFB2AF" transform="scale(0.8 0.8)" d="M614.571 808.329C620.633 811.729 627.531 814.7 633.142 818.73C632.965 818.708 632.787 818.69 632.61 818.662C627.594 817.845 622.876 812.419 617.88 813.42C617.652 814.498 617.433 814.409 618.105 815.419C620.324 818.759 625.325 819.43 627 823.035C623.359 821.132 619.992 818.904 616.582 816.627C615.803 813.904 615.225 811.086 614.571 808.329Z"/>
	<path fill="#3C3C68" transform="scale(0.8 0.8)" d="M1066.63 464.718C1066.94 464.767 1067.26 464.784 1067.57 464.864C1069.13 465.267 1069.17 465.952 1069.8 467.262C1069.75 469.308 1069.01 470.519 1067.79 472.139C1066.36 474.041 1063.67 477.16 1061.16 477.437C1059.54 477.615 1058.01 477.908 1056.42 478.234C1056.08 475.278 1058.65 472.418 1060.27 470.078Q1062.68 470.318 1065.1 470.427C1065.26 470.257 1065.44 470.103 1065.58 469.919C1066.75 468.425 1066.87 466.525 1066.63 464.718Z"/>
	<path fill="#647196" transform="scale(0.8 0.8)" d="M824.827 144.628C826.737 145.478 829.255 146.423 830.738 147.916C833.3 150.495 832.705 154.635 832.706 157.968C832.308 157.987 831.91 158.001 831.512 157.994C829.563 157.96 828.753 157.952 827.394 156.397C824.763 153.388 824.692 148.402 824.827 144.628Z"/>
	<path fill="#3C3C68" transform="scale(0.8 0.8)" d="M1001.64 329.695C1002.66 330.286 1003.06 330.387 1003.32 331.644C1003.97 334.787 1004.08 345.087 1002.72 347.592L1000.61 348.135C999.558 345.162 997.677 341.297 997.364 338.211C997.207 336.665 998.395 334.056 999.494 332.927C1000.5 331.894 1000.9 331.467 1001.46 330.129C1001.52 329.985 1001.58 329.84 1001.64 329.695Z"/>
	<path fill="#647196" transform="scale(0.8 0.8)" d="M699.281 77.4081C705.849 77.6215 715.989 86.6632 720.485 91.4472C721.858 92.9078 722.085 93.4688 722.032 95.4549C718.419 93.5144 715.567 90.6696 712.305 88.2263C709.112 85.8349 705.951 84.0436 702.489 82.1127C700.443 80.9716 699.878 79.588 699.281 77.4081Z"/>
	<path fill="#3C3C68" transform="scale(0.8 0.8)" d="M919.735 172.755C921.683 172.508 923.291 172.319 925.229 172.697C926.475 173.809 926.953 174.839 927.608 176.36C927.449 177.312 927.599 177.735 926.823 178.392C925.443 179.561 922.527 180.111 920.776 179.847C919.939 179.722 919.56 179.639 918.662 179.717C918.431 179.737 918.202 179.778 917.972 179.808C917.107 180.231 916.203 180.71 915.283 180.992C913.741 181.466 912.945 181.532 911.542 180.828L911.561 179.459C913.88 175.801 915.945 174.546 919.735 172.755Z"/>
	<path fill="#3C3C68" transform="scale(0.8 0.8)" d="M910.655 340.471C911.786 341.386 913.06 342.34 913.898 343.543C917.64 348.913 914.264 357.435 913.464 363.351L912.254 363.044C910.758 361.77 910.387 360.448 909.996 358.549C909.11 354.241 908.239 344.19 910.655 340.471Z"/>
	<path fill="#647196" transform="scale(0.8 0.8)" d="M966.013 337.253C966.951 337.722 967.937 338.183 968.811 338.761C970.631 339.964 971.26 340.898 971.762 342.993C973.097 348.571 976.438 348.539 977.522 351.625C978.149 353.41 976.89 355.659 976.101 357.225C975.295 356.968 975.33 357.019 974.673 356.691C969.933 354.329 967.699 349.54 966.13 344.77C965.173 341.861 965.36 340.146 966.013 337.253Z"/>
	<path fill="#647196" transform="scale(0.8 0.8)" d="M1012.34 373.16C1012.45 373.282 1012.56 373.407 1012.68 373.527C1014.72 375.672 1017.19 377.074 1019.54 378.845C1025.66 383.474 1030.27 388.241 1037.95 390.321L1038.63 391.392C1037.51 392.376 1036.62 392.189 1035.13 392.095C1032.65 391.938 1024.43 391.343 1022.95 389.837C1022.93 389.626 1022.92 389.415 1022.91 389.205C1022.78 387.588 1022.8 386.4 1021.55 385.222C1018.01 381.868 1012.44 379.631 1010.19 375.106L1012.34 373.16Z"/>
	<path fill="#647196" transform="scale(0.8 0.8)" d="M1023.75 297.486C1024.8 297.511 1025.83 297.625 1026.87 297.733L1027.53 298.558C1027.48 299.095 1027.5 299.325 1027.27 299.884C1025.73 303.644 1020.15 310.936 1016.08 312.016C1013.71 312.647 1010.08 309.84 1007.9 308.722C1006.9 308.232 1006.38 307.333 1005.7 306.462C1005.41 304.833 1005.22 304.748 1006.07 303.364C1006.32 303.305 1006.57 303.224 1006.82 303.186C1009.57 302.774 1011.95 305.276 1013.94 306.872C1017.24 303.787 1020.63 300.753 1023.75 297.486Z"/>
	<path fill="#647196" transform="scale(0.8 0.8)" d="M1004.13 365.16C1002.34 364.436 1000.74 363.65 998.771 363.699C997.012 364.778 995.483 365.57 993.484 366.106C991.92 365.808 991.023 365.447 989.931 364.246C986.926 360.937 984.82 357.02 984.938 352.599C982.533 350.706 980.927 348.843 980.471 345.746L981.243 345.045C987.034 346.555 994.007 355.784 998.868 359.736C1000.84 361.339 1003.09 362.341 1005.17 363.799L1004.13 365.16Z"/>
	<path fill="#647196" transform="scale(0.8 0.8)" d="M669.364 697.352C669.154 706.967 669.425 716.919 668.389 726.474C667.876 724.905 668.272 723.293 668.221 721.674C668.172 720.122 667.736 719.107 666.502 718.122C662.489 714.921 653.895 716.352 649.317 717.231C656.181 710.784 663.129 704.426 669.364 697.352Z"/>
	<path fill="#647196" transform="scale(0.8 0.8)" d="M729.385 89.4117C733.783 90.6687 736.939 94.4344 740.744 96.8683C743.865 98.8642 747.298 100.466 750.564 102.214C752.651 103.331 754.96 104.474 756.734 106.061C758.937 108.031 774.724 125.598 775.842 127.346C777.009 129.171 776.883 131.646 777.537 133.677C778.162 135.614 778.364 136.742 778.065 138.779C777.236 138.587 776.475 138.316 775.674 138.035C772.916 137.068 767.086 126.594 765.231 123.919C761.648 118.753 752.665 111.257 750.598 106.713C747.693 100.326 732.777 98.386 729.385 89.4117Z"/>
	<path fill="#647196" transform="scale(0.8 0.8)" d="M902.488 271.06C907.631 272.795 913.367 276.955 917.19 280.826C919.443 283.107 921.514 286.095 921.351 289.45C921.196 292.637 918.618 294.429 916.378 296.285C913.194 296.647 914.049 297.866 911.619 299.446C909.307 298.766 907.204 296.159 905.476 294.506C902.735 286.484 900.857 279.549 902.488 271.06Z"/>
	<path fill="#F9827A" transform="scale(0.8 0.8)" d="M719.857 564.603C720.472 566.634 720.053 567.14 720.009 569.032C720.001 569.366 720.082 569.728 720.283 569.994C720.564 572.334 720.226 574.798 720.788 577.06C717.302 579.195 697.838 591.402 695.159 592.355C693.98 592.774 693.148 592.416 691.987 592.154L692.515 587.344C692.389 585.075 692.359 583.046 692.782 580.796C701.733 575.289 710.89 570.099 719.857 564.603Z"/>
	<path fill="#975872" transform="scale(0.8 0.8)" d="M719.857 564.603C720.472 566.634 720.053 567.14 720.009 569.032C720.001 569.366 720.082 569.728 720.283 569.994C710.688 574.424 701.397 581.513 692.515 587.344C692.389 585.075 692.359 583.046 692.782 580.796C701.733 575.289 710.89 570.099 719.857 564.603Z"/>
	<path fill="#3C3C68" transform="scale(0.8 0.8)" d="M676.041 469.059C676.14 468.515 676.291 467.988 676.46 467.461C679.221 458.827 691.918 451.718 699.577 447.768C714.56 440.042 726.618 439.038 742.408 444.134L742.028 444.375C738.989 446.275 732.834 448.212 731.214 451.581L729.36 452.13C714.672 449.506 700.422 448.936 687.647 457.987C683.002 461.278 678.668 466.253 676.92 471.745L675.973 472.918L675.409 471.281L676.041 469.059Z"/>
	<path fill="#647196" transform="scale(0.8 0.8)" d="M742.901 68.8465C743.083 68.9167 743.258 69.0125 743.449 69.0571C744.752 69.3622 746.024 69.342 747.325 69.7956C751.388 71.2128 771.926 80.404 773.845 82.847C774.658 83.8812 774.534 84.108 774.346 85.3218C773.15 86.3985 772.5 86.5629 770.978 86.8623C765.443 85.0562 759.644 87.6365 754.193 89.1323C754.226 90.8964 754.584 93.0462 754.329 94.7547C754.07 96.4897 752.672 97.0761 751.367 97.9599C748.797 94.3348 744.311 93.3339 741.884 89.8875C742.123 88.6917 742.29 87.5968 742.35 86.3728L741.077 85.2775L740.206 85.5338C740.03 87.2476 740.082 88.8397 740.194 90.557C739.701 89.6822 739.224 88.8031 738.439 88.1553C736.212 86.3151 734.776 84.0062 733.152 81.6406C736.907 82.5801 740.074 83.7061 743.995 83.9167L745.379 82.377C743.49 79.7182 741.003 76.9749 740.162 73.7947C740.301 71.5228 741.457 70.4734 742.901 68.8465Z"/>
	<path fill="#A4C6C9" transform="scale(0.8 0.8)" d="M511.182 149.083C514.155 150.834 516.617 153.158 519.064 155.571C528.491 164.865 537.181 179.821 539.328 192.933C540.044 197.309 539.929 201.874 539.963 206.301C537.676 204.018 534.765 202.432 532.14 200.565C525.836 196.08 520.258 191.197 515.949 184.704C508.933 174.134 508.788 161.171 511.182 149.083Z"/>
	<path fill="#F9827A" transform="scale(0.8 0.8)" d="M732.581 453.632C738.746 449.747 745.132 445.857 752.52 444.998C758.656 444.284 764.349 445.728 769.186 449.607C770.691 451.111 773.089 452.908 773.356 455.092C772.648 455.765 772.31 456.006 771.342 456.177C765.728 453.09 760.302 452.307 754.124 454.142C741.182 457.985 731.013 469.847 724.844 481.343C721.182 488.167 718.881 495.445 716.615 502.811C713.909 502.687 704.272 504.205 703.804 503.962C703.51 503.809 703.341 503.486 703.11 503.248C708.141 483.653 715.914 466.125 732.581 453.632Z"/>
	<path fill="#3C3C68" transform="scale(0.8 0.8)" d="M1101.67 335.213C1111.46 330.861 1116.39 329.999 1126.71 334.027C1143.82 340.699 1158.75 357.423 1165.95 374.154C1171.85 387.857 1178.18 406.906 1172.31 421.51C1170 427.258 1165.89 432.777 1162.58 438.003Q1153.04 453.106 1143.24 468.044C1139.63 473.513 1135.42 478.963 1132.22 484.664C1130.02 485.635 1128.17 486.468 1125.73 486.589L1124.32 485.842C1124.99 485.481 1125.67 485.132 1126.23 484.597C1127.55 483.333 1161.24 429.816 1163.26 425.494C1165.2 421.357 1166.24 417.24 1166.57 412.683C1168 392.829 1157.82 370.884 1144.97 356.246C1137.12 347.296 1126.36 337.985 1114.23 335.962C1109.94 335.245 1105.96 335.488 1101.67 335.213Z"/>
	<path fill="#F9827A" transform="scale(0.8 0.8)" d="M706.751 508.319C710.54 508.063 714.12 507.843 717.799 509.057C723.143 510.821 727.399 514.684 729.952 519.662Q730.207 520.152 730.436 520.654Q730.665 521.156 730.869 521.669Q731.072 522.182 731.249 522.705Q731.426 523.228 731.575 523.76Q731.725 524.291 731.847 524.829Q731.97 525.368 732.064 525.911Q732.159 526.455 732.226 527.003Q732.292 527.551 732.331 528.102Q732.37 528.653 732.38 529.205Q732.391 529.756 732.373 530.308Q732.355 530.86 732.309 531.41Q732.262 531.96 732.188 532.507Q732.114 533.054 732.012 533.597Q731.91 534.139 731.78 534.676Q731.65 535.212 731.493 535.741Q731.336 536.271 731.152 536.791C728.829 543.226 724.576 545.965 718.706 548.605C713.498 549.787 708.771 549.348 704.049 546.767Q703.577 546.508 703.118 546.226Q702.659 545.944 702.215 545.639Q701.771 545.334 701.343 545.007Q700.915 544.68 700.504 544.332Q700.093 543.984 699.7 543.616Q699.307 543.247 698.933 542.86Q698.559 542.472 698.205 542.066Q697.851 541.66 697.517 541.237Q697.184 540.813 696.873 540.374Q696.561 539.934 696.272 539.48Q695.983 539.025 695.718 538.557Q695.452 538.088 695.21 537.607Q694.969 537.125 694.751 536.632Q694.534 536.139 694.342 535.636Q694.15 535.133 693.983 534.62Q693.817 534.108 693.676 533.588C692.113 527.896 692.378 520.984 695.483 515.851C698.215 511.335 701.844 509.516 706.751 508.319Z"/>
	<path fill="#F3F4EF" transform="scale(0.8 0.8)" d="M708.672 518.334C710.294 518.358 711.82 518.511 713.397 518.923C716.527 519.741 719.548 521.86 721.075 524.761C722.082 526.674 722.333 528.862 721.658 530.928C720.516 534.421 717.73 535.83 714.657 537.289C712.826 537.518 710.767 537.893 708.963 537.364C706.285 536.578 704.029 534.593 702.775 532.122Q702.534 531.654 702.344 531.164Q702.154 530.673 702.017 530.164Q701.88 529.656 701.799 529.136Q701.718 528.616 701.693 528.09Q701.667 527.564 701.698 527.039Q701.729 526.514 701.816 525.994Q701.903 525.475 702.046 524.969Q702.188 524.462 702.383 523.973C703.62 520.897 705.743 519.592 708.672 518.334Z"/>
	<path fill="#A4C6C9" transform="scale(0.8 0.8)" d="M1046.75 599.185C1049.85 599.892 1053.38 605.389 1055.03 607.989C1063.03 620.603 1067.05 633.554 1063.69 648.404C1062.06 655.625 1055.31 671.082 1048.98 675.129C1048.97 675.298 1048.98 675.47 1048.95 675.636C1048.46 678.077 1044.08 683.482 1042.13 684.787C1044.59 679.976 1041.2 664.289 1040.81 658.056C1040.05 645.866 1040.17 632.152 1042.19 620.071C1043.26 613.652 1047.21 605.521 1046.75 599.185Z"/>
	<path fill="#647196" transform="scale(0.8 0.8)" d="M1006.89 387.177C1008.99 387.792 1011.07 388.489 1013.16 389.148C1016.81 393.861 1018.65 399.685 1022.34 404.457C1024.67 404.608 1026.82 404.511 1028.81 405.865C1031.2 412.349 1039.12 427.941 1039.8 433.431C1040.53 436.776 1037.09 447.847 1035.48 451.13C1034.79 452.52 1034.34 453.395 1032.89 453.901C1031.16 451.047 1029.2 446.534 1026.67 444.438C1026.41 444.223 1026.13 444.027 1025.86 443.822C1025.86 443.762 1025.86 443.701 1025.85 443.643C1025.39 441.232 1022.77 438.535 1021.27 436.59C1007.19 418.356 998.439 427.175 989.39 420.009C983.736 410.062 990.035 405.489 989.628 400.058C989.602 399.724 989.547 399.392 989.534 399.057C989.464 397.241 989.541 396.616 990.759 395.314C993.369 395.014 994.978 396.719 997.41 396.811C1001.14 394.891 1004.54 391.559 1006.52 387.879L1006.89 387.177Z"/>
	<path fill="#647196" transform="scale(0.8 0.8)" d="M771.379 91.4716C784.597 95.312 813.615 103.97 824.676 110.599C827.707 112.415 829.9 114.62 832.218 117.262C832.559 124.559 828.791 123.906 826.793 129.731C825.592 133.23 826.871 137.26 825.885 140.807C825.483 142.255 825.106 142.253 823.849 142.893C819.73 142.204 815.761 141.832 811.586 141.718C810.504 142.933 809.396 144.054 808.19 145.147C801.211 145.991 801.668 149.081 800.684 149.21C799.481 149.367 798.129 148.892 797.152 148.211C792.783 145.163 790.683 138.57 789.563 133.646L791.787 128.289C789.347 121.435 787.009 111.408 781.992 106.12C779.863 103.878 776.963 102.255 774.645 100.203C771.834 97.7138 771.621 94.9661 771.379 91.4716Z"/>
	<path fill="#A4C6C9" transform="scale(0.8 0.8)" d="M194.873 444.508C198.03 446.574 198.906 448.8 199.687 452.389C203.728 470.953 200.18 492.009 189.738 507.93C185.649 514.164 180.01 520.43 174.072 524.94C168.132 514.728 166.2 501.339 166.156 489.653C166.194 488.786 166.247 487.957 166.353 487.095C168.515 469.637 181.644 454.905 194.873 444.508Z"/>
	<path fill="#A4C6C9" transform="scale(0.8 0.8)" d="M489.762 196.782C491.536 197.189 493.296 197.648 494.96 198.4C506.215 203.489 513.405 216.131 517.46 227.184C522.708 241.489 522.037 254.287 520.918 269.045C520.589 273.392 520.738 278.583 518.902 282.58C518.787 282.511 518.671 282.444 518.558 282.372C518.37 282.253 518.187 282.127 517.999 282.008C507.124 275.111 495.148 253.796 491.246 241.983C487.033 229.227 483.464 209.365 489.762 196.782Z"/>
	<path fill="#3C3C68" transform="scale(0.8 0.8)" d="M202.839 207.65Q203.292 206.555 203.807 205.488C206.896 199.096 224.347 171.487 230.398 169.744C233.511 168.847 239.853 173.452 242.573 175.034C229.87 183.71 221.417 199.282 215.38 213.189C220.463 215.961 226.001 217.91 230.634 221.413L231.1 221.759C224.505 238.991 219.641 251.799 217.218 270.339C209.034 275.106 200.383 281.229 191.811 285.069C191.688 296.753 191.238 308.642 192.554 320.268C191.9 320.907 191.224 321.649 190.333 321.931C187.322 322.886 182.612 319.346 180.004 317.817Q179.857 298.2 180.137 278.586C187.529 274.231 199.705 268.329 205.602 262.48C208.138 246.355 213.472 231.486 219.319 216.343C213.742 213.617 208.057 211.03 202.839 207.65Z"/>
	<path fill="#975872" transform="scale(0.8 0.8)" d="M160.642 641.798L300.865 722.931L352.144 752.582C362.813 758.815 373.511 765.998 384.751 771.132C395.69 766.367 406.072 758.74 416.331 752.55C429.756 744.448 443.974 737.105 456.651 727.851C456.507 725.931 455.068 726.034 455.849 724.153C457.24 723.661 458.426 723.535 459.878 723.449L460.51 724.114L460.081 725.896C461.229 725.836 461.703 725.923 462.401 724.843C462.639 724.475 462.932 723.661 463.097 723.234C473.13 718.047 558.712 666.529 558.882 666.504C559.481 666.414 560.072 666.728 560.668 666.841C561.832 667.837 562.934 668.817 563.97 669.949C557.494 673.285 551.399 677.363 545.141 681.087L507.374 703.929C497.327 710.115 486.961 715.791 476.876 721.924C455.38 734.994 434.177 748.344 412.296 760.758C403.109 765.97 394.608 772.316 384.985 776.772C369.685 770.622 355.739 760.192 341.35 752.129C319.242 739.741 297.588 726.686 275.662 713.973C254.609 701.766 233.289 689.933 212.34 677.569Q195.576 667.646 178.595 658.099C171.895 654.304 164.737 649.537 157.41 647.109C158.716 644.883 158.218 643.087 160.642 641.798Z"/>
	<path fill="#3C3C68" transform="scale(0.8 0.8)" d="M405.123 565.744C405.509 565.044 405.87 564.675 406.485 564.152C411.452 559.921 453.885 534.03 457.746 534.352C457.428 537.722 456.797 541.372 457.407 544.712C464.032 549.987 486.246 544.477 487.911 555.472C488.521 559.498 486.362 563.49 483.938 566.555C476.304 576.211 462.887 580.698 451.059 581.914C439.178 583.135 420.361 583.115 410.718 575.161C407.484 572.493 406.331 569.591 405.123 565.744Z"/>
	<path fill="#3C3C68" transform="scale(0.8 0.8)" d="M677.134 472.65C683.322 464.357 690.35 458.098 700.361 454.931C707.3 452.736 719.414 451.521 726.05 454.997C715.221 466.069 707.13 477.674 702.821 492.734C702.162 495.038 700.982 498.249 701.116 500.642C701.126 500.817 701.167 500.988 701.193 501.162C699.695 508.687 695.474 507.727 691.826 514.401C688.77 522.006 688.271 530.469 691.488 538.177Q692.341 540.184 693.412 542.083L692.574 542.541C693.36 543.654 694.363 544.624 694.506 545.992C691.275 549.349 688.068 553.669 682.975 553.741C677.681 553.817 670.824 548.933 665.475 547.677C664.235 547.248 663.637 546.821 662.705 545.9C663.579 541.268 665.585 536.99 665.96 532.253L666.15 529.523C666.1 527.57 666.4 525.674 666.662 523.746C671.039 517.518 678.483 511.197 681.988 504.809C682.638 503.624 682.691 502.152 682.741 500.83C681.312 495.237 677.457 490.513 675.798 484.957C674.387 480.232 674.877 476.873 677.134 472.65Z"/>
	<path fill="#F3F4EF" transform="scale(0.8 0.8)" d="M684.646 479.815C686.334 491.547 685.248 496.886 695.342 505.183C693.007 508.378 691.863 510.445 691.232 514.421C689.541 514.391 688.4 514.095 687.032 513.07C683.46 510.397 684.429 502.245 683.991 498.088C682.864 491.678 683.633 486.154 684.646 479.815Z"/>
	<path fill="#F3F4EF" transform="scale(0.8 0.8)" d="M668.666 535.047C669.848 534.844 670.555 534.404 671.535 535.283C673.878 537.386 672.797 540.264 676.859 540.702C680.986 539.432 688.361 541.42 692.574 542.541C693.36 543.654 694.363 544.624 694.506 545.992C691.275 549.349 688.068 553.669 682.975 553.741C677.681 553.817 670.824 548.933 665.475 547.677Q666.971 541.337 668.666 535.047Z"/>
	<path fill="#A4C6C9" transform="scale(0.8 0.8)" d="M1112.88 709.854C1113.68 709.759 1114.3 709.642 1115.09 709.88C1115.72 710.068 1115.56 710.028 1115.88 710.726C1119.09 717.645 1116.94 736.338 1114.27 743.456C1111.56 750.702 1106.99 758.798 1101.68 764.403C1093.42 773.112 1082.21 778.727 1072.22 785.117C1059.52 793.244 1046.91 802.32 1033.19 808.681C1032.3 809.254 1032.23 809.252 1031.17 809.21C1031.75 802.699 1035.6 797.221 1038.84 791.681Q1041.52 787.139 1044.37 782.699Q1047.22 778.259 1050.23 773.927Q1053.24 769.595 1056.41 765.378Q1059.58 761.161 1062.9 757.063Q1066.22 752.966 1069.69 748.995Q1073.17 745.023 1076.78 741.183Q1080.4 737.342 1084.15 733.638Q1087.91 729.935 1091.8 726.372C1097.93 720.764 1106.94 716.316 1112.39 710.4C1112.56 710.22 1112.72 710.036 1112.88 709.854Z"/>
	<path fill="#A4C6C9" transform="scale(0.8 0.8)" d="M513.294 324.943C513.355 324.753 513.406 324.558 513.477 324.371C514.528 321.582 516.453 318.799 517.939 316.209C534.973 286.524 579.51 249.093 610.454 234.623Q610.516 235.766 610.548 236.91C611.176 260.178 599.535 280.095 583.961 296.487C581.076 298.618 578.53 300.963 575.953 303.454C573.897 304.885 571.473 306.27 569.698 308.031C567.879 309.365 566.078 310.738 564.214 312.009C561.033 314.548 558.262 317.185 555.527 320.2C555.042 316.54 553.664 313.68 550.619 311.453C547.882 309.452 544.054 309.415 540.854 310.062C531.317 311.989 522.029 320.631 513.294 324.943Z"/>
	<path fill="#647196" transform="scale(0.8 0.8)" d="M764.809 227.034L773.289 228.341C790.93 242.111 789.243 249.12 800.867 264.221C804.383 268.789 809.767 272.358 813.737 276.592C815.022 277.963 815.508 278.618 815.424 280.488C813.496 282.699 812.687 285.318 811.624 288.006C807.964 297.261 804.47 300.156 796.573 306.034C792.482 317.764 785.871 318.292 776.951 325.195C775.376 329.249 774.01 333.175 773.025 337.414C774.399 340.689 775.456 344.11 776.59 347.475C774.257 346.619 772.241 345.207 770.156 343.878C769.254 334.755 766.192 329.699 766.75 319.288C767.376 307.607 773.841 294.637 772.025 283.033C770.096 270.709 759.391 262.745 756.153 250.847C755.265 247.58 755.145 243.887 754.858 240.517C766.668 234.735 759.67 233.599 764.809 227.034Z"/>
	<path fill="#A4C6C9" transform="scale(0.8 0.8)" d="M95.4088 554.784C90.6968 548.52 75.4615 530.315 75.4073 522.218C75.3995 521.067 75.5427 521.223 76.2625 520.473C87.3556 520.197 107.576 528.704 118.432 532.182C139.72 540.392 160.587 554.871 177.121 570.524C182.476 575.595 195.972 591.509 200.433 594.617C202.192 595.842 204.422 596.682 206.39 597.528C171.008 594.644 120.936 584.652 96.7249 556.391Q96.0495 555.602 95.4088 554.784Z"/>
	<path fill="#647196" transform="scale(0.8 0.8)" d="M854.221 228.968C863.565 232.97 866.184 246.548 873.6 253.003C881.149 259.575 890.246 257.779 897.325 266.478C898.16 276.092 898.824 286.3 902.767 295.227C904.701 299.605 910.138 301.623 910.496 306.937C910.883 312.676 902.988 318.283 901.59 324.081C900.405 328.996 901.62 335.546 901.757 340.634C900.125 343.168 898.349 345.782 897.091 348.527C895.339 352.351 894.088 357.35 891.248 360.551C889.365 362.673 886.704 362.446 884.115 362.484C882.21 362.2 880.425 361.761 878.782 360.706C870.919 355.655 866.447 332.384 864.491 323.261L869.165 316.166C866.796 313.834 864.873 311.692 863.188 308.818C862.961 303.789 864.822 296.217 861.813 291.948C859.157 288.181 854.218 287.472 850.042 286.583C844.322 280.637 836.539 274.779 832.815 267.376C829.852 261.488 829.07 255.026 831.181 248.705C831.829 246.767 835.678 235.283 837.011 234.409C838.356 233.527 843.841 233.128 845.715 232.664C848.71 231.921 851.486 230.36 854.221 228.968Z"/>
	<path fill="#647196" transform="scale(0.8 0.8)" d="M795.746 873.113C801.559 875.648 806.881 878.976 812.594 881.653L812.656 890.685Q792.951 900.712 773.853 911.853L774.654 912.446C782.7 918.343 791.793 923.211 800.412 928.247C803.652 930.139 807.543 931.961 810.474 934.267C811.565 935.126 811.922 935.238 812.147 936.608C812.526 938.905 812.451 941.946 811.251 943.973C807.376 947.39 802.234 949.014 797.958 951.873C790.13 947.545 782.661 942.639 774.884 938.227C767.012 933.76 758.634 929.716 751.048 924.823C734.442 933.058 718.749 943.009 702.199 951.364C697.659 948.617 693.173 945.671 688.215 943.733L688.209 933.358C700.722 927.159 715.179 920.14 726.203 911.589C715.312 905.042 704.286 897.699 692.901 892.096L692.687 881.665C692.854 881.595 693.022 881.527 693.188 881.456C697.926 879.416 702.536 875.227 707.835 875.066C709.41 875.947 709.255 875.941 709.769 877.694C714.998 878.875 736.858 892.643 742.634 896.457C742.623 890.741 742.556 885.019 742.61 879.304C748.492 879.967 752.371 877.596 757.279 874.802C757.71 881.751 757.458 888.697 757.611 895.65C769.973 887.463 783.395 881.175 795.746 873.113Z"/>
	<path fill="#A4C6C9" transform="scale(0.8 0.8)" d="M695.585 881.958C698.251 880.332 701.072 878.321 704.022 877.264C706.635 876.328 707.415 876.526 709.769 877.694C713.558 883.369 733.97 891.613 740.598 897.13C742.106 898.385 742.229 899.215 742.328 901.119C741.341 903.26 739.281 904.192 737.35 905.394C735.448 904.111 733.392 903.019 731.404 901.874C719.276 895.844 707.601 888.337 695.585 881.958Z"/>
	<path fill="#A4C6C9" transform="scale(0.8 0.8)" d="M794.153 876.618C799.047 876.166 802.165 878.714 806.153 881.18C793.33 888.491 780.048 895.039 767.165 902.27C765.743 903.111 763.936 904.345 762.234 904.358C760.769 904.369 758.517 903.793 757.468 902.732C756.839 902.096 756.475 901.505 756.678 900.585C758.176 893.811 787.433 880.05 794.153 876.618Z"/>
	<path fill="#A4C6C9" transform="scale(0.8 0.8)" d="M757.978 905.864C774.199 915.875 791.186 924.739 807.687 934.292L807.796 935.23L805.81 936.453C803.427 937.725 800.826 938.715 798.349 939.8C784.935 931.502 771.166 923.871 757.608 915.826C757.534 912.453 757.453 909.21 757.978 905.864Z"/>
	<path fill="#A4C6C9" transform="scale(0.8 0.8)" d="M741.968 905.22L742.509 905.714C743.574 908.312 743.393 911.416 743.515 914.196C732.295 924.283 715.496 932.243 702.345 939.755C700.632 938.917 698.975 937.752 697.337 936.763L692.421 933.665C708.383 923.649 725.283 913.949 741.968 905.22Z"/>
	<path fill="#647196" transform="scale(0.8 0.8)" d="M660.745 61.0597C669.334 64.8991 681.91 75.6106 690.512 81.2092C701.942 88.6483 715.745 93.5256 727.889 99.8201C731.599 101.743 736.832 105.947 740.361 107.082C741.644 107.495 742.017 106.994 743.109 106.369C745.751 108.015 748.434 111.566 750.157 114.173C751.616 116.382 751.469 118.482 750.835 121.001C750.458 122.502 750.131 123.239 748.829 123.997C747.049 123.207 745.648 119.442 744.163 117.827C742.652 117.253 741.821 116.848 740.183 117.473C738.518 118.109 737.245 119.004 736.417 120.576C735.81 125.382 739.81 130.5 742.399 134.264C745.777 139.175 751.444 146.967 757.668 148.125C758.891 147.703 759.388 147.637 760.163 146.532C761.825 144.164 760.461 140.351 759.926 137.74C761.166 136.092 762.754 134.412 762.806 132.27C762.829 131.333 762.771 130.973 763.414 130.206C767.091 132.853 786.738 161.327 788.283 165.481C788.83 166.951 788.986 167.741 788.335 169.159C783.304 168.464 779.089 162.819 773.839 164.274L773.287 165.328C775.573 171.407 787.085 173.049 790.61 178.981L790.2 179.718C784.092 180.912 776.574 172.905 770.1 173.063C769.8 173.071 769.501 173.099 769.202 173.117C763.744 173.271 765.167 180.326 760.395 182.372C755.101 184.641 746.622 180.469 741.58 178.477C738.767 179.978 735.765 181.104 732.817 182.307C732.829 184.893 733.037 187.513 733.158 190.098C733.206 190.164 733.255 190.228 733.302 190.295C740.21 200.101 752.68 205.665 756.432 217.993C757.158 220.378 757.568 222.663 756.341 224.885C754.791 224.638 754.129 223.714 753.393 222.347C750.839 217.601 748.962 213.086 745.176 209.108C740.17 203.85 732.728 201.362 728.568 195.181C725.241 190.237 724.861 184.032 722.725 178.588C720.06 171.8 714.879 165.999 710.561 160.226C702.982 150.092 703.556 138.332 705.25 126.481C699.991 117.506 690.794 99.497 682.729 93.5982C680.648 92.0758 677.962 91.406 675.521 90.6734C671.457 92.7148 667.548 94.5031 663.208 95.895C661.658 94.626 658.785 92.9954 658.151 91.1433C657.205 88.38 658.317 85.158 658.085 82.2668C657.771 78.3639 656.224 74.5363 656.066 70.6133C656.009 69.1868 656.318 67.9619 656.948 66.6915C657.051 66.4833 657.164 66.2797 657.268 66.0722C658.262 64.1042 659.195 62.6398 660.745 61.0597Z"/>
	<path fill="#3C3C68" transform="scale(0.8 0.8)" d="M720.312 504.098C724.884 487.869 732.592 469.493 747.774 460.522C755.229 456.116 761.33 455.811 769.595 457.953C777.406 462.322 783.042 469.9 785.489 478.512C789.038 491 787.012 515.354 780.655 526.756C779.814 528.264 778.748 529.647 777.693 531.009L772.896 535.387Q766.309 538.2 759.615 540.75C760.372 544.333 761.089 547.895 762.233 551.378L764.584 557.525C766.629 562.152 768.555 566.758 770.269 571.522C758.582 577.151 749.974 582.066 736.656 582.903C733.011 583.132 729.463 583.365 725.944 582.179C724.338 581.638 722.932 580.911 721.556 579.933L720.788 577.06C720.226 574.798 720.564 572.334 720.283 569.994C720.082 569.728 720.001 569.366 720.009 569.032C720.053 567.14 720.472 566.634 719.857 564.603C719.147 561.855 718.207 559.24 717.231 556.579C708.609 555.508 703.062 552.997 696.173 547.818L695.442 547.363L696.201 546.113L698.91 547.972C704.807 552.107 711.956 555.011 719.263 553.627C724.94 552.551 730.013 548.893 733.156 544.098Q733.494 543.573 733.805 543.031Q734.116 542.489 734.399 541.933Q734.683 541.376 734.938 540.806Q735.194 540.236 735.421 539.654Q735.647 539.072 735.845 538.479Q736.042 537.887 736.21 537.285Q736.377 536.683 736.515 536.074Q736.652 535.465 736.759 534.849Q736.866 534.234 736.942 533.614Q737.018 532.994 737.063 532.371Q737.108 531.748 737.122 531.123Q737.136 530.499 737.118 529.874Q737.101 529.25 737.052 528.627Q737.004 528.004 736.925 527.385Q736.845 526.765 736.735 526.15Q736.625 525.536 736.484 524.927C734.301 515.389 728.404 509.094 720.312 504.098Z"/>
	<path fill="#F3F4EF" transform="scale(0.8 0.8)" d="M756.638 541.51C757.761 542.72 765.242 565.115 766.865 569.354C757.048 579.093 744.082 581 730.759 581.094C729.225 580.712 727.016 580.381 725.656 579.598C721.36 577.127 722.435 568.835 721.801 564.612C721.353 561.627 720.434 558.862 719.408 556.034C724.921 554.125 729.699 550.474 735.029 548.063C741.756 545.02 749.505 543.434 756.638 541.51Z"/>
	<path fill="#647196" transform="scale(0.8 0.8)" d="M693.412 542.083L696.201 546.113L695.442 547.363L696.173 547.818C703.062 552.997 708.609 555.508 717.231 556.579C718.207 559.24 719.147 561.855 719.857 564.603C710.89 570.099 701.733 575.289 692.782 580.796C692.359 583.046 692.389 585.075 692.515 587.344L691.987 592.154L692.362 594.39C690.265 597.246 677.072 606.723 672.831 610.83C664.994 618.421 656.164 632.412 647.84 638.038L646.291 638.068C641.658 638.468 624.349 654.44 613.165 655.679C609.484 654.821 604.383 649.816 601.26 647.464C599.796 646.715 598.421 645.8 597.028 644.929L596.51 643.634C591.241 639.577 581.47 634.087 577.642 629.435L578.11 628.319C577.164 627.53 577.006 627.41 576.618 626.253C579.45 622.673 585.315 619.947 589.2 617.561C599.679 611.124 610.237 604.54 620.974 598.543C630.056 593.469 646.812 586.814 653.826 579.719C654.736 578.798 655.633 577.651 655.565 576.309C655.292 570.933 641.774 566.357 638.072 563.063C637.003 562.111 637.261 561.765 637.194 560.323C642.418 562.91 647.242 566.279 652.494 568.809C654.298 569.678 655.214 569.945 657.048 569.27C659.827 564.771 660.383 552.602 662.468 546.569L662.705 545.9C663.637 546.821 664.235 547.248 665.475 547.677C670.824 548.933 677.681 553.817 682.975 553.741C688.068 553.669 691.275 549.349 694.506 545.992C694.363 544.624 693.36 543.654 692.574 542.541L693.412 542.083Z"/>
	<path fill="#F3F4EF" transform="scale(0.8 0.8)" d="M692.782 580.796C693.007 575.895 694.112 550.262 696.173 547.818C703.062 552.997 708.609 555.508 717.231 556.579C718.207 559.24 719.147 561.855 719.857 564.603C710.89 570.099 701.733 575.289 692.782 580.796Z"/>
	<path fill="#F3F4EF" transform="scale(0.8 0.8)" d="M578.11 628.319C584.618 625.769 591.272 621.077 597.362 617.585C616.059 606.863 634.679 594.759 654.194 585.693C653.37 590.976 650.778 610.235 647.713 613.095C647.997 615.014 648.645 618.197 647.794 620.019C647.397 625.916 646.266 632.217 646.291 638.068C641.658 638.468 624.349 654.44 613.165 655.679C609.484 654.821 604.383 649.816 601.26 647.464C599.796 646.715 598.421 645.8 597.028 644.929L596.51 643.634C591.241 639.577 581.47 634.087 577.642 629.435L578.11 628.319Z"/>
	<path fill="#975872" transform="scale(0.8 0.8)" d="M596.51 643.634C613.742 633.816 630.283 622.434 647.713 613.095C647.997 615.014 648.645 618.197 647.794 620.019L647.056 619.263C632.902 628.069 614.168 637.734 601.26 647.464C599.796 646.715 598.421 645.8 597.028 644.929L596.51 643.634Z"/>
	<path fill="#F9827A" transform="scale(0.8 0.8)" d="M601.26 647.464C614.168 637.734 632.902 628.069 647.056 619.263L647.794 620.019C647.397 625.916 646.266 632.217 646.291 638.068C641.658 638.468 624.349 654.44 613.165 655.679C609.484 654.821 604.383 649.816 601.26 647.464Z"/>
	<path fill="#A4C6C9" transform="scale(0.8 0.8)" d="M545.261 211.564C548.646 186.356 549.685 150.759 571.782 133.958L572.404 133.494L573.106 132.958C573.247 132.851 573.39 132.748 573.532 132.644C577.881 151.069 577.632 167.407 567.424 184.036C562.792 191.583 556.418 199.426 548.655 203.89C548.085 206.967 547.662 210.175 546.893 213.202C544.115 225.939 541.328 239.201 537.226 251.574C535.778 255.94 530.838 265.333 531.048 269.379L532.088 269.321C544.188 244.038 560.388 212.789 580.085 192.742C583.961 188.797 588.539 185.447 592.963 182.143C595.643 180.142 599.877 176.343 603.011 175.534C603.651 175.369 603.758 175.418 604.329 175.47C605.772 176.95 605.706 178.785 605.667 180.74C605.209 203.842 592.018 223.464 575.549 238.597C570.19 243.522 564.502 248.333 558.509 252.467C550.588 257.932 540.179 262.567 533.989 269.944C532.324 271.283 530.714 272.709 528.82 273.716C522.554 289.198 515.092 304.324 509.799 320.154C509.081 322.352 507.345 325.881 508.254 328.04C507.038 328.911 505.901 329.832 504.471 330.321C502.767 328.676 499.498 328.718 497.18 328.145C483.682 324.809 463.568 304.316 456.88 292.986C448.914 279.49 445.995 264.929 446.088 249.408C446.107 246.263 445.871 242.896 446.656 239.836C447.119 239.595 447.271 239.48 447.744 239.349C452.818 237.948 461.419 242.387 465.591 245.014C493.325 262.482 499.766 291.482 506.536 321.137C507.503 319.234 508.267 317.16 509.113 315.196C513.26 301.452 519.798 288.836 524.923 275.463C532.974 254.457 539.416 233.266 545.261 211.564Z"/>
	<path fill="#F9827A" transform="scale(0.8 0.8)" d="M1101.67 335.213C1105.96 335.488 1109.94 335.245 1114.23 335.962C1126.36 337.985 1137.12 347.296 1144.97 356.246C1157.82 370.884 1168 392.829 1166.57 412.683C1166.24 417.24 1165.2 421.357 1163.26 425.494C1161.24 429.816 1127.55 483.333 1126.23 484.597C1125.67 485.132 1124.99 485.481 1124.32 485.842C1124.43 480.846 1120.04 473.764 1118.21 469.067L1096.72 414.134C1093.05 404.607 1088.83 395.177 1086.09 385.326C1084.47 379.525 1083.32 373.755 1083.39 367.711C1083.51 357.906 1085.38 347.037 1093.61 340.791C1095.93 339.026 1099.23 337.753 1101.21 335.7C1101.37 335.541 1101.52 335.375 1101.67 335.213Z"/>
	<path fill="#3C3C68" transform="scale(0.8 0.8)" d="M1109.8 360.105C1111.19 357.856 1112.69 356.458 1115.31 355.793C1119.74 354.675 1124.36 357.053 1127.99 359.392C1139.78 366.997 1147.55 377.624 1150.42 391.425C1151.18 395.066 1151.21 398.977 1149 402.157C1148.37 403.078 1147.66 403.428 1146.67 403.905C1147.06 402.867 1147.08 401.878 1147 400.781C1146.07 388.23 1138.57 375.333 1129.18 367.207C1123.18 362.021 1117.78 359.529 1109.8 360.105Z"/>
	<defs>
		<linearGradient id="gradient_0" gradientUnits="userSpaceOnUse" x1="1129.9014" y1="385.86057" x2="1107.495" y2="393.62128">
			<stop offset="0" stop-color="#7C445F"/>
			<stop offset="1" stop-color="#5A587D"/>
		</linearGradient>
	</defs>
	<path fill="url(#gradient_0)" transform="scale(0.8 0.8)" d="M1142.67 411.337C1143.02 412.184 1142.7 412.535 1142.44 413.386C1141.08 415.045 1138.98 415.838 1136.86 415.996C1129.57 416.54 1123.26 413.292 1117.97 408.568C1108.66 400.257 1102.43 387.236 1101.8 374.778C1101.6 370.838 1101.78 365.949 1104.81 363.03C1105.99 361.894 1106.81 361.275 1108.41 361.381C1108.09 366.105 1107.29 370.533 1107.53 375.316C1107.98 384.147 1113.9 393.716 1119.58 400.187C1123.95 405.161 1130.62 411.826 1137.68 412.119C1139.3 412.186 1141.19 412.02 1142.67 411.337Z"/>
	<path fill="#F3F4EF" transform="scale(0.8 0.8)" d="M1109.8 360.105C1117.78 359.529 1123.18 362.021 1129.18 367.207C1138.57 375.333 1146.07 388.23 1147 400.781C1147.08 401.878 1147.06 402.867 1146.67 403.905C1147.02 405.759 1147.27 406.708 1146.06 408.379C1145.26 409.496 1143.88 410.67 1142.67 411.337C1141.19 412.02 1139.3 412.186 1137.68 412.119C1130.62 411.826 1123.95 405.161 1119.58 400.187C1113.9 393.716 1107.98 384.147 1107.53 375.316C1107.29 370.533 1108.09 366.105 1108.41 361.381L1109.8 360.105Z"/>
	<path fill="#647196" transform="scale(0.8 0.8)" d="M681.308 608.623C692.091 613.4 700.676 618.72 705.108 630.12C707.509 636.297 708.865 643.545 708.814 650.176C703.621 658.663 695.89 665.434 688.918 672.455Q675.503 686.13 661.696 699.407C656.096 704.845 650.728 711.203 644.383 715.767C642.787 716.915 641.017 717.598 639.108 718.043C632.046 719.69 621.605 719.836 615.294 715.89C608.399 711.578 603.707 703.982 597.852 700.006C592.924 693.495 586.095 686.615 580.018 681.151C571.463 671.193 560.204 662.388 550.524 653.469C556.216 648.391 560.888 642.3 566.695 637.255C568.98 635.099 571.191 633.011 573.794 631.234C579.059 635.026 590.687 644.528 597.028 644.929C598.421 645.8 599.796 646.715 601.26 647.464C604.383 649.816 609.484 654.821 613.165 655.679C618.356 659.97 623.388 664.2 629.381 667.354C639.555 654.727 669.838 615.686 681.308 608.623Z"/>
	<path fill="#A4C6C9" transform="scale(0.8 0.8)" d="M145.878 480.348C143.529 475.751 142.128 470.773 138.742 466.794C134.469 461.774 128.175 458.718 122.985 454.749C104.588 440.683 100.06 422.327 106.972 400.503C107.794 397.908 108.481 395.841 110.986 394.481C112.901 394.539 113.431 394.843 114.791 396.21C124.545 406.02 133.252 429.147 135.934 442.631C137.632 451.164 137.703 458.975 142.071 466.759C146.856 444.14 151.078 424.06 167.655 406.79C170.325 404.008 173.556 400.463 176.812 398.419C177.819 397.787 178.586 397.602 179.759 397.555L180.853 398.186C183.336 408.673 180.991 420.465 175.428 429.586C169.733 438.92 160.972 445.907 150.256 448.412Q149.191 448.66 148.115 448.854C144.867 461.269 142.714 468.333 147.712 480.568C150.546 486.897 153.275 493.303 156.263 499.56C159.156 506.688 162.702 513.731 166.535 520.403C168.801 524.346 171.811 528.308 173.472 532.522C177.482 539.769 181.484 547.055 185.964 554.026C190.586 561.217 195.745 568.058 200.34 575.265C196.373 548.634 198.056 522.818 214.82 500.419C222.084 490.714 233.978 480.792 245.735 477.103L246.746 477.3C251.526 484.719 250.774 506.476 248.93 515.249C246.164 528.402 238.407 542.849 229.403 552.881C219.611 563.791 212.302 568.639 206.99 583.176C210.189 588.6 214.942 592.809 218.186 598.217L215.44 599.817C210.54 592.996 204.892 586.767 199.937 579.995Q184.414 558.647 171.577 535.583C170.625 534.674 169.496 534.246 168.312 533.721C156.074 530.636 143.583 526.775 131.807 522.239C109.762 514.38 91.5073 499.043 81.4057 477.746C78.6254 471.885 72.2628 459.001 74.3736 453.004C75.3254 452.219 75.5401 451.771 76.8547 452.006C79.8349 452.538 92.7051 460.118 95.7741 462.024C116.286 474.764 132.507 487.965 147.928 506.618C154.284 514.305 159.713 522.848 166.814 529.873C167.182 528.41 166.692 527.7 166.116 526.341C163.636 520.49 160.395 514.918 157.705 509.152C153.35 499.815 149.436 490.016 145.878 480.348Z"/>
	<path fill="#A4C6C9" transform="scale(0.8 0.8)" d="M981.099 612.729C1005.62 630.295 1026.69 640.248 1037.45 671.206C1039.58 677.329 1041.6 683.633 1042.66 690.036C1043.9 697.516 1046.31 722.349 1042.99 728.532C1043.05 728.853 1043.12 729.172 1043.17 729.494C1044.14 735.279 1040.59 752.563 1037.03 757.61C1038 756.859 1038.96 756.114 1039.72 755.142C1042.38 751.715 1048.01 731.937 1047.28 727.886C1051.29 722.508 1053.36 712.881 1055.77 706.466C1058.9 698.143 1062.34 689.781 1066.71 682.025C1072.25 672.212 1079.89 663.458 1087.73 655.418C1090.3 652.78 1093.94 650.023 1096.1 647.16C1100.6 652.689 1100.54 670.399 1099.84 677.314C1096.9 706.297 1075.91 718.922 1056.28 736.505C1051.6 740.691 1046.8 744.71 1043.82 750.351C1036.88 763.528 1033.9 784.975 1030.94 799.925C1030.15 803.901 1029.84 811.108 1027.73 814.297C1026.8 813.551 1026.8 813.438 1026.74 812.258C1026.47 806.871 1029.99 800.764 1028 795.456C1025.29 787.946 1002.67 778.668 995.569 774.242Q991.34 771.584 987.416 768.493Q983.493 765.402 979.919 761.912C965.442 747.993 954.639 728.946 946.489 710.681C972.906 713.521 997.038 723.727 1014.06 744.726C1021.31 753.68 1031.49 769.164 1030.49 781.287C1030.37 782.792 1029.86 784.055 1029.22 785.402C1034.69 779.041 1036.07 763.789 1035.56 755.531C1035.54 755.192 1035.51 754.854 1035.48 754.515C1031.14 739.941 1009.14 725.095 999.396 711.937C990.004 699.259 984.466 683.634 980.013 668.647C998.832 673.863 1016.09 678.604 1026.28 696.806Q1028.36 700.526 1029.91 704.491Q1031.47 708.457 1032.48 712.597C1033.94 718.529 1037.29 746.686 1035.68 751.996C1035.64 752.129 1035.59 752.26 1035.54 752.392C1042.12 744.88 1042.12 709.391 1041.4 698.517C1040.91 690.958 1038.49 675.036 1032.44 669.95C1028.44 666.585 1022.11 665.297 1017.4 662.92C995.085 651.667 985.873 636.598 981.099 612.729Z"/>
	<path fill="#F9827A" transform="scale(0.8 0.8)" d="M157.41 647.109C164.737 649.537 171.895 654.304 178.595 658.099Q195.576 667.646 212.34 677.569C233.289 689.933 254.609 701.766 275.662 713.973C297.588 726.686 319.242 739.741 341.35 752.129C355.739 760.192 369.685 770.622 384.985 776.772C394.608 772.316 403.109 765.97 412.296 760.758C434.177 748.344 455.38 734.994 476.876 721.924C486.961 715.791 497.327 710.115 507.374 703.929L545.141 681.087C551.399 677.363 557.494 673.285 563.97 669.949C567.976 673.858 573.824 681.678 578.698 683.85C563.876 691.67 549.675 700.872 535.255 709.415L433.865 770.413C418.208 779.848 400.325 792.011 384.183 799.874C376.251 797.109 368.44 791.296 361.274 786.934C336.821 773.978 313.442 759.341 289.607 745.317C272.411 735.199 254.914 725.588 237.715 715.437C228.883 710.224 220.075 704.907 211.094 699.956C199.771 693.714 188.176 687.787 177.511 680.434C171.626 675.842 159.402 672.746 156.861 665.447C155.545 661.67 155.61 650.533 157.41 647.109Z"/>
	<path fill="#647196" transform="scale(0.8 0.8)" d="M762.233 551.378C776.207 552.214 787.408 554.438 797.099 565.429C813.805 584.378 824.52 616.765 831.641 640.741C819.343 645.095 807.804 652.887 796.573 659.507C784.185 666.81 771.74 673.986 759.434 681.429C751.125 686.455 741.551 691.033 734.112 697.263C728.238 702.183 723.338 709.299 720.051 716.176C712.798 731.351 714.327 748.975 714.324 765.321C703.645 761.408 690.119 756.276 682.148 748.059C669.152 734.661 672.447 712.074 672.571 694.944C682.48 683.676 707.924 663.683 712.225 650.851C714.481 644.124 711.514 632.241 708.496 625.919C703.874 616.239 693.008 609.486 683.249 606.078C706.916 585.248 726.524 598.07 753.232 593.024C763.404 591.102 777.429 585.986 783.336 576.894C785.366 573.77 786.278 569.991 785.261 566.344C784.288 562.856 781.674 559.967 778.459 558.373C774.778 556.549 768.461 556.21 764.584 557.525L762.233 551.378Z"/>
	<path fill="#647196" transform="scale(0.8 0.8)" d="M872.826 171.14C874.032 171.17 875.058 171.198 876.144 171.799C878.381 173.037 886.933 182.453 890.55 185.292C892.857 193.568 895.37 196.045 902.642 200.609L906.685 196.919C907.469 193.236 908.876 189.7 910.155 186.166C913.631 192.097 915.749 196.79 920.751 201.712C924.398 202.095 929.61 200.463 932.757 202.042C934.262 202.797 934.796 203.828 935.283 205.388C935.643 206.542 935.957 207.407 936.566 208.449C936.863 208.546 937.148 208.784 937.457 208.74C937.649 208.712 937.687 208.426 937.803 208.27C939.795 205.598 941.157 204.22 944.173 202.83L944.886 202.505C946.294 200.424 944.938 198.532 945.671 196.383C945.86 195.829 945.871 195.836 946.45 195.697C948.816 195.128 951.403 196.806 953.436 197.855C960.318 196.008 965.843 195.256 972.648 197.914C975.556 199.05 980.93 201.743 981.776 204.925C982.192 206.495 981.69 207.01 980.977 208.364C978.977 210.056 976.463 209.768 973.965 209.843Q975.77 211.718 977.694 213.469C982.609 217.864 989.686 219.421 995.165 223.065C999.684 226.07 1002.87 230.927 1007.57 233.728C1009.64 234.96 1011.78 235.203 1014.14 235.364C1015.09 235.429 1016.05 235.414 1016.96 235.723C1020 236.751 1032.73 244.057 1035.06 246.17C1039.31 250.017 1041.92 255.156 1047.45 257.549C1053.04 259.963 1063.41 261.608 1066.29 267.83C1067.16 269.716 1066.68 273.098 1065.82 274.91C1065.09 276.478 1064.33 276.999 1062.81 277.68C1061.04 277.342 1060.01 276.937 1058.64 275.752C1057.29 274.579 1056.38 273.781 1054.48 273.792C1051.96 273.808 1049.56 275.622 1047.84 277.282C1046.56 278.515 1045.26 279.57 1043.83 280.621C1044.65 282.346 1044.64 284.431 1044.49 286.296C1043.6 287.552 1043.1 288.164 1041.52 288.453C1039.96 288.736 1038.82 287.924 1037.64 287.064C1036.92 285.691 1036.57 285.152 1036.68 283.611C1037.07 278.246 1043.2 276.062 1046.64 272.868C1046.87 271.9 1047.13 271.703 1046.65 270.76C1045.36 268.185 1041.33 267.294 1038.8 266.42C1029.73 273.374 1024.5 262.88 1017.44 266.022C1016.23 266.558 1015.15 267.138 1014.74 268.395C1015.47 269.419 1016.15 270.304 1017.17 271.054C1018.12 271.75 1019.42 272.401 1019.99 273.478C1021.79 276.898 1020.76 284.309 1019.44 287.854C1016.54 295.58 1004.65 291.142 999.16 293.513C998.247 296.607 1001.49 299.052 1001.14 302.5C1001.11 302.773 1001.07 303.044 1001.04 303.316C1000.9 304.639 1000.85 306.071 1000.49 307.358C999.785 309.899 997.829 310.361 995.865 311.656C994.48 312.57 993.475 313.826 993.116 315.454C992.89 316.483 992.662 317.033 992.029 317.915C988.053 320.463 983.264 320.616 978.681 321.114L978.349 321.9L979.361 323.02C980.92 325.226 982.554 328.514 982.687 331.25C982.758 332.711 982.299 333.296 981.394 334.361C979.584 334.704 978.808 334.715 977.15 333.803C971.094 330.469 969.68 321.692 967.665 315.718C964.141 305.271 962.316 310.771 956.28 307.616C954.882 306.885 954.061 306.552 952.498 306.349C947.531 308.441 950.272 311.629 947.366 314.322C946.787 314.2 945.996 314.08 945.456 313.795C942.095 312.02 937.804 296.263 933.492 290.523C925.945 280.477 905.287 271.536 895.784 260.195C894.22 258.328 894.171 257.25 894.392 254.976C896.688 251.417 898.898 252.615 902.23 251.27C903.36 250.814 903.397 249.965 903.699 248.934C902.108 240.375 889.559 234.925 883.44 229.56C885.015 232.907 889.808 238.914 888.868 242.458C888.518 243.78 888.091 243.839 886.982 244.491C882.564 244.147 873.442 234.341 870.841 230.678C869.061 228.173 868.148 222.006 865.246 220.758C859.674 218.36 849.363 227.053 843.757 228.55C841.895 229.047 840.884 228.917 839.262 227.926C837.823 224.833 839.393 221.748 840.407 218.727C841.97 217.928 843.888 217.106 845.195 215.926C847.983 213.411 847.426 208.546 847.49 205.148C843.9 200.031 837.371 192.613 837.195 186.233C837.822 184.909 837.84 184.923 839.163 184.285C843.287 184.615 848.389 193.913 849.972 197.616C850.732 199.395 851.027 201.503 851.98 203.171C852.869 204.728 854.526 206.121 855.806 207.367C858.909 205.36 861.275 202.167 864.429 200.519L865.612 200.984C866.981 203.451 866.946 206.429 867.2 209.196C871.697 209.286 876.874 210.234 880.485 207.064C882.314 203.659 881.488 200.635 880.744 197.059C876.114 192.5 878.841 191.379 877.613 186.21C876.463 184.818 876.431 184.799 874.67 184.4C869.956 187.449 873.16 196.181 869.699 200.04C867.485 199.865 866.069 198.506 864.686 196.893C863.09 195.031 861.357 193.385 859.576 191.703C858.841 186.538 858.566 181.282 857.952 176.093C860.45 176.232 863.541 176.699 865.968 176.067C866.149 176.02 866.326 175.958 866.505 175.906C869.079 175.159 870.949 172.962 872.826 171.14Z"/>
	<path fill="#3C3C68" transform="scale(0.8 0.8)" d="M600.588 709.3C600.787 709.418 600.988 709.531 601.184 709.652C604.676 711.796 606.846 715.024 610.064 717.365C617.863 723.038 630.338 724.266 639.529 722.152C643.274 721.29 646.165 719.319 649.317 717.231C653.895 716.352 662.489 714.921 666.502 718.122C667.736 719.107 668.172 720.122 668.221 721.674C668.272 723.293 667.876 724.905 668.389 726.474L669.154 729.723L670.362 728.792C670.166 739.186 671.442 743.897 678.949 751.576C688.174 761.013 701.924 765.639 714.031 770.177C714.044 781.512 715.45 800.903 713.749 811.169C713.736 812.477 713.757 813.779 713.571 815.077L713.95 815.395C714.075 818.631 714.117 821.961 713.925 825.193C713.834 826.728 713.799 827.814 712.657 828.865C705.86 828.933 658.123 800.46 646.865 795.315C637.825 791.183 627.506 785.452 617.535 789.177C615.772 790.135 614.708 791.086 614.044 793.043C612.482 797.652 613.904 803.593 614.571 808.329C615.225 811.086 615.803 813.904 616.582 816.627C619.992 818.904 623.359 821.132 627 823.035C635.833 829.283 646.038 834.696 655.915 839.076L658.079 839.83C660.794 843.145 661.151 857.836 660.667 862.44C660.601 863.061 660.397 863.541 660.163 864.112C658.478 865.188 657.47 865.505 656.63 867.353C645.912 871.638 638.508 871.875 627.272 869.877C625.295 869.321 624.11 868.643 622.105 869.375C621.284 870.577 620.509 871.401 620.799 872.979C621.098 874.603 621.878 875.757 623.231 876.634C624.533 877.052 625.828 877.402 627.163 877.7C635.233 879.504 646.293 881.056 653.584 876.109C656.06 874.428 656.679 873.129 657.21 870.225L657.812 869.568C658.396 872.34 658.21 874.633 656.573 877.033C654.254 880.434 648.519 881.926 644.632 882.5C636.948 883.636 629.812 881.699 622.586 879.289C624.804 885.027 623.758 893.885 622.787 899.951C622.607 899.946 622.428 899.933 622.249 899.936C621.523 899.948 621.095 900.109 620.44 900.383L620.085 902.106C615.401 904.095 610.118 906.839 604.971 907.175C595.41 907.801 555.784 896.057 549.048 888.581C547.988 887.405 548.894 884.684 549.128 883.196Q550.385 881.109 551.816 879.137Q553.248 877.165 554.844 875.323Q556.439 873.482 558.187 871.785Q559.935 870.087 561.822 868.546C552.999 867.599 545.427 865.208 537.661 870.839C536.029 872.807 535.484 874.677 535.642 877.252C536.023 883.421 542.579 889.065 547.046 892.717C558.749 902.282 575.797 908.183 590.064 912.824C598.104 914.335 608.992 916.213 616.271 911.376C619.621 909.15 620.964 906.789 621.772 902.909C622.725 904.316 623.027 907.088 622.771 908.788C622.46 910.851 620.113 912.891 618.461 913.937C610.641 918.886 600.81 919.019 592.116 916.717C588.473 915.752 584.025 914.631 580.663 912.948C567.626 909.446 547.181 899.429 538.148 889.538C535.182 886.291 531.096 881.539 531.487 876.859C531.769 873.48 533.836 870.826 536.348 868.74C536.522 868.585 536.692 868.427 536.869 868.276C545.826 860.66 561.845 865.335 572.462 866.407C568.238 852.16 563.997 837.806 560.461 823.375L558.447 816.146C553.176 801.542 545.307 773.002 544.805 757.718C544.427 746.219 547.853 736.827 555.79 728.442C566.857 716.752 582.856 710.178 598.893 709.977C599.858 709.965 599.835 709.828 600.588 709.3Z"/>
	<path fill="#F3F4EF" transform="scale(0.8 0.8)" d="M584.403 754.055C584.705 768.053 589.748 782.157 592.994 795.723C596.064 808.553 598.568 821.34 600.867 834.318C601.435 837.528 603.098 842.57 602.316 845.691L601.425 845.643C599.602 842.779 597.602 828.474 596.65 824.298Q592.317 805.601 587.751 786.96C585.509 778.163 581.995 769.268 581.422 760.153C581.079 754.699 581.982 749.044 585.867 744.911C589.724 740.809 595.615 738.937 601.124 738.874C618.972 738.669 634.295 749.711 646.505 761.575C653.452 768.231 660.38 775.791 668.018 781.615C675.958 787.671 685.755 793.085 693.098 799.748C699.798 804.025 706.441 807.985 713.749 811.169C713.736 812.477 713.757 813.779 713.571 815.077C705.752 812.259 697.339 806.634 690.72 801.647C687.242 799.603 683.883 796.822 680.581 794.46C675.25 790.647 669.713 786.982 664.682 782.776C657.558 776.82 650.998 769.953 644.248 763.566C638.182 758.191 632.183 753.139 624.981 749.301C616.805 744.943 604.736 739.866 595.356 742.992C589.628 744.901 587.021 749.027 584.403 754.055Z"/>
	<path fill="#F9827A" transform="scale(0.8 0.8)" d="M628.282 867.207C626.278 866.948 624.32 866.925 622.716 865.571C620.906 862.628 618.376 836.071 618.2 830.961C619.411 831.63 619.518 833.074 619.957 834.358C622.85 837.347 627.212 839.677 631.064 841.192C640.308 844.827 647.145 842.828 655.915 839.076L658.079 839.83C657.791 847.581 658.069 855.49 658.752 863.215C648.595 869.335 639.651 869.635 628.282 867.207Z"/>
	<path fill="#F9827A" transform="scale(0.8 0.8)" d="M568.934 869.401C569.702 869.341 571.133 869.023 571.838 869.173C574.346 869.705 578.373 873.728 580.464 875.323C592.916 884.817 607.592 886.636 621.762 879.702L621.618 895.452C618.252 900.33 614.28 902.752 608.438 903.828C593.198 906.634 564.748 895.236 551.533 887.416C551.024 886.207 551.28 886.027 551.692 884.759C554.97 879.57 558.528 875.139 563.706 871.756Q566.343 870.629 568.934 869.401Z"/>
	<path fill="#3C3C68" transform="scale(0.8 0.8)" d="M369.981 652.492L369.119 651.099L366.089 653.083L365.212 652.661L364.883 650.561C366.04 649.151 367.951 650.078 369.803 649.835C370.136 649.34 370.486 648.874 370.832 648.389C374.015 643.937 396.575 632.425 402.535 628.903L513.601 564.137C535.501 551.583 557.783 539.644 579.308 526.455C587.823 534.004 605.159 542.26 615.469 547.855C622.799 551.833 629.969 556.155 637.194 560.323C637.261 561.765 637.003 562.111 638.072 563.063C641.774 566.357 655.292 570.933 655.565 576.309C655.633 577.651 654.736 578.798 653.826 579.719C646.812 586.814 630.056 593.469 620.974 598.543C610.237 604.54 599.679 611.124 589.2 617.561C585.315 619.947 579.45 622.673 576.618 626.253C577.006 627.41 577.164 627.53 578.11 628.319L577.642 629.435C581.47 634.087 591.241 639.577 596.51 643.634L597.028 644.929C590.687 644.528 579.059 635.026 573.794 631.234C571.191 633.011 568.98 635.099 566.695 637.255C560.888 642.3 556.216 648.391 550.524 653.469L545.34 649.276C537.427 652.643 530.035 657.41 522.662 661.814Q505.975 671.777 489.396 681.92C477.234 689.27 463.007 696.021 452.165 705.157L398.464 676.155C390.16 671.719 380.891 667.806 373.012 662.712C371.717 661.874 370.885 661.331 370.411 659.794C369.752 657.657 369.958 654.74 369.981 652.492Z"/>
	<path fill="#F3F4EF" transform="scale(0.8 0.8)" d="M516.977 631.267C519.638 630.787 520.738 630.663 523.123 632.258C525.481 633.834 527.484 636.632 529.327 638.784L527.21 641.138C523.327 638.732 516.773 636.643 514.114 632.895L514.525 631.935L516.977 631.267Z"/>
	<path fill="#F3F4EF" transform="scale(0.8 0.8)" d="M494.773 623.345C498.026 621.669 501.883 617.981 505.579 618.144C506.863 619.611 506.729 620.562 506.987 622.464C509.138 625.389 512.475 626.691 515.723 628.044L509.431 631.633C504.284 629.303 499.531 626.364 494.773 623.345Z"/>
	<path fill="#F3F4EF" transform="scale(0.8 0.8)" d="M464.761 607.571L464.31 607.046C464.988 604.906 468.947 603.057 470.924 601.947C472.914 600.829 475.744 598.94 477.941 599.569C480.628 602.498 485.231 604.324 488.731 606.206L475.976 613.859C472.319 611.595 468.728 609.266 464.761 607.571Z"/>
	<path fill="#F3F4EF" transform="scale(0.8 0.8)" d="M566.25 604.15C569.488 605.923 572.717 607.58 576.092 609.079L581.89 612.313C577.271 615.074 572.693 617.993 567.795 620.236C565.068 615.695 561.479 612.399 556.892 609.84C559.693 607.56 563.097 605.907 566.25 604.15Z"/>
	<path fill="#F3F4EF" transform="scale(0.8 0.8)" d="M535.782 600.181C540.39 597.903 544.845 595.357 549.321 592.831L556.513 597.28L565.47 603.25C561.692 605.218 557.937 607.285 554.094 609.123C553.185 608.231 552.118 606.93 551.055 606.269C546.484 601.246 542.101 600.968 535.782 600.181Z"/>
	<path fill="#F3F4EF" transform="scale(0.8 0.8)" d="M489.073 607.582C492.779 607.667 500.236 613.385 503.726 615.545L492.188 622.946Q485.014 618.571 477.634 614.553L489.073 607.582Z"/>
	<path fill="#F3F4EF" transform="scale(0.8 0.8)" d="M478.42 598.738C482.135 594.584 490.628 590.892 495.671 588.583C498.255 590.475 500.613 592.141 503.597 593.365L505.926 594.944L505.828 596.009L504.174 597.154C499.524 599.799 494.691 602.304 490.206 605.215C486.315 602.967 482.429 600.774 478.42 598.738Z"/>
	<path fill="#F3F4EF" transform="scale(0.8 0.8)" d="M504.577 598.348C505.317 597.883 506.106 597.341 506.919 597.018C508.932 596.22 510.354 597.139 512.242 597.84C514.214 599.239 516.258 600.589 518.115 602.138C514.43 604.696 510.643 606.917 508.788 611.195L506.257 614.937L490.954 606.167Q497.819 602.35 504.577 598.348Z"/>
	<path fill="#F3F4EF" transform="scale(0.8 0.8)" d="M445.925 618.53L445.176 617.965C446.184 615.935 451.475 613.357 453.593 612.082C456.714 610.205 460.766 606.939 464.423 607.845C467.455 610.7 471.276 612.87 474.892 614.91C468.72 617.716 463.262 621.73 457.203 624.66C453.499 622.458 449.814 620.387 445.925 618.53Z"/>
	<path fill="#F3F4EF" transform="scale(0.8 0.8)" d="M410.043 654.632L417.494 650.244C422.207 653.511 426.863 656.57 431.912 659.309C427.434 661.962 421.642 664.584 417.945 668.223Q409.846 663.982 402.025 659.248Q406.074 657.009 410.043 654.632Z"/>
	<path fill="#F3F4EF" transform="scale(0.8 0.8)" d="M419.309 668.008Q426.489 664.177 433.486 660.021C438.8 663.171 444.115 666.171 449.641 668.934C445.464 671.55 440.834 674.024 437.074 677.205L436.105 677.499C430.109 675.461 423.82 672.563 419.309 668.008Z"/>
	<path fill="#F3F4EF" transform="scale(0.8 0.8)" d="M404.502 641.591L404.487 640.796C407.585 637.871 419 630.513 423.056 630.386C426.59 633.25 430.507 635.56 434.475 637.769Q425.902 643.3 417.088 648.439Q410.772 645.057 404.502 641.591Z"/>
	<path fill="#F3F4EF" transform="scale(0.8 0.8)" d="M423.466 629.907C425.208 626.706 437.57 620.602 441.136 619.475C443.354 618.773 444.091 619.441 446.035 620.43C449.071 622.161 452.295 623.789 455.184 625.746C448.647 629.581 442.148 633.536 435.423 637.033C431.493 634.522 427.582 632.111 423.466 629.907Z"/>
	<path fill="#F3F4EF" transform="scale(0.8 0.8)" d="M475.745 615.309C480.822 617.765 485.759 620.937 490.668 623.739L474.056 634.087C469.603 633.259 462.849 627.705 458.653 625.406C464.265 621.919 470.052 618.665 475.745 615.309Z"/>
	<path fill="#F3F4EF" transform="scale(0.8 0.8)" d="M435.721 638.72C440.955 640.423 446.827 644.745 451.681 647.523C445.843 650.234 440.225 653.927 434.657 657.18L433.884 657.611C430.183 657.609 422.102 651.607 418.538 649.495C424.202 645.808 430.074 642.45 435.721 638.72Z"/>
	<path fill="#F3F4EF" transform="scale(0.8 0.8)" d="M497.342 587.537C501.339 584.238 513.417 575.836 518.183 575.136C519.593 574.928 520.459 575.914 521.554 576.669C524.692 578.369 527.818 580.202 531.075 581.658C526.377 584.425 512.281 594.141 507.651 594.286Q505.824 593.168 504.026 592.003C501.724 590.599 499.535 589.103 497.342 587.537Z"/>
	<path fill="#F3F4EF" transform="scale(0.8 0.8)" d="M512.285 597.136L510.21 595.703L510.183 595.347L511.07 595.055L510.546 595.288C515.049 591.248 526.709 585.473 532.468 582.37Q540.019 586.908 547.407 591.706C543.731 593.793 535.526 599.491 531.318 598.319C530.853 598.189 530.63 598.044 530.175 597.816L523.997 595.347C523.788 595.407 523.575 595.456 523.37 595.529C522.3 595.909 522.659 595.778 521.727 596.485C519.947 597.835 517.229 598.335 515.036 598.079C514.011 597.96 513.203 597.58 512.285 597.136Z"/>
	<path fill="#F3F4EF" transform="scale(0.8 0.8)" d="M570.559 560.022C576.037 562.494 581.003 566.63 586.484 569.357C580.547 572.261 574.805 575.758 569.047 579.01C564.759 578.572 556.835 572.509 552.82 570.167L570.559 560.022Z"/>
	<path fill="#F3F4EF" transform="scale(0.8 0.8)" d="M470.439 658.343C475.466 661.374 480.493 664.182 485.763 666.771C480.508 670.824 474.443 674.35 468.567 677.417C463.005 674.846 457.666 671.815 452.291 668.881C458.202 665.138 464.345 661.776 470.439 658.343Z"/>
	<path fill="#F3F4EF" transform="scale(0.8 0.8)" d="M492.099 624.393C495.115 624.064 505.051 631.453 508.322 633.119Q499.606 638.348 490.992 643.742C488.989 643.632 477.722 636.248 475.181 634.848C480.998 631.934 486.525 627.799 492.099 624.393Z"/>
	<path fill="#F3F4EF" transform="scale(0.8 0.8)" d="M452.767 648.222C457.604 649.711 463.733 654.691 468.168 657.471L450.856 667.85L434.64 658.929L452.767 648.222Z"/>
	<path fill="#F3F4EF" transform="scale(0.8 0.8)" d="M551.419 570.804C556.891 573.611 562.092 577.008 567.337 580.216C561.063 583.231 555.069 586.909 549.142 590.546C546.706 590.338 536.29 583.05 533.254 581.373C539.392 578.006 545.389 574.36 551.419 570.804Z"/>
	<path fill="#F3F4EF" transform="scale(0.8 0.8)" d="M490.857 645.692L505.582 654.914C500.517 657.601 492.45 665 486.977 665.164C481.688 663.369 476.847 660.371 472.057 657.551Q481.392 651.519 490.857 645.692Z"/>
	<path fill="#F3F4EF" transform="scale(0.8 0.8)" d="M492.495 644.991C498.333 641.026 504.518 637.616 510.643 634.12C515.743 637.253 521.014 639.757 526.445 642.245C520.385 646.793 513.914 650.478 507.291 654.119C502.665 650.704 497.437 647.929 492.495 644.991Z"/>
	<path fill="#F3F4EF" transform="scale(0.8 0.8)" d="M587.823 570.311L595.443 574.591L603.92 579.829L585.91 590.745C581.279 587.67 576.689 584.372 571.747 581.814L571.315 581.005C572.579 578.583 584.739 572.189 587.823 570.311Z"/>
	<path fill="#F3F4EF" transform="scale(0.8 0.8)" d="M456.301 626.292C461.483 628.277 466.779 632.312 471.546 635.276C465.438 639.231 459.111 642.821 452.813 646.462C447.616 643.861 442.646 640.561 437.458 637.855C443.788 634.109 450.255 630.482 456.301 626.292Z"/>
	<path fill="#F3F4EF" transform="scale(0.8 0.8)" d="M473.106 636.278C477.697 637.016 485.26 642.679 489.586 644.997Q479.803 650.29 470.286 656.048C466.965 656.12 457.801 649.295 454.508 647.365C460.773 643.794 466.92 639.985 473.106 636.278Z"/>
	<path fill="#F3F4EF" transform="scale(0.8 0.8)" d="M550.539 591.697C555.762 588.807 560.597 585.331 566.008 582.754C568.343 581.642 569.008 581.717 571.334 582.535C575.463 585.727 579.983 588.451 584.378 591.259L566.537 602.021L557.112 595.933C555.239 594.36 552.624 593.022 550.539 591.697Z"/>
	<path fill="#F3F4EF" transform="scale(0.8 0.8)" d="M593.016 547.542C596.994 549.837 604.963 553.363 607.514 557.101C600.672 560.561 594.133 564.594 587.575 568.554C582.461 565.293 577.063 562.367 571.816 559.318C575.515 557.271 579.101 554.957 582.717 552.764C586.136 551.02 589.535 549.155 593.016 547.542Z"/>
	<path fill="#F3F4EF" transform="scale(0.8 0.8)" d="M609.406 557.966C613.089 557.933 621.15 563.649 624.341 565.678L624.812 566.534L624.608 567.192C618.222 571.201 611.873 575.3 605.366 579.11C602.199 577.205 599.059 575.195 595.829 573.404C593.784 571.961 591.282 570.804 589.082 569.586Q599.283 563.845 609.406 557.966Z"/>
	<path fill="#F3F4EF" transform="scale(0.8 0.8)" d="M522.394 601.333C526.527 602.476 529.677 603.675 533.081 606.417L534.892 607.404C536.532 608.173 538.351 608.862 539.902 609.784Q540.919 610.858 541.97 611.898C543.165 613.071 544.593 614.537 546.364 614.519L546.735 613.42C545.59 609.941 543.75 607.988 540.781 605.915L539.933 604.747C542.56 604.588 546.242 606.873 548.125 608.588C548.475 608.907 548.804 609.249 549.135 609.588C550.889 612.411 552.979 616.446 555.769 618.253L557.009 618.136C557.888 616.183 557.187 615.226 557.165 613.196C560.191 615.169 569.492 626.28 571.787 629.589C569.965 630.917 567.468 632.179 566.131 633.968C560.609 638.741 555.228 644.092 551.231 650.238C547.313 647.04 543.703 644.205 538.934 642.383C532.369 638.841 529.068 635.481 525.019 629.176C519.866 626.673 514.887 624.059 509.965 621.126L510.684 619.946C513.582 619.888 516.532 620.95 519.321 621.683C521.656 622.583 523.875 623.493 526.409 623.515C527.683 623.526 527.65 623.718 528.582 622.798C527.642 621.415 526.386 620.999 524.917 620.35L520.457 619.183C515.92 617.316 512.138 615.573 508.371 612.364C513.839 613.124 522.117 615.408 526.998 617.811C528.206 617.976 529.412 618.077 530.627 618.172L531.219 617.309C527.71 613.493 518.15 611.33 513.304 609.399C514.077 608.85 514.897 608.357 515.696 607.846C517.696 607.929 518.818 608.896 520.382 610.025C521.299 610.688 521.216 610.516 522.271 610.444L522.382 607.563C524.879 608.885 530.76 612.96 533.458 612.653C534.089 611.251 534.224 611.272 533.758 609.831L531.189 608.367Q526.668 606.437 522.087 604.654C521.439 604.391 521.088 604.005 520.577 603.538C520.922 602.167 521.226 602.173 522.394 601.333Z"/>
	<path fill="#6E7CA0" transform="scale(0.8 0.8)" d="M369.981 652.492L369.119 651.099L366.089 653.083L365.212 652.661L364.883 650.561C366.04 649.151 367.951 650.078 369.803 649.835C370.136 649.34 370.486 648.874 370.832 648.389C374.015 643.937 396.575 632.425 402.535 628.903L513.601 564.137C535.501 551.583 557.783 539.644 579.308 526.455C587.823 534.004 605.159 542.26 615.469 547.855C622.799 551.833 629.969 556.155 637.194 560.323C637.261 561.765 637.003 562.111 638.072 563.063C641.774 566.357 655.292 570.933 655.565 576.309C655.633 577.651 654.736 578.798 653.826 579.719C646.812 586.814 630.056 593.469 620.974 598.543C610.237 604.54 599.679 611.124 589.2 617.561C585.315 619.947 579.45 622.673 576.618 626.253L573.814 627.807C571.189 625.429 569.433 623.355 567.795 620.236C572.693 617.993 577.271 615.074 581.89 612.313L576.092 609.079L576.58 608.273C573.552 606.883 570.654 605.353 567.75 603.72C574.481 599.809 581.069 595.608 587.703 591.532L588.167 591.151C594.064 588.385 599.848 584.223 605.464 580.862C608.946 582.9 612.261 584.674 616.062 586.04C613.094 583.904 609.724 582.226 606.526 580.45C612.89 576.718 619.152 572.628 624.94 568.047L624.608 567.192L624.812 566.534L624.341 565.678C621.15 563.649 613.089 557.933 609.406 557.966L607.514 557.101C604.963 553.363 596.994 549.837 593.016 547.542C589.535 549.155 586.136 551.02 582.717 552.764L582.281 551.604C565.461 560.813 549.271 571.076 532.535 580.416C529.092 578.675 525.659 576.797 522.087 575.339L521.554 576.669C520.459 575.914 519.593 574.928 518.183 575.136C513.417 575.836 501.339 584.238 497.342 587.537C499.535 589.103 501.724 590.599 504.026 592.003L503.597 593.365C500.613 592.141 498.255 590.475 495.671 588.583C490.628 590.892 482.135 594.584 478.42 598.738L477.941 599.569C475.744 598.94 472.914 600.829 470.924 601.947C468.947 603.057 464.988 604.906 464.31 607.046L464.761 607.571L464.423 607.845C460.766 606.939 456.714 610.205 453.593 612.082C451.475 613.357 446.184 615.935 445.176 617.965L445.925 618.53L446.035 620.43C444.091 619.441 443.354 618.773 441.136 619.475C437.57 620.602 425.208 626.706 423.466 629.907L423.056 630.386C419 630.513 407.585 637.871 404.487 640.796L404.502 641.591L403.657 642.257C407.444 645.348 411.62 647.72 416.048 649.77L409.038 654.081L410.043 654.632Q406.074 657.009 402.025 659.248Q409.846 663.982 417.945 668.223L419.309 668.008C423.82 672.563 430.109 675.461 436.105 677.499L437.074 677.205L437.69 677.813C442.124 675.141 446.53 672.325 451.047 669.802C456.03 672.625 460.969 675.619 466.241 677.875L467.505 678.331L468.567 677.417C474.443 674.35 480.508 670.824 485.763 666.771L486.977 665.164C492.45 665 500.517 657.601 505.582 654.914L507.291 654.119C513.914 650.478 520.385 646.793 526.445 642.245C526.744 641.978 526.991 641.478 527.21 641.138L529.327 638.784C531.335 640.529 533.354 642.57 535.622 643.958C538.151 644.88 540.352 646.041 542.682 647.37L541.784 647.769C538.815 649.066 535.579 649.78 532.553 650.967C527.134 653.093 521.945 655.794 516.901 658.69C510.289 662.487 504.052 666.918 497.585 670.953C488.636 676.536 479.466 681.805 470.395 687.187C464.337 690.783 458.297 695.019 451.644 697.432C431.765 688.637 412.887 676.241 393.912 665.623C386.764 661.623 376.175 657.353 369.981 652.492Z"/>
	<path fill="#F3F4EF" transform="scale(0.8 0.8)" d="M437.69 677.813C442.124 675.141 446.53 672.325 451.047 669.802C456.03 672.625 460.969 675.619 466.241 677.875C465.528 680.078 454.351 685.655 451.897 687.075C447.586 683.899 441.153 681.717 437.69 677.813Z"/>
	<path fill="#F3F4EF" transform="scale(0.8 0.8)" d="M386.672 650.477C390.386 648.143 399.425 641.472 403.657 642.257C407.444 645.348 411.62 647.72 416.048 649.77L409.038 654.081C406.218 655.086 403.563 657.249 401.191 659.023C396.28 656.353 391.023 654.02 386.672 650.477Z"/>
	<path fill="#F3F4EF" transform="scale(0.8 0.8)" d="M587.703 591.532C591.749 594.531 596.904 597.22 600.353 600.801Q591.678 606.47 582.835 611.873C580.809 610.553 578.846 609.149 576.58 608.273C573.552 606.883 570.654 605.353 567.75 603.72C574.481 599.809 581.069 595.608 587.703 591.532Z"/>
	<path fill="#F3F4EF" transform="scale(0.8 0.8)" d="M624.94 568.047C627.666 567.187 628.525 567.434 631.156 568.8C635.275 570.938 639.22 573.543 643.481 575.379C635.463 581.256 627.129 585.454 618.567 590.387C613.058 593.561 607.8 597.155 602.155 600.091C597.587 596.901 593.163 593.652 588.167 591.151C594.064 588.385 599.848 584.223 605.464 580.862C608.946 582.9 612.261 584.674 616.062 586.04C613.094 583.904 609.724 582.226 606.526 580.45C612.89 576.718 619.152 572.628 624.94 568.047Z"/>
	<path fill="#F3F4EF" transform="scale(0.8 0.8)" d="M580.282 539.066C583.159 541.764 586.39 543.974 589.6 546.251C587.234 548.155 584.779 549.881 582.281 551.604C565.461 560.813 549.271 571.076 532.535 580.416C529.092 578.675 525.659 576.797 522.087 575.339C521.225 574.855 521.08 574.691 520.531 573.924C523.311 569.345 533.427 565.555 538.231 563.466C542.242 564.983 545.329 568.054 549.381 569.375L549.995 568.206C546.825 565.732 543.523 564.166 539.835 562.616C549.126 555.219 569.145 544.073 580.282 539.066Z"/>
	<path fill="#647196" transform="scale(0.8 0.8)" d="M801.427 64.9523C812.711 58.5415 827.39 49.5565 840.956 53.2746C851.35 56.1235 883.571 77.1067 894.872 83.8827L951.156 116.919L1102.1 204.95Q1135.48 224.278 1168.49 244.237C1177.5 249.693 1187.12 254.771 1195.79 260.737C1202.69 265.489 1208.86 272.389 1212.87 279.739C1216.9 287.103 1219.75 295.389 1220.47 303.782C1221.47 315.56 1220.8 327.838 1220.77 339.665L1220.75 401.169Q1221.17 459.651 1220.85 518.134C1220.82 533.316 1222.53 567.976 1218.87 580.397C1216.88 587.162 1212.95 593.918 1206.55 597.363C1204.06 598.699 1201.25 599.937 1198.62 600.941C1194.46 604.345 1186.73 607.7 1181.59 609.553C1177.59 610.998 1173.8 611.804 1169.64 610.382C1157.04 606.078 1144.19 596.278 1132.33 589.867C1105.35 575.278 1079.06 559.283 1052.69 543.621Q1023.5 526.34 994.086 509.45C976.764 499.329 959.745 487.53 941.61 478.946C934.885 485.068 925.757 489.808 918.15 494.986L873.492 525.919C868.019 529.658 860.431 537.833 854.134 539.425C852.508 539.837 851.761 539.616 850.323 538.858C850.164 530.934 856.356 511.179 858.519 502.329C863.771 480.845 869.256 459.187 873.169 437.416C856.281 426.537 838.532 417.049 821.334 406.676C791.201 388.502 761.241 369.765 730.758 352.203L687.228 326.826C679.18 322.196 660.465 313.183 654.725 307.258C653.068 305.547 653.214 304.225 653.241 302.016C659.398 302.807 797.783 387.185 814.866 397.431C836.058 410.14 857.624 422.354 878.627 435.363C875.638 446.482 873.436 457.883 870.875 469.115C866.126 489.946 861.247 510.902 856.05 531.621C873.518 520.935 889.977 508.293 906.855 496.696C917.973 489.058 930.725 482.095 940.676 473.047C962.091 483.869 982.334 497.077 1002.98 509.282Q1063.86 545.94 1125.77 580.841C1138.15 587.75 1154.13 598.438 1166.41 604.036C1170 605.673 1174.62 607.525 1178.53 606.197C1181.93 605.044 1185.33 602.124 1186.85 598.854C1188.93 594.371 1189.05 587.982 1189.22 583.133C1189.73 568.392 1189.32 553.504 1189.3 538.749L1189.24 445.172Q1189.76 396.244 1189.59 347.314C1189.51 337.376 1190.17 327.274 1189.65 317.362C1189.39 312.365 1188.46 307.527 1186.55 302.891C1183.06 294.399 1177.23 285.842 1169.89 280.262C1158.68 271.738 1142.35 263.537 1129.91 256.225L1043.06 205.662C962.402 158.92 882.49 111.009 801.427 64.9523Z"/>
	<path fill="#F3F4EF" transform="scale(0.8 0.8)" d="M828.848 57.6787C833.307 57.3508 838.68 56.7941 842.93 58.4406C851.052 61.5876 868.29 73.3613 876.722 78.3372L957.432 125.546Q1044.55 175.663 1130.96 226.976L1169.19 249.801C1177.3 254.565 1186.02 258.991 1193.59 264.558C1201.85 270.635 1207.67 278.998 1211.67 288.35C1214.09 294.016 1215.81 299.971 1216.18 306.147C1216.92 318.616 1216.28 331.439 1216.29 343.948L1216.31 417.455L1216.24 523.952C1216.23 540.241 1216.81 556.668 1216.36 572.94C1216.29 575.208 1216.01 577.209 1215.15 579.313C1214.62 580.599 1214.13 581.889 1213.51 583.136C1209.66 590.902 1202.57 595.647 1194.48 598.338C1193.78 599.12 1193.24 599.347 1192.27 599.71C1191.63 598.135 1192.85 595.118 1193.16 593.393C1194.11 588.015 1194.21 582.445 1194.26 576.994L1194.31 393.194L1194.36 345.177C1194.39 333.403 1195.67 319.991 1193.05 308.497C1190.42 296.99 1183.48 286.183 1174.35 278.727C1163.46 269.826 1149.65 262.886 1137.51 255.694L1064.71 213.225L890.992 111.331C864.477 95.7953 837.053 81.3772 810.931 65.2237C816.446 61.8226 822.429 58.8161 828.848 57.6787Z"/>
	<path fill="#F9827A" transform="scale(0.8 0.8)" d="M831.641 640.741C831.844 640.811 832.044 640.887 832.249 640.951C833.842 641.453 835.788 640.839 837.459 640.934C841.921 641.188 848.853 643.895 851.244 647.779C852.817 650.334 853.775 653.148 853.211 656.118C857.973 656.855 861.474 658.028 864.568 662.04C872.173 671.898 869.674 691.563 867.872 703.2C867.683 706.304 867.548 709.041 868.24 712.103C870.026 720.343 868.813 735.596 868.787 744.511C868.74 761.08 869.541 778.202 868.229 794.712L866.2 802.081C864.881 806.056 863.279 809.336 860.097 812.206C853.389 818.255 841.778 823.432 833.838 828.001C825.236 832.949 760.194 870.531 757.279 874.802C752.371 877.596 748.492 879.967 742.61 879.304C729.898 877.46 717.192 868.035 706.175 861.767C692.852 854.188 679.321 846.989 666.195 839.063C655.104 832.365 644.525 824.969 633.142 818.73C627.531 814.7 620.633 811.729 614.571 808.329C613.904 803.593 612.482 797.652 614.044 793.043C614.708 791.086 615.772 790.135 617.535 789.177C627.506 785.452 637.825 791.183 646.865 795.315C658.123 800.46 705.86 828.933 712.657 828.865C713.799 827.814 713.834 826.728 713.925 825.193C714.117 821.961 714.075 818.631 713.95 815.395L713.571 815.077C713.757 813.779 713.736 812.477 713.749 811.169C715.45 800.903 714.044 781.512 714.031 770.177L714.324 765.321C714.327 748.975 712.798 731.351 720.051 716.176C723.338 709.299 728.238 702.183 734.112 697.263C741.551 691.033 751.125 686.455 759.434 681.429C771.74 673.986 784.185 666.81 796.573 659.507C807.804 652.887 819.343 645.095 831.641 640.741Z"/>
	<path fill="#A4C6C9" transform="scale(0.8 0.8)" d="M831.641 640.741C831.844 640.811 832.044 640.887 832.249 640.951C833.842 641.453 835.788 640.839 837.459 640.934C841.921 641.188 848.853 643.895 851.244 647.779C852.817 650.334 853.775 653.148 853.211 656.118C850.593 656.403 848.479 657.102 846.157 658.316C839.888 661.593 770.91 702.237 769.775 703.483C765.703 705.883 762.244 708.333 759.548 712.301C759.431 712.439 759.312 712.574 759.197 712.713C754.682 718.16 752.243 725.736 751.138 732.629C748.976 746.128 750.129 766.147 750.246 780.191C750.389 797.22 749.976 814.225 749.937 831.25C749.923 837.277 751.412 847.656 748.948 852.965C747.858 855.312 744.744 856.973 742.269 857.253C740.178 857.49 738.32 856.612 736.48 855.747C722.644 849.244 709.235 840.695 696.042 832.941Q670.001 817.668 643.725 802.803C636.117 798.475 627.288 791.702 618.853 789.695C617.968 789.484 618.368 789.629 617.535 789.177C627.506 785.452 637.825 791.183 646.865 795.315C658.123 800.46 705.86 828.933 712.657 828.865C713.799 827.814 713.834 826.728 713.925 825.193C714.117 821.961 714.075 818.631 713.95 815.395L713.571 815.077C713.757 813.779 713.736 812.477 713.749 811.169C715.45 800.903 714.044 781.512 714.031 770.177L714.324 765.321C714.327 748.975 712.798 731.351 720.051 716.176C723.338 709.299 728.238 702.183 734.112 697.263C741.551 691.033 751.125 686.455 759.434 681.429C771.74 673.986 784.185 666.81 796.573 659.507C807.804 652.887 819.343 645.095 831.641 640.741Z"/>
	<path fill="#F9827A" transform="scale(0.8 0.8)" d="M375.686 92.6005C379.759 93.9917 383.536 95.8247 387.389 97.7183C393.835 102.87 401.217 107.742 406.894 113.704C400.45 125.228 391.998 135.565 385.336 147.064C388.046 150.872 390.735 154.606 392.731 158.853C394.47 162.554 395.832 168.688 398.177 171.721C401.381 169.954 404.593 168.341 407.932 166.843L415.937 163.204C419.47 165.274 423.224 167.227 426.45 169.754C428.323 171.453 428.571 172.032 428.73 174.693C429.341 184.925 429.057 197.331 427.515 207.456C419.5 214.277 409.309 217.968 400.621 223.819C398.238 239.008 393.357 251.915 387.856 266.164C392.183 269.24 403.766 274.759 406.103 278.708C405.238 285.646 383.957 317.08 378.299 322.852C371.734 318.182 364.468 313.643 358.668 308.06C349.302 319.311 339.036 327.532 326.973 335.667C327.001 344.181 327.37 352.895 326.831 361.385C317.528 369.277 305.621 372.701 295.199 378.628C291.615 379.735 285.217 375.342 281.741 373.79L281.739 352.918C272.931 353.743 265.919 352.881 257.359 350.667Q250.498 362.531 242.882 373.925C240.248 377.924 236.395 382.472 234.524 386.818C233.873 386.854 232.842 387.061 232.23 386.947C228.924 386.337 216.214 377.597 212.372 375.393L200.438 369.623C204.038 361.417 216.675 338.345 222.654 332.603C215.485 326.708 210.187 319.951 207.583 310.899C202.645 313.894 197.127 316.764 192.554 320.268C191.238 308.642 191.688 296.753 191.811 285.069C200.383 281.229 209.034 275.106 217.218 270.339C219.641 251.799 224.505 238.991 231.1 221.759L230.634 221.413C226.001 217.91 220.463 215.961 215.38 213.189C221.417 199.282 229.87 183.71 242.573 175.034C244.249 176.214 246.14 177.34 247.673 178.689C252.504 174.136 256.901 168.994 261.545 164.237C267.237 158.407 273.265 152.948 279.329 147.512Q280.457 134.035 281.057 120.524C290.786 113.209 301.453 107.186 312.05 101.241C316.726 102.833 322.173 104.418 325.881 107.825C324.848 112.89 325.423 119.136 325.571 124.339C334.036 122.769 343.446 122.774 351.441 126.233C357.342 114.757 366.416 101.734 375.686 92.6005Z"/>
	<path fill="#3C3C68" transform="scale(0.8 0.8)" d="M415.937 163.204C419.47 165.274 423.224 167.227 426.45 169.754C417.74 173.976 409.024 179.176 399.938 182.457C399.638 180.846 397.544 172.758 398.177 171.721C401.381 169.954 404.593 168.341 407.932 166.843L415.937 163.204Z"/>
	<path fill="#3C3C68" transform="scale(0.8 0.8)" d="M281.739 352.918C286.102 351.941 290.451 351.002 294.856 350.228C294.866 359.677 294.652 369.194 295.199 378.628C291.615 379.735 285.217 375.342 281.741 373.79L281.739 352.918Z"/>
	<path fill="#3C3C68" transform="scale(0.8 0.8)" d="M375.686 92.6005C379.759 93.9917 383.536 95.8247 387.389 97.7183C377.556 107.264 369.282 121.96 360.817 133.034C348.178 128.465 337.732 131.336 325.588 135.907C325.372 132.009 325.177 128.23 325.571 124.339C334.036 122.769 343.446 122.774 351.441 126.233C357.342 114.757 366.416 101.734 375.686 92.6005Z"/>
	<path fill="#3C3C68" transform="scale(0.8 0.8)" d="M217.853 305.134C221.689 317.44 224.857 327.806 234.158 337.227C226.839 344.757 217.694 365.423 212.372 375.393L200.438 369.623C204.038 361.417 216.675 338.345 222.654 332.603C215.485 326.708 210.187 319.951 207.583 310.899C210.976 308.942 214.347 306.878 217.853 305.134Z"/>
	<path fill="#3C3C68" transform="scale(0.8 0.8)" d="M312.05 101.241C316.726 102.833 322.173 104.418 325.881 107.825C316.006 112.009 300.106 120.176 292.203 127.143C292.035 135.504 291.2 144.661 292.299 152.948C278.401 164.329 270.019 172.71 258.475 186.454C255.181 183.62 250.581 181.607 247.673 178.689C252.504 174.136 256.901 168.994 261.545 164.237C267.237 158.407 273.265 152.948 279.329 147.512Q280.457 134.035 281.057 120.524C290.786 113.209 301.453 107.186 312.05 101.241Z"/>
	<path fill="#3C3C68" transform="scale(0.8 0.8)" d="M294.785 180.665C305.281 170.701 325.528 162.355 339.991 162.669C348.94 162.863 356.81 166.856 362.897 173.315C373.527 184.593 377.106 200.386 376.61 215.508C375.581 246.855 358.206 279.964 335.349 301.043C321.961 313.39 301.516 324.24 282.764 323.375Q281.856 323.324 280.951 323.228Q280.046 323.132 279.147 322.991Q278.248 322.851 277.357 322.665Q276.466 322.48 275.586 322.251Q274.705 322.022 273.837 321.75Q272.969 321.477 272.115 321.162Q271.262 320.847 270.425 320.49Q269.588 320.133 268.77 319.734Q267.951 319.336 267.154 318.898Q266.357 318.46 265.582 317.982Q264.807 317.505 264.057 316.99Q263.307 316.475 262.583 315.923Q261.859 315.371 261.164 314.785Q260.469 314.198 259.803 313.577Q259.138 312.956 258.504 312.303Q257.87 311.651 257.269 310.967C247.783 300.262 244.916 284.828 245.882 270.893C247.508 247.424 257.777 222.624 272.148 203.994C274.332 201.162 276.864 197.533 279.59 195.216C279.749 195.081 279.925 194.969 280.092 194.846C284.314 189.783 289.551 184.659 294.785 180.665Z"/>
	<path fill="#F3F4EF" transform="scale(0.8 0.8)" d="M291.999 186.944C305.949 176.088 323.952 164.199 342.535 166.368C350.655 167.317 357.489 171.762 362.407 178.196C372.378 191.243 373.538 209.715 371.317 225.399C367.098 255.203 348.798 286.197 324.675 304.266C313.167 312.886 296.278 321.357 281.438 319.205Q280.567 319.074 279.704 318.9Q278.841 318.726 277.988 318.509Q277.135 318.292 276.293 318.033Q275.452 317.774 274.624 317.474Q273.796 317.173 272.985 316.832Q272.173 316.491 271.379 316.11Q270.586 315.729 269.812 315.308Q269.038 314.888 268.286 314.43Q267.534 313.972 266.806 313.477Q266.078 312.982 265.375 312.452Q264.672 311.922 263.997 311.357Q263.321 310.792 262.675 310.194Q262.028 309.597 261.412 308.968Q260.796 308.339 260.211 307.68Q259.627 307.021 259.077 306.334Q258.526 305.647 258.01 304.933C249.041 292.686 248.662 274.673 251.009 260.265C254.842 236.725 268.413 212.207 284.206 194.526C286.853 192.042 289.471 189.55 291.999 186.944Z"/>
	<path fill="#3C3C68" transform="scale(0.8 0.8)" d="M293.758 243.223L293.292 241.934C296.184 238.074 341.698 207.293 348.288 203.642C342.044 212.265 314.95 260.344 309.319 263.313C309.569 257.615 334.36 221.71 338.99 213.958C326.028 221.51 306.542 238.794 293.758 243.223Z"/>
	<path fill="#F9827A" transform="scale(0.8 0.8)" d="M338.99 213.958C334.36 221.71 309.569 257.615 309.319 263.313C304.059 256.695 299.304 249.601 293.758 243.223C306.542 238.794 326.028 221.51 338.99 213.958Z"/>
	<path fill="#647196" transform="scale(0.8 0.8)" d="M513.294 324.943C522.029 320.631 531.317 311.989 540.854 310.062C544.054 309.415 547.882 309.452 550.619 311.453C553.664 313.68 555.042 316.54 555.527 320.2C553.643 331.177 555.483 353.287 555.531 365.428C555.658 397.98 555.171 430.547 555.523 463.095C563.808 468.876 573.219 473.089 582.122 477.833L620.867 498.929C635.877 507.036 650.856 517.388 666.662 523.746C666.4 525.674 666.1 527.57 666.15 529.523C657.083 523.909 647.501 518.997 638.127 513.904C610.509 498.897 581.99 484.851 555.073 468.624C553.885 471.281 552.442 475.629 550.457 477.675C543.964 484.367 531.619 490.114 523.375 494.989C505.817 505.371 488.03 515.435 470.689 526.171C467.093 528.397 460.312 531.27 457.746 534.352C453.885 534.03 411.452 559.921 406.485 564.152C405.87 564.675 405.509 565.044 405.123 565.744C398.745 568.31 382.436 579.567 375.533 583.701C359.898 593.064 342.32 601.635 327.608 612.263C323.955 610.692 320.84 609.357 317.971 606.515C317.125 604.42 316.28 602.333 315.962 600.082C315.107 594.03 315.557 587.445 315.572 581.322L315.674 548.002C302.796 554.631 290.678 562.381 278.196 569.69L212.372 608.185C198.747 616.158 184.85 623.611 171.282 631.698C166.735 634.407 161.727 636.767 157.464 639.893C158.374 640.879 159.44 641.274 160.642 641.798C158.218 643.087 158.716 644.883 157.41 647.109C155.61 650.533 155.545 661.67 156.861 665.447C159.402 672.746 171.626 675.842 177.511 680.434C188.176 687.787 199.771 693.714 211.094 699.956C220.075 704.907 228.883 710.224 237.715 715.437C254.914 725.588 272.411 735.199 289.607 745.317C313.442 759.341 336.821 773.978 361.274 786.934C368.44 791.296 376.251 797.109 384.183 799.874L384.228 800.431C384.785 808.043 384.359 815.929 384.354 823.567L384.436 865.086L384.453 930.53C384.448 939.865 384.889 949.378 384.582 958.693C384.524 960.451 384.314 961.306 383.169 962.621C379.525 962.904 366.099 954.57 362.172 952.431C322.406 930.78 283.56 907.319 243.993 885.301L185.769 853.002C174.924 847.001 163.663 841.378 153.236 834.699L153.082 689.212C153.059 671.661 151.3 654.422 151.863 636.86C159.307 631.384 168.245 627.16 176.309 622.588Q196.017 611.447 215.44 599.817L218.186 598.217C226.288 592.906 235.102 588.287 243.475 583.389C267.542 569.308 291.988 555.855 315.698 541.184L315.713 445.411C317.249 442.997 318.607 441.156 320.954 439.486C327.863 434.567 335.776 430.604 343.052 426.211C359.686 416.169 376.291 406.18 393.1 396.436C430.412 374.806 467.482 352.508 504.471 330.321C505.901 329.832 507.038 328.911 508.254 328.04L513.294 324.943Z"/>
	<path fill="#F3F4EF" transform="scale(0.8 0.8)" d="M541.805 314.364C543.425 314.522 543.893 314.495 545.263 315.457C544.923 316.82 544.67 316.667 543.556 317.383C534.854 322.978 525.545 327.692 516.606 332.905C505.695 339.268 494.966 346.036 484.097 352.494L374.026 418.124L341.298 437.124C336.281 440.081 330.832 442.677 326.312 446.373C325.566 449.159 325.302 452.101 325.165 454.974C324.663 465.55 325.012 476.287 325.003 486.877L324.972 546.14L324.968 581.342C324.968 589.24 324.522 597.409 325.648 605.231C324.72 604.817 323.673 604.373 322.981 603.604C321.076 601.488 320.801 597.706 320.64 594.973C320.062 585.161 320.574 575.016 320.607 565.171L320.544 515.483L320.513 471.785C320.482 463.275 320.02 454.551 320.657 446.067C324.815 441.012 378.743 410.755 390.016 404.169L451.645 367.82L514.273 330.21C523.379 324.854 532.414 319.191 541.805 314.364Z"/>
	<path fill="#F3F4EF" transform="scale(0.8 0.8)" d="M541.944 338.113L542.95 338.329C543.75 342.924 543.139 348.409 543.129 353.109L542.904 389.175C542.724 413.963 544.011 439.065 542.632 463.793C528.629 472.653 513.971 480.707 499.755 489.244Q453.796 517.428 407.202 544.548L363.571 570.707C355.819 575.373 347.927 580.882 339.693 584.596C337.969 582.045 338.717 468.965 339.098 457.7C348.049 451.918 357.546 447.084 366.684 441.618L435.311 400.466Q467.345 381.294 499.68 362.636C513.769 354.333 527.457 345.797 541.944 338.113Z"/>
	<path fill="#F9827A" transform="scale(0.8 0.8)" d="M526.023 396.303C528.181 398.917 526.911 412.209 526.857 416.223C519.305 423.566 487.447 440.55 477.163 446.559C475.437 439.778 476.273 431.687 476.361 424.732C486.094 418.538 496.215 413.035 506.209 407.28C512.759 403.509 519.043 399.261 526.023 396.303Z"/>
	<path fill="#647196" transform="scale(0.8 0.8)" d="M526.11 361.995C528.111 364.659 527.307 379.587 527.318 383.518C518.981 389.568 509.624 394.529 500.736 399.725C492.891 404.311 485.016 409.461 476.772 413.273L476.35 413.03C474.73 410.337 475.983 395.07 476.078 390.846C492.551 381.134 508.971 370.431 526.11 361.995Z"/>
	<path fill="#F9827A" transform="scale(0.8 0.8)" d="M527.481 427.052L527.389 456.573C515.809 464.909 503.067 471.368 490.769 478.538C486.265 481.165 481.394 485.171 476.516 486.759L476.4 456.412C484.237 451.729 518.182 430.537 523.965 428.91C525.543 428.466 526.213 428.076 527.481 427.052Z"/>
	<path fill="#F9827A" transform="scale(0.8 0.8)" d="M397.904 500.056C399.837 502.297 398.682 525.691 398.64 530.204C383.2 542.166 364.205 550.442 347.596 560.795L347.111 560.332C345.726 552.807 346.893 538.868 346.94 530.661C364.04 520.815 381.322 510.725 397.904 500.056Z"/>
	<path fill="#F3F4EF" transform="scale(0.8 0.8)" d="M177.511 680.434C188.176 687.787 199.771 693.714 211.094 699.956C220.075 704.907 228.883 710.224 237.715 715.437C254.914 725.588 272.411 735.199 289.607 745.317C313.442 759.341 336.821 773.978 361.274 786.934L361.16 945.594C347.665 939.445 335.112 930.692 322.118 923.516C285.183 903.118 248.772 881.808 211.758 861.574C200.157 855.231 188.767 848.453 176.912 842.588C176.286 807.837 176.939 772.974 176.917 738.211L176.859 703.817C176.848 696.117 176.391 688.059 177.511 680.434Z"/>
</svg>
