<svg xmlns="http://www.w3.org/2000/svg" viewBox="0 0 1024 819">
  <path fill="#A4C6C9" d="M672.7824 726.3272c2.1304 1.4536 9.132.1816 12.0384.1848 8.9368.0096 17.476 1.2208 26.344 1.6856L714.4 738.484c-4.2936.5168-9.48.6656-13.008 3.4168-.296.6424-.692.984-.3864 1.6928 1.0272 2.388 5.4896 3.7864 7.8256 4.4968 4.1728 1.2696 18.2536 4.6744 21.7944 2.772 1.0152-.5456 1.8152-1.3632 2.1376-2.4928.2896-1.0112.2464-2.1864.1632-3.2208-.6112-1.9696-.9152-4.1976-1.3368-6.2256-.0096-2.652-.3312-5.3008-.5776-7.9392 8.352 1.0392 31.8648 7.356 37.0816 13.9472 1.0192 1.288 1.3648 2.8224 1.0928 4.4328-.592 3.4968-3.6464 6.1488-6.488 7.9752-21.7632 13.9896-71.0296 17.0392-96.5264 16.368-5.6464-2.7136-13.4568-3.1232-19.6352-3.9472-14.624-1.9488-34.2712-5.22-46.192-14.4144-2.1824-1.6832-4.6696-3.9984-4.9024-6.9096-.2096-2.632 1.452-5.1088 3.1592-6.9496 10.4552-11.2744 35.7968-12.864 50.472-13.548-.0248 6.7608-.3664 13.6768-.028 20.42l-.2488 1.0784c-4.3352.4784-12.3144-.2344-15.8616 2.1232-.6008 1.0272-.5424.9536-.2488 2.116 3.9392 4.484 20.8904 9.3024 26.8064 9.6768 1.9224.1216 3.9904.2904 5.7152-.6872 2.2128-2.9904.8424-6.8232 1.5024-10.248.3968-.2024.9216-.4344 1.2616-.74 2.1136-1.9024 4.1192-21.2912 4.8104-25.3504Z"/>
  <path fill="#647095" d="M46.2002 482.2872A10319.2508 10319.2508 0 0 1 290.24 576.1408l82.0984 32.6624c20.7312 8.1808 224.2811 89.9101 245.8827 95.5701L563.0286 726.24c-22.2032-6.2264-169.9686-71.6816-191.0214-80.9592-14.732-6.4928-29.5112-12.836-44.176-19.4872l-197.1808-90.504c-25.0056-11.2696-50.184-24.812-75.7485-34.3376-3.7713-5.6608-6.1744-12.3856-8.7017-18.6648z"/>
  <path fill="#3C3C68" d="M309.4856 60.3415c-1.888-1.9927-3.9384-3.9268-3.9392-6.8893-.0008-1.491.6152-2.8599 1.6728-3.899 4.084-4.0136 14.02-4.7823 19.4488-4.5005 4.4448.2308 12.4096 1.4837 15.4184 5.1207.8.9677 1.0696 2.3961.9256 3.62-.4248 3.6212-3.1248 3.3959-3.6032 8.5095 1.4784 9.547.8496 27.1555 1.072 37.7299.6624 31.5864.4688 63.46 2.352 94.9832 6.2584-2.916 34.1904-17.92 38.2904-18.4904 1.5456-.2152 3.9504.9024 5.408 1.436 10.1336 3.7112 20.1088 7.9808 30.168 11.9008q39.9856 15.2256 79.6104 31.3688c25.0152 9.9392 50.6032 18.896 75.2344 29.7448 1.9872.8744 4.4872 1.7208 5.8528 3.4592 1.7272 5.2216.7728 13.1216.7736 18.612l.0624 31.94c.0056 5.7712-.3072 11.6232.1352 17.3744l12.152 3.0496-.1368 28.7624c-.0544 3.6688-.1552 7.344-.0832 11.0128 31.3648 2.3384 61.8936 10.164 91.376 20.9744 6.1912 2.2696 12.2232 4.9768 18.3848 7.3272 8.816 3.3624 17.9704 5.9208 26.3768 10.276 9.3232-3.7544 17.9672-8.8944 27.028-13.1968 54.9744-26.1 107.0624-59.4624 167.6784-71.0664 10.8-2.068 21.776-3.0816 32.728-3.8952 10.856 6.0928 28.512 50.5296 32.176 63.7224 8.632 31.036 10.352 61.488 6.248 93.3928-.64 5.0048-1.36 14.2784-3.776 18.5936-.144.2536-.416.5736-.584.7856.064 1.1816-.088 1.4264-.624 2.5-9.464-6.1616-30.664-12.7792-41.92-16.7536-8.96-3.1624-18.104-6.9072-27.328-9.1656-1.648 4.456-8.192 9.0696-12.208 11.3928 1.264.66 2.016 1.2824 2.512 2.6712.296.8448.272 1.4936.024 2.352 2.872 2.2448 7.632 18.8024 8.152 22.9.096.7224.056 1.3272-.264 1.98 2.28 2.5224 4.76 14.2432 4.336 17.6648-.096.752-.312 1.2696-.664 1.9304.504 1.592.8 2.7648-.008 4.308-.216.4064-.456.7904-.712 1.1736.44 2.3096-.92 4.6224-2.2 6.4704-1.32 1.92-2.976 3.6312-4.216 5.596 2.512 3.1584 2.68 25.0976 2.08 29.9056-.064.5496-.208 1.0408-.368 1.5688-1.832 3.5784-9.536 5.3312-12.664 8.1208 1.512 3.2568-.336 42.3592-1.688 46.4712-.096.2824-.296.6504-.424.8992 1.04 4.4072-.576 9.1224.464 13.5576.768 3.2992 5.592 12.78 4.816 15.3296 2.632 3.1576 14.544 31.264 14.464 34.2888 1.464 1.7352 4.32 7.1584 4.048 9.4584-.016.1296-.064.2528-.096.38 1.384 1.5808 2.92 4.4312 2.888 6.588 0 .1928-.056.3824-.088.5736.696 1.4368.256 1.816.384 3.2552.16 1.8896 1.336 4.2136 2.168 5.8944.344.6928.224.3824.392 1.196.144-.0008.296-.0096.44-.0032 10.424.4672 28.56 8.3992 35.168 16.2272 1.456 1.7328 2.504 3.6608 2.192 5.9912-.472 3.5808-3.696 6.4336-6.488 8.4288-27.352 19.5784-116.608 17.7408-148.904 12.4824-12.2824-2-30.8896-5.628-38.3496-16.564-2.7376-4.0144-2.8712-6.8352-2.0984-11.416q.2792-.3432.5672-.6792c10.0896-11.9104 33.1528-16.8352 48.2488-18.0616 1.144-2.7144.8-6.596.848-9.5016.456-4.0976.792-10.9328-.312-14.8936.832-2.2832 1.52-107.1664.608-110.1136-1.712-1.6952-5.664-3.1536-7.896-4.3112-1.072-2.7688.688-8.1296 1.368-11.0344.56-2.1776 1.208-4.5184 2.672-6.264-3.008-8.4-4.712-11.3488-3.136-20.5424-3.288-3.6432-5.888-7.0816-8.024-11.5144-1.936-5.0456-2.824-10.9584-1.656-16.2896.2-3.6168 1.072-7.5992 3.472-10.4216 1.464-1.7224 3.512-3.028 5.824-3.132 1.48-.0664 2.952.4648 3.976 1.5544 1.344 1.4312 2.256 4.0016 2.264 5.9272 1.872-2.6896 3.384-21.636 3.12-25.6528 3.192-7.0008-.12-8.3176 6.816-15.6736 1.008-.6512 1.96-1.3864 2.92-2.1 1.768-1.0456 5.976-5.0232 6.576-6.944-1.944-2.0296-8.984-3.104-11.784-3.8272-27.464-7.088-55.7592-11.3648-83.896-14.78-7.9648-.9664-15.9824-1.4416-23.9336-2.46-1.9528.2496-3.8984.5016-5.8616.6616l-.5304 4.9512c-.0968 3.7552-.176 7.3744-1.736 10.8728-.6272 1.4056-1.5432 2.6944-2.0312 4.1528.756 2.4472 2.1104 3.3592 4.072 4.7968.5824 1.2648.5664 2.3056.5696 3.6832 1.8176.0544 3.2184.368 4.928.9816 6.0464 2.8216 10.0704 7.4456 12.38 13.7232.7504 2.0392 1.4224 4.2056 1.788 6.3496 5.0472 24.4256-9.2664 38.0968-11.1264 60.0408-1.5336 18.0904 6.9744 45.8072 12.4552 63.3616-5.0488 3.4544-10.0328 6.2616-15.8224 8.3136 1.82 21.1384 4.5392 42.2584 6.9376 63.3384 1.3336 11.7208 2.008 23.7808 3.9224 35.4024.3848 3.7648.6568 7.5816 1.2728 11.316.2464 2.6384.568 5.2872.5776 7.9392.4216 2.028.7256 4.256 1.3368 6.2256.0832 1.0344.1264 2.2096-.1632 3.2208-.3224 1.1296-1.1224 1.9472-2.1376 2.4928-3.5408 1.9024-17.6216-1.5024-21.7944-2.772-2.336-.7104-6.7984-2.1088-7.8256-4.4968-.3056-.7088.0904-1.0504.3864-1.6928 3.528-2.7512 8.7144-2.9 13.008-3.4168l-3.2352-10.2864c-8.868-.4648-17.4072-1.676-26.344-1.6856-2.9064-.0032-9.908 1.2688-12.0384-.1848-.6912 4.0592-2.6968 23.448-4.8104 25.3504-.34.3056-.8648.5376-1.2616.74-.66 3.4248.7104 7.2576-1.5024 10.248-1.7248.9776-3.7928.8088-5.7152.6872-5.916-.3744-22.8672-5.1928-26.8064-9.6768-.2936-1.1624-.352-1.0888.2488-2.116 3.5472-2.3576 11.5264-1.6448 15.8616-2.1232l.2488-1.0784c-.3384-6.7432.0032-13.6592.028-20.42.6536-21.7888.5912-43.6304.7776-65.4288.1112-13.0496 1.0264-27.6032-.212-40.4992-.1312-1.368-.4272-2.268-1.204-3.4112-1.9224-.668-3.5976-1.7368-4.8296-3.3872-5.904-7.9104 3.2336-23.1024 4.3808-31.7624.032-.2472.0592-.4952.0888-.7432-11.3968-3.5744-25.24-21.9048-31.0832-32.2008.224-1.5992.4832-3.1184.2832-4.7368-4.5192-2.4896-8.7688-5.0872-12.6704-8.4824-.9448-.6704-2.0592-1.7528-2.564-2.8048-1.9624-4.0872 2.8528-9.6808 3.9432-13.5632.0576-.2064.1104-.4144.1656-.6216-3.7888-3.8928-14.356-25.4032-16.4392-26.048l-.164 2.6424q.3896 12.4984.3712 25.0032c-10.3712 1.2624-20.6168 3.4816-30.9712 4.912-6.2608 1.9088-13.472 2.488-19.9504 3.6408l-41.1888 7.5024-64.4536 12.0384c-10.8448 2.0608-21.6944 4.6176-32.6144 6.1984q-14.3224 2.6632-28.5368 5.852c-14.6752-5.6888-30.5016-9.4712-45.6144-13.9016-23.2-6.8008-46.2568-13.8904-69.5392-20.4304l-79.4712-22.0792c-26.2224-7.2688-52.6304-14.6168-79.172-20.648l.1448-117.1872c4.788-2.044 9.8328-3.7064 14.7144-5.5288l.1616-23.5808c17.3616-7.2176 35.4488-13.2952 52.3392-21.5512 9.0048 1.3376 18.1432 2.1168 27.1936 3.1032q-.1096-25.524.1624-51.0472c7.944-5.064 18.06-8.8832 26.5696-13.2072 1.0464-11.1632.6048-22.4784 1.1432-33.6656.192-3.9896.7624-7.9512.9496-11.9416.9368-19.9704 1.5304-40.052 2.2048-60.0408.3624-9.2288.5672-18.508 1.4648-27.704l-.212-.4096c-.1152-.2296-.2256-.4608-.3424-.6896-.4624-.908-1.0656-1.8664-1.2288-2.8864-.212-1.3288.3096-2.6488 1.1568-3.6552 2.6232-3.12 7.6128-3.8376 11.464-4.048 3.176-.1728 7.388.1208 9.7448 2.496 2.796 2.8176.2344 4.7312-.716 7.3888-.9088 2.5424.6632 22.4952.712 26.756-.096 16.3744 1.1392 33.0032 1.716 49.3824.5144 14.6064.2872 29.756 1.7704 44.2824 3.8656-1.8152 7.6784-3.772 11.5096-5.6608l2.9656-89.0864c.1792-6.9192 2.072-50.6344 1.3304-52.6712-.3368-.9232-1.1712-1.8464-1.7736-2.6016-.9632-1.2096-1.4416-2.0728-1.2464-3.676.1832-1.5096.8272-2.9576 2.1-3.844 5.1584-3.592 15.4848-3.7555 21.4192-2.4488 1.996.44 4.2856 1.18 5.492 2.9512.8504 1.2472 1.4864 3.1128 1.168 4.6248-.5192 2.4728-3.0224 4.1768-3.3912 6.6648-.6808 4.6.5536 12.596.744 17.6296.5576 14.74 1.164 29.6392 1.1896 44.388.0424 13.0376.7016 26.0704 1.164 39.0984.272 7.6552-.1584 15.6328 1.272 23.1712q5.4664-2.8264 10.9936-5.5312c-.4-17.716 1.688-35.4608 1.5216-53.1776l1.9888-57.912c.2776-7.672-.2808-16.1464.9064-23.6883.0648-6.3782.0296-12.7771.6136-19.1334Z"/>
  <path fill="#5F6990" d="M812.464 538.8288c1.92-.8848 3.672-2.0304 5.456-3.156-.768 2.068-1.48 4.1832-2.32 6.2216l-3.136-3.0656Z"/>
  <path fill="#7A4E69" d="m226.312 177.6384.3424 1.612c2.3768 1.0416 8.788-.7968 11.7776-.784-3.5672 1.3176-7.1224 2.5296-10.776 3.5904l-1.1688-.5248c-.6568-1.4384-.4456-2.3672-.1752-3.8936Z"/>
  <path fill="#FEBBAF" d="M857.48 422.8472c.944.076 2.032.404 2.784 1.0152.992.7976 1.096 1.5104 1.24 2.7024-.48 1.38-.944 1.8984-2.08 2.8008l-.24.3784-.856.1704-1.016-1.1672c-.72-2.196-.336-3.7368.168-5.9Z"/>
  <path fill="#5F6990" d="M379.06 192.2616c-.0312 12.9744.7216 26.6016-.4616 39.5136-.8168-10.3504-.4392-26.5048.22-36.9744-3.548 1.4536-7.492 3.4624-11.3712 3.5072 3.9352-2.2808 7.5112-4.0912 11.6128-6.0464Z"/>
  <path fill="#F3F4EF" d="m625.6536 539.288 4.6416 3.3576c-1.7904.7128-3.6616 1.3424-5.2944 2.3768-1.4736.8512-2.6088 2.1272-3.9216 3.1944-.7896.6408-.8224.9176-1.868.8072-.3592-1.448-.2104-2.728-.0792-4.2024 2.0992-1.868 4.1904-3.9712 6.5216-5.5336Z"/>
  <path fill="#A4C6C9" d="M650.0568 531.8608c.9864.84 1.2496.9024 1.3864 2.2512.632 6.2552-.644 13.7592-1.0816 20.0648-1.088-.9072-2.448-1.8312-3.172-3.0528 1.612-1.4064 2.572-16.3152 2.8672-19.2632Zm41.8112-86.5528.9064-3.9872c2.092-1.3752 16.268-.8144 19.2856-.408-.5184 1.588-.412 1.8176-1.8896 2.7368-3.6488.5272-14.228-2.72-15.9264-1.476l.3992.7248c-.1568 1.4424-.2376 2.9448-.6424 4.3392l-2.1328-1.9296Z"/>
  <path fill="#7E94BA" d="M233.4008 114.1752c1.9896-.1176 4.6808-.5488 6.5928.0192 1.3272.3944 3.1856 1.1392 3.8336 2.4208l-.4808.8184c-1.8936.7008-3.6064.3192-5.5536.0632-2.9576-.0544-6.2016 1.1624-9.044.7944-1.0064-.1296-1.1984-.2096-1.7848-.9664l.3936-.8688c1.964-1.052 3.9176-1.6544 6.0432-2.2808Z"/>
  <path fill="#647095" d="M682.5488 523.3984c.3424 1.248.3944 1.9872.1688 3.2656-.0216.1232-.0472.2456-.0704.368l1.1808.7816-.2808-.0672c1.9936-4.3312 2.6328-9.608 3.3088-14.3136l1.6352.7424c-.0256 7.2848-1.8112 16.7744-6.28 22.752-.4576-4.1512.3016-9.2528.3376-13.5288Z"/>
  <path fill="#A4C6C9" d="M273.856 84.1584c4.8224-.5792 10.1608-.6272 14.4448 1.9872l.1296.76c-1.9768 1.1464-3.9024.4216-6.0424.0088-.1024-.0112-.2048-.0248-.308-.0344-.1712-.016-.3424-.0272-.5136-.0432-4.1184-.3752-11.8336 1.716-15.1792.0848l.2696-.8648c2.1472-1.3 4.7568-1.488 7.1992-1.8984Zm595.456 368.2632 1.64.836c-.08.3096-.128.688-.304.9568-4.584.9112-25.256 5.6968-27.968 7.876l-.168-.7992.032.6848-.448-.2512c2.016-1.8584 5.48-2.6528 7.16-4.588 6.696-1.5912 13.328-3.2688 20.056-4.7152Z"/>
  <path fill="#F3F4EF" d="M632.2664 543.7664c1.6104 1.708 3.7712 2.8664 5.7424 4.1184-4.1472 1.436-7.3304 2.8976-10.4848 6.0016l-3.2376 3.4088c-1.4672-1.8904-2.7232-3.916-4.0072-5.9336 1.6496-1.7712 3.5616-3.3656 5.356-4.9928 2.1256-1.4 4.0456-2.4464 6.6312-2.6024Z"/>
  <path fill="#F9827A" d="M824.304 737.636c.144-.172.296-.3408.44-.516.656-.792.88-1.6816 1.144-2.652 2.64-1.3792 11.032.1632 13.92 1.244 1.208.4552 1.568.768 2.144 1.9064-.208.6624-.392 1.3568-.664 1.9944-.016.6272-.216.7512-.552 1.26-1.568.8264-3.112.9136-4.848.9072-4.072-.0136-8.704-1.176-11.584-4.144Zm83.928-11.2784c4.104-1.4296 12.016-4.2632 14.976-7.3656.768.7352 1.336 1.4944 1.824 2.4456.72 1.3952 1.328 3.0312.848 4.5728-2.704 2.8832-8.632 5.1736-12.6 5.3136-1.624.0568-2.536-.2968-3.856-1.2104.152-1.5672-.392-2.468-1.192-3.756ZM322.6888 53.8363c3.4296.114 8.6384-.1755 11.1664 2.5575 1.6064 1.7368 1.1904 3.7981 1.1048 5.979-.7712-.3734-1.5464-.7369-2.344-1.052-5.7912-2.2885-13.492-1.6346-19.1224.7837l-.9032-2.9391c.2192-.9912.4112-1.9632 1.016-2.8044 1.4528-2.02 6.7016-2.2079 9.0824-2.5247Zm327.8824 697.8933c.9504.0352 1.9944-.02 2.924.168 3.4008.8064 6.7856 1.5208 10.3016 1.3992.2736 2.3192-.092 4.9856-.2104 7.336-9.3416.248-19.2744-3.2744-27.4544-7.6832 4.6-.2232 10-.0768 14.4392-1.22Zm64.9152-10.8576c4.4688-1.0336 8.9272-1.4176 13.488-1.7096 1.2648 2.1608 1.4368 4.8552 1.812 7.2944-.6048.6344-1.1552 1.2312-1.9424 1.6448-3.232 1.6976-17.3776-1.3568-21.0736-2.7384-1.2968-.4848-1.9184-.6688-2.524-1.8952 1.8448-2.2512 7.4192-2.2808 10.24-2.596Z"/>
  <defs>
    <linearGradient id="a" x1="1062.3326" x2="1049.9827" y1="703.6473" y2="697.5316" gradientUnits="userSpaceOnUse">
      <stop offset="0" stop-color="#B46B73"/>
      <stop offset="1" stop-color="#AC8990"/>
    </linearGradient>
  </defs>
  <path fill="url(#a)" d="M1064.39 683.214c.1-.015.21-.019.31-.043 2.14-.507 3.34-1.073 5.53-.426-2.5 9.524-4.78 24.383-13.35 30.422-4.01 2.443-7.94 4.237-12.69 4.627-5.25-.158-9.66-.182-13.8-3.879 3.9.278 9.87 1.359 13.19-1.028 5.67-.816 10.29-4.659 13.62-9.131 3.7-4.954 8.1-14.271 7.19-20.542Z" transform="scale(.8)"/>
  <path fill="#F9827A" d="M685.1456 461.6296c1.6-2.3104 3.4072-4.8392 5.3712-6.852.9344-.9576 2.0496-1.8936 3.4352-1.9392l1.1248 1.8688c.848 1.3296 1.7664 1.8592 3.2984 2.2648 2.9712.7872 6.012.1592 8.8568 1.524l.7528 1.7048c-.2496.5984-.348 1.3976-.9656 1.6584-4.6656 1.9672-10.0472 2.036-14.828 3.8248-2.18.372-4.496 1.2928-6.624 1.9456-.208-1.9936-.3008-3.9992-.4216-6Z"/>
  <path fill="#B67281" d="M688.688 528.5328c.2568 8.4-5.9424 26.3456-8.6064 35.024-.9904 3.2264-2.316 6.5456-2.856 9.876-1.2288-.1096-2.4408-.532-3.6272-.8584 1.9232-9.7312 4.8768-19.2552 6.7672-29.036.688-1.868 1.5936-3.6352 2.4648-5.4232 2.3848-2.3176 4.2584-6.6088 5.8576-9.5824Z"/>
  <path fill="#F3F4EF" d="M693.4216 467.0008c4.8632-1.16 12.6536-4.0712 17.4416-2.2104.9976.9952 1.0664 2.2208 1.3112 3.5464-5.2704 2.6312-10.9488 3.432-16.436 5.3472-4.9328.8472-10.0376 3.0096-14.7464 4.7104.0616-2.9272.2112-4.6776 2.1536-6.9584 3.3784-1.7912 6.6832-3.156 10.276-4.4352Z"/>
  <path fill="#7E94BA" d="m663.6432 431.536-.7904-1.0264.5624-.476c18.9512 3.1616 38.3816 6.0768 57.552 2.9592-.3432 1.4832-.8072 2.464-2.128 3.3208-1.5592 1.012-3.9608 1.2536-5.7728 1.5992-11.4528.932-26.052 1.1776-37.2328-1.7296l.3272-.9496c-.7824-.8408-10.6104-3.0216-12.5176-3.6976Z"/>
  <path fill="#F9827A" d="M606.6264 524.5656c2.6984.4256 5.5776 5.6464 7.992 4.3792.14-1.0856.0976-1.8024-.1584-2.8664 1.7792.1912 2.7976.26 4.0064 1.7752.748.9376 1.4296 1.9408 2.1096 2.928 1.3808 2.4344 2.7816 4.7848 4.4064 7.0656-2.5408 1.8688-4.7752 3.8032-6.9768 6.0624-3.9432-2.488-8.2152-4.8936-11.7768-7.896-.684-.6336-1.2584-1.1824-1.6328-2.0616-1.0472-2.4592 1.1832-6.9384 2.0304-9.3864Z"/>
  <path fill="#F3F4EF" d="M682.5488 523.3984c-.3776-9.2944-4.3584-21.6152-12.4256-27.0776-1.9544-1.3232-5.132-1.9096-6.652-3.544.4512-.552.492-.7288 1.1912-.9976 4.1384-1.592 7.4808-.6088 11.2832 1.1832 5.004 4.6368 10.6912 11.4952 10.9528 18.7064.0216.5888-.0064 1.176-.0424 1.764-.676 4.7056-1.3152 9.9824-3.3088 14.3136l.2808.0672-1.1808-.7816c.0232-.1224.0488-.2448.0704-.368.2256-1.2784.1736-2.0176-.1688-3.2656Z"/>
  <path fill="#A4C6C9" d="M842.84 409.5272c3.376.188 9.776.7576 12.544 2.7128l-.04 1.492-.752.42c1.696.6592 3.568 1.2256 5.184 2.0408 5.264 2.1656 12.6 4.564 17.112 7.9728 1.504.8872 2.68 1.4664 3.504 3.0728l-.072.8152c-2.664.7696-7.144-2.4184-9.92-3.0024-1.6-1.468-4.04-2.376-6.008-3.2888-13.904-6.4496-28.944-7.2648-43.992-7.2472 1.912-1.3512 4.48-1.0352 6.464-2.4344 1.984-.0392 4.16-.2128 6.016-.9024 2.856-.004 5.84-.1696 8.656.2776 1.592-1.0424 3.144-.676 5.008-.6576l-4.16-.864.456-.4072Z"/>
  <path fill="#2D1735" d="M842.84 409.5272c3.376.188 9.776.7576 12.544 2.7128l-.04 1.492-.752.42q-3.184-1.0192-6.456-1.6952-3.272-.676-6.6-1.0008c1.592-1.0424 3.144-.676 5.008-.6576l-4.16-.864.456-.4072Z"/>
  <path fill="#F9827A" d="M228.3296 121.7568c4.8336-.6256 8.7064-.8496 13.4936.0408.1168 6.3832-.7024 16.9032.7856 22.8432-.0832.1176-.7752.6696-.9104.7064-1.0496.2872-2.9616.0576-4.1104.1352-3.3912.2288-6.5008.8088-9.752 1.7848.0072-8.3472 1.3136-17.2568.4936-25.5104Zm444.0472 316.7416.0784-.4624c1.156-.6352 1.9704-.1416 3.228.1456 3.7472.8096 7.5064 1.4472 11.288 2.0648l.776 9.5808c1.5-1.4496 2.8248-2.88 4.1208-4.5192l2.1328 1.9296c-2.664 4.772-7.4096 9.2944-11.6608 12.744-3.1808.2208-6.248.6928-8.9096-1.4832-.8384-.6856-1.3832-1.5808-1.9392-2.492-.0992-.1624-.2056-.32-.3016-.4848-.916-1.5832-.788-3.2952-.7632-5.0608-.5008-1.9696-.8144-2.1784-2.3376-3.5656l.2128-1.5728c2.1032-1.4392 3.0848-4.564 4.0752-6.824Z"/>
  <path fill="#647095" d="M806.224 513.3024c.904-2.416 2.808-6.208 5.264-7.288 1.128-.4944 2.336-.4808 3.44.0624 2.392 1.1744 3.256 4.3584 4.168 6.6576 2.032 2.476 1.512 6.5488 1.232 9.5664-.336 3.5448-.968 6.9952-1.648 10.4856-.264.9184-.688 1.9368-.76 2.8864-1.784 1.1256-3.536 2.2712-5.456 3.156-1.928-2.4408-3.64-4.8128-5.144-7.5408-1.808-6.9496.28-13.344-1.096-17.9856Z"/>
  <path fill="#F9827A" d="M168.6712 321.4152c8.0776.2024 16.2192 1.4176 24.2488 2.304l.0736 10.4272c-1.9024.5648-3.7768 1.2592-5.6536 1.9032q-9.1928 3.0488-18.236 6.5144c-.5504-7.0152-.3992-14.1144-.4328-21.1488Z"/>
  <path fill="#647095" d="m902.496 480.1384 1.8.5456c1.224 1.6088 2.856 3.7312 2.68 5.8632 1.824 2.1224 8.704 22.5224 8.352 25.2328-.008.112-.048.2192-.08.3288 2 3.16 3.664 10.8936 2.792 14.5328-.04.1696-.096.336-.144.504.752 2.3176.92 4.0144-.232 6.224-.128.252-.272.5016-.416.7432.128 2.3408-1.648 6.0496-3.32 7.692-.408.3976-.832.56-1.352.7632.032-.1512.08-.2992.104-.4528.344-2.672-1.64-13.588-3.312-15.5816.216-.5344.376-1.0088.36-1.5968-.112-3.9904-2.92-23.3296-5.312-25.7792.184-.5248.344-.9688.352-1.5336.008-2.7584-1.016-7.5464-2.88-9.5432 1.088-2.6024-.584-5.1904.608-7.9424Z"/>
  <path fill="#F9827A" d="M276.584 90.1472c2.6816-.1776 5.4768-.2552 7.9448.9456 2.2088 2.6664 1.7528 22.1472 2.3784 27.3264-2.4608-.6608-4.684-1.0376-7.2296-1.1616-4.028.1848-7.46 1.0144-11.2552 2.3568.4288-9.1624.94-18.2472.9528-27.4272 2.4-.9312 4.684-1.5464 7.2088-2.04Zm-49.1856 65.8912c.056-1.2128-.0824-3.1136.632-4.0984 1.3048-1.7992 4.3424-2.816 6.4736-3.0616 2.4408-.2816 6.6728-1.0648 8.6552.52-.8016 7.4256-.5584 22.7648.6568 30.2336-1.7688-.5824-3.5528-.8592-5.384-1.1656-2.9896-.0128-9.4008 1.8256-11.7776.784l-.3424-1.612c.616-7.1496.7936-14.4296 1.0864-21.6Z"/>
  <path fill="#647095" d="M928.344 728.1168c1.832 1.3696 4.536 7.252 5.032 9.5648.016.0976.008.1992.016.2984-1.552 1.6384-3.912 2.6488-5.928 3.6488-6.128 3.0432-12.64 5.2808-18.88 8.0824-5.664 2.5424-13.512 8.0312-19.36 9.1152-.824-.6152-1.136-1.3552-1.344-2.3776-.32-1.6032.456-3.2032 1.408-4.432 2.76-3.5384 13.472-8.7088 14.264-11.3024.44-.2264 1.024-.4888 1.4-.84 1.264-1.1904 1.208-3.064 1.352-4.6832 8.64-2.8128 13.008-1.2688 21.664-7.004l.376-.0704Zm-87.488 29.8664c-5.424-.4024-37.824-7.0152-42.1904-9.2928-1.5056-.7856-2.2496-1.5432-2.7864-3.1424.1896-1.6016.4616-1.9176 1.3672-3.1904 4.6336-2.684 18.4976-3.3408 24.2576-4.1016 1.328 1.0088 3.32 2.5248 3.904 4.1096 5.2.6312 10.256 1.0952 15.512.8344l.984 1.2936c.264 3.5496.968 10.5488-1.048 13.4896Z"/>
  <path fill="#F9827A" d="M228.5304 183.2088c5.4696-1.3552 9.9952-1.9216 15.436-.1712.78 10.616.8264 21.464 1.0104 32.112-7.416-1.2232-12.8848-.1328-20.0208 1.8632.8144-6.8752-.0432-28.0896 1.4704-32.2216.4016-1.096 1.1232-1.156 2.104-1.5824Zm46.7512-62.0104c3.92-.2944 7.744-.1808 11.6104.532.08 11.1192.584 22.2328.668 33.3576-3.0816-.932-6.0184-1.1112-9.2192-1.1392-3.9264.2696-7.532 1.0768-11.2256 2.424.9576-10.8448.9472-21.888 1.444-32.7736 2.2192-1.0192 4.368-1.756 6.7224-2.4008Zm-41.0632 97.0456c3.7512-.2832 7.4688-.7888 10.576 1.8464.18.1528.3536.3136.5304.4704q.3056 11.2472.3104 22.4984c-5.5184 2.7384-11.0112 5.6248-16.6456 8.1136l-5.5728 2.9c.0472-4.6864-.0584-9.4224.5192-14.0792-.0664-6.3408.4608-12.7112.5944-19.0576 3.1048-1.4064 6.352-2.096 9.688-2.692Z"/>
  <path fill="#F3F4EF" d="m238.2008 269.012.5792.0544c.1936.232.5096.4032.5824.6968.6568 2.652.004 7.836.0096 10.6848l.012 37.768q-5.864 2.052-11.7648 3.9952l-1.1784-.3144c-1.4672-4.3864-.5192-40.3928-.5136-47.7472 3.8752-2.0848 8.18-3.5312 12.2736-5.1376Z"/>
  <path fill="#F9827A" d="M827.848 432.5624c2.904-1.8648 5.248-9.1944 6.144-12.4984.048-.1656.088-.3328.128-.4992l.552-.056.12.3272c.472 1.2512.704 2.4344.896 3.7536.92 1.048.904.9552 2.296 1.1008l.88-.6584c.112-1.172.2-2.24.632-3.3528l.376-.2336c2.36.3792 4.864.6664 6.936 1.9472.096.1784.208.3528.304.5344 1.464 2.8168-1.28 5.972 2.088 8.0192 1.504-.12 2.664-.6192 4.048-1.2056.92.48 1.184 1.0424 1.464 2.052.152.5272.176.796.248 1.3072 3.368 1.884 4.784 5.548 8.984 5.972 1.896.0608 3.784.1008 5.672.3136.592 3.1928 1.408 7.1144.232 10.2248-7.072 2.0168-14.288 3.0856-21.272 5.5168.032-3.0344.584-7.3224-.824-10.0456.76-.5088 1.208-.9968 1.744-1.748 1.88-2.6328 4.592-6.3496 4.024-9.6248l-.512-.1056c-3 4.98-6.672 10.388-12.752 11.8104-1.912.4472-4.28.348-6.016-.6696-.696-.4112-1.256-1.0032-1.872-1.5144-.304-.2464-.616-.4744-.928-.708.368-1.9344 1.712-3.1864 2.848-4.748l-.248-.7488-1.704-.46c-1.208-1.9096-3.504-1.5808-4.488-4.0024ZM267.564 199.1296c5.9312-3.6664 13.8408-3.7952 20.4296-2.4016l-.0112.2168c1.6664 5.0128 1.3984 19.9248 1.092 25.5888-8.3104 3.3848-16.1184 8.0664-24.4608 11.2704.0816-5.3568.164-32.6144 2.1888-34.9664l.7616.292Zm-.4904-38.868c7.5064-2.712 12.448-2.8896 20.296-2.0256.08 7.476 2.124 29.4928.7696 35.0968-7.24-1.744-15.1504-.6944-21.9128 2.3648-.4536-3.924.0064-8.2464.1272-12.196l.72-23.24Z"/>
  <path fill="#F3F4EF" d="m273.2752 252.5624.4496.6968.0536-.4304c1.0008 4.7048.6216 48.2664-.2384 53.6616l-14.9104 4.7336c-1.2216-1.3712-.6336-46.2776-.6304-51.7544 4.9576-2.5128 10.2136-4.5936 15.276-6.9072Zm36.8808-17.0472.284.0872c.1816.224.4632.396.5456.6728.7336 2.4512-.0176 49.5128-.0288 56.4968-5.5872 1.4864-11.1136 3.7232-16.576 5.636-.9256-.8968-.6944-1.5768-.7656-2.8328l-1.3624-.2392 1.3384-.2552c-.9048-17.0168-.1872-34.368-.164-51.4144 5.4424-2.9288 11.1584-5.468 16.7288-8.1512Z"/>
  <path fill="#F9827A" d="M830.864 404.5856c4.448-3.1264 5.384-9.2592 11.808-12.5456 6.744-3.4464 14.792-3.588 21.896-1.22 4.976 1.6592 10.528 4.9424 12.936 9.8096 4.128 5.892 4.904 13.1824 3.856 20.1848-.088.5888-.248 1.1704-.416 1.74l-.304.84c-.608-.0888-1.232-.1592-1.832-.2864-.072-.144-.104-.3096-.208-.432-2.44-2.9312-11.88-6.7856-15.72-7.5608-1.56-1.5984-5.328-2.3824-7.496-2.8752-2.768-1.9552-9.168-2.5248-12.544-2.7128-2.184-1.3352-7.464-.7816-9.984-.7448-1.216.0448-1.648.2416-2.664-.4824.36-.9976.816-2.0216.736-3.1032-.016-.2048-.04-.4072-.064-.6112Zm-667.296-82.5512.7992.1272c1.5016 2.0504.4192 18.4648.3504 22.0528-15.5296 5.2896-30.968 10.9368-46.6136 15.8736l-.8712-.2896c-.6928-6.0144.3432-12.296-.1424-18.4136 15.268-6.8624 31-12.9536 46.4776-19.3504Zm145.6608-150.2912c10.6984-2.7328 18.4096-3.58 29.2168-.9144-.5 8.8392.412 17.7624.18 26.6136-10.1896 4.7336-20.4192 9.4232-30.0848 15.1752-.0344-4.3144.0424-8.6632-.1128-12.9736l-.0528-.4496c.5472-9.1312.6288-18.3064.8536-27.4512Z"/>
  <path fill="#F3F4EF" d="M534.4632 269.2616c8.5928 2.712 17.26 5.2888 25.7304 8.364q.1536 19.952-.0376 39.9032c-4.0928.548-20.6984-4.8464-25.6504-6.2272-.3624-13.9824-.0432-28.0488-.0424-42.04Z"/>
  <path fill="#F9827A" d="M316.1344 64.7531c6.5848-1.1862 12.3552-1.0999 18.7224 1.0347 1.3856 2.197 1.6216 41.9954 1.7552 48.0938-8.612-3.1048-16.784-2.1712-25.356.572.3288-15.756.3624-31.8944 1.4464-47.5949.9704-1.2492 2.02-1.4997 3.432-2.1056Z"/>
  <path fill="#F3F4EF" d="m351.4288 216.548.0664.436.472-.2696c1.0432 3.0488.0648 53.1096.0288 61.028-6.3024 1.8544-12.5064 4.404-18.6496 6.724l-.516-.2176c-1.3448-3.5776-.4208-50.8624-.3936-58.8184 6.208-3.2224 12.4352-6.4224 18.992-8.8824Zm152.0544 43.092c9.2456 2.3296 18.448 5.7536 27.6064 8.4928-.2776 14.2152-.0712 28.4704-.084 42.6904-9.2472-1.948-18.3856-4.5304-27.6888-6.1768l.1664-45.0064Z"/>
  <path fill="#F9827A" d="M310.7064 118.1856c8.908-3.6808 16.8152-3.3584 25.8264-.6136.7016 16.7576.9032 33.5352 1.6344 50.2856-8.9304-4.6424-19.4872-2.568-28.6864.2328.2208-16.6376 1.064-33.2648 1.2256-49.9048Zm356.6184 299.8008c2.8848-4.0224 3.9304-8.1248 7.824-11.6816 5.46-4.9888 12.432-7.672 19.8488-7.3136 8.7776.4232 14.8896 4.484 20.6512 10.7912 1.0808 1.8736 2.2448 3.6576 2.7568 5.7792 1.2368 3.568 1.4072 7.4672 1.5176 11.2192-.1984.76-.36 2.3768-1.0192 2.8016-5.6968 3.6744-45.3712.2048-52.4696-1.9072l-.608-.8552c-.0968-3.0136.7816-5.932 1.4984-8.8336Zm-288.34-237.3888c-.2976 2.7448-.1208 5.3152.1176 8.0576-8.8296 6.336-24.6552 12.5792-34.7736 17.668-25.5696 12.8592-51.0032 26.0936-76.8368 38.4136-13.604 6.488-27.1784 12.9624-40.6728 19.6824-6.008 2.9928-12.736 5.8056-18.344 9.4416-3.9704 1.8504-7.9 3.5984-12.0216 5.0944l.0296-7.2632c22.8296-12.2424 46.492-22.896 69.5488-34.6832 9.7512-3.2376 22.4904-11.3824 32.208-16.1584 26.9936-13.2664 54.296-25.896 80.7448-40.2528Zm4.7088.1232c2.0952.9272 4.1568 1.7416 6.3384 2.4448l103.9992 40.8248 55.3072 21.4432c8.3904 3.3472 17.0824 6.4072 25.232 10.2816-.0736 1.2496-.1384 2.4704-.0928 3.7216.0312.8688-.0992 1.356-.5072 2.1432-2.08.2528-4.3088-1.5232-6.4152-1.8192-6.9872-3.5912-15.288-6.324-22.7368-8.88-5.7584-3.2496-13.5256-5.1136-19.8112-7.188-3.9496-2.1176-8.748-3.4992-12.9584-5.0984-10.3216-3.9176-20.6888-7.5928-30.8752-11.864-5.6816-2.3208-11.3536-4.6288-17.128-6.7088-7.2528-3.592-15.676-6.156-23.2488-9.0504-19.2568-7.36-38.6664-14.2328-57.836-21.8248l-.2-1.74c.068-2.2552-.044-4.6032.9328-6.6856Z"/>
  <path fill="#F3F4EF" d="M860.904 654.1752c2.704 1.2208 7.2 9.676 7.992 12.5104.152.5392.08.9064.008 1.4496 2.288 1.6456 5.208 7.3144 6.016 10.1008 2.584 3.5528 22.136 39.1568 22.08 40.8568-.008.1408-.056.2776-.08.416-3.816.8056-19.936-2.108-25.352-2.3128-5.936-.2256-16.112 1.484-21.08-.0608.112-.172.24-.3352.336-.5176 1.016-1.9032 1.072-3.8232.328-5.804.296-.356.448-.4944.664-.8816 1.256-2.3 5.36-31.2792 4.68-33.6824 1.528-2.16 4.192-18.3768 4.408-22.0744ZM447.0776 238.1216c10.5264 3.4096 20.9136 7.3008 31.3176 11.068q.288 24.776.2072 49.5528c-10.3976-3.0688-21.0208-5.4856-31.548-8.0776l.0232-52.5432Zm240.088 394.5064c3.4552 12.0064 5.4864 24.236 8.3384 36.3752q7.008 29.8152 15.6608 59.1944c-8.868-.4648-17.4072-1.676-26.344-1.6856-2.9064-.0032-9.908 1.2688-12.0384-.1848 3.4104-31.3512 6.8392-63.0432 14.3832-93.6992Z"/>
  <path fill="#A4C6C9" d="M520.7848 367.3952q19.632 3.0616 39.1904 6.5616c.2576 8.0328 1.324 39.2232-.252 45.3896-12.592-1.096-26.4448-.224-39.1736-.22q-.084-25.8672.2352-51.7312Z"/>
  <path fill="#F3F4EF" d="M407.7288 224.3104c11.884 4.3624 23.9208 8.312 35.7784 12.7248q.1896 26.1816-.4656 52.3552c-11.7912-2.4592-23.5416-5.724-35.2728-8.5048.2464-18.812-.8232-37.8056-.04-56.5752Z"/>
  <path fill="#A4C6C9" d="m520.6152 423.1792 39.2264-.1088c1.5776 9.6952.276 22.7392.5312 32.9064-.5056 6.3072-.264 12.8192-.3288 19.1552-13.132.5616-26.3776 2.1536-39.4424 3.604l.0136-55.5568Z"/>
  <path fill="#F3F4EF" d="M661.5776 494.7192c4.4672.4496 8.056 2.4024 10.896 5.8632 6.8888 8.396 8.4 22.124 7.3136 32.5424-.4584 4.3872-1.2808 8.7232-2.1344 13.0472-2.1928 9.264-5.3096 30.108-13.5392 35.0232-3.28 1.9592-7.264 2.0488-10.8632 1.0384-1.7648-.4952-3.4832-1.1848-5.1896-1.8496-8.6112-7.4016-15.8232-11.712-22.2872-21.7664 1.0552-1.4072 2.2896-2.7088 3.448-4.0328 3.14-2.9392 6.1136-4.2632 10.1048-5.7672 2.7672 1.6304 5.1408 3.5184 7.592 5.5888.5824.98 1.896 1.6896 2.4376 2.7336.892 1.72-.6592 3.8608.7552 5.8552l1.1272.1224c.2264-.328.536-.612.6776-.984 1.0992-2.8784 2.3232-29.328 2.8208-34.8672.6072-6.7496 1.5432-13.3352 2.7816-19.9968 1.0208-4.332 2.4616-8.4104 4.0592-12.5504Z"/>
  <path fill="#647095" d="M898.072 611.9456c1.576 3.5976-.672 29.6672-.104 36.6888.368 4.5576 4.936 10.2048 4.44 14.4888 2.448 3.548 15.712 33.7928 15.432 35.6208-.024.1704-.064.3376-.104.5056 1.56 2.2488 4.008 7.2952 4.048 9.9784.952 1.3168 2.096 3.368 1.76 5.0504-.056.2544-.128.5056-.208.7512-1.624 2.7912-14.84 8.8104-18.304 9.7296-1.312.3488-1.512.1008-2.664-.5016.024-.2504.096-.5016.072-.752-.232-2.3896-24.032-44.2328-26.064-45.828.04-.2504.136-.6792.12-.96-.144-2.3504-6.248-13.9912-7.944-15.7248 6.056-4.344 27.32-40.64 29.52-49.0472Z"/>
  <path fill="#F3F4EF" d="M591.4112 483.7576q25.192-3.4856 50.4824-6.1624c3.4984 6.0632 14.6472 21.6088 14.0328 28.2024-2.7112 4.2744-1.3672 10.4696-3.8064 14.8584-1.8808-1.3008-5.2824-4.2968-7.4544-4.548-.9.352-.8992.372-1.3896 1.2096-.204 3.4864 1.8472 9.2888 4.1592 11.868.7368.8224 1.5752 1.5728 2.3912 2.316l.2304.3592c-.2952 2.948-1.2552 17.8568-2.8672 19.2632l-.7944-.0928c-2.604-3.5624-8.8008-6.4056-12.588-8.8096-6.3032-5.2304-6.6416-4.9104-11.0064-12.004-2.3416-3.512-5.1552-6.108-8.9744-7.896-.9504-2.0976-2.0224-4.1552-3.0408-6.2208-1.6032-3.8032-4.2704-7.5368-6.3872-11.112-4.2208-7.1288-8.3304-14.376-12.9872-21.2312Z"/>
  <path fill="#5F6990" d="M830.864 470.6392c3.576-.0912 8.488 1.3232 11.088 3.8864.288.2872.232.2464.464.5928 5.536 3.7848 10.152 13.4768 11.376 19.9384.216 1.1312.288 1.9864-.008 3.1072 1.104 2.6976 1.336 9.1408.232 11.9096-.072.1872-.16.3696-.24.5552.84 3.9696-3.744 35.5824-5.088 40.8032-.824 3.2152-1.976 6.408-3.808 9.1952-2.712 4.1152-6.44 6.5392-11.096 8.02-.424.184-.536.2512-1.056.3504-6.112 1.1696-7.872-2.2632-12.44-4.8752-.224-.1296-.456-.2536-.688-.38-.816-4.2384-3.808-7.6184-3.872-12.2144-.072-4.94 4.368-10.3808 3.64-14.8152.392-.3768.456-.3936.76-.948 1.808-3.3232 5.808-44.6848 4.272-49.264 1.032-.8888 1.144-1.82 1.496-3.0744 1.136-4.0472 4.36-10.0512 4.968-12.7872Z"/>
  <path fill="#F9827A" d="m162.6448 402.3272.4104.2208c1.2128 3.4016.0392 36.2808.0208 43.0832q-.0264 25.564.2096 51.1264-11.648-2.3408-23.1648-5.2584l-8.132-2.1632c-.4056-26.8584.024-53.7968.0168-80.6632 9.9104-2.3824 20.5368-5.1392 30.6392-6.3456Z"/>
  <path fill="#A4C6C9" d="M467.476 358.2072q17.2256 3.2736 34.5232 6.1448c4.8944.8424 10.1592 1.3312 14.9416 2.5712q-.3928 26.108-.4 52.2192c-16.3304.0848-32.6848.4408-49.0128.1936l-.2992-41.0352c-.04-6.3016-.9384-13.9984.2472-20.0936Zm.0512 64.9768 49.312.0552.1056 35.7864c.0216 6.3096.5528 13.0384-.2608 19.2816-1.3624 1.0928-2.8624.9696-4.5624 1.1584q-22.2392 2.4536-44.5512 4.1184l-.0432-60.4Z"/>
  <path fill="#F9827A" d="M857.312 545.7064c8.8-.1176 45.24-5.6528 50.96-11.108 2.456 2.5928 3.552 18.2192 3.448 22.3208-.016.8088-.192 1.524-.432 2.2912.952 2.1 1.384 3.9584.808 6.2272l-1.128.7176c.944.6536 1.264.6744 1.472 1.8464.544 3.0128.544 6.9424-1.304 9.5096-2.4 3.3392-8.696 5.7936-12.528 7.2272-8.8 3.6952-18.632 5.6216-28.136 6.0256q-1.056.0672-2.112.1032c-12.264.4072-42.936-1.968-51.808-10.6376-1.744-1.7032.328-5.2376.224-7.6016 0-.1144-.008-.228-.016-.3416l.432.0336c.104-.8832.184-1.6192.472-2.468.28-.8136.544-.7296 1.272-1.0968 1.944-.0104 3.744 1.412 5.376 2.3768 3.312 2.9576 6.84 2.9768 11.04 3.1032 3.8-.312 6.944-1.7472 10.152-3.7016 6.856-4.8312 8.68-16.7184 10.68-24.3376l1.128-.4896Z"/>
  <path fill="#F3F4EF" d="M911.288 559.2104c.952 2.1 1.384 3.9584.808 6.2272l-1.128.7176c-21.296 8.4552-56.936 13.4152-79.512 9.5328-.224.0008-.456.0088-.688.004-3.592-.0696-10.976-.776-13.576-3.372.104-.8832.184-1.6192.472-2.468.28-.8136.544-.7296 1.272-1.0968 1.944-.0104 3.744 1.412 5.376 2.3768 3.312 2.9576 6.84 2.9768 11.04 3.1032 3.8-.312 6.944-1.7472 10.152-3.7016 17.008.184 51.032-2.996 65.784-11.3232Z"/>
  <path fill="#F9827A" d="M857.312 545.7064c8.8-.1176 45.24-5.6528 50.96-11.108 2.456 2.5928 3.552 18.2192 3.448 22.3208-.016.8088-.192 1.524-.432 2.2912-14.752 8.3272-48.776 11.5072-65.784 11.3232 6.856-4.8312 8.68-16.7184 10.68-24.3376l1.128-.4896Z"/>
  <path fill="#A4C6C9" d="M411.8824 423.7432c7.5152-.9784 15.2872-.6528 22.8608-.6632 9.5432-.012 19.2096-.1608 28.7352.444q.3064 30.2432.104 60.488c-17.144 1.8352-34.5296 3.8784-51.7344 4.8896.6688-7.6136.1384-15.7848.1392-23.452q.088-20.8536-.1048-41.7064Zm.1984-73.8048C429 352.1448 446 356.292 462.9576 357.7472c1.5864 4.0104.58 53.092.5656 61.4096q-25.792-.188-51.5768.4224c.7352-23.148-.1224-46.4672.1344-69.6408Z"/>
  <path fill="#F9827A" d="M720.652 567.96c.4392 2.18.7552 4.552 1.4464 6.656 1.0512 3.6832 1.7808 7.3416 2.4456 11.1072q1.0832 4.6184 2.0968 9.2528c1.6592 5.42 2.8728 11.0584 5.1512 16.256-18.5616 12.2112-46.628 14.1344-68.192 9.7728-4.9512-1.0016-9.5232-3.044-14.2968-4.608-1.42-.9104-2.9144-1.7944-3.8096-3.2736-2.8944-4.7824.8216-13.8808 2.156-18.8416l2.3048-8.4864c.3216-.4928.5648-.616 1.0544-.9216 1.9152.2352 3.7208.7048 5.58 1.1992 6.3104-.6384 9.6824-2.4336 14.1512-6.884 1.2208-2.188 2.1256-4.2176 2.8584-6.6144 1.1864.3264 2.3984.7488 3.6272.8584 17.0312.8032 27.0264.0256 43.4264-5.4728Z"/>
  <path fill="#F3F4EF" d="m649.9544 585.7952.7216.2816c3.0424 1.2 5.4832 3.48 8.5032 4.4472 16.5408 5.2976 44.7648 4.7904 60.8176-1.9768 1.7016-.7176 3.1432-1.6232 4.5472-2.824q1.0832 4.6184 2.0968 9.2528c-12.4008 7.312-31.8992 8.1448-46.0672 7.2624-6.8368-.4264-28.7496-3.2096-32.924-7.9568l2.3048-8.4864Z"/>
  <path fill="#F9827A" d="M720.652 567.96c.4392 2.18.7552 4.552 1.4464 6.656 1.0512 3.6832 1.7808 7.3416 2.4456 11.1072-1.404 1.2008-2.8456 2.1064-4.5472 2.824-16.0528 6.7672-44.2768 7.2744-60.8176 1.9768-3.02-.9672-5.4608-3.2472-8.5032-4.4472l-.7216-.2816c.3216-.4928.5648-.616 1.0544-.9216 1.9152.2352 3.7208.7048 5.58 1.1992 6.3104-.6384 9.6824-2.4336 14.1512-6.884 1.2208-2.188 2.1256-4.2176 2.8584-6.6144 1.1864.3264 2.3984.7488 3.6272.8584 17.0312.8032 27.0264.0256 43.4264-5.4728Z"/>
  <path fill="#F3F4EF" d="M720.652 567.96c.4392 2.18.7552 4.552 1.4464 6.656-14.728 7.1104-30.6552 8.5856-46.7672 6.7776-.1152-.0128-.2304-.0248-.3456-.0384-1.9992-.2456-2.992-.5416-4.2456-2.1664 1.2208-2.188 2.1256-4.2176 2.8584-6.6144 1.1864.3264 2.3984.7488 3.6272.8584 17.0312.8032 27.0264.0256 43.4264-5.4728ZM590.0576 438.8808c13.6112-.76 27.4984-.1688 41.14-.1672 11.516.0016 23.3536-.6424 34.8384.0128 1.32.0752 2.2688.2048 3.44.8224-.9176 1.4544-2.0632 2.96-2.8192 4.4928-1.0872 1.656-2.3744 3.2656-2.7544 5.24.46 1.5376.6592 2.0488 2.0984 2.788.6064.3112 1.308.5512 1.8776.9176-1.3488.9424-2.6472 1.6472-3.2336 3.268.1216 1.2832.2 1.9656 1.2384 2.8376 1.7424 1.4624 4.1384 2.6664 6.0696 3.9144 3.5904.024 7.184.088 10.7712-.084.1232 2.0336.3744 4.128.1456 6.156l-4.1632 3.824-.0112 5.2672c-4.6792 2.5816-8.768 5.2224-12.4992 9.0928-1.8584 1.9288-3.4824 4.044-5.4936 5.8232l.8752 1.6328c-1.5976 4.14-3.0384 8.2184-4.0592 12.5504l-1.0808-.2136-.5112-1.2584c.6144-6.5936-10.5344-22.1392-14.0328-28.2024q-25.2904 2.6768-50.4824 6.1624c.3256-1.1504.0784-1.5192-.2712-2.6384l.168-.2696c-.3864-.1584-.736-.4728-1.0744-.7176-.728-4.488-.2456-9.6552-.2384-14.2152l.0624-27.036Z"/>
  <defs>
    <linearGradient id="b" x1="788.1981" x2="775.4429" y1="639.1187" y2="592.0696" gradientUnits="userSpaceOnUse">
      <stop offset="0" stop-color="#1B193A"/>
      <stop offset="1" stop-color="#353A59"/>
    </linearGradient>
  </defs>
  <path fill="url(#b)" d="M739.135 601.062c21.945-2.474 43.903-5.362 65.902-7.284 5.54 9.885 11.449 19.558 16.602 29.654 1.274-2.366 2.435-5.072 4.239-7.074l1.094 2.041c-1.997 5.175-3.798 10.273-5.074 15.688l-1.351-.267-.639-1.573c.768-8.242-13.168-27.674-17.541-35.253q-31.613 3.346-63.103 7.703c.407-1.438.098-1.899-.339-3.298l.21-.337Z" transform="scale(.8)"/>
  <path fill="#F9827A" d="M860.832 459.1864c3.176-.904 6.648-1.6848 9.912-2.0768 2.832 2.2584 4.824 6.876 7.096 9.824 2.848 3.7008 5.944 5.8272 8.368 8.74 3.848 2.1984 8.584 3.0536 12.064 5.1456 1.488 1.8568 2.968 7.0168 2.64 9.4312-.008.1088-.048.2136-.072.3208 1.272 2.8272 2.408 6.9312 2.12 10.0504 1.96 4.7824 5.328 22.292 4.928 27.5128l.4.0608c.288 2.24.752 4.2216-.016 6.4032-5.72 5.4552-42.16 10.9904-50.96 11.108l-1.128.4896c-1.752-.5176-2.712-.0648-4.424.3408-.08.0192-.168.0224-.248.0344 1.392-2.164 1.888-5.9392 1.424-8.4528.168-.1936.48-.5264.616-.7768 1.424-2.6888 2.712-17.8352 2-20.7408.208-.5912.384-1.1072.48-1.7296.584-3.8304 1.592-14.52-.64-17.3536.336-.6584.576-1.188.624-1.9368.24-3.4752-.888-8.3608-3.104-11.0616.016-.5216-.04-.9352-.248-1.4224-1.584-3.6984-7.144-9.4208-10.832-10.8776-1.384-2.0008-3.752-2.9168-5.992-3.6336 4.32-2.8648 8.888-4.5552 13.712-6.3672 3.656-1.2512 7.568-1.9224 11.28-3.032Z"/>
  <path fill="#F3F4EF" d="M860.832 459.1864c6.12 3.6432 16.848 32.088 18.848 39.98 1.64 6.4696 6.32 28.8448 4.36 34.3448 8.056-1.3976 15.952-3.2664 23.848-5.3768l.4.0608c.288 2.24.752 4.2216-.016 6.4032-5.72 5.4552-42.16 10.9904-50.96 11.108l-1.128.4896c-1.752-.5176-2.712-.0648-4.424.3408-.08.0192-.168.0224-.248.0344 1.392-2.164 1.888-5.9392 1.424-8.4528.88-.3 1.8-.4056 2.72-.5592l.904-.5304c6.224-.1952 12.528-.9256 18.736-1.4728 1.912-4.3048-1.208-18.9272-2.072-24.0264-2.928-17.3328-8.584-38.5848-23.672-49.3112 3.656-1.2512 7.568-1.9224 11.28-3.032Z"/>
  <path fill="#A4C6C9" d="M852.936 538.1184c.88-.3 1.8-.4056 2.72-.5592.048.26.096.5184.136.7792.376 2.4008-.776 4.6112.008 6.9832.504.1536.984.3416 1.512.3848l-1.128.4896c-1.752-.5176-2.712-.0648-4.424.3408-.08.0192-.168.0224-.248.0344 1.392-2.164 1.888-5.9392 1.424-8.4528Z"/>
  <path fill="#F9827A" d="M835.84 468.5856c4.32-2.8648 8.888-4.5552 13.712-6.3672 15.088 10.7264 20.744 31.9784 23.672 49.3112.864 5.0992 3.984 19.7216 2.072 24.0264-6.208.5472-12.512 1.2776-18.736 1.4728l-.904.5304c-.92.1536-1.84.2592-2.72.5592.168-.1936.48-.5264.616-.7768 1.424-2.6888 2.712-17.8352 2-20.7408.208-.5912.384-1.1072.48-1.7296.584-3.8304 1.592-14.52-.64-17.3536.336-.6584.576-1.188.624-1.9368.24-3.4752-.888-8.3608-3.104-11.0616.016-.5216-.04-.9352-.248-1.4224-1.584-3.6984-7.144-9.4208-10.832-10.8776-1.384-2.0008-3.752-2.9168-5.992-3.6336Z"/>
  <path fill="#B67281" d="M852.912 484.5192c1.224.0832 1.984-.1352 2.84.8832 5.952 7.08 2.584 40.3808 1.264 49.9848-.08.5816-.24 1.0984-.456 1.6416l-.904.5304c-.92.1536-1.84.2592-2.72.5592.168-.1936.48-.5264.616-.7768 1.424-2.6888 2.712-17.8352 2-20.7408.208-.5912.384-1.1072.48-1.7296.584-3.8304 1.592-14.52-.64-17.3536.336-.6584.576-1.188.624-1.9368.24-3.4752-.888-8.3608-3.104-11.0616Z"/>
  <path fill="#F9827A" d="M714.4072 470.7936c4.6768.7368 8.5736 2.6944 11.44 6.5656 1.84 2.4848 3.4616 5.64 4.3592 8.5904.356 1.1704.58 3.0224 1.1536 4.0368.4952 5.2352.8728 10.2832.1448 15.5304-3.2768 23.64-16.3328 35.5928-10.8528 62.4432-16.4 5.4984-26.3952 6.276-43.4264 5.4728.54-3.3304 1.8656-6.6496 2.856-9.876 2.664-8.6784 8.8632-26.624 8.6064-35.024 2.0336-6.3216 2.7032-12.1672.7392-18.616-.068-.316-.1384-.632-.2208-.9456-1.7632-6.6896-5.9552-14.004-11.984-17.6528-3.1832-1.8944-5.9928-2.156-9.5904-2.3712 4.104-3.0952 7.9464-6.0224 12.7832-7.9072 6.3-2.2632 12.7952-4.0728 19.172-6.12 4.84-.7072 10.1-2.7024 14.82-4.1264Z"/>
  <path fill="#F3F4EF" d="M373.4312 275.472q77.0904 20.8992 154.9136 38.876l32.8856 7.756c3.9944.9328 9.1312 2.8208 13.116 2.908 3.9608 1.3744 8.0912 2.2264 12.1688 3.1808l-.0856 16.664q-67.8024-13.9248-135.3064-29.2328c-25.8008-5.844-51.5696-12.088-77.4872-17.38-.1496-7.588-.0392-15.1808-.2048-22.772Zm-4.4864.152c1.5968 1.8168.6368 19.3896.5584 22.4928-21.4848 7.3624-43.3216 13.7856-65.0024 20.5456q-61.4056 19.3072-123.076 37.7552c-26.3872 7.96-52.3664 17.2512-78.7936 25.0696l-.4376-.3488c-.7496-3.4584-.2528-7.6328-.2-11.1848l266.9512-94.3296Z"/>
  <path fill="#647095" d="M825.52 587.6792c10.232 3.6656 21.152 7.2192 32.216 6.5568 3.696.944 7.888.6264 11.696.5744.568 2.6872-8.248 51.3968-10 54.7888.624 2.9944-1.08 7.7832-1.672 10.8144-1.424 7.3392-5.64 44.5992-7.536 48.2552.128.516.184.656.184 1.26-.04 4.0968-2.976 20.6248-5.376 23.3472-7.624.08-14.68-.832-22.16-2.2632 1.04-4.3176 3.192-141.3344 2.648-143.3336Z"/>
  <path fill="#A4C6C9" d="M819.968 721.0128c1.144-2.7144.8-6.596.848-9.5016.56 6.2568-.688 12.6312-.096 18.7696.28 2.8384 2.704 2.916 2.072 4.7024-6.128 3.96-27.7184.1888-29.832 8.812-.412 1.6816.024 3.264.4608 4.8904 5.252 5.4416 40.7152 9.9632 50.2112 12.7464 2.992-5.4696-1.2-22.2584 1.608-25.6672l2.52.0728c1.904-1.8728 2.936-14.3608 2.888-17.1728-.008-.5088-.08-1.0296-.16-1.5296 4.968 1.5448 15.144-.1648 21.08.0608 5.416.2048 21.536 3.1184 25.352 2.3128 1.92 1.4008 3.128 4.024 3.928 6.2272 1.776 1.7616 3.24 2.0704 5.584 2.5272.76 1.016.896 1.1416.976 2.3912-.328 1.6496-1.856 2.7752-3.008 3.9072-.104 1.5416-.352 2.7896-1.56 3.8592-.336.2984-.592.4656-.976.7432-4.256 4.7776-12.096 5.8872-15.232 12.1136-.976 1.9344-1.48 4.068-.632 6.1208.648 1.5688 1.608 3.196 3.248 3.8288 3.344-.5664 44.768-18.7336 47.984-21.2488-.36-1.2392-.856-1.5752-1.752-2.4752l.104-1.3096c-1.344-3.1048-3.472-8.352-6.112-10.48l-.28-1.1064c.144-.0008.296-.0096.44-.0032 10.424.4672 28.56 8.3992 35.168 16.2272 1.456 1.7328 2.504 3.6608 2.192 5.9912-.472 3.5808-3.696 6.4336-6.488 8.4288-27.352 19.5784-116.608 17.7408-148.904 12.4824-12.2824-2-30.8896-5.628-38.3496-16.564-2.7376-4.0144-2.8712-6.8352-2.0984-11.416q.2792-.3432.5672-.6792c10.0896-11.9104 33.1528-16.8352 48.2488-18.0616Z"/>
  <path fill="#647095" d="M367.4472 198.308c3.8792-.0448 7.8232-2.0536 11.3712-3.5072-.6592 10.4696-1.0368 26.624-.22 36.9744.0024 13.768.2688 27.5936-.1232 41.3536-2.0896-.6072-5.188-1.9168-7.3328-1.7032-5.0448 1.7336-10.2192 3.1672-15.2936 4.836-.3152-9.1384 1.1584-60.8216-.6344-63.752-3.7752-1.1816-21.5552 8.892-26.1928 10.9608.428 7.496.1696 15.088.1472 22.596q-.1136 19.8744-.0184 39.7496c-4.9304 1.3944-9.7048 3.7208-14.5912 5.3568-.0344-9.3992 1.3392-54.9264-1.4096-60.4616l-1.0544-.2592c-6.4656 5.076-14.9232 7.0208-21.8168 11.704.3496 4.3152.3032 56.38-.2928 57.772-.7288 1.7024-10.0432 4.1296-12.2424 4.8592q.2584-17.4448.088-34.8904c-.0224-5.4544.488-11.4608-.3072-16.8504-.2432-1.644-.5408-3.2024-1.8872-4.2112-5.7216 1.1928-15.5616 6.1976-21.5016 8.5088q.5992 27.8608.3112 55.7264c-3.8736 1.3616-7.6952 2.6-11.6832 3.6008-1.2944-12.5536-.2672-26.5096-.2184-39.1952.012-3.1608.6896-8.216-.1736-11.1296-.152-.5112-.2656-.8824-.8176-1.0432-3.38-.9808-15.3808 5.748-19.2136 7.2408.592 17.2176-.0664 34.4744-.372 51.7024-8.304 2.956-16.7576 5.5752-25.1 8.432-.6712-16.2616.212-32.6424-.8528-48.8648 10.3728-7.4248 24.144-12.2944 35.6792-17.8664l88.2864-43.6216c9.0904-4.6032 24.3672-11.0176 32.1936-16.4456 4.9552-2.4824 10.072-5.756 15.2728-7.572Zm15.5792-5.648c14.0368 5.9056 28.5728 10.6656 42.7704 16.1512 5.3608 2.0712 31.224 13.2576 35.0592 13.5416 8.0672 4.648 17.7232 7.104 26.4112 10.4288 13.4376 5.144 26.8952 11.3568 40.7928 15.1264 8.9152 3.4504 18.2896 6.5216 26.9448 10.5336 6.1368 2.276 12.6728 4.0968 18.5928 6.848.3016.4176.8512.9928 1.044 1.4488.9856 2.3424.2488 48.52.2408 54.7312-3.9848-.6632-7.944-1.5032-11.9056-2.2904.176-14.5352.6288-29.1.3488-43.6336-11.7952-6.0264-32.8056-10.6144-46.0904-14.7632-4.5416-1.4184-10.1472-4.324-14.7464-4.9224-1.0368-.1344-.6024-.2352-1.4264.3936-.9576 5.7528-.4464 12.1344-.448 17.9824l-.132 29.8184c-5.708-1.4296-11.6896-2.9208-17.5168-3.6912l-.3792-52.6488c-8.3704-4.488-21.7616-8.0528-31.1376-11.3128-6.8128-2.3696-13.4696-5.2744-20.3288-7.4888-6.3992-2.0656-19.2992-4.1584-24.208-7.9368-.1232-.0952-.2432-.1952-.3648-.2928l-.9776.1208c-2.2632 4.2432-1.3856 49.6376-1.7824 58.948-6.9104-1.8976-13.9584-3.4352-20.9232-5.1312-.3936-15.3216-.0056-30.7272-.112-46.0648-.0824-11.7352-1.0264-24.2368.2744-35.896Z"/>
  <path fill="#F3F4EF" d="m411.7136 494.5016.256-.9656c.3488-.304.4936-.4792.9888-.6344 2.5408-.7976 6.3088-.6112 9.0432-.8528l22.2184-2.0792c14.7184-1.3864 113.0032-11.7864 115.576-10.6968l.3904 1.2464c-.3056 8.6128-.1648 17.2528-.1552 25.8696.0064 5.4256-.3112 11.0872.1376 16.4848-6.6456.2136-13.332 1.6968-19.8648 2.8752q-15.072 2.7136-30.104 5.6424l-75.5496 13.9992c-4.2424.8224-20.2992 5.0504-22.8376 4.3072.8848-6.8648.2624-14.4968.244-21.4296-.0296-11.2056.3064-22.5864-.3432-33.7664Z"/>
  <path fill="#F9827A" d="M374.7544 302.7168c23.8624 4.872 47.6856 10.6392 71.4632 15.9648l91.3488 20.0208c6.5656 1.4456 44.7112 8.756 48.2232 10.7128.9464 1.6288.804 2.6688.8536 4.4792-.6872 19.6072-.1536 39.3872-.124 59.0136.0352 22.8624-.3488 45.7856-.0416 68.6384l-.0464.7344c-1.2688 5.5872-.396 28.7888-.3968 35.9008q-11.0016 2.1672-22.0256 4.2208l.3176-99.3232c.0328-17.444-.5008-34.936.1096-52.368-9.4152-2.7464-21.9184-3.9392-31.6872-5.62q-38.8712-6.756-77.8856-12.6224c-9.9752-1.5336-19.9048-3.4056-29.88-4.9688-5.76-.9024-11.6112-2.064-17.46-1.9448.2616 14.1904.032 28.4184.1024 42.6136l-.1328 162.2552c-10.956 2.3296-21.9704 4.1672-32.9064 6.6568-.7392-43.9992-.004-88.1056-.0656-132.1176l-.0264-74.4656c-.0008-15.9176-.2216-31.8704.26-47.7808Z"/>
  <path fill="#A4C6C9" d="M953.872 315.6056c10.856 6.0928 28.512 50.5296 32.176 63.7224 8.632 31.036 10.352 61.488 6.248 93.3928-.64 5.0048-1.36 14.2784-3.776 18.5936-.144.2536-.416.5736-.584.7856-.16-.9848-.368-1.2112-1.2-1.7064-4.176-2.4896-9.56-4.084-14.128-5.8312q-17.632-6.5768-35.408-12.7744c-3.864-1.3072-14.296-3.5976-16.84-6.184.408-.3784.448-.38.816-.8936 1.8-2.4736 1.192-6.5968.664-9.4248-2.288-12.1384-15.032-17.3656-26.016-19.012-6.04-.9056-13.944-.0864-19.104-3.7144-.568-.3944-.552-1.608-.672-2.2904 1.296-.0112 2.744.0552 4.016-.1992.896-.1784 1.936-.8464 2.384-1.6392.824-1.4416.352-3.8616-.072-5.384 1.904-2.2832 1.592-7.4008 1.328-10.2544-.36-3.8984-1.328-10.036-4.496-12.6544.128-1.776-1.568-3.8664-2.712-5.1784-4.584-5.2408-13.168-7.9112-19.936-8.2848-6.656-.368-14.552 1.324-19.608 5.912-3.584 3.256-5.392 7.6728-8.08 11.568-.544 2.0808-1.096 4.6824-3.128 5.816-.936.5224-2.128.8376-3.144 1.1656-3.072.5624-6.848 2.0456-9.864 1.9608l-1.344 1.3872c.288.8344.12.892.976 1.3296 4.48 2.2792 14.784.4864 18.464 2.7488.984 3.632-1.216 7.8032-3 10.8944-.448.7632-.832 1.4152-1.48 2.0304-.6 1.6784-1.024 2.2184-.56 3.9784 1.4 1.1664 3.056 1.2576 4.144 2.7536l.024.928.328 5.0416c1.936 2.1448 4.032 4.4736 7.16 4.5144 2.624.0336 5.088-1.1832 7.664-1.1776.8 2.8432 1.208 5.46.472 8.3616-.656.82-1.072 1.016-2.064 1.3432-4.384-.3272-9.192-2.268-13.44-3.488-5.192-1.4928-10.36-2.7896-15.672-3.8232-30.4488-5.928-61.1832-11.1768-92.1568-13.4264.944-1.6384 1.3536-3.1344 1.744-4.9624l-.0392-.8432c-1.732-2.2864-1.8944-2.7416-1.8392-5.6264.156-.5136.1296-.3264.1656-.9112.2976-4.7896-.7464-11.352-3.9504-15.0848q-.3936-.584-.8152-1.148-.4216-.5632-.8704-1.1056-.4488-.5424-.924-1.0624-.4752-.52-.9752-1.0152-.5-.496-1.0232-.9664-.524-.4704-1.0704-.9152-.5456-.444-1.1128-.8608t-1.1544-.8056q-.5872-.388-1.1928-.7472-.6056-.3592-1.228-.6888-.6224-.3288-1.26-.6264-.6376-.2984-1.2896-.5648-.6512-.2664-1.3152-.5-.664-.2344-1.3392-.4352-.6744-.2008-1.3576-.3688-.684-.168-1.3752-.3016-.7528-.1512-1.512-.2648-.7592-.1144-1.5232-.1912-.7632-.0768-1.5304-.116-.7664-.0392-1.5344-.0416-.7672-.0016-1.5344.0336-.7664.036-1.5304.1088-.7648.0728-1.524.1832-.76.1096-1.5136.2568-.7536.1472-1.4984.3312-.7456.1832-1.4816.4032-.7352.22-1.4592.4752-.724.256-1.4344.5464-.7104.2904-1.4064.6152-.6952.3248-1.3744.6832-.6792.3584-1.3392.7496-.6608.3912-1.3016.8144c-4.5296 3.0504-10.104 8.9744-11.0176 14.5576-.0256.1536-.028.3112-.0416.4664-.4416 1.9008-.4752 5.1048-1.2744 6.7872-1.452 3.0584-4.8968 3.3952-4.5168 7.4976.9872 1.5592 1.6144 1.9752 3.3608 2.668 2.2144.6784 5.4464 1.272 7.2488 2.7032-5.848.8736-17.1424-.0168-23.5736-.0376l-56.4112-.06q.0176-4.2848-.2024-8.564c.6248-6.8784.0656-14.2784.056-21.212q-.048-20.5808.1408-41.16c31.3648 2.3384 61.8936 10.164 91.376 20.9744 6.1912 2.2696 12.2232 4.9768 18.3848 7.3272 8.816 3.3624 17.9704 5.9208 26.3768 10.276 9.3232-3.7544 17.9672-8.8944 27.028-13.1968 54.9744-26.1 107.0624-59.4624 167.6784-71.0664 10.8-2.068 21.776-3.0816 32.728-3.8952Z"/>
  <path fill="#F3F4EF" d="m368.6672 302.5904.476.0936c1.052 1.9688.8232 229.1448.8296 253.9816q-100.8856-30.7664-202.7912-57.96c-.4704-32.2192-.0176-64.5032-.1088-96.7328.0336-1.4304.1952-2.6096-.588-3.8584-3.3312-.8888-32.8784 6.568-38.0056 7.6944q-.3992 41.3352-.1248 82.672c-8.8592-2.4144-17.8936-4.3144-26.7992-6.5768-.2568-31.9936-.2704-64.7952.4112-96.7744 12.7496-3.192 25.392-7.9872 37.944-11.9408q34.1328-10.8192 68.444-21.0576l101.04-31.1328c19.7144-6.0584 39.8216-11.5816 59.2728-18.408Z"/>
  <path fill="#3C3C68" d="M331.6224 343.692c.6104-.1104 1.256-.2504 1.876-.2656 1.1288-.028 1.4888.176 2.2488.9664.8368 5.2168.2056 11.1288.1928 16.4384l-.0464 34.2608.0432 28.4488c.0328 5.2952.5584 11.048-.1368 16.2776-1.2856 1.0168-3.6648 1.0664-5.2728 1.1488-11.328.5776-23.048-.0968-34.432.0336-32.5248.3728-65.1408.5048-97.6432 1.5976-1.8808.0496-4.0592.372-5.8088-.3944-1.1768-6.4752-.3744-14.2456-.392-20.8888q-.14-22.1768.0696-44.352c16.2352-3.1536 32.28-7.8584 48.3464-11.7896l90.9552-21.4816Z"/>
  <path fill="#A4C6C9" d="M213.3504 375.6752c.264-.0328.7648.152 1.0296.2184 1.4184 4.5704.452 22.0088.44 27.8824-5.6416.7712-11.2696 1.532-16.8648 2.5976l-1.1512-.148c-1.7568-1.9536-.9088-22.1024-.9088-26.312q8.7136-2.1768 17.4552-4.2384Zm.1216 32.1128.916.0456c1.3416 2.164.6272 26.3824.6144 30.6992l-17.6224.1264-.7296-.1592c-1.3696-1.876-.6616-24.0376-.6616-27.9496 5.784-1.1072 11.6608-1.8736 17.4832-2.7624Zm25.5152-38.0496.212.148c1.7088 3.2304.752 24.7656.7488 29.996l-19.964 2.94-.572-.284c-1.3288-2.6792-.5456-23.7984-.5384-28.1984q10.0416-2.368 20.1136-4.6016Zm.4888 34.1032c1.3904 3.0064.5024 28.812.4824 34.1768l-20.344.1408c-1.4728-1.8856-.6224-27.0576-.6144-31.3704q10.2456-1.4216 20.476-2.9472Zm26.5032-40.5832.9928.0184c1.444 2.3592.5944 27.8976.5776 32.672-7.364 1.4128-14.9976 2.1272-22.4336 3.144l-.856-.3176c-1.288-5.3408-.3816-23.152-.7576-30.3888 7.4248-1.8952 14.9128-3.8856 22.4768-5.128Zm-1.6624 37.0256c1.2536-.1184 1.9136-.3736 3.036.2408 1.176 11.6992.2184 25.1664.1824 37.056l-19.0904.2088c-1.5904.0376-2.8256.2752-4.2736-.468-1.2408-6.7912-.2144-26.1552-.1656-34.3216 6.7792-.8144 13.5448-1.8008 20.3112-2.716Zm32.3104-44.5808c1.616 1.7368.8472 31.7136.8264 36.2544q-12.6776 1.5664-25.3272 3.3432c-1.412-1.8344-.7208-28.0872-1.044-32.7688 8.5304-1.9464 17.0432-4.6528 25.5448-6.8288Zm-.6656 40.0904 1.0656.1088c1.1352 2.0416.3864 35.9232.38 41.2464l-24.5328.38-.992-.2192c-1.3192-4.4152-.3512-31.0528-.3312-37.9l24.4104-3.616Zm33.4592-47.5608c.9824-.1912 1.5224-.216 2.488.0576 1.1208 3.2952.2224 32.6928.1936 38.5744-9.6672.5104-19.3224 2.9552-28.984 3.9584l-1.3752-.0032c-1.7816-3.1968-.66-30.2992-.6392-36 9.3112-2.6856 18.8272-4.6504 28.3168-6.5872Zm-.0248 42.5712c1.1632-.08 1.4752-.184 2.4872.3544.9048 4.8536.296 10.608.268 15.5712l-.1792 30.2808-28.5968.1696-1.4032-.2736c-1.7008-3.716-.8608-35.5576-.892-41.9936 9.4848-1.088 18.8392-3.0144 28.316-4.1088Z"/>
</svg>
